<?xml version="1.0" encoding="UTF-8"?>
<svg xmlns="http://www.w3.org/2000/svg" xmlns:xlink="http://www.w3.org/1999/xlink" width="225pt" height="231pt" viewBox="0 0 225 231" version="1.1">
<g id="surface1">
<path style=" stroke:none;fill-rule:nonzero;fill:rgb(0%,0%,0%);fill-opacity:1;" d="M 87 17.324219 C 83.851562 17.625 79.425781 18.601562 77.101562 19.5 C 71.699219 21.523438 64.351562 26.25 62.25 29.101562 C 60.601562 31.273438 60.523438 31.273438 59.175781 29.925781 C 57.375 28.125 55.425781 28.125 53.101562 30 C 50.550781 31.949219 49.574219 36.226562 49.125 46.125 C 48.75 55.5 45.824219 66.75 40.800781 78 C 38.25 83.773438 37.875 85.199219 37.425781 93 C 37.199219 97.726562 36.601562 102.601562 36.074219 103.726562 C 35.625 104.925781 35.476562 107.175781 35.699219 108.75 C 36.074219 111 35.699219 112.949219 34.199219 116.699219 C 32.851562 120 31.800781 124.800781 31.125 130.425781 C 29.851562 140.851562 29.324219 142.574219 24.601562 150.449219 C 17.101562 163.050781 17.101562 170.023438 24.824219 186 C 27.375 191.175781 29.773438 196.199219 30.300781 197.25 C 31.574219 199.875 37.050781 203.324219 40.726562 203.773438 C 43.050781 204 43.574219 203.925781 42.75 203.324219 C 42.148438 202.875 40.949219 202.726562 40.125 202.949219 C 39 203.25 38.925781 203.175781 39.675781 202.648438 C 40.425781 202.125 39.898438 201.523438 37.574219 200.175781 C 35.925781 199.273438 33.601562 197.175781 32.476562 195.601562 C 30.976562 193.425781 30.300781 192.898438 29.773438 193.648438 C 29.324219 194.324219 29.25 194.25 29.550781 193.273438 C 29.773438 192.523438 30 191.699219 30 191.398438 C 30 191.175781 30.898438 191.851562 32.101562 192.898438 C 34.425781 195.074219 36.75 196.050781 36.75 194.925781 C 36.75 194.476562 35.023438 192.375 33 190.199219 C 30.976562 188.023438 29.25 185.625 29.25 184.949219 C 29.25 184.273438 29.023438 183.824219 28.648438 184.050781 C 28.351562 184.199219 28.199219 183.074219 28.351562 181.5 C 28.648438 178.5 27.300781 173.25 26.25 173.25 C 25.351562 173.25 26.773438 167.625 29.324219 161.398438 C 30.523438 158.398438 31.5 155.398438 31.5 154.800781 C 31.5 151.5 36.375 145.574219 44.851562 138.601562 C 47.175781 136.648438 51 129.824219 51 127.5 C 51 125.25 52.949219 128.550781 55.425781 134.925781 C 57.601562 140.476562 57.824219 141.824219 57.375 145.425781 C 56.625 151.199219 54.976562 154.125 48.074219 161.550781 C 41.398438 168.675781 40.800781 170.25 40.949219 178.574219 C 41.101562 185.925781 42.300781 188.773438 47.175781 193.425781 L 51.375 197.398438 L 51.601562 193.050781 C 51.75 190.574219 52.125 188.324219 52.5 187.949219 C 53.398438 187.050781 58.125 188.773438 60.75 191.023438 C 62.101562 192.074219 63 193.574219 63 194.625 C 63 195.601562 63.375 196.648438 63.75 196.875 C 64.800781 197.550781 64.648438 196.199219 63.300781 192.824219 C 62.324219 190.425781 61.351562 189.523438 58.050781 187.949219 C 55.726562 186.824219 53.476562 186.226562 53.023438 186.523438 C 52.050781 187.050781 52.425781 186.523438 57.824219 180 C 59.699219 177.75 62.625 173.476562 64.351562 170.625 C 67.5 165.375 69.449219 162.300781 68.625 164.101562 C 67.800781 165.75 70.425781 171.898438 74.925781 178.875 L 79.273438 185.625 L 78 189.375 C 77.25 191.398438 75.148438 196.425781 73.273438 200.398438 C 69.75 207.824219 67.949219 213 68.851562 213 C 69.148438 213 70.199219 210.898438 71.101562 208.273438 C 72.074219 205.726562 74.175781 200.699219 75.824219 197.101562 C 77.398438 193.574219 78.75 190.199219 78.75 189.601562 C 78.824219 189.074219 79.273438 187.800781 79.949219 186.75 C 80.550781 185.699219 80.925781 185.398438 80.851562 186 C 80.625 187.273438 86.625 197.25 87.601562 197.25 C 87.976562 197.25 88.125 196.199219 87.898438 195 C 87.601562 193.050781 87.75 192.824219 88.949219 193.273438 C 90.226562 193.726562 90.226562 193.648438 89.398438 192.523438 C 88.5 191.476562 88.648438 190.574219 90 186.601562 C 90.898438 183.976562 91.875 179.101562 92.25 175.648438 C 92.773438 169.5 92.851562 169.273438 96.226562 165.898438 C 98.101562 163.949219 100.648438 160.800781 101.851562 158.773438 C 103.800781 155.625 104.101562 155.398438 104.476562 156.824219 C 104.773438 157.875 104.023438 160.125 102.675781 162.898438 C 99.375 169.5 96.449219 182.25 97.050781 187.875 C 97.574219 192.824219 101.324219 201.449219 104.550781 204.976562 C 106.949219 207.601562 107.773438 207.601562 106.125 204.898438 C 104.925781 202.949219 105 203.023438 107.023438 205.199219 C 108.148438 206.476562 109.5 208.125 109.949219 208.949219 C 110.625 210.074219 110.699219 209.625 110.476562 206.550781 C 110.023438 201.976562 110.773438 200.324219 117.300781 191.699219 C 123.300781 183.898438 124.425781 181.726562 126.074219 175.125 C 127.125 170.851562 127.425781 170.398438 127.425781 172.574219 C 127.5 176.773438 126 183.75 123.976562 188.550781 C 122.023438 193.351562 121.5 199.800781 122.925781 203.476562 C 123.976562 206.175781 124.125 206.023438 124.125 202.648438 C 124.125 199.574219 125.476562 196.574219 130.800781 188.175781 C 133.726562 183.449219 134.476562 181.5 135.148438 176.925781 C 136.125 169.726562 135.449219 151.574219 133.949219 146.25 C 132.523438 141.226562 132.523438 140.851562 133.726562 141.148438 C 136.050781 141.601562 146.550781 137.25 153.75 132.824219 C 163.5 126.75 171.074219 122.925781 171.976562 123.523438 C 172.648438 123.898438 185.625 126.75 186.898438 126.75 C 187.125 126.75 187.875 128.324219 188.550781 130.199219 C 189.449219 132.976562 189.523438 134.324219 188.925781 137.398438 C 188.476562 139.425781 188.324219 142.199219 188.550781 143.550781 C 188.851562 144.824219 189.375 152.476562 189.75 160.5 C 190.199219 170.101562 191.023438 177.824219 192.074219 183 C 192.976562 187.351562 193.949219 193.273438 194.25 196.273438 C 195 202.5 195.601562 204.75 196.574219 204.75 C 196.949219 204.75 197.25 205.050781 197.25 205.5 C 197.25 205.875 196.949219 206.25 196.574219 206.25 C 194.851562 206.25 182.25 215.625 182.25 216.824219 C 182.25 217.199219 184.351562 215.851562 186.976562 213.898438 C 194.324219 208.125 197.699219 206.101562 199.648438 206.398438 C 200.625 206.550781 201.226562 206.773438 201.074219 207 C 200.925781 207.226562 201.148438 208.125 201.675781 209.023438 C 202.726562 211.050781 204.75 211.273438 204.75 209.398438 C 204.75 208.648438 205.125 207.675781 205.648438 207.148438 C 206.324219 206.476562 206.023438 206.25 204.226562 206.25 C 199.050781 206.25 195.523438 197.398438 194.25 181.125 C 193.800781 175.800781 193.125 168.523438 192.675781 165 C 192.226562 161.476562 191.851562 153.75 191.925781 147.824219 C 192 141.375 191.625 136.050781 191.175781 134.625 C 190.574219 133.050781 190.5 131.773438 191.023438 130.949219 C 191.699219 129.824219 192.148438 130.050781 194.773438 133.273438 C 198.898438 138.226562 201.375 143.476562 202.425781 149.398438 C 203.398438 155.324219 208.726562 171.074219 210.898438 174.523438 C 211.726562 175.875 212.699219 177 213.148438 177 C 213.675781 177 213.601562 176.625 213.074219 175.949219 C 212.324219 175.125 212.398438 173.324219 213.375 168.074219 C 214.875 160.125 214.574219 158.699219 209.625 150 C 207.898438 146.925781 205.5 142.726562 204.375 140.625 C 203.175781 138.601562 200.851562 135.375 199.125 133.5 C 197.476562 131.625 195.523438 129.226562 194.851562 128.175781 C 193.574219 126.148438 186.226562 121.050781 185.550781 121.726562 C 185.324219 121.949219 185.550781 122.851562 186 123.75 C 186.449219 124.648438 186.75 125.476562 186.601562 125.625 C 186.300781 125.851562 173.175781 123.226562 172.726562 122.773438 C 171.898438 121.949219 180.148438 119.851562 182.101562 120.449219 C 183.226562 120.75 185.101562 121.050781 186.226562 121.199219 C 188.324219 121.351562 195.976562 124.949219 199.425781 127.5 C 200.398438 128.175781 201.75 130.199219 202.425781 132 C 203.773438 135.675781 206.023438 137.25 205.199219 134.023438 C 204.976562 132.898438 203.925781 130.800781 202.875 129.300781 C 201.824219 127.800781 201 126.074219 201 125.550781 C 201 124.949219 199.800781 123.226562 198.375 121.648438 C 196.949219 120 195.976562 118.5 196.125 118.199219 C 196.351562 117.976562 196.273438 117.898438 196.050781 118.050781 C 195.824219 118.273438 194.398438 117.75 192.898438 117 C 191.324219 116.25 187.425781 115.050781 184.199219 114.375 C 177.226562 112.949219 174.976562 111.601562 171.75 106.574219 C 169.800781 103.5 169.050781 101.023438 167.550781 92.101562 C 165.601562 81 163.875 75.976562 161.023438 72.824219 C 160.125 71.851562 155.476562 67.726562 150.601562 63.675781 C 142.726562 57 141.523438 55.648438 137.925781 49.351562 C 126.449219 29.175781 120.523438 23.25 107.625 19.273438 C 100.425781 17.101562 94.574219 16.5 87 17.324219 Z M 108.675781 20.550781 C 118.949219 24.148438 123.898438 28.5 131.699219 40.648438 C 135.375 46.425781 139.800781 54 139.875 54.75 C 139.875 55.425781 143.25 59.476562 143.25 58.949219 C 143.25 57.976562 159.976562 72.75 161.550781 75.148438 C 164.101562 78.898438 164.773438 81.300781 166.5 91.351562 C 167.324219 96.449219 168.148438 101.023438 168.226562 101.476562 C 168.300781 102 169.5 104.175781 170.851562 106.425781 L 173.324219 110.476562 L 171.226562 108.75 C 169.050781 107.101562 164.25 100.050781 164.25 98.625 C 164.324219 98.25 165.148438 98.851562 166.199219 100.125 C 168.375 102.675781 168.074219 101.851562 164.625 96.375 C 163.273438 94.273438 160.425781 88.875 158.25 84.226562 C 156 79.425781 153.976562 75.976562 153.523438 76.273438 C 153.074219 76.5 153 76.425781 153.226562 75.976562 C 153.449219 75.601562 152.925781 73.726562 152.101562 71.925781 C 150.074219 67.875 144.375 59.851562 143.851562 60.375 C 143.25 61.050781 138.675781 55.5 139.125 54.675781 C 139.425781 54.300781 139.425781 54 139.199219 54 C 139.050781 54 138.226562 53.773438 137.476562 53.476562 C 135.75 52.800781 138.75 56.925781 143.851562 62.101562 C 147.601562 65.925781 150.148438 70.425781 153.449219 79.125 C 155.773438 85.199219 165 102.75 167.773438 106.351562 C 170.699219 110.25 178.648438 114.824219 182.851562 115.125 C 190.199219 115.648438 196.949219 119.773438 200.023438 125.550781 L 201.148438 127.726562 L 198.976562 126.226562 C 195.75 123.898438 189.824219 121.125 185.023438 119.625 C 181.351562 118.5 179.175781 118.351562 171.074219 118.800781 L 161.476562 119.324219 L 155.925781 115.648438 C 144.75 108.300781 140.25 101.25 140.25 90.976562 C 140.25 82.875 137.476562 67.726562 135.074219 63 C 133.949219 60.75 132.601562 58.949219 132.074219 59.101562 C 131.550781 59.175781 131.324219 59.023438 131.550781 58.648438 C 132.226562 57.601562 126.675781 51.601562 125.476562 52.050781 C 124.875 52.273438 124.574219 52.199219 124.800781 51.824219 C 125.023438 51.449219 123.75 50.925781 121.949219 50.699219 C 119.398438 50.324219 117.074219 50.625 112.125 52.199219 C 106.875 53.851562 104.773438 54.148438 100.648438 53.773438 C 93.449219 53.25 82.199219 49.949219 67.648438 44.175781 C 66.675781 43.800781 65.101562 43.5 64.050781 43.5 C 62.25 43.5 62.175781 43.273438 62.625 41.023438 C 62.925781 39.75 63.824219 37.5 64.648438 36.148438 C 66.523438 33.148438 77.324219 23.625 81.226562 21.601562 C 85.273438 19.574219 84.226562 19.125 79.875 21.074219 C 75.226562 23.175781 65.851562 30.074219 63.75 33 C 61.648438 35.925781 60.675781 35.851562 61.5 32.773438 C 62.476562 29.25 69 23.699219 74.925781 21.375 C 82.050781 18.449219 84.824219 18.074219 94.5 18.300781 C 101.476562 18.523438 104.175781 18.976562 108.675781 20.550781 Z M 74.625 25.199219 C 68.324219 30.601562 64.125 35.25 62.550781 38.550781 C 61.574219 40.574219 60.976562 42.523438 61.199219 42.898438 C 61.425781 43.199219 61.199219 43.5 60.824219 43.5 C 60.375 43.5 60 41.925781 60 39.75 C 60 37.648438 60.375 36 60.75 36 C 61.199219 36 61.5 36.601562 61.574219 37.273438 C 61.574219 38.25 61.875 38.101562 62.476562 36.75 C 64.125 33.300781 65.851562 31.351562 71.023438 27.300781 C 76.351562 23.175781 78.449219 21.898438 74.625 25.199219 Z M 58.050781 30.226562 C 59.25 31.125 59.398438 32.398438 59.398438 39.976562 C 59.398438 44.699219 59.101562 49.199219 58.726562 49.875 C 58.125 50.925781 57.898438 50.851562 56.625 49.5 C 55.574219 48.300781 55.273438 47.101562 55.5 44.773438 C 55.648438 43.050781 55.800781 38.851562 55.726562 35.398438 C 55.726562 32.023438 55.949219 29.25 56.175781 29.25 C 56.476562 29.25 57.300781 29.699219 58.050781 30.226562 Z M 54.449219 39.601562 C 54 46.273438 54.074219 46.875 55.875 49.875 C 57.898438 53.398438 58.199219 55.125 57 55.875 C 56.476562 56.175781 56.398438 55.648438 56.699219 54.375 C 57.148438 52.5 57.074219 52.351562 55.425781 52.875 C 53.101562 53.625 49.5 55.425781 49.5 55.949219 C 49.5 56.101562 50.476562 55.800781 51.75 55.125 C 54.523438 53.699219 55.351562 53.699219 55.648438 55.273438 C 55.800781 56.25 54.976562 56.925781 52.125 57.898438 C 47.625 59.476562 47.773438 59.398438 48.375 58.5 C 49.273438 57 49.648438 54.226562 50.175781 44.625 C 50.550781 37.574219 51.074219 34.199219 52.050781 32.324219 C 53.25 30 53.476562 29.851562 54.226562 31.125 C 54.675781 31.949219 54.75 35.175781 54.449219 39.601562 Z M 74.25 47.550781 C 77.773438 48.976562 84.675781 51.148438 89.550781 52.5 C 97.351562 54.601562 99.300781 54.898438 104.550781 54.523438 L 110.625 54.148438 L 107.625 55.949219 C 105.523438 57.148438 103.5 57.75 101.023438 57.75 C 95.699219 57.75 85.875 55.050781 80.625 52.125 C 74.175781 48.523438 70.125 47.773438 64.351562 49.125 C 61.800781 49.726562 59.625 50.101562 59.550781 50.023438 C 59.476562 49.949219 59.925781 48.601562 60.675781 47.023438 C 61.875 44.175781 61.949219 44.175781 64.875 44.625 C 66.523438 44.851562 70.726562 46.199219 74.25 47.550781 Z M 78.226562 51.976562 C 81 53.175781 83.175781 54.375 83.023438 54.523438 C 82.800781 54.675781 79.949219 53.773438 76.574219 52.5 C 69.675781 49.949219 67.949219 49.875 62.625 51.449219 L 58.875 52.5 L 62.25 51.976562 C 67.425781 51.148438 72.074219 51.449219 75 52.726562 C 77.476562 53.851562 77.476562 53.925781 75.375 53.398438 C 72.375 52.726562 63.976562 52.800781 60.976562 53.550781 C 59.023438 54.074219 58.648438 53.925781 58.800781 52.949219 C 59.023438 51.148438 59.550781 50.851562 64.273438 49.875 C 69.675781 48.75 71.773438 49.050781 78.226562 51.976562 Z M 118.125 52.574219 C 111.074219 56.398438 108.300781 57.675781 107.25 57.675781 C 106.648438 57.675781 107.398438 57 108.976562 56.175781 C 110.625 55.273438 111.601562 54.375 111.300781 53.851562 C 111 53.398438 111.074219 53.25 111.523438 53.476562 C 111.976562 53.773438 113.851562 53.324219 115.574219 52.5 C 120 50.550781 121.800781 50.625 118.125 52.574219 Z M 127.050781 54.375 C 129.449219 55.949219 130.125 58.199219 129.074219 61.050781 C 128.625 62.175781 128.25 63.824219 128.25 64.800781 C 128.25 67.5 124.574219 74.25 123.300781 73.726562 C 122.550781 73.425781 122.25 73.949219 122.25 75.75 C 122.25 77.324219 122.550781 77.925781 123.074219 77.550781 C 123.601562 77.25 123.824219 77.398438 123.675781 77.925781 C 123.148438 79.425781 121.875 78.976562 121.648438 77.25 C 121.5 76.273438 120.976562 75.824219 120.375 75.976562 C 118.875 76.574219 117.976562 75.148438 118.351562 72.675781 C 118.574219 71.101562 119.851562 69.449219 122.398438 67.351562 C 125.25 64.949219 126 63.75 125.851562 62.398438 C 125.550781 59.925781 122.175781 57.449219 120.074219 58.125 C 118.125 58.726562 118.050781 60.300781 119.925781 62.175781 C 121.5 63.75 121.273438 64.648438 119.550781 63.976562 C 118.949219 63.75 118.5 62.851562 118.425781 61.949219 C 118.425781 60.449219 118.351562 60.449219 117.675781 62.175781 C 117.148438 63.523438 117.300781 64.273438 118.199219 65.324219 C 119.101562 66.300781 119.25 66.976562 118.648438 67.648438 C 118.273438 68.175781 117.75 70.351562 117.601562 72.449219 C 117.449219 74.625 116.851562 76.875 116.324219 77.550781 C 115.800781 78.148438 115.199219 80.699219 114.976562 83.175781 C 114.601562 87.226562 114.75 87.824219 116.476562 89.550781 C 118.574219 91.648438 120.300781 92.023438 121.199219 90.601562 C 121.574219 90 121.351562 89.925781 120.449219 90.226562 C 118.199219 91.125 115.5 87.601562 115.574219 83.851562 C 115.574219 80.398438 115.648438 80.398438 117.824219 86.101562 C 118.648438 88.199219 121.800781 88.125 121.949219 86.023438 C 122.023438 85.125 122.023438 85.050781 121.726562 85.875 C 121.273438 87.375 119.476562 87.300781 118.574219 85.648438 C 117.523438 83.625 116.324219 78.675781 117 79.125 C 117.300781 79.351562 117.75 78.976562 118.050781 78.375 C 118.273438 77.773438 119.023438 77.25 119.625 77.25 C 120.300781 77.25 120.601562 77.625 120.300781 78.074219 C 119.851562 78.824219 120.375 80.25 122.324219 84.148438 C 123.226562 85.875 123.148438 88.273438 122.324219 88.875 C 121.949219 89.101562 121.726562 90.375 121.875 91.726562 C 122.101562 93.148438 121.949219 93.75 121.574219 93.148438 C 120.976562 92.175781 120.375 93.898438 118.5 102.375 C 118.050781 104.398438 117.226562 106.875 116.773438 107.851562 C 115.273438 110.398438 102.074219 124.425781 98.773438 126.824219 C 95.550781 129.148438 91.050781 129.75 89.398438 128.101562 C 88.949219 127.648438 88.273438 127.425781 88.050781 127.726562 C 87.148438 128.550781 92.476562 130.351562 94.648438 129.976562 C 95.773438 129.75 98.023438 128.398438 99.75 126.976562 C 101.398438 125.476562 102.898438 124.425781 103.050781 124.574219 C 103.125 124.726562 103.648438 127.574219 104.175781 130.875 C 105.523438 139.574219 104.101562 145.273438 97.425781 158.625 C 94.5 164.398438 91.273438 169.949219 90.226562 171 C 88.125 173.023438 88.199219 172.949219 91.050781 166.125 C 93.75 159.75 93.675781 153.148438 90.824219 144.148438 C 89.625 140.398438 88.425781 135.675781 88.125 133.726562 C 87.898438 131.773438 87.523438 129 87.300781 127.648438 C 86.925781 124.425781 85.949219 122.699219 83.550781 120.824219 L 81.523438 119.25 L 83.476562 117.75 C 84.523438 116.925781 86.023438 114.898438 86.699219 113.25 C 87.449219 111.601562 88.273438 110.25 88.648438 110.25 C 88.949219 110.25 89.25 110.023438 89.25 109.648438 C 89.25 108.75 76.574219 109.125 75.601562 110.101562 C 74.101562 111.601562 73.875 111.148438 73.875 107.25 C 73.949219 103.351562 74.699219 101.773438 75.675781 103.351562 C 76.125 104.101562 76.648438 104.023438 78 102.898438 C 79.351562 101.851562 79.648438 101.023438 79.199219 99.523438 C 78.976562 98.398438 78.375 97.5 77.925781 97.5 C 77.476562 97.5 77.476562 97.949219 78 98.925781 C 78.675781 100.199219 78.375 102.75 77.550781 102.75 C 77.324219 102.75 76.351562 102.226562 75.300781 101.550781 C 73.800781 100.5 73.050781 100.425781 71.550781 101.175781 C 70.273438 101.699219 69.75 102.449219 70.050781 103.125 C 70.574219 104.550781 68.25 104.625 66.375 103.199219 C 65.023438 102.226562 64.949219 101.925781 66 98.476562 C 67.351562 94.050781 67.273438 89.476562 65.925781 86.625 C 64.875 84.523438 64.351562 84.148438 60.449219 82.351562 C 57.675781 81.148438 56.398438 77.175781 55.800781 67.800781 C 55.351562 61.648438 55.425781 60.675781 56.925781 57.976562 C 58.273438 55.574219 59.25 54.824219 61.949219 54.148438 C 63.75 53.625 66.300781 53.25 67.574219 53.25 C 70.425781 53.25 81.449219 55.273438 86.851562 56.699219 C 89.023438 57.300781 91.125 57.601562 91.648438 57.300781 C 92.101562 57 92.25 57.074219 92.023438 57.523438 C 91.726562 58.050781 92.625 58.5 94.351562 58.800781 C 98.023438 59.398438 98.398438 59.398438 100.125 59.023438 C 100.949219 58.875 101.175781 58.875 100.648438 59.023438 C 100.125 59.25 99.898438 59.699219 100.125 60.074219 C 100.351562 60.449219 99.976562 60.523438 99.300781 60.226562 C 98.550781 59.925781 98.175781 60.074219 98.476562 60.449219 C 99.074219 61.425781 93.375 64.949219 88.273438 66.675781 C 85.574219 67.648438 83.101562 67.949219 81.148438 67.726562 C 77.625 67.273438 72.375 69.75 67.5 74.25 C 64.273438 77.25 63.824219 78.523438 65.773438 79.273438 C 66.601562 79.574219 67.574219 79.050781 68.773438 77.550781 L 70.574219 75.375 L 70.351562 77.550781 C 70.125 79.726562 71.023438 80.625 74.625 82.050781 C 75.074219 82.199219 75 82.726562 74.476562 83.324219 C 73.949219 83.851562 73.5 84.601562 73.5 84.898438 C 73.5 85.800781 75.601562 85.648438 76.199219 84.601562 C 76.5 84.074219 76.425781 84 75.898438 84.300781 C 75.375 84.601562 75 84.449219 75 84.074219 C 75 82.648438 76.648438 83.175781 77.023438 84.75 C 77.476562 86.476562 77.625 86.476562 79.5 85.5 C 81.976562 84.148438 84.523438 78.675781 84.074219 75.449219 C 84 75.148438 83.324219 75.601562 82.574219 76.574219 C 81.824219 77.550781 81.300781 78.976562 81.449219 79.800781 C 81.601562 80.550781 81.449219 81 81.226562 80.699219 C 80.925781 80.476562 79.949219 80.925781 79.050781 81.824219 C 78.148438 82.648438 77.25 83.023438 77.023438 82.726562 C 76.800781 82.351562 77.625 81.449219 78.824219 80.699219 C 80.101562 79.949219 80.925781 79.199219 80.699219 78.976562 C 80.476562 78.75 79.351562 79.273438 78.074219 80.175781 C 75.898438 81.75 75.75 81.75 73.199219 80.476562 C 71.699219 79.800781 70.5 78.976562 70.5 78.675781 C 70.5 77.625 74.324219 73.574219 76.875 72 C 78.300781 71.101562 82.574219 69.449219 86.398438 68.25 C 90.300781 67.050781 94.726562 65.023438 96.375 63.824219 C 98.023438 62.550781 99.675781 61.5 99.976562 61.5 C 100.273438 61.5 101.851562 62.324219 103.351562 63.375 C 106.648438 65.625 111.226562 66.976562 113.324219 66.375 C 115.5 65.699219 117.601562 60.898438 117.375 57.449219 C 117.148438 55.425781 117.449219 54.226562 118.273438 53.625 C 119.851562 52.425781 124.726562 52.875 127.050781 54.375 Z M 116.25 59.398438 C 116.25 63.300781 113.476562 66.226562 110.476562 65.550781 C 108 64.949219 101.25 61.5 101.25 60.75 C 101.25 60.449219 102.300781 60.375 103.5 60.601562 C 104.773438 60.75 105.75 61.351562 105.75 61.875 C 105.75 63.074219 107.398438 63.75 110.25 63.75 C 111.75 63.75 112.875 63.074219 113.925781 61.574219 C 115.800781 59.023438 116.023438 57.523438 114.300781 59.699219 C 113.175781 61.125 113.175781 60.675781 114.449219 57.375 C 114.898438 56.023438 114.75 56.101562 113.023438 57.675781 C 111.523438 59.023438 109.875 59.625 106.800781 59.851562 C 103.726562 60.074219 102.675781 60 103.050781 59.324219 C 103.351562 58.875 104.699219 58.5 105.976562 58.5 C 107.324219 58.5 109.726562 57.824219 111.375 57.074219 C 115.273438 55.273438 116.25 55.726562 116.25 59.398438 Z M 111.75 60.375 C 110.023438 62.25 110.625 63.074219 112.425781 61.273438 C 113.175781 60.523438 113.25 60.675781 112.800781 61.726562 C 112.425781 62.699219 111.824219 63 110.699219 62.699219 C 109.875 62.476562 108.523438 62.25 107.851562 62.25 C 107.101562 62.25 106.5 61.875 106.5 61.5 C 106.5 61.050781 107.25 60.75 108.226562 60.75 C 109.199219 60.75 110.625 60.226562 111.449219 59.625 C 113.625 57.976562 113.699219 58.273438 111.75 60.375 Z M 124.875 61.5 C 125.324219 63 124.648438 65.25 123.601562 65.25 C 123.226562 65.25 122.175781 66.074219 121.199219 67.125 L 119.476562 68.925781 L 119.476562 66.75 C 119.476562 65.550781 119.773438 64.726562 120.148438 64.949219 C 120.449219 65.175781 121.199219 64.875 121.726562 64.425781 C 122.550781 63.601562 122.398438 63.148438 120.824219 61.726562 C 119.25 60.375 119.101562 59.925781 119.925781 59.324219 C 121.273438 58.425781 124.351562 59.773438 124.875 61.5 Z M 54.523438 64.273438 C 54.601562 67.125 54.824219 73.273438 55.125 78 C 55.5 84.824219 55.351562 87.824219 54.375 92.25 C 53.699219 95.324219 52.949219 99.75 52.726562 102 C 52.351562 106.425781 52.273438 106.351562 58.949219 123.75 L 62.476562 133.125 L 62.550781 142.875 C 62.550781 156 60.898438 160.726562 52.726562 170.175781 C 49.726562 173.699219 48.976562 173.851562 50.550781 170.550781 C 51.148438 169.351562 53.398438 164.175781 55.574219 159 C 60.449219 147.375 61.199219 141.375 58.5 135.148438 C 57.601562 133.050781 56.324219 130.875 55.648438 130.351562 C 55.050781 129.824219 55.5 131.023438 56.699219 133.125 C 58.648438 136.5 58.875 137.476562 58.800781 143.25 C 58.726562 149.324219 58.5 150.148438 54.148438 160.199219 C 51.675781 166.050781 48.675781 172.648438 47.625 174.824219 C 46.125 177.75 45.675781 179.398438 46.050781 181.351562 C 46.5 184.5 48.601562 186.976562 50.324219 186.523438 C 51.375 186.226562 51.523438 186.523438 51.148438 188.175781 C 50.925781 189.226562 50.699219 191.398438 50.699219 192.976562 L 50.699219 195.75 L 47.773438 192.976562 C 43.574219 188.851562 42.601562 186.523438 42.148438 179.175781 C 41.699219 170.324219 42.449219 168.449219 49.949219 160.425781 C 54.898438 155.175781 56.476562 152.925781 57.375 149.851562 C 58.949219 144.375 58.800781 140.925781 56.550781 135.523438 C 55.5 132.976562 54.523438 130.351562 54.375 129.75 C 53.925781 127.726562 51.976562 124.5 51.523438 124.949219 C 50.925781 125.550781 41.023438 116.773438 38.851562 113.773438 C 36.226562 110.023438 36.824219 102.824219 40.574219 93.523438 C 42.898438 87.75 43.726562 84.523438 44.324219 78.523438 C 45.75 64.125 47.773438 59.25 52.425781 59.25 C 54.375 59.25 54.449219 59.324219 54.523438 64.273438 Z M 129.375 73.726562 C 128.699219 75.375 128.476562 76.949219 128.773438 77.175781 C 129.148438 77.398438 129.898438 79.875 130.425781 82.574219 C 131.175781 86.550781 131.175781 89.324219 130.5 96.300781 C 129.75 103.273438 129.75 106.050781 130.5 109.574219 C 131.25 113.175781 131.25 114.898438 130.5 118.5 C 129.300781 124.125 129.898438 137.023438 131.625 141.601562 C 134.101562 148.425781 135.226562 158.175781 134.773438 168.824219 C 134.324219 180.226562 133.875 181.648438 128.550781 190.199219 C 126.601562 193.273438 124.574219 197.101562 124.050781 198.601562 L 123.074219 201.375 L 123 197.398438 C 123 194.851562 123.675781 191.699219 124.875 188.773438 C 127.949219 180.824219 129.074219 173.023438 127.726562 168.074219 C 127.351562 166.726562 126.824219 168.074219 125.476562 173.699219 C 123.675781 181.351562 122.550781 183.449219 116.023438 192 C 111.898438 197.324219 108.601562 203.851562 109.273438 205.050781 C 109.5 205.5 108.898438 205.050781 107.773438 204.074219 C 106.726562 203.175781 105.523438 202.574219 105.148438 202.800781 C 103.425781 203.851562 99.300781 195.824219 98.175781 189.074219 C 97.125 182.324219 99.074219 173.625 104.625 160.574219 C 106.050781 157.125 106.726562 154.125 106.949219 149.550781 C 107.175781 146.101562 108.148438 140.625 109.125 137.175781 C 110.175781 133.726562 111 129.675781 111 128.101562 C 111 126.523438 111.375 125.25 111.75 125.25 C 112.726562 125.25 113.324219 123.601562 115.5 115.875 C 116.398438 112.574219 117.976562 107.851562 118.949219 105.375 C 119.925781 102.898438 120.601562 100.199219 120.449219 99.375 C 120.300781 98.550781 120.375 98.398438 120.601562 99 C 120.824219 99.601562 121.875 96.523438 123.074219 92.101562 C 124.199219 87.75 125.851562 82.726562 126.601562 81.074219 C 127.425781 79.351562 127.949219 77.324219 127.726562 76.5 C 127.5 75.675781 127.726562 74.476562 128.25 73.875 C 128.773438 73.273438 129 72 128.699219 71.101562 C 128.476562 70.125 128.699219 67.199219 129.226562 64.5 L 130.125 59.625 L 130.351562 65.175781 C 130.5 69 130.199219 71.699219 129.375 73.726562 Z M 134.699219 64.050781 C 136.574219 68.101562 138 76.5 139.425781 92.023438 C 139.949219 98.101562 140.550781 100.425781 142.199219 103.5 C 144.523438 107.773438 150.601562 113.699219 155.699219 116.699219 C 157.5 117.75 159 118.726562 159 118.800781 C 159 119.175781 150.148438 117.898438 147 117.074219 C 141.898438 115.648438 135.523438 113.324219 134.023438 112.125 C 132.675781 111.148438 132.675781 110.773438 133.800781 104.101562 C 136.199219 89.324219 135.824219 67.949219 133.125 63.148438 C 132.449219 62.023438 132.074219 61.800781 132.375 62.625 C 134.023438 67.875 134.398438 72.75 134.023438 86.101562 C 133.648438 102 132.300781 112.574219 131.101562 108.375 C 130.800781 107.101562 130.875 102.074219 131.324219 96.601562 C 132.074219 88.273438 132.074219 86.324219 130.875 80.851562 C 129.675781 75.148438 129.675781 74.324219 130.726562 72.300781 C 131.476562 70.800781 131.699219 68.851562 131.476562 66.226562 C 131.101562 62.476562 131.476562 60 132.375 60 C 132.601562 60 133.648438 61.800781 134.699219 64.050781 Z M 79.726562 69.148438 C 78.375 69.601562 77.25 70.273438 77.25 70.574219 C 77.25 70.949219 76.726562 70.949219 75.976562 70.726562 C 75.226562 70.425781 74.925781 70.574219 75.226562 71.023438 C 75.523438 71.476562 74.550781 72.75 73.125 73.800781 C 71.699219 74.925781 70.5 75.601562 70.5 75.300781 C 70.5 75 69.523438 75.675781 68.25 76.875 C 67.050781 78.074219 65.773438 78.75 65.476562 78.523438 C 64.726562 77.699219 71.25 71.851562 75 69.976562 C 76.875 69 79.199219 68.324219 80.25 68.324219 C 81.898438 68.398438 81.898438 68.476562 79.726562 69.148438 Z M 125.699219 79.5 C 124.5 83.851562 123.824219 85.125 123.824219 83.625 C 123.75 81.898438 123.523438 81.601562 123 82.5 C 122.625 83.101562 122.25 83.25 122.25 82.800781 C 122.25 82.351562 122.773438 81.523438 123.449219 80.925781 C 124.199219 80.324219 124.5 79.273438 124.273438 78.074219 C 124.050781 76.949219 124.5 75.074219 125.476562 73.351562 C 127.800781 69.300781 127.875 71.773438 125.699219 79.5 Z M 42.449219 85.351562 C 41.851562 87.675781 40.648438 91.125 39.824219 93 L 38.324219 96.375 L 38.324219 91.726562 C 38.25 88.273438 38.851562 85.425781 40.726562 80.476562 L 43.125 73.875 L 43.351562 77.476562 C 43.5 79.425781 43.050781 82.949219 42.449219 85.351562 Z M 163.875 98.101562 C 163.5 98.476562 154.875 81.148438 154.199219 78.75 C 153.976562 77.699219 156.074219 81.601562 158.925781 87.375 C 161.851562 93.074219 164.023438 97.949219 163.875 98.101562 Z M 58.273438 82.648438 C 58.949219 84.226562 59.851562 85.5 60.300781 85.5 C 60.75 85.5 62.25 86.550781 63.601562 87.75 C 66.375 90.300781 66.75 93.375 64.800781 98.175781 C 63.226562 102.148438 64.273438 104.101562 68.324219 104.699219 C 71.773438 105.300781 72.226562 105.75 71.398438 108.074219 C 70.949219 109.125 71.25 111.449219 72.148438 114.675781 C 74.175781 122.175781 73.949219 131.925781 71.550781 140.476562 C 70.199219 145.050781 69.523438 149.101562 69.601562 152.550781 C 69.601562 158.625 68.550781 162 64.351562 169.125 C 60.898438 174.898438 53.023438 184.875 51.300781 185.550781 C 49.875 186.074219 48.226562 185.398438 47.699219 184.050781 C 47.398438 183.226562 47.773438 183.300781 49.351562 184.273438 C 51.148438 185.398438 51.148438 185.25 48.824219 182.773438 L 46.199219 180 L 47.625 177.226562 C 48.375 175.648438 48.976562 174.148438 48.898438 173.851562 C 48.824219 173.550781 49.199219 173.476562 49.800781 173.699219 C 51.148438 174.226562 57.898438 165.675781 60.375 160.425781 C 63.148438 154.351562 63.976562 149.175781 63.523438 140.25 C 63.148438 133.050781 62.773438 131.476562 59.25 122.25 C 52.425781 104.324219 52.574219 105.226562 55.050781 93.375 C 55.726562 90.449219 56.25 85.726562 56.25 82.875 C 56.324219 79.949219 56.550781 78.148438 56.699219 78.75 C 56.925781 79.351562 57.601562 81.148438 58.273438 82.648438 Z M 80.25 83.625 C 79.273438 84.675781 78.300781 85.351562 78.148438 85.125 C 77.851562 84.824219 81 81.824219 81.675781 81.75 C 81.898438 81.75 81.226562 82.574219 80.25 83.625 Z M 63.601562 84.976562 C 64.125 85.425781 64.949219 86.398438 65.398438 87.226562 C 66.148438 88.648438 66.074219 88.648438 63.976562 87.148438 C 62.773438 86.25 61.273438 85.050781 60.75 84.375 C 59.925781 83.398438 60 83.25 61.199219 83.699219 C 61.949219 84 63.074219 84.601562 63.601562 84.976562 Z M 121.273438 96.148438 C 121.050781 96.75 120.824219 96.523438 120.824219 95.699219 C 120.75 94.875 120.976562 94.425781 121.199219 94.726562 C 121.425781 94.949219 121.5 95.625 121.273438 96.148438 Z M 73.5 102 C 72.898438 102.375 72.675781 102.75 73.050781 102.75 C 73.425781 102.75 73.273438 103.273438 72.675781 103.949219 C 71.851562 105 71.699219 105 71.023438 103.800781 C 70.273438 102.449219 71.398438 101.25 73.5 101.25 C 74.476562 101.25 74.476562 101.324219 73.5 102 Z M 73.199219 110.023438 C 73.199219 112.574219 73.425781 114.375 73.949219 114.523438 C 74.476562 114.675781 74.699219 115.425781 74.550781 116.101562 C 74.324219 116.773438 75.523438 120.148438 77.175781 123.601562 C 81.074219 131.550781 81.976562 136.875 82.199219 153 C 82.273438 160.199219 82.648438 168.824219 83.101562 172.125 C 83.476562 175.425781 83.625 178.273438 83.476562 178.425781 C 83.101562 178.875 79.351562 176.023438 78.675781 174.675781 C 78.375 174.148438 77.851562 172.648438 77.625 171.375 C 77.324219 170.101562 75.523438 167.625 73.125 165.375 C 69.898438 162.300781 69.226562 161.324219 69.75 160.125 C 70.125 159.300781 70.425781 156.074219 70.425781 153 C 70.5 149.101562 71.175781 145.199219 72.523438 140.625 C 74.175781 135.074219 74.550781 132.523438 74.398438 126.523438 C 74.398438 122.25 73.800781 117.375 73.125 114.976562 C 72.375 112.5 72.074219 109.726562 72.375 108.226562 C 73.050781 104.625 73.351562 105.148438 73.199219 110.023438 Z M 85.125 111 C 85.425781 111.449219 85.949219 111.523438 86.398438 111.300781 C 87.75 110.476562 85.425781 114.300781 83.023438 116.773438 C 80.398438 119.550781 78.75 119.925781 78.75 117.824219 C 78.75 117 80.175781 115.5 82.273438 114.148438 C 84.976562 112.351562 85.5 111.75 84.601562 111.375 C 83.925781 111.074219 82.125 111.226562 80.550781 111.675781 C 78.449219 112.273438 77.398438 112.199219 76.574219 111.523438 C 75.675781 110.851562 75.601562 110.851562 76.050781 111.523438 C 76.351562 112.199219 76.125 112.5 75.300781 112.5 C 74.324219 112.5 74.25 112.273438 75 111.375 C 76.050781 110.101562 84.375 109.800781 85.125 111 Z M 114.898438 114.824219 C 114.074219 117.074219 113.25 120.148438 112.949219 121.648438 C 112.351562 125.101562 111.074219 125.25 108.898438 122.324219 L 107.324219 120.074219 L 111.601562 115.273438 C 113.925781 112.648438 115.949219 110.550781 116.101562 110.625 C 116.175781 110.699219 115.648438 112.574219 114.898438 114.824219 Z M 81.601562 113.625 C 78.75 115.574219 77.25 115.949219 77.25 114.824219 C 77.25 113.398438 79.351562 112.425781 83.625 111.824219 C 84 111.824219 83.101562 112.574219 81.601562 113.625 Z M 45.976562 122.175781 C 51.449219 126.523438 51.375 125.851562 48 133.050781 C 46.800781 135.523438 44.773438 137.851562 41.175781 140.699219 C 35.101562 145.574219 32.101562 149.699219 30.375 155.550781 C 29.699219 157.949219 28.5 161.324219 27.75 163.050781 C 24.824219 169.574219 24.523438 172.875 26.25 180.675781 C 28.351562 190.199219 28.5 190.5 29.324219 190.5 C 29.773438 190.5 29.851562 189.824219 29.625 189 C 29.25 187.726562 29.476562 187.800781 31.273438 189.523438 C 32.476562 190.726562 33.898438 192.300781 34.5 193.050781 C 35.550781 194.398438 35.550781 194.476562 34.050781 193.648438 C 33.226562 193.199219 32.101562 192.300781 31.5 191.625 C 30.898438 190.875 30.300781 190.726562 29.699219 191.175781 C 28.351562 192.375 21.898438 179.101562 20.550781 172.273438 C 19.5 167.101562 19.5 166.199219 20.625 161.851562 C 21.300781 159.300781 22.800781 155.476562 24.074219 153.375 C 29.324219 144.601562 30.824219 140.550781 31.574219 133.351562 C 32.476562 125.625 33.75 119.625 35.625 115.273438 L 36.824219 112.351562 L 38.925781 115.273438 C 40.125 116.925781 43.273438 120 45.976562 122.175781 Z M 135.300781 114.074219 C 136.351562 114.898438 137.625 115.351562 138.074219 115.050781 C 138.675781 114.675781 138.75 114.824219 138.375 115.5 C 137.925781 116.25 138.074219 116.398438 139.050781 116.023438 C 139.726562 115.726562 140.175781 115.800781 139.949219 116.175781 C 138.824219 117.976562 152.398438 122.101562 163.875 123.449219 L 167.625 123.898438 L 164.25 125.699219 C 160.050781 127.875 158.550781 128.023438 161.851562 125.925781 C 163.199219 125.023438 164.175781 124.125 163.949219 123.976562 C 163.726562 123.75 162.449219 124.425781 161.101562 125.476562 C 159.75 126.523438 156.300781 128.550781 153.375 130.050781 C 150.523438 131.550781 146.101562 134.023438 143.550781 135.601562 C 138.75 138.601562 133.050781 140.851562 132.226562 140.023438 C 131.324219 139.050781 130.425781 122.625 131.175781 119.625 C 131.773438 117.074219 131.851562 117.449219 131.625 122.25 L 131.324219 127.875 L 132.074219 123.375 C 132.449219 120.898438 132.675781 117.449219 132.601562 115.648438 C 132.449219 113.925781 132.601562 112.5 132.824219 112.5 C 133.125 112.5 134.175781 113.175781 135.300781 114.074219 Z M 76.273438 114.824219 C 76.050781 115.726562 76.273438 116.476562 76.949219 116.773438 C 77.550781 117 78 117.824219 78 118.574219 C 78 119.476562 78.523438 120 79.425781 120 C 81.300781 120 84.675781 122.773438 85.574219 125.101562 C 85.949219 126.074219 86.625 129.300781 87 132.300781 C 87.449219 135.226562 88.726562 140.324219 89.773438 143.625 C 91.425781 148.425781 91.800781 150.976562 91.800781 156.375 C 91.800781 162.375 91.5 163.726562 89.25 168.75 C 87.898438 171.824219 86.175781 175.050781 85.574219 175.800781 C 84.898438 176.625 84.824219 177 85.273438 176.699219 C 85.949219 176.324219 86.175781 177.675781 86.175781 182.175781 C 86.175781 185.476562 86.476562 188.851562 87 189.675781 C 87.898438 191.476562 87.601562 191.625 85.273438 190.425781 C 83.699219 189.675781 83.699219 189.75 85.351562 191.175781 C 86.324219 192 87 193.273438 86.851562 194.023438 C 86.699219 195.074219 86.324219 194.851562 85.199219 193.199219 C 84.449219 192 83.773438 190.648438 83.699219 190.199219 C 83.625 189.75 82.949219 188.25 82.199219 186.898438 C 81 184.5 81 184.351562 82.199219 183.449219 C 82.875 182.925781 83.25 182.101562 82.949219 181.648438 C 82.574219 181.050781 82.949219 180.75 83.925781 180.75 C 85.199219 180.75 85.273438 180.449219 84.824219 178.648438 C 84 176.023438 83.175781 162.601562 82.875 147.75 C 82.574219 134.625 81.75 130.351562 77.550781 122.25 C 76.050781 119.324219 75 116.476562 75.226562 115.949219 C 75.449219 115.351562 75.226562 114.523438 74.773438 114.074219 C 74.175781 113.476562 74.324219 113.25 75.300781 113.25 C 76.351562 113.25 76.574219 113.625 76.273438 114.824219 Z M 148.125 118.050781 C 153 119.25 162.226562 120.449219 164.625 120.226562 C 165.449219 120.148438 168.976562 119.925781 172.5 119.699219 L 178.875 119.324219 L 173.324219 121.199219 C 170.25 122.175781 167.398438 122.925781 166.949219 122.699219 C 166.5 122.550781 166.726562 122.324219 167.476562 122.324219 C 169.5 122.25 168.976562 120.898438 166.875 120.898438 C 165.898438 120.898438 165.226562 121.199219 165.449219 121.574219 C 166.726562 123.675781 150.375 120.976562 144.375 118.050781 C 142.351562 117.074219 141.300781 116.398438 142.125 116.625 C 142.949219 116.773438 145.648438 117.449219 148.125 118.050781 Z M 108.148438 122.773438 C 109.726562 124.574219 110.476562 128.324219 109.875 131.550781 C 109.351562 134.175781 108 134.625 108 132.148438 C 108 131.476562 107.101562 129.226562 106.125 127.125 C 104.773438 124.425781 104.550781 123.226562 105.148438 122.476562 C 106.199219 121.199219 106.800781 121.273438 108.148438 122.773438 Z M 189.449219 126.375 C 190.351562 128.25 190.726562 129.976562 190.351562 130.199219 C 189.449219 130.800781 189.074219 130.351562 188.773438 128.550781 C 188.699219 127.800781 188.398438 126.75 188.175781 126.375 C 187.273438 124.800781 186.824219 123 187.351562 123 C 187.648438 123 188.550781 124.5 189.449219 126.375 Z M 106.574219 130.5 C 108.074219 135.148438 108.148438 136.050781 107.324219 139.273438 C 106.800781 141.300781 106.351562 145.351562 106.199219 148.351562 C 106.050781 151.351562 105.824219 153.976562 105.523438 154.199219 C 105.300781 154.425781 105.226562 152.324219 105.300781 149.476562 C 105.449219 144.449219 105.449219 144.449219 104.550781 147.375 C 104.101562 149.023438 103.800781 151.125 104.023438 152.023438 C 104.398438 153.675781 100.648438 159.75 96 165 C 94.050781 167.175781 94.5 165.976562 98.476562 158.25 C 104.625 146.476562 106.5 139.050781 105.148438 131.699219 C 103.574219 123.449219 104.101562 123 106.574219 130.5 Z M 191.101562 125.851562 C 190.949219 126.226562 192 127.425781 193.351562 128.550781 C 194.625 129.675781 195.75 131.101562 195.75 131.699219 C 195.75 132.375 196.050781 132.675781 196.425781 132.449219 C 197.925781 131.550781 208.199219 147.675781 212.398438 157.5 C 213.898438 160.949219 213.898438 161.476562 212.101562 169.800781 L 211.351562 173.476562 L 209.550781 169.425781 C 208.574219 167.175781 207.824219 164.625 207.75 163.800781 C 207.675781 157.5 198.898438 133.574219 197.175781 134.699219 C 196.800781 134.925781 196.726562 134.476562 197.023438 133.800781 C 197.324219 132.976562 197.175781 132.675781 196.726562 132.976562 C 196.273438 133.273438 194.550781 132 192.824219 130.125 C 189.824219 126.824219 189 125.25 190.5 125.25 C 190.949219 125.25 191.175781 125.550781 191.101562 125.851562 Z M 159 128.550781 C 159 128.773438 156.226562 130.574219 152.851562 132.601562 C 146.398438 136.5 140.625 139.199219 141.375 138 C 141.601562 137.625 142.949219 136.949219 144.375 136.5 C 145.800781 136.050781 146.851562 135.300781 146.550781 134.925781 C 146.324219 134.550781 146.398438 134.25 146.773438 134.324219 C 148.273438 134.550781 149.324219 134.175781 148.875 133.5 C 148.574219 133.050781 148.949219 132.976562 149.699219 133.273438 C 150.675781 133.648438 150.824219 133.5 150.375 132.675781 C 150.074219 132.074219 150.074219 131.851562 150.375 132.226562 C 150.75 132.523438 151.875 132.148438 152.925781 131.476562 C 154.800781 130.273438 158.398438 128.25 158.851562 128.25 C 158.925781 128.25 159 128.398438 159 128.550781 Z M 190.800781 143.25 C 190.574219 146.773438 190.199219 149.773438 190.050781 149.925781 C 189.898438 150.074219 189.75 146.699219 189.75 142.425781 C 189.75 137.101562 189.976562 135 190.5 135.75 C 190.949219 136.425781 191.023438 139.574219 190.800781 143.25 Z M 205.726562 157.5 C 206.023438 159.300781 205.726562 158.773438 204.75 156 C 204 153.75 203.324219 151.199219 203.398438 150.375 C 203.398438 148.648438 205.125 153.75 205.726562 157.5 Z M 192.375 169.800781 C 193.726562 183.074219 193.726562 186.824219 192.300781 179.625 C 191.398438 174.824219 190.125 154.949219 190.875 157.5 C 191.101562 158.101562 191.699219 163.648438 192.375 169.800781 Z M 74.925781 168.375 C 76.199219 169.875 77.25 171.75 77.25 172.5 C 77.25 173.699219 76.800781 173.476562 74.773438 171.226562 C 73.351562 169.648438 71.699219 167.550781 71.023438 166.5 C 70.351562 165.523438 69.75 165.074219 69.75 165.523438 C 69.75 166.425781 74.773438 173.023438 76.726562 174.675781 C 77.476562 175.199219 78 176.25 78 177 C 78 177.75 78.523438 179.699219 79.125 181.425781 C 80.699219 185.925781 79.351562 184.648438 74.851562 177.148438 C 69.226562 167.851562 67.800781 163.125 71.175781 165 C 71.925781 165.375 73.574219 166.875 74.925781 168.375 Z M 91.273438 176.398438 C 90.976562 179.398438 90.148438 183.75 89.324219 186 C 88.050781 189.824219 87.898438 189.976562 87.375 188.175781 C 87.074219 187.050781 87.074219 183.523438 87.226562 180.300781 C 87.75 173.175781 87.824219 172.5 88.574219 172.875 C 88.800781 173.101562 89.476562 172.726562 90 172.125 C 91.574219 170.25 91.726562 170.773438 91.273438 176.398438 Z M 82.273438 180.75 C 82.199219 181.5 81.898438 181.949219 81.601562 181.800781 C 81.300781 181.574219 81 181.875 80.925781 182.398438 C 80.851562 183.523438 78.898438 178.574219 78.824219 177.074219 C 78.75 176.324219 79.351562 176.550781 80.550781 177.675781 C 81.601562 178.648438 82.351562 180 82.273438 180.75 Z M 27.523438 180.523438 C 27.300781 181.273438 27.148438 180.675781 27.148438 179.25 C 27.148438 177.824219 27.300781 177.226562 27.523438 177.898438 C 27.675781 178.648438 27.675781 179.851562 27.523438 180.523438 Z M 36.898438 200.699219 C 38.101562 201.300781 38.925781 202.050781 38.773438 202.273438 C 37.949219 203.023438 32.101562 199.125 31.050781 197.101562 C 29.398438 193.875 29.851562 193.726562 32.324219 196.726562 C 33.601562 198.300781 35.625 200.023438 36.898438 200.699219 Z M 199.125 204 C 199.875 204.824219 200.175781 205.5 199.726562 205.5 C 198.074219 205.5 196.351562 203.398438 195.75 200.625 C 194.550781 195.601562 195 194.398438 196.425781 198.601562 C 197.175781 200.699219 198.375 203.175781 199.125 204 Z M 203.625 208.574219 C 204.449219 209.851562 203.550781 210.148438 202.5 208.875 C 201.898438 208.199219 201.898438 207.75 202.351562 207.75 C 202.800781 207.75 203.398438 208.125 203.625 208.574219 Z M 203.625 208.574219 "/>
<path style=" stroke:none;fill-rule:nonzero;fill:rgb(0%,0%,0%);fill-opacity:1;" d="M 118.5 54.375 C 117.976562 55.050781 117.675781 55.726562 117.898438 55.875 C 118.125 56.101562 118.726562 55.800781 119.25 55.125 C 119.773438 54.449219 120.074219 53.773438 119.851562 53.625 C 119.625 53.398438 119.023438 53.699219 118.5 54.375 Z M 118.5 54.375 "/>
<path style=" stroke:none;fill-rule:nonzero;fill:rgb(0%,0%,0%);fill-opacity:1;" d="M 71.925781 73.273438 L 70.125 75.375 L 72.375 73.5 C 73.648438 72.449219 74.773438 71.550781 74.925781 71.398438 C 75.074219 71.324219 74.925781 71.25 74.476562 71.25 C 74.101562 71.25 72.976562 72.148438 71.925781 73.273438 Z M 71.925781 73.273438 "/>
<path style=" stroke:none;fill-rule:nonzero;fill:rgb(0%,0%,0%);fill-opacity:1;" d="M 169.351562 120.523438 C 169.875 120.75 170.550781 120.675781 170.773438 120.449219 C 171.074219 120.226562 170.625 120 169.800781 120.074219 C 168.976562 120.074219 168.75 120.300781 169.351562 120.523438 Z M 169.351562 120.523438 "/>
</g>
</svg>
