<svg id="Layer_1" height="512" viewBox="0 0 128 128" width="512" xmlns="http://www.w3.org/2000/svg" data-name="Layer 1"><path d="m46.792 26.628a5.78 5.78 0 1 0 -5.78-5.781 5.786 5.786 0 0 0 5.78 5.781zm0-8.06a2.28 2.28 0 1 1 -2.28 2.279 2.282 2.282 0 0 1 2.28-2.279z"/><path d="m92.277 103.339a5.78 5.78 0 1 0 5.78 5.78 5.786 5.786 0 0 0 -5.78-5.78zm0 8.059a2.28 2.28 0 1 1 2.28-2.279 2.282 2.282 0 0 1 -2.28 2.281z"/><path d="m16.75 63.031a5.78 5.78 0 1 0 5.78-5.779 5.786 5.786 0 0 0 -5.78 5.779zm5.78-2.279a2.28 2.28 0 1 1 -2.28 2.279 2.282 2.282 0 0 1 2.28-2.279z"/><path d="m67.5 52.245a30.956 30.956 0 0 0 -16.238 16.236c-1.348 3.643-1.081 6.657.751 8.489a5.83 5.83 0 0 0 4.272 1.6 12.281 12.281 0 0 0 4.217-.848 28.215 28.215 0 0 0 9.679-6.557 28.215 28.215 0 0 0 6.557-9.679c1.348-3.642 1.081-6.657-.751-8.489s-4.845-2.097-8.487-.752zm5.958 8.025a24.673 24.673 0 0 1 -5.75 8.419 24.673 24.673 0 0 1 -8.419 5.75c-2.22.821-4.014.841-4.8.057s-.764-2.58.057-4.8a27.538 27.538 0 0 1 14.167-14.169 8.928 8.928 0 0 1 3-.631 2.505 2.505 0 0 1 1.8.574c.787.787.764 2.581-.057 4.8z"/><path d="m12.5 28.594a7.745 7.745 0 1 0 -5.479-2.266 7.722 7.722 0 0 0 5.479 2.266zm-3.005-10.751a4.249 4.249 0 1 1 -1.245 3 4.234 4.234 0 0 1 1.245-3z"/><path d="m110.021 67.581a7.75 7.75 0 1 0 10.958 0 7.7 7.7 0 0 0 -10.958 0zm8.484 8.485a4.25 4.25 0 1 1 1.245-3.006 4.256 4.256 0 0 1 -1.245 3.006z"/><path d="m95.513 40.826v-.008a10.789 10.789 0 0 0 -2.7-4.644 11.954 11.954 0 0 0 -8.1-3.268c11.784-4.985 24.5-8.3 30.836-5.015 2.829 1.466 4.2 4.2 4.2 8.342a1.75 1.75 0 1 0 3.5 0c0-5.5-2.051-9.354-6.095-11.449-13.111-6.79-44.2 8.671-55.049 16.307a81.876 81.876 0 0 0 -12.023 9.975 76.038 76.038 0 0 0 -13.643 18.164c3.173-12.574 11.607-28.255 28.692-42.719a1.75 1.75 0 1 0 -2.262-2.671c-29.269 24.778-34.204 52.627-30.382 65.3v.006a10.813 10.813 0 0 0 2.7 4.647 11.962 11.962 0 0 0 8.11 3.264c-11.786 4.987-24.507 8.3-30.845 5.018-2.829-1.466-4.2-4.194-4.2-8.342a1.75 1.75 0 0 0 -3.5 0c0 5.5 2.051 9.355 6.1 11.449a17.84 17.84 0 0 0 8.205 1.682c15.044 0 37.879-11.676 46.849-17.993a81.757 81.757 0 0 0 12.011-9.971 76.018 76.018 0 0 0 13.644-18.164c-3.173 12.574-11.607 28.255-28.692 42.719a1.75 1.75 0 0 0 2.262 2.672c29.269-24.779 34.204-52.627 30.382-65.301zm-20.071 35.6a78.4 78.4 0 0 1 -11.471 9.527c-.011.007-.024.012-.034.019l-.127.088a53.052 53.052 0 0 1 -10.949 5.74c-6.824 2.527-12.361 2.348-15.2-.486s-3.011-8.372-.486-15.2c2.727-7.371 8.189-15.391 15.379-22.581a78.274 78.274 0 0 1 11.49-9.533.174.174 0 0 1 .019-.01l.128-.088a53.021 53.021 0 0 1 10.948-5.744 25.347 25.347 0 0 1 8.607-1.774 9.04 9.04 0 0 1 6.589 2.26c2.834 2.834 3.011 8.372.486 15.2-2.727 7.372-8.189 15.391-15.379 22.582z"/></svg>