<?xml version="1.0" encoding="UTF-8"?>
<svg xmlns="http://www.w3.org/2000/svg" xmlns:xlink="http://www.w3.org/1999/xlink" width="150pt" height="132pt" viewBox="0 0 150 132" version="1.1">
<g id="surface1">
<path style=" stroke:none;fill-rule:nonzero;fill:rgb(0%,0%,0%);fill-opacity:1;" d="M 30.800781 15.746094 L 21.300781 19.457031 L 17.449219 27.132812 L 13.550781 34.855469 L 13.550781 49.046875 L 13.5 63.242188 L 20.050781 71.71875 L 26.601562 80.144531 L 42.699219 93.183594 C 51.5 100.355469 62.351562 109.128906 66.75 112.742188 L 74.800781 119.261719 L 98.75 99.800781 L 122.75 80.34375 L 129.351562 71.917969 L 136 63.441406 L 136 34.605469 L 132.050781 27.03125 L 128.101562 19.410156 L 118.449219 15.699219 L 108.800781 11.984375 L 97.648438 15.496094 C 91.550781 17.453125 85.851562 19.507812 85.050781 20.109375 C 83.800781 21.015625 82.050781 24.074219 82.75 24.074219 C 82.851562 24.074219 81.351562 28.738281 79.449219 34.453125 C 77.550781 40.171875 76 45.136719 76 45.4375 C 76 45.789062 77.851562 46.792969 80.148438 47.695312 C 82.398438 48.597656 84.351562 49.398438 84.449219 49.5 C 84.550781 49.550781 82.699219 53.011719 80.351562 57.125 L 76.050781 64.644531 L 77.25 73.070312 C 77.898438 77.683594 78.351562 81.546875 78.300781 81.597656 C 78.25 81.648438 75.101562 78.488281 71.351562 74.527344 L 64.5 67.304688 L 68 59.378906 C 69.898438 55.066406 71.398438 51.355469 71.300781 51.207031 C 71.148438 51.054688 68.550781 49.652344 65.398438 48.144531 C 62.300781 46.640625 59.648438 45.335938 59.550781 45.289062 C 59.449219 45.238281 60.050781 41.375 60.949219 36.761719 C 62.851562 26.53125 64 19.410156 63.851562 19.257812 C 63.648438 19.109375 40.75 12.035156 40.5 12.085938 C 40.351562 12.085938 36 13.742188 30.800781 15.746094 Z M 40.398438 13.890625 C 39.550781 14.894531 38.351562 18.507812 36.050781 26.832031 C 35.199219 29.839844 32.949219 37.964844 31 44.785156 C 29.101562 51.65625 27.5 57.675781 27.5 58.226562 C 27.5 58.726562 27.300781 59.179688 27.101562 59.179688 C 26.648438 59.179688 15.25 35.207031 15.550781 34.90625 C 15.648438 34.804688 20.949219 30.390625 27.25 25.125 C 33.601562 19.808594 38.699219 15.144531 38.699219 14.746094 C 38.648438 14.394531 38.800781 14.144531 39 14.292969 C 39.199219 14.445312 39.648438 14.191406 40 13.792969 C 40.351562 13.390625 40.75 13.039062 40.898438 13.039062 C 41.050781 13.039062 40.800781 13.441406 40.398438 13.890625 Z M 109.75 13.589844 C 110.300781 14.394531 109.800781 14.542969 109.101562 13.742188 C 108.75 13.339844 108.699219 13.039062 108.949219 13.039062 C 109.199219 13.039062 109.601562 13.289062 109.75 13.589844 Z M 58.851562 31.394531 L 60.449219 32.847656 L 59.25 38.617188 C 58.601562 41.777344 58.050781 44.785156 58 45.289062 C 58 45.890625 58.898438 46.589844 60.851562 47.492188 L 63.75 48.847656 L 46.75 54.414062 C 37.398438 57.523438 29.300781 60.234375 28.800781 60.433594 C 28 60.785156 27.898438 60.683594 28.199219 59.882812 C 28.601562 58.929688 30.949219 50.601562 37.5 27.234375 L 41.199219 14.09375 L 49.25 22.015625 C 53.648438 26.378906 57.949219 30.59375 58.851562 31.394531 Z M 57.75 18.90625 C 60.199219 19.609375 62.351562 20.261719 62.398438 20.3125 C 62.550781 20.460938 60.949219 30.59375 60.75 30.945312 C 60.699219 31.042969 59.351562 29.789062 57.699219 28.183594 C 48.699219 19.558594 43.5 14.445312 43.5 14.34375 C 43.5 14.242188 45.699219 14.945312 48.351562 15.898438 C 51.050781 16.851562 55.25 18.207031 57.75 18.90625 Z M 99.148438 21.164062 C 95.050781 25.074219 88.75 31.246094 85.101562 34.855469 C 81.449219 38.464844 78.601562 41.175781 78.699219 40.925781 C 78.800781 40.625 80.199219 36.410156 81.75 31.597656 C 84.898438 21.816406 85.800781 20.511719 89.75 19.507812 C 90.949219 19.207031 95.101562 17.855469 98.851562 16.550781 C 102.648438 15.246094 105.898438 14.144531 106.148438 14.144531 C 106.351562 14.09375 103.199219 17.253906 99.148438 21.164062 Z M 109 15.144531 C 109 16.148438 112.398438 28.585938 119.5 53.664062 C 120.601562 57.375 121.398438 60.433594 121.351562 60.484375 C 121.300781 60.535156 113.398438 57.925781 103.75 54.664062 C 85.949219 48.699219 77.898438 45.636719 77.648438 44.785156 C 77.550781 44.484375 84.351562 37.664062 92.75 29.539062 C 101.148438 21.414062 108 14.644531 108 14.394531 C 108 14.191406 108.25 14.042969 108.5 14.042969 C 108.800781 14.042969 109 14.542969 109 15.144531 Z M 35.75 16.199219 C 33.949219 17.503906 20.449219 28.835938 18.050781 31.042969 C 17.101562 31.898438 16.25 32.597656 16.199219 32.597656 C 16.148438 32.597656 16.949219 31.09375 18 29.1875 C 19.050781 27.332031 20.550781 24.625 21.300781 23.121094 L 22.75 20.460938 L 28.75 18.207031 C 32.050781 16.953125 34.949219 15.746094 35.25 15.496094 C 35.5 15.246094 36.050781 15.046875 36.5 15.046875 C 36.949219 15.097656 36.699219 15.496094 35.75 16.199219 Z M 112.5 16.75 C 114.699219 18.855469 132.75 33.902344 133.75 34.453125 C 134.351562 34.804688 133.898438 36.007812 131.5 41.023438 C 129.851562 44.433594 128.5 47.242188 128.5 47.34375 C 128.5 47.445312 127.199219 50.253906 125.601562 53.5625 L 122.699219 59.582031 L 119.25 47.191406 C 117.351562 40.421875 114.550781 30.390625 113 24.925781 C 111.449219 19.507812 110.300781 15.046875 110.449219 15.046875 C 110.601562 15.046875 111.5 15.796875 112.5 16.75 Z M 120 17.804688 C 123.699219 19.257812 127 20.914062 127.300781 21.414062 C 128 22.519531 132.648438 31.144531 132.949219 31.796875 C 133.050781 32.046875 129.699219 29.339844 125.449219 25.777344 C 121.199219 22.167969 116.550781 18.304688 115.101562 17.152344 C 113.601562 16 112.601562 15.046875 112.851562 15.046875 C 113.050781 15.097656 116.300781 16.300781 120 17.804688 Z M 19.949219 48.398438 C 22.5 53.914062 24.949219 58.980469 25.351562 59.582031 C 25.75 60.234375 26 60.835938 25.898438 60.933594 C 25.699219 61.136719 17.148438 62.1875 15.898438 62.1875 C 15.050781 62.1875 15 61.285156 15 50.050781 C 15 43.382812 15.101562 38.066406 15.148438 38.164062 C 15.25 38.265625 17.398438 42.878906 19.949219 48.398438 Z M 134.601562 50.351562 L 134.449219 62.289062 L 131.75 61.988281 C 130.25 61.835938 127.800781 61.535156 126.300781 61.386719 L 123.601562 61.085938 L 127.351562 53.210938 C 129.449219 48.898438 131.898438 43.734375 132.800781 41.675781 C 133.75 39.621094 134.550781 38.066406 134.648438 38.164062 C 134.699219 38.265625 134.699219 43.734375 134.601562 50.351562 Z M 67.699219 50.753906 L 69.898438 51.808594 L 68.148438 55.617188 C 67.199219 57.726562 65.648438 61.285156 64.648438 63.59375 L 62.851562 67.804688 L 68.398438 73.371094 L 73.949219 78.988281 L 74.101562 83.152344 C 74.199219 85.410156 74.101562 87.265625 73.851562 87.265625 C 73.648438 87.265625 72.648438 86.710938 71.601562 86.109375 C 69.449219 84.707031 34.199219 64.796875 31 63.140625 C 29.648438 62.4375 29.101562 61.886719 29.550781 61.738281 C 29.949219 61.585938 38.148438 58.828125 47.75 55.617188 C 57.398438 52.410156 65.300781 49.699219 65.351562 49.699219 C 65.398438 49.652344 66.449219 50.152344 67.699219 50.753906 Z M 103.5 56.21875 C 112.699219 59.230469 120.300781 61.789062 120.351562 61.886719 C 120.449219 61.988281 116.75 64.144531 112.148438 66.753906 C 107.550781 69.308594 97.5 74.976562 89.800781 79.339844 C 82.101562 83.703125 75.75 87.265625 75.699219 87.265625 C 75.648438 87.265625 75.5 85.808594 75.398438 84.003906 C 75.351562 82.199219 75.300781 80.746094 75.398438 80.746094 C 75.449219 80.746094 76.199219 81.546875 77.050781 82.5 C 78.601562 84.253906 80 84.808594 80 83.652344 C 80 83.300781 79.449219 78.988281 78.75 73.972656 L 77.5 64.898438 L 81.550781 57.773438 C 83.800781 53.863281 85.898438 50.652344 86.199219 50.652344 C 86.5 50.652344 94.300781 53.160156 103.5 56.21875 Z M 27.449219 60.882812 C 27.800781 61.285156 27.851562 61.738281 27.601562 61.886719 C 27.300781 62.039062 27 61.738281 26.851562 61.183594 C 26.550781 59.980469 26.648438 59.929688 27.449219 60.882812 Z M 122.699219 61.738281 C 122.550781 61.988281 122.199219 62.089844 121.949219 61.886719 C 121.699219 61.738281 121.601562 61.386719 121.800781 61.136719 C 121.949219 60.882812 122.300781 60.785156 122.550781 60.984375 C 122.800781 61.136719 122.898438 61.484375 122.699219 61.738281 Z M 26.5 69.8125 L 26.449219 77.484375 L 25.5 76.179688 C 24.949219 75.429688 22.601562 72.417969 20.199219 69.460938 C 17.851562 66.5 16 63.992188 16.101562 63.894531 C 16.199219 63.792969 18.398438 63.492188 21 63.140625 C 23.601562 62.839844 25.851562 62.488281 25.949219 62.390625 C 26.050781 62.289062 26.25 62.1875 26.351562 62.1875 C 26.449219 62.1875 26.5 65.648438 26.5 69.8125 Z M 131.550781 63.542969 L 133.898438 63.792969 L 129.601562 69.160156 C 127.25 72.070312 125 75.078125 124.550781 75.828125 C 124.101562 76.632812 123.601562 77.234375 123.398438 77.234375 C 123.148438 77.234375 123 73.925781 123 69.910156 L 123 62.539062 L 126.148438 62.890625 C 127.851562 63.089844 130.300781 63.34375 131.550781 63.542969 Z M 36 67.605469 C 40.25 70.011719 50.351562 75.730469 58.398438 80.242188 C 71.351562 87.566406 74.050781 89.269531 72.601562 89.269531 C 72.199219 89.269531 56.101562 97.796875 54.199219 99.050781 C 53.25 99.652344 52.300781 99 40.699219 89.570312 L 28.25 79.492188 L 28 71.316406 C 27.851562 66.851562 27.851562 63.191406 28 63.191406 C 28.199219 63.191406 31.800781 65.199219 36 67.605469 Z M 122 71.117188 L 122 79.039062 L 117.75 82.449219 C 115.398438 84.304688 109.648438 88.96875 105 92.78125 L 96.5 99.800781 L 94.101562 98.347656 C 91 96.441406 80.75 90.925781 78.398438 89.871094 C 77.351562 89.421875 76.5 88.917969 76.5 88.769531 C 76.5 88.46875 121.050781 63.242188 121.648438 63.191406 C 121.851562 63.191406 122 66.753906 122 71.117188 Z M 75.5 88.820312 C 75.5 89.070312 75.101562 89.269531 74.648438 89.21875 C 74.101562 89.21875 74 89.070312 74.398438 88.917969 C 74.699219 88.820312 74.851562 88.417969 74.699219 88.167969 C 74.5 87.816406 74.601562 87.765625 74.898438 87.964844 C 75.25 88.167969 75.5 88.519531 75.5 88.820312 Z M 74.25 103.3125 C 74.25 115.75 74.199219 116.753906 73.449219 116.203125 C 72.949219 115.851562 69.148438 112.792969 64.949219 109.332031 C 60.699219 105.871094 56.648438 102.5625 55.898438 102.058594 C 54.300781 100.90625 54.199219 100.402344 55.398438 99.953125 C 56.648438 99.453125 72.648438 90.726562 73.25 90.222656 C 73.5 89.972656 73.800781 89.773438 74 89.773438 C 74.148438 89.773438 74.25 95.839844 74.25 103.3125 Z M 84.5 94.835938 C 88.75 97.09375 92.949219 99.351562 93.851562 99.753906 L 95.449219 100.554688 L 88.601562 106.070312 C 84.851562 109.128906 80.351562 112.792969 78.648438 114.246094 L 75.5 116.902344 L 75.5 103.261719 C 75.5 92.429688 75.648438 89.773438 76.148438 90.125 C 76.449219 90.425781 80.25 92.53125 84.5 94.835938 Z M 84.5 94.835938 "/>
<path style=" stroke:none;fill-rule:nonzero;fill:rgb(0%,0%,0%);fill-opacity:1;" d="M 87.199219 22.871094 C 86.300781 23.570312 86.300781 23.621094 87.398438 23.070312 C 88 22.769531 88.5 22.417969 88.5 22.316406 C 88.5 21.917969 88.25 22.015625 87.199219 22.871094 Z M 87.199219 22.871094 "/>
</g>
</svg>
