<svg id="Capa_1" enable-background="new 0 0 513.559 513.559" height="512" viewBox="0 0 513.559 513.559" width="512" xmlns="http://www.w3.org/2000/svg"><g><path d="m331.011 124.504c5.277 2.592 10.365 5.506 15.266 8.687-3.832 6.89-5.892 14.705-5.892 22.655 0 25.678 20.891 46.568 46.569 46.568 5.146 0 10.251-.874 15.091-2.53 7.502 17.906 11.415 37.207 11.415 56.895 0 9.856-.983 19.721-2.922 29.321-.82 4.06 1.807 8.016 5.867 8.836.501.102 1 .15 1.493.15 3.496 0 6.625-2.458 7.344-6.018 2.136-10.575 3.219-21.439 3.219-32.29 0-24.2-5.372-47.87-15.616-69.473-.121-.308-.255-.612-.419-.909-.014-.026-.031-.048-.046-.074-2.728-5.654-5.774-11.171-9.167-16.507-16.072-25.271-38.751-45.596-65.586-58.775-3.718-1.826-8.212-.294-10.039 3.425-1.829 3.719-.295 8.213 3.423 10.039zm59.542 53.363c1.741 2.737 3.376 5.529 4.924 8.361-2.765.774-5.634 1.187-8.524 1.187-17.407 0-31.569-14.161-31.569-31.568 0-4.864 1.081-9.525 3.152-13.772 12.483 10.059 23.322 22.119 32.017 35.792z"/><path d="m76.123 303.031c-3.985 1.131-6.298 5.278-5.167 9.263 5.372 18.925 13.487 36.958 24.12 53.598 1.431 2.24 3.853 3.463 6.327 3.463 1.382 0 2.781-.382 4.031-1.181 3.491-2.23 4.512-6.868 2.282-10.358-9.845-15.407-17.357-32.101-22.33-49.617-1.132-3.987-5.282-6.301-9.263-5.168z"/><path d="m63.266 256.78c0 4.904.185 9.928.549 14.929.287 3.946 3.578 6.956 7.472 6.956.183 0 .367-.006.552-.02 4.131-.301 7.236-3.894 6.936-8.024-.337-4.642-.509-9.298-.509-13.841 0-64.974 32.879-124.462 87.952-159.132 3.505-2.206 4.558-6.837 2.352-10.342-2.207-3.505-6.837-4.56-10.343-2.352-28.507 17.945-52.32 42.92-68.866 72.226-17.072 30.236-26.095 64.676-26.095 99.6z"/><path d="m17.005 264.28h21.726c4.142 0 7.5-3.357 7.5-7.5s-3.358-7.5-7.5-7.5h-21.726c-4.142 0-7.5 3.357-7.5 7.5 0 4.142 3.358 7.5 7.5 7.5z"/><path d="m169.203 58.406c1.247 2.787 3.983 4.439 6.851 4.439 1.023 0 2.064-.211 3.059-.656 3.781-1.691 5.475-6.128 3.783-9.908l-11.635-26.005c-1.691-3.781-6.126-5.475-9.909-3.783-3.781 1.691-5.475 6.128-3.783 9.908z"/><path d="m66.902 163.617c1.754-3.753.135-8.217-3.618-9.971l-19.653-9.188c-3.751-1.754-8.216-.135-9.97 3.617-1.754 3.753-.135 8.217 3.617 9.971l19.653 9.188c1.028.48 2.108.708 3.172.708 2.822 0 5.525-1.601 6.799-4.325z"/><path d="m100.734 100.538c1.467 1.479 3.396 2.22 5.327 2.22 1.908 0 3.818-.724 5.28-2.174 2.942-2.916 2.963-7.664.047-10.606l-86.991-87.758c-2.917-2.942-7.666-2.963-10.606-.046-2.942 2.916-2.963 7.664-.047 10.606z"/><path d="m179.112 451.371c-3.783-1.692-8.218.002-9.909 3.783l-11.635 26.005c-1.691 3.78.002 8.217 3.783 9.908.995.445 2.035.656 3.059.656 2.867 0 5.604-1.653 6.851-4.439l11.635-26.005c1.691-3.78-.003-8.217-3.784-9.908z"/><path d="m33.662 365.485c1.274 2.725 3.977 4.325 6.799 4.325 1.063 0 2.145-.228 3.171-.708l19.653-9.188c3.752-1.754 5.372-6.218 3.618-9.971-1.754-3.751-6.217-5.372-9.971-3.617l-19.653 9.188c-3.752 1.754-5.372 6.218-3.617 9.971z"/><path d="m100.734 413.022-86.991 87.757c-2.916 2.942-2.895 7.69.047 10.606 1.462 1.45 3.371 2.174 5.28 2.174 1.93 0 3.86-.74 5.327-2.22l86.991-87.757c2.916-2.942 2.895-7.69-.047-10.606-2.941-2.917-7.689-2.896-10.607.046z"/><path d="m412.559 69.362c4.205 2.839 7.78 6.356 10.627 10.453 2.502 3.602 6.617 5.78 11.008 5.831h.155c4.368 0 8.5-2.1 11.079-5.637 2.745-3.766 6.249-7.112 10.711-10.231 3.666-2.563 5.852-6.756 5.848-11.22-.004-4.468-2.201-8.663-5.877-11.222-4.303-2.996-7.943-6.608-10.819-10.736-2.505-3.596-6.61-5.796-10.979-5.886-4.415-.083-8.447 1.865-11.109 5.368-2.969 3.907-6.722 7.573-11.153 10.897-3.572 2.68-5.639 6.931-5.529 11.371.108 4.415 2.366 8.531 6.038 11.012zm21.453-22.758c3.357 4.513 7.391 8.525 12.025 11.963-4.556 3.366-8.459 7.109-11.636 11.159-3.365-4.507-7.391-8.46-12-11.784 4.443-3.479 8.336-7.281 11.611-11.338z"/><path d="m496.554 193.953h-12.719v-12.72c0-4.143-3.358-7.5-7.5-7.5s-7.5 3.357-7.5 7.5v12.72h-12.719c-4.142 0-7.5 3.357-7.5 7.5s3.358 7.5 7.5 7.5h12.719v12.719c0 4.143 3.358 7.5 7.5 7.5s7.5-3.357 7.5-7.5v-12.719h12.719c4.142 0 7.5-3.357 7.5-7.5s-3.358-7.5-7.5-7.5z"/><path d="m467.68 400.116h-10.974l-3.391-10.437c-1.858-5.719-7.146-9.561-13.158-9.561s-11.3 3.842-13.158 9.561l-3.391 10.437h-10.974c-6.012 0-11.3 3.842-13.158 9.56s.162 11.934 5.025 15.468l8.878 6.451-3.391 10.437c-1.858 5.718.162 11.934 5.026 15.467 4.864 3.535 11.399 3.534 16.264.001l8.878-6.45 8.878 6.45c2.432 1.768 5.281 2.65 8.131 2.65s5.701-.884 8.133-2.651c4.864-3.534 6.883-9.75 5.025-15.467l-3.391-10.437 8.878-6.451c4.864-3.534 6.883-9.751 5.025-15.469-1.855-5.717-7.143-9.559-13.155-9.559zm-10.245 19.839c-4.866 3.533-6.886 9.749-5.028 15.469l2.544 7.832-6.662-4.84c-4.864-3.534-11.401-3.536-16.265 0l-6.662 4.841 2.545-7.833c1.858-5.719-.162-11.935-5.025-15.467l-6.663-4.841h8.235c6.012 0 11.299-3.841 13.158-9.56l2.545-7.832 2.545 7.832c1.857 5.718 7.145 9.56 13.157 9.56h8.235z"/><path d="m346.955 397.529c29.75-17.073 53.98-43.481 68.202-76.331 1.646-3.801-.102-8.217-3.903-9.862-3.802-1.645-8.217.102-9.863 3.903-3.99 9.216-8.866 17.86-14.47 25.883-6.674-5.825-15.27-9.139-24.384-9.139-20.486 0-37.153 16.667-37.153 37.153 0 7.078 2.039 13.941 5.751 19.823-17.659 8.678-37.149 13.864-57.463 14.894v-39.682c1.837.365 3.717.573 5.634.573 15.823 0 28.695-12.873 28.695-28.695s-12.873-28.695-28.695-28.695c-1.917 0-3.797.208-5.634.573v-93.235c2.776.648 5.629.996 8.515.996 20.664 0 37.475-16.811 37.475-37.475s-16.811-37.475-37.475-37.475c-2.886 0-5.738.348-8.515.995v-32.036c9.742.492 19.402 1.924 28.806 4.308 4.017 1.015 8.096-1.413 9.113-5.428 1.018-4.015-1.412-8.095-5.427-9.112-10.607-2.689-21.506-4.279-32.492-4.782v-87.07c0-4.143-3.358-7.5-7.5-7.5s-7.5 3.357-7.5 7.5v46.415c-13.622.501-27.17 2.348-40.373 5.542-4.026.975-6.5 5.027-5.526 9.054.831 3.434 3.9 5.738 7.284 5.738.583 0 1.177-.069 1.77-.212 12.05-2.915 24.412-4.615 36.846-5.109v25.631c-86.017 3.933-154.787 75.136-154.787 162.107 0 4.192.164 8.449.488 12.649.304 3.935 3.589 6.925 7.47 6.924.193 0 .389-.007.584-.022 4.13-.318 7.22-3.924 6.902-8.054-.294-3.819-.444-7.688-.444-11.497 0-78.7 62.044-143.179 139.787-147.098v294.192c-29.691-1.471-57.734-11.674-81.512-29.744-24.949-18.958-43.526-45.863-52.31-75.758-1.168-3.975-5.337-6.254-9.31-5.081-3.974 1.167-6.249 5.336-5.082 9.31 9.68 32.945 30.146 62.59 57.626 83.473 26.411 20.069 57.59 31.335 90.588 32.819v25.634c-48.352-1.878-93.298-21.871-127.25-56.804-2.888-2.971-7.636-3.038-10.606-.15-2.97 2.887-3.038 7.635-.151 10.605 36.802 37.864 85.567 59.474 138.007 61.358v46.411c0 4.143 3.358 7.5 7.5 7.5s7.5-3.357 7.5-7.5v-87.072c25.96-1.193 50.722-8.543 72.548-20.917.251-.128.496-.27.734-.428zm-67.649-75.175c7.552 0 13.695 6.144 13.695 13.695s-6.144 13.695-13.695 13.695c-1.974 0-3.878-.418-5.634-1.22v-24.951c1.756-.8 3.66-1.219 5.634-1.219zm2.881-166.615c12.393 0 22.475 10.082 22.475 22.475s-10.082 22.475-22.475 22.475c-2.941 0-5.826-.587-8.515-1.691v-41.569c2.689-1.104 5.573-1.69 8.515-1.69zm58.197 213.398c0-12.216 9.938-22.153 22.153-22.153 5.719 0 11.1 2.186 15.161 6.011-9.685 11.224-20.968 20.865-33.425 28.655-2.504-3.656-3.889-8.012-3.889-12.513z"/><path d="m347.884 294.602c17.316 0 31.403-14.088 31.403-31.404 0-17.315-14.087-31.403-31.403-31.403s-31.404 14.088-31.404 31.403c0 17.316 14.088 31.404 31.404 31.404zm0-47.807c9.045 0 16.403 7.358 16.403 16.403s-7.358 16.404-16.403 16.404-16.404-7.359-16.404-16.404 7.359-16.403 16.404-16.403z"/></g></svg>