<svg width="800" height="600" xmlns="http://www.w3.org/2000/svg" xmlns:xlink="http://www.w3.org/1999/xlink" style="vector-effect: non-scaling-stroke;" stroke="null">
 <!-- Created with Method Draw - http://github.com/duopixel/Method-Draw/ -->
 <defs style="vector-effect: non-scaling-stroke;" stroke="null">
  <symbol id="svg_2" preserveAspectRatio="xMaxYMin meet" viewBox="0 0 150 297" height="297pt" width="150pt" xmlns:xlink="http://www.w3.org/1999/xlink">
   <g id="svg_1">
    <path fill-rule="nonzero" fill="rgb(0%,0%,0%)" d="m7.85156,32.13672l-7.85156,8.25781l0,22.47656l3.10156,8.53516c4.72266,13.07422 9.72266,20.18359 20.34766,28.91797l7.625,6.26172l5.35156,1.14453l5.32422,1.14844l7.07422,6.8125l7.10156,6.8125l-0.97656,2.6914c-0.52344,1.5 -1.02344,2.79688 -1.14844,2.89453c-0.10156,0.125 -2.85156,-1.94531 -6.125,-4.58984l-5.92578,-4.78906l-7.25,-2.2461c-3.97656,-1.24609 -8.92578,-2.79296 -10.97656,-3.46875c-2.02344,-0.67187 -3.79688,-1.09765 -3.92188,-0.97265c-0.125,0.125 1.19922,4.41797 2.94922,9.53125l3.19922,9.30469l4.77344,3.12109c10.125,6.63672 8.625,6.0625 14.52734,5.66406c6.19922,-0.42578 5.32422,-1.17578 6.14844,5.36328c0.375,2.99219 1.15234,6.4375 1.69922,7.6836c0.77734,1.74609 1.125,4.29297 1.57812,11.22656c0.32422,4.94141 0.69922,9.38281 0.84766,9.85547c0.22656,0.82422 -1.125,0.875 -23.42578,0.875l-23.64844,0.02344l-1.875,3.4414l-1.85156,3.46875l6.55078,11.37891c3.60156,6.26172 12.125,21.03125 18.92578,32.83203c6.82422,11.80078 17.05078,29.54297 22.75,39.42187c5.67578,9.87891 12.14844,21.0586 14.35156,24.82422l4,6.85938l3.32422,0c1.82422,0 3.57422,-0.17188 3.89844,-0.3711c0.52734,-0.35156 8.57422,-14.29687 50,-86.57812l16.22656,-28.31641l-1.90234,-3.49218l-1.89844,-3.49219l-46.82422,0l0.25,-1.375c0.14844,-0.7461 0.55078,-5.3125 0.875,-10.10156c0.44922,-6.73829 0.80078,-9.15625 1.55078,-10.62891c0.54688,-1.125 1.25,-4.24219 1.64844,-7.41016c0.80078,-6.61328 -0.02344,-5.91406 6.22656,-5.48828l5.22266,0.34766l6.97656,-4.53906l6.97266,-4.56641l3.25,-9.33203c3.70312,-10.62891 3.70312,-10.07813 -0.19922,-8.8086c-1.625,0.52344 -6.55078,2.09766 -10.94922,3.46875l-8,2.51954l-5.89844,4.74218c-6.97656,5.63672 -6.05078,5.41407 -7.27734,1.76953l-1,-2.96875l7,-6.63671l7,-6.60938l5.44922,-1.30078c5.95312,-1.42188 5.02734,-0.84766 15.5,-9.50391c7.77734,-6.38672 13.5,-15.01953 17.90234,-26.96875l3.07422,-8.33593l0,-22.55469l-6.57422,-6.83594c-3.625,-3.76562 -7.19922,-7.50781 -7.97656,-8.30859c-2.17578,-2.26953 -2.125,-1.39453 0.25,4.24218c1.19922,2.8711 3.44922,8.28516 5,12.05079l2.85156,6.83593l-3.65234,5.46485l-3.64844,5.48828l-2.77344,0.69922l-2.80078,0.72265l-3.94922,-2.26953c-4,-2.26953 -15.77734,-7.55859 -16.875,-7.55859c-0.32812,0 2.25,2.86719 5.72266,6.35937c5.69922,5.73828 16.94922,20.63672 16.92578,22.40625c0,0.25 -2.89844,3.11719 -6.39844,6.41016c-3.52734,3.29687 -7,6.76172 -7.70312,7.73437c-1.07422,1.47266 -2.04688,1.9961 -6.22266,3.3711c-3.94922,1.26953 -5.90234,2.29297 -9.67578,5.01562c-2.625,1.8711 -5,3.54297 -5.30078,3.71485c-0.30078,0.17578 0.55078,-4.08985 1.875,-9.50391c3.32422,-13.54687 3.30078,-15.59375 -0.44922,-29.94141c-1.52344,-5.83593 -2.94922,-10.42968 -3.125,-10.22656c-0.19922,0.22266 -0.14844,7.23438 0.10156,15.61719l0.44922,15.21875l-11.5,27.94531l-18.67578,0l-5.72656,-13.97265l-5.72266,-13.97266l0.34766,-15.71875c0.20312,-8.63281 0.20312,-15.56641 0,-15.36719c-0.19922,0.17188 -1.57422,4.98828 -3.07422,10.72656c-3.55078,13.67188 -3.57422,15.71875 -0.44922,29.14063c1.25,5.31641 2.25,9.83203 2.25,10.03125c0,0.19922 -2.27344,-1.29688 -5.07422,-3.34375c-4.17578,-3.07031 -5.90234,-4.01563 -9.625,-5.21484l-4.55078,-1.44532l-8.35156,-8.21093c-6.97266,-6.85938 -8.22266,-8.3086 -7.67188,-8.88282c0.34766,-0.37109 2.89844,-4.0664 5.64844,-8.18359c4.02344,-6.01172 6.22656,-8.65625 11.07422,-13.44531c3.32422,-3.26953 5.92578,-6.03907 5.80078,-6.16407c-0.42578,-0.44921 -10.60156,3.96875 -15.75,6.8125l-5.22656,2.89454l-2.79688,-0.69922l-2.82812,-0.69922l-3.625,-5.48828l-3.64844,-5.48828l2.52344,-6.08985c1.40234,-3.3164 3.57812,-8.58203 4.85156,-11.67578c1.30078,-3.06641 2.25,-5.83594 2.14844,-6.13672c-0.09766,-0.32422 -3.72266,3.14453 -8.04688,7.71094zm5.67188,-3.32031c-0.52344,1.29687 -3.67188,8.88281 -6.97266,16.83984l-6.02734,14.47266l0,-9.48047l-0.02344,-9.48047l5.82422,-6.16406c3.22656,-3.36719 6.27734,-6.6875 6.80078,-7.35938c1.375,-1.74609 1.47656,-1.49609 0.39844,1.17188zm135.45312,21.78125c0.02344,5.1914 -0.07812,9.35547 -0.17578,9.23047c-0.10156,-0.09766 -1.94922,-4.46485 -4.07422,-9.67969c-2.125,-5.21485 -5.17578,-12.625 -6.77734,-16.46485l-2.92578,-6.98828l6.97656,7.23438l6.97656,7.23828l0,9.42969zm-138.85156,4.83984l2.75,4.29297l-2.85156,8.60547l-2.875,8.60937l-0.32422,-7.60937c-0.44922,-10.55469 -0.39844,-19.23828 0.10156,-18.66406c0.22266,0.25 1.67578,2.39453 3.19922,4.76562zm132.60156,8.53516l-0.375,13.12109l-2.92578,-8.70703l-2.90234,-8.68359l3.05078,-4.66407c1.69922,-2.54687 3.17578,-4.54297 3.30078,-4.4414c0.125,0.125 0.05078,6.13672 -0.14844,13.375zm-137.05078,-0.10157l0.32422,12.72266l-0.97656,-2.49219c-0.54688,-1.375 -1.77344,-4.59375 -2.69922,-7.1875l-1.72266,-4.66406l2.29688,-5.66406c1.25,-3.11719 2.32812,-5.61328 2.375,-5.53906c0.05078,0.05078 0.25,5.8125 0.40234,12.82421zm140.59766,5.3125l-2.52344,7.11329l-0.17578,-2.59766c-0.07422,-1.42188 0,-7.16016 0.19922,-12.77344l0.35156,-10.15234l2.32422,5.63672l2.32422,5.64062l-2.5,7.13281zm-112.52344,-12.57421c-4.625,4.34375 -5.17578,4.46875 -4.52344,1.05078c0.25,-1.44922 6.09766,-4.91797 8.77344,-5.21485c0.14844,-0.02734 -1.77344,1.84375 -4.25,4.16407zm86.52344,1.54687c0.5,3.32031 0.27734,3.26953 -4.52344,-1.37109l-4.5,-4.33985l4.35156,1.76953l4.34766,1.79688l0.32422,2.14453zm-92.07422,1.375c-0.30078,2.46875 -0.94922,3.69141 -5.72266,10.85156l-5.40234,8.08203l-0.27344,-2.16796c-1.32422,-10.87891 -0.55078,-12.77344 7.07422,-17.21485c5.125,-2.99609 4.72656,-3.01953 4.32422,0.44922zm97.47656,-0.32422c7.44922,4.21485 8.25,6.13672 7,16.78906l-0.27734,2.39454l-5.39844,-8.00782c-4.72656,-7.01172 -5.42578,-8.33203 -5.72656,-10.7539c-0.42188,-3.31641 -0.625,-3.29297 4.40234,-0.42188zm-107.80078,2.11719c0.44922,0.25 -0.875,2.57031 -4.5,7.88672c-2.82422,4.14062 -5.17578,7.48437 -5.22656,7.46094c-0.04688,-0.05079 1.17578,-3.76954 2.70312,-8.23438l2.79688,-8.13281l1.80078,0.32422c1,0.19922 2.07422,0.49609 2.42578,0.69531zm35.57422,10.95312c-0.22266,6.41407 -0.47266,11.75391 -0.59766,11.85157c-0.10156,0.125 -0.875,-1.57032 -1.72656,-3.71485l-1.55078,-3.94531l2.07422,-8.00781c1.15234,-4.41406 2.125,-7.95703 2.15234,-7.9336c0.02344,0.05079 -0.125,5.33985 -0.35156,11.75zm44.80078,8.28516c-2.10156,5.03906 -2.125,4.91406 -2.42578,-9.45703l-0.19922,-10.97656l2.125,8.23437l2.14844,8.20703l-1.64844,3.99219zm40.375,-11.82812c1.57422,4.59375 2.57422,7.98437 2.25,7.53515c-0.94922,-1.26953 -9.60156,-14.09375 -9.77344,-14.49609c-0.17578,-0.34766 2.5,-1.26953 3.89844,-1.34375c0.52344,-0.02735 1.57422,2.36719 3.625,8.30469zm3.05078,9.98046c0.30078,0.47657 -0.65234,0.625 -4.02734,0.625l-4.39844,0l0.44922,-5.71484l0.44922,-5.71094l3.57812,5.11328c1.97266,2.79297 3.75,5.36329 3.94922,5.6875zm-125.92578,-4.73828l0.35156,5.36328l-4.30078,0c-2.375,0 -4.30078,-0.10156 -4.30078,-0.25c0,-0.19921 2.77344,-4.14062 6.39844,-9.13281c1.52734,-2.09375 1.42578,-2.32031 1.85156,4.01953zm78.22656,23.45313c-3.32812,5.83594 -5.97656,10.35156 -5.90234,10.05469c0.10156,-0.27735 2.77734,-6.83594 5.92578,-14.52344l5.75,-13.9961l0.14844,3.94141l0.15234,3.91797l-6.07422,10.60547zm-38.5,-4.36719c6.67188,16.06641 6.25,15.01953 5.89844,14.71875c-0.14844,-0.14844 -2.875,-4.89062 -6.07422,-10.55078l-5.80078,-10.33203l0,-3.86719c0,-2.12109 0.07422,-3.76562 0.19922,-3.64062c0.10156,0.09765 2.69922,6.26171 5.77734,13.67187zm-36.10156,-7.48437c1.5,2.74218 4.32422,7.90625 6.30078,11.47656c1.97266,3.5664 3.64844,6.66015 3.75,6.88672c0.27344,0.64843 -12.57422,-10.20703 -13.44922,-11.35157c-0.42578,-0.57421 -2.52734,-3.57031 -4.65234,-6.66406l-3.875,-5.63672l4.60156,0.14844l4.59766,0.14844l2.72656,4.99219zm120.07422,-1.6211c-1.39844,1.9961 -3.47266,4.96485 -4.59766,6.60938c-1.32812,1.97265 -4.07812,4.71484 -8.02734,7.98437c-6.44922,5.36328 -7.47266,6.0625 -6.25,4.19141c0.42578,-0.64844 2.97656,-5.23828 5.65234,-10.17969c2.69922,-4.94141 5.32422,-9.70312 5.875,-10.60156l0.97266,-1.625l8.94922,0l-2.57422,3.62109zm-104.14844,16.28906l5.80078,7.60938l-1.92578,-0.37109c-1.05078,-0.19922 -3.27734,-0.72657 -4.92578,-1.14844l-3,-0.82422l-4.89844,-8.95703c-2.70312,-4.91406 -5.60156,-10.20313 -6.47656,-11.69922l-1.57422,-2.76953l5.59766,5.28906c3.70312,3.46484 7.57812,7.85938 11.40234,12.87109zm94.22266,-15.29296c-0.79688,1.44921 -3.69922,6.66015 -6.39844,11.60156l-4.94922,8.98047l-4.44922,1.125c-2.45312,0.625 -4.625,1.07031 -4.80078,0.99609c-1.35156,-0.49609 20.02344,-25.14844 21.94922,-25.32422c0.07422,0 -0.52344,1.17578 -1.35156,2.6211zm-32.39844,13.87109l-1.875,8.13281l-4.5,3.34375c-2.47656,1.84766 -4.57422,3.29297 -4.67578,3.21875c-0.17578,-0.17187 12.60156,-23.1289 12.80078,-22.97656c0.07422,0.07422 -0.69922,3.79297 -1.75,8.28125zm-44.10156,-4.14063c1.17578,2.1211 4.02734,7.1875 6.35156,11.25391c2.32422,4.06641 4.14844,7.48438 4.05078,7.58203c-0.10156,0.07422 -2.19922,-1.34765 -4.67578,-3.16797l-4.52344,-3.3164l-1.625,-6.98828c-0.875,-3.83985 -1.75,-7.48438 -1.90234,-8.10938c-0.57422,-2.04297 0.17578,-1.17187 2.32422,2.74609zm0.125,12.67579c5.90234,4.21484 10.70312,7.88281 10.67578,8.15625c-0.02344,0.27734 -1.72266,1.79687 -3.80078,3.37109l-3.75,2.89062l-6.92188,-6.88281c-5.60156,-5.5664 -15.35156,-16.86719 -15.35156,-17.8164c0,-1.72266 9.42578,3.34375 19.14844,10.28125zm61.77734,-9.58204c-3.90234,5.48829 -9.02734,11.42579 -14.80078,17.14063l-6.92578,6.88672l-3.97266,-3.07031c-2.20312,-1.67188 -4.02734,-3.11719 -4.10156,-3.16797c-0.05078,-0.07422 4.80078,-3.64063 10.82422,-7.95703c10.30078,-7.38672 14.65234,-9.78125 19.47656,-10.75391c0.125,-0.02734 -0.10156,0.375 -0.5,0.92187zm-84.67578,21.0586c7.27344,4.24219 7.64844,4.53906 11.375,9.15625c2.125,2.59375 3.72656,4.73828 3.60156,4.73828c-0.30078,0 -15.10156,-7.88281 -19.15234,-10.20313c-2.55078,-1.44531 -2.75,-1.72265 -4.09766,-5.39062c-1.65234,-4.53906 -2.70312,-4.76563 8.27344,1.69922zm97.25,-1.69922c-1.35156,3.82031 -1.39844,3.89453 -4.55078,5.66406c-4.72266,2.64453 -18.42578,9.92969 -18.69922,9.92969c-1.92578,0 8.39844,-10.15234 13.10156,-12.87109c2.97266,-1.72266 6.64844,-3.89454 8.14844,-4.81641c1.52344,-0.92188 2.875,-1.72266 3.05078,-1.72266c0.17578,-0.02343 -0.30078,1.69922 -1.05078,3.81641zm-94.42578,-0.24609l8.19922,2.61718l6.125,4.94141c3.97656,3.19141 6.05078,5.16406 5.875,5.61328c-0.125,0.39844 -0.75,2.32031 -1.34766,4.29297l-1.07422,3.56641l-1.92578,-2.22266c-1.05078,-1.22266 -3.90234,-4.71484 -6.30078,-7.78125c-4.32422,-5.49219 -4.42578,-5.58984 -10.625,-9.10938c-6.89844,-3.91406 -7.89844,-4.51562 -7.42578,-4.53906c0.17578,0 4,1.17188 8.5,2.6211zm91.15234,-1.97266c-0.52734,0.375 -3.70312,2.19531 -7.02734,4.08984l-6.05078,3.44532l-5.67188,7.16015c-3.125,3.94141 -5.95312,7.38672 -6.27734,7.66016c-0.52344,0.42187 -1.42578,-1.69922 -3.07422,-7.33594c-0.10156,-0.30078 2.57422,-2.76953 5.89844,-5.46484l6.10156,-4.91407l8.05078,-2.62109c8.64844,-2.79297 9.59766,-3.04297 8.05078,-2.01953zm-45.02734,6.08594c-2.375,2.87109 -4.47266,5.14062 -4.67578,5.01562c-0.17188,-0.125 -2.19922,-2.46875 -4.44922,-5.23828l-4.125,-5.01562l17.57422,0l-4.32422,5.23828zm-10.17578,-0.17188c2.05078,2.51953 4.02734,4.98828 4.375,5.48828c0.57812,0.82422 -6.25,11.40235 -7.375,11.40235c-0.14844,0 -1.39844,-1.97266 -2.75,-4.36719c-1.375,-2.39453 -3.34766,-5.8125 -4.42188,-7.55859c-2.20312,-3.61719 -2.40234,-3.07032 2.64844,-6.98829c4.02344,-3.11718 3.14844,-3.34375 7.52344,2.02344zm19.52734,-1.52344c2.19922,1.67188 3.92578,3.19532 3.84766,3.36719c-0.625,1.47266 -8.72266,15.01953 -8.94922,15.01953c-0.80078,0.05078 -8.07422,-10.6289 -7.64844,-11.19922c1.375,-1.89843 8.34766,-10.23046 8.52344,-10.23046c0.125,0 2.02734,1.37109 4.22656,3.04296zm-53.75,8.88282c5.19922,2.76953 9.25,5.03906 9.02344,5.03906c-0.67578,0 -15.47266,-2.49609 -16.39844,-2.76953c-0.65234,-0.19922 -3.42578,-6.3125 -3.42578,-7.53516c0,-0.44922 0.80078,-0.05078 10.80078,5.26563zm90.44922,-4.56641c-0.19922,0.47266 -0.80078,2.14453 -1.35156,3.71875c-0.54688,1.62109 -1.32422,2.94141 -1.82422,3.09375c-1.5,0.42188 -16.17578,2.84375 -16.32422,2.69531c-0.19922,-0.17578 18.82422,-10.33203 19.42578,-10.35547c0.25,-0.02343 0.27344,0.375 0.07422,0.84766zm-65.875,4.74219c1.42578,2.54297 3.30078,5.78515 4.14844,7.20703l1.52734,2.59766l-6.77734,0.14843c-5.72266,0.125 -6.75,0.05078 -6.52344,-0.57422c0.17578,-0.375 1.22656,-3.6914 2.375,-7.35937c1.14844,-3.64453 2.19922,-6.63672 2.35156,-6.63672c0.14844,0 1.44922,2.07031 2.89844,4.61719zm36.125,2.61719c1.17578,3.57031 2.22656,6.71093 2.32422,6.98828c0.15234,0.42187 -12.77344,0.47265 -13.19922,0.02343c-0.07422,-0.07421 1.10156,-2.19531 2.625,-4.71484c1.52344,-2.54687 3.35156,-5.73828 4.05078,-7.13672c1.57422,-3.11719 1.59766,-3.09375 4.19922,4.83985zm-16.55078,2.47265c2.22656,3.01563 4.05078,5.78516 4.05078,6.1875c0,0.89844 -1.39844,19.6836 -1.80078,23.85156l-0.27344,3.06641l-12.375,0l-0.25,-2.07031c-0.15234,-1.14844 -0.625,-7.35938 -1.07422,-13.79688l-0.82812,-11.72656l4.17578,-5.5625c2.30078,-3.07031 4.19922,-5.53906 4.25,-5.48828c0.02734,0.04687 1.90234,2.54297 4.125,5.53906zm-40.47266,-0.25c8.19922,1.42188 8.25,1.42188 9.97266,3.31641c0.94922,1.02344 1.52734,1.94531 1.27734,1.99609c-0.27734,0.07422 -2.55078,0.22656 -5.07812,0.35156l-4.59766,0.22266l-5.32422,-3.41797c-2.95312,-1.87109 -5.47656,-3.51953 -5.625,-3.66797c-0.45312,-0.44922 0.84766,-0.30078 9.375,1.19922zm76.52344,2.29297c-3.89844,2.54688 -6.07422,3.66797 -6.75,3.49609c-0.55078,-0.15234 -2.75,-0.27734 -4.875,-0.27734c-4.35156,0 -4.44922,-0.09766 -2.32422,-2.39453c1.42578,-1.59766 1.84766,-1.72266 9.34766,-3.07031c11.30078,-1.99219 11.20312,-2.04297 4.60156,2.24609zm-52.44922,16.69141c4.92578,14.12109 4.82422,13.69922 3.39844,11.97656c-0.57422,-0.69922 -2.32422,-2.59375 -3.89844,-4.24219c-9.82422,-10.32812 -9.35156,-9.67969 -9.75,-13.49609c-0.17578,-1.89844 -0.47656,-4.31641 -0.65234,-5.36328l-0.27344,-1.89844l3.375,0.15234l3.35156,0.14844l4.44922,12.72266zm3.17578,-10.35157c0.14844,1.44532 0.5,5.86329 0.77344,9.85547c0.27344,3.96485 0.625,8.35547 0.77344,9.73047c0.20312,1.76953 -0.875,-0.80078 -3.69922,-8.98437c-2.17578,-6.3125 -4.125,-11.875 -4.32422,-12.34766c-0.32422,-0.77344 0,-0.875 2.89844,-0.875l3.27734,0l0.30078,2.62109zm20.625,9.30469c-2.25,6.5625 -4.15234,11.90235 -4.17578,11.85156c-0.15234,-0.125 1.34766,-20.25781 1.625,-22.15625l0.25,-1.62109l6.39844,0l-4.09766,11.92578zm11.47266,-10.05469c-0.14844,1.02344 -0.44922,3.44141 -0.625,5.36329l-0.375,3.49218l-4.02344,4.24219c-2.22656,2.34766 -5.44922,5.76563 -7.17578,7.63672c-1.72656,1.84375 -3.125,3.29297 -3.125,3.21875c0,-0.15234 8,-23.17969 8.72656,-25.19922c0.17188,-0.42578 1.375,-0.625 3.57422,-0.625l3.32422,0l-0.30078,1.87109zm-35.17578,20.75782l4.875,5.21484l-0.125,5.51563l-0.14844,5.51171l-2.69922,-3.5664c-2.42578,-3.19531 -5.32422,-9.03125 -10.10156,-20.33594l-0.94922,-2.24609l2.125,2.34765c1.17578,1.27344 4.32422,4.66407 7.02344,7.5586zm28.85156,0.22656c-2.92578,6.63672 -4.75,10.02734 -6.75,12.62109l-2.75,3.54297l0,-11.42578l5.17578,-5.4375c2.84766,-2.99609 5.82422,-6.1875 6.57422,-7.08594c2.22656,-2.64453 1.97656,-1.74609 -2.25,7.78516zm2.25,6.16016c-0.72656,8.83203 -4.19922,28.6914 -5.52344,31.61328c-0.125,0.27343 -0.125,-6.03907 0.02344,-14.02344l0.25,-14.51953l2.85156,-6.78516c1.59766,-3.71875 2.97266,-6.6875 3.04688,-6.58984c0.10156,0.10156 -0.19922,4.74219 -0.64844,10.30469zm-35.60156,-3.51563l2.70312,6.3125l0.32422,14.89453l0.30078,14.91797l-2.45312,-11.10156c-2.19922,-9.95703 -4.02344,-23.87891 -4.02344,-30.53906c0,-1.67188 0.10156,-1.47266 3.14844,5.51562zm19.60156,5.11328l-3,2.66797l-2.875,-2.49219c-1.57422,-1.375 -2.875,-2.57031 -2.875,-2.67187c0,-0.09766 2.64844,-0.17188 5.875,-0.17188l5.875,0l-3,2.66797zm-6.35156,0.97266l2.60156,2.62109l-5.5,5.4375l0,-5.36328c0,-2.94531 0.07422,-5.33984 0.14844,-5.33984c0.07812,0 1.30078,1.19922 2.75,2.64453zm9.60156,2.71875l0,5.36328l-2.82422,-2.84375l-2.82422,-2.81641l2.69922,-2.51953c1.47266,-1.375 2.75,-2.52344 2.82422,-2.52344c0.07422,-0.02343 0.125,2.39844 0.125,5.33985zm-13,7.71094c0,0.97265 2.375,14.54687 4.80078,27.26953c0.67578,3.66797 1.17578,6.76172 1.07422,6.85937c-0.10156,0.07813 -1.85156,-1.34375 -3.92578,-3.1914c-2.05078,-1.84766 -4.57422,-4.06641 -5.59766,-4.94141l-1.85156,-1.62109l-0.32422,-16.58985l-0.32422,-16.61719l3.07422,3.94141c1.69922,2.14453 3.07422,4.36719 3.07422,4.89063zm19.25,9.7539l-0.375,14.59766l-5.55078,4.9375c-3.07422,2.72265 -5.64844,4.86719 -5.77344,4.76562c-0.10156,-0.09765 0.30078,-2.71875 0.89844,-5.8125c0.60156,-3.09375 2.05078,-11.07812 3.25,-17.6875c1.69922,-9.50781 2.40234,-12.375 3.25,-13.47265c0.625,-0.80078 1.82422,-2.39844 2.69922,-3.59375l1.60156,-2.17188l0.17578,1.92188c0.09766,1.04687 0,8.48437 -0.17578,16.51562zm-9.75,-14.59375l2.72656,2.74219l-10.95312,0l2.72656,-2.74219c1.5,-1.52344 2.72656,-2.74609 2.75,-2.74609c0.02344,0 1.25,1.22265 2.75,2.74609zm-22,0.8711c0,0.89843 -0.14844,2.12109 -0.32422,2.74609l-0.30078,1.12109l-24.42578,0c-13.44922,0 -24.44922,-0.09765 -24.44922,-0.25c0,-0.12109 0.625,-1.37109 1.375,-2.74218l1.375,-2.46875l23.375,-0.02735l23.375,0l0,1.6211zm83.60156,0c-1.10156,1.82421 -8.82812,15.26953 -39.32812,68.48828c-11.47266,20.03515 -21.02344,36.57422 -21.19922,36.77343c-0.19922,0.20313 -1,-0.87109 -1.82422,-2.39453l-1.5,-2.74218l1.02344,-1.84766c0.57812,-1.02344 4.15234,-7.23438 7.95312,-13.82031c10.52344,-18.19141 16.19922,-28.04297 18.5,-32.1875c1.17188,-2.07032 7.77344,-13.59766 14.69922,-25.6211c6.92578,-12.05078 12.57422,-22.10547 12.57422,-22.33203c0,-0.25 -7.77344,-0.44922 -17.69922,-0.44922l-17.67578,0l-0.30078,-1.12109c-0.17578,-0.625 -0.32422,-1.84766 -0.32422,-2.74609l0,-1.6211l46.07422,0l-0.97266,1.6211zm-11.80078,32.71093c-8.92578,15.56641 -23.55078,41.04297 -32.47656,56.63672c-8.94922,15.58985 -16.42578,28.26563 -16.67578,28.19141c-0.22266,-0.07422 -2.32422,-3.51953 -4.67188,-7.63672c-3.97656,-6.93359 -13.07812,-22.70313 -31.625,-54.88672c-4.125,-7.13672 -10.95312,-19.03516 -15.22656,-26.44531c-4.25,-7.41016 -8.27344,-14.32422 -8.92578,-15.34766c-1.59766,-2.4414 -1.64844,-2.36719 1.92578,-2.36719l3.125,0l4.32422,7.60938c2.375,4.19141 6.40234,11.20312 8.92578,15.59375c2.55078,4.39062 8.10156,13.99609 12.32422,21.35547c4.25,7.35937 10.875,18.8125 14.75,25.44922c3.875,6.63672 8.85156,15.26953 11.07422,19.1875c3.17578,5.5625 4.17578,6.98437 4.625,6.48437c0.32812,-0.34765 7.22656,-12.19922 15.32812,-26.32031c8.07422,-14.14844 21.875,-38.22266 30.64844,-53.54297l15.94922,-27.84375l1.42578,2.76953l1.39844,2.79297l-16.22266,28.32031zm-46.5,-28.96875c-0.25,0.82422 -4.85156,26.09766 -5.67578,31.3125c-0.39844,2.47266 -0.42578,2.44532 -1.52344,-3.99218c-1.60156,-9.33204 -4.52734,-25.7461 -4.85156,-27.07032c-0.27344,-1.12109 -0.25,-1.12109 6.02344,-1.12109c5.75,0 6.27734,0.07422 6.02734,0.87109zm-22.125,11.07813c1.27344,5.86328 2.25,10.7539 2.17578,10.82812c-0.07812,0.07422 -1.57812,-2.04297 -3.30078,-4.71484l-3.17578,-4.83984l0.07422,-4.49219c0.10156,-4.46485 0.90234,-8.60547 1.55078,-7.88281c0.19922,0.22265 1.39844,5.21484 2.67578,11.10156zm35.75,-9.00391c0.32422,0.92188 0.57422,3.64063 0.57422,6.03516l0,4.34375l-3.30078,4.9375c-1.89844,2.84375 -3.19922,4.41797 -3.05078,3.6914c1.10156,-6.03515 4.67578,-21.32812 4.90234,-21.05468c0.17578,0.19922 0.57422,1.12109 0.875,2.04687zm-40.42578,0.32422c-0.27344,0.72266 -0.5,1.84375 -0.5,2.49219l0,1.22265l-18.92578,0c-10.39844,0 -19.02344,0.125 -19.17578,0.27344c-0.14844,0.15235 0.85156,2.22266 2.22656,4.61719c2.55078,4.44141 24.89844,43.21484 35.27344,61.22656c14.30078,24.82422 21.40234,37.125 23.60156,40.79297l1.10156,1.87109l-3.30078,0c-1.82422,0 -3.30078,-0.17578 -3.30078,-0.39843c0,-0.375 -2.14844,-4.16797 -17.22656,-30.28907c-3.79688,-6.58593 -10.67188,-18.48828 -15.25,-26.44531c-21,-36.45312 -28.34766,-49.17578 -30.34766,-52.57031c-1.19922,-1.99609 -2.17578,-3.74219 -2.17578,-3.86719c0,-0.10156 10.89844,-0.19922 24.25,-0.19922l24.22656,0l-0.47656,1.27344zm73.57422,1.09766l-1.39844,2.36718l-15.02734,0.125l-15.02344,0.15235l-0.27344,-1.64844c-0.15234,-0.89844 -0.42578,-2.01953 -0.60156,-2.49609c-0.32422,-0.82032 0.64844,-0.8711 16.67578,-0.8711l17.05078,0l-1.40234,2.3711zm-74.07422,6.26172c0,1.44531 -0.55078,4.53906 -1.19922,6.85937c-4,14.07422 -6,22.10547 -6.25,25.27344l-0.30078,3.59375l-5.47656,-9.58203c-6.39844,-11.17578 -11.57422,-20.08203 -14.59766,-25.17188l-2.15234,-3.61719l29.97656,0l0,2.64454zm71.10156,-1.02344c-1.70312,2.76953 -18.375,31.93359 -19.625,34.30469l-1.20312,2.24609l-0.34766,-3.49219c-0.17578,-1.92187 -1.92578,-9.30859 -3.875,-16.39453c-2.35156,-8.58203 -3.55078,-13.82031 -3.55078,-15.58984l0,-2.69532l29.57422,0l-0.97266,1.6211zm-56.40234,22.05469c3.19922,2.74609 5.75,5.11328 5.67578,5.28906c-0.17578,0.39844 -15.07422,14.42187 -15.19922,14.29687c-0.05078,-0.05078 -0.67578,-5.48828 -1.40234,-12.07422c-0.72266,-6.58984 -1.625,-14.39843 -2.04688,-17.36718c-0.40234,-2.94532 -0.72656,-5.71094 -0.72656,-6.13672c0,-0.42578 1.77344,1.87109 3.94922,5.11328c3.40234,5.11719 4.69922,6.58594 9.75,10.87891zm26.625,-15.07032c-0.17578,0.89844 -1.09766,8.8086 -2.07422,17.58985c-0.97656,8.78125 -1.82422,16.26953 -1.875,16.61718c-0.10156,0.54688 -14.85156,-12.84765 -15.25,-13.84765c-0.07422,-0.19922 2.625,-2.74219 6,-5.66406c5.39844,-4.69141 6.52344,-5.96094 9.625,-10.82813c3.875,-6.0625 4,-6.1875 3.57422,-3.86719zm-38.14844,25.39844l1.125,9.30859l-1.5,-1.25c-0.82422,-0.69531 -3.30078,-2.89453 -5.47656,-4.91406l-3.97266,-3.64062l3.44922,-13.125l3.44922,-13.14844l0.89844,8.73047c0.5,4.79297 1.40234,12.92578 2.02734,18.03906zm42.59766,-13.32031l3.40234,12.92187l-2.02734,1.79688c-1.125,0.97265 -3.64844,3.21875 -5.625,4.96484c-2.92188,2.6211 -3.52344,2.96875 -3.32422,1.9961c0.32422,-1.44532 2.52734,-20.25782 3.35156,-28.76563c0.32422,-3.37109 0.64844,-6.0625 0.69922,-5.98828c0.05078,0.07422 1.625,5.9375 3.52344,13.07422zm-8.97266,23.77734c0.22266,0.39844 -0.92578,2.66797 -7.19922,14.39453l-2.25,4.19141l-2.65234,-15.91797c-1.47266,-8.73437 -2.80078,-16.21875 -2.94922,-16.61719c-0.25,-0.64843 14.42578,12.97266 15.05078,13.94922zm-18.94922,2.09375c-1.42578,8.6836 -2.75,15.81641 -2.90234,15.81641c-0.42578,0 -9.55078,-17.4375 -9.34766,-17.88672c0.22266,-0.5 14.57422,-14.04688 14.72266,-13.87109c0.07422,0.04687 -1.05078,7.23437 -2.47266,15.9414zm6.09766,29.53906c-1.82422,7.91016 -2.80078,11.37891 -3.02344,10.60547c-0.17578,-0.625 -1.40234,-5.91406 -2.72656,-11.80078l-2.39844,-10.65625l2.34766,-14.29297c1.30078,-7.83593 2.5,-15.29687 2.67578,-16.51953c0.30078,-1.87109 0.80078,0.42578 3.07422,14.34766l2.72656,16.58984l-2.67578,11.72656zm-19.57422,-31.23437c0.375,0.94531 4.5,18.78516 4.375,18.9375c-0.57422,0.59766 -3.10156,-2.14844 -4.92578,-5.33984c-1.17578,-2.09766 -4.09766,-7.21094 -6.5,-11.32813c-3.92578,-6.83594 -4.32422,-7.75781 -4.32422,-10.15625l0,-2.61719l5.625,5.08985c3.10156,2.8164 5.67578,5.23828 5.75,5.41406zm44.89844,-6.23828c-0.75,3.91797 -14.52344,26.17187 -15.54688,25.14844c-0.10156,-0.125 0.82422,-4.46485 2.07422,-9.65625l2.25,-9.45313l3.09766,-2.74609c1.70312,-1.4961 4.22656,-3.79297 5.60156,-5.08985c2.75,-2.57031 3.30078,-2.17187 2.52344,1.79688zm-32.07422,35.67578c1.30078,5.31641 2.25,9.75781 2.15234,9.85547c-0.875,0.85156 -9.875,-21.17969 -11.35156,-27.71875c-0.875,-3.94141 -1.69922,-7.53516 -1.82422,-7.98438c-0.15234,-0.44922 1.75,3.01953 4.22266,7.6875c4.40234,8.3086 4.52734,8.67969 6.80078,18.16016zm16.875,-16.64063c-1.69922,6.86329 -10.57422,28.36719 -11.375,27.51954c-1.07422,-1.09766 5.35156,-21.45704 8.94922,-28.39063c2.25,-4.29297 4.15234,-7.66016 4.22656,-7.4375c0.07422,0.19922 -0.72656,3.94531 -1.80078,8.30859zm-23.32422,10.73047c2.10156,4.16407 4.25,8.95703 4.02344,8.95703c-0.09766,0 -1.47266,-2.29687 -3.07422,-5.11718c-1.57422,-2.81641 -3.32422,-5.86328 -3.875,-6.8086l-1,-1.67187l1.10156,0.57422c0.59766,0.32422 1.875,2.14453 2.82422,4.0664zm20.85156,2.19532c-2.125,3.66796 -3.90234,6.63671 -3.97656,6.5625c-0.75,-0.75 6.52344,-13.27344 7.69922,-13.27344c0.05078,0 -1.625,3.01953 -3.72266,6.71094zm0,0"/>
   </g>
  </symbol>
 </defs>
 <g stroke="null">
  <title stroke="null">background</title>
  <rect stroke="null" fill="#fff" id="canvas_background" height="602" width="802" y="-1" x="-1"/>
  <g style="vector-effect: non-scaling-stroke;" stroke="null" display="none" overflow="visible" y="0" x="0" height="100%" width="100%" id="canvasGrid">
   <rect fill="url(#gridpattern)" stroke-width="0" y="0" x="0" height="100%" width="100%"/>
  </g>
 </g>
 <g stroke="null">
  <title stroke="null">Layer 1</title>
  <use x="159.39028" y="1.94378" transform="matrix(1.5433814599509077,0,0,1.5433814599509077,1.2919213771820068,-26.618447548111362) " xlink:href="#svg_2" id="svg_3"/>
 </g>
</svg>