<?xml version="1.0" standalone="no"?>
<!DOCTYPE svg PUBLIC "-//W3C//DTD SVG 20010904//EN"
 "http://www.w3.org/TR/2001/REC-SVG-20010904/DTD/svg10.dtd">
<svg version="1.0" xmlns="http://www.w3.org/2000/svg"
 width="300.000000pt" height="595.000000pt" viewBox="0 0 300.000000 595.000000"
 preserveAspectRatio="xMidYMid meet">
<metadata>
Created by potrace 1.10, written by Peter Selinger 2001-2011
</metadata>
<g transform="translate(0.000000,595.000000) scale(0.050000,-0.050000)"
fill="#000000" stroke="none">
<path d="M314 10612 l-314 -331 0 -450 0 -451 124 -342 c189 -524 389 -809
814 -1159 l305 -251 214 -46 213 -46 283 -273 284 -273 -39 -108 c-21 -60 -41
-112 -46 -116 -4 -5 -114 78 -245 184 l-237 192 -290 90 c-159 50 -357 112
-439 139 -81 27 -152 44 -157 39 -5 -5 48 -177 118 -382 l128 -373 191 -125
c405 -266 345 -243 581 -227 248 17 213 47 246 -215 15 -120 46 -258 68 -308
31 -70 45 -172 63 -450 13 -198 28 -376 34 -395 9 -33 -45 -35 -937 -35 l-946
-1 -75 -138 -74 -139 262 -456 c144 -251 485 -843 757 -1316 273 -473 682
-1184 910 -1580 227 -396 486 -844 574 -995 l160 -275 133 0 c73 0 143 7 156
15 21 14 343 573 2000 3470 l649 1135 -76 140 -76 140 -937 0 -936 0 10 55 c6
30 22 213 35 405 18 270 32 367 62 426 22 45 50 170 66 297 32 265 -1 237 249
220 l209 -14 279 182 279 183 130 374 c148 426 148 404 -8 353 -65 -21 -262
-84 -438 -139 l-320 -101 -236 -190 c-279 -226 -242 -217 -291 -71 l-40 119
280 266 280 265 218 52 c238 57 201 34 620 381 311 256 540 602 716 1081 l123
334 0 452 0 452 -263 274 c-145 151 -288 301 -319 333 -87 91 -85 56 10 -170
48 -115 138 -332 200 -483 l114 -274 -146 -219 -146 -220 -111 -28 -112 -29
-158 91 c-160 91 -631 303 -675 303 -13 0 90 -115 229 -255 228 -230 678 -827
677 -898 0 -10 -116 -125 -256 -257 -141 -132 -280 -271 -308 -310 -43 -59
-82 -80 -249 -135 -158 -51 -236 -92 -387 -201 -105 -75 -200 -142 -212 -149
-12 -7 22 164 75 381 133 543 132 625 -18 1200 -61 234 -118 418 -125 410 -8
-9 -6 -290 4 -626 l18 -610 -230 -560 -230 -560 -373 0 -374 0 -229 560 -229
560 14 630 c8 346 8 624 0 616 -8 -7 -63 -200 -123 -430 -142 -548 -143 -630
-18 -1168 50 -213 90 -394 90 -402 0 -8 -91 52 -203 134 -167 123 -236 161
-385 209 l-182 58 -334 329 c-279 275 -329 333 -307 356 14 15 116 163 226
328 161 241 249 347 443 539 133 131 237 242 232 247 -17 18 -424 -159 -630
-273 l-209 -116 -112 28 -113 28 -145 220 -146 220 101 244 c56 133 143 344
194 468 52 123 90 234 86 246 -4 13 -149 -126 -322 -309z m227 133 c-21 -52
-147 -356 -279 -675 l-241 -580 0 380 -1 380 233 247 c129 135 251 268 272
295 55 70 59 60 16 -47z m5418 -873 c1 -208 -3 -375 -7 -370 -4 4 -78 179
-163 388 -85 209 -207 506 -271 660 l-117 280 279 -290 279 -290 0 -378z
m-5554 -194 l110 -172 -114 -345 -115 -345 -13 305 c-18 423 -16 771 4 748 9
-10 67 -96 128 -191z m5304 -342 l-15 -526 -117 349 -116 348 122 187 c68 102
127 182 132 178 5 -5 2 -246 -6 -536z m-5482 4 l13 -510 -39 100 c-22 55 -71
184 -108 288 l-69 187 92 227 c50 125 93 225 95 222 2 -2 10 -233 16 -514z
m5624 -213 l-101 -285 -7 104 c-3 57 0 287 8 512 l14 407 93 -226 93 -226
-100 -286z m-4501 504 c-185 -174 -207 -179 -181 -42 10 58 244 197 351 209 6
1 -71 -74 -170 -167z m3461 -62 c20 -133 11 -131 -181 55 l-180 174 174 -71
174 -72 13 -86z m-3683 -55 c-12 -99 -38 -148 -229 -435 l-216 -324 -11 87
c-53 436 -22 512 283 690 205 120 189 121 173 -18z m3899 13 c298 -169 330
-246 280 -673 l-11 -96 -216 321 c-189 281 -217 334 -229 431 -17 133 -25 132
176 17z m-4312 -85 c18 -10 -35 -103 -180 -316 -113 -166 -207 -300 -209 -299
-2 2 47 151 108 330 l112 326 72 -13 c40 -8 83 -20 97 -28z m1423 -439 c-9
-257 -19 -471 -24 -475 -4 -5 -35 63 -69 149 l-62 158 83 321 c46 177 85 319
86 318 1 -2 -5 -214 -14 -471z m1792 -332 c-84 -202 -85 -197 -97 379 l-8 440
85 -330 86 -329 -66 -160z m1615 474 c63 -184 103 -320 90 -302 -38 51 -384
565 -391 581 -7 14 100 51 156 54 21 1 63 -95 145 -333z m122 -400 c12 -19
-26 -25 -161 -25 l-176 0 18 229 18 229 143 -205 c79 -112 150 -215 158 -228z
m-5037 190 l14 -215 -172 0 c-95 0 -172 4 -172 10 0 8 111 166 256 366 61 84
57 93 74 -161z m3129 -940 c-133 -234 -239 -415 -236 -403 4 11 111 274 237
582 l230 561 6 -158 6 -157 -243 -425z m-1540 175 c267 -644 250 -602 236
-590 -6 6 -115 196 -243 423 l-232 414 0 155 c0 85 3 151 8 146 4 -4 108 -251
231 -548z m-1444 300 c60 -110 173 -317 252 -460 79 -143 146 -267 150 -276
11 -26 -503 409 -538 455 -17 23 -101 143 -186 267 l-155 226 184 -6 184 -6
109 -200z m4803 65 c-56 -80 -139 -199 -184 -265 -53 -79 -163 -189 -321 -320
-258 -215 -299 -243 -250 -168 17 26 119 210 226 408 108 198 213 389 235 425
l39 65 179 0 179 0 -103 -145z m-4166 -653 l232 -305 -77 15 c-42 8 -131 29
-197 46 l-120 33 -196 359 c-108 197 -224 409 -259 469 l-63 111 224 -212
c148 -139 303 -315 456 -516z m3769 613 c-32 -58 -148 -267 -256 -465 l-198
-360 -178 -45 c-98 -25 -185 -43 -192 -40 -54 20 801 1008 878 1015 3 0 -21
-47 -54 -105z m-1296 -556 l-75 -326 -180 -134 c-99 -74 -183 -132 -187 -129
-7 7 504 927 512 921 3 -3 -28 -152 -70 -332z m-1764 166 c47 -85 161 -288
254 -451 93 -163 166 -300 162 -304 -4 -3 -88 54 -187 127 l-181 133 -65 280
c-35 154 -70 300 -76 325 -23 82 7 47 93 -110z m5 -508 c236 -169 428 -316
427 -327 -1 -11 -69 -72 -152 -135 l-150 -116 -277 276 c-224 223 -614 676
-614 714 0 69 377 -134 766 -412z m2471 384 c-156 -220 -361 -458 -592 -687
l-277 -276 -159 123 c-88 67 -161 125 -164 127 -2 3 192 146 433 319 412 296
586 392 779 431 5 1 -4 -15 -20 -37z m-3387 -844 c291 -170 306 -182 455 -367
85 -104 149 -190 144 -190 -12 0 -604 316 -766 409 -102 58 -110 69 -164 216
-66 182 -108 191 331 -68z m3890 68 c-54 -153 -56 -156 -182 -227 -189 -106
-737 -398 -748 -398 -77 0 336 407 524 516 119 69 266 156 326 193 61 37 115
69 122 69 7 1 -12 -68 -42 -153z m-3777 10 l328 -105 245 -198 c159 -128 242
-207 235 -225 -5 -16 -30 -93 -54 -172 l-43 -143 -77 89 c-42 49 -156 189
-252 312 -173 220 -177 224 -425 365 -276 157 -316 181 -297 182 7 0 160 -47
340 -105z m3646 79 c-21 -15 -148 -88 -281 -164 l-242 -138 -227 -287 c-125
-158 -238 -296 -251 -307 -21 -17 -57 68 -123 294 -4 12 103 111 236 219 l244
197 322 105 c346 112 384 122 322 81z m-1801 -244 c-95 -115 -179 -206 -187
-201 -7 5 -88 99 -178 210 l-165 201 351 0 352 0 -173 -210z m-407 7 c82 -101
161 -200 175 -220 23 -33 -250 -457 -295 -457 -6 0 -56 79 -110 175 -55 96
-134 233 -177 303 -88 145 -96 123 106 280 161 125 126 134 301 -81z m781 61
c88 -67 157 -128 154 -135 -25 -59 -349 -602 -358 -602 -32 -2 -323 426 -306
449 55 76 334 410 341 410 5 0 81 -55 169 -122z m-2150 -356 c208 -111 370
-202 361 -202 -27 0 -619 100 -656 111 -26 8 -137 253 -137 302 0 18 32 2 432
-211z m3618 183 c-8 -19 -32 -86 -54 -149 -22 -65 -53 -118 -73 -124 -60 -17
-647 -114 -653 -108 -8 7 753 414 777 415 10 1 11 -15 3 -34z m-2635 -190 c57
-102 132 -232 166 -289 l61 -104 -271 -6 c-229 -5 -270 -2 -261 23 7 15 49
148 95 295 46 146 88 266 94 266 6 0 58 -83 116 -185z m1445 -105 c47 -143 89
-269 93 -280 6 -17 -511 -19 -528 -1 -3 3 44 88 105 189 61 102 134 230 162
286 63 125 64 124 168 -194z m-662 -99 c89 -121 162 -232 162 -248 0 -36 -56
-789 -72 -956 l-11 -123 -247 0 -248 0 -10 83 c-6 46 -25 295 -43 553 l-33
470 167 223 c92 123 168 222 170 220 1 -2 76 -102 165 -222z m-1619 10 c328
-57 330 -57 399 -133 38 -41 61 -78 51 -80 -11 -3 -102 -9 -203 -14 l-184 -9
-213 137 c-118 75 -219 141 -225 147 -18 18 34 12 375 -48z m3061 -92 c-156
-102 -243 -147 -270 -140 -22 6 -110 11 -195 11 -174 0 -178 4 -93 96 57 64
74 69 374 123 452 80 448 82 184 -90z m-2098 -669 c197 -566 193 -549 136
-480 -23 28 -93 104 -156 170 -393 414 -374 388 -390 541 -7 76 -19 173 -26
215 l-11 76 135 -6 134 -6 178 -510z m127 415 c6 -58 20 -235 31 -395 11 -159
25 -335 31 -390 8 -71 -35 32 -148 360 -87 253 -165 476 -173 495 -13 31 0 35
116 35 l131 0 12 -105z m825 -373 c-90 -263 -166 -477 -167 -475 -6 5 54 812
65 888 l10 65 128 0 128 0 -164 -478z m459 403 c-6 -41 -18 -138 -25 -215
l-15 -140 -161 -170 c-89 -94 -218 -231 -287 -306 -69 -74 -125 -132 -125
-129 0 6 320 929 349 1010 7 17 55 25 143 25 l133 0 -12 -75z m-1407 -832
l195 -209 -5 -221 -6 -221 -108 143 c-97 128 -213 362 -404 815 l-38 90 85
-94 c47 -51 173 -187 281 -303z m1154 -9 c-117 -266 -190 -402 -270 -506
l-110 -142 0 229 0 229 207 218 c114 120 233 248 263 284 89 106 79 70 -90
-312z m90 -247 c-29 -354 -168 -1150 -221 -1267 -5 -11 -5 242 1 562 l10 582
114 272 c64 149 119 268 122 264 4 -4 -8 -190 -26 -413z m-1424 141 l108 -253
13 -597 12 -598 -98 445 c-88 399 -161 957 -161 1224 0 67 4 59 126 -221z
m784 -205 l-120 -107 -115 100 c-63 55 -115 103 -115 107 0 4 106 7 235 7
l235 0 -120 -107z m-254 -39 l104 -105 -110 -109 -110 -109 0 215 c0 118 3
214 6 214 3 0 52 -48 110 -106z m384 -109 l0 -215 -113 114 -113 113 108 101
c59 55 110 101 113 101 3 1 5 -96 5 -214z m-520 -309 c0 -39 95 -583 192
-1093 27 -147 47 -271 43 -275 -4 -3 -74 54 -157 128 -82 74 -183 163 -224
198 l-74 65 -13 665 -13 666 123 -158 c68 -86 123 -175 123 -196z m770 -391
l-15 -585 -222 -198 c-123 -109 -226 -195 -231 -191 -4 4 12 109 36 233 24
124 82 444 130 709 68 381 96 496 130 540 25 32 73 96 108 144 l64 87 7 -77
c4 -42 0 -340 -7 -662z m-390 585 l109 -110 -219 0 -219 0 109 110 c60 61 109
110 110 110 1 0 50 -49 110 -110z m-880 -35 c0 -36 -6 -85 -13 -110 l-12 -45
-977 0 c-538 0 -978 4 -978 10 0 5 25 55 55 110 l55 99 935 1 935 0 0 -65z
m3344 0 c-44 -73 -353 -612 -1573 -2745 -459 -803 -841 -1466 -848 -1474 -8
-8 -40 35 -73 96 l-60 110 41 74 c23 41 166 290 318 554 421 729 648 1124 740
1290 47 83 311 545 588 1027 277 483 503 886 503 895 0 10 -311 18 -708 18
l-707 0 -12 45 c-7 25 -13 74 -13 110 l0 65 922 0 921 0 -39 -65z m-472 -1311
c-357 -624 -942 -1645 -1299 -2270 -358 -625 -657 -1133 -667 -1130 -9 3 -93
141 -187 306 -159 278 -523 910 -1265 2200 -165 286 -438 763 -609 1060 -170
297 -331 574 -357 615 -64 98 -66 95 77 95 l125 0 173 -305 c95 -168 256 -449
357 -625 102 -176 324 -561 493 -856 170 -295 435 -754 590 -1020 155 -266
354 -612 443 -769 127 -223 167 -280 185 -260 13 14 289 489 613 1055 323 567
875 1532 1226 2146 l638 1116 57 -111 56 -112 -649 -1135z m-1860 1161 c-10
-33 -194 -1046 -227 -1255 -16 -99 -17 -98 -61 160 -64 374 -181 1032 -194
1085 -11 45 -10 45 241 45 230 0 251 -3 241 -35z m-885 -444 c51 -235 90 -431
87 -434 -3 -3 -63 82 -132 189 l-127 194 3 180 c4 179 36 345 62 316 8 -9 56
-209 107 -445z m1430 361 c13 -37 23 -146 23 -242 l0 -174 -132 -198 c-76
-114 -128 -177 -122 -148 44 242 187 855 196 844 7 -8 23 -45 35 -82z m-1617
-13 c-11 -29 -20 -74 -20 -100 l0 -49 -757 0 c-416 0 -761 -5 -767 -11 -6 -6
34 -89 89 -185 102 -178 996 -1732 1411 -2454 572 -995 856 -1488 944 -1635
l44 -75 -132 0 c-73 0 -132 7 -132 16 0 15 -86 167 -689 1214 -152 264 -427
741 -610 1060 -840 1461 -1134 1971 -1214 2107 -48 80 -87 150 -87 155 0 4
436 8 970 8 l969 0 -19 -51z m2943 -44 l-56 -95 -601 -5 -601 -6 -11 66 c-6
36 -17 81 -24 100 -13 33 26 35 667 35 l682 0 -56 -95z m-2963 -251 c0 -58
-22 -182 -48 -275 -160 -564 -240 -886 -250 -1013 l-12 -144 -219 384 c-256
448 -463 805 -584 1009 l-86 145 599 0 600 0 0 -106z m2844 41 c-68 -111 -735
-1280 -785 -1375 l-48 -90 -14 140 c-7 77 -77 373 -155 657 -94 344 -142 554
-142 625 l0 108 592 0 591 0 -39 -65z m-2256 -884 c128 -110 230 -205 227
-212 -7 -16 -603 -578 -608 -573 -2 2 -27 220 -56 484 -29 264 -65 577 -82
696 -16 118 -29 229 -29 246 0 17 71 -75 158 -205 136 -205 188 -264 390 -436z
m1065 604 c-7 -36 -44 -353 -83 -705 -39 -352 -73 -652 -75 -666 -4 -22 -594
515 -610 555 -3 8 105 110 240 227 216 188 261 239 385 434 155 243 160 248
143 155z m-1526 -1018 l45 -373 -60 50 c-33 28 -132 116 -219 197 l-159 146
138 526 138 527 36 -350 c20 -192 56 -518 81 -723z m1704 534 l136 -518 -81
-72 c-45 -39 -146 -129 -225 -199 -117 -105 -141 -119 -133 -80 13 58 101 812
134 1153 13 135 26 243 28 240 2 -3 65 -238 141 -524z m-359 -953 c9 -16 -37
-107 -288 -577 l-90 -168 -106 638 c-59 350 -112 650 -118 666 -10 26 577
-520 602 -559z m-758 -84 c-57 -348 -110 -634 -116 -634 -17 0 -382 699 -374
717 9 20 583 563 589 556 3 -2 -42 -290 -99 -639z m244 -1184 c-73 -317 -112
-456 -121 -425 -7 25 -56 237 -109 473 l-96 427 94 573 c52 314 100 613 107
662 12 75 32 -17 123 -575 l109 -665 -107 -470z m-783 1252 c15 -38 180 -753
175 -759 -23 -24 -124 86 -197 214 -47 84 -164 289 -260 454 -157 274 -173
311 -173 407 l0 105 225 -204 c124 -113 227 -210 230 -217z m1796 250 c-30
-157 -581 -1049 -622 -1008 -4 5 33 179 83 387 l90 379 124 110 c68 60 169
152 224 204 110 103 132 87 101 -72z m-1283 -1430 c52 -213 90 -391 86 -395
-35 -34 -395 849 -454 1111 -35 158 -68 302 -73 320 -6 18 70 -121 169 -308
176 -333 181 -348 272 -728z m675 667 c-68 -275 -423 -1137 -455 -1103 -43 44
214 860 358 1138 90 172 166 307 169 298 3 -8 -29 -158 -72 -333z m-933 -430
c84 -167 170 -359 161 -359 -4 0 -59 92 -123 205 -63 113 -133 235 -155 273
l-40 67 44 -23 c24 -13 75 -86 113 -163z m834 -88 c-85 -147 -156 -266 -159
-263 -30 30 261 532 308 532 2 0 -65 -121 -149 -269z"/>
</g>
</svg>
