<?xml version="1.0" standalone="no"?>
<!DOCTYPE svg PUBLIC "-//W3C//DTD SVG 20010904//EN"
 "http://www.w3.org/TR/2001/REC-SVG-20010904/DTD/svg10.dtd">
<svg version="1.0" xmlns="http://www.w3.org/2000/svg"
 width="813.000000pt" height="1030.000000pt" viewBox="0 0 813.000000 1030.000000"
 preserveAspectRatio="xMidYMid meet">
<metadata>
Created by potrace 1.16, written by Peter Selinger 2001-2019
</metadata>
<g transform="translate(0.000000,1030.000000) scale(0.100000,-0.100000)"
fill="#000000" stroke="none">
<path d="M1293 10107 c-93 -96 -199 -208 -235 -250 -58 -68 -66 -83 -72 -131
-10 -92 -28 -837 -21 -916 6 -73 47 -255 65 -295 12 -24 49 -133 95 -275 39
-119 76 -179 268 -435 177 -236 239 -307 408 -466 84 -79 198 -187 253 -239
193 -182 197 -184 471 -241 83 -17 168 -39 190 -48 22 -10 103 -71 180 -136
77 -65 200 -168 273 -229 72 -60 132 -117 132 -126 0 -8 -13 -42 -28 -75 -16
-33 -32 -72 -36 -87 -9 -40 -32 -36 -112 21 -38 28 -139 100 -224 162 -152
109 -240 159 -330 185 -63 18 -132 41 -225 74 -333 120 -550 191 -573 188 -21
-2 -28 -9 -30 -31 -2 -16 3 -38 11 -50 8 -12 22 -49 31 -82 10 -33 42 -121 71
-195 64 -163 56 -143 116 -314 40 -117 54 -146 86 -176 21 -21 156 -115 300
-209 l263 -171 234 6 234 7 10 -39 c6 -21 16 -66 22 -99 7 -33 29 -114 50
-180 21 -66 41 -132 44 -147 3 -15 15 -200 26 -410 11 -211 25 -444 30 -519
l11 -136 -55 -82 c-72 -109 -80 -146 -74 -356 l5 -166 -268 -135 c-221 -110
-272 -140 -284 -164 -20 -39 -103 -290 -154 -470 -23 -80 -46 -158 -52 -175
-6 -16 -17 -55 -25 -85 -7 -30 -18 -64 -23 -75 -10 -20 -14 -32 -75 -260 -19
-71 -43 -143 -52 -158 -21 -38 -18 -50 83 -267 200 -433 393 -808 430 -836 19
-14 331 -195 438 -253 107 -59 161 -108 278 -253 64 -79 140 -169 169 -202
l53 -58 235 117 c371 185 339 162 655 474 154 153 327 317 385 366 158 134
248 224 259 259 5 17 12 60 16 96 3 36 20 171 37 300 39 304 40 404 4 530 -44
159 -74 270 -100 376 -14 56 -46 173 -72 260 l-47 159 -7 605 -6 605 -43 250
c-23 138 -51 297 -62 355 -23 117 -25 92 32 440 52 324 57 347 76 354 9 4 89
9 177 12 282 9 266 5 423 95 76 43 143 79 149 79 6 0 17 7 25 16 7 9 44 31 82
51 117 59 101 25 257 533 44 146 88 285 97 310 9 25 18 62 21 82 7 63 -17 61
-281 -25 -127 -42 -325 -106 -439 -142 -252 -81 -236 -71 -606 -362 -49 -38
-70 -49 -82 -43 -28 15 -121 102 -118 110 2 5 37 32 78 62 79 57 427 339 545
442 105 92 164 139 225 179 58 38 278 136 548 244 90 36 177 77 193 90 15 13
50 59 75 101 26 42 71 113 100 157 28 44 79 127 112 185 33 58 77 132 98 165
74 115 154 284 154 324 0 20 7 57 15 82 17 51 67 330 125 699 22 140 45 285
52 322 15 83 25 51 -155 468 -77 179 -144 340 -149 358 -9 33 -50 63 -66 48
-11 -12 -19 -666 -12 -1046 4 -190 5 -347 3 -350 -10 -12 -48 30 -151 171
-141 193 -155 206 -217 224 -63 18 -259 45 -326 45 -95 0 -79 -32 130 -255
236 -253 300 -328 312 -364 7 -20 35 -88 64 -152 59 -132 59 -123 -15 -224
-20 -27 -90 -126 -155 -220 -151 -218 -197 -274 -254 -312 -25 -17 -122 -80
-216 -140 -93 -60 -296 -193 -450 -295 -260 -173 -475 -298 -510 -298 -19 0
-20 34 -1 49 8 6 16 24 19 39 6 37 34 116 63 178 13 28 24 56 24 62 0 6 18 52
39 104 22 51 48 120 59 153 37 108 123 339 143 380 10 22 19 49 19 60 0 33
-139 697 -159 762 -11 33 -30 126 -42 205 -11 78 -25 150 -30 159 -10 20 -60
31 -74 18 -6 -6 -12 -177 -16 -447 -4 -241 -10 -453 -14 -472 -4 -18 -32 -97
-62 -174 -30 -78 -58 -154 -63 -171 -5 -16 -34 -97 -65 -180 -31 -82 -85 -235
-120 -340 -35 -104 -71 -210 -79 -235 -9 -25 -54 -160 -101 -301 l-85 -256
-62 -7 c-33 -3 -175 -6 -314 -6 l-254 0 -6 28 c-4 15 -34 92 -66 172 -84 203
-183 448 -198 490 -38 106 -92 245 -124 317 l-36 81 0 720 c0 396 -3 727 -6
736 -9 23 -31 20 -49 -8 -9 -14 -40 -116 -69 -228 -29 -112 -82 -300 -117
-418 l-64 -215 0 -245 0 -245 38 -123 c20 -68 37 -133 37 -143 0 -11 7 -36 16
-57 8 -20 21 -66 29 -102 22 -110 86 -342 107 -393 33 -76 17 -74 -98 14 -36
28 -98 70 -138 93 -68 41 -424 206 -476 221 -40 12 -142 65 -179 94 -26 20
-497 517 -602 636 -16 17 -20 51 -29 205 -5 102 -13 222 -16 266 -6 79 -6 82
18 98 13 9 71 27 129 40 208 48 354 88 380 103 37 22 46 35 189 269 67 109
160 258 206 330 84 132 97 167 68 178 -27 10 -79 -20 -296 -171 -320 -224
-430 -299 -467 -318 -24 -12 -75 -19 -185 -25 -83 -5 -151 -8 -152 -7 -1 1
-30 47 -64 102 -35 55 -98 153 -141 217 l-79 117 41 118 c23 65 58 179 79 253
21 74 57 204 81 289 31 113 40 158 32 170 -25 40 -47 25 -220 -152z m97 -44
c-1 -5 -17 -53 -36 -108 -19 -55 -41 -122 -48 -150 -7 -27 -18 -60 -24 -72 -7
-12 -12 -31 -12 -41 0 -68 -173 -573 -215 -628 -13 -17 -14 -13 -15 36 0 30 6
123 14 205 8 83 18 220 22 305 l7 155 146 152 c134 141 162 166 161 146z
m5416 -203 c15 -41 39 -102 54 -135 28 -64 81 -192 108 -262 16 -41 16 -43
-15 -115 -40 -93 -160 -365 -176 -398 -10 -21 -13 -8 -18 95 -9 172 -10 910
-2 919 8 8 8 8 49 -104z m-4326 -552 c0 -7 -22 -44 -49 -83 -27 -38 -89 -132
-137 -208 -116 -180 -150 -214 -238 -232 -36 -8 -113 -30 -170 -50 -57 -19
-109 -35 -115 -35 -19 0 8 43 74 117 78 90 161 161 325 279 74 54 171 126 215
161 83 65 95 72 95 51z m-1125 -139 c30 -55 71 -123 90 -151 19 -28 35 -61 35
-75 0 -14 -29 -89 -64 -167 -80 -176 -103 -232 -131 -321 -14 -46 -27 -71 -38
-73 -20 -4 -21 20 -7 173 5 55 14 226 20 380 12 301 16 349 30 340 4 -3 34
-50 65 -106z m4891 -10 c43 -13 75 -28 79 -38 13 -32 52 -231 46 -231 -8 0
-209 204 -244 248 -15 19 -27 38 -27 44 0 13 50 6 146 -23z m-5059 -101 c-4
-57 -10 -219 -13 -360 -5 -193 -10 -258 -19 -258 -7 0 -18 12 -24 28 -21 52
-81 302 -81 337 0 20 22 95 49 168 27 72 52 144 55 160 4 16 13 27 23 27 14 0
15 -12 10 -102z m5753 26 c0 -14 -15 -101 -34 -192 -19 -92 -40 -205 -46 -252
-14 -108 -39 -200 -49 -180 -4 8 -20 68 -36 134 -23 94 -26 124 -18 145 37 91
169 370 176 371 4 0 7 -12 7 -26z m-466 -119 c6 -10 52 -74 103 -141 82 -111
93 -130 107 -196 9 -40 32 -123 51 -185 19 -61 35 -114 35 -117 0 -14 -29 -4
-67 24 -56 41 -92 91 -118 164 -12 33 -45 117 -73 186 -28 69 -58 159 -67 200
-8 41 -18 84 -22 95 -5 18 -4 18 18 4 12 -9 28 -24 33 -34z m-4664 -53 c-19
-35 -126 -163 -273 -326 -84 -93 -163 -185 -177 -205 -23 -33 -25 -34 -28 -14
-6 40 227 527 261 545 20 11 193 27 214 20 9 -3 10 -9 3 -20z m1401 -374 c-6
-118 -11 -270 -11 -338 0 -151 -9 -232 -24 -227 -16 5 -95 225 -95 265 -2 67
121 533 136 518 3 -2 0 -101 -6 -218z m1869 10 c16 -86 38 -186 49 -223 22
-71 26 -105 13 -105 -20 0 -84 81 -96 121 -29 94 -32 399 -4 371 5 -5 22 -79
38 -164z m-3489 -50 c0 -2 4 -70 9 -153 10 -174 5 -245 -18 -245 -28 0 -256
51 -286 64 l-28 12 51 62 c116 139 267 283 272 260z m5113 -244 c36 -30 66
-57 66 -59 0 -2 -47 -81 -103 -177 -57 -95 -128 -218 -158 -273 -48 -89 -54
-97 -57 -70 -1 17 17 100 42 185 24 85 56 211 71 280 26 120 45 170 65 170 5
0 38 -25 74 -56z m-1602 -106 c76 -94 74 -82 33 -210 -36 -112 -58 -158 -74
-158 -4 0 -11 66 -15 148 -3 81 -9 178 -13 216 -6 66 -5 68 14 58 11 -6 35
-30 55 -54z m1359 -106 c-38 -126 -78 -290 -101 -412 -12 -63 -26 -119 -30
-124 -4 -4 -15 2 -23 15 -26 40 -78 212 -73 239 2 14 39 77 81 140 42 63 92
143 112 178 25 45 39 60 46 53 8 -8 4 -33 -12 -89z m-1481 -236 l12 -243 -199
-299 c-109 -164 -211 -320 -226 -346 -64 -111 -46 -18 38 202 132 342 315 875
315 916 0 8 8 26 18 39 l17 23 7 -24 c3 -13 12 -134 18 -268z m-3490 225 c99
-29 141 -47 156 -64 12 -14 50 -78 84 -143 35 -66 117 -213 182 -327 65 -114
122 -215 125 -225 3 -9 15 -27 26 -39 11 -13 18 -26 14 -29 -22 -22 -378 351
-545 571 -42 55 -111 141 -152 190 -101 119 -100 119 -59 112 19 -3 95 -23
169 -46z m1610 -52 c0 -16 134 -358 201 -510 32 -75 59 -145 59 -155 0 -9 7
-25 16 -35 9 -10 14 -26 12 -36 -2 -12 -15 1 -44 47 -59 94 -223 401 -250 469
-24 58 -42 186 -31 215 7 18 37 22 37 5z m-1056 -424 c43 -50 167 -184 276
-300 248 -265 303 -326 297 -331 -2 -2 -62 12 -133 31 -71 20 -145 40 -165 45
-45 12 -50 20 -214 316 -70 126 -146 261 -170 299 -24 39 -46 81 -50 95 -7 29
23 -1 159 -155z m4115 112 c6 -8 22 -45 36 -82 15 -38 35 -88 46 -112 24 -53
24 -80 1 -92 -22 -12 -282 -78 -477 -121 -77 -17 -194 -47 -261 -65 -66 -19
-135 -35 -154 -35 l-33 0 24 19 c13 10 137 88 274 174 138 86 306 194 375 241
128 87 149 96 169 73z m-2921 -333 c29 -54 113 -207 186 -339 155 -280 179
-325 173 -332 -5 -5 -115 61 -198 119 -31 21 -62 51 -68 65 -7 15 -39 122 -72
240 -32 117 -68 235 -79 263 -23 57 -26 94 -8 88 7 -3 36 -49 66 -104z m-493
-241 c238 -120 273 -141 423 -257 109 -84 224 -157 322 -206 122 -61 133 -69
118 -87 -6 -8 -41 -30 -77 -48 -36 -19 -86 -48 -111 -64 -25 -17 -51 -31 -58
-31 -8 0 -53 35 -100 78 -48 43 -159 139 -247 212 -224 187 -575 541 -524 529
8 -2 122 -59 254 -126z m2094 25 c-153 -400 -141 -379 -244 -428 -46 -23 -94
-40 -106 -38 -19 3 -15 12 45 95 36 50 122 178 192 282 69 105 131 191 139
191 9 0 1 -31 -26 -102z m913 57 c1 -14 -325 -159 -452 -202 -58 -19 -123 -43
-146 -54 -22 -10 -45 -19 -51 -19 -6 0 -70 -27 -144 -60 -180 -81 -192 -80
-141 12 24 45 35 54 117 93 121 58 268 104 521 164 116 28 226 57 245 65 36
16 50 16 51 1z m-427 -291 c-16 -14 -106 -85 -200 -159 -93 -73 -233 -186
-309 -249 l-139 -116 -31 25 c-17 14 -66 50 -108 81 -43 30 -81 60 -84 66 -9
14 6 22 96 54 41 15 132 51 202 80 70 30 133 54 140 54 7 0 112 45 233 99 121
54 222 97 225 94 3 -3 -8 -16 -25 -29z m835 -202 c0 -12 -42 -132 -79 -229
l-32 -81 -197 -102 c-220 -115 -460 -249 -510 -287 -18 -14 -36 -22 -40 -18
-11 11 28 67 145 208 104 126 119 140 230 212 65 42 165 109 223 148 126 85
241 157 252 157 4 0 8 -4 8 -8z m-3990 -206 c157 -98 299 -194 334 -226 67
-63 276 -297 276 -311 0 -16 -16 -10 -58 21 -51 36 -339 201 -563 321 -91 49
-175 100 -187 112 -19 21 -102 226 -102 254 0 17 -27 33 300 -171z m3720 150
c0 -6 -177 -118 -264 -167 -44 -24 -105 -69 -136 -99 -45 -45 -213 -265 -435
-571 -16 -23 -34 -41 -40 -41 -10 0 -40 108 -71 254 -16 76 -16 90 -4 113 16
29 67 71 280 227 134 97 156 110 280 156 74 27 167 60 205 72 39 12 86 30 105
40 32 16 80 26 80 16z m-3675 -56 c10 -11 27 -20 38 -20 11 0 38 -9 61 -19 23
-10 73 -30 111 -44 179 -66 244 -94 300 -132 175 -120 444 -317 449 -331 3 -8
-8 -65 -25 -127 -16 -62 -35 -132 -41 -156 l-12 -44 -51 55 c-28 30 -137 160
-242 289 -104 129 -203 248 -219 264 -29 31 -100 77 -303 198 -99 58 -131 87
-98 87 7 0 22 -9 32 -20z m2017 -68 l46 -7 -105 -157 c-57 -87 -108 -158 -112
-158 -5 0 -17 12 -26 28 -10 15 -59 79 -110 142 -51 63 -98 125 -104 138 l-12
22 188 -1 c103 0 209 -4 235 -7z m-512 -24 c5 -7 38 -51 71 -98 34 -47 92
-121 129 -165 90 -108 95 -117 75 -155 -9 -17 -38 -61 -65 -98 -27 -37 -73
-107 -103 -157 -36 -60 -60 -90 -72 -90 -14 0 -42 47 -110 180 -50 99 -110
212 -134 250 -24 39 -49 84 -57 100 -7 17 -19 37 -25 46 -7 9 -10 23 -6 31 6
17 254 168 274 168 7 0 17 -6 23 -12z m775 -80 c142 -118 142 -118 117 -171
-10 -23 -38 -103 -61 -177 -24 -74 -50 -155 -58 -180 -8 -25 -18 -68 -22 -97
-4 -29 -10 -55 -14 -59 -12 -13 -37 6 -69 52 -18 26 -79 103 -134 172 -56 68
-107 135 -114 147 -13 25 -8 37 93 187 29 43 72 109 96 148 25 38 47 70 50 70
3 0 56 -41 116 -92z m-2364 -199 c57 -34 173 -97 259 -141 212 -110 300 -160
300 -171 0 -11 -45 -5 -121 17 -31 9 -136 29 -235 46 -98 17 -189 37 -202 46
-13 9 -34 39 -46 67 -67 152 -77 178 -71 187 3 6 8 10 10 10 2 0 49 -28 106
-61z m3889 44 c0 -16 -84 -250 -95 -261 -24 -27 -535 -70 -535 -45 0 5 26 20
58 33 84 34 510 251 523 267 12 13 49 19 49 6z m-2607 -110 c134 -240 247
-454 247 -467 0 -19 -66 -26 -254 -26 -139 0 -228 8 -241 22 -3 2 7 31 20 64
13 33 36 102 50 154 44 159 108 350 116 350 4 0 32 -44 62 -97z m1354 35 c63
-64 74 -90 103 -233 12 -60 33 -139 46 -174 13 -35 24 -67 24 -72 0 -17 -79
-27 -243 -32 l-169 -4 5 36 c3 20 28 102 56 183 28 81 60 185 71 230 22 85 35
118 48 118 4 0 31 -24 59 -52z m-595 -270 c51 -68 128 -165 172 -217 l79 -93
-17 -137 c-24 -202 -33 -314 -53 -653 l-17 -308 -196 0 c-107 0 -205 3 -217 6
-25 7 -29 26 -43 249 -15 227 -28 366 -52 550 -11 88 -21 196 -22 241 -1 80 0
82 41 140 24 32 84 123 134 202 50 78 93 142 95 142 2 0 45 -55 96 -122z
m-1663 -57 c47 -11 149 -29 226 -41 161 -25 185 -34 245 -95 65 -66 56 -69
-157 -58 l-179 9 -160 93 c-87 51 -163 97 -168 102 -18 16 104 10 193 -10z
m3227 10 c-3 -5 -63 -37 -133 -72 -127 -62 -128 -63 -258 -76 -71 -7 -152 -17
-180 -22 -57 -10 -75 -6 -75 18 1 18 69 94 100 111 10 6 93 17 182 25 90 9
172 17 183 19 44 8 186 5 181 -3z m-808 -314 c-3 -23 -19 -109 -36 -192 -17
-82 -37 -194 -45 -248 -12 -84 -20 -106 -51 -152 -49 -71 -326 -353 -332 -338
-3 6 36 105 86 220 51 114 100 233 110 263 10 30 32 91 50 135 17 44 35 94 40
110 8 30 67 177 90 227 14 29 44 39 73 25 15 -7 18 -17 15 -50z m-190 29 c2
-3 -24 -76 -58 -163 -35 -87 -71 -183 -81 -213 -10 -30 -41 -118 -69 -195 -28
-77 -55 -155 -60 -174 -5 -18 -14 -39 -20 -45 -15 -14 -6 185 15 344 8 58 19
178 23 268 5 89 12 165 16 169 16 16 219 24 234 9z m-1358 -21 c10 -9 22 -31
26 -49 3 -17 10 -36 15 -41 4 -6 35 -80 67 -165 81 -210 175 -430 223 -517 36
-67 50 -123 31 -123 -10 0 -329 341 -394 423 -27 32 -50 70 -54 85 -3 15 -31
106 -62 202 -31 96 -58 180 -60 187 -5 17 25 22 111 18 56 -2 84 -8 97 -20z
m292 19 c44 -8 42 0 63 -219 8 -88 20 -185 25 -215 17 -91 30 -298 21 -322 -7
-17 -10 -19 -14 -8 -43 121 -82 233 -91 265 -6 22 -14 45 -18 50 -3 6 -28 64
-54 130 -26 66 -64 158 -85 204 -22 46 -39 90 -39 97 0 20 115 30 192 18z
m-321 -704 c4 -8 26 -58 49 -110 l41 -95 9 -205 c5 -113 11 -218 15 -235 3
-16 14 -160 25 -320 11 -159 23 -319 26 -355 5 -60 4 -64 -11 -45 -19 24 -34
76 -79 275 -47 205 -53 246 -71 505 -24 344 -45 587 -51 597 -4 5 4 8 16 6 13
-1 27 -10 31 -18z m266 -185 c77 -82 157 -166 177 -184 l36 -35 0 -165 c0 -92
-3 -176 -6 -188 -5 -17 -50 65 -191 344 -101 201 -189 377 -194 390 -9 24 -9
24 14 6 12 -10 86 -85 164 -168z m1237 98 c3 -16 17 -116 31 -223 14 -107 37
-263 50 -347 l25 -151 -37 -104 c-20 -56 -42 -110 -48 -118 -7 -8 -15 -28 -19
-45 -7 -31 -47 -138 -70 -190 -7 -16 -26 -68 -41 -115 -16 -47 -33 -91 -38
-98 -16 -20 -27 6 -22 48 10 71 35 463 45 710 17 403 25 487 56 556 14 32 30
69 35 82 12 30 26 28 33 -5z m-153 -95 c-58 -128 -242 -502 -264 -537 l-22
-36 -7 50 c-3 28 -7 100 -7 160 l-1 111 158 157 c87 86 161 157 165 157 3 0
-7 -28 -22 -62z m-1013 -511 c121 -249 134 -282 156 -387 71 -334 271 -1139
306 -1234 11 -28 20 -69 20 -90 l0 -40 -72 80 c-39 43 -163 171 -274 284
l-202 205 -6 65 c-4 36 -13 223 -21 415 -9 193 -24 462 -35 599 -21 263 -25
376 -12 376 4 0 67 -123 140 -273z m560 245 l44 -7 -75 -72 c-41 -40 -81 -73
-89 -73 -7 0 -47 34 -88 75 l-74 74 70 4 c123 6 168 6 212 -1z m418 -54 c-16
-115 -49 -585 -61 -888 -4 -80 -11 -200 -16 -266 -9 -118 -12 -127 -70 -260
-33 -77 -87 -211 -120 -299 -34 -88 -65 -167 -69 -175 -19 -33 -21 43 -6 172
24 195 24 195 51 543 14 176 29 408 34 515 9 216 18 250 102 405 20 39 54 111
74 160 32 77 67 135 83 135 2 0 2 -19 -2 -42z m-668 -92 c40 -41 72 -78 72
-83 0 -9 -128 -137 -164 -164 -19 -14 -19 -11 -13 106 8 140 17 215 27 215 3
0 39 -33 78 -74z m336 17 c9 -58 7 -253 -3 -253 -13 0 -141 138 -141 152 0 13
119 138 131 138 3 0 9 -17 13 -37z m-129 -230 c88 -89 88 -89 0 -98 -90 -8
-225 3 -225 18 0 19 128 137 148 137 11 0 45 -26 77 -57z m-870 -240 c10 -43
24 -103 33 -133 8 -30 23 -89 33 -130 9 -41 38 -147 63 -235 26 -88 45 -169
43 -180 -2 -18 -6 -16 -35 15 -18 19 -78 93 -134 164 l-101 130 7 195 c6 170
10 202 28 240 18 37 23 42 33 28 6 -9 20 -51 30 -94z m959 50 l38 -6 -5 -66
c-3 -36 -12 -142 -21 -236 -18 -199 -32 -437 -46 -770 -6 -132 -14 -243 -19
-248 -12 -12 -22 26 -61 213 -17 80 -44 199 -60 265 -15 66 -52 221 -80 345
-28 124 -67 280 -86 347 -19 67 -34 129 -34 137 0 8 12 16 28 19 45 7 304 7
346 0z m666 -227 c-6 -85 -15 -305 -20 -488 -5 -183 -14 -380 -19 -438 -6 -58
-22 -289 -36 -515 -14 -225 -27 -416 -28 -424 -1 -8 -84 65 -187 165 -190 184
-271 259 -327 306 l-33 27 104 218 c112 237 236 520 271 623 12 36 48 126 78
201 31 75 82 205 113 290 54 146 81 205 91 195 2 -2 -1 -74 -7 -160z m-1703
-354 c16 -20 77 -86 134 -147 100 -107 102 -110 75 -113 -16 -2 -47 3 -70 12
-51 19 -184 47 -386 81 -203 33 -210 35 -210 46 0 6 30 24 68 41 37 17 123 56
191 88 140 66 139 66 198 -8z m-440 -217 c148 -37 423 -85 558 -96 66 -6 121
-12 123 -14 9 -9 -28 -46 -81 -83 -64 -44 -326 -253 -486 -387 -53 -45 -157
-131 -232 -192 -74 -61 -181 -152 -237 -202 -56 -50 -104 -91 -107 -91 -13 0
-3 65 19 122 14 35 37 104 52 153 15 50 33 104 39 120 7 17 16 46 20 65 4 19
31 109 61 200 29 91 59 190 65 220 6 30 18 67 25 82 8 15 14 36 14 48 0 34 29
80 50 80 10 0 63 -11 117 -25z m942 -337 c68 -73 175 -182 238 -242 62 -59
139 -138 170 -174 53 -64 55 -67 50 -112 -3 -26 -12 -62 -21 -81 -8 -19 -29
-81 -46 -139 -17 -58 -42 -141 -55 -185 -40 -132 -365 -1339 -391 -1450 -37
-159 -47 -169 -95 -97 -18 26 -72 97 -121 159 l-89 112 10 98 c6 54 22 231 36
393 14 162 32 347 40 410 8 63 28 273 45 465 16 193 37 427 45 520 8 94 15
227 15 297 0 138 4 158 29 158 9 0 72 -60 140 -132z m-273 70 c-8 -18 -37 -82
-66 -143 -29 -60 -79 -175 -112 -255 -33 -80 -92 -219 -130 -310 -39 -91 -79
-187 -88 -215 -10 -27 -78 -194 -150 -370 -73 -176 -136 -334 -141 -352 -5
-18 -16 -45 -24 -60 -8 -15 -15 -35 -15 -43 0 -22 -29 -60 -45 -60 -8 0 -19
18 -26 43 -13 52 -235 540 -259 570 -10 12 -21 33 -25 47 -4 14 -27 63 -51
111 -24 47 -44 88 -44 91 0 3 62 55 137 114 76 60 180 145 233 189 52 44 131
109 175 145 147 118 455 381 535 456 88 82 120 96 96 42z m1538 -15 c3 -10 26
-103 50 -208 25 -104 66 -273 92 -374 l48 -185 -107 -101 c-59 -55 -121 -109
-139 -119 l-31 -19 7 44 c12 86 25 278 36 524 15 372 21 455 30 455 5 0 11 -8
14 -17z m-1497 -140 c-28 -159 -43 -281 -81 -668 -25 -247 -59 -598 -76 -780
-29 -317 -44 -472 -56 -562 l-6 -42 -67 33 c-90 46 -390 220 -423 246 -16 12
-28 26 -28 31 0 5 15 44 34 87 56 124 169 395 236 562 34 85 109 269 167 410
58 140 139 344 180 454 40 109 80 211 89 227 19 37 38 38 31 2z m938 -632 c39
-40 139 -136 223 -214 139 -127 153 -142 147 -166 -4 -14 -62 -142 -131 -284
-68 -142 -124 -259 -124 -261 0 -2 -7 -20 -16 -41 -10 -24 -19 -34 -25 -28 -5
5 -21 81 -34 169 -44 290 -109 632 -152 799 -14 55 -28 116 -31 135 l-5 35 39
-36 c22 -19 71 -68 109 -108z m-151 -261 c58 -350 112 -640 132 -708 8 -29 18
-82 21 -116 l6 -64 -99 -183 c-121 -226 -144 -251 -314 -339 -68 -36 -162 -86
-207 -113 -46 -26 -85 -47 -88 -47 -12 0 -3 72 15 126 23 65 60 198 181 644
44 162 94 342 110 400 41 140 134 509 150 590 14 74 27 106 39 94 5 -5 29
-133 54 -284z m873 28 c-3 -57 -11 -118 -16 -137 -6 -19 -17 -99 -26 -178 -8
-79 -22 -157 -30 -173 -8 -15 -86 -95 -172 -176 -148 -138 -158 -146 -161
-120 -2 14 8 66 22 114 14 48 36 142 50 208 28 135 63 268 78 299 10 19 248
265 257 265 2 0 1 -46 -2 -102z m-427 -546 c0 -9 -13 -63 -29 -120 -16 -56
-35 -127 -41 -157 -9 -44 -24 -71 -70 -128 -58 -72 -148 -162 -155 -155 -6 5
279 578 288 578 4 0 7 -8 7 -18z"/>
</g>
</svg>
