<?xml version="1.0" encoding="UTF-8"?>
<svg xmlns="http://www.w3.org/2000/svg" xmlns:xlink="http://www.w3.org/1999/xlink" width="675pt" height="675pt" viewBox="0 0 675 675" version="1.1">
<g id="surface1">
<path style=" stroke:none;fill-rule:nonzero;fill:rgb(0%,0%,0%);fill-opacity:1;" d="M 184.125 79.875 C 177.523438 86.625 171.75 93.148438 171.300781 94.273438 C 170.773438 95.550781 170.25 106.050781 169.949219 121.949219 C 169.5 146.25 169.574219 147.824219 171 152.25 C 171.824219 154.800781 172.5 157.574219 172.5 158.324219 C 172.5 159.074219 172.800781 159.824219 173.175781 160.050781 C 173.476562 160.273438 174 161.550781 174.300781 162.898438 C 174.523438 164.25 175.199219 166.351562 175.800781 167.625 C 176.398438 168.824219 177.449219 171.898438 178.125 174.375 C 178.800781 176.851562 179.925781 179.851562 180.523438 181.125 C 181.574219 183 188.925781 193.5 191.023438 196.125 C 191.398438 196.5 194.476562 200.550781 197.925781 205.125 C 204 213.074219 208.351562 217.648438 219.300781 227.476562 C 222.148438 230.023438 227.175781 234.75 230.398438 237.898438 C 233.699219 241.199219 237.226562 243.898438 238.351562 244.199219 C 239.476562 244.425781 241.050781 244.949219 241.875 245.25 C 242.699219 245.625 245.25 246.300781 247.5 246.75 C 258.824219 248.925781 261.898438 249.675781 263.398438 250.726562 C 264.375 251.324219 270 255.976562 276 261.074219 C 282 266.175781 288.300781 271.5 290.101562 272.851562 C 291.824219 274.273438 293.25 275.699219 293.25 276.074219 C 293.25 276.449219 292.425781 278.476562 291.375 280.648438 C 290.324219 282.75 289.5 284.925781 289.5 285.449219 C 289.5 287.398438 287.851562 287.324219 284.773438 285.226562 C 283.050781 284.101562 281.175781 282.675781 280.574219 282.148438 C 279.976562 281.625 278.625 280.574219 277.574219 279.898438 C 276.523438 279.226562 272.324219 276.226562 268.273438 273.226562 C 264.226562 270.226562 260.25 267.75 259.5 267.75 C 258.75 267.75 257.925781 267.449219 257.699219 267.074219 C 257.398438 266.699219 255.898438 266.175781 254.25 265.875 C 252.601562 265.574219 251.101562 265.125 250.875 264.75 C 250.648438 264.449219 249.226562 263.925781 247.726562 263.625 C 246.148438 263.324219 244.574219 262.875 244.125 262.648438 C 243.75 262.351562 237.824219 260.25 231 257.925781 C 224.175781 255.601562 217.199219 253.125 215.398438 252.449219 C 213.601562 251.773438 211.800781 251.398438 211.425781 251.625 C 210.523438 252.226562 210.523438 255.523438 211.425781 256.050781 C 211.800781 256.273438 212.324219 257.398438 212.550781 258.523438 C 213.148438 261.074219 216.449219 270 218.324219 274.273438 C 219.148438 276 219.75 277.726562 219.75 278.101562 C 219.75 278.476562 220.273438 279.824219 220.875 280.949219 C 221.476562 282.148438 222 283.648438 222 284.324219 C 222 285 222.523438 286.574219 223.125 287.699219 C 223.726562 288.898438 224.25 290.398438 224.324219 291 C 224.398438 293.023438 226.949219 296.625 229.425781 298.125 C 233.925781 300.898438 241.125 305.550781 241.875 306.226562 C 242.324219 306.523438 245.851562 308.925781 249.75 311.398438 L 256.875 316.050781 L 269.398438 315.824219 L 281.925781 315.601562 L 282.300781 317.398438 C 282.523438 318.375 282.824219 319.949219 283.050781 321 C 283.574219 323.773438 285.074219 329.398438 285.675781 331.125 C 288.601562 338.851562 288.898438 340.648438 289.5 355.875 C 289.875 364.5 290.550781 377.324219 291 384.226562 L 291.898438 396.824219 L 289.726562 399.898438 C 285 406.726562 285 406.800781 285.148438 418.050781 L 285.375 428.550781 L 279.75 431.324219 C 276.675781 432.824219 270.523438 435.898438 266.023438 438.074219 C 261.601562 440.25 257.476562 442.574219 256.949219 443.175781 C 255.898438 444.375 253.125 452.175781 249.75 463.5 C 248.851562 466.574219 247.648438 470.550781 247.050781 472.351562 C 246.449219 474.074219 246 476.175781 246 477 C 246 477.75 245.699219 478.574219 245.324219 478.875 C 244.875 479.101562 244.351562 480.824219 244.050781 482.625 C 243.824219 484.5 243.300781 486.148438 243 486.375 C 242.625 486.601562 242.175781 488.175781 241.875 489.976562 C 241.574219 491.699219 241.050781 493.425781 240.75 493.875 C 240.449219 494.25 239.851562 496.125 239.398438 498 C 237.523438 505.949219 236.851562 508.199219 236.175781 508.875 C 235.050781 510 235.351562 511.425781 238.574219 518.175781 C 240.300781 521.699219 242.699219 526.800781 243.898438 529.5 C 251.101562 545.101562 261.148438 564.601562 262.648438 565.949219 C 263.550781 566.851562 266.699219 568.800781 269.550781 570.300781 C 272.324219 571.875 276.75 574.351562 279.300781 575.925781 C 281.773438 577.425781 284.476562 578.925781 285.148438 579.226562 C 285.898438 579.449219 288.300781 580.875 290.550781 582.300781 C 294.074219 584.550781 296.101562 586.726562 301.726562 594.074219 C 303.375 596.324219 309.375 603.300781 311.023438 605.023438 L 312.675781 606.75 L 328.648438 598.648438 C 342.675781 591.601562 345.074219 590.101562 348.375 586.5 C 354.898438 579.375 371.476562 562.949219 375.300781 559.875 C 380.476562 555.675781 385.273438 551.476562 389.625 547.351562 C 393.375 543.824219 393.375 543.824219 393.898438 537.976562 C 394.125 534.75 395.25 525.675781 396.300781 517.875 C 397.875 506.324219 398.101562 502.949219 397.5 500.25 C 397.050781 498.375 396.375 495.449219 396 493.648438 C 395.625 491.925781 394.949219 489.898438 394.574219 489.148438 C 394.199219 488.476562 393.675781 486.375 393.375 484.5 C 393.074219 482.625 392.625 480.75 392.324219 480.375 C 392.101562 479.925781 391.5 477.75 390.976562 475.5 C 390.148438 471.375 388.875 466.875 386.550781 459 C 385.949219 456.75 385.050781 453.675781 384.675781 452.175781 C 384.375 450.675781 384.148438 436.800781 384.300781 421.273438 C 384.449219 405.75 384.226562 391.425781 383.851562 389.476562 C 383.476562 387.523438 382.726562 382.800781 382.125 379.125 C 380.101562 366.300781 378.824219 358.875 377.925781 354.898438 C 377.023438 350.851562 377.101562 349.648438 379.800781 334.5 C 380.476562 330.976562 381.375 325.273438 381.824219 321.75 C 382.273438 318.226562 382.949219 315 383.324219 314.625 C 383.699219 314.101562 388.5 313.726562 395.550781 313.648438 C 401.925781 313.574219 407.773438 313.199219 408.523438 312.824219 C 409.273438 312.449219 412.800781 310.425781 416.324219 308.324219 C 419.925781 306.226562 423.226562 304.5 423.675781 304.5 C 424.125 304.5 424.5 304.199219 424.5 303.824219 C 424.5 303.523438 426.449219 302.324219 428.851562 301.273438 C 431.25 300.148438 433.726562 298.648438 434.398438 297.976562 C 435.375 296.773438 436.800781 292.726562 439.648438 282.75 C 440.023438 281.324219 440.699219 279.074219 441.148438 277.875 C 445.648438 264.074219 447 259.726562 447 258.75 C 447 258.226562 447.523438 256.726562 448.199219 255.375 C 450.824219 249.75 448.648438 249 439.875 252.375 C 437.023438 253.5 433.800781 254.550781 432.75 254.773438 C 431.699219 254.925781 430.199219 255.375 429.375 255.75 C 428.550781 256.050781 423.824219 257.625 418.875 259.125 C 413.925781 260.625 409.351562 262.125 408.75 262.425781 C 408.074219 262.800781 406.5 263.324219 405.226562 263.550781 C 401.925781 264.300781 397.574219 266.550781 394.949219 268.800781 C 393.75 269.851562 392.550781 270.75 392.324219 270.75 C 392.101562 270.75 390.675781 271.800781 389.25 273 C 385.726562 276 385.5 276.148438 382.5 278.25 C 381.074219 279.300781 379.050781 280.875 378 281.773438 C 377.023438 282.75 375.898438 283.5 375.601562 283.5 C 375 283.5 369.75 279.148438 368.851562 277.875 C 367.875 276.601562 368.175781 276.148438 371.101562 274.425781 C 372.601562 273.523438 375.074219 271.726562 376.574219 270.449219 C 379.425781 268.050781 380.324219 267.300781 392.25 257.625 C 396.148438 254.476562 400.726562 250.648438 402.375 249.074219 C 407.324219 244.5 414.523438 239.25 417.523438 238.050781 C 419.101562 237.449219 421.425781 236.476562 422.625 235.875 C 423.898438 235.351562 426.074219 234.375 427.5 233.773438 C 428.925781 233.175781 431.324219 232.125 432.75 231.523438 C 434.175781 230.851562 438.074219 229.273438 441.375 228 C 453.300781 223.351562 452.550781 223.949219 457.199219 216.074219 C 459.601562 212.101562 461.773438 208.726562 462 208.5 C 462.300781 208.273438 463.199219 206.925781 464.023438 205.5 C 464.773438 204.074219 466.351562 201.449219 467.476562 199.648438 C 468.601562 197.851562 469.875 195.675781 470.25 194.773438 C 471.148438 192.75 472.574219 190.574219 473.851562 189.148438 C 474.300781 188.625 474.75 187.875 474.75 187.5 C 474.75 187.199219 476.101562 184.574219 477.75 181.800781 C 479.851562 178.199219 480.75 175.800781 480.75 173.773438 C 480.75 172.199219 481.050781 170.25 481.5 169.5 C 481.875 168.75 482.699219 165 483.300781 161.101562 C 483.976562 157.273438 484.949219 151.273438 485.625 147.75 C 486.300781 144.226562 487.273438 137.851562 487.875 133.5 C 488.773438 126.601562 490.648438 115.800781 491.324219 113.625 C 491.625 112.5 490.5 109.273438 486.75 100.875 C 486.375 100.050781 485.398438 97.648438 484.5 95.625 C 483.601562 93.523438 482.625 91.199219 482.25 90.375 C 481.875 89.550781 480.898438 87.148438 480 85.125 C 478.351562 81.148438 476.476562 76.949219 475.425781 74.851562 C 475.050781 74.101562 474.75 73.050781 474.75 72.449219 C 474.75 70.875 472.574219 69.375 471.675781 70.273438 C 470.773438 71.175781 470.625 132.074219 471.449219 139.648438 C 471.898438 143.324219 471.75 144 470.773438 144 C 470.101562 144 469.050781 143.25 468.375 142.273438 C 467.773438 141.375 465.601562 138.449219 463.648438 135.824219 C 461.699219 133.199219 459.148438 129.601562 457.949219 127.875 C 454.949219 123.523438 453.601562 122.851562 445.5 121.648438 C 434.851562 120.148438 431.625 120.074219 431.625 121.574219 C 431.625 122.851562 438.148438 130.199219 450.601562 143.101562 C 454.273438 146.851562 457.574219 150.898438 457.875 152.023438 C 458.324219 153.898438 462 162.449219 463.5 165.148438 C 464.699219 167.25 464.476562 167.773438 459.976562 173.851562 C 457.648438 177 452.925781 183.824219 449.476562 188.925781 C 445.648438 194.476562 442.050781 199.050781 440.25 200.324219 C 438.601562 201.523438 437.101562 202.5 436.949219 202.5 C 436.726562 202.5 435.148438 203.476562 433.351562 204.601562 C 431.550781 205.800781 425.925781 209.476562 420.75 212.851562 C 415.574219 216.226562 411.074219 219.226562 410.625 219.523438 C 410.25 219.898438 408.523438 221.023438 406.875 222 C 405.226562 222.976562 403.726562 224.023438 403.5 224.25 C 403.273438 224.476562 401.773438 225.523438 400.125 226.5 C 398.476562 227.476562 396.976562 228.449219 396.75 228.675781 C 395.023438 230.550781 381.148438 238.425781 377.476562 239.550781 C 376.050781 240 375.75 239.851562 375.75 238.574219 C 375.75 237.75 376.050781 236.851562 376.5 236.625 C 376.875 236.398438 377.25 235.574219 377.25 234.898438 C 377.25 234.226562 377.773438 232.648438 378.375 231.449219 C 378.976562 230.324219 379.5 228.75 379.5 228.074219 C 379.5 227.324219 380.023438 226.125 380.625 225.300781 C 381.226562 224.550781 381.75 223.425781 381.75 222.898438 C 381.75 222 384.074219 216.226562 385.425781 213.75 C 385.800781 213.074219 386.324219 211.425781 386.625 210 C 386.925781 208.574219 387.449219 206.925781 387.824219 206.25 C 388.875 204.375 393.75 191.324219 393.75 190.5 C 393.75 190.050781 394.273438 188.851562 394.949219 187.800781 C 396 186.226562 396.074219 185.398438 395.324219 182.023438 C 394.800781 179.925781 393.898438 175.648438 393.300781 172.648438 C 389.25 152.101562 388.273438 147.601562 387.601562 146.550781 C 387 145.648438 385.574219 138.226562 384.75 131.550781 C 384.148438 126.226562 383.851562 125.550781 381.675781 125.023438 C 380.550781 124.726562 379.949219 125.023438 379.726562 125.851562 C 379.574219 126.523438 379.351562 137.550781 379.273438 150.375 C 379.125 172.875 379.050781 173.773438 377.398438 177.75 C 376.425781 180 375.300781 182.925781 374.925781 184.273438 C 374.550781 185.625 373.726562 187.648438 373.125 188.773438 C 372.523438 189.898438 372 191.324219 372 191.851562 C 372 192.375 371.699219 193.351562 371.324219 194.101562 C 370.949219 194.773438 369.898438 197.550781 369 200.25 C 368.101562 202.949219 367.050781 205.800781 366.675781 206.625 C 365.625 209.101562 362.101562 219.148438 361.199219 222.375 C 360.75 224.023438 360.148438 225.675781 359.925781 226.125 C 359.625 226.5 359.175781 228.074219 358.875 229.5 C 358.574219 230.925781 358.050781 232.425781 357.75 232.875 C 357.449219 233.25 356.101562 237.148438 354.75 241.5 C 351.226562 252.824219 348.601562 260.550781 347.925781 261.226562 C 347.550781 261.75 321.75 262.125 315.226562 261.824219 C 314.699219 261.75 314.25 261.226562 314.25 260.625 C 314.25 260.023438 313.726562 258.300781 313.050781 256.726562 C 310.800781 251.699219 309.898438 249.523438 307.5 243.375 C 304.648438 236.324219 304.351562 235.5 302.324219 230.851562 C 301.425781 228.898438 300.75 226.875 300.75 226.351562 C 300.75 225.75 300.449219 225 300.074219 224.550781 C 299.773438 224.175781 298.875 222 298.125 219.75 C 296.925781 215.851562 295.425781 212.25 292.648438 206.25 C 291.601562 204 291.523438 201.074219 291.75 184.5 C 291.976562 174 292.125 156.75 292.125 146.25 C 292.125 129.148438 291.976562 127.125 290.925781 126.898438 C 289.5 126.601562 288.375 129.148438 286.800781 136.5 C 285.300781 143.023438 284.550781 145.949219 283.273438 150 C 282.601562 151.875 281.550781 155.398438 280.875 157.875 C 279.375 163.574219 277.574219 169.949219 276.675781 172.949219 C 276.300781 174.226562 276 180.375 276 186.601562 C 276 197.175781 276.148438 198.375 278.25 204.898438 C 279.523438 208.726562 280.5 212.699219 280.5 213.898438 C 280.5 215.023438 280.800781 216.074219 281.175781 216.375 C 281.625 216.601562 282.148438 218.398438 282.375 220.351562 C 282.675781 222.300781 283.199219 224.550781 283.574219 225.375 C 283.949219 226.199219 284.550781 228.375 284.925781 230.25 C 285.976562 235.273438 287.625 240.976562 288.675781 242.925781 C 289.351562 244.125 289.425781 244.875 288.898438 245.398438 C 288.375 245.925781 286.351562 244.726562 282.601562 241.726562 C 277.726562 237.675781 271.648438 234.300781 262.875 230.625 C 261.226562 229.949219 258.226562 228.601562 256.273438 227.550781 C 254.25 226.574219 252.226562 225.75 251.851562 225.75 C 251.398438 225.75 248.625 224.625 245.699219 223.199219 C 241.351562 221.023438 239.25 219.375 234 213.601562 C 230.550781 209.773438 224.925781 203.773438 221.625 200.25 C 218.324219 196.726562 213.898438 192 211.800781 189.75 L 207.976562 185.625 L 207.523438 175.125 C 207.226562 169.351562 206.851562 162.898438 206.550781 160.726562 C 206.101562 157.050781 206.175781 156.824219 208.199219 155.773438 C 209.398438 155.175781 212.101562 154.425781 214.125 154.125 C 216.226562 153.898438 218.550781 153.375 219.375 153 C 220.199219 152.625 222.375 152.023438 224.25 151.574219 C 235.800781 149.023438 235.5 149.25 240.523438 140.851562 C 242.550781 137.550781 244.648438 134.101562 245.25 133.125 C 245.851562 132.226562 248.699219 127.574219 251.550781 122.925781 C 254.398438 118.199219 257.550781 113.324219 258.601562 111.976562 C 259.574219 110.625 260.175781 109.199219 259.875 108.75 C 258.898438 107.25 256.5 108.074219 251.773438 111.523438 C 249.074219 113.550781 243 117.824219 238.199219 121.125 C 233.398438 124.425781 226.949219 128.925781 223.800781 131.023438 C 218.398438 134.773438 217.800781 135 213.449219 135 C 210.976562 135 207.148438 135.226562 204.976562 135.449219 L 201.074219 135.976562 L 198.375 131.550781 C 196.800781 129.074219 193.425781 123.824219 190.726562 119.851562 L 185.851562 112.574219 L 187.5 107.476562 C 188.476562 104.699219 189.523438 101.699219 189.824219 100.875 C 190.199219 100.050781 190.800781 98.023438 191.175781 96.375 C 192.824219 89.625 193.726562 86.550781 194.324219 85.351562 C 194.699219 84.601562 195 83.625 195 83.101562 C 195 82.574219 195.898438 79.125 197.023438 75.523438 C 198.75 69.898438 198.824219 68.773438 197.925781 68.175781 C 197.324219 67.800781 196.726562 67.5 196.5 67.574219 C 196.273438 67.574219 190.726562 73.125 184.125 79.875 Z M 191.773438 80.773438 C 191.101562 81.976562 190.425781 84.148438 190.125 85.726562 C 189.824219 87.226562 189.300781 88.726562 188.925781 88.875 C 188.625 89.101562 188.101562 90.824219 187.800781 92.625 C 187.574219 94.5 187.050781 96.226562 186.675781 96.449219 C 186.300781 96.675781 186 97.425781 186 98.175781 C 186 98.925781 185.324219 101.851562 184.5 104.699219 C 183.601562 107.550781 182.550781 111.226562 182.101562 112.875 C 181.273438 116.175781 177.75 125.175781 175.351562 130.425781 C 173.023438 135.375 172.425781 132.898438 173.625 123 C 174.148438 118.273438 174.824219 109.875 175.050781 104.398438 L 175.574219 94.425781 L 181.425781 88.273438 C 184.726562 84.898438 188.324219 81 189.449219 79.726562 C 191.925781 76.875 193.425781 77.550781 191.773438 80.773438 Z M 476.25 84.976562 C 476.25 86.023438 481.125 98.101562 481.800781 98.773438 C 482.023438 99.074219 482.25 99.675781 482.25 100.199219 C 482.25 100.800781 483.449219 103.800781 484.875 106.875 C 487.875 113.25 488.023438 111.824219 483.375 121.875 C 482.398438 123.898438 480.976562 127.125 480.148438 129 C 479.25 130.875 477.898438 134.023438 477.148438 136.125 C 476.324219 138.148438 475.425781 139.800781 475.050781 139.648438 C 474.449219 139.5 474.074219 84.148438 474.675781 83.550781 C 475.199219 83.101562 476.25 84.074219 476.25 84.976562 Z M 249.976562 118.199219 C 250.351562 118.648438 247.273438 123.675781 244.875 126.449219 C 244.5 126.976562 242.101562 130.648438 239.625 134.699219 C 234.523438 142.949219 231.601562 146.25 229.199219 146.25 C 227.476562 146.25 218.550781 148.800781 214.574219 150.523438 C 209.925781 152.476562 210.226562 150.523438 215.699219 144.226562 C 219.976562 139.273438 224.625 135.300781 232.050781 130.351562 C 234.824219 128.398438 246.375 119.699219 247.351562 118.726562 C 248.476562 117.675781 249.226562 117.523438 249.976562 118.199219 Z M 190.050781 125.398438 C 191.550781 128.324219 193.800781 132 195 133.5 C 197.773438 137.023438 197.773438 138.226562 195.074219 143.699219 C 190.726562 152.699219 186 164.550781 186 166.574219 C 186 167.476562 185.476562 168 184.5 168 C 183.074219 168 182.925781 167.699219 183.375 163.648438 C 184.199219 155.101562 185.25 135.226562 185.25 127.726562 C 185.25 118.199219 186.226562 117.675781 190.050781 125.398438 Z M 446.101562 125.699219 C 448.875 126.449219 451.5 127.273438 452.023438 127.648438 C 452.476562 128.023438 453.074219 129.75 453.375 131.476562 C 453.601562 133.199219 454.199219 136.050781 454.648438 137.851562 C 455.101562 139.574219 455.324219 141.226562 455.101562 141.375 C 454.273438 142.199219 439.199219 126.375 439.800781 125.324219 C 440.476562 124.273438 440.101562 124.273438 446.101562 125.699219 Z M 181.648438 126.75 C 181.800781 127.125 181.648438 130.648438 181.351562 134.398438 C 181.125 138.226562 180.824219 146.851562 180.824219 153.601562 C 180.75 165.449219 180.675781 165.75 179.25 165 C 178.425781 164.550781 177.601562 163.050781 177.300781 161.398438 C 177.074219 159.898438 176.175781 156.226562 175.351562 153.375 C 172.949219 144.976562 172.949219 144.898438 176.175781 136.800781 C 177.898438 132.601562 179.25 128.699219 179.25 128.101562 C 179.25 126.226562 181.125 125.175781 181.648438 126.75 Z M 484.273438 135.148438 C 482.398438 143.398438 480.898438 151.351562 480.375 156.300781 C 479.398438 164.625 477.449219 166.875 476.625 160.648438 C 476.324219 158.699219 475.574219 155.550781 474.976562 153.675781 L 473.925781 150.226562 L 477.375 142.800781 C 481.800781 133.351562 482.773438 131.25 483.375 129.449219 C 483.675781 128.324219 484.050781 128.25 484.648438 128.851562 C 485.324219 129.523438 485.175781 131.101562 484.273438 135.148438 Z M 459.074219 135 C 459.824219 135.449219 460.5 136.273438 460.5 136.875 C 460.5 137.398438 460.726562 138 461.101562 138.148438 C 461.398438 138.226562 462.523438 139.726562 463.726562 141.449219 C 464.851562 143.101562 466.351562 145.125 467.101562 145.949219 C 469.5 148.574219 470.925781 151.273438 471.375 154.199219 C 471.976562 157.5 473.625 163.273438 475.199219 167.550781 C 476.851562 171.976562 475.5 172.574219 471.449219 169.199219 C 468.449219 166.800781 465.75 162.898438 465.75 161.101562 C 465.75 160.726562 465.074219 158.851562 464.175781 156.898438 C 459.75 146.773438 459.074219 144.898438 458.324219 140.625 C 457.949219 138.523438 457.425781 136.273438 457.125 135.523438 C 456.523438 134.023438 456.976562 133.949219 459.074219 135 Z M 214.875 138.75 C 215.324219 139.5 207.300781 149.324219 198.300781 158.925781 C 195 162.449219 191.625 166.273438 190.949219 167.398438 C 190.199219 168.601562 189.300781 169.5 188.925781 169.5 C 187.425781 169.5 188.476562 166.125 192.675781 157.726562 C 195.148438 152.851562 198 147 198.976562 144.75 C 200.023438 142.425781 201.300781 140.175781 201.898438 139.726562 C 202.425781 139.199219 204.976562 138.675781 207.375 138.523438 C 209.851562 138.375 212.476562 138.226562 213.148438 138.148438 C 213.824219 138.074219 214.574219 138.300781 214.875 138.75 Z M 288.601562 153 C 288.226562 155.699219 287.851562 165.148438 287.699219 174 C 287.550781 187.050781 287.324219 190.125 286.5 190.125 C 285.976562 190.125 285.226562 189.300781 284.925781 188.25 C 284.625 187.199219 283.648438 184.5 282.75 182.25 C 280.5 176.625 280.199219 174.75 281.25 171.300781 C 282.300781 167.851562 284.023438 160.726562 285 156 C 285.449219 154.125 286.050781 151.949219 286.425781 151.125 C 286.800781 150.300781 287.324219 148.949219 287.550781 148.199219 C 288.601562 145.125 289.273438 148.351562 288.601562 153 Z M 386.25 155.25 C 387.523438 163.648438 388.574219 168.300781 389.773438 171.523438 C 390.375 173.25 390.675781 175.273438 390.449219 175.949219 C 390 177.074219 389.699219 177 387.75 175.125 C 384.226562 171.75 383.476562 169.199219 383.324219 159.601562 C 383.25 154.726562 383.398438 150.375 383.625 149.925781 C 384.601562 148.5 385.425781 150.300781 386.25 155.25 Z M 203.476562 171.148438 C 203.699219 177.074219 203.550781 182.175781 203.25 182.550781 C 202.875 182.925781 201.226562 182.851562 199.351562 182.324219 C 197.550781 181.800781 193.800781 180.976562 190.875 180.523438 C 187.273438 179.925781 185.550781 179.25 185.398438 178.5 C 185.175781 177.300781 200.699219 160.726562 202.199219 160.574219 C 202.800781 160.5 203.175781 164.023438 203.476562 171.148438 Z M 472.648438 174.226562 L 476.25 177.375 L 472.800781 183 C 469.125 188.925781 462.601562 200.324219 460.425781 204.75 C 459.375 206.925781 459 207.148438 458.625 206.023438 C 458.023438 204.601562 458.175781 203.699219 460.5 196.125 C 462.375 189.898438 464.023438 183.449219 465.074219 177.824219 C 465.898438 173.175781 466.949219 171 468.226562 171 C 468.75 171 470.699219 172.425781 472.648438 174.226562 Z M 388.425781 180.226562 C 390.074219 182.25 391.5 184.273438 391.5 184.800781 C 391.5 185.851562 390.300781 189.976562 389.25 192.375 C 388.875 193.199219 388.425781 194.925781 388.125 196.125 C 387.898438 197.398438 387.074219 198.824219 386.25 199.351562 C 384.824219 200.25 384.75 200.023438 384.75 194.476562 C 384.75 191.25 384.375 186.148438 384 183.074219 C 382.949219 174.976562 383.550781 174.601562 388.425781 180.226562 Z M 460.5 181.800781 C 460.5 182.851562 460.125 184.574219 459.675781 185.773438 C 458.101562 189.824219 454.726562 203.625 453.824219 209.773438 C 453.523438 211.949219 453.074219 213.898438 452.773438 214.199219 C 451.875 215.175781 450.074219 212.851562 449.550781 210.074219 C 449.25 208.574219 448.574219 206.476562 448.050781 205.351562 C 446.699219 202.648438 446.699219 199.425781 448.125 197.625 C 450.300781 194.851562 457.574219 183.375 458.25 181.648438 C 459.148438 179.476562 460.5 179.550781 460.5 181.800781 Z M 381.824219 203.625 L 382.050781 211.199219 L 374.550781 222.300781 C 363.226562 239.25 360.148438 243.976562 359.324219 245.773438 C 358.875 246.75 358.199219 247.5 357.75 247.5 C 356.175781 247.5 356.925781 244.648438 361.125 234.375 C 361.648438 233.101562 363.148438 229.050781 364.5 225.375 C 365.851562 221.625 367.199219 217.949219 367.5 217.125 C 367.800781 216.300781 368.851562 213.449219 369.75 210.75 C 370.648438 208.050781 371.625 205.351562 372 204.75 C 372.300781 204.074219 372.824219 202.425781 373.125 201 C 373.425781 199.574219 373.949219 197.925781 374.324219 197.25 C 375.074219 195.898438 378 186.074219 378 185.023438 C 378 184.574219 378.601562 183.601562 379.351562 182.773438 C 380.550781 181.351562 380.625 181.648438 381.074219 188.699219 C 381.375 192.824219 381.675781 199.5 381.824219 203.625 Z M 190.574219 183.824219 C 191.398438 184.199219 194.851562 185.25 198.226562 186.148438 C 201.601562 186.976562 204.75 187.949219 205.199219 188.324219 C 205.574219 188.625 206.699219 190.351562 207.675781 192.148438 C 214.050781 204.226562 218.101562 211.425781 222.898438 219.449219 C 224.851562 222.824219 226.5 225.898438 226.5 226.351562 C 226.5 226.726562 227.023438 227.476562 227.625 228 C 228.976562 229.125 229.050781 230.25 227.773438 230.25 C 226.125 230.25 206.625 209.851562 200.550781 201.75 C 194.101562 193.125 192.976562 191.699219 188.851562 187.125 C 187.273438 185.398438 186.226562 183.75 186.523438 183.523438 C 187.199219 182.773438 188.925781 182.925781 190.574219 183.824219 Z M 282.601562 189.449219 C 282.75 190.199219 283.273438 191.851562 283.875 193.125 C 284.398438 194.324219 285.375 196.726562 285.976562 198.375 C 288.824219 206.023438 293.398438 216.898438 295.273438 220.648438 C 295.800781 221.699219 296.25 223.351562 296.25 224.175781 C 296.25 225.074219 296.625 225.75 297 225.75 C 297.449219 225.75 297.75 226.648438 297.75 227.699219 L 297.75 229.648438 L 296.101562 227.476562 C 295.125 226.351562 293.699219 224.023438 292.875 222.375 C 292.050781 220.726562 290.699219 218.175781 289.800781 216.75 C 288.976562 215.324219 286.5 210.75 284.324219 206.699219 C 281.25 200.851562 280.351562 198.300781 279.976562 194.550781 C 279.75 192 279.75 189.300781 280.050781 188.625 C 280.648438 187.050781 282.300781 187.574219 282.601562 189.449219 Z M 220.050781 203.398438 C 225.523438 209.925781 231.675781 216.75 243.976562 229.726562 C 251.773438 237.898438 258 244.800781 257.773438 245.023438 C 257.550781 245.175781 256.273438 245.023438 254.851562 244.574219 C 249.074219 242.773438 244.648438 241.648438 241.875 241.125 C 238.5 240.601562 238.425781 240.523438 231.375 227.625 C 229.800781 224.699219 227.699219 221.023438 226.800781 219.375 C 225.824219 217.726562 224.398438 215.023438 223.5 213.375 C 222.601562 211.726562 220.875 208.949219 219.675781 207.148438 C 216.601562 202.574219 216.898438 199.574219 220.050781 203.398438 Z M 445.5 209.023438 C 446.476562 211.875 447.675781 214.875 448.273438 215.773438 C 448.875 216.675781 449.25 218.175781 449.101562 219.148438 C 448.875 220.574219 448.050781 221.023438 443.25 222.148438 C 440.175781 222.898438 435.75 224.023438 433.5 224.550781 C 431.25 225.148438 426.675781 226.199219 423.375 226.875 C 417.074219 228.226562 411.449219 229.648438 405.675781 231.449219 C 401.851562 232.574219 399.523438 232.800781 398.773438 231.976562 C 398.476562 231.75 402.75 228.824219 408.226562 225.523438 C 417.976562 219.675781 432.523438 210.375 438.375 206.175781 C 442.875 203.023438 443.550781 203.25 445.5 209.023438 Z M 289.726562 222.601562 C 291.300781 225.75 293.25 229.351562 294 230.625 C 294.75 231.824219 296.175781 234.375 297.148438 236.25 C 298.050781 238.125 299.851562 241.273438 301.050781 243.375 C 304.648438 249.601562 309 257.773438 309 258.300781 C 309 259.351562 307.273438 258.601562 302.476562 255.449219 C 299.625 253.574219 296.625 251.550781 295.726562 250.875 C 294.148438 249.75 293.476562 248.023438 290.625 237.375 C 288.375 229.050781 287.101562 224.625 286.050781 222.148438 C 285.449219 220.800781 285 219 285 218.25 C 285 215.175781 286.949219 216.976562 289.726562 222.601562 Z M 259.5 233.398438 C 263.398438 235.351562 269.023438 238.050781 272.023438 239.550781 C 275.023438 240.976562 278.398438 243 279.523438 244.050781 C 280.648438 245.101562 281.851562 246 282.074219 246 C 282.300781 246 283.199219 246.601562 284.101562 247.273438 C 291.300781 253.273438 297 257.023438 304.050781 260.25 C 307.425781 261.824219 309.75 263.324219 309.75 264 C 309.75 264.675781 308.023438 265.949219 305.851562 267 C 303.675781 267.976562 300.898438 269.550781 299.625 270.449219 C 295.875 273.148438 295.648438 273.148438 293.101562 270.601562 C 290.476562 268.050781 283.199219 261.824219 273 253.351562 C 263.851562 245.773438 248.023438 229.351562 249.148438 228.675781 C 249.675781 228.300781 250.574219 228.523438 251.25 228.976562 C 251.851562 229.5 255.601562 231.523438 259.5 233.398438 Z M 375.898438 230.023438 C 374.925781 231.75 372.976562 236.851562 372.375 239.101562 C 372.074219 240.074219 371.175781 242.476562 370.273438 244.351562 C 369.375 246.300781 368.175781 249.375 367.5 251.25 C 366.523438 254.25 365.851562 254.851562 361.5 257.023438 C 356.699219 259.425781 354 260.101562 354 258.824219 C 354 258.523438 355.199219 256.574219 356.699219 254.625 C 360.375 249.898438 373.5 230.101562 373.5 229.425781 C 373.5 228.898438 375.824219 228.074219 376.351562 228.449219 C 376.5 228.523438 376.273438 229.199219 375.898438 230.023438 Z M 422.773438 230.851562 C 423.675781 231.449219 420.226562 233.175781 408 238.351562 C 406.574219 238.949219 404.476562 239.925781 403.351562 240.523438 C 402.300781 241.050781 400.875 241.5 400.273438 241.5 C 399.675781 241.5 398.175781 242.023438 397.050781 242.625 C 395.851562 243.226562 394.273438 243.75 393.601562 243.75 C 392.925781 243.75 392.175781 244.050781 391.875 244.425781 C 391.648438 244.800781 390.375 245.398438 389.101562 245.699219 C 387.75 245.925781 386.175781 246.449219 385.5 246.824219 C 384.898438 247.199219 382.726562 248.175781 380.625 249 C 378.601562 249.824219 375.898438 251.101562 374.773438 251.699219 C 373.648438 252.375 372.148438 252.675781 371.550781 252.449219 C 370.574219 252.074219 370.574219 251.699219 371.699219 249.601562 C 372.375 248.25 373.199219 246.675781 373.5 246.074219 C 374.25 244.351562 392.398438 237 395.851562 237 C 396.601562 237 398.699219 236.550781 400.574219 235.949219 C 402.375 235.425781 406.574219 234.375 409.875 233.625 C 413.175781 232.949219 416.925781 231.898438 418.125 231.375 C 420.824219 230.175781 421.574219 230.101562 422.773438 230.851562 Z M 401.25 244.875 C 401.25 245.625 398.699219 247.949219 393.75 251.625 C 387.523438 256.351562 370.800781 269.851562 367.949219 272.476562 C 366.75 273.601562 365.550781 274.5 365.25 274.5 C 365.023438 274.5 363.601562 273.449219 362.25 272.25 C 360.824219 270.976562 358.050781 268.875 356.101562 267.675781 C 354.074219 266.398438 352.5 265.050781 352.5 264.75 C 352.5 264.226562 354.449219 263.398438 361.875 260.773438 C 363.148438 260.398438 365.476562 259.425781 367.125 258.675781 C 374.398438 255.449219 375.675781 255 376.425781 255 C 376.875 255 377.851562 254.699219 378.601562 254.25 C 379.273438 253.875 381.074219 253.050781 382.5 252.449219 C 388.273438 250.050781 392.773438 248.023438 396.375 246.300781 C 400.273438 244.5 401.25 244.199219 401.25 244.875 Z M 443.773438 257.773438 C 442.425781 262.351562 438.449219 272.773438 437.851562 273.601562 C 437.398438 274.125 432.75 276.675781 427.5 279.300781 C 416.625 284.773438 417.523438 284.25 407.851562 289.875 C 403.800781 292.199219 400.351562 294.375 400.125 294.75 C 399.449219 295.800781 397.5 295.648438 397.5 294.675781 C 397.5 293.925781 402 287.851562 403.5 286.5 C 403.726562 286.273438 405.675781 283.875 407.851562 281.101562 C 410.550781 277.726562 413.398438 275.175781 416.476562 273.300781 C 421.648438 270.226562 431.398438 263.851562 432 263.25 C 432.226562 263.023438 434.25 261.601562 436.5 260.175781 C 442.425781 256.273438 444.449219 255.675781 443.773438 257.773438 Z M 222.824219 261.148438 C 234.148438 268.425781 237.75 270.675781 243.75 274.351562 C 248.699219 277.273438 251.476562 279.675781 256.125 285 C 259.425781 288.75 263.023438 292.875 264.148438 294.148438 C 265.273438 295.425781 266.023438 296.773438 265.800781 297.148438 C 265.351562 297.824219 264.824219 297.601562 261.375 295.199219 C 260.175781 294.300781 258.601562 293.25 257.851562 292.875 C 242.699219 284.175781 233.25 278.925781 225.675781 275.175781 C 223.050781 273.898438 220.5 270.898438 220.5 269.25 C 220.5 268.800781 219.824219 267 219.074219 265.273438 C 217.199219 261.148438 216.375 258 217.273438 258 C 217.648438 258 220.125 259.425781 222.824219 261.148438 Z M 429.75 260.175781 C 429.75 260.773438 417.523438 268.5 416.625 268.5 C 416.476562 268.5 414.375 269.851562 411.976562 271.425781 C 408.824219 273.523438 406.199219 276.300781 402.375 281.550781 C 391.273438 296.925781 387.601562 301.875 387.074219 302.25 C 386.773438 302.476562 385.875 303.75 385.125 305.101562 C 383.398438 308.023438 382.273438 307.875 381.601562 304.425781 C 381.300781 303 380.550781 299.476562 379.875 296.625 C 377.398438 285.824219 376.351562 287.851562 389.550781 277.949219 C 396 273.148438 401.476562 269.25 401.699219 269.25 C 401.925781 269.25 403.199219 268.800781 404.476562 268.199219 C 405.824219 267.675781 409.050781 266.398438 411.75 265.5 C 414.449219 264.601562 417.675781 263.324219 419.023438 262.800781 C 420.300781 262.199219 421.949219 261.75 422.773438 261.75 C 423.523438 261.75 424.800781 261.226562 425.550781 260.625 C 427.199219 259.351562 429.75 259.125 429.75 260.175781 Z M 235.5 262.875 C 236.023438 263.476562 237.148438 264 238.050781 264 C 238.949219 264 240.375 264.523438 241.199219 265.125 C 241.949219 265.726562 243.148438 266.25 243.75 266.25 C 244.351562 266.25 245.851562 266.773438 247.050781 267.375 C 248.175781 267.976562 249.523438 268.5 250.050781 268.5 C 250.5 268.5 251.773438 268.949219 252.824219 269.550781 C 253.875 270.074219 255.675781 270.75 256.875 271.050781 C 258.75 271.5 264.074219 274.800781 266.699219 277.125 C 267.148438 277.5 268.199219 278.324219 268.949219 278.851562 C 271.199219 280.351562 280.800781 287.101562 281.625 287.773438 C 282.074219 288.148438 283.273438 288.976562 284.476562 289.726562 C 286.574219 291.074219 286.949219 292.726562 285.824219 295.648438 C 285.449219 296.625 284.550781 300 283.800781 303.226562 C 283.125 306.449219 282.300781 309.226562 282 309.375 C 281.476562 309.75 275.175781 302.550781 268.273438 293.773438 C 266.25 291.226562 263.925781 288.300781 263.023438 287.25 C 262.125 286.199219 260.023438 283.726562 258.375 281.625 C 256.726562 279.601562 254.773438 277.351562 254.023438 276.523438 C 252.898438 275.398438 244.199219 269.925781 240.75 268.273438 C 240.148438 267.976562 238.949219 267.300781 238.125 266.773438 C 232.125 263.023438 231.675781 262.648438 232.648438 262.273438 C 234.226562 261.601562 234.523438 261.675781 235.5 262.875 Z M 344.101562 266.625 C 344.851562 266.925781 344.550781 267.75 342.898438 269.851562 C 341.699219 271.351562 339.074219 275.25 337.125 278.398438 C 335.25 281.625 333.300781 284.25 332.925781 284.25 C 332.625 284.25 331.648438 283.351562 330.976562 282.226562 C 329.476562 279.898438 329.101562 279.375 322.875 271.949219 C 320.398438 269.023438 318.898438 266.625 319.351562 266.324219 C 320.175781 265.800781 342.523438 266.101562 344.101562 266.625 Z M 315.75 268.425781 C 315.75 269.175781 324.449219 280.648438 328.050781 284.625 C 331.199219 288.148438 331.125 288.75 326.699219 294.675781 C 323.324219 299.101562 319.351562 305.476562 318.523438 307.648438 C 317.851562 309.601562 315.226562 309.300781 314.550781 307.273438 C 313.949219 305.324219 310.949219 299.101562 307.726562 293.25 C 306.449219 291 304.800781 287.925781 304.050781 286.5 C 303.226562 285.074219 302.175781 283.5 301.726562 282.898438 C 301.199219 282.375 300.75 281.476562 300.75 280.949219 C 300.75 280.351562 300.226562 279.523438 299.625 279 C 297.523438 277.273438 298.351562 275.324219 302.101562 273.449219 C 304.050781 272.398438 307.351562 270.449219 309.375 269.023438 C 312.148438 267.148438 313.5 266.699219 314.476562 267.148438 C 315.148438 267.523438 315.75 268.050781 315.75 268.425781 Z M 353.851562 270.226562 C 355.800781 271.949219 358.648438 274.351562 360.226562 275.476562 C 362.925781 277.5 363.675781 279.449219 362.324219 280.875 C 362.023438 281.324219 360.976562 284.175781 360 287.25 C 359.101562 290.324219 358.050781 293.476562 357.675781 294.148438 C 357.300781 294.824219 356.773438 296.773438 356.550781 298.5 C 356.25 300.148438 355.726562 301.726562 355.425781 301.949219 C 355.050781 302.175781 354.75 303.300781 354.75 304.5 C 354.75 309.824219 352.648438 310.425781 349.726562 305.851562 C 347.476562 302.398438 347.550781 302.476562 340.574219 294.074219 C 338.023438 291.074219 336 288.226562 336 287.773438 C 336 287.023438 339.523438 281.398438 340.574219 280.5 C 340.800781 280.273438 342.75 277.199219 344.925781 273.523438 C 347.101562 269.925781 349.199219 267 349.574219 267 C 349.949219 267 351.898438 268.425781 353.851562 270.226562 Z M 229.726562 281.550781 C 233.773438 284.175781 243.523438 289.425781 255.226562 295.273438 C 261.375 298.425781 262.800781 300 259.425781 300 C 258.601562 300 257.25 299.625 256.425781 299.175781 C 254.925781 298.425781 246.824219 296.773438 237.375 295.425781 C 234.523438 295.050781 231.449219 294.226562 230.625 293.699219 C 229.800781 293.175781 228.523438 290.925781 227.699219 288.675781 C 226.949219 286.425781 225.824219 283.875 225.226562 282.898438 C 224.25 281.324219 224.324219 279 225.300781 279 C 225.523438 279 227.550781 280.125 229.726562 281.550781 Z M 436.5 280.425781 C 436.5 280.726562 435.824219 282.675781 435 284.699219 C 434.25 286.726562 433.199219 289.800781 432.75 291.523438 C 432.148438 293.925781 431.476562 294.824219 430.273438 295.050781 C 426.074219 295.949219 413.773438 297.148438 408.226562 297.226562 C 402.074219 297.375 399.824219 296.476562 403.648438 295.425781 C 404.699219 295.125 409.949219 292.726562 415.273438 290.101562 C 430.199219 282.523438 432.675781 281.25 433.125 280.5 C 433.726562 279.601562 436.5 279.523438 436.5 280.425781 Z M 301.949219 291.449219 C 304.875 297.148438 308.476562 303.824219 309.976562 306.300781 C 311.398438 308.699219 312.449219 311.101562 312.300781 311.550781 C 312.074219 312.074219 307.875 312.375 298.875 312.375 C 285 312.375 284.101562 312.148438 285.824219 308.851562 C 286.949219 306.75 289.273438 299.398438 289.949219 295.949219 C 290.25 294.375 291.148438 291.300781 291.898438 289.199219 C 292.726562 287.101562 293.550781 284.699219 293.773438 283.875 C 294.523438 280.800781 294.75 280.351562 295.648438 280.648438 C 296.175781 280.875 298.949219 285.675781 301.949219 291.449219 Z M 370.875 284.476562 C 373.425781 287.175781 374.175781 288.601562 374.851562 292.199219 C 376.199219 299.625 377.324219 303.976562 378.523438 306.601562 C 380.398438 310.800781 379.726562 311.25 371.398438 311.25 C 367.273438 311.25 362.398438 311.476562 360.449219 311.699219 C 357.148438 312.148438 357 312.074219 357 310.425781 C 357 309.449219 357.449219 307.726562 358.050781 306.675781 C 358.574219 305.550781 359.851562 302.175781 360.75 299.175781 C 361.648438 296.101562 362.851562 292.199219 363.449219 290.398438 C 364.050781 288.675781 364.5 286.726562 364.5 286.125 C 364.5 284.476562 366.148438 281.25 366.976562 281.25 C 367.425781 281.25 369.148438 282.75 370.875 284.476562 Z M 338.023438 297.226562 C 341.925781 302.550781 344.175781 305.398438 349.574219 311.699219 L 352.273438 314.851562 L 351.300781 321.449219 C 350.324219 328.273438 348.898438 347.023438 348.074219 363.675781 L 347.625 373.050781 L 336.523438 373.050781 C 330.375 373.125 324.976562 372.898438 324.523438 372.601562 C 324 372.300781 323.476562 368.25 323.175781 362.476562 C 322.574219 350.851562 321.300781 336.523438 320.324219 330.375 C 318.75 320.476562 318.449219 313.574219 319.648438 312.148438 C 321.300781 310.351562 326.851562 302.023438 330.300781 296.398438 C 331.800781 293.851562 333.300781 291.75 333.601562 291.75 C 333.898438 291.824219 335.925781 294.226562 338.023438 297.226562 Z M 251.324219 301.5 C 252.074219 301.949219 253.648438 302.25 254.925781 302.25 C 256.800781 302.25 262.574219 303.148438 271.199219 304.875 C 272.851562 305.25 278.25 310.125 278.25 311.25 C 278.25 312.523438 277.125 312.601562 267.375 312.074219 L 257.625 311.550781 L 250.125 307.050781 C 246 304.574219 242.023438 302.324219 241.351562 302.023438 C 240.601562 301.800781 240 301.125 240 300.675781 C 240 299.625 249.074219 300.375 251.324219 301.5 Z M 422.25 300.601562 C 422.25 300.976562 418.726562 303 414.449219 305.101562 C 407.25 308.699219 406.125 309 401.324219 309 C 398.476562 309 395.324219 309.300781 394.351562 309.675781 C 393.375 310.050781 391.199219 310.5 389.625 310.574219 C 385.648438 310.949219 385.425781 309.449219 389.023438 305.550781 C 391.875 302.476562 391.949219 302.398438 398.25 301.949219 C 401.773438 301.648438 407.023438 301.199219 409.875 300.824219 C 417.300781 300 422.25 299.925781 422.25 300.601562 Z M 379.050781 315.449219 C 379.273438 316.125 379.050781 318.375 378.449219 320.550781 C 377.175781 324.976562 374.25 340.726562 374.25 343.5 C 374.175781 346.648438 372 349.648438 363.300781 358.800781 C 352.425781 370.199219 351.148438 370.425781 356.175781 359.773438 C 357.75 356.398438 359.851562 351.601562 360.824219 349.125 C 361.800781 346.648438 362.851562 344.324219 363.148438 343.875 C 363.449219 343.5 363.75 342.675781 363.75 342 C 363.824219 341.398438 364.425781 339.523438 365.25 337.875 C 366.074219 336.226562 366.675781 334.5 366.75 334.050781 C 366.75 333.523438 367.273438 332.175781 367.875 331.050781 C 368.476562 329.851562 369 328.351562 369 327.675781 C 369 327 369.226562 326.324219 369.449219 326.023438 C 369.75 325.800781 370.726562 323.324219 371.699219 320.550781 C 372.675781 317.773438 373.875 315.226562 374.398438 314.851562 C 376.050781 313.875 378.523438 314.175781 379.050781 315.449219 Z M 367.800781 315.449219 C 369.375 316.050781 369.300781 316.5 367.199219 321.148438 C 366.226562 323.324219 364.875 326.773438 364.125 328.875 C 363.375 330.898438 362.324219 333.675781 361.800781 335.023438 C 361.199219 336.300781 360.75 337.800781 360.75 338.398438 C 360.75 339 360.449219 339.75 360.148438 340.125 C 359.773438 340.574219 358.726562 343.425781 357.75 346.5 C 356.851562 349.574219 355.800781 352.425781 355.425781 352.875 C 355.125 353.25 354.75 354.601562 354.601562 355.800781 C 354.523438 357 353.925781 358.199219 353.324219 358.351562 C 352.425781 358.648438 352.351562 357.300781 352.800781 350.175781 C 353.101562 345.449219 353.625 340.273438 354 338.625 C 354.523438 336.375 355.425781 322.351562 355.5 316.351562 C 355.5 316.050781 357.976562 315.675781 360.976562 315.523438 C 363.898438 315.449219 366.449219 315.226562 366.523438 315.148438 C 366.601562 315.074219 367.125 315.226562 367.800781 315.449219 Z M 297.300781 316.949219 C 297.976562 317.550781 298.5 318.675781 298.5 319.425781 C 298.5 320.101562 298.800781 321 299.101562 321.375 C 299.476562 321.824219 300.375 323.773438 301.125 325.875 C 301.800781 327.898438 302.851562 330.601562 303.375 331.875 C 303.898438 333.074219 305.023438 336 305.925781 338.25 C 306.824219 340.5 307.875 343.050781 308.25 343.875 C 308.625 344.699219 309.601562 347.023438 310.5 349.125 C 312.75 354.375 314.476562 357.898438 315.449219 359.25 C 316.800781 361.050781 317.324219 364.351562 316.425781 364.949219 C 315.976562 365.175781 314.550781 364.125 313.273438 362.550781 C 311.925781 360.898438 306.75 355.273438 301.726562 350.023438 C 295.273438 343.273438 292.425781 339.75 292.125 338.023438 C 291.601562 335.324219 291.074219 333.601562 288.449219 325.351562 C 287.398438 322.125 286.199219 318.898438 285.824219 318.074219 C 284.699219 316.050781 285.449219 315.75 291.074219 315.75 C 294.675781 315.75 296.476562 316.125 297.300781 316.949219 Z M 314.550781 316.425781 C 314.773438 316.800781 315.375 321.449219 315.75 326.699219 C 316.199219 332.023438 316.875 337.726562 317.25 339.375 C 318.449219 344.773438 319.050781 357.75 318.074219 357.75 C 317.625 357.75 317.101562 357.300781 316.949219 356.773438 C 316.199219 353.925781 313.949219 347.324219 313.050781 345.226562 C 312.449219 343.949219 312 342.449219 312 341.851562 C 312 341.25 311.699219 340.5 311.398438 340.050781 C 311.023438 339.675781 310.125 337.648438 309.375 335.625 C 308.625 333.523438 307.425781 330.375 306.601562 328.5 C 305.773438 326.625 304.648438 323.925781 304.050781 322.5 C 303.449219 321.074219 302.625 319.273438 302.175781 318.523438 C 301.800781 317.773438 301.648438 316.875 301.875 316.5 C 302.476562 315.523438 314.023438 315.523438 314.550781 316.425781 Z M 295.875 353.398438 C 296.398438 355.199219 297.976562 358.875 299.773438 362.398438 C 300.375 363.675781 300.75 367.199219 300.75 372.75 C 300.75 377.398438 301.050781 383.25 301.5 385.800781 C 301.875 388.273438 302.550781 396.976562 303 405 C 303.375 413.023438 304.050781 420.824219 304.425781 422.324219 C 304.800781 423.898438 304.800781 425.476562 304.5 426 C 303.75 427.199219 301.726562 423.824219 301.125 420.300781 C 300.601562 417 298.875 409.425781 297.375 403.875 C 296.851562 401.773438 296.023438 394.726562 295.5 388.125 C 295.050781 381.523438 294.375 371.398438 294 365.625 C 293.625 359.851562 293.023438 354.375 292.800781 353.398438 C 292.425781 352.050781 292.648438 351.75 293.851562 351.75 C 294.824219 351.75 295.574219 352.425781 295.875 353.398438 Z M 304.425781 357.375 C 305.476562 358.574219 309.675781 363 313.648438 367.125 L 321 374.625 L 321 384.523438 C 321 390.226562 320.699219 394.574219 320.25 394.875 C 319.875 395.101562 318.976562 393.898438 318.226562 392.101562 C 317.550781 390.300781 314.625 384.300781 311.773438 378.75 C 308.925781 373.199219 304.949219 365.398438 302.925781 361.5 C 298.800781 353.550781 298.273438 351.449219 300.898438 353.699219 C 301.800781 354.449219 303.375 356.101562 304.425781 357.375 Z M 375.226562 359.773438 C 377.550781 377.851562 380.023438 394.5 380.476562 394.949219 C 380.699219 395.175781 380.175781 397.125 379.351562 399.226562 C 378.523438 401.398438 377.550781 404.175781 377.175781 405.523438 C 376.800781 406.875 376.125 408.148438 375.75 408.375 C 375.300781 408.675781 375 409.425781 375 410.101562 C 375 410.773438 374.550781 412.273438 373.949219 413.398438 C 373.351562 414.523438 372.675781 416.398438 372.375 417.675781 C 372.074219 418.949219 371.550781 420.148438 371.175781 420.375 C 370.800781 420.675781 370.5 421.351562 370.5 422.023438 C 370.5 422.625 370.050781 424.199219 369.449219 425.476562 C 368.851562 426.824219 368.175781 428.773438 367.949219 429.898438 C 367.648438 431.101562 366.976562 432 366.300781 432 C 365.324219 432 365.25 431.175781 365.625 426.898438 C 366.75 413.625 367.726562 397.875 368.25 382.875 C 368.625 370.050781 369.074219 365.773438 369.976562 363.523438 C 370.726562 362.023438 371.773438 359.550781 372.375 358.050781 C 373.726562 354.675781 374.699219 355.199219 375.226562 359.773438 Z M 368.25 359.925781 C 368.25 360.523438 356.625 384.523438 353.324219 390.75 C 352.5 392.175781 351.601562 393.375 351.300781 393.375 C 351 393.375 350.625 389.550781 350.550781 384.824219 L 350.324219 376.273438 L 358.726562 367.800781 C 366.675781 359.625 368.25 358.351562 368.25 359.925781 Z M 307.125 376.648438 C 307.574219 378.226562 315.375 394.199219 319.050781 401.175781 C 319.875 402.675781 320.773438 405.375 321.074219 407.25 C 321.75 411.074219 322.949219 416.324219 327.449219 435.375 C 329.25 442.875 332.023438 454.125 334.050781 462 C 336.898438 473.023438 337.351562 474.601562 338.175781 476.101562 C 339.148438 477.898438 339.300781 482.25 338.398438 482.25 C 338.101562 482.25 336.675781 480.824219 335.25 479.101562 C 333.824219 477.375 327.375 470.550781 320.925781 464.023438 L 309.226562 452.101562 L 308.773438 444.523438 C 308.476562 440.324219 308.101562 431.324219 307.875 424.5 C 307.648438 417.675781 307.125 408.074219 306.75 403.125 C 305.023438 382.648438 304.648438 376.125 304.949219 375.601562 C 305.625 374.476562 306.675781 375 307.125 376.648438 Z M 345.148438 376.949219 C 345.75 377.476562 337.5 385.5 336.300781 385.5 C 335.324219 385.5 327.75 378.148438 327.75 377.175781 C 327.75 376.425781 344.476562 376.199219 345.148438 376.949219 Z M 364.949219 380.023438 C 364.125 384.75 362.25 412.648438 361.574219 430.199219 C 361.199219 439.425781 360.601562 447.375 360.148438 448.199219 C 359.699219 448.949219 358.574219 451.273438 357.75 453.375 C 356.851562 455.398438 355.875 457.800781 355.5 458.625 C 354.226562 461.398438 348.449219 476.398438 347.699219 478.648438 C 346.949219 481.050781 345.75 480.074219 345.75 477.148438 C 345.75 475.648438 346.125 472.199219 346.574219 469.5 C 347.25 465.148438 348 456.675781 350.25 426.75 C 350.625 422.023438 350.925781 415.050781 350.925781 411.375 C 351 407.625 351.449219 403.425781 352.050781 402 C 353.175781 399 355.199219 394.648438 356.25 393 C 357.300781 391.351562 361.5 381.898438 361.5 381.226562 C 361.5 380.175781 363.824219 377.25 364.648438 377.25 C 365.175781 377.25 365.25 378.226562 364.949219 380.023438 Z M 329.851562 384.375 C 332.023438 386.625 333.75 388.726562 333.75 389.023438 C 333.75 390.074219 324.226562 399.148438 323.773438 398.550781 C 323.023438 397.199219 324.226562 380.25 325.050781 380.25 C 325.574219 380.25 327.675781 382.125 329.851562 384.375 Z M 347.851562 389.476562 C 348 395.625 347.851562 397.5 347.101562 397.5 C 346.199219 397.5 339 389.851562 339 388.949219 C 339 387.976562 346.125 381 346.800781 381.226562 C 347.324219 381.375 347.699219 384.601562 347.851562 389.476562 Z M 341.550781 396.449219 C 343.574219 398.699219 345.074219 400.648438 344.925781 400.800781 C 344.175781 401.550781 328.199219 401.550781 327.976562 400.800781 C 327.523438 399.523438 334.648438 392.476562 336.375 392.398438 C 337.273438 392.398438 339.375 394.050781 341.550781 396.449219 Z M 294.601562 407.25 C 295.050781 408.675781 295.648438 411.375 295.875 413.25 C 296.175781 415.125 296.699219 416.925781 297 417.375 C 297.300781 417.75 297.824219 419.773438 298.125 421.875 C 298.425781 423.898438 298.875 425.925781 299.25 426.375 C 299.550781 426.75 300.148438 428.625 300.601562 430.5 C 301.050781 432.375 302.101562 436.351562 303 439.425781 C 303.824219 442.425781 304.425781 445.125 304.199219 445.273438 C 303.75 445.726562 300.75 444.074219 300.75 443.398438 C 300.75 443.023438 298.199219 439.648438 295.125 435.75 L 289.5 428.699219 L 289.5 417.898438 C 289.5 408.074219 289.648438 406.800781 291.148438 404.398438 C 292.949219 401.476562 292.875 401.398438 294.601562 407.25 Z M 347.476562 406.050781 C 347.625 406.5 347.324219 409.875 346.800781 413.625 C 345.675781 421.949219 344.101562 445.050781 343.574219 463.351562 C 342.976562 482.625 342.074219 481.949219 337.5 458.625 C 336.976562 456.148438 336.449219 453.601562 336.148438 453 C 335.925781 452.398438 335.324219 449.851562 334.800781 447.375 C 333.75 442.199219 332.175781 435.300781 330.375 428.25 C 329.699219 425.550781 328.875 421.875 328.5 420 C 328.050781 418.125 327.074219 414.300781 326.175781 411.523438 C 325.050781 408 324.75 406.199219 325.351562 405.898438 C 326.773438 405 347.175781 405.148438 347.476562 406.050781 Z M 380.324219 420.601562 C 379.875 426.300781 379.5 436.648438 379.425781 443.699219 C 379.425781 450.675781 379.125 459.074219 378.75 462.375 C 378.375 465.675781 377.550781 477.148438 376.875 487.875 C 375.226562 515.175781 375.148438 516.824219 374.773438 517.199219 C 374.625 517.351562 369.824219 512.851562 364.050781 507.148438 C 358.351562 501.523438 351.824219 495.300781 349.574219 493.425781 L 345.449219 490.050781 L 349.648438 481.425781 C 354.148438 472.125 356.023438 468.148438 358.5 462.375 C 359.324219 460.273438 360.375 457.949219 360.75 457.125 C 363.226562 451.574219 364.5 448.425781 365.550781 445.125 C 366.75 441.523438 367.125 440.476562 369.375 435.375 C 371.175781 431.324219 375.601562 419.699219 376.949219 415.5 C 378.300781 411.226562 380.398438 408 380.851562 409.425781 C 381 409.875 380.773438 414.898438 380.324219 420.601562 Z M 290.625 436.273438 C 292.273438 438.300781 295.648438 441.976562 298.273438 444.601562 C 300.898438 447.226562 303 449.699219 303 450.074219 C 303 451.050781 299.476562 450.898438 297.523438 449.851562 C 295.574219 448.800781 285.226562 446.773438 268.574219 444.148438 C 266.773438 443.851562 265.199219 443.324219 265.199219 443.023438 C 265.125 442.648438 267.976562 441.148438 271.5 439.648438 C 275.023438 438.074219 279.601562 435.976562 281.625 434.851562 C 283.726562 433.800781 285.898438 432.824219 286.574219 432.824219 C 287.25 432.75 289.050781 434.324219 290.625 436.273438 Z M 264.75 447.074219 C 267.824219 448.050781 275.773438 449.699219 282.75 450.75 C 285.449219 451.199219 289.050781 451.875 290.851562 452.25 C 292.574219 452.699219 295.949219 453 298.351562 453 C 300.75 453 303 453.226562 303.226562 453.449219 C 304.125 454.351562 302.25 456.601562 299.101562 458.476562 C 297.300781 459.523438 295.199219 461.023438 294.375 461.773438 C 293.550781 462.523438 290.550781 465 287.625 467.25 C 284.773438 469.5 282.226562 471.523438 282 471.75 C 281.773438 471.976562 279.976562 473.550781 277.875 475.125 C 274.5 477.898438 271.125 480.675781 268.949219 482.625 C 268.5 483 266.398438 484.726562 264.375 486.375 C 256.199219 492.898438 245.25 502.351562 244.050781 503.925781 C 243.601562 504.523438 242.851562 504.75 242.398438 504.449219 C 241.574219 504 242.550781 499.125 243.75 497.625 C 244.125 497.175781 244.574219 495.523438 244.949219 493.949219 C 245.25 492.300781 245.925781 490.125 246.449219 489.074219 C 247.050781 488.023438 247.5 486.375 247.5 485.476562 C 247.5 484.574219 247.800781 483.675781 248.175781 483.449219 C 248.550781 483.148438 249.074219 481.574219 249.375 479.851562 C 249.675781 478.125 250.199219 476.175781 250.574219 475.5 C 250.875 474.898438 251.851562 471.824219 252.75 468.75 C 253.648438 465.675781 254.699219 462.601562 255 461.925781 C 255.375 461.25 255.824219 459.148438 256.125 457.199219 C 256.425781 455.324219 256.949219 453.523438 257.324219 453.300781 C 257.699219 453.074219 258 452.25 258 451.5 C 258 448.949219 259.425781 446.25 260.773438 446.25 C 261.523438 446.25 263.324219 446.625 264.75 447.074219 Z M 314.175781 462.375 C 316.050781 464.699219 322.949219 471.824219 329.550781 478.273438 C 341.023438 489.523438 341.550781 490.199219 341.476562 492.898438 C 341.398438 494.398438 340.875 496.574219 340.273438 497.773438 C 339.675781 498.898438 338.925781 501.074219 338.625 502.5 C 338.324219 503.925781 337.800781 505.425781 337.5 505.875 C 337.199219 506.25 336.675781 508.125 336.375 510 C 336.074219 511.875 335.550781 513.675781 335.25 514.125 C 334.949219 514.5 334.351562 516.375 333.898438 518.25 C 333.148438 521.398438 332.550781 523.726562 329.476562 534.75 C 328.875 537 327.898438 540.75 327.226562 543 C 326.625 545.25 325.648438 549 324.976562 551.25 C 323.773438 555.675781 322.425781 560.699219 320.550781 567.523438 C 319.949219 569.925781 318.976562 573.75 318.375 576 C 316.351562 583.949219 315.523438 586.875 314.925781 588.375 C 314.625 589.199219 314.101562 591.375 313.800781 593.25 C 312.898438 599.699219 311.023438 600.898438 308.625 596.851562 C 307.875 595.5 306.898438 594 306.601562 593.625 C 306.226562 593.175781 304.125 590.550781 301.800781 587.699219 L 297.601562 582.449219 L 298.125 577.726562 C 298.425781 575.101562 298.875 569.476562 299.25 565.273438 C 300.976562 544.726562 301.648438 537.75 302.324219 533.25 C 302.773438 530.550781 303.449219 523.949219 303.824219 518.625 C 304.199219 513.226562 305.023438 503.625 305.625 497.25 C 307.574219 476.925781 308.175781 467.699219 307.726562 464.851562 C 307.199219 461.101562 307.949219 458.25 309.601562 458.25 C 310.273438 458.25 312.375 460.125 314.175781 462.375 Z M 303.300781 460.351562 C 303.523438 460.648438 303.148438 461.773438 302.625 462.824219 C 302.023438 463.800781 301.351562 465.148438 301.050781 465.75 C 300.824219 466.351562 299.625 468.898438 298.5 471.375 C 296.25 476.101562 294.449219 480.375 292.199219 486 C 290.175781 490.949219 287.175781 498.148438 285.75 501.375 C 282.898438 507.675781 282 510 282 510.75 C 282 511.125 281.699219 512.101562 281.25 512.851562 C 280.273438 514.648438 278.625 518.625 276.75 523.5 C 275.925781 525.75 274.875 528.300781 274.5 529.125 C 273 532.5 270.898438 537.601562 269.550781 541.125 C 268.800781 543.148438 267.75 545.699219 267.226562 546.75 C 266.699219 547.800781 266.25 549.226562 266.25 549.898438 C 266.25 550.574219 265.949219 551.324219 265.574219 551.550781 C 265.199219 551.773438 264.675781 553.125 264.449219 554.550781 C 263.699219 558.300781 260.324219 558.898438 260.25 555.226562 C 260.25 554.398438 258.898438 551.324219 252.449219 537.375 C 251.101562 534.449219 249.148438 530.324219 248.175781 528.148438 C 247.199219 526.050781 246.148438 524.25 245.851562 524.25 C 245.476562 524.25 245.25 523.726562 245.25 523.125 C 245.25 522.449219 244.050781 519.675781 242.550781 516.898438 L 239.851562 511.949219 L 242.699219 509.398438 C 244.351562 508.050781 246 506.699219 246.375 506.398438 C 248.625 504.824219 258 497.324219 260.25 495.300781 C 261.675781 493.949219 264.75 491.476562 267 489.675781 C 269.25 487.949219 271.726562 485.851562 272.625 485.175781 C 273.449219 484.5 276.449219 481.949219 279.375 479.476562 C 282.226562 477.074219 285 474.75 285.449219 474.375 C 285.898438 473.925781 288.074219 472.125 290.324219 470.25 C 292.574219 468.375 295.875 465.300781 297.75 463.425781 C 301.125 459.976562 302.550781 459.148438 303.300781 460.351562 Z M 384.226562 464.023438 C 384.449219 465.226562 385.199219 468.300781 385.875 471 C 386.550781 473.699219 387.449219 477.523438 387.824219 479.625 C 388.199219 481.648438 388.800781 483.898438 389.023438 484.5 C 389.324219 485.101562 389.925781 487.273438 390.449219 489.375 C 390.976562 491.398438 391.949219 495.449219 392.625 498.300781 L 393.898438 503.476562 L 387.300781 509.773438 C 379.875 516.675781 378.300781 517.425781 379.050781 513.449219 C 379.875 509.25 381.074219 490.050781 381.449219 476.25 C 381.675781 469.050781 381.976562 462.675781 382.199219 462.148438 C 382.648438 460.648438 383.773438 461.699219 384.226562 464.023438 Z M 304.574219 472.648438 C 304.050781 474.449219 303.148438 480.449219 302.550781 486 C 302.023438 491.550781 301.199219 499.5 300.824219 503.625 C 300.375 507.75 299.699219 514.5 299.25 518.625 C 298.800781 522.75 298.125 530.175781 297.75 535.125 C 297.300781 540.074219 296.699219 546.824219 296.324219 550.125 C 295.949219 553.425781 295.273438 561.148438 294.75 567.226562 C 294.148438 573.300781 293.476562 578.476562 293.101562 578.699219 C 292.800781 578.925781 288 576.449219 282.523438 573.226562 C 277.125 570 271.425781 566.699219 270 565.949219 C 264.675781 563.101562 264.601562 562.949219 267.074219 558 C 268.273438 555.601562 269.25 553.351562 269.25 553.125 C 269.25 552.75 270.449219 549.824219 273 544.125 C 274.351562 541.050781 276.523438 535.800781 277.5 533.25 C 278.023438 531.824219 279.074219 529.273438 279.75 527.625 C 280.425781 525.976562 281.625 523.125 282.300781 521.25 C 284.324219 516.226562 284.773438 515.101562 286.050781 512.25 C 286.648438 510.824219 288.375 506.550781 289.875 502.875 C 291.375 499.125 292.875 495.449219 293.25 494.625 C 294.375 492.074219 299.023438 479.773438 300.300781 476.023438 C 302.25 470.25 303.75 467.699219 304.726562 468.675781 C 305.25 469.199219 305.25 470.324219 304.574219 472.648438 Z M 356.324219 505.199219 C 360.375 509.324219 366.074219 514.726562 369 517.199219 C 371.851562 519.601562 374.25 522.148438 374.25 522.824219 C 374.25 523.5 372.449219 527.699219 370.199219 532.199219 C 363.523438 545.699219 359.25 554.851562 359.25 555.675781 C 359.25 556.125 358.800781 556.5 358.199219 556.5 C 357.523438 556.5 357.074219 555.226562 356.773438 552.898438 C 355.050781 538.574219 348.074219 502.5 346.425781 499.351562 C 345.976562 498.523438 345.824219 497.398438 346.050781 496.726562 C 346.648438 495.226562 346.875 495.449219 356.324219 505.199219 Z M 343.875 502.648438 C 344.101562 503.175781 344.773438 506.851562 345.375 510.75 C 347.101562 521.851562 348.601562 530.851562 349.875 537 C 350.476562 540.074219 351.375 544.949219 351.824219 547.875 C 352.273438 550.726562 352.949219 553.648438 353.324219 554.398438 C 353.699219 555.074219 354.226562 557.699219 354.449219 560.175781 C 354.898438 564.300781 354.75 564.898438 352.351562 569.023438 C 350.925781 571.425781 348.824219 575.25 347.699219 577.5 C 343.351562 586.125 342.300781 587.175781 332.625 592.125 C 327.675781 594.675781 322.199219 597.601562 320.476562 598.726562 C 318.675781 599.851562 317.101562 600.75 316.875 600.75 C 316.125 600.75 316.5 596.023438 317.550781 593.773438 C 318.148438 592.425781 318.976562 589.875 319.5 588 C 319.949219 586.125 320.851562 582.898438 321.375 580.875 C 321.976562 578.773438 322.949219 575.175781 323.625 572.851562 C 325.574219 565.5 326.851562 560.925781 329.324219 552 C 330.601562 547.273438 331.949219 542.023438 332.398438 540.375 C 332.773438 538.726562 333.449219 536.699219 333.75 535.875 C 334.125 535.050781 334.726562 532.875 335.175781 531 C 335.550781 529.125 336.976562 523.574219 338.25 518.625 C 339.601562 513.675781 340.800781 508.574219 341.023438 507.375 C 341.625 502.949219 342.074219 501.75 342.824219 501.75 C 343.199219 501.75 343.726562 502.199219 343.875 502.648438 Z M 392.625 516.148438 C 392.324219 519.601562 391.875 522.824219 391.5 523.5 C 391.199219 524.101562 390.675781 527.324219 390.449219 530.625 C 389.550781 541.648438 389.398438 541.949219 385.648438 545.398438 C 383.773438 547.199219 379.800781 550.875 376.875 553.648438 C 373.949219 556.5 371.25 558.75 371.023438 558.75 C 370.125 558.75 370.425781 554.398438 371.550781 551.476562 C 372.523438 548.699219 373.574219 544.351562 375 536.625 C 375.375 534.601562 376.050781 532.050781 376.425781 531 C 376.800781 529.949219 377.324219 527.851562 377.625 526.351562 C 378 524.101562 379.425781 522.300781 384.976562 516.824219 C 388.800781 513.074219 392.175781 510 392.550781 510 C 392.925781 510 392.925781 512.699219 392.625 516.148438 Z M 370.050781 543.675781 C 370.273438 544.050781 369.976562 545.773438 369.449219 547.574219 C 368.398438 550.800781 366.449219 557.925781 365.699219 561.75 C 365.101562 564.300781 353.324219 576.898438 353.324219 574.875 C 353.324219 574.050781 354 572.324219 354.824219 571.125 C 356.023438 569.175781 363.226562 554.699219 367.351562 545.851562 C 368.625 543 369.300781 542.476562 370.050781 543.675781 Z M 370.050781 543.675781 "/>
</g>
</svg>
