<?xml version="1.0" encoding="UTF-8"?>
<svg xmlns="http://www.w3.org/2000/svg" xmlns:xlink="http://www.w3.org/1999/xlink" width="150pt" height="297pt" viewBox="0 0 150 297" version="1.1" preserveAspectRatio="xMaxYMin meet">
<g id="surface1">
<path style=" stroke:none;fill-rule:nonzero;fill:rgb(0%,0%,0%);fill-opacity:1;" d="M 7.851562 32.136719 L 0 40.394531 L 0 62.871094 L 3.101562 71.40625 C 7.824219 84.480469 12.824219 91.589844 23.449219 100.324219 L 31.074219 106.585938 L 36.425781 107.730469 L 41.75 108.878906 L 48.824219 115.691406 L 55.925781 122.503906 L 54.949219 125.195312 C 54.425781 126.695312 53.925781 127.992188 53.800781 128.089844 C 53.699219 128.214844 50.949219 126.144531 47.675781 123.5 L 41.75 118.710938 L 34.5 116.464844 C 30.523438 115.21875 25.574219 113.671875 23.523438 112.996094 C 21.5 112.324219 19.726562 111.898438 19.601562 112.023438 C 19.476562 112.148438 20.800781 116.441406 22.550781 121.554688 L 25.75 130.859375 L 30.523438 133.980469 C 40.648438 140.617188 39.148438 140.042969 45.050781 139.644531 C 51.25 139.21875 50.375 138.46875 51.199219 145.007812 C 51.574219 148 52.351562 151.445312 52.898438 152.691406 C 53.675781 154.4375 54.023438 156.984375 54.476562 163.917969 C 54.800781 168.859375 55.175781 173.300781 55.324219 173.773438 C 55.550781 174.597656 54.199219 174.648438 31.898438 174.648438 L 8.25 174.671875 L 6.375 178.113281 L 4.523438 181.582031 L 11.074219 192.960938 C 14.675781 199.222656 23.199219 213.992188 30 225.792969 C 36.824219 237.59375 47.050781 255.335938 52.75 265.214844 C 58.425781 275.09375 64.898438 286.273438 67.101562 290.039062 L 71.101562 296.898438 L 74.425781 296.898438 C 76.25 296.898438 78 296.726562 78.324219 296.527344 C 78.851562 296.175781 86.898438 282.230469 128.324219 209.949219 L 144.550781 181.632812 L 142.648438 178.140625 L 140.75 174.648438 L 93.925781 174.648438 L 94.175781 173.273438 C 94.324219 172.527344 94.726562 167.960938 95.050781 163.171875 C 95.5 156.433594 95.851562 154.015625 96.601562 152.542969 C 97.148438 151.417969 97.851562 148.300781 98.25 145.132812 C 99.050781 138.519531 98.226562 139.21875 104.476562 139.644531 L 109.699219 139.992188 L 116.675781 135.453125 L 123.648438 130.886719 L 126.898438 121.554688 C 130.601562 110.925781 130.601562 111.476562 126.699219 112.746094 C 125.074219 113.269531 120.148438 114.84375 115.75 116.214844 L 107.75 118.734375 L 101.851562 123.476562 C 94.875 129.113281 95.800781 128.890625 94.574219 125.246094 L 93.574219 122.277344 L 100.574219 115.640625 L 107.574219 109.03125 L 113.023438 107.730469 C 118.976562 106.308594 118.050781 106.882812 128.523438 98.226562 C 136.300781 91.839844 142.023438 83.207031 146.425781 71.257812 L 149.5 62.921875 L 149.5 40.367188 L 142.925781 33.53125 C 139.300781 29.765625 135.726562 26.023438 134.949219 25.222656 C 132.773438 22.953125 132.824219 23.828125 135.199219 29.464844 C 136.398438 32.335938 138.648438 37.75 140.199219 41.515625 L 143.050781 48.351562 L 139.398438 53.816406 L 135.75 59.304688 L 132.976562 60.003906 L 130.175781 60.726562 L 126.226562 58.457031 C 122.226562 56.1875 110.449219 50.898438 109.351562 50.898438 C 109.023438 50.898438 111.601562 53.765625 115.074219 57.257812 C 120.773438 62.996094 132.023438 77.894531 132 79.664062 C 132 79.914062 129.101562 82.78125 125.601562 86.074219 C 122.074219 89.371094 118.601562 92.835938 117.898438 93.808594 C 116.824219 95.28125 115.851562 95.804688 111.675781 97.179688 C 107.726562 98.449219 105.773438 99.472656 102 102.195312 C 99.375 104.066406 97 105.738281 96.699219 105.910156 C 96.398438 106.085938 97.25 101.820312 98.574219 96.40625 C 101.898438 82.859375 101.875 80.8125 98.125 66.464844 C 96.601562 60.628906 95.175781 56.035156 95 56.238281 C 94.800781 56.460938 94.851562 63.472656 95.101562 71.855469 L 95.550781 87.074219 L 84.050781 115.019531 L 65.375 115.019531 L 59.648438 101.046875 L 53.925781 87.074219 L 54.273438 71.355469 C 54.476562 62.722656 54.476562 55.789062 54.273438 55.988281 C 54.074219 56.160156 52.699219 60.976562 51.199219 66.714844 C 47.648438 80.386719 47.625 82.433594 50.75 95.855469 C 52 101.171875 53 105.6875 53 105.886719 C 53 106.085938 50.726562 104.589844 47.925781 102.542969 C 43.75 99.472656 42.023438 98.527344 38.300781 97.328125 L 33.75 95.882812 L 25.398438 87.671875 C 18.425781 80.8125 17.175781 79.363281 17.726562 78.789062 C 18.074219 78.417969 20.625 74.722656 23.375 70.605469 C 27.398438 64.59375 29.601562 61.949219 34.449219 57.160156 C 37.773438 53.890625 40.375 51.121094 40.25 50.996094 C 39.824219 50.546875 29.648438 54.964844 24.5 57.808594 L 19.273438 60.703125 L 16.476562 60.003906 L 13.648438 59.304688 L 10.023438 53.816406 L 6.375 48.328125 L 8.898438 42.238281 C 10.300781 38.921875 12.476562 33.65625 13.75 30.5625 C 15.050781 27.496094 16 24.726562 15.898438 24.425781 C 15.800781 24.101562 12.175781 27.570312 7.851562 32.136719 Z M 13.523438 28.816406 C 13 30.113281 9.851562 37.699219 6.550781 45.65625 L 0.523438 60.128906 L 0.523438 50.648438 L 0.5 41.167969 L 6.324219 35.003906 C 9.550781 31.636719 12.601562 28.316406 13.125 27.644531 C 14.5 25.898438 14.601562 26.148438 13.523438 28.816406 Z M 148.976562 50.597656 C 149 55.789062 148.898438 59.953125 148.800781 59.828125 C 148.699219 59.730469 146.851562 55.363281 144.726562 50.148438 C 142.601562 44.933594 139.550781 37.523438 137.949219 33.683594 L 135.023438 26.695312 L 142 33.929688 L 148.976562 41.167969 Z M 10.125 55.4375 L 12.875 59.730469 L 10.023438 68.335938 L 7.148438 76.945312 L 6.824219 69.335938 C 6.375 58.78125 6.425781 50.097656 6.925781 50.671875 C 7.148438 50.921875 8.601562 53.066406 10.125 55.4375 Z M 142.726562 63.972656 L 142.351562 77.09375 L 139.425781 68.386719 L 136.523438 59.703125 L 139.574219 55.039062 C 141.273438 52.492188 142.75 50.496094 142.875 50.597656 C 143 50.722656 142.925781 56.734375 142.726562 63.972656 Z M 5.675781 63.871094 L 6 76.59375 L 5.023438 74.101562 C 4.476562 72.726562 3.25 69.507812 2.324219 66.914062 L 0.601562 62.25 L 2.898438 56.585938 C 4.148438 53.46875 5.226562 50.972656 5.273438 51.046875 C 5.324219 51.097656 5.523438 56.859375 5.675781 63.871094 Z M 146.273438 69.183594 L 143.75 76.296875 L 143.574219 73.699219 C 143.5 72.277344 143.574219 66.539062 143.773438 60.925781 L 144.125 50.773438 L 146.449219 56.410156 L 148.773438 62.050781 Z M 33.75 56.609375 C 29.125 60.953125 28.574219 61.078125 29.226562 57.660156 C 29.476562 56.210938 35.324219 52.742188 38 52.445312 C 38.148438 52.417969 36.226562 54.289062 33.75 56.609375 Z M 120.273438 58.15625 C 120.773438 61.476562 120.550781 61.425781 115.75 56.785156 L 111.25 52.445312 L 115.601562 54.214844 L 119.949219 56.011719 Z M 28.199219 59.53125 C 27.898438 62 27.25 63.222656 22.476562 70.382812 L 17.074219 78.464844 L 16.800781 76.296875 C 15.476562 65.417969 16.25 63.523438 23.875 59.082031 C 29 56.085938 28.601562 56.0625 28.199219 59.53125 Z M 125.675781 59.207031 C 133.125 63.421875 133.925781 65.34375 132.675781 75.996094 L 132.398438 78.390625 L 127 70.382812 C 122.273438 63.371094 121.574219 62.050781 121.273438 59.628906 C 120.851562 56.3125 120.648438 56.335938 125.675781 59.207031 Z M 17.875 61.324219 C 18.324219 61.574219 17 63.894531 13.375 69.210938 C 10.550781 73.351562 8.199219 76.695312 8.148438 76.671875 C 8.101562 76.621094 9.324219 72.902344 10.851562 68.4375 L 13.648438 60.304688 L 15.449219 60.628906 C 16.449219 60.828125 17.523438 61.125 17.875 61.324219 Z M 53.449219 72.277344 C 53.226562 78.691406 52.976562 84.03125 52.851562 84.128906 C 52.75 84.253906 51.976562 82.558594 51.125 80.414062 L 49.574219 76.46875 L 51.648438 68.460938 C 52.800781 64.046875 53.773438 60.503906 53.800781 60.527344 C 53.824219 60.578125 53.675781 65.867188 53.449219 72.277344 Z M 98.25 80.5625 C 96.148438 85.601562 96.125 85.476562 95.824219 71.105469 L 95.625 60.128906 L 97.75 68.363281 L 99.898438 76.570312 Z M 138.625 68.734375 C 140.199219 73.328125 141.199219 76.71875 140.875 76.269531 C 139.925781 75 131.273438 62.175781 131.101562 61.773438 C 130.925781 61.425781 133.601562 60.503906 135 60.429688 C 135.523438 60.402344 136.574219 62.796875 138.625 68.734375 Z M 141.675781 78.714844 C 141.976562 79.191406 141.023438 79.339844 137.648438 79.339844 L 133.25 79.339844 L 133.699219 73.625 L 134.148438 67.914062 L 137.726562 73.027344 C 139.699219 75.820312 141.476562 78.390625 141.675781 78.714844 Z M 15.75 73.976562 L 16.101562 79.339844 L 11.800781 79.339844 C 9.425781 79.339844 7.5 79.238281 7.5 79.089844 C 7.5 78.890625 10.273438 74.949219 13.898438 69.957031 C 15.425781 67.863281 15.324219 67.636719 15.75 73.976562 Z M 93.976562 97.429688 C 90.648438 103.265625 88 107.78125 88.074219 107.484375 C 88.175781 107.207031 90.851562 100.648438 94 92.960938 L 99.75 78.964844 L 99.898438 82.90625 L 100.050781 86.824219 Z M 55.476562 93.0625 C 62.148438 109.128906 61.726562 108.082031 61.375 107.78125 C 61.226562 107.632812 58.5 102.890625 55.300781 97.230469 L 49.5 86.898438 L 49.5 83.03125 C 49.5 80.910156 49.574219 79.265625 49.699219 79.390625 C 49.800781 79.488281 52.398438 85.652344 55.476562 93.0625 Z M 19.375 85.578125 C 20.875 88.320312 23.699219 93.484375 25.675781 97.054688 C 27.648438 100.621094 29.324219 103.714844 29.425781 103.941406 C 29.699219 104.589844 16.851562 93.734375 15.976562 92.589844 C 15.550781 92.015625 13.449219 89.019531 11.324219 85.925781 L 7.449219 80.289062 L 12.050781 80.4375 L 16.648438 80.585938 Z M 139.449219 83.957031 C 138.050781 85.953125 135.976562 88.921875 134.851562 90.566406 C 133.523438 92.539062 130.773438 95.28125 126.824219 98.550781 C 120.375 103.914062 119.351562 104.613281 120.574219 102.742188 C 121 102.09375 123.550781 97.503906 126.226562 92.5625 C 128.925781 87.621094 131.550781 82.859375 132.101562 81.960938 L 133.074219 80.335938 L 142.023438 80.335938 Z M 35.300781 100.246094 L 41.101562 107.855469 L 39.175781 107.484375 C 38.125 107.285156 35.898438 106.757812 34.25 106.335938 L 31.25 105.511719 L 26.351562 96.554688 C 23.648438 91.640625 20.75 86.351562 19.875 84.855469 L 18.300781 82.085938 L 23.898438 87.375 C 27.601562 90.839844 31.476562 95.234375 35.300781 100.246094 Z M 129.523438 84.953125 C 128.726562 86.402344 125.824219 91.613281 123.125 96.554688 L 118.175781 105.535156 L 113.726562 106.660156 C 111.273438 107.285156 109.101562 107.730469 108.925781 107.65625 C 107.574219 107.160156 128.949219 82.507812 130.875 82.332031 C 130.949219 82.332031 130.351562 83.507812 129.523438 84.953125 Z M 97.125 98.824219 L 95.25 106.957031 L 90.75 110.300781 C 88.273438 112.148438 86.175781 113.59375 86.074219 113.519531 C 85.898438 113.347656 98.675781 90.390625 98.875 90.542969 C 98.949219 90.617188 98.175781 94.335938 97.125 98.824219 Z M 53.023438 94.683594 C 54.199219 96.804688 57.050781 101.871094 59.375 105.9375 C 61.699219 110.003906 63.523438 113.421875 63.425781 113.519531 C 63.324219 113.59375 61.226562 112.171875 58.75 110.351562 L 54.226562 107.035156 L 52.601562 100.046875 C 51.726562 96.207031 50.851562 92.5625 50.699219 91.9375 C 50.125 89.894531 50.875 90.765625 53.023438 94.683594 Z M 53.148438 107.359375 C 59.050781 111.574219 63.851562 115.242188 63.824219 115.515625 C 63.800781 115.792969 62.101562 117.3125 60.023438 118.886719 L 56.273438 121.777344 L 49.351562 114.894531 C 43.75 109.328125 34 98.027344 34 97.078125 C 34 95.355469 43.425781 100.421875 53.148438 107.359375 Z M 114.925781 97.777344 C 111.023438 103.265625 105.898438 109.203125 100.125 114.917969 L 93.199219 121.804688 L 89.226562 118.734375 C 87.023438 117.0625 85.199219 115.617188 85.125 115.566406 C 85.074219 115.492188 89.925781 111.925781 95.949219 107.609375 C 106.25 100.222656 110.601562 97.828125 115.425781 96.855469 C 115.550781 96.828125 115.324219 97.230469 114.925781 97.777344 Z M 30.25 118.835938 C 37.523438 123.078125 37.898438 123.375 41.625 127.992188 C 43.75 130.585938 45.351562 132.730469 45.226562 132.730469 C 44.925781 132.730469 30.125 124.847656 26.074219 122.527344 C 23.523438 121.082031 23.324219 120.804688 21.976562 117.136719 C 20.324219 112.597656 19.273438 112.371094 30.25 118.835938 Z M 127.5 117.136719 C 126.148438 120.957031 126.101562 121.03125 122.949219 122.800781 C 118.226562 125.445312 104.523438 132.730469 104.25 132.730469 C 102.324219 132.730469 112.648438 122.578125 117.351562 119.859375 C 120.324219 118.136719 124 115.964844 125.5 115.042969 C 127.023438 114.121094 128.375 113.320312 128.550781 113.320312 C 128.726562 113.296875 128.25 115.019531 127.5 117.136719 Z M 33.074219 116.890625 L 41.273438 119.507812 L 47.398438 124.449219 C 51.375 127.640625 53.449219 129.613281 53.273438 130.0625 C 53.148438 130.460938 52.523438 132.382812 51.925781 134.355469 L 50.851562 137.921875 L 48.925781 135.699219 C 47.875 134.476562 45.023438 130.984375 42.625 127.917969 C 38.300781 122.425781 38.199219 122.328125 32 118.808594 C 25.101562 114.894531 24.101562 114.292969 24.574219 114.269531 C 24.75 114.269531 28.574219 115.441406 33.074219 116.890625 Z M 124.226562 114.917969 C 123.699219 115.292969 120.523438 117.113281 117.199219 119.007812 L 111.148438 122.453125 L 105.476562 129.613281 C 102.351562 133.554688 99.523438 137 99.199219 137.273438 C 98.675781 137.695312 97.773438 135.574219 96.125 129.9375 C 96.023438 129.636719 98.699219 127.167969 102.023438 124.472656 L 108.125 119.558594 L 116.175781 116.9375 C 124.824219 114.144531 125.773438 113.894531 124.226562 114.917969 Z M 79.199219 121.003906 C 76.824219 123.875 74.726562 126.144531 74.523438 126.019531 C 74.351562 125.894531 72.324219 123.550781 70.074219 120.78125 L 65.949219 115.765625 L 83.523438 115.765625 Z M 69.023438 120.832031 C 71.074219 123.351562 73.050781 125.820312 73.398438 126.320312 C 73.976562 127.144531 67.148438 137.722656 66.023438 137.722656 C 65.875 137.722656 64.625 135.75 63.273438 133.355469 C 61.898438 130.960938 59.925781 127.542969 58.851562 125.796875 C 56.648438 122.179688 56.449219 122.726562 61.5 118.808594 C 65.523438 115.691406 64.648438 115.464844 69.023438 120.832031 Z M 88.550781 119.308594 C 90.75 120.980469 92.476562 122.503906 92.398438 122.675781 C 91.773438 124.148438 83.675781 137.695312 83.449219 137.695312 C 82.648438 137.746094 75.375 127.066406 75.800781 126.496094 C 77.175781 124.597656 84.148438 116.265625 84.324219 116.265625 C 84.449219 116.265625 86.351562 117.636719 88.550781 119.308594 Z M 34.800781 128.191406 C 40 130.960938 44.050781 133.230469 43.824219 133.230469 C 43.148438 133.230469 28.351562 130.734375 27.425781 130.460938 C 26.773438 130.261719 24 124.148438 24 122.925781 C 24 122.476562 24.800781 122.875 34.800781 128.191406 Z M 125.25 123.625 C 125.050781 124.097656 124.449219 125.769531 123.898438 127.34375 C 123.351562 128.964844 122.574219 130.285156 122.074219 130.4375 C 120.574219 130.859375 105.898438 133.28125 105.75 133.132812 C 105.550781 132.957031 124.574219 122.800781 125.175781 122.777344 C 125.425781 122.753906 125.449219 123.152344 125.25 123.625 Z M 59.375 128.367188 C 60.800781 130.910156 62.675781 134.152344 63.523438 135.574219 L 65.050781 138.171875 L 58.273438 138.320312 C 52.550781 138.445312 51.523438 138.371094 51.75 137.746094 C 51.925781 137.371094 52.976562 134.054688 54.125 130.386719 C 55.273438 126.742188 56.324219 123.75 56.476562 123.75 C 56.625 123.75 57.925781 125.820312 59.375 128.367188 Z M 95.5 130.984375 C 96.675781 134.554688 97.726562 137.695312 97.824219 137.972656 C 97.976562 138.394531 85.050781 138.445312 84.625 137.996094 C 84.550781 137.921875 85.726562 135.800781 87.25 133.28125 C 88.773438 130.734375 90.601562 127.542969 91.300781 126.144531 C 92.875 123.027344 92.898438 123.050781 95.5 130.984375 Z M 78.949219 133.457031 C 81.175781 136.472656 83 139.242188 83 139.644531 C 83 140.542969 81.601562 159.328125 81.199219 163.496094 L 80.925781 166.5625 L 68.550781 166.5625 L 68.300781 164.492188 C 68.148438 163.34375 67.675781 157.132812 67.226562 150.695312 L 66.398438 138.96875 L 70.574219 133.40625 C 72.875 130.335938 74.773438 127.867188 74.824219 127.917969 C 74.851562 127.964844 76.726562 130.460938 78.949219 133.457031 Z M 38.476562 133.207031 C 46.675781 134.628906 46.726562 134.628906 48.449219 136.523438 C 49.398438 137.546875 49.976562 138.46875 49.726562 138.519531 C 49.449219 138.59375 47.175781 138.746094 44.648438 138.871094 L 40.050781 139.09375 L 34.726562 135.675781 C 31.773438 133.804688 29.25 132.15625 29.101562 132.007812 C 28.648438 131.558594 29.949219 131.707031 38.476562 133.207031 Z M 115 135.5 C 111.101562 138.046875 108.925781 139.167969 108.25 138.996094 C 107.699219 138.84375 105.5 138.71875 103.375 138.71875 C 99.023438 138.71875 98.925781 138.621094 101.050781 136.324219 C 102.476562 134.726562 102.898438 134.601562 110.398438 133.253906 C 121.699219 131.261719 121.601562 131.210938 115 135.5 Z M 62.550781 152.191406 C 67.476562 166.3125 67.375 165.890625 65.949219 164.167969 C 65.375 163.46875 63.625 161.574219 62.050781 159.925781 C 52.226562 149.597656 52.699219 150.246094 52.300781 146.429688 C 52.125 144.53125 51.824219 142.113281 51.648438 141.066406 L 51.375 139.167969 L 54.75 139.320312 L 58.101562 139.46875 Z M 65.726562 141.839844 C 65.875 143.285156 66.226562 147.703125 66.5 151.695312 C 66.773438 155.660156 67.125 160.050781 67.273438 161.425781 C 67.476562 163.195312 66.398438 160.625 63.574219 152.441406 C 61.398438 146.128906 59.449219 140.566406 59.25 140.09375 C 58.925781 139.320312 59.25 139.21875 62.148438 139.21875 L 65.425781 139.21875 Z M 86.351562 151.144531 C 84.101562 157.707031 82.199219 163.046875 82.175781 162.996094 C 82.023438 162.871094 83.523438 142.738281 83.800781 140.839844 L 84.050781 139.21875 L 90.449219 139.21875 Z M 97.824219 141.089844 C 97.675781 142.113281 97.375 144.53125 97.199219 146.453125 L 96.824219 149.945312 L 92.800781 154.1875 C 90.574219 156.535156 87.351562 159.953125 85.625 161.824219 C 83.898438 163.667969 82.5 165.117188 82.5 165.042969 C 82.5 164.890625 90.5 141.863281 91.226562 139.84375 C 91.398438 139.417969 92.601562 139.21875 94.800781 139.21875 L 98.125 139.21875 Z M 62.648438 161.847656 L 67.523438 167.0625 L 67.398438 172.578125 L 67.25 178.089844 L 64.550781 174.523438 C 62.125 171.328125 59.226562 165.492188 54.449219 154.1875 L 53.5 151.941406 L 55.625 154.289062 C 56.800781 155.5625 59.949219 158.953125 62.648438 161.847656 Z M 91.5 162.074219 C 88.574219 168.710938 86.75 172.101562 84.75 174.695312 L 82 178.238281 L 82 166.8125 L 87.175781 161.375 C 90.023438 158.378906 93 155.1875 93.75 154.289062 C 95.976562 151.644531 95.726562 152.542969 91.5 162.074219 Z M 93.75 168.234375 C 93.023438 177.066406 89.550781 196.925781 88.226562 199.847656 C 88.101562 200.121094 88.101562 193.808594 88.25 185.824219 L 88.5 171.304688 L 91.351562 164.519531 C 92.949219 160.800781 94.324219 157.832031 94.398438 157.929688 C 94.5 158.03125 94.199219 162.671875 93.75 168.234375 Z M 58.148438 164.71875 L 60.851562 171.03125 L 61.175781 185.925781 L 61.476562 200.84375 L 59.023438 189.742188 C 56.824219 179.785156 55 165.863281 55 159.203125 C 55 157.53125 55.101562 157.730469 58.148438 164.71875 Z M 77.75 169.832031 L 74.75 172.5 L 71.875 170.007812 C 70.300781 168.632812 69 167.4375 69 167.335938 C 69 167.238281 71.648438 167.164062 74.875 167.164062 L 80.75 167.164062 Z M 71.398438 170.804688 L 74 173.425781 L 68.5 178.863281 L 68.5 173.5 C 68.5 170.554688 68.574219 168.160156 68.648438 168.160156 C 68.726562 168.160156 69.949219 169.359375 71.398438 170.804688 Z M 81 173.523438 L 81 178.886719 L 78.175781 176.042969 L 75.351562 173.226562 L 78.050781 170.707031 C 79.523438 169.332031 80.800781 168.183594 80.875 168.183594 C 80.949219 168.160156 81 170.582031 81 173.523438 Z M 68 181.234375 C 68 182.207031 70.375 195.78125 72.800781 208.503906 C 73.476562 212.171875 73.976562 215.265625 73.875 215.363281 C 73.773438 215.441406 72.023438 214.019531 69.949219 212.171875 C 67.898438 210.324219 65.375 208.105469 64.351562 207.230469 L 62.5 205.609375 L 62.175781 189.019531 L 61.851562 172.402344 L 64.925781 176.34375 C 66.625 178.488281 68 180.710938 68 181.234375 Z M 87.25 190.988281 L 86.875 205.585938 L 81.324219 210.523438 C 78.25 213.246094 75.675781 215.390625 75.550781 215.289062 C 75.449219 215.191406 75.851562 212.570312 76.449219 209.476562 C 77.050781 206.382812 78.5 198.398438 79.699219 191.789062 C 81.398438 182.28125 82.101562 179.414062 82.949219 178.316406 C 83.574219 177.515625 84.773438 175.917969 85.648438 174.722656 L 87.25 172.550781 L 87.425781 174.472656 C 87.523438 175.519531 87.425781 182.957031 87.25 190.988281 Z M 77.5 176.394531 L 80.226562 179.136719 L 69.273438 179.136719 L 72 176.394531 C 73.5 174.871094 74.726562 173.648438 74.75 173.648438 C 74.773438 173.648438 76 174.871094 77.5 176.394531 Z M 55.5 177.265625 C 55.5 178.164062 55.351562 179.386719 55.175781 180.011719 L 54.875 181.132812 L 30.449219 181.132812 C 17 181.132812 6 181.035156 6 180.882812 C 6 180.761719 6.625 179.511719 7.375 178.140625 L 8.75 175.671875 L 32.125 175.644531 L 55.5 175.644531 Z M 139.101562 177.265625 C 138 179.089844 130.273438 192.535156 99.773438 245.753906 C 88.300781 265.789062 78.75 282.328125 78.574219 282.527344 C 78.375 282.730469 77.574219 281.65625 76.75 280.132812 L 75.25 277.390625 L 76.273438 275.542969 C 76.851562 274.519531 80.425781 268.308594 84.226562 261.722656 C 94.75 243.53125 100.425781 233.679688 102.726562 229.535156 C 103.898438 227.464844 110.5 215.9375 117.425781 203.914062 C 124.351562 191.863281 130 181.808594 130 181.582031 C 130 181.332031 122.226562 181.132812 112.300781 181.132812 L 94.625 181.132812 L 94.324219 180.011719 C 94.148438 179.386719 94 178.164062 94 177.265625 L 94 175.644531 L 140.074219 175.644531 Z M 127.300781 209.976562 C 118.375 225.542969 103.75 251.019531 94.824219 266.613281 C 85.875 282.203125 78.398438 294.878906 78.148438 294.804688 C 77.925781 294.730469 75.824219 291.285156 73.476562 287.167969 C 69.5 280.234375 60.398438 264.464844 41.851562 232.28125 C 37.726562 225.144531 30.898438 213.246094 26.625 205.835938 C 22.375 198.425781 18.351562 191.511719 17.699219 190.488281 C 16.101562 188.046875 16.050781 188.121094 19.625 188.121094 L 22.75 188.121094 L 27.074219 195.730469 C 29.449219 199.921875 33.476562 206.933594 36 211.324219 C 38.550781 215.714844 44.101562 225.320312 48.324219 232.679688 C 52.574219 240.039062 59.199219 251.492188 63.074219 258.128906 C 66.949219 264.765625 71.925781 273.398438 74.148438 277.316406 C 77.324219 282.878906 78.324219 284.300781 78.773438 283.800781 C 79.101562 283.453125 86 271.601562 94.101562 257.480469 C 102.175781 243.332031 115.976562 219.257812 124.75 203.9375 L 140.699219 176.09375 L 142.125 178.863281 L 143.523438 181.65625 Z M 80.800781 181.007812 C 80.550781 181.832031 75.949219 207.105469 75.125 212.320312 C 74.726562 214.792969 74.699219 214.765625 73.601562 208.328125 C 72 198.996094 69.074219 182.582031 68.75 181.257812 C 68.476562 180.136719 68.5 180.136719 74.773438 180.136719 C 80.523438 180.136719 81.050781 180.210938 80.800781 181.007812 Z M 58.675781 192.085938 C 59.949219 197.949219 60.925781 202.839844 60.851562 202.914062 C 60.773438 202.988281 59.273438 200.871094 57.550781 198.199219 L 54.375 193.359375 L 54.449219 188.867188 C 54.550781 184.402344 55.351562 180.261719 56 180.984375 C 56.199219 181.207031 57.398438 186.199219 58.675781 192.085938 Z M 94.425781 183.082031 C 94.75 184.003906 95 186.722656 95 189.117188 L 95 193.460938 L 91.699219 198.398438 C 89.800781 201.242188 88.5 202.816406 88.648438 202.089844 C 89.75 196.054688 93.324219 180.761719 93.550781 181.035156 C 93.726562 181.234375 94.125 182.15625 94.425781 183.082031 Z M 54 183.40625 C 53.726562 184.128906 53.5 185.25 53.5 185.898438 L 53.5 187.121094 L 34.574219 187.121094 C 24.175781 187.121094 15.550781 187.246094 15.398438 187.394531 C 15.25 187.546875 16.25 189.617188 17.625 192.011719 C 20.175781 196.453125 42.523438 235.226562 52.898438 253.238281 C 67.199219 278.0625 74.300781 290.363281 76.5 294.03125 L 77.601562 295.902344 L 74.300781 295.902344 C 72.476562 295.902344 71 295.726562 71 295.503906 C 71 295.128906 68.851562 291.335938 53.773438 265.214844 C 49.976562 258.628906 43.101562 246.726562 38.523438 238.769531 C 17.523438 202.316406 10.175781 189.59375 8.175781 186.199219 C 6.976562 184.203125 6 182.457031 6 182.332031 C 6 182.230469 16.898438 182.132812 30.25 182.132812 L 54.476562 182.132812 Z M 127.574219 184.503906 L 126.175781 186.871094 L 111.148438 186.996094 L 96.125 187.148438 L 95.851562 185.5 C 95.699219 184.601562 95.425781 183.480469 95.25 183.003906 C 94.925781 182.183594 95.898438 182.132812 111.925781 182.132812 L 128.976562 182.132812 Z M 53.5 190.765625 C 53.5 192.210938 52.949219 195.304688 52.300781 197.625 C 48.300781 211.699219 46.300781 219.730469 46.050781 222.898438 L 45.75 226.492188 L 40.273438 216.910156 C 33.875 205.734375 28.699219 196.828125 25.675781 191.738281 L 23.523438 188.121094 L 53.5 188.121094 Z M 124.601562 189.742188 C 122.898438 192.511719 106.226562 221.675781 104.976562 224.046875 L 103.773438 226.292969 L 103.425781 222.800781 C 103.25 220.878906 101.5 213.492188 99.550781 206.40625 C 97.199219 197.824219 96 192.585938 96 190.816406 L 96 188.121094 L 125.574219 188.121094 Z M 68.199219 211.796875 C 71.398438 214.542969 73.949219 216.910156 73.875 217.085938 C 73.699219 217.484375 58.800781 231.507812 58.675781 231.382812 C 58.625 231.332031 58 225.894531 57.273438 219.308594 C 56.550781 212.71875 55.648438 204.910156 55.226562 201.941406 C 54.824219 198.996094 54.5 196.230469 54.5 195.804688 C 54.5 195.378906 56.273438 197.675781 58.449219 200.917969 C 61.851562 206.035156 63.148438 207.503906 68.199219 211.796875 Z M 94.824219 196.726562 C 94.648438 197.625 93.726562 205.535156 92.75 214.316406 C 91.773438 223.097656 90.925781 230.585938 90.875 230.933594 C 90.773438 231.480469 76.023438 218.085938 75.625 217.085938 C 75.550781 216.886719 78.25 214.34375 81.625 211.421875 C 87.023438 206.730469 88.148438 205.460938 91.25 200.59375 C 95.125 194.53125 95.25 194.40625 94.824219 196.726562 Z M 56.675781 222.125 L 57.800781 231.433594 L 56.300781 230.183594 C 55.476562 229.488281 53 227.289062 50.824219 225.269531 L 46.851562 221.628906 L 50.300781 208.503906 L 53.75 195.355469 L 54.648438 204.085938 C 55.148438 208.878906 56.050781 217.011719 56.675781 222.125 Z M 99.273438 208.804688 L 102.675781 221.726562 L 100.648438 223.523438 C 99.523438 224.496094 97 226.742188 95.023438 228.488281 C 92.101562 231.109375 91.5 231.457031 91.699219 230.484375 C 92.023438 229.039062 94.226562 210.226562 95.050781 201.71875 C 95.375 198.347656 95.699219 195.65625 95.75 195.730469 C 95.800781 195.804688 97.375 201.667969 99.273438 208.804688 Z M 90.300781 232.582031 C 90.523438 232.980469 89.375 235.25 83.101562 246.976562 L 80.851562 251.167969 L 78.199219 235.25 C 76.726562 226.515625 75.398438 219.03125 75.25 218.632812 C 75 217.984375 89.675781 231.605469 90.300781 232.582031 Z M 71.351562 234.675781 C 69.925781 243.359375 68.601562 250.492188 68.449219 250.492188 C 68.023438 250.492188 58.898438 233.054688 59.101562 232.605469 C 59.324219 232.105469 73.675781 218.558594 73.824219 218.734375 C 73.898438 218.78125 72.773438 225.96875 71.351562 234.675781 Z M 77.449219 264.214844 C 75.625 272.125 74.648438 275.59375 74.425781 274.820312 C 74.25 274.195312 73.023438 268.90625 71.699219 263.019531 L 69.300781 252.363281 L 71.648438 238.070312 C 72.949219 230.234375 74.148438 222.773438 74.324219 221.550781 C 74.625 219.679688 75.125 221.976562 77.398438 235.898438 L 80.125 252.488281 Z M 57.875 232.980469 C 58.25 233.925781 62.375 251.765625 62.25 251.917969 C 61.675781 252.515625 59.148438 249.769531 57.324219 246.578125 C 56.148438 244.480469 53.226562 239.367188 50.824219 235.25 C 46.898438 228.414062 46.5 227.492188 46.5 225.09375 L 46.5 222.476562 L 52.125 227.566406 C 55.226562 230.382812 57.800781 232.804688 57.875 232.980469 Z M 102.773438 226.742188 C 102.023438 230.660156 88.25 252.914062 87.226562 251.890625 C 87.125 251.765625 88.050781 247.425781 89.300781 242.234375 L 91.550781 232.78125 L 94.648438 230.035156 C 96.351562 228.539062 98.875 226.242188 100.25 224.945312 C 103 222.375 103.550781 222.773438 102.773438 226.742188 Z M 70.699219 262.417969 C 72 267.734375 72.949219 272.175781 72.851562 272.273438 C 71.976562 273.125 62.976562 251.09375 61.5 244.554688 C 60.625 240.613281 59.800781 237.019531 59.675781 236.570312 C 59.523438 236.121094 61.425781 239.589844 63.898438 244.257812 C 68.300781 252.566406 68.425781 252.9375 70.699219 262.417969 Z M 87.574219 245.777344 C 85.875 252.640625 77 274.144531 76.199219 273.296875 C 75.125 272.199219 81.550781 251.839844 85.148438 244.90625 C 87.398438 240.613281 89.300781 237.246094 89.375 237.46875 C 89.449219 237.667969 88.648438 241.414062 87.574219 245.777344 Z M 64.25 256.507812 C 66.351562 260.671875 68.5 265.464844 68.273438 265.464844 C 68.175781 265.464844 66.800781 263.167969 65.199219 260.347656 C 63.625 257.53125 61.875 254.484375 61.324219 253.539062 L 60.324219 251.867188 L 61.425781 252.441406 C 62.023438 252.765625 63.300781 254.585938 64.25 256.507812 Z M 85.101562 258.703125 C 82.976562 262.371094 81.199219 265.339844 81.125 265.265625 C 80.375 264.515625 87.648438 251.992188 88.824219 251.992188 C 88.875 251.992188 87.199219 255.011719 85.101562 258.703125 Z M 85.101562 258.703125 "/>
</g>

</svg>
