<?xml version="1.0" encoding="UTF-8"?>
<svg xmlns="http://www.w3.org/2000/svg" xmlns:xlink="http://www.w3.org/1999/xlink" width="149pt" height="139pt" viewBox="0 0 149 139" version="1.1">
<g id="surface1">
<path style=" stroke:none;fill-rule:nonzero;fill:rgb(0%,0%,0%);fill-opacity:1;" d="M 43.308594 43.089844 L 15.867188 70.671875 L 43.359375 98.234375 L 70.824219 125.769531 L 98.289062 98.160156 L 125.757812 70.523438 L 108.945312 53.699219 C 99.707031 44.4375 87.3125 32.054688 81.453125 26.164062 L 70.773438 15.476562 Z M 71.742188 23.464844 C 72.6875 27.511719 80.359375 56.570312 80.757812 57.640625 C 80.933594 58.089844 79.441406 57.839844 75.890625 56.84375 C 73.085938 56.042969 66.753906 54.347656 61.835938 53.097656 C 56.917969 51.824219 52.820312 50.726562 52.722656 50.652344 C 52.621094 50.578125 54.882812 46.382812 57.738281 41.339844 C 60.59375 36.324219 64.542969 29.207031 66.527344 25.5625 C 70.550781 18.175781 70.527344 18.199219 71.742188 23.464844 Z M 120.988281 68.777344 C 120.914062 68.851562 118.183594 68.175781 114.929688 67.226562 C 111.675781 66.304688 103.183594 64.03125 96.054688 62.160156 L 83.09375 58.765625 L 78.25 40.742188 C 75.566406 30.832031 73.28125 22.144531 73.160156 21.46875 C 72.984375 20.621094 80.386719 27.734375 97.023438 44.410156 C 110.285156 57.71875 121.085938 68.675781 120.988281 68.777344 Z M 61.460938 31.777344 C 58.632812 36.671875 55.105469 42.886719 53.640625 45.585938 L 50.957031 50.476562 L 45.964844 53.273438 C 43.210938 54.820312 37.398438 58.140625 33.027344 60.664062 C 28.65625 63.183594 24.535156 65.53125 23.839844 65.90625 C 23.167969 66.28125 32.433594 56.695312 44.453125 44.636719 C 56.472656 32.578125 66.378906 22.742188 66.453125 22.792969 C 66.554688 22.84375 64.292969 26.886719 61.460938 31.777344 Z M 67.796875 56.195312 L 81.203125 59.789062 L 82.347656 63.957031 C 86.742188 80.234375 88.804688 88.148438 88.679688 88.273438 C 88.605469 88.347656 85.773438 87.625 82.398438 86.675781 C 78.996094 85.726562 72.664062 84.027344 68.292969 82.878906 C 58.804688 80.410156 60.246094 82.007812 57.390625 70.898438 C 56.097656 65.804688 54.484375 59.765625 53.839844 57.441406 C 52.398438 52.351562 52.375 51.851562 53.515625 52.300781 C 53.988281 52.472656 60.417969 54.246094 67.796875 56.195312 Z M 54.359375 65.03125 C 58.035156 78.761719 58.457031 80.660156 57.8125 80.257812 C 57.5625 80.109375 49.09375 77.8125 38.988281 75.167969 C 28.882812 72.496094 20.289062 70.222656 19.890625 70.097656 C 19.46875 69.949219 21.234375 68.726562 24.113281 67.203125 C 28.707031 64.730469 43.0625 56.71875 48.175781 53.746094 C 49.417969 53.023438 50.535156 52.425781 50.683594 52.425781 C 50.859375 52.425781 52.496094 58.089844 54.359375 65.03125 Z M 94.960938 63.433594 C 104.648438 66.078125 116.46875 69.125 120.886719 70.125 C 122.675781 70.523438 122.476562 70.699219 116.964844 73.644531 C 111.003906 76.816406 92.304688 87.375 91.511719 88 C 90.765625 88.597656 91.136719 89.769531 87.164062 74.46875 C 85.351562 67.527344 83.761719 61.511719 83.613281 61.113281 C 83.242188 60.1875 82.398438 60.011719 94.960938 63.433594 Z M 42.589844 78.164062 C 58.484375 82.382812 59.128906 82.582031 59.425781 83.828125 C 60.144531 87.101562 67.25 114.011719 68.292969 117.457031 C 68.9375 119.578125 69.410156 121.324219 69.359375 121.324219 C 69.261719 121.324219 20.363281 72.222656 20.363281 72.097656 C 20.363281 72.046875 21.65625 72.394531 23.21875 72.871094 C 24.785156 73.371094 33.5 75.742188 42.589844 78.164062 Z M 97.097656 96.835938 C 85.078125 108.894531 75.195312 118.679688 75.121094 118.605469 C 75.023438 118.53125 77.15625 114.660156 79.863281 110.042969 C 82.546875 105.398438 86.148438 99.105469 87.859375 96.035156 L 90.964844 90.445312 L 99.011719 85.925781 C 103.40625 83.453125 109.488281 79.960938 112.496094 78.1875 C 115.5 76.441406 118.183594 74.96875 118.453125 74.941406 C 118.726562 74.917969 109.117188 84.753906 97.097656 96.835938 Z M 74.75 86.625 C 81.851562 88.472656 87.910156 90.070312 88.234375 90.144531 C 88.554688 90.246094 85.675781 95.8125 81.652344 102.953125 C 77.726562 109.890625 73.78125 116.980469 72.886719 118.703125 C 70.898438 122.523438 70.75 122.546875 70.003906 118.953125 C 69.558594 116.707031 62.007812 88.074219 60.71875 83.679688 C 60.519531 82.980469 60.644531 82.78125 61.140625 82.980469 C 61.511719 83.128906 67.644531 84.753906 74.75 86.625 Z M 74.75 86.625 "/>
</g>
</svg>
