<?xml version="1.0" encoding="UTF-8"?>
<svg xmlns="http://www.w3.org/2000/svg" xmlns:xlink="http://www.w3.org/1999/xlink" width="225pt" height="221pt" viewBox="0 0 225 221" version="1.1">
<g id="surface1">
<path style=" stroke:none;fill-rule:nonzero;fill:rgb(0%,0%,0%);fill-opacity:1;" d="M 63.789062 4.578125 C 58.085938 6.605469 57.675781 7.242188 61.164062 8.78125 C 64.238281 10.097656 78.335938 10.808594 79.875 9.683594 C 82.050781 8.105469 88.800781 8.371094 92.136719 10.171875 C 95.960938 12.199219 96.9375 12.046875 94.835938 9.722656 C 93.523438 8.257812 93.523438 8.105469 94.761719 5.96875 C 96.261719 3.453125 95.550781 3.152344 92.136719 4.917969 C 89.550781 6.269531 84.636719 5.816406 83.210938 4.054688 C 81.824219 2.402344 68.960938 2.738281 63.789062 4.578125 Z M 63.789062 4.578125 "/>
<path style=" stroke:none;fill-rule:nonzero;fill:rgb(0%,0%,0%);fill-opacity:1;" d="M 158.625 3.527344 C 156.261719 4.054688 150.449219 6.191406 149.773438 6.792969 C 147.261719 8.933594 165.710938 11.035156 169.460938 9.007812 C 171.898438 7.730469 177 8.144531 179.773438 9.832031 C 182.625 11.636719 183.898438 11.222656 182.023438 9.160156 C 180.898438 7.917969 180.898438 7.65625 181.949219 6.117188 C 183.5625 3.789062 182.925781 3.453125 179.8125 4.953125 C 176.851562 6.34375 172.5 5.96875 171 4.089844 C 170.101562 3.039062 162.414062 2.664062 158.625 3.527344 Z M 158.625 3.527344 "/>
<path style=" stroke:none;fill-rule:nonzero;fill:rgb(0%,0%,0%);fill-opacity:1;" d="M 16.273438 8.59375 C 12.226562 10.023438 12.226562 10.171875 16.085938 11.671875 C 18.898438 12.722656 20.773438 12.875 26.585938 12.460938 C 32.664062 12.011719 33.976562 12.125 35.699219 13.25 C 37.6875 14.5625 37.6875 14.5625 37.164062 12.875 C 36.863281 11.898438 37.011719 10.734375 37.539062 10.097656 C 38.625 8.78125 37.6875 8.671875 34.835938 9.757812 C 33.1875 10.398438 32.289062 10.246094 30.226562 9.007812 C 27.1875 7.207031 20.664062 7.019531 16.273438 8.59375 Z M 16.273438 8.59375 "/>
<path style=" stroke:none;fill-rule:nonzero;fill:rgb(0%,0%,0%);fill-opacity:1;" d="M 198.976562 9.082031 C 192.113281 11.074219 196.726562 13.136719 208.125 13.175781 C 213.074219 13.175781 217.761719 13.476562 218.550781 13.851562 C 219.75 14.414062 219.9375 14.300781 219.488281 13.175781 C 219.226562 12.421875 219.375 11.371094 219.824219 10.773438 C 220.875 9.535156 220.648438 9.535156 217.613281 10.585938 C 215.625 11.261719 214.875 11.148438 212.738281 9.832031 C 209.960938 8.105469 203.511719 7.769531 198.976562 9.082031 Z M 198.976562 9.082031 "/>
<path style=" stroke:none;fill-rule:nonzero;fill:rgb(0%,0%,0%);fill-opacity:1;" d="M 109.875 10.210938 C 109.460938 10.320312 107.699219 10.808594 105.9375 11.261719 C 98.886719 13.0625 105.449219 15.464844 115.539062 14.75 C 120.824219 14.375 122.8125 14.527344 124.5 15.390625 C 127.238281 16.816406 127.949219 16.816406 126.789062 15.425781 C 126.113281 14.601562 126.113281 13.960938 126.789062 12.6875 C 127.574219 11.222656 127.539062 11.109375 126.261719 11.597656 C 123.261719 12.835938 122.289062 12.875 119.886719 11.785156 C 117.488281 10.695312 111.449219 9.757812 109.875 10.210938 Z M 109.875 10.210938 "/>
<path style=" stroke:none;fill-rule:nonzero;fill:rgb(0%,0%,0%);fill-opacity:1;" d="M 31.125 20.34375 C 25.238281 22.371094 24.824219 22.894531 27.863281 24.507812 C 30.636719 26.011719 47.25 26.835938 47.25 25.484375 C 47.25 24.097656 56.175781 24.699219 59.289062 26.273438 C 62.398438 27.886719 62.960938 27.550781 61.199219 25.109375 C 60.300781 23.871094 60.335938 23.457031 61.574219 21.882812 C 63.523438 19.367188 62.960938 19.140625 59.136719 20.832031 C 55.613281 22.371094 51.824219 21.957031 49.425781 19.816406 C 47.585938 18.167969 36.636719 18.464844 31.125 20.34375 Z M 31.125 20.34375 "/>
<path style=" stroke:none;fill-rule:nonzero;fill:rgb(0%,0%,0%);fill-opacity:1;" d="M 83.851562 22.40625 C 73.574219 26.046875 83.101562 29.089844 97.460938 26.761719 C 104.25 25.636719 104.699219 25.636719 107.886719 27.0625 C 111.488281 28.636719 112.539062 28.527344 111 26.648438 C 110.25 25.75 110.210938 25.035156 110.886719 23.570312 C 112.085938 20.945312 112.011719 20.832031 109.539062 22.109375 C 106.726562 23.570312 102.710938 23.609375 100.835938 22.183594 C 98.773438 20.605469 88.425781 20.757812 83.851562 22.40625 Z M 83.851562 22.40625 "/>
<path style=" stroke:none;fill-rule:nonzero;fill:rgb(0%,0%,0%);fill-opacity:1;" d="M 182.664062 24.699219 C 173.175781 28.039062 181.351562 30.402344 194.4375 28.113281 C 200.398438 27.0625 201.1875 27.097656 203.324219 28.1875 C 205.914062 29.539062 206.960938 29.164062 205.5 27.398438 C 204.75 26.5 204.75 26.046875 205.5 25.148438 C 207 23.347656 205.949219 23.082031 203.0625 24.472656 C 200.625 25.636719 200.25 25.636719 197.960938 24.507812 C 194.773438 22.894531 187.5 23.007812 182.664062 24.699219 Z M 182.664062 24.699219 "/>
<path style=" stroke:none;fill-rule:nonzero;fill:rgb(0%,0%,0%);fill-opacity:1;" d="M 133.726562 27.738281 C 126.710938 30.253906 126.523438 31.039062 132.5625 32.316406 C 135.976562 33.03125 138.226562 33.03125 143.25 32.277344 C 155.023438 30.550781 154.875 30.550781 158.136719 32.242188 C 161.4375 33.894531 162.039062 33.628906 160.011719 31.414062 C 158.886719 30.175781 158.886719 29.914062 160.050781 28.1875 C 161.4375 26.046875 160.988281 25.824219 158.25 27.398438 C 155.8125 28.789062 152.175781 28.824219 150.335938 27.4375 C 148.199219 25.785156 138.601562 25.972656 133.726562 27.738281 Z M 133.726562 27.738281 "/>
<path style=" stroke:none;fill-rule:nonzero;fill:rgb(0%,0%,0%);fill-opacity:1;" d="M 12 29.988281 C 3.488281 30.703125 0 32.015625 0 34.570312 C 0 37.496094 3.1875 38.660156 9.226562 37.910156 C 11.773438 37.609375 15.074219 37.234375 16.5 37.121094 C 17.960938 37.007812 20.625 36.558594 22.460938 36.144531 C 26.289062 35.320312 27.449219 35.46875 30.636719 37.082031 C 34.3125 38.996094 35.585938 38.734375 34.011719 36.332031 C 32.8125 34.53125 32.8125 34.269531 34.050781 32.203125 C 35.585938 29.613281 35.0625 29.5 31.199219 31.605469 C 27.824219 33.40625 24.488281 33.105469 21.523438 30.742188 C 20.476562 29.953125 19.199219 29.3125 18.636719 29.390625 C 18.074219 29.464844 15.113281 29.726562 12 29.988281 Z M 12 29.988281 "/>
<path style=" stroke:none;fill-rule:nonzero;fill:rgb(0%,0%,0%);fill-opacity:1;" d="M 48.5625 29.765625 C 44.289062 31.003906 51.636719 34.304688 60.148438 34.980469 C 65.136719 35.355469 67.011719 35.808594 67.949219 36.894531 C 69.601562 38.699219 70.726562 38.699219 70.164062 36.859375 C 69.863281 35.996094 70.125 35.28125 70.835938 35.019531 C 73.085938 34.15625 72.074219 33.105469 69.636719 33.816406 C 67.273438 34.492188 64.914062 33.78125 63.375 31.867188 C 62.210938 30.441406 51.449219 28.902344 48.5625 29.765625 Z M 48.5625 29.765625 "/>
<path style=" stroke:none;fill-rule:nonzero;fill:rgb(0%,0%,0%);fill-opacity:1;" d="M 208.5 36.070312 C 202.425781 36.59375 197.136719 38.171875 196.164062 39.75 C 195.039062 41.550781 203.664062 42.902344 210.523438 42 C 223.5 40.3125 223.648438 40.3125 224.324219 41.398438 C 224.773438 42.113281 224.960938 41.8125 225 40.347656 C 225 38.511719 224.738281 38.285156 222.5625 38.285156 C 221.210938 38.285156 219.113281 37.609375 217.875 36.785156 C 216.636719 35.957031 215.476562 35.355469 215.25 35.394531 C 215.0625 35.46875 212.023438 35.769531 208.5 36.070312 Z M 208.5 36.070312 "/>
<path style=" stroke:none;fill-rule:nonzero;fill:rgb(0%,0%,0%);fill-opacity:1;" d="M 148.273438 41.363281 C 143.738281 42.039062 134.773438 45.605469 135.335938 46.503906 C 136.835938 48.871094 146.699219 48.90625 154.875 46.542969 C 160.085938 45.078125 161.886719 44.964844 164.625 46.128906 C 168.414062 47.707031 169.238281 47.59375 167.585938 45.753906 C 166.386719 44.441406 166.351562 43.988281 167.136719 42.675781 C 168.449219 40.574219 167.8125 40.199219 165.113281 41.625 C 162.261719 43.089844 158.960938 43.125 157.085938 41.699219 C 155.476562 40.460938 154.574219 40.425781 148.273438 41.363281 Z M 148.273438 41.363281 "/>
<path style=" stroke:none;fill-rule:nonzero;fill:rgb(0%,0%,0%);fill-opacity:1;" d="M 73.835938 44.289062 C 71.925781 45.492188 71.0625 45.640625 68.960938 45.003906 C 65.550781 44.027344 60.449219 44.816406 56.0625 47.03125 C 48.5625 50.820312 54.675781 51.871094 65.585938 48.679688 C 69.074219 47.628906 71.738281 47.292969 73.761719 47.628906 C 76.3125 48.042969 76.613281 47.929688 75.824219 46.992188 C 75.113281 46.167969 75.113281 45.492188 75.710938 44.328125 C 76.726562 42.449219 76.6875 42.449219 73.835938 44.289062 Z M 73.835938 44.289062 "/>
<path style=" stroke:none;fill-rule:nonzero;fill:rgb(0%,0%,0%);fill-opacity:1;" d="M 113.738281 47.742188 C 109.875 49.769531 106.574219 49.695312 104.136719 47.519531 C 101.101562 44.851562 77.25 50.257812 79.085938 53.222656 C 80.476562 55.511719 89.511719 55.925781 98.25 54.085938 C 110.886719 51.382812 109.914062 51.460938 113.773438 53.109375 C 117.976562 54.949219 118.3125 54.835938 116.550781 52.171875 C 115.3125 50.296875 115.3125 50.070312 116.550781 47.96875 C 117.261719 46.765625 117.75 45.792969 117.601562 45.828125 C 117.488281 45.828125 115.761719 46.691406 113.738281 47.742188 Z M 113.738281 47.742188 "/>
<path style=" stroke:none;fill-rule:nonzero;fill:rgb(0%,0%,0%);fill-opacity:1;" d="M 25.273438 48.945312 C 18.75 50.707031 25.835938 53.636719 35.101562 52.996094 C 39.824219 52.621094 41.8125 52.808594 43.5 53.671875 C 46.238281 55.101562 46.574219 55.101562 46.011719 53.671875 C 45.789062 53.035156 46.050781 51.984375 46.574219 51.308594 C 47.476562 50.21875 47.289062 50.144531 44.398438 50.632812 C 42.113281 51.046875 40.726562 50.859375 39.523438 50.109375 C 37.351562 48.644531 28.835938 47.96875 25.273438 48.945312 Z M 25.273438 48.945312 "/>
<path style=" stroke:none;fill-rule:nonzero;fill:rgb(0%,0%,0%);fill-opacity:1;" d="M 179.851562 48.90625 C 169.386719 50.40625 175.050781 53.671875 187.085938 53.074219 C 192.863281 52.773438 195 52.921875 196.085938 53.75 C 198.113281 55.210938 198.9375 55.0625 198.039062 53.335938 C 197.511719 52.359375 197.511719 51.722656 198 51.421875 C 199.6875 50.371094 198.5625 49.695312 196.386719 50.445312 C 194.511719 51.121094 193.574219 51.046875 191.699219 50.070312 C 188.925781 48.644531 184.574219 48.230469 179.851562 48.90625 Z M 179.851562 48.90625 "/>
<path style=" stroke:none;fill-rule:nonzero;fill:rgb(0%,0%,0%);fill-opacity:1;" d="M 215.699219 55.964844 C 211.613281 57.503906 211.613281 57.539062 216.074219 58.890625 C 221.585938 60.503906 225 59.828125 225 57.125 C 225 54.648438 220.6875 54.125 215.699219 55.964844 Z M 215.699219 55.964844 "/>
<path style=" stroke:none;fill-rule:nonzero;fill:rgb(0%,0%,0%);fill-opacity:1;" d="M 158.25 58.890625 C 156.824219 59.453125 154.613281 60.28125 153.375 60.804688 L 151.125 61.667969 L 153.375 62.945312 C 155.773438 64.257812 168.710938 64.820312 171.074219 63.695312 C 173.773438 62.382812 178.164062 62.492188 181.273438 63.882812 C 185.324219 65.722656 185.664062 65.683594 184.273438 63.546875 C 183.226562 61.96875 183.226562 61.59375 184.199219 60.167969 C 185.550781 58.253906 184.6875 58.140625 181.238281 59.792969 C 178.761719 60.957031 178.5 60.917969 175.351562 59.417969 C 171.449219 57.539062 162.5625 57.277344 158.25 58.890625 Z M 158.25 58.890625 "/>
<path style=" stroke:none;fill-rule:nonzero;fill:rgb(0%,0%,0%);fill-opacity:1;" d="M 93.449219 60.128906 C 91.800781 61.441406 90.824219 61.628906 88.085938 61.21875 C 83.699219 60.542969 77.699219 62.304688 74.25 65.234375 L 71.625 67.484375 L 75.074219 67.523438 C 76.988281 67.5625 79.949219 67.074219 81.636719 66.472656 C 83.363281 65.871094 84.75 65.535156 84.75 65.722656 C 84.75 65.871094 86.101562 65.347656 87.75 64.484375 C 90.074219 63.246094 91.425781 63.019531 93.9375 63.46875 C 97.011719 63.957031 97.085938 63.957031 95.851562 62.570312 C 94.949219 61.554688 94.800781 60.84375 95.324219 59.867188 C 96.300781 58.140625 95.886719 58.214844 93.449219 60.128906 Z M 93.449219 60.128906 "/>
<path style=" stroke:none;fill-rule:nonzero;fill:rgb(0%,0%,0%);fill-opacity:1;" d="M 117.898438 61.480469 C 112.648438 63.28125 111.863281 64.144531 114.113281 65.421875 C 116.101562 66.546875 130.3125 66.960938 131.699219 65.910156 C 133.238281 64.785156 139.875 65.082031 142.425781 66.398438 C 145.273438 67.863281 145.988281 67.5625 144.675781 65.460938 C 143.886719 64.21875 143.886719 63.695312 144.710938 62.71875 C 146.25 60.878906 145.011719 60.390625 142.164062 61.742188 C 139.574219 63.019531 134.886719 62.457031 133.875 60.765625 C 133.085938 59.527344 122.175781 59.980469 117.898438 61.480469 Z M 117.898438 61.480469 "/>
<path style=" stroke:none;fill-rule:nonzero;fill:rgb(0%,0%,0%);fill-opacity:1;" d="M 14.4375 62.417969 C 7.199219 64.070312 14.773438 67.261719 24.1875 66.511719 C 29.625 66.097656 30.675781 66.210938 32.886719 67.5625 L 35.363281 69.101562 L 34.875 67.5625 C 34.613281 66.699219 34.800781 65.496094 35.289062 64.859375 C 36.113281 63.882812 35.8125 63.808594 33.113281 64.257812 C 30.9375 64.597656 29.511719 64.410156 28.3125 63.621094 C 26.0625 62.15625 18.449219 61.480469 14.4375 62.417969 Z M 14.4375 62.417969 "/>
<path style=" stroke:none;fill-rule:nonzero;fill:rgb(0%,0%,0%);fill-opacity:1;" d="M 60.375 67.597656 C 58.050781 69.175781 54.488281 69.101562 51.789062 67.410156 C 49.800781 66.171875 39.9375 67.785156 35.023438 70.226562 C 31.238281 72.066406 29.664062 73.492188 31.3125 73.605469 C 31.613281 73.605469 33.414062 73.941406 35.25 74.316406 C 38.960938 75.066406 49.5 73.828125 50.398438 72.515625 C 51 71.613281 59.4375 71.578125 62.625 72.441406 L 64.875 73.042969 L 63.414062 71.390625 C 62.210938 70 62.101562 69.476562 62.851562 68.273438 C 64.539062 65.570312 63.710938 65.347656 60.375 67.597656 Z M 60.375 67.597656 "/>
<path style=" stroke:none;fill-rule:nonzero;fill:rgb(0%,0%,0%);fill-opacity:1;" d="M 198.148438 69.964844 C 189.824219 71.503906 197.925781 75.894531 209.625 76.195312 C 213.75 76.304688 217.988281 76.457031 219.039062 76.496094 C 220.085938 76.53125 221.699219 77.246094 222.5625 78.070312 C 224.773438 80.136719 225 80.023438 225 76.570312 C 225 73.714844 224.886719 73.566406 223.125 74.015625 C 220.648438 74.617188 217.835938 73.867188 216.226562 72.140625 C 215.363281 71.238281 212.960938 70.414062 209.476562 69.886719 C 203.4375 68.949219 203.664062 68.949219 198.148438 69.964844 Z M 198.148438 69.964844 "/>
<path style=" stroke:none;fill-rule:nonzero;fill:rgb(0%,0%,0%);fill-opacity:1;" d="M 139.875 71.316406 C 135.75 71.914062 129.488281 74.769531 130.085938 75.742188 C 130.875 77.019531 135.675781 77.132812 140.324219 76.007812 C 142.949219 75.332031 147 74.804688 149.25 74.804688 C 153.261719 74.769531 153.375 74.730469 153.375 72.664062 C 153.375 70.300781 153.300781 70.261719 150.863281 71.613281 C 149.023438 72.589844 145.800781 72.402344 145.085938 71.238281 C 144.863281 70.863281 144.414062 70.601562 144.148438 70.640625 C 143.851562 70.714844 141.9375 71.015625 139.875 71.316406 Z M 139.875 71.316406 "/>
<path style=" stroke:none;fill-rule:nonzero;fill:rgb(0%,0%,0%);fill-opacity:1;" d="M 97.125 73.566406 C 86.699219 74.503906 82.835938 77.546875 89.585938 79.460938 C 93.226562 80.472656 93.5625 80.433594 109.011719 78.296875 C 110.960938 78.03125 112.648438 78.332031 114.414062 79.273438 C 117.148438 80.734375 118.539062 80.324219 117 78.484375 C 116.25 77.546875 116.289062 76.980469 117.300781 75.441406 C 118.761719 73.230469 118.574219 73.191406 114.898438 74.730469 C 111.789062 76.042969 107.925781 75.667969 106.5 73.90625 C 105.976562 73.304688 105 72.851562 104.363281 72.929688 C 103.6875 72.964844 100.425781 73.265625 97.125 73.566406 Z M 97.125 73.566406 "/>
<path style=" stroke:none;fill-rule:nonzero;fill:rgb(0%,0%,0%);fill-opacity:1;" d="M 171.414062 79.496094 C 164.25 80.585938 176.25 86.628906 187.460938 87.527344 C 191.851562 87.90625 195.523438 89.144531 196.011719 90.457031 C 196.800781 92.519531 199.800781 93.496094 199.273438 91.507812 C 198.9375 90.269531 199.3125 89.21875 200.476562 87.941406 L 202.125 86.140625 L 198.261719 86.664062 C 194.585938 87.191406 194.289062 87.078125 191.851562 84.640625 C 189.414062 82.199219 179.0625 78.597656 175.460938 78.933594 C 174.863281 78.972656 173.0625 79.234375 171.414062 79.496094 Z M 171.414062 79.496094 "/>
<path style=" stroke:none;fill-rule:nonzero;fill:rgb(0%,0%,0%);fill-opacity:1;" d="M 36 85.203125 C 33.75 86.476562 31.011719 86.628906 30.335938 85.539062 C 29.101562 83.511719 14.25 87.003906 14.25 89.292969 C 14.25 90.945312 20.8125 90.945312 27 89.292969 C 32.175781 87.90625 33.636719 87.753906 35.585938 88.46875 C 38.738281 89.59375 39.375 89.554688 38.289062 88.242188 C 37.800781 87.640625 37.613281 86.441406 37.875 85.613281 C 38.4375 83.8125 38.4375 83.8125 36 85.203125 Z M 36 85.203125 "/>
<path style=" stroke:none;fill-rule:nonzero;fill:rgb(0%,0%,0%);fill-opacity:1;" d="M 5.664062 86.664062 C 4.199219 87.304688 2.8125 87.453125 1.726562 87.003906 C 0.300781 86.476562 0 86.628906 0 87.828125 C 0 88.691406 0.488281 89.332031 1.164062 89.332031 C 1.800781 89.332031 3.976562 90.195312 6.039062 91.207031 C 9.863281 93.160156 10.5 93.007812 8.625 90.570312 C 7.726562 89.332031 7.726562 88.917969 8.738281 87.378906 C 10.125 85.277344 9.261719 85.089844 5.664062 86.664062 Z M 5.664062 86.664062 "/>
<path style=" stroke:none;fill-rule:nonzero;fill:rgb(0%,0%,0%);fill-opacity:1;" d="M 115.125 88.992188 C 109.460938 90.417969 108.898438 91.058594 111.488281 92.898438 C 116.324219 96.3125 120.9375 96.988281 139.425781 96.914062 C 143.625 96.875 144.636719 97.175781 147.261719 99.128906 C 151.351562 102.128906 152.664062 102.09375 151.085938 99.015625 C 149.925781 96.726562 149.925781 96.613281 151.949219 94.511719 C 154.386719 91.957031 153.488281 91.695312 148.425781 93.496094 C 144.75 94.773438 140.210938 93.609375 138 90.832031 C 136.6875 89.179688 135.1875 88.84375 126.261719 88.28125 C 121.613281 87.980469 118.273438 88.203125 115.125 88.992188 Z M 115.125 88.992188 "/>
<path style=" stroke:none;fill-rule:nonzero;fill:rgb(0%,0%,0%);fill-opacity:1;" d="M 42.148438 90.871094 C 36.710938 91.582031 28.613281 95 29.699219 96.085938 C 32.023438 98.414062 43.5 98.375 49.125 96.050781 C 51.863281 94.921875 56.773438 94.773438 58.574219 95.785156 C 61.648438 97.511719 63.5625 97.214844 61.835938 95.296875 C 60.636719 93.984375 60.601562 93.535156 61.386719 92.222656 C 62.8125 89.96875 61.914062 89.707031 58.914062 91.46875 C 56.023438 93.160156 52.5 93.007812 50.925781 91.132812 C 49.988281 90.007812 49.199219 89.96875 42.148438 90.871094 Z M 42.148438 90.871094 "/>
<path style=" stroke:none;fill-rule:nonzero;fill:rgb(0%,0%,0%);fill-opacity:1;" d="M 207 99.050781 C 204.75 99.804688 202.914062 100.667969 202.949219 101.042969 C 203.136719 103.40625 214.574219 105.019531 222.5625 103.78125 C 225.1875 103.40625 226.125 100.140625 224.0625 98.527344 C 222.488281 97.25 211.5 97.589844 207 99.050781 Z M 207 99.050781 "/>
<path style=" stroke:none;fill-rule:nonzero;fill:rgb(0%,0%,0%);fill-opacity:1;" d="M 167.25 99.164062 C 161.925781 100.816406 170.476562 103.667969 180.074219 103.445312 C 183.601562 103.367188 185.511719 103.707031 186.789062 104.605469 C 189.039062 106.144531 190.238281 106.222656 189 104.71875 C 188.210938 103.78125 188.289062 103.292969 189.375 102.09375 C 190.949219 100.367188 190.949219 100.367188 187.574219 101.304688 C 185.136719 102.015625 182.511719 101.339844 181.5 99.765625 C 180.824219 98.789062 170.0625 98.339844 167.25 99.164062 Z M 167.25 99.164062 "/>
<path style=" stroke:none;fill-rule:nonzero;fill:rgb(0%,0%,0%);fill-opacity:1;" d="M 67.648438 100.367188 C 56.664062 103.632812 69.675781 106.519531 86.550781 104.605469 C 89.4375 104.269531 90.789062 104.53125 93.148438 105.847656 C 96.261719 107.609375 97.613281 107.421875 96 105.46875 C 95.25 104.53125 95.210938 103.894531 95.925781 102.355469 C 96.75 100.515625 96.710938 100.441406 95.101562 101.003906 C 91.988281 102.054688 87.1875 101.753906 85.6875 100.402344 C 83.8125 98.714844 73.351562 98.714844 67.648438 100.367188 Z M 67.648438 100.367188 "/>
<path style=" stroke:none;fill-rule:nonzero;fill:rgb(0%,0%,0%);fill-opacity:1;" d="M 9 101.078125 C 0.824219 102.769531 11.664062 107.046875 24.636719 107.234375 C 31.539062 107.382812 32.699219 107.574219 35.136719 109.261719 C 37.835938 111.101562 39.261719 110.613281 37.460938 108.4375 C 36.710938 107.496094 36.863281 106.933594 38.324219 105.320312 C 39.9375 103.554688 39.976562 103.40625 38.625 103.929688 C 34.460938 105.546875 31.085938 105.28125 28.648438 103.21875 C 26.175781 101.152344 14.738281 99.914062 9 101.078125 Z M 9 101.078125 "/>
<path style=" stroke:none;fill-rule:nonzero;fill:rgb(0%,0%,0%);fill-opacity:1;" d="M 134.625 107.648438 C 123.226562 110.386719 128.136719 112.976562 144.75 112.976562 C 154.460938 112.976562 156.789062 113.203125 158.8125 114.328125 C 161.25 115.640625 162.039062 115.191406 160.351562 113.503906 C 159.601562 112.753906 159.601562 112.226562 160.386719 111.027344 C 161.699219 108.921875 161.023438 108.472656 158.289062 109.597656 C 155.886719 110.574219 152.625 110.125 150.75 108.511719 C 149.136719 107.121094 139.085938 106.597656 134.625 107.648438 Z M 134.625 107.648438 "/>
<path style=" stroke:none;fill-rule:nonzero;fill:rgb(0%,0%,0%);fill-opacity:1;" d="M 0 111.851562 C 0 114.289062 0.898438 114.554688 7.613281 114.140625 C 9.113281 114.066406 11.398438 114.515625 12.636719 115.152344 C 15.523438 116.65625 16.011719 116.65625 15.449219 115.117188 C 15.1875 114.480469 15.375 113.425781 15.863281 112.828125 C 16.648438 111.890625 16.386719 111.8125 13.949219 112.265625 C 11.699219 112.675781 10.6875 112.488281 8.960938 111.214844 C 5.363281 108.546875 0 108.921875 0 111.851562 Z M 0 111.851562 "/>
<path style=" stroke:none;fill-rule:nonzero;fill:rgb(0%,0%,0%);fill-opacity:1;" d="M 174.375 110.085938 C 167.210938 112.039062 177.601562 116.429688 189.488281 116.46875 C 196.6875 116.46875 197.363281 116.582031 200.398438 118.605469 C 203.960938 121.007812 204.523438 121.007812 203.25 118.605469 C 202.5 117.21875 202.648438 116.691406 204.074219 115.152344 C 205.949219 113.128906 205.648438 113.015625 201.523438 114.140625 C 198.148438 115.078125 196.085938 114.554688 193.875 112.152344 C 192.226562 110.351562 178.613281 108.921875 174.375 110.085938 Z M 174.375 110.085938 "/>
<path style=" stroke:none;fill-rule:nonzero;fill:rgb(0%,0%,0%);fill-opacity:1;" d="M 105 117.105469 C 102.75 118.871094 100.125 118.984375 97.164062 117.445312 C 93.226562 115.378906 77.0625 119.507812 75.9375 122.886719 C 75.039062 125.625 88.988281 125.027344 95.175781 122.097656 C 97.199219 121.121094 103.425781 121.085938 106.875 121.984375 L 109.125 122.585938 L 107.664062 120.933594 C 106.460938 119.546875 106.351562 119.019531 107.101562 117.820312 C 108.789062 115.152344 107.886719 114.855469 105 117.105469 Z M 105 117.105469 "/>
<path style=" stroke:none;fill-rule:nonzero;fill:rgb(0%,0%,0%);fill-opacity:1;" d="M 59.738281 119.058594 C 56.585938 121.195312 52.613281 121.121094 50.101562 118.832031 C 49.199219 118.042969 48.148438 117.855469 46.726562 118.230469 C 45.5625 118.53125 42.488281 119.058594 39.863281 119.359375 C 35.210938 119.957031 25.5 124.011719 25.5 125.363281 C 25.5 128.179688 42.5625 127.914062 49.125 124.988281 C 53.136719 123.1875 56.4375 122.960938 59.398438 124.199219 C 63.824219 126.039062 64.949219 125.777344 63.039062 123.375 C 61.613281 121.535156 61.574219 121.234375 62.625 119.660156 C 64.726562 116.429688 63.824219 116.28125 59.738281 119.058594 Z M 59.738281 119.058594 "/>
<path style=" stroke:none;fill-rule:nonzero;fill:rgb(0%,0%,0%);fill-opacity:1;" d="M 136.125 126.078125 C 133.648438 126.375 130.273438 127.316406 128.625 128.179688 L 125.664062 129.71875 L 129.414062 130.804688 C 133.386719 132.007812 140.210938 131.820312 142.988281 130.46875 C 144.601562 129.679688 149.625 129.941406 153 131.03125 C 154.648438 131.554688 154.761719 131.480469 153.898438 130.429688 C 153.113281 129.453125 153.074219 128.855469 153.789062 127.539062 C 154.613281 126 154.539062 125.925781 152.886719 126.453125 C 148.835938 127.726562 146.925781 127.765625 145.164062 126.566406 C 143.175781 125.289062 143.101562 125.289062 136.125 126.078125 Z M 136.125 126.078125 "/>
<path style=" stroke:none;fill-rule:nonzero;fill:rgb(0%,0%,0%);fill-opacity:1;" d="M 192.5625 127.128906 C 182.550781 129.941406 192.824219 133.882812 209.773438 133.769531 C 219.226562 133.734375 220.648438 133.882812 222.261719 135.160156 C 224.8125 137.148438 225 137.035156 225 133.621094 C 225 130.730469 224.960938 130.65625 222.75 131.105469 C 220.164062 131.632812 216.148438 130.167969 214.460938 128.140625 C 212.960938 126.265625 198.074219 125.589844 192.5625 127.128906 Z M 192.5625 127.128906 "/>
<path style=" stroke:none;fill-rule:nonzero;fill:rgb(0%,0%,0%);fill-opacity:1;" d="M 115.5 131.40625 C 113.4375 132.984375 109.5 133.320312 108.226562 132.042969 C 106.648438 130.46875 91.5 135.347656 91.5 137.375 C 91.5 139.8125 101.0625 139.0625 107.8125 136.136719 C 110.699219 134.859375 113.585938 134.632812 116.625 135.496094 C 118.800781 136.0625 118.835938 136.0625 117.601562 134.671875 C 116.664062 133.621094 116.550781 132.90625 117.113281 131.855469 C 118.199219 129.90625 117.636719 129.753906 115.5 131.40625 Z M 115.5 131.40625 "/>
<path style=" stroke:none;fill-rule:nonzero;fill:rgb(0%,0%,0%);fill-opacity:1;" d="M 43.050781 134.371094 C 39.710938 136.886719 35.8125 137.300781 33.113281 135.421875 C 29.476562 132.871094 5.175781 141.351562 7.988281 144.167969 C 9.636719 145.820312 17.738281 145.855469 23.101562 144.242188 C 25.988281 143.34375 29.023438 142.628906 29.851562 142.628906 C 30.710938 142.628906 31.5 142.292969 31.648438 141.839844 C 32.289062 139.925781 39.898438 138.875 43.613281 140.1875 C 47.738281 141.652344 49.199219 140.941406 46.539062 138.761719 C 44.886719 137.410156 44.773438 137.035156 45.601562 134.933594 C 46.761719 131.820312 46.5 131.746094 43.050781 134.371094 Z M 43.050781 134.371094 "/>
<path style=" stroke:none;fill-rule:nonzero;fill:rgb(0%,0%,0%);fill-opacity:1;" d="M 167.25 136.625 C 157.835938 137.710938 154.3125 140.378906 160.386719 141.839844 C 163.988281 142.703125 164.773438 142.667969 177.449219 140.601562 C 178.835938 140.378906 180.75 140.714844 182.101562 141.429688 C 185.023438 142.929688 185.699219 142.96875 184.5 141.464844 C 183.75 140.601562 183.710938 139.890625 184.386719 138.460938 C 185.363281 136.285156 185.289062 136.25 181.988281 137.863281 C 179.511719 139.027344 179.25 138.988281 176.101562 137.488281 C 174.261719 136.585938 172.613281 135.910156 172.460938 135.984375 C 172.273438 136.023438 169.949219 136.324219 167.25 136.625 Z M 167.25 136.625 "/>
<path style=" stroke:none;fill-rule:nonzero;fill:rgb(0%,0%,0%);fill-opacity:1;" d="M 59.363281 138.761719 C 53.363281 140.453125 66.1875 145.03125 79.351562 145.894531 C 82.613281 146.121094 84.636719 146.683594 85.726562 147.660156 C 90 151.375 90.261719 151.449219 89.664062 148.785156 C 89.210938 146.757812 89.4375 146.082031 90.863281 144.882812 C 92.851562 143.230469 92.398438 143.117188 88.164062 144.09375 C 84.976562 144.84375 81.675781 143.71875 80.398438 141.429688 C 79.085938 139.101562 64.6875 137.261719 59.363281 138.761719 Z M 59.363281 138.761719 "/>
<path style=" stroke:none;fill-rule:nonzero;fill:rgb(0%,0%,0%);fill-opacity:1;" d="M 132.375 141.914062 C 129.488281 142.179688 125.625 143.042969 123.75 143.90625 L 120.375 145.445312 L 123.148438 146.683594 C 126.636719 148.183594 128.476562 148.183594 137.0625 146.71875 C 143.324219 145.632812 144.074219 145.632812 146.25 146.757812 C 148.875 148.109375 149.960938 147.769531 148.539062 146.082031 C 147.863281 145.257812 147.863281 144.582031 148.460938 143.417969 C 149.476562 141.539062 149.289062 141.539062 145.949219 143.117188 C 143.511719 144.28125 143.210938 144.28125 140.511719 142.890625 C 138.148438 141.726562 136.648438 141.539062 132.375 141.914062 Z M 132.375 141.914062 "/>
<path style=" stroke:none;fill-rule:nonzero;fill:rgb(0%,0%,0%);fill-opacity:1;" d="M 210.449219 149.011719 C 207.261719 151.148438 203.886719 151.410156 200.625 149.683594 C 199.125 148.933594 197.476562 148.671875 195.75 148.972656 C 194.324219 149.234375 191.136719 149.761719 188.738281 150.210938 C 184.460938 150.925781 176.101562 154.566406 175.125 156.140625 C 173.851562 158.207031 184.460938 159.519531 189.710938 157.941406 C 191.585938 157.378906 194.101562 156.890625 195.300781 156.890625 C 196.539062 156.890625 198.148438 156.292969 198.9375 155.578125 C 200.550781 154.113281 208.238281 153.777344 213 154.976562 L 215.625 155.617188 L 213.898438 153.738281 C 212.4375 152.125 212.324219 151.5625 213 149.761719 C 214.085938 146.90625 213.675781 146.796875 210.449219 149.011719 Z M 210.449219 149.011719 "/>
<path style=" stroke:none;fill-rule:nonzero;fill:rgb(0%,0%,0%);fill-opacity:1;" d="M 36.1875 153.964844 C 33.601562 154.789062 31.5 155.726562 31.5 156.027344 C 31.5 159.105469 49.914062 161.433594 55.914062 159.105469 C 59.25 157.867188 63 158.316406 66.789062 160.421875 C 70.613281 162.597656 72.375 162.371094 70.238281 160.042969 C 68.625 158.242188 68.664062 157.71875 70.613281 155.617188 C 72.5625 153.589844 71.664062 153.4375 67.460938 155.128906 C 64.085938 156.480469 59.585938 155.726562 57.75 153.515625 C 56.289062 151.75 42.226562 152.050781 36.1875 153.964844 Z M 36.1875 153.964844 "/>
<path style=" stroke:none;fill-rule:nonzero;fill:rgb(0%,0%,0%);fill-opacity:1;" d="M 93.375 155.726562 C 91.726562 156.214844 89.550781 157.078125 88.5 157.644531 L 86.625 158.65625 L 88.875 159.632812 C 91.875 160.90625 95.8125 160.871094 103.386719 159.558594 C 108.898438 158.582031 109.914062 158.582031 111.789062 159.558594 C 114.789062 161.097656 115.726562 160.945312 114.5625 159.144531 C 113.8125 157.941406 113.8125 157.34375 114.5625 156.140625 C 115.6875 154.339844 115.539062 154.300781 112.761719 155.765625 C 110.101562 157.15625 108.9375 157.15625 106.273438 155.804688 C 103.800781 154.488281 97.574219 154.453125 93.375 155.726562 Z M 93.375 155.726562 "/>
<path style=" stroke:none;fill-rule:nonzero;fill:rgb(0%,0%,0%);fill-opacity:1;" d="M 165.1875 160.683594 C 162.675781 162.933594 159.414062 163.574219 156.898438 162.222656 C 153.976562 160.683594 137.25 168.414062 137.25 171.265625 C 137.25 173.480469 152.8125 170.367188 156.300781 167.476562 C 158.4375 165.675781 163.648438 164.550781 166.386719 165.300781 C 169.351562 166.125 170.4375 165.449219 168.488281 164.023438 C 167.4375 163.234375 167.210938 162.445312 167.625 160.683594 C 168.226562 157.90625 168.226562 157.90625 165.1875 160.683594 Z M 165.1875 160.683594 "/>
<path style=" stroke:none;fill-rule:nonzero;fill:rgb(0%,0%,0%);fill-opacity:1;" d="M 3.9375 161.960938 C 1.011719 162.785156 0 163.460938 0 164.472656 C 0 166.011719 5.101562 167.777344 7.425781 167.0625 C 11.585938 165.710938 21.75 165.261719 24.636719 166.277344 C 26.25 166.800781 26.324219 166.726562 25.613281 165.375 C 25.011719 164.25 25.085938 163.496094 25.949219 162.257812 C 27.300781 160.34375 26.925781 160.269531 23.925781 161.808594 C 21.636719 163.011719 16.5 162.632812 16.5 161.320312 C 16.5 160.308594 8.398438 160.71875 3.9375 161.960938 Z M 3.9375 161.960938 "/>
<path style=" stroke:none;fill-rule:nonzero;fill:rgb(0%,0%,0%);fill-opacity:1;" d="M 219 167.402344 C 216.863281 169.089844 213.414062 169.277344 210.863281 167.890625 C 207.898438 166.238281 192.074219 171.003906 190.164062 174.121094 C 188.511719 176.746094 199.5 176.335938 208.164062 173.445312 C 215.324219 171.042969 218.136719 170.816406 222.488281 172.394531 C 223.6875 172.84375 223.648438 172.65625 222.226562 171.078125 C 221.0625 169.765625 220.761719 168.941406 221.289062 168.152344 C 222.898438 165.5625 221.773438 165.222656 219 167.402344 Z M 219 167.402344 "/>
<path style=" stroke:none;fill-rule:nonzero;fill:rgb(0%,0%,0%);fill-opacity:1;" d="M 126.898438 167.925781 C 124.914062 169.316406 121.199219 169.390625 118.726562 168.078125 C 114.863281 165.976562 95.664062 171.117188 98.136719 173.59375 C 100.164062 175.621094 112.539062 175.246094 117.375 172.992188 C 119.136719 172.167969 126.1875 172.167969 129.375 173.03125 L 131.625 173.59375 L 129.9375 171.792969 C 128.398438 170.105469 128.363281 169.839844 129.414062 168.300781 C 130.835938 166.277344 129.523438 166.085938 126.898438 167.925781 Z M 126.898438 167.925781 "/>
<path style=" stroke:none;fill-rule:nonzero;fill:rgb(0%,0%,0%);fill-opacity:1;" d="M 83.4375 169.652344 C 80.476562 171.457031 79.351562 171.53125 76.125 169.992188 C 71.851562 167.925781 54 171.980469 54 175.019531 C 54 176.296875 62.101562 177.386719 65.511719 176.523438 C 67.386719 176.035156 69.9375 175.660156 71.210938 175.660156 C 72.449219 175.660156 73.5 175.359375 73.5 174.945312 C 73.5 173.59375 81.300781 173.183594 84.226562 174.421875 C 87.1875 175.660156 87.5625 175.359375 85.875 173.144531 C 84.976562 171.90625 84.976562 171.492188 85.988281 169.953125 C 87.414062 167.777344 86.664062 167.664062 83.4375 169.652344 Z M 83.4375 169.652344 "/>
<path style=" stroke:none;fill-rule:nonzero;fill:rgb(0%,0%,0%);fill-opacity:1;" d="M 175.050781 175.285156 C 172.988281 177.574219 172.273438 177.910156 169.199219 177.910156 C 167.023438 177.910156 164.925781 178.4375 163.648438 179.300781 C 162.523438 180.050781 160.164062 181.625 158.398438 182.789062 C 155.023438 185.003906 150.261719 190.410156 151.011719 191.160156 C 152.625 192.773438 166.386719 186.695312 168.675781 183.351562 C 170.324219 180.988281 174.75 178.738281 178.125 178.511719 C 181.726562 178.25 181.800781 178.210938 179.851562 177.386719 C 178.574219 176.824219 177.789062 175.808594 177.601562 174.570312 L 177.375 172.65625 Z M 175.050781 175.285156 "/>
<path style=" stroke:none;fill-rule:nonzero;fill:rgb(0%,0%,0%);fill-opacity:1;" d="M 24.039062 174.945312 C 18.675781 176.859375 17.960938 177.648438 20.699219 178.699219 C 22.949219 179.5625 33.789062 179.261719 36.226562 178.285156 C 37.726562 177.648438 43.835938 178.171875 46.011719 179.074219 C 47.289062 179.5625 47.324219 179.449219 46.5 177.949219 C 45.863281 176.710938 45.824219 176.035156 46.425781 175.433594 C 48.039062 173.820312 47.210938 173.371094 44.925781 174.570312 C 42.488281 175.847656 37.5 175.546875 37.5 174.121094 C 37.5 172.84375 28.3125 173.40625 24.039062 174.945312 Z M 24.039062 174.945312 "/>
<path style=" stroke:none;fill-rule:nonzero;fill:rgb(0%,0%,0%);fill-opacity:1;" d="M 141.039062 179 C 139.460938 180.6875 138.636719 180.953125 135.039062 180.839844 C 128.664062 180.613281 116.550781 186.617188 118.125 189.171875 C 118.835938 190.335938 124.949219 189.472656 128.175781 187.820312 C 129.898438 186.917969 131.773438 186.167969 132.414062 186.167969 C 133.011719 186.167969 133.5 185.867188 133.5 185.492188 C 133.5 184.140625 139.5 182.414062 142.726562 182.828125 C 145.460938 183.203125 145.726562 183.128906 144.636719 182.226562 C 143.925781 181.664062 143.25 180.277344 143.136719 179.113281 L 142.875 177.011719 Z M 141.039062 179 "/>
<path style=" stroke:none;fill-rule:nonzero;fill:rgb(0%,0%,0%);fill-opacity:1;" d="M 207.375 186.167969 C 203.585938 189.433594 199.539062 190.109375 196.125 187.96875 C 194.925781 187.21875 194.0625 187.257812 191.625 188.15625 C 189.976562 188.796875 187.164062 189.585938 185.363281 189.960938 C 179.851562 191.121094 168.300781 198.667969 169.761719 200.167969 C 170.886719 201.292969 181.6875 200.730469 185.25 199.34375 C 187.125 198.628906 189.976562 197.652344 191.625 197.203125 C 193.273438 196.714844 194.886719 195.925781 195.1875 195.4375 C 196.3125 193.675781 205.460938 191.160156 207.488281 192.097656 C 208.5 192.550781 210.414062 192.925781 211.726562 192.886719 L 214.125 192.886719 L 211.949219 190.972656 C 209.925781 189.171875 209.851562 188.871094 210.601562 186.320312 C 211.761719 182.640625 211.460938 182.640625 207.375 186.167969 Z M 207.375 186.167969 "/>
<path style=" stroke:none;fill-rule:nonzero;fill:rgb(0%,0%,0%);fill-opacity:1;" d="M 104.625 185.457031 C 102.226562 187.105469 96.976562 186.957031 95.886719 185.230469 C 95.511719 184.628906 94.351562 184.628906 91.386719 185.269531 C 89.175781 185.71875 86.210938 186.320312 84.75 186.542969 C 81.039062 187.105469 73.835938 191.3125 74.886719 192.363281 C 76.914062 194.386719 89.324219 193.5625 94.5 191.011719 C 97.914062 189.359375 102.1875 189.019531 105.5625 190.222656 C 108.976562 191.421875 109.425781 191.199219 107.550781 189.097656 C 106.648438 188.082031 106.574219 187.445312 107.175781 186.28125 C 108.710938 183.429688 107.960938 183.164062 104.625 185.457031 Z M 104.625 185.457031 "/>
<path style=" stroke:none;fill-rule:nonzero;fill:rgb(0%,0%,0%);fill-opacity:1;" d="M 11.398438 191.875 C 9.226562 192.4375 6.523438 193.414062 5.398438 193.976562 L 3.375 195.0625 L 7.125 196.828125 C 11.023438 198.628906 27.75 199.644531 27.75 198.066406 C 27.75 196.492188 36.5625 197.429688 40.085938 199.378906 C 43.800781 201.480469 45.300781 201.332031 43.238281 199.082031 C 41.699219 197.355469 41.699219 196.753906 43.199219 195.101562 C 45.300781 192.773438 44.0625 192.136719 40.574219 193.710938 C 36.898438 195.363281 33.375 194.839844 30.375 192.175781 C 28.460938 190.484375 17.324219 190.296875 11.398438 191.875 Z M 11.398438 191.875 "/>
<path style=" stroke:none;fill-rule:nonzero;fill:rgb(0%,0%,0%);fill-opacity:1;" d="M 123 197.839844 C 119.851562 199.945312 115.085938 200.207031 112.574219 198.441406 C 111.113281 197.429688 110.210938 197.355469 106.988281 198.027344 C 104.851562 198.480469 101.773438 199.042969 100.125 199.304688 C 97.125 199.792969 87 204.671875 87 205.609375 C 87 207.601562 97.238281 208.386719 102.449219 206.8125 C 104.476562 206.210938 107.023438 205.6875 108.148438 205.6875 C 109.238281 205.6875 110.363281 205.386719 110.585938 204.972656 C 111.636719 203.285156 119.023438 202.570312 123.074219 203.773438 C 127.6875 205.125 128.363281 204.824219 126.074219 202.382812 C 124.648438 200.882812 124.5 200.320312 125.25 198.96875 C 126.601562 196.378906 125.8125 195.964844 123 197.839844 Z M 123 197.839844 "/>
<path style=" stroke:none;fill-rule:nonzero;fill:rgb(0%,0%,0%);fill-opacity:1;" d="M 70.273438 206.210938 C 67.085938 208.425781 63.113281 208.6875 60.335938 206.851562 C 56.925781 204.597656 36.675781 210.789062 35.4375 214.46875 C 34.761719 216.496094 45.414062 217.097656 50.8125 215.332031 C 53.101562 214.542969 55.761719 213.945312 56.738281 213.945312 C 57.710938 213.945312 58.5 213.644531 58.5 213.230469 C 58.5 211.617188 66.789062 210.753906 70.988281 211.953125 C 75.226562 213.15625 75.9375 212.78125 73.539062 210.601562 C 72.1875 209.363281 72.148438 209.0625 73.164062 207.148438 C 75.039062 203.507812 74.511719 203.320312 70.273438 206.210938 Z M 70.273438 206.210938 "/>
<path style=" stroke:none;fill-rule:nonzero;fill:rgb(0%,0%,0%);fill-opacity:1;" d="M 219.75 205.6875 C 217.726562 207.261719 213.789062 207.675781 212.511719 206.398438 C 211.351562 205.234375 201.636719 208.050781 197.886719 210.640625 C 191.550781 215.03125 203.925781 214.996094 212.25 210.601562 C 215.175781 209.0625 218.398438 208.613281 221.0625 209.363281 C 223.613281 210.113281 224.398438 209.289062 222.300781 208.089844 C 221.289062 207.523438 221.25 207.113281 221.925781 205.796875 C 223.011719 203.808594 222.226562 203.773438 219.75 205.6875 Z M 219.75 205.6875 "/>
<path style=" stroke:none;fill-rule:nonzero;fill:rgb(0%,0%,0%);fill-opacity:1;" d="M 157.949219 207.1875 C 155.925781 208.5 154.648438 208.578125 151.5 207.5625 C 148.425781 206.585938 134.25 211.917969 134.25 214.054688 C 134.25 215.257812 140.101562 215.445312 143.625 214.355469 C 145.6875 213.71875 148.125 213.191406 149.0625 213.191406 C 150 213.191406 150.75 212.894531 150.75 212.515625 C 150.75 209.328125 161.511719 210.039062 163.199219 213.34375 C 164.664062 216.121094 167.289062 215.96875 168.300781 213.042969 C 169.761719 208.839844 165.523438 204.933594 163.5 208.652344 C 162.414062 210.753906 160.238281 209.816406 160.835938 207.449219 C 161.363281 205.386719 160.875 205.3125 157.949219 207.1875 Z M 166.875 211.390625 C 166.875 213.492188 166.574219 214.320312 165.75 214.320312 C 164.550781 214.320312 163.800781 210.902344 164.585938 208.953125 C 165.375 206.8125 166.875 208.386719 166.875 211.390625 Z M 166.875 211.390625 "/>
<path style=" stroke:none;fill-rule:nonzero;fill:rgb(0%,0%,0%);fill-opacity:1;" d="M 170.101562 209.402344 C 169.800781 211.429688 169.949219 211.617188 171.488281 211.203125 C 173.511719 210.714844 174.75 212.742188 173.324219 214.167969 C 172.6875 214.808594 172.085938 214.808594 170.886719 214.054688 C 169.613281 213.230469 169.386719 213.269531 169.648438 214.054688 C 170.175781 215.632812 173.398438 215.78125 174.488281 214.28125 C 175.726562 212.59375 174.523438 210.191406 172.425781 210.191406 C 171.523438 210.191406 171 209.816406 171.1875 209.25 C 171.375 208.726562 172.050781 208.3125 172.6875 208.3125 C 173.363281 208.3125 174.148438 208.050781 174.449219 207.75 C 174.75 207.449219 173.960938 207.1875 172.726562 207.1875 C 170.738281 207.1875 170.363281 207.488281 170.101562 209.402344 Z M 170.101562 209.402344 "/>
<path style=" stroke:none;fill-rule:nonzero;fill:rgb(0%,0%,0%);fill-opacity:1;" d="M 176.851562 208.089844 C 175.648438 211.652344 176.625 215.070312 178.875 215.070312 C 182.175781 215.070312 182.4375 207.714844 179.175781 207.335938 C 178.050781 207.1875 177.039062 207.523438 176.851562 208.089844 Z M 180.5625 213.003906 C 180.976562 214.242188 178.613281 215.105469 177.601562 214.09375 C 177.1875 213.679688 177.074219 212.929688 177.375 212.480469 C 178.011719 211.390625 180.148438 211.765625 180.5625 213.003906 Z M 180.5625 213.003906 "/>
<path style=" stroke:none;fill-rule:nonzero;fill:rgb(0%,0%,0%);fill-opacity:1;" d="M 187.648438 211.128906 L 187.5 215.445312 L 190.3125 215.332031 C 193.011719 215.21875 193.050781 215.183594 190.726562 214.917969 C 188.398438 214.621094 188.324219 214.46875 188.0625 210.714844 L 187.761719 206.8125 Z M 187.648438 211.128906 "/>
</g>
</svg>
