<?xml version="1.0" encoding="UTF-8"?>
<svg xmlns="http://www.w3.org/2000/svg" xmlns:xlink="http://www.w3.org/1999/xlink" width="675pt" height="349pt" viewBox="0 0 675 349" version="1.1">
<g id="surface1">
<path style=" stroke:none;fill-rule:nonzero;fill:rgb(0%,0%,0%);fill-opacity:1;" d="M 62.175781 54.585938 C 54.601562 54.8125 53.25 55.039062 52.125 56.316406 C 50.851562 57.742188 50.851562 57.964844 51.976562 60.292969 C 52.574219 61.570312 53.699219 64.199219 54.375 66.074219 C 55.050781 67.953125 55.949219 70.054688 56.324219 70.730469 C 57.148438 72.457031 57.226562 74.335938 56.324219 74.335938 C 55.949219 74.335938 52.949219 72.832031 49.574219 70.957031 C 43.5 67.578125 41.023438 66.902344 40.125 68.328125 C 39.824219 68.777344 41.25 72.382812 43.199219 76.4375 C 53.925781 98.589844 73.574219 138.683594 74.175781 139.660156 C 76.125 142.738281 89.25 169.84375 89.25 170.746094 C 89.25 171.269531 95.699219 180.054688 96.75 180.957031 C 96.976562 181.183594 101.550781 186.363281 106.875 192.597656 C 117.824219 205.285156 120.75 208.589844 126.976562 215.195312 C 129.300781 217.675781 131.25 220.152344 131.25 220.679688 C 131.25 221.128906 130.425781 222.855469 129.375 224.507812 C 128.324219 226.160156 126.300781 229.613281 124.949219 232.242188 C 123.523438 234.792969 120.824219 239.601562 118.949219 242.902344 C 115.351562 249.136719 114.898438 251.539062 116.175781 256.792969 C 116.550781 258.222656 117.523438 261.976562 118.351562 265.054688 C 119.175781 268.132812 120 271.960938 120.300781 273.464844 C 121.050781 277.441406 123.148438 277.21875 129.300781 272.710938 C 139.199219 265.503906 146.773438 260.097656 153.523438 255.59375 C 157.273438 253.039062 161.324219 250.035156 162.523438 248.984375 C 163.648438 247.933594 164.925781 247.03125 165.375 247.03125 C 165.75 247.109375 168.148438 248.234375 170.625 249.660156 C 174.675781 251.988281 233.625 281.574219 254.925781 291.933594 C 259.574219 294.261719 263.773438 296.441406 264.300781 296.890625 C 264.75 297.339844 267.300781 298.84375 270 300.269531 C 281.175781 306.050781 289.050781 310.253906 290.699219 311.382812 C 291.824219 312.132812 293.175781 312.359375 294.449219 312.058594 C 296.175781 311.605469 296.324219 311.230469 295.949219 309.503906 C 295.648438 308.378906 295.050781 305.449219 294.675781 302.972656 C 294.226562 300.496094 293.398438 297.039062 292.726562 295.3125 C 292.125 293.585938 291.75 291.558594 292.050781 290.882812 C 292.425781 289.832031 292.800781 289.90625 294.976562 291.484375 C 297.675781 293.585938 313.875 303.347656 314.550781 303.347656 C 314.773438 303.347656 318 305.226562 321.75 307.476562 C 325.5 309.730469 328.800781 311.605469 329.175781 311.605469 C 329.550781 311.605469 330.675781 312.28125 331.800781 313.183594 C 333.074219 314.160156 334.273438 314.535156 335.324219 314.234375 C 336.675781 313.785156 336.824219 313.257812 336.523438 310.632812 C 335.023438 299.066406 334.574219 293.210938 335.101562 292.761719 C 335.398438 292.460938 337.351562 291.859375 339.375 291.410156 C 344.550781 290.359375 349.949219 289.007812 365.625 284.953125 C 379.800781 281.273438 385.648438 279.769531 391.875 278.34375 C 393.976562 277.820312 396 277.21875 396.375 276.992188 C 396.824219 276.691406 398.324219 276.242188 399.75 275.941406 C 401.175781 275.714844 404.101562 274.964844 406.125 274.441406 C 408.226562 273.839844 412.050781 272.863281 414.75 272.1875 C 417.449219 271.511719 421.273438 270.460938 423.300781 269.859375 C 425.25 269.257812 427.5 268.808594 428.175781 268.808594 C 428.851562 268.808594 430.726562 268.28125 432.375 267.683594 C 437.101562 266.03125 440.175781 266.332031 447 269.257812 C 450.523438 270.761719 454.574219 272.488281 456 273.089844 C 457.425781 273.6875 459.300781 274.441406 460.125 274.816406 C 466.273438 277.519531 469.050781 278.570312 469.800781 278.570312 C 470.625 278.570312 474.074219 275.640625 487.050781 263.925781 C 491.101562 260.171875 496.875 255.140625 499.800781 252.664062 C 502.726562 250.1875 505.800781 247.484375 506.625 246.65625 C 507.449219 245.832031 509.625 243.804688 511.5 242.226562 C 513.375 240.574219 517.050781 237.195312 519.75 234.71875 C 522.449219 232.167969 525.898438 229.164062 527.476562 227.960938 C 528.976562 226.761719 530.25 225.109375 530.25 224.355469 C 530.25 222.855469 529.5 222.480469 522 220.226562 C 519.375 219.402344 517.125 218.425781 516.976562 218.050781 C 516.824219 217.675781 519.375 214.597656 522.523438 211.292969 C 528.375 205.359375 546.375 186.136719 554.25 177.652344 C 556.5 175.175781 558.898438 172.621094 559.5 171.945312 C 560.101562 171.269531 564.375 166.691406 568.875 161.808594 C 573.449219 156.855469 579.226562 150.621094 581.699219 147.917969 C 584.925781 144.539062 587.550781 140.636719 590.324219 135.15625 C 592.5 130.800781 595.050781 125.996094 596.023438 124.492188 C 597.675781 121.789062 598.800781 119.6875 605.101562 108.125 C 606.523438 105.421875 608.773438 101.367188 609.976562 99.113281 C 612.976562 93.558594 617.851562 84.320312 621.75 76.585938 C 623.550781 73.058594 626.699219 67.351562 628.726562 63.972656 C 632.023438 58.417969 632.324219 57.515625 631.351562 56.539062 C 630.300781 55.5625 629.625 55.640625 625.425781 57.367188 C 622.800781 58.34375 618.601562 59.917969 616.125 60.746094 C 606.675781 63.898438 599.175781 66.675781 598.726562 67.125 C 598.425781 67.351562 597.75 67.578125 597.226562 67.578125 C 596.625 67.578125 594.75 68.179688 593.023438 69.003906 C 589.800781 70.355469 585.75 71.933594 571.5 76.964844 C 567.148438 78.464844 562.949219 80.042969 562.125 80.34375 C 561.300781 80.71875 558.976562 81.695312 556.949219 82.519531 C 552.601562 84.398438 552.523438 84.398438 549.523438 83.046875 C 547.351562 82.070312 543.074219 80.792969 531.75 77.640625 C 529.5 76.964844 526.800781 76.210938 525.75 75.835938 C 524.699219 75.460938 522.675781 74.9375 521.25 74.636719 C 519.824219 74.410156 518.175781 73.882812 517.5 73.507812 C 515.773438 72.609375 506.175781 69.828125 504.675781 69.828125 C 503.925781 69.828125 503.175781 69.53125 502.949219 69.152344 C 502.726562 68.777344 500.925781 68.253906 499.050781 67.953125 C 497.101562 67.652344 495 67.203125 494.324219 66.828125 C 492.148438 65.699219 486.75 64.5 486 64.949219 C 484.726562 65.699219 485.175781 67.726562 487.574219 72.832031 C 488.851562 75.535156 490.351562 78.691406 490.949219 79.964844 C 491.476562 81.167969 492.976562 84.472656 494.175781 87.324219 C 495.449219 90.101562 496.5 92.65625 496.5 93.03125 C 496.5 93.40625 496.949219 94.683594 497.550781 95.886719 C 498.148438 97.011719 498.976562 98.8125 499.425781 99.863281 C 499.800781 100.914062 501.074219 103.769531 502.125 106.246094 C 503.25 108.726562 505.574219 114.128906 507.375 118.261719 C 509.101562 122.390625 511.425781 127.722656 512.550781 130.050781 C 514.800781 134.929688 514.949219 136.507812 513.375 138.609375 C 512.773438 139.359375 512.25 140.5625 512.25 141.160156 C 512.25 141.761719 511.800781 143.1875 511.199219 144.316406 C 510.601562 145.441406 508.875 149.945312 507.375 154.453125 C 505.875 158.882812 504.375 163.238281 504 164.0625 C 503.625 164.890625 503.101562 166.390625 502.800781 167.441406 C 502.273438 169.621094 500.398438 171.945312 499.199219 171.945312 C 498.601562 171.945312 488.773438 175.324219 484.125 177.203125 C 483.300781 177.503906 476.398438 180.054688 468.75 182.835938 C 461.101562 185.613281 454.273438 188.164062 453.601562 188.542969 C 452.851562 188.917969 451.875 189.21875 451.273438 189.21875 C 450.75 189.21875 449.023438 189.894531 447.449219 190.792969 C 444.300781 192.445312 442.574219 192.445312 436.125 190.417969 C 426.074219 187.339844 421.574219 186.0625 417.976562 185.3125 C 413.101562 184.410156 412.949219 183.359375 417 178.703125 C 418.648438 176.828125 420 175.175781 420 174.949219 C 420 173.824219 418.050781 172.472656 409.949219 168.117188 C 405 165.488281 399.074219 162.261719 396.824219 160.984375 C 385.425781 154.675781 383.25 153.476562 378.449219 151.074219 C 375.523438 149.648438 372 147.769531 370.5 146.792969 C 369 145.816406 364.574219 143.339844 360.675781 141.3125 C 356.773438 139.210938 351.449219 136.355469 348.75 134.855469 C 343.273438 131.925781 336.074219 128.097656 330.226562 125.09375 C 328.050781 123.96875 326.101562 122.765625 325.875 122.390625 C 324.898438 120.8125 321.523438 121.789062 314.101562 125.695312 C 309.824219 127.871094 302.175781 131.925781 297 134.554688 C 291.824219 137.257812 285.300781 140.710938 282.449219 142.289062 L 277.199219 145.140625 L 274.574219 143.714844 C 273.074219 142.964844 270.226562 141.3125 268.125 140.109375 C 264.148438 137.78125 258.375 134.703125 241.125 125.769531 C 235.351562 122.765625 228.601562 119.238281 226.125 117.886719 C 220.273438 114.65625 206.023438 107.296875 190.125 99.113281 C 183.148438 95.507812 175.726562 91.753906 173.625 90.628906 C 169.875 88.675781 144 76.0625 121.125 64.949219 C 114.523438 61.722656 106.800781 57.964844 103.949219 56.613281 L 98.851562 54.0625 L 84.824219 54.210938 C 77.175781 54.289062 66.976562 54.511719 62.175781 54.585938 Z M 88.425781 58.117188 C 88.273438 58.34375 84.75 60.21875 80.625 62.320312 C 76.5 64.5 72.523438 66.75 71.851562 67.351562 C 70.425781 68.628906 69.976562 68.476562 65.175781 64.425781 C 63.300781 62.847656 61.351562 61.570312 60.898438 61.570312 C 60.375 61.570312 60 60.894531 60 60.070312 C 60 58.71875 60.601562 58.566406 69.226562 58.34375 C 74.25 58.265625 80.699219 58.042969 83.550781 57.964844 C 86.398438 57.890625 88.574219 57.964844 88.425781 58.117188 Z M 121.5 70.054688 C 130.351562 74.335938 144.074219 81.019531 151.875 84.773438 C 173.324219 95.210938 175.425781 96.261719 175.875 97.535156 C 176.175781 98.210938 176.699219 102.117188 177.074219 106.246094 C 177.675781 113.003906 178.648438 121.339844 180.675781 137.105469 C 181.050781 140.035156 181.726562 143.789062 182.175781 145.367188 C 183.226562 149.347656 184.125 159.183594 183.375 159.183594 C 182.925781 159.183594 173.925781 151.75 172.5 150.171875 C 172.273438 149.945312 169.949219 148.070312 167.25 146.042969 C 164.550781 144.015625 161.324219 141.460938 160.050781 140.410156 C 158.773438 139.359375 157.050781 138.007812 156.300781 137.40625 C 155.476562 136.730469 152.851562 134.703125 150.523438 132.902344 C 145.351562 128.996094 144.976562 128.398438 143.625 121.414062 C 143.023438 118.410156 142.050781 113.453125 141.375 110.375 C 139.574219 102.265625 138.300781 96.410156 137.175781 91.230469 C 136.648438 88.75 135.898438 86.5 135.449219 86.199219 C 134.476562 85.523438 122.851562 86.125 117.375 87.175781 C 115.351562 87.550781 109.949219 88.152344 105.523438 88.601562 C 97.726562 89.277344 95.175781 88.976562 93.75 87.175781 C 92.925781 86.046875 78.898438 75.234375 76.351562 73.660156 C 74.773438 72.757812 73.5 71.707031 73.5 71.332031 C 73.5 70.355469 75.75 68.328125 76.800781 68.328125 C 77.324219 68.328125 79.800781 67.277344 82.199219 65.925781 C 84.601562 64.648438 88.949219 62.320312 91.875 60.746094 L 97.050781 57.964844 L 101.25 60.070312 C 103.5 61.195312 112.648438 65.699219 121.5 70.054688 Z M 623.25 63.074219 C 623.25 63.523438 621.675781 65.476562 619.726562 67.503906 C 617.699219 69.453125 613.273438 74.261719 609.75 78.164062 C 606.226562 82.070312 603.148438 85.371094 602.925781 85.597656 C 601.726562 86.648438 565.050781 129.824219 559.949219 136.132812 C 556.273438 140.785156 553.800781 143.265625 553.351562 142.8125 C 552.898438 142.363281 553.425781 141.011719 554.625 139.210938 C 555.75 137.558594 556.949219 135.605469 557.324219 134.78125 C 557.699219 133.953125 558.300781 132.753906 558.75 132.152344 C 559.726562 130.648438 563.773438 123.589844 566.25 119.011719 C 567.375 116.910156 570 112.179688 572.023438 108.5 C 577.199219 99.113281 582.375 89.425781 586.425781 81.46875 L 589.875 74.785156 L 595.875 72.609375 C 599.175781 71.40625 602.925781 69.90625 604.273438 69.378906 C 605.550781 68.777344 607.050781 68.328125 607.648438 68.328125 C 608.25 68.328125 609 68.027344 609.449219 67.726562 C 609.824219 67.425781 612.148438 66.300781 614.625 65.398438 C 617.101562 64.425781 619.425781 63.296875 619.875 62.996094 C 620.851562 62.097656 623.25 62.171875 623.25 63.074219 Z M 61.648438 66 C 63 67.203125 65.101562 69.003906 66.300781 69.980469 C 67.949219 71.40625 68.625 72.757812 69.074219 75.535156 C 69.675781 79.964844 72.675781 93.632812 74.625 100.992188 C 75.148438 103.019531 76.199219 107.449219 76.875 110.75 C 77.625 114.054688 78.675781 118.183594 79.273438 119.988281 C 79.800781 121.714844 80.25 124.492188 80.25 126.144531 C 80.25 127.722656 80.625 129.148438 81.074219 129.296875 C 82.273438 129.671875 82.351562 135.304688 81.226562 135.679688 C 80.550781 135.90625 80.25 135.003906 80.25 132.601562 C 80.25 130.726562 79.949219 129.148438 79.5 129.148438 C 79.125 129.148438 78.601562 128.246094 78.300781 127.046875 C 78.074219 125.917969 77.476562 123.816406 76.875 122.390625 C 76.351562 120.964844 75 116.683594 73.875 113.003906 C 70.949219 103.394531 64.574219 84.019531 63.75 82.21875 C 62.699219 79.890625 60.675781 74.183594 60.226562 72.082031 C 60 71.03125 59.324219 69.53125 58.800781 68.703125 C 57.601562 67.050781 57.375 63.824219 58.425781 63.824219 C 58.800781 63.824219 60.226562 64.800781 61.648438 66 Z M 501 72.757812 C 508.050781 75.160156 513.824219 76.886719 516.824219 77.640625 C 518.25 77.9375 518.925781 78.691406 519.226562 80.117188 C 519.449219 81.316406 520.125 84.171875 520.800781 86.5 C 521.476562 88.902344 522.449219 92.65625 523.050781 94.757812 C 523.648438 96.9375 524.699219 100.617188 525.375 102.867188 C 526.050781 105.121094 527.023438 108.574219 527.476562 110.527344 C 528 112.402344 528.601562 114.28125 528.976562 114.582031 C 529.273438 114.882812 529.5 115.707031 529.5 116.382812 C 529.5 117.886719 534.375 133.804688 535.875 137.257812 C 536.476562 138.609375 537 140.5625 537 141.539062 C 537 142.589844 537.375 143.414062 537.75 143.414062 C 538.199219 143.414062 538.5 144.089844 538.5 144.992188 C 538.5 146.417969 538.351562 146.34375 536.773438 144.390625 C 535.800781 143.265625 534.75 141.761719 534.523438 141.160156 C 534.226562 140.5625 533.25 138.835938 532.425781 137.40625 C 531.523438 135.980469 529.949219 133.128906 528.824219 131.175781 C 526.351562 126.519531 525.898438 125.84375 522.523438 120.664062 C 521.023438 118.335938 519.75 116.082031 519.75 115.707031 C 519.75 115.332031 519.300781 114.507812 518.773438 113.980469 C 518.25 113.453125 516 110.152344 513.898438 106.621094 C 510.148438 100.617188 506.25 94.382812 498.601562 82.371094 C 496.800781 79.589844 495 76.585938 494.550781 75.761719 C 494.023438 74.859375 493.273438 73.808594 492.824219 73.359375 C 491.550781 72.082031 491.851562 70.582031 493.273438 70.582031 C 493.949219 70.582031 497.476562 71.558594 501 72.757812 Z M 58.125 79.589844 C 58.648438 80.042969 59.773438 82.667969 60.75 85.449219 C 63.074219 92.507812 66.75 102.792969 67.949219 105.644531 C 68.550781 106.921875 69 108.5 69 109.101562 C 69 109.699219 69.523438 111.203125 70.125 112.328125 C 70.726562 113.53125 71.25 115.03125 71.25 115.707031 C 71.25 116.308594 71.550781 117.132812 71.925781 117.585938 C 72.300781 117.960938 72.976562 119.460938 73.351562 120.886719 C 74.773438 125.542969 76.574219 130.273438 77.324219 130.949219 C 77.699219 131.402344 78 132.601562 78 133.726562 C 78 134.855469 78.523438 136.28125 79.125 136.957031 C 80.398438 138.234375 80.625 141.914062 79.5 141.914062 C 79.050781 141.914062 78.523438 141.386719 78.375 140.785156 C 77.773438 138.910156 77.324219 137.859375 76.574219 136.65625 C 76.125 136.054688 75 133.652344 74.023438 131.402344 C 72.976562 129.148438 70.5 123.742188 68.398438 119.386719 C 66.375 115.03125 63.074219 108.125 61.199219 103.996094 C 55.425781 91.753906 50.773438 82.445312 48.976562 79.441406 C 48 77.863281 47.25 75.910156 47.25 75.160156 C 47.25 73.734375 47.625 73.808594 52.273438 76.210938 C 54.976562 77.714844 57.675781 79.214844 58.125 79.589844 Z M 618 75.988281 C 617.925781 76.511719 617.101562 78.316406 616.125 79.964844 C 615.074219 81.617188 614.023438 83.496094 613.726562 84.097656 C 613.425781 84.695312 612.226562 86.875 611.023438 88.976562 C 607.5 94.984375 601.574219 105.722656 597.898438 112.628906 C 596.101562 116.15625 594.226562 119.460938 593.773438 120.0625 C 593.324219 120.589844 590.023438 122.914062 586.5 125.242188 C 577.726562 131.101562 559.351562 144.765625 558.074219 146.492188 C 557.550781 147.320312 556.574219 147.917969 556.050781 147.917969 C 555.449219 147.917969 555 148.21875 555 148.671875 C 555 149.796875 557.023438 149.570312 558.300781 148.296875 C 558.898438 147.695312 559.574219 147.167969 559.875 147.167969 C 560.699219 147.167969 572.476562 139.660156 579.375 134.703125 C 586.949219 129.296875 587.851562 128.773438 588.523438 129.449219 C 589.5 130.347656 582.523438 141.835938 580.648438 142.363281 C 577.351562 143.414062 562.726562 149.570312 560.101562 151 C 557.925781 152.125 555.449219 151.75 554.023438 150.171875 C 552.375 148.144531 552.75 147.542969 561.75 138.308594 C 565.648438 134.328125 571.425781 128.171875 574.5 124.644531 C 582.898438 115.183594 586.648438 110.902344 589.050781 108.050781 C 590.25 106.621094 592.273438 104.292969 593.550781 102.867188 C 594.824219 101.367188 597.375 98.363281 599.25 96.109375 C 601.125 93.933594 603 91.753906 603.375 91.304688 C 603.824219 90.855469 606.523438 87.625 609.375 84.097656 C 616.949219 74.9375 616.800781 75.085938 617.398438 75.085938 C 617.773438 75.085938 618 75.535156 618 75.988281 Z M 78.75 80.191406 C 79.800781 81.167969 83.476562 84.171875 87 86.949219 C 90.523438 89.726562 93.523438 92.128906 93.75 92.355469 C 93.976562 92.582031 96.523438 94.609375 99.375 96.859375 C 102.300781 99.113281 104.773438 101.140625 105 101.367188 C 105.226562 101.589844 112.273438 107.296875 120.75 114.054688 C 141.824219 130.800781 142.273438 131.25 143.476562 133.503906 C 144.074219 134.628906 146.550781 139.433594 149.023438 144.164062 C 151.5 148.894531 154.648438 154.828125 156 157.304688 C 157.351562 159.78125 159.601562 163.988281 161.101562 166.691406 C 162.523438 169.394531 164.851562 173.296875 166.199219 175.402344 C 167.625 177.503906 168.75 179.605469 168.75 180.132812 C 168.75 181.183594 164.324219 181.183594 159.976562 180.207031 C 155.398438 179.15625 142.5 177.277344 134.25 176.453125 C 130.351562 176 125.625 175.402344 123.75 174.949219 C 119.625 174.050781 108.074219 172.699219 100.726562 172.171875 C 97.726562 171.945312 95.023438 171.421875 94.648438 170.894531 C 94.273438 170.445312 93.375 167.667969 92.699219 164.8125 C 91.949219 161.886719 90.976562 157.679688 90.375 155.429688 C 89.851562 153.175781 88.949219 149.570312 88.5 147.542969 C 87.976562 145.441406 87.300781 142.0625 87.074219 140.035156 C 86.773438 137.933594 86.324219 135.832031 85.949219 135.304688 C 85.574219 134.703125 85.050781 132.375 84.675781 130.050781 C 84.375 127.644531 83.550781 123.589844 82.949219 120.886719 C 81.074219 112.554688 79.425781 104.96875 78.375 99.863281 C 77.398438 95.210938 76.5 91.605469 73.949219 81.542969 C 72.300781 74.859375 72.75 74.710938 78.75 80.191406 Z M 584.25 77.789062 C 584.25 78.015625 582.074219 81.917969 579.375 86.347656 C 576.675781 90.777344 574.5 94.609375 574.5 94.832031 C 574.5 94.984375 573 97.835938 571.273438 101.066406 C 564.148438 113.90625 554.398438 132.902344 551.550781 139.433594 C 550.949219 140.785156 550.050781 143.039062 549.449219 144.316406 C 548.851562 145.667969 548.175781 147.394531 547.949219 148.144531 C 547.726562 148.894531 547.199219 149.269531 546.75 149.046875 C 545.773438 148.445312 545.773438 143.339844 546.824219 140.636719 C 547.875 137.78125 550.949219 118.636719 552.824219 103.242188 C 553.949219 93.558594 555.074219 87.925781 556.050781 87.25 C 556.5 86.949219 558.75 86.046875 561 85.296875 C 563.25 84.546875 566.175781 83.496094 567.523438 82.894531 C 568.800781 82.292969 570.148438 81.84375 570.523438 81.84375 C 570.976562 81.84375 572.25 81.394531 573.449219 80.792969 C 574.648438 80.265625 576.824219 79.289062 578.25 78.613281 C 580.875 77.414062 584.25 76.964844 584.25 77.789062 Z M 528.226562 80.640625 C 529.574219 81.242188 533.175781 82.445312 536.25 83.34375 C 539.324219 84.246094 542.925781 85.296875 544.125 85.671875 C 545.398438 85.972656 547.273438 86.5 548.476562 86.722656 C 550.800781 87.175781 550.949219 88.375 549.75 95.734375 C 548.925781 100.316406 547.648438 109.699219 545.476562 125.769531 C 544.800781 130.726562 544.199219 138.082031 544.125 142.0625 C 544.050781 146.117188 543.824219 149.648438 543.523438 149.871094 C 542.625 150.773438 541.574219 149.347656 541.125 146.566406 C 540.824219 145.066406 540.375 143.113281 540 142.289062 C 539.625 141.460938 539.175781 139.433594 538.949219 137.78125 C 538.800781 136.132812 538.125 132.902344 537.449219 130.648438 C 536.851562 128.398438 535.800781 124.492188 535.125 122.015625 C 534.449219 119.535156 533.398438 115.632812 532.800781 113.378906 C 532.199219 111.128906 531.300781 107.75 530.851562 105.871094 C 530.476562 103.996094 529.800781 102.191406 529.425781 101.742188 C 529.050781 101.367188 528.75 100.464844 528.75 99.789062 C 528.75 98.363281 527.023438 92.429688 524.925781 86.5 C 522.449219 79.589844 523.199219 78.390625 528.226562 80.640625 Z M 133.5 90.777344 C 133.875 91.605469 134.023438 92.730469 133.800781 93.332031 C 133.425781 94.308594 133.125 94.308594 131.476562 93.480469 C 127.800781 91.53125 127.273438 89.351562 130.5 89.351562 C 131.925781 89.351562 132.976562 89.878906 133.5 90.777344 Z M 128.324219 95.507812 C 134.851562 99.863281 135.375 100.464844 135.601562 102.941406 C 135.824219 105.496094 135.523438 105.945312 130.949219 109.476562 L 126.074219 113.304688 L 120.300781 108.425781 C 117.148438 105.722656 113.699219 103.019531 112.726562 102.34375 C 111.074219 101.214844 110.925781 100.765625 111.375 97.761719 C 112.050781 93.183594 112.425781 92.355469 114.300781 91.605469 C 118.351562 89.953125 121.050781 90.703125 128.324219 95.507812 Z M 108.75 93.332031 C 108.75 94.308594 108.300781 95.660156 107.773438 96.484375 C 106.800781 97.761719 106.648438 97.761719 104.324219 96.035156 C 101.699219 94.082031 101.625 93.03125 104.324219 92.28125 C 107.773438 91.304688 108.75 91.53125 108.75 93.332031 Z M 504.148438 97.613281 C 504.523438 97.613281 505.125 98.363281 505.5 99.265625 C 506.25 101.066406 506.625 101.667969 510.226562 107.222656 C 511.351562 109.023438 512.25 110.601562 512.25 110.75 C 512.25 112.253906 533.175781 144.917969 534.148438 144.917969 C 534.449219 144.917969 534.75 145.441406 534.75 146.042969 C 534.75 148.144531 533.175781 147.167969 526.199219 140.9375 C 518.25 133.953125 518.773438 134.703125 511.5 118.261719 C 510.601562 116.15625 509.25 113.15625 508.5 111.503906 C 507.75 109.851562 506.25 106.472656 505.125 103.996094 C 504.074219 101.515625 502.875 98.886719 502.425781 98.210938 C 502.050781 97.460938 501.75 96.109375 501.824219 95.210938 C 501.898438 93.632812 501.976562 93.632812 502.726562 95.507812 C 503.175781 96.710938 503.851562 97.613281 504.148438 97.613281 Z M 188.25 102.492188 C 192.226562 104.96875 202.5 110.527344 221.625 120.511719 C 226.574219 123.140625 234.824219 127.421875 240 130.199219 C 245.175781 132.902344 254.25 137.558594 260.101562 140.484375 C 266.023438 143.414062 270.675781 145.96875 270.449219 146.269531 C 270.148438 146.492188 267.824219 146.945312 265.273438 147.242188 C 258.375 148.070312 240.226562 151.074219 227.625 153.550781 C 215.25 155.953125 215.851562 155.953125 214.125 152.273438 C 210.976562 145.515625 191.476562 113.53125 185.476562 105.269531 C 183.449219 102.492188 182.625 100.839844 183.226562 100.464844 C 183.675781 100.164062 184.425781 100.164062 184.875 100.390625 C 185.25 100.691406 186.824219 101.589844 188.25 102.492188 Z M 185.324219 111.425781 C 187.648438 115.933594 201.449219 139.359375 202.648438 140.785156 C 204.75 143.339844 210 151.898438 210 152.800781 C 210 153.625 209.101562 153.402344 206.398438 151.824219 C 202.425781 149.570312 200.175781 148.445312 191.925781 144.691406 C 188.773438 143.265625 185.925781 141.6875 185.625 141.238281 C 185.398438 140.785156 184.648438 136.28125 184.125 131.175781 C 183 121.714844 181.273438 110.152344 180.300781 106.246094 C 179.773438 103.996094 179.773438 103.996094 181.351562 105.421875 C 182.25 106.171875 183.976562 108.875 185.324219 111.425781 Z M 138.675781 115.03125 C 139.050781 117.660156 139.648438 120.886719 139.949219 122.316406 L 140.476562 124.941406 L 135.824219 121.265625 C 128.925781 115.859375 129 115.933594 132.449219 113.003906 C 136.800781 109.175781 137.699219 109.476562 138.675781 115.03125 Z M 326.550781 127.121094 C 328.351562 128.472656 328.351562 128.472656 312.375 136.65625 C 304.949219 140.484375 297.898438 144.242188 296.625 144.992188 C 294 146.566406 289.574219 148.671875 288.75 148.671875 C 288.449219 148.671875 286.875 148.144531 285.375 147.46875 L 282.523438 146.269531 L 299.324219 137.78125 C 308.625 133.128906 317.324219 128.621094 318.75 127.722656 C 321.75 125.917969 324.601562 125.695312 326.550781 127.121094 Z M 338.023438 133.726562 C 342.976562 136.054688 345.074219 138.160156 342.449219 138.160156 C 341.550781 138.160156 333 141.3125 328.125 143.414062 C 327.300781 143.789062 324.976562 144.839844 322.875 145.667969 C 320.851562 146.566406 317.398438 148.144531 315.300781 149.121094 C 308.398438 152.273438 304.648438 153.324219 303.074219 152.425781 C 302.25 152.050781 300.675781 151.675781 299.476562 151.675781 C 295.949219 151.675781 295.050781 150.621094 296.925781 148.746094 C 297.75 147.917969 298.949219 147.167969 299.476562 147.167969 C 300.449219 147.167969 310.125 142.363281 321 136.429688 C 330.449219 131.324219 331.726562 130.726562 332.175781 130.875 C 332.398438 131.023438 335.101562 132.300781 338.023438 133.726562 Z M 157.351562 143.113281 C 160.5 145.890625 164.023438 148.894531 165.226562 149.871094 C 166.351562 150.921875 170.925781 154.453125 175.351562 157.832031 C 179.773438 161.210938 183.523438 164.4375 183.601562 165.039062 C 183.75 165.566406 183.148438 166.765625 182.324219 167.515625 C 180.300781 169.394531 175.199219 176.453125 174.523438 178.179688 C 173.625 180.65625 171.976562 178.554688 166.648438 168.191406 C 163.800781 162.636719 160.125 155.878906 158.476562 153.175781 C 154.425781 146.566406 150.75 139.734375 150.75 138.835938 C 150.75 137.558594 151.574219 138.082031 157.351562 143.113281 Z M 522.074219 141.914062 C 525 144.691406 528.074219 147.167969 533.476562 151.222656 C 539.023438 155.429688 540.898438 158.429688 538.050781 158.429688 C 536.175781 158.429688 524.851562 162.335938 510.226562 168.042969 C 508.5 168.71875 506.851562 169.09375 506.625 168.867188 C 506.25 168.492188 507.523438 164.8125 509.25 161.058594 C 510.300781 158.957031 513.375 150.398438 515.25 144.765625 C 516.148438 142.136719 516.976562 139.585938 517.199219 138.984375 C 517.5 137.933594 518.476562 138.457031 522.074219 141.914062 Z M 354.449219 142.8125 C 362.476562 147.019531 365.699219 148.59375 367.875 149.421875 C 370.050781 150.246094 370.351562 151.675781 368.476562 151.675781 C 359.550781 151.523438 331.5 152.5 325.273438 153.175781 C 312.300781 154.601562 312.523438 153.023438 325.875 148.59375 C 328.351562 147.769531 331.050781 146.792969 331.875 146.417969 C 332.699219 146.042969 335.25 144.992188 337.5 144.089844 C 339.75 143.1875 342.976562 141.835938 344.625 141.085938 C 346.273438 140.261719 347.851562 139.660156 348.074219 139.660156 C 348.300781 139.660156 351.148438 141.085938 354.449219 142.8125 Z M 192.976562 154 C 195.824219 157.078125 197.773438 159.707031 197.476562 160.007812 C 196.125 161.359375 189.074219 162.785156 188.398438 161.886719 C 187.726562 161.058594 186 152.199219 186 149.871094 C 186 147.621094 187.800781 148.671875 192.976562 154 Z M 282.523438 150.546875 C 284.101562 151.148438 286.726562 151.972656 288.375 152.351562 C 290.023438 152.726562 293.25 153.625 295.5 154.300781 C 297.75 154.976562 303.148438 156.480469 307.5 157.605469 C 311.851562 158.808594 317.101562 160.234375 319.125 160.910156 C 329.25 163.988281 331.425781 164.664062 335.25 165.640625 C 340.273438 166.992188 347.25 168.71875 351.601562 169.695312 C 353.324219 170.070312 355.425781 170.746094 356.175781 171.195312 C 357 171.570312 358.199219 171.945312 358.875 171.945312 C 359.550781 171.945312 361.199219 172.398438 362.476562 173 C 363.824219 173.523438 366.375 174.351562 368.25 174.875 C 370.125 175.324219 373.351562 176.226562 375.375 176.828125 C 377.476562 177.351562 381 178.328125 383.25 178.929688 C 385.5 179.53125 389.398438 180.65625 391.875 181.332031 C 400.800781 183.886719 404.699219 184.863281 407.25 185.164062 C 408.675781 185.386719 410.925781 185.988281 412.125 186.589844 C 413.398438 187.113281 415.574219 187.941406 417 188.316406 L 419.625 188.992188 L 416.851562 189.515625 C 415.050781 189.894531 412.875 189.742188 410.476562 188.992188 C 408.523438 188.390625 404.175781 187.640625 400.875 187.414062 C 397.574219 187.191406 393.226562 186.664062 391.125 186.289062 C 387.375 185.539062 378.976562 184.488281 366.375 183.136719 C 362.699219 182.757812 357.601562 182.160156 355.125 181.707031 C 352.648438 181.257812 347.398438 180.582031 343.5 180.207031 C 339.601562 179.832031 332.175781 179.003906 327 178.40625 C 321.824219 177.804688 314.101562 176.902344 309.75 176.453125 C 305.398438 176 299.851562 175.324219 297.375 174.949219 C 294.898438 174.5 289.5 173.824219 285.375 173.449219 C 277.425781 172.621094 261.148438 170.972656 250.425781 169.769531 C 246.824219 169.394531 243.300781 168.71875 242.550781 168.269531 C 240.449219 167.066406 228.898438 161.960938 224.25 160.160156 L 222.375 159.40625 L 224.101562 158.507812 C 225.074219 157.980469 229.273438 157.15625 233.476562 156.554688 C 237.675781 155.953125 243.976562 154.976562 247.5 154.375 C 251.023438 153.777344 256.949219 152.800781 260.625 152.125 C 264.375 151.523438 268.425781 150.699219 269.625 150.246094 C 273.074219 149.195312 279.375 149.269531 282.523438 150.546875 Z M 574.5 150.097656 C 574.5 150.472656 570.226562 155.128906 564.976562 160.457031 C 555.074219 170.445312 550.273438 175.476562 533.925781 192.972656 C 523.648438 204.007812 518.25 209.941406 514.648438 213.996094 L 512.398438 216.625 L 498.601562 216.398438 C 491.101562 216.246094 480.300781 215.871094 474.75 215.496094 C 469.199219 215.046875 459.148438 214.746094 452.476562 214.746094 C 445.800781 214.746094 440.175781 214.445312 439.949219 214.144531 C 439.726562 213.769531 442.351562 212.34375 445.726562 210.992188 C 449.101562 209.566406 455.625 206.710938 460.125 204.535156 C 474.898438 197.550781 484.648438 192.894531 495.75 187.488281 C 501.75 184.636719 514.574219 178.40625 524.25 173.75 C 533.925781 169.019531 542.398438 164.890625 543 164.511719 C 544.125 163.761719 562.726562 154.527344 564.75 153.625 C 565.351562 153.402344 567.226562 152.351562 568.875 151.375 C 572.023438 149.496094 574.5 148.972656 574.5 150.097656 Z M 200.398438 152.125 C 202.574219 153.175781 205.5 154.601562 206.851562 155.277344 C 210 156.78125 209.550781 157.90625 205.5 158.65625 L 202.199219 159.332031 L 197.851562 154.753906 C 192.898438 149.570312 193.574219 148.820312 200.398438 152.125 Z M 384.449219 158.882812 C 387.300781 160.382812 393.601562 163.6875 398.476562 166.164062 C 404.324219 169.167969 406.949219 170.894531 406.351562 171.269531 C 405.75 171.570312 403.949219 171.496094 402.300781 171.121094 C 396.898438 169.769531 371.476562 166.242188 360.375 165.1875 C 356.699219 164.890625 352.726562 164.363281 351.675781 164.136719 C 350.625 163.835938 346.574219 163.160156 342.675781 162.5625 C 336 161.585938 334.273438 161.285156 326.25 159.257812 C 324.375 158.808594 321.898438 158.28125 320.699219 158.054688 C 314.550781 156.78125 322.199219 156.179688 345.75 155.953125 C 379.875 155.652344 378.226562 155.503906 384.449219 158.882812 Z M 549.75 156.929688 C 549.75 157.304688 549.148438 157.679688 548.398438 157.679688 C 547.648438 157.679688 546.523438 158.355469 545.773438 159.183594 C 545.101562 160.007812 543.824219 160.683594 543 160.683594 C 542.175781 160.683594 541.5 160.984375 541.5 161.359375 C 541.5 161.734375 540.75 162.335938 539.851562 162.5625 C 538.875 162.863281 535.425781 164.363281 532.125 165.941406 C 528.824219 167.515625 523.425781 170.070312 520.125 171.570312 C 516.824219 173.148438 511.574219 175.550781 508.5 176.976562 C 505.425781 178.480469 500.699219 180.65625 498 181.859375 C 495.300781 183.136719 489.226562 185.988281 484.5 188.242188 C 479.773438 190.570312 471.675781 194.398438 466.5 196.875 C 451.125 204.234375 439.5 210.242188 437.550781 211.742188 C 436.949219 212.34375 436.5 212.34375 436.125 211.742188 C 435.898438 211.292969 437.925781 207.460938 440.625 203.183594 C 444.375 197.25 446.175781 195.222656 447.601562 194.847656 C 449.925781 194.324219 467.175781 188.089844 470.773438 186.515625 C 472.050781 185.914062 473.625 185.460938 474.226562 185.460938 C 474.898438 185.460938 475.574219 185.164062 475.875 184.785156 C 476.101562 184.410156 477.375 183.8125 478.726562 183.511719 C 480.976562 183.058594 481.949219 182.683594 488.398438 179.90625 C 489.898438 179.230469 491.625 178.703125 492.226562 178.703125 C 492.898438 178.703125 493.574219 178.40625 493.800781 178.027344 C 494.023438 177.652344 495.148438 177.128906 496.273438 176.902344 C 497.476562 176.601562 500.773438 175.402344 503.625 174.199219 C 511.5 170.972656 525.148438 165.863281 527.25 165.414062 C 528.300781 165.1875 529.800781 164.511719 530.625 163.988281 C 531.449219 163.386719 532.800781 162.9375 533.699219 162.9375 C 534.601562 162.9375 535.726562 162.410156 536.25 161.808594 C 536.773438 161.210938 537.976562 160.683594 538.949219 160.683594 C 539.925781 160.683594 540.976562 160.234375 541.273438 159.707031 C 542.625 157.605469 549.75 155.203125 549.75 156.929688 Z M 222.675781 162.710938 C 226.800781 164.664062 230.25 166.539062 230.25 166.839844 C 230.25 167.742188 226.351562 167.59375 216.75 166.316406 C 208.425781 165.1875 206.625 164.511719 206.101562 162.261719 C 205.875 161.359375 210.449219 159.632812 214.199219 159.257812 C 214.726562 159.257812 218.476562 160.757812 222.675781 162.710938 Z M 201.675781 163.238281 C 202.800781 164.589844 201.601562 165.488281 199.425781 164.8125 C 198.226562 164.4375 198.074219 164.0625 198.824219 163.238281 C 199.949219 161.886719 200.550781 161.886719 201.675781 163.238281 Z M 200.25 167.367188 L 205.875 167.816406 L 248.851562 210.992188 C 272.398438 234.644531 291.75 254.167969 291.75 254.316406 C 291.75 254.390625 285.226562 261 277.199219 268.957031 C 269.25 276.917969 261.824219 284.652344 260.773438 286.078125 C 258.074219 289.683594 258.449219 290.207031 248.550781 271.0625 C 247.351562 268.808594 246.148438 266.78125 245.925781 266.554688 C 245.699219 266.332031 245.023438 265.128906 244.351562 263.925781 C 243.75 262.652344 241.949219 259.273438 240.375 256.417969 C 238.800781 253.492188 236.773438 249.8125 235.875 248.160156 C 230.023438 237.421875 228.300781 234.34375 226.726562 231.867188 C 225.824219 230.289062 225 228.863281 225 228.5625 C 225 228.261719 223.875 226.160156 222.449219 223.832031 C 221.023438 221.503906 219.074219 218.125 218.101562 216.246094 C 213 206.863281 210.375 202.132812 208.726562 199.578125 C 207.824219 198 207 196.574219 207 196.273438 C 207 196.050781 205.199219 192.746094 202.949219 188.992188 C 200.773438 185.164062 197.324219 179.304688 195.375 175.925781 C 193.425781 172.472656 191.550781 169.46875 191.175781 169.242188 C 190.800781 169.019531 190.5 168.191406 190.5 167.292969 C 190.5 166.015625 190.800781 165.863281 192.601562 166.316406 C 193.726562 166.617188 197.175781 167.140625 200.25 167.367188 Z M 190.351562 174.800781 C 192.074219 178.40625 195.226562 184.335938 197.324219 188.089844 C 199.425781 191.769531 202.125 196.648438 203.324219 198.828125 C 205.875 203.40625 210.976562 212.417969 216.148438 221.355469 C 218.101562 224.734375 219.75 227.734375 219.75 227.886719 C 219.75 228.035156 222.148438 232.089844 225 236.898438 C 227.925781 241.703125 230.25 245.757812 230.25 246.058594 C 230.25 246.28125 232.351562 250.035156 234.976562 254.464844 C 241.949219 266.332031 242.398438 267.15625 241.5 267.683594 C 241.125 267.90625 240.75 267.832031 240.75 267.382812 C 240.75 266.929688 240.148438 266.03125 239.398438 265.277344 C 238.648438 264.527344 235.875 261.074219 233.25 257.546875 C 227.25 249.511719 210.601562 228.035156 210 227.511719 C 209.773438 227.285156 208.726562 225.933594 207.75 224.507812 C 206.699219 223.082031 205.351562 221.203125 204.601562 220.378906 C 203.925781 219.550781 199.726562 214.296875 195.375 208.738281 C 191.023438 203.183594 186.824219 197.925781 186.148438 197.101562 C 185.476562 196.273438 183.523438 193.949219 181.949219 191.921875 C 180.300781 189.894531 178.050781 187.265625 176.925781 185.988281 C 174.601562 183.433594 174.675781 182.984375 178.5 178.703125 C 179.773438 177.277344 181.648438 174.574219 182.773438 172.699219 C 184.574219 169.621094 185.773438 168.191406 186.75 168.191406 C 186.976562 168.191406 188.550781 171.195312 190.351562 174.800781 Z M 226.875 170.820312 C 230.625 171.421875 235.050781 171.945312 236.773438 171.945312 C 241.125 171.945312 245.324219 173.449219 257.773438 179.53125 C 263.625 182.382812 270.375 185.613281 272.773438 186.664062 C 275.175781 187.789062 281.25 190.644531 286.351562 193.046875 C 291.449219 195.523438 295.726562 197.476562 295.875 197.476562 C 296.101562 197.476562 299.699219 199.128906 303.898438 201.15625 C 316.199219 207.011719 323.324219 210.242188 327.375 211.894531 C 329.476562 212.71875 331.425781 213.621094 331.726562 213.921875 C 332.25 214.445312 297.148438 250.113281 295.574219 250.636719 C 295.050781 250.789062 214.5 170.671875 214.5 169.917969 C 214.5 169.320312 220.574219 169.769531 226.875 170.820312 Z M 378.375 170.746094 C 387.898438 172.472656 399.675781 174.125 405.375 174.5 C 413.773438 175.027344 414.75 176 411.601562 180.207031 C 410.023438 182.382812 407.476562 183.136719 406.199219 181.933594 C 405.898438 181.558594 404.023438 180.957031 402.148438 180.507812 C 400.199219 179.980469 396.75 179.082031 394.5 178.40625 C 387.976562 176.453125 374.023438 172.699219 372 172.246094 C 370.949219 172.023438 369.375 171.722656 368.398438 171.496094 C 367.425781 171.347656 366.898438 170.820312 367.125 170.445312 C 367.800781 169.394531 371.398438 169.542969 378.375 170.746094 Z M 264.75 175.027344 C 267.976562 175.777344 273.976562 176.601562 295.5 179.15625 C 318.148438 181.785156 323.476562 182.460938 333.375 183.585938 C 349.125 185.460938 361.5 186.8125 372.75 188.089844 C 378.300781 188.691406 387.601562 189.667969 393.375 190.34375 C 399.148438 190.945312 409.199219 191.84375 415.726562 192.21875 C 426.976562 192.894531 430.800781 193.722656 429.148438 195.375 C 428.851562 195.675781 425.699219 196.273438 422.25 196.648438 C 414.148438 197.625 405 199.128906 383.25 203.03125 C 379.726562 203.632812 374.851562 204.535156 372.375 204.984375 C 369.898438 205.359375 365.324219 206.261719 362.25 206.863281 C 359.175781 207.539062 354.074219 208.589844 351 209.191406 C 347.925781 209.789062 343.949219 210.617188 342.148438 211.066406 C 337.351562 212.117188 336.675781 211.96875 330.300781 208.8125 C 324.375 205.886719 316.199219 201.980469 306.601562 197.550781 C 303.75 196.273438 299.324219 194.171875 296.625 192.972656 C 293.925781 191.695312 289.5 189.667969 286.726562 188.390625 C 282.300781 186.363281 277.273438 184.109375 271.875 181.707031 C 271.050781 181.332031 268.199219 180.054688 265.5 178.855469 C 262.800781 177.652344 259.875 176.453125 258.898438 176.152344 C 258 175.851562 257.398438 175.25 257.625 174.875 C 258.226562 173.972656 260.550781 174.050781 264.75 175.027344 Z M 109.125 177.277344 C 112.050781 177.804688 116.773438 178.328125 119.625 178.628906 L 124.875 179.082031 L 125.398438 182.460938 C 125.625 184.335938 126.226562 188.390625 126.675781 191.46875 C 127.125 194.546875 127.949219 199.128906 128.550781 201.605469 C 130.273438 208.738281 130.574219 211.59375 129.824219 212.042969 C 129.449219 212.269531 127.199219 210.015625 124.800781 207.011719 C 122.398438 204.082031 120.226562 201.457031 120 201.230469 C 119.773438 201.003906 116.25 196.949219 112.199219 192.21875 C 108.074219 187.488281 103.425781 182.308594 101.851562 180.730469 C 98.25 177.054688 98.101562 175.476562 101.476562 176.078125 C 102.75 176.300781 106.273438 176.828125 109.125 177.277344 Z M 142.125 181.40625 C 147 182.007812 151.351562 182.757812 151.726562 183.136719 C 152.398438 183.8125 151.574219 185.539062 142.648438 200.855469 C 140.699219 204.082031 138.375 208.515625 137.550781 210.542969 C 134.625 217.300781 134.324219 216.699219 132.375 201.230469 C 131.773438 196.5 130.949219 190.867188 130.574219 188.839844 C 130.199219 186.738281 129.824219 183.8125 129.824219 182.160156 C 129.75 179.53125 129.898438 179.304688 131.476562 179.832031 C 132.375 180.132812 137.175781 180.808594 142.125 181.40625 Z M 159.75 185.460938 C 160.050781 186.515625 160.5 194.773438 160.800781 203.859375 C 161.101562 212.945312 161.625 222.253906 162 224.507812 C 162.375 226.761719 162.75 232.015625 162.898438 236.144531 L 163.125 243.578125 L 159.898438 245.90625 C 158.175781 247.109375 154.875 249.585938 152.625 251.3125 C 148.875 254.316406 147 255.21875 147 254.089844 C 147 252.964844 148.648438 242.527344 149.324219 239.523438 C 149.699219 237.648438 150.375 233.066406 150.824219 229.386719 C 151.199219 225.632812 152.101562 218.726562 152.699219 213.996094 C 153.226562 209.265625 154.050781 201.832031 154.425781 197.476562 C 154.800781 193.121094 155.324219 189.066406 155.476562 188.464844 C 155.699219 187.867188 156.074219 186.363281 156.375 185.238281 C 156.898438 182.609375 159.074219 182.757812 159.75 185.460938 Z M 169.800781 185.164062 C 170.476562 185.839844 170.851562 187.039062 170.625 187.941406 C 169.574219 192.746094 168 204.757812 167.925781 208.515625 C 167.925781 210.917969 167.625 214.21875 167.324219 215.871094 L 166.726562 218.875 L 165.824219 216.699219 C 165 214.519531 163.5 197.402344 163.5 188.617188 L 163.5 183.960938 L 166.050781 183.960938 C 167.476562 183.960938 169.199219 184.488281 169.800781 185.164062 Z M 175.199219 189.816406 C 175.648438 190.117188 177.300781 192.21875 178.875 194.472656 C 180.449219 196.726562 182.023438 198.902344 182.324219 199.351562 C 182.699219 199.730469 184.574219 202.132812 186.523438 204.609375 C 188.550781 207.085938 191.773438 211.292969 193.875 213.996094 C 195.898438 216.699219 197.773438 219.027344 198 219.25 C 198.226562 219.476562 200.25 221.953125 202.5 224.882812 C 204.75 227.734375 207.226562 230.816406 207.898438 231.640625 C 208.574219 232.464844 212.773438 237.722656 217.125 243.277344 C 231.300781 261.222656 238.949219 270.683594 244.875 277.441406 C 250.273438 283.601562 251.398438 285.703125 248.773438 284.953125 C 247.875 284.652344 246.148438 283.824219 244.875 283.074219 C 239.175781 279.695312 234.523438 277.21875 202.5 261.148438 C 183.75 251.6875 168.148438 243.730469 167.851562 243.429688 C 167.324219 242.828125 168.226562 231.714844 169.425781 224.882812 C 171 215.722656 172.949219 198.378906 173.175781 191.621094 C 173.25 189.21875 173.699219 188.765625 175.199219 189.816406 Z M 440.25 197.175781 C 440.25 197.476562 438.75 199.878906 436.949219 202.65625 C 435.148438 205.359375 432.898438 209.113281 431.851562 210.992188 L 429.976562 214.371094 L 419.175781 214.144531 C 413.25 213.996094 400.949219 213.621094 391.875 213.167969 C 382.800781 212.792969 371.398438 212.492188 366.601562 212.492188 C 361.574219 212.492188 357.675781 212.191406 357.375 211.742188 C 357.148438 211.292969 357.148438 210.992188 357.523438 210.917969 C 362.25 210.617188 374.101562 208.8125 390 206.035156 C 425.476562 199.804688 428.101562 199.277344 432 197.777344 C 434.699219 196.800781 440.25 196.351562 440.25 197.175781 Z M 150 207.839844 C 150 209.789062 149.625 212.867188 149.175781 214.746094 C 147.976562 219.851562 144.449219 242.601562 143.324219 253.039062 C 142.949219 256.117188 142.351562 258.746094 141.898438 258.898438 C 141.449219 259.046875 138.226562 261.300781 134.699219 264.003906 C 131.175781 266.628906 128.101562 268.808594 127.800781 268.808594 C 127.574219 268.808594 127.5 267.90625 127.726562 266.78125 C 128.101562 264.679688 134.550781 246.957031 135.824219 244.628906 C 136.199219 243.878906 136.5 242.679688 136.5 242.003906 C 136.5 241.25 136.949219 239.75 137.550781 238.625 C 138.148438 237.496094 138.824219 235.546875 139.125 234.195312 C 139.425781 232.765625 139.949219 231.191406 140.25 230.515625 C 140.550781 229.914062 141.898438 225.859375 143.25 221.503906 C 144.523438 217.148438 146.101562 212.492188 146.699219 211.140625 C 147.300781 209.789062 147.75 207.761719 147.75 206.5625 C 147.75 205.433594 147.976562 204.234375 148.199219 204.007812 C 149.25 202.957031 150 204.535156 150 207.839844 Z M 145.5 205.960938 C 145.5 206.9375 144.976562 208.363281 144.375 209.191406 C 143.773438 209.941406 143.25 211.367188 143.25 212.269531 C 143.25 213.167969 142.949219 214.070312 142.5 214.371094 C 142.125 214.597656 141.449219 215.871094 141.074219 217.222656 C 140.101562 220.378906 138.148438 226.007812 137.324219 227.886719 C 136.949219 228.710938 135.375 232.917969 133.875 237.273438 C 132.375 241.625 130.800781 245.832031 130.5 246.65625 C 129.074219 249.960938 125.25 262.425781 125.25 263.628906 C 125.25 268.957031 122.699219 267.457031 121.5 261.449219 C 121.050781 259.121094 120.300781 255.894531 119.773438 254.316406 C 119.101562 251.988281 119.175781 251.085938 120.148438 249.4375 C 122.175781 246.058594 125.175781 240.425781 131.476562 228.261719 C 134.773438 221.878906 138.148438 215.570312 138.824219 214.371094 C 139.574219 213.09375 141.074219 210.316406 142.125 208.136719 C 144.148438 204.007812 145.5 203.109375 145.5 205.960938 Z M 357.148438 215.871094 C 362.625 216.546875 377.398438 217.148438 396.375 217.449219 C 419.25 217.898438 426.75 218.199219 426.75 218.875 C 426.75 219.402344 426.148438 220.601562 425.324219 221.578125 C 423.375 224.058594 413.550781 240.5 412.949219 242.226562 C 412.648438 242.976562 411.898438 244.40625 411.148438 245.382812 L 409.875 247.03125 L 401.625 242.976562 C 384.898438 234.71875 357.300781 221.503906 356.625 221.503906 C 355.199219 221.503906 345 216.023438 345.375 215.496094 C 345.976562 214.519531 346.726562 214.519531 357.148438 215.871094 Z M 340.125 217.449219 C 351.375 223.605469 400.199219 247.257812 407.25 250.035156 C 409.125 250.789062 414.75 253.414062 419.625 255.96875 C 424.574219 258.445312 429 260.546875 429.449219 260.546875 C 429.898438 260.546875 430.875 261.222656 431.625 262.050781 C 433.199219 263.777344 432.824219 264.003906 426.75 264.527344 C 424.5 264.753906 420.148438 265.277344 417.226562 265.730469 C 404.476562 267.683594 400.574219 268.207031 395.625 268.882812 C 386.925781 269.933594 371.023438 272.1875 351.226562 275.191406 C 346.949219 275.792969 340.199219 276.765625 336.226562 277.367188 C 332.175781 277.96875 327.75 278.871094 326.398438 279.320312 L 323.851562 280.222656 L 311.175781 267.457031 C 304.199219 260.472656 298.5 254.542969 298.5 254.390625 C 298.5 253.492188 335.773438 216.472656 336.75 216.398438 C 337.351562 216.324219 338.925781 216.773438 340.125 217.449219 Z M 445.875 218.875 C 449.625 219.101562 466.273438 219.625 482.925781 220.003906 C 511.125 220.753906 519.601562 221.429688 519.898438 223.082031 C 520.273438 225.484375 519.898438 225.632812 514.5 226.085938 C 511.425781 226.308594 506.023438 227.136719 502.5 227.8125 C 493.800781 229.613281 486.976562 231.039062 480.601562 232.390625 C 477.601562 233.066406 472.949219 234.042969 470.25 234.570312 C 467.550781 235.167969 462.824219 236.222656 459.75 236.898438 C 456.675781 237.574219 451.800781 238.625 448.875 239.148438 C 446.023438 239.75 441.601562 240.726562 439.125 241.328125 C 436.648438 241.925781 432.449219 242.902344 429.75 243.503906 C 427.050781 244.105469 423.074219 245.15625 420.976562 245.90625 C 417.148438 247.183594 414.75 247.03125 414.75 245.679688 C 414.75 245.304688 415.875 243.503906 417.226562 241.703125 C 420 238.023438 429.75 222.03125 429.75 221.054688 C 429.75 220.753906 430.351562 219.851562 431.023438 219.027344 C 432.148438 217.898438 432.976562 217.675781 435.75 218.050781 C 437.625 218.273438 442.199219 218.652344 445.875 218.875 Z M 520.5 228.789062 C 520.5 229.164062 518.398438 231.039062 515.925781 233.140625 C 513.375 235.167969 510.898438 237.195312 510.449219 237.648438 C 510 238.023438 506.925781 240.726562 503.625 243.652344 C 500.324219 246.507812 496.875 249.660156 495.898438 250.636719 C 494.550781 252.0625 493.648438 252.363281 491.773438 251.988281 C 490.425781 251.761719 482.324219 251.238281 473.625 250.789062 C 435.375 248.910156 428.625 248.460938 427.949219 247.785156 C 427.574219 247.410156 428.324219 246.957031 429.824219 246.734375 C 431.25 246.507812 433.574219 246.207031 435 245.980469 C 436.425781 245.757812 440.324219 245.082031 443.625 244.40625 C 446.925781 243.804688 452.175781 242.753906 455.25 242.152344 C 458.324219 241.550781 463.273438 240.574219 466.125 239.898438 C 473.023438 238.472656 480.523438 236.898438 487.5 235.46875 C 499.949219 232.84375 511.425781 230.140625 513.75 229.164062 C 515.925781 228.1875 520.5 228.035156 520.5 228.789062 Z M 426.375 251.539062 C 428.476562 252.363281 458.25 254.390625 477 255.066406 C 483.375 255.292969 488.925781 255.742188 489.226562 256.042969 C 489.523438 256.34375 488.175781 257.84375 486.226562 259.496094 C 484.273438 261.074219 482.476562 262.574219 482.25 262.800781 C 482.023438 263.027344 479.699219 265.054688 477 267.304688 C 474.300781 269.558594 471.824219 271.8125 471.523438 272.335938 C 470.550781 273.914062 467.550781 273.464844 462.375 271.0625 C 459.75 269.785156 457.273438 268.808594 456.976562 268.808594 C 456.675781 268.808594 455.550781 268.359375 454.5 267.832031 C 453.449219 267.304688 450.976562 266.253906 448.875 265.503906 C 437.699219 261.375 420.675781 253.191406 420.148438 251.6875 C 419.773438 250.5625 423.601562 250.488281 426.375 251.539062 Z M 306.523438 268.507812 C 313.050781 275.039062 317.175781 279.695312 316.800781 280.070312 C 316.425781 280.445312 312.75 281.121094 308.625 281.648438 C 304.5 282.097656 299.25 282.925781 297 283.523438 C 294.75 284.125 291.675781 284.574219 290.175781 284.574219 C 286.050781 284.574219 273.148438 286.679688 269.023438 288.03125 C 261.675781 290.507812 262.425781 288.929688 273.824219 277.96875 C 279.75 272.335938 286.800781 265.429688 289.425781 262.652344 C 292.050781 259.796875 294.523438 257.546875 294.898438 257.546875 C 295.273438 257.546875 300.523438 262.5 306.523438 268.507812 Z M 398.851562 272.335938 C 398.101562 272.488281 396.898438 272.488281 396.226562 272.335938 C 395.476562 272.113281 396.074219 271.960938 397.5 271.960938 C 398.925781 271.960938 399.523438 272.113281 398.851562 272.335938 Z M 392.550781 273.988281 C 393.074219 274.738281 390.523438 275.566406 387.375 275.566406 C 386.175781 275.566406 384.300781 276.089844 383.25 276.691406 C 382.199219 277.292969 380.550781 277.742188 379.574219 277.820312 C 378.601562 277.820312 376.050781 278.269531 373.949219 278.871094 C 371.851562 279.46875 367.574219 280.523438 364.5 281.199219 C 361.425781 281.875 358.050781 282.699219 357 283.074219 C 355.949219 283.375 351.898438 284.425781 348 285.328125 C 344.101562 286.226562 339.449219 287.429688 337.648438 288.03125 C 335.925781 288.628906 333.976562 289.082031 333.375 289.082031 C 332.324219 289.082031 327.75 284.574219 327.523438 283.300781 C 327.449219 283 329.25 282.472656 331.5 282.171875 C 333.75 281.875 338.851562 281.121094 342.75 280.523438 C 346.648438 279.921875 353.550781 278.871094 357.976562 278.269531 C 362.476562 277.59375 367.351562 276.765625 368.851562 276.390625 C 370.425781 276.015625 373.726562 275.492188 376.351562 275.191406 C 378.976562 274.964844 381.824219 274.441406 382.726562 274.0625 C 384.898438 273.164062 392.023438 273.164062 392.550781 273.988281 Z M 326.023438 287.730469 C 329.25 291.109375 330 292.386719 330.601562 295.839844 C 331.875 302.671875 332.398438 307.027344 331.875 307.851562 C 331.648438 308.226562 328.351562 306.652344 324.523438 304.324219 C 317.101562 299.820312 307.726562 294.5625 300.226562 290.582031 C 297.601562 289.304688 295.648438 287.953125 295.875 287.578125 C 296.023438 287.277344 298.5 286.828125 301.273438 286.527344 C 304.125 286.304688 309.226562 285.628906 312.75 285.027344 C 322.199219 283.523438 321.824219 283.449219 326.023438 287.730469 Z M 288.375 289.980469 C 288.601562 290.507812 289.050781 293.285156 289.425781 296.214844 C 289.875 299.066406 290.398438 302.597656 290.699219 303.875 C 290.925781 305.226562 290.851562 306.351562 290.476562 306.351562 C 290.175781 306.351562 287.699219 305.074219 285 303.496094 C 282.300781 301.921875 276.449219 298.84375 271.949219 296.664062 C 267.523438 294.488281 264.148438 292.386719 264.449219 292.085938 C 264.824219 291.785156 267.523438 291.257812 270.375 291.035156 C 273.300781 290.808594 277.351562 290.359375 279.375 289.980469 C 285 288.929688 288 289.007812 288.375 289.980469 Z M 288.375 289.980469 "/>
</g>
</svg>
