<?xml version="1.0" encoding="UTF-8"?>
<svg xmlns="http://www.w3.org/2000/svg" xmlns:xlink="http://www.w3.org/1999/xlink" width="150pt" height="222pt" viewBox="0 0 150 222" version="1.1">
<g id="surface1">
<path style=" stroke:none;fill-rule:nonzero;fill:rgb(0%,0%,0%);fill-opacity:1;" d="M 108.75 4 C 108.351562 4.648438 108.949219 5.601562 109.550781 5.25 C 110.148438 4.851562 110.148438 3.5 109.550781 3.5 C 109.25 3.5 108.898438 3.699219 108.75 4 Z M 108.75 4 "/>
<path style=" stroke:none;fill-rule:nonzero;fill:rgb(0%,0%,0%);fill-opacity:1;" d="M 125.398438 6.851562 C 125 7.648438 124.398438 8.75 124 9.300781 C 123.398438 10.25 123.5 10.550781 124.398438 11.898438 C 125 12.699219 125.5 13.75 125.5 14.199219 C 125.5 15.550781 126.199219 15.101562 127.5 13 C 128.199219 11.898438 128.898438 11 129.101562 11 C 129.351562 11 129.5 10.648438 129.5 10.25 C 129.5 9.851562 129.300781 9.5 129 9.5 C 128.75 9.5 128.050781 8.601562 127.5 7.5 C 126.949219 6.398438 126.398438 5.5 126.300781 5.5 C 126.148438 5.5 125.75 6.101562 125.398438 6.851562 Z M 128 10.25 C 128 10.398438 127.601562 11.101562 127.148438 11.699219 L 126.25 12.898438 L 125.449219 11.648438 C 124.699219 10.5 124.648438 10.300781 125.398438 9 L 126.199219 7.601562 L 127.101562 8.75 C 127.601562 9.398438 128 10.050781 128 10.25 Z M 128 10.25 "/>
<path style=" stroke:none;fill-rule:nonzero;fill:rgb(0%,0%,0%);fill-opacity:1;" d="M 51.601562 13.898438 C 51.601562 15.75 50.5 18.648438 49.5 19.25 C 49.25 19.398438 49.449219 19.949219 50 20.5 C 50.550781 21.050781 51.101562 22.101562 51.300781 22.851562 C 51.898438 25.699219 52.050781 25.800781 52.949219 24 C 53.398438 23.050781 54.199219 21.550781 54.699219 20.699219 C 55.601562 19.199219 55.601562 19.148438 54.300781 17.300781 C 53.601562 16.199219 52.949219 15 52.949219 14.550781 C 52.800781 12.601562 52.699219 12.300781 52.148438 12.148438 C 51.75 12 51.550781 12.601562 51.601562 13.898438 Z M 53 17.101562 C 53 17.398438 53.398438 18.101562 53.851562 18.601562 C 54.398438 19.25 54.550781 19.699219 54.199219 19.898438 C 53.898438 20.101562 53.351562 20.800781 53 21.5 L 52.351562 22.75 L 51.851562 21.351562 C 51.601562 20.601562 51.25 20 51 20 C 50.5 20 52.101562 16.550781 52.648438 16.5 C 52.851562 16.5 53 16.75 53 17.101562 Z M 53 17.101562 "/>
<path style=" stroke:none;fill-rule:nonzero;fill:rgb(0%,0%,0%);fill-opacity:1;" d="M 83.898438 17.550781 C 81.898438 18.601562 79.351562 22.5 80.648438 22.5 C 81 22.5 81.75 22.148438 82.300781 21.75 C 83.800781 20.601562 85.898438 20.851562 87.351562 22.300781 C 88.351562 23.300781 88.550781 23.851562 88.300781 25.148438 C 87.949219 26.851562 86.398438 28.351562 84.800781 28.601562 C 83.148438 28.851562 83.351562 29.898438 85.25 30.5 C 92.949219 33.050781 97.449219 21.800781 90.398438 17.5 C 88.351562 16.25 86.300781 16.25 83.898438 17.550781 Z M 90.351562 18.851562 C 91.898438 19.851562 93.148438 22.800781 92.800781 24.601562 C 92.300781 27.050781 90.699219 28.800781 88.5 29.398438 C 87.351562 29.699219 86.398438 29.699219 86.199219 29.449219 C 86.050781 29.199219 86.199219 29 86.5 29 C 86.800781 29 87.601562 28.449219 88.25 27.75 C 91.199219 24.851562 88.648438 19.699219 84.5 20.101562 C 82.25 20.300781 82 19.949219 83.648438 18.851562 C 85.851562 17.449219 88.148438 17.449219 90.351562 18.851562 Z M 90.351562 18.851562 "/>
<path style=" stroke:none;fill-rule:nonzero;fill:rgb(0%,0%,0%);fill-opacity:1;" d="M 65.75 19 C 65.398438 19.601562 65.851562 20.5 66.550781 20.5 C 67.148438 20.5 67.148438 19.148438 66.550781 18.75 C 66.300781 18.601562 65.949219 18.699219 65.75 19 Z M 65.75 19 "/>
<path style=" stroke:none;fill-rule:nonzero;fill:rgb(0%,0%,0%);fill-opacity:1;" d="M 42 23.25 C 42 23.648438 42.25 24 42.5 24 C 42.800781 24 43 23.648438 43 23.25 C 43 22.851562 42.800781 22.5 42.5 22.5 C 42.25 22.5 42 22.851562 42 23.25 Z M 42 23.25 "/>
<path style=" stroke:none;fill-rule:nonzero;fill:rgb(0%,0%,0%);fill-opacity:1;" d="M 129.25 28.5 C 129.050781 28.800781 129.101562 29.300781 129.398438 29.601562 C 129.699219 29.898438 130 29.898438 130.25 29.5 C 130.449219 29.199219 130.398438 28.699219 130.101562 28.398438 C 129.800781 28.101562 129.5 28.101562 129.25 28.5 Z M 129.25 28.5 "/>
<path style=" stroke:none;fill-rule:nonzero;fill:rgb(0%,0%,0%);fill-opacity:1;" d="M 97.601562 30.101562 C 97.898438 31 99 31.148438 99 30.300781 C 99 29.851562 98.648438 29.5 98.199219 29.5 C 97.75 29.5 97.5 29.75 97.601562 30.101562 Z M 97.601562 30.101562 "/>
<path style=" stroke:none;fill-rule:nonzero;fill:rgb(0%,0%,0%);fill-opacity:1;" d="M 76.601562 30.949219 C 76.050781 31.25 76.101562 31.449219 76.800781 31.699219 C 77.800781 32.101562 78.398438 31.699219 77.699219 31 C 77.449219 30.75 76.949219 30.75 76.601562 30.949219 Z M 76.601562 30.949219 "/>
<path style=" stroke:none;fill-rule:nonzero;fill:rgb(0%,0%,0%);fill-opacity:1;" d="M 67 36.699219 C 67 37.800781 67.851562 38.101562 68.199219 37.199219 C 68.648438 36.101562 68.601562 36 67.75 36 C 67.351562 36 67 36.300781 67 36.699219 Z M 67 36.699219 "/>
<path style=" stroke:none;fill-rule:nonzero;fill:rgb(0%,0%,0%);fill-opacity:1;" d="M 89.5 38.601562 C 89.101562 40.300781 88.300781 41.75 87.300781 42.648438 C 85.898438 44 85.851562 44.148438 86.699219 44.601562 C 87.800781 45.25 89 48 89 50 C 89 52.050781 89.800781 51.898438 90.199219 49.800781 C 90.398438 48.851562 91.300781 47.300781 92.300781 46.300781 C 94 44.550781 94.050781 44.398438 93.300781 43.550781 C 92.300781 42.449219 91.398438 39.851562 91.300781 37.800781 C 91.199219 35.351562 90.25 35.800781 89.5 38.601562 Z M 91.800781 43.148438 C 92.398438 44.398438 92.351562 44.648438 91.5 45.5 C 90.949219 46.050781 90.5 46.699219 90.5 47 C 90.5 48 89.699219 47.449219 88.800781 45.800781 C 87.898438 44.101562 87.898438 44.050781 88.949219 42.699219 C 89.5 41.949219 90 40.898438 90.050781 40.300781 C 90.050781 39.351562 90.101562 39.351562 90.550781 40.5 C 90.851562 41.199219 91.398438 42.398438 91.800781 43.148438 Z M 91.800781 43.148438 "/>
<path style=" stroke:none;fill-rule:nonzero;fill:rgb(0%,0%,0%);fill-opacity:1;" d="M 104.5 37.75 C 93.800781 42.550781 97.300781 58.699219 109 58.699219 C 117.148438 58.699219 122.25 50.101562 118.449219 42.699219 C 116.550781 39.050781 113.851562 37.300781 109.601562 37.148438 C 107.351562 37.050781 105.648438 37.25 104.5 37.75 Z M 111.800781 38.5 C 113.101562 38.949219 113.25 39.25 113.351562 41.300781 C 113.449219 43.648438 112.5 44.699219 111.351562 43.550781 C 111.050781 43.25 109.851562 43 108.699219 43 C 107.5 43 106.398438 42.75 106.199219 42.449219 C 106.050781 42.148438 106.300781 41.050781 106.75 39.949219 C 107.75 37.851562 108.898438 37.5 111.800781 38.5 Z M 105.699219 40.050781 C 104.449219 42.5 105.351562 44 108 44 C 109.101562 44 110.601562 44.351562 111.300781 44.800781 C 112.449219 45.601562 112.601562 45.550781 113.550781 44.699219 C 114.398438 43.949219 114.550781 43.398438 114.300781 41.898438 C 114.101562 40.851562 114.199219 40 114.398438 40 C 115.300781 40 118 43.648438 118 44.898438 C 118 45.148438 117.398438 45.601562 116.699219 45.898438 C 115.898438 46.300781 115.5 46.851562 115.601562 47.449219 C 115.699219 48 115.199219 48.851562 114.5 49.398438 L 113.25 50.449219 L 114.5 50.898438 C 116 51.5 117.5 50.800781 117.449219 49.601562 C 117.398438 48.800781 117.351562 48.800781 117.148438 49.601562 C 117.050781 50.101562 116.449219 50.5 115.898438 50.5 L 114.851562 50.5 L 115.851562 49.351562 C 116.398438 48.75 116.75 47.949219 116.648438 47.550781 C 116.398438 46.949219 117.25 46.050781 118.101562 46 C 118.25 46 118.398438 47.050781 118.398438 48.351562 C 118.398438 52.75 114.5 56.949219 110.101562 57.351562 C 108 57.550781 107.601562 57.449219 106.351562 56.101562 L 104.898438 54.601562 L 106.75 52.800781 C 107.949219 51.550781 108.5 50.601562 108.398438 49.851562 C 108.25 48.898438 107.898438 48.75 105.851562 48.601562 L 103.5 48.449219 L 103.601562 45.851562 C 103.75 43.351562 103.699219 43.25 102.398438 43.101562 C 101.601562 43 101 42.75 101 42.550781 C 101 41.75 105.050781 38.550781 106.148438 38.5 C 106.351562 38.5 106.148438 39.199219 105.699219 40.050781 Z M 103.148438 44.351562 C 103.351562 44.449219 103.148438 45.199219 102.648438 46 C 101.800781 47.449219 101.851562 47.5 103 48.75 C 103.898438 49.699219 104.648438 50 105.699219 49.898438 C 107.699219 49.699219 107.851562 50.699219 106.050781 52.050781 C 104 53.550781 103.75 54.449219 105.050781 55.851562 C 106.851562 57.699219 105.050781 57.25 102.898438 55.300781 C 100.5 53.101562 99.449219 50.949219 99.398438 48.101562 C 99.300781 44.449219 99.800781 43.449219 101.398438 43.800781 C 102.148438 44 102.898438 44.25 103.148438 44.351562 Z M 103.148438 44.351562 "/>
<path style=" stroke:none;fill-rule:nonzero;fill:rgb(0%,0%,0%);fill-opacity:1;" d="M 109.148438 53 C 107.5 53.699219 107.75 54.851562 109.601562 55.25 C 110.800781 55.550781 111.351562 55.398438 111.851562 54.699219 C 113.101562 53 111.550781 52 109.148438 53 Z M 111 54 C 111 54.25 110.550781 54.5 109.949219 54.5 C 109.398438 54.5 109.101562 54.25 109.25 54 C 109.398438 53.699219 109.898438 53.5 110.300781 53.5 C 110.699219 53.5 111 53.699219 111 54 Z M 111 54 "/>
<path style=" stroke:none;fill-rule:nonzero;fill:rgb(0%,0%,0%);fill-opacity:1;" d="M 32.25 41.050781 C 30.898438 43.148438 34.601562 48.449219 43.648438 57.449219 L 49.898438 63.648438 L 49.148438 65.449219 C 48.601562 66.75 48.449219 68.5 48.601562 72 C 48.851562 77.75 50.148438 80.75 54.25 84.800781 L 56.851562 87.398438 L 53.550781 90.601562 C 49.050781 94.949219 46.898438 96.5 42.601562 98.449219 C 39.449219 99.898438 38.601562 100.050781 35.851562 99.851562 C 34.148438 99.75 32.300781 99.5 31.699219 99.300781 C 30.851562 99 30.601562 99.199219 30.050781 101 C 29.550781 102.699219 29.601562 103.800781 30.25 107.398438 C 30.699219 109.800781 31.550781 112.851562 32.199219 114.25 C 33.5 117.101562 38.25 123.199219 41.851562 126.550781 C 43.949219 128.5 44.300781 129.101562 44.398438 131 C 44.5 132.199219 44.75 133.550781 45 134 C 45.25 134.449219 45.601562 139.101562 45.800781 144.300781 C 46.101562 153.199219 46.050781 154.101562 44.851562 160 C 44.148438 163.449219 42.949219 167.601562 42.25 169.25 C 40.648438 172.800781 34.550781 181.101562 32.601562 182.351562 C 31.851562 182.800781 30.101562 184.199219 28.648438 185.398438 C 26.449219 187.199219 26 187.949219 25.75 189.699219 C 25.351562 192.148438 26.351562 194.601562 28 195.5 C 28.550781 195.800781 29 196.398438 29 196.851562 C 29 198.699219 31.050781 201.898438 32.699219 202.699219 C 34.75 203.699219 38.449219 203.75 40.648438 202.851562 C 42.949219 201.851562 48 195.449219 50.199219 190.648438 C 51.601562 187.648438 57.101562 186.101562 60.300781 187.800781 C 63.550781 189.550781 64.75 196.648438 63 203.75 C 62.351562 206.449219 62.398438 209.199219 63.101562 210.75 C 64.351562 213.5 71.449219 215.601562 73.601562 213.851562 C 74.898438 212.800781 76.5 209.699219 76.5 208.148438 C 76.5 207.351562 75.949219 204.648438 75.300781 202.148438 C 73.800781 196.25 74.148438 194.351562 78.601562 185.101562 C 80.5 181.199219 83.5 178.699219 86.898438 178.199219 C 89.050781 177.898438 89.25 177.949219 90.601562 179.449219 C 91.351562 180.300781 92 181.351562 92 181.800781 C 92 183.398438 94 186.351562 95.449219 187 C 97.699219 187.898438 99.148438 187.300781 100.449219 184.898438 C 102.148438 181.851562 103 181 104.300781 181 C 105.75 181 106.699219 182.398438 108 186.25 C 109.550781 190.949219 112.699219 193.5 116.898438 193.5 C 118.601562 193.5 123.550781 191.648438 124.699219 190.550781 C 125.601562 189.699219 130.949219 187 131.75 187 C 131.898438 187 133.199219 187 134.648438 187 C 138.101562 187 139.050781 186.25 139.351562 183.351562 C 139.601562 181.199219 139.5 180.898438 138.050781 179.550781 C 137.199219 178.75 135.398438 177.550781 134.101562 176.949219 C 127.199219 173.601562 120.199219 168 117.148438 163.300781 C 113.699219 158.101562 111 146.398438 110.648438 135.5 L 110.449219 129.25 L 113 126.25 C 118.75 119.601562 121.300781 111.050781 121.550781 97.949219 C 121.648438 94.449219 121.898438 92.5 122.351562 91.949219 C 124.101562 89.851562 126 78.648438 126 70 C 126 65.101562 124.398438 58 123.25 58 C 123 58 121.648438 58.851562 120.25 59.898438 C 115.300781 63.601562 115.101562 63.648438 109.449219 64.050781 C 106.5 64.25 103.699219 64.648438 103.199219 64.898438 C 102.148438 65.5 98.5 69.75 93.949219 75.601562 C 92.300781 77.75 90.699219 79.5 90.300781 79.5 C 89.949219 79.5 89.25 79.050781 88.800781 78.550781 C 88 77.699219 88 77.300781 88.5 75.699219 C 88.898438 74.601562 89.050781 72.25 88.898438 69.699219 C 88.699219 66.25 88.398438 65 87 62.300781 C 84.949219 58.148438 81.5 54.898438 77.101562 52.851562 C 74.101562 51.449219 73.25 51.300781 69 51.25 C 65.148438 51.25 63.75 51.449219 61.398438 52.398438 L 58.550781 53.601562 L 52.398438 49.449219 C 42.199219 42.648438 33.5 39 32.25 41.050781 Z M 41 44.25 C 45.148438 46.300781 47.800781 47.898438 54.398438 52.148438 C 57.25 54.050781 58.148438 55 57.050781 55 C 56.800781 55 55.25 54.148438 53.648438 53.050781 C 41.75 45.199219 41.449219 49.300781 53.101562 60.050781 C 61.699219 67.949219 76.398438 79.699219 81.300781 82.601562 C 83.351562 83.800781 82.851562 84.5 79.949219 84.5 C 78.398438 84.5 77.101562 83.699219 71.449219 79.449219 C 53.648438 65.949219 38.25 51.601562 34.199219 44.699219 C 31.898438 40.800781 33.800781 40.648438 41 44.25 Z M 52.398438 53.648438 L 55.601562 55.648438 L 54.25 56.949219 L 52.949219 58.25 L 49.449219 54.601562 C 47.550781 52.550781 46 50.699219 46 50.449219 C 46 49.898438 48.148438 50.949219 52.398438 53.648438 Z M 75.851562 53.800781 C 76.25 54.300781 77.148438 54.800781 77.851562 54.851562 C 78.550781 54.898438 79.398438 55.199219 79.699219 55.5 C 80.101562 55.898438 78.550781 56 74 55.800781 C 66.351562 55.550781 61.898438 54.949219 61.648438 54.148438 C 61.25 53.050781 64.25 52.5 69.699219 52.648438 C 74.398438 52.800781 75.25 52.949219 75.851562 53.800781 Z M 61 54.449219 C 61 55.648438 65.75 56.550781 74.5 56.949219 C 81.601562 57.25 83 57.550781 83 58.601562 C 83 58.949219 81.851562 59 79.550781 58.800781 C 76.148438 58.449219 76.050781 58.5 75.25 59.898438 C 72.449219 64.648438 66.25 64.550781 62.050781 59.699219 C 61.101562 58.648438 59.648438 57.351562 58.851562 56.851562 C 57.851562 56.25 57.550781 55.75 57.851562 55.449219 C 58.648438 54.648438 63.351562 57.851562 63.949219 59.550781 C 64.5 61.199219 66.148438 62 68.898438 62 C 71.648438 62 72.949219 61.5 73.300781 60.398438 C 73.851562 58.648438 72.449219 57.949219 68.25 57.699219 C 65.199219 57.550781 63.851562 57.199219 61.949219 56.148438 C 60.648438 55.398438 59.699219 54.601562 59.800781 54.398438 C 60.148438 53.851562 61 53.898438 61 54.449219 Z M 61.25 60.300781 C 62.199219 61.75 65.699219 63.800781 67.949219 64.199219 C 70.601562 64.699219 73.199219 63.699219 75.199219 61.5 L 76.949219 59.550781 L 80.398438 59.699219 C 83.949219 59.851562 85 60.199219 85 61.050781 C 85 61.398438 84.050781 61.449219 82.398438 61.25 C 79.949219 60.949219 79.648438 61.050781 78.25 62.398438 C 76.148438 64.449219 72.851562 66 70.648438 66 C 68.398438 66 65.601562 64.800781 62.050781 62.300781 C 60.601562 61.351562 58.601562 60.398438 57.601562 60.199219 C 56.601562 60 55.351562 59.648438 54.800781 59.398438 C 53.949219 58.949219 54 58.800781 55.25 57.5 L 56.648438 56.050781 L 58.550781 57.601562 C 59.601562 58.449219 60.851562 59.648438 61.25 60.300781 Z M 72 59.25 C 72.300781 59.648438 72.449219 60.199219 72.25 60.5 C 71.800781 61.199219 70.851562 61.148438 71.148438 60.351562 C 71.300781 59.949219 70.648438 59.699219 68.898438 59.648438 C 67.449219 59.601562 66.601562 59.75 66.75 60 C 66.949219 60.300781 67.601562 60.5 68.300781 60.5 C 68.949219 60.5 69.5 60.699219 69.5 61 C 69.5 62.351562 65.898438 61.148438 65 59.5 C 64.5 58.550781 64.648438 58.5 67.898438 58.5 C 70.351562 58.5 71.550781 58.699219 72 59.25 Z M 123.898438 62.300781 C 125.148438 66.601562 124.398438 81.851562 122.648438 87.949219 C 122.25 89.398438 120.449219 92.851562 118.648438 95.601562 C 116.851562 98.351562 115.148438 101.300781 114.898438 102.199219 C 114.601562 103.050781 114.199219 103.949219 114 104.25 C 113.199219 105.351562 110.050781 116.148438 110 117.949219 C 110 119.5 111.398438 117.398438 111.699219 115.398438 C 112.449219 110.898438 115.648438 102.550781 118.898438 96.898438 C 120.25 94.5 121.300781 93.699219 120.800781 95.351562 C 120.699219 95.851562 120.398438 98.5 120.25 101.25 C 119.550781 112.800781 116.851562 120.550781 111.898438 125.398438 C 110.699219 126.550781 108.5 128.75 107 130.351562 C 98.101562 139.601562 93.949219 143.199219 90.898438 144.351562 C 89.300781 144.949219 86.300781 145.199219 78.898438 145.398438 L 69 145.601562 L 66.449219 144.300781 C 57.148438 139.398438 40.800781 125.148438 35.300781 117.101562 C 33.351562 114.25 32.75 112.800781 31.800781 108.550781 C 30.699219 103.699219 30.601562 101 31.550781 101 C 31.800781 101 32 101.199219 32 101.449219 C 32 101.699219 33.25 103.550781 34.800781 105.550781 C 38.949219 110.851562 41.148438 114.449219 41.75 116.898438 C 42.351562 119.148438 43.351562 119.648438 43.101562 117.5 C 42.800781 115 40.300781 110.800781 35.398438 104.648438 L 32.550781 101.050781 L 36.449219 101.050781 C 39.898438 101.050781 40.699219 100.851562 43.851562 99.300781 C 48.148438 97.148438 51.25 94.75 56.050781 89.800781 C 58.101562 87.75 60.851562 85.5 62.199219 84.800781 C 64.800781 83.449219 68.25 83.050781 68.601562 84.101562 C 69.050781 85.398438 68 88.898438 66.300781 91.949219 C 64.148438 95.75 63.949219 98.148438 65.699219 100.898438 C 66.351562 101.898438 67.199219 103 67.550781 103.300781 C 68.351562 103.949219 76.851562 104.101562 78.050781 103.5 C 78.449219 103.25 79.949219 103 81.300781 102.851562 C 84.449219 102.601562 84.75 102.398438 86 100 C 88 96.101562 87.050781 92.101562 83.300781 88.648438 C 82.050781 87.5 81 86.351562 81 86.101562 C 81 85.851562 81.949219 85.351562 83.148438 85 C 84.300781 84.648438 86.101562 83.949219 87.199219 83.398438 C 89.699219 82.148438 95.351562 76.449219 97.601562 72.949219 C 98.550781 71.449219 100.5 69.199219 101.898438 67.851562 L 104.449219 65.5 L 108.699219 65.5 C 113.648438 65.5 116.101562 64.648438 120.050781 61.5 C 121.5 60.351562 122.800781 59.648438 123 59.851562 C 123.199219 60.050781 123.601562 61.199219 123.898438 62.300781 Z M 62 63.398438 C 63.5 64.398438 65.449219 65.5 66.25 65.851562 C 68.101562 66.550781 72.851562 66.648438 74.800781 66 C 77.199219 65.199219 86.148438 64.550781 86.898438 65.101562 C 88 66 87.550781 66.351562 84.949219 66.699219 C 83.550781 66.898438 82 67.300781 81.5 67.601562 C 80.800781 68.050781 79.800781 68.050781 77.398438 67.601562 C 75.648438 67.300781 72.898438 67.050781 71.25 67.050781 C 69.601562 67.050781 66.898438 66.898438 65.25 66.699219 C 62.5 66.449219 61.949219 66.148438 59 63.601562 C 55.800781 60.898438 55.800781 60.851562 57.5 61.199219 C 58.449219 61.351562 60.5 62.351562 62 63.398438 Z M 86.148438 63 C 86.398438 63.949219 86.148438 64 82.148438 64 C 77.898438 64 77.851562 64 78.75 63 C 79.449219 62.199219 80.300781 62 82.75 62 C 85.449219 62 85.898438 62.148438 86.148438 63 Z M 52.398438 65.449219 C 53.898438 66.75 53.800781 67.050781 51.898438 66.648438 C 49.851562 66.300781 49.898438 66.300781 50.300781 65.300781 C 50.699219 64.300781 51 64.300781 52.398438 65.449219 Z M 72 68.101562 C 80.949219 68.699219 81.300781 68.648438 84.5 68.050781 C 87.199219 67.550781 88.449219 67.851562 87.800781 68.949219 C 87.601562 69.25 86.699219 69.5 85.800781 69.5 C 84.648438 69.5 83.699219 70 82.351562 71.25 C 79.851562 73.601562 77.800781 73.601562 74.75 71.300781 C 72.648438 69.648438 72.300781 69.550781 69.75 69.800781 C 67.5 70.050781 66.699219 69.898438 65.25 69 C 63.449219 67.898438 62.800781 66.550781 64.398438 67.300781 C 64.851562 67.5 68.300781 67.851562 72 68.101562 Z M 56.648438 69.351562 L 58.25 70.648438 L 55.800781 70.351562 C 54.449219 70.148438 52.5 70 51.449219 70 C 49.851562 70 49.5 69.800781 49.5 69.050781 C 49.5 67.800781 50.300781 67.5 52.898438 67.75 C 54.300781 67.898438 55.699219 68.5 56.648438 69.351562 Z M 88 70.800781 C 88 71.199219 87.75 71.398438 87.5 71.25 C 87.199219 71.050781 86.25 71.398438 85.300781 71.949219 C 84.398438 72.550781 83.300781 73 82.851562 73 C 81.449219 73 84.101562 70.601562 85.75 70.351562 C 86.601562 70.25 87.398438 70.101562 87.648438 70.050781 C 87.851562 70.050781 88 70.351562 88 70.800781 Z M 53.699219 71.25 C 56.148438 71.75 57.351562 71.851562 57.800781 71.449219 C 58.25 71.050781 58.851562 71.25 59.949219 72.050781 C 60.800781 72.699219 61.5 73.300781 61.5 73.449219 C 61.5 73.601562 58.851562 73.699219 55.648438 73.648438 L 49.75 73.550781 L 49.601562 72 C 49.398438 70.25 49.199219 70.300781 53.699219 71.25 Z M 73.550781 71.550781 L 74.75 72.550781 L 72.898438 72.300781 C 71.851562 72.199219 71 72.25 71 72.550781 C 71 72.800781 71.699219 73 72.5 73 C 73.351562 73 74.851562 73.351562 75.851562 73.75 C 78.601562 74.898438 81.851562 74.699219 84.851562 73.148438 C 87.75 71.699219 88.300781 71.800781 87.800781 73.648438 C 87.601562 74.601562 87.050781 74.949219 85.648438 75.25 C 84.398438 75.449219 83 76.300781 81.648438 77.601562 C 79.699219 79.5 79.398438 79.601562 78.25 79.101562 C 76.75 78.398438 76.648438 77.699219 78 77.25 C 78.550781 77.101562 79 76.75 79 76.550781 C 79 76.148438 73.800781 74.5 72.5 74.5 C 72.101562 74.5 71.351562 74.050781 70.75 73.5 C 70.199219 72.949219 69.199219 72.050781 68.5 71.5 L 67.25 70.550781 L 69.800781 70.5 C 71.699219 70.5 72.699219 70.75 73.550781 71.550781 Z M 62.648438 74.75 C 63.601562 75 64 75.449219 64 76.25 C 64 77.800781 65.398438 78.898438 67.898438 79.300781 C 69.101562 79.5 70.300781 80 70.648438 80.5 C 71 80.949219 71.75 81.5 72.398438 81.699219 C 73 81.898438 73.5 82.300781 73.5 82.550781 C 73.5 82.800781 73.851562 83 74.25 83 C 74.648438 83 75 83.199219 75 83.449219 C 75 83.699219 75.398438 84.050781 75.898438 84.148438 C 76.398438 84.300781 76.25 84.398438 75.398438 84.449219 C 74.648438 84.449219 73.851562 84.199219 73.648438 83.851562 C 73.398438 83.449219 71.449219 82.949219 69 82.601562 C 63.398438 81.851562 63.101562 81.800781 60.75 80.75 C 59.449219 80.199219 57.648438 79.898438 55.550781 79.949219 C 52.648438 80 50.699219 79.398438 51.199219 78.550781 C 51.300781 78.398438 53.398438 78.25 55.851562 78.25 C 59.699219 78.300781 60.550781 78.449219 62.898438 79.75 C 64.648438 80.648438 66.5 81.199219 68.148438 81.300781 C 69.601562 81.351562 70.101562 81.300781 69.25 81.199219 C 67.699219 80.949219 64.851562 79.851562 63.5 78.949219 C 60.800781 77.199219 59.199219 76.898438 54.898438 77.199219 C 52.449219 77.351562 50.5 77.300781 50.5 77.101562 C 50.5 76.898438 50.351562 76.300781 50.199219 75.699219 C 49.949219 74.699219 50.101562 74.648438 55.648438 74.550781 C 58.75 74.5 61.949219 74.601562 62.648438 74.75 Z M 77.449219 76.75 C 77.550781 76.898438 77.101562 77 76.351562 77 C 75.25 77 73.5 75.898438 73.5 75.199219 C 73.5 74.949219 77.050781 76.351562 77.449219 76.75 Z M 87 77 C 86.351562 78.199219 82.351562 81 81.300781 81 C 80.351562 81 79.648438 79.851562 80.449219 79.601562 C 80.75 79.5 81.75 78.800781 82.601562 78.101562 C 85.449219 75.648438 88.050781 75.050781 87 77 Z M 66.75 77.25 C 67.550781 77.898438 68.050781 78.601562 67.898438 78.75 C 67.75 78.949219 66.851562 78.398438 65.898438 77.550781 C 63.949219 75.75 64.601562 75.5 66.75 77.25 Z M 84.949219 81.25 C 83.601562 83.199219 83.351562 83.300781 82.550781 82.300781 C 82.050781 81.75 82.148438 81.5 82.898438 81.300781 C 83.449219 81.101562 84.25 80.550781 84.75 80 C 86.148438 78.449219 86.300781 79.300781 84.949219 81.25 Z M 88.5 79.75 C 88.851562 80.199219 89 80.648438 88.851562 80.851562 C 88.449219 81.199219 87 80.101562 87 79.449219 C 87 78.75 87.800781 78.898438 88.5 79.75 Z M 60.648438 81.5 C 63.300781 82.25 62.75 83.148438 59.199219 83.851562 C 56.949219 84.351562 56.75 84.449219 58.398438 84.300781 C 59.550781 84.199219 60.5 84.199219 60.5 84.300781 C 60.5 84.398438 59.949219 84.851562 59.25 85.300781 C 57.898438 86.199219 56 85.851562 56 84.699219 C 56 84.300781 55.648438 84 55.25 84 C 54.800781 84 54.300781 83.601562 54.148438 83.101562 C 53.949219 82.648438 53.550781 82.050781 53.148438 81.851562 C 52.800781 81.648438 52.5 81.199219 52.5 80.898438 C 52.5 80.25 57.648438 80.648438 60.648438 81.5 Z M 87.25 81.449219 C 87.5 81.898438 85.5 83.648438 85.101562 83.300781 C 84.851562 83 86.148438 81 86.601562 81 C 86.800781 81 87.050781 81.199219 87.25 81.449219 Z M 70.851562 88.800781 C 70.648438 92 70.300781 93.949219 69.75 94.851562 C 69.199219 95.648438 69.101562 96.300781 69.398438 96.601562 C 69.699219 96.898438 70.199219 96.550781 70.75 95.648438 C 71.398438 94.648438 71.75 92.949219 71.898438 89.398438 C 72.148438 84.550781 72.300781 84 73.300781 85 C 73.601562 85.300781 74.949219 85.648438 76.351562 85.851562 L 78.898438 86.148438 L 78.449219 87.601562 C 77.949219 89.398438 78.898438 94 79.851562 94.351562 C 80.949219 94.800781 81.050781 94.25 80.25 92.699219 C 79.851562 91.898438 79.5 90.199219 79.5 88.851562 C 79.5 86.449219 80.199219 85.699219 80.75 87.5 C 80.898438 88.050781 81.648438 88.949219 82.351562 89.5 C 83.101562 90.050781 84 91 84.398438 91.601562 C 85.449219 93.101562 86.050781 96.75 85.5 98.25 C 85.101562 99.300781 84.699219 99.5 83.101562 99.5 C 81.75 99.5 80.851562 99.851562 80.199219 100.550781 C 79 101.851562 76.851562 103 75.550781 103 C 75 103 73.949219 102.449219 73.148438 101.851562 C 71.050781 100.050781 69.199219 99.75 68.300781 101.050781 C 67.601562 102.101562 67.601562 102.101562 66.800781 100.601562 C 65.5 98.148438 65.800781 95.601562 67.75 91.851562 C 68.75 89.949219 69.648438 87.449219 69.851562 86.199219 C 70 85 70.351562 84 70.648438 84 C 70.949219 84 71.050781 85.699219 70.851562 88.800781 Z M 109.300781 134.398438 C 109.398438 143.5 111.601562 154.699219 114.75 161.648438 C 117.050781 166.75 124.648438 173.550781 132.550781 177.5 C 136.851562 179.648438 138 180.851562 138 183.050781 C 138 185.398438 137.199219 185.851562 133.148438 185.949219 C 130.449219 186 125.898438 187.699219 124.398438 189.199219 C 121.800781 191.800781 115.550781 192.800781 112.648438 191 C 110.851562 189.898438 110.300781 189.050781 108.949219 185.101562 C 107.898438 182 105.851562 179.5 104.351562 179.5 C 103.25 179.5 100.601562 182.101562 99.398438 184.398438 C 98.648438 185.851562 98.300781 186.050781 96.898438 185.898438 C 95.050781 185.75 93 183.199219 93 181.148438 C 93 180.449219 92.351562 179.25 91.550781 178.449219 C 90.351562 177.25 89.648438 177 87.75 177 C 83.351562 177 79.398438 180.199219 76.898438 185.75 C 72.699219 195.25 72.351562 197 73.800781 201.050781 C 74.199219 202.25 74.699219 204.75 74.851562 206.601562 C 75.101562 209.699219 75.050781 210.101562 73.800781 211.75 C 72.199219 213.851562 70.101562 214.101562 67 212.5 C 63.898438 210.898438 63.398438 209.800781 64.050781 205.949219 C 65.101562 200 65.148438 194.050781 64.148438 191 C 62.949219 187.398438 60.300781 185.351562 57.148438 185.648438 C 53.398438 186.050781 50.648438 187.5 49.199219 190 C 48.5 191.25 47.351562 193.25 46.601562 194.5 C 45.898438 195.699219 44.148438 197.898438 42.75 199.300781 C 40.648438 201.449219 39.851562 201.949219 37.898438 202.199219 C 33.800781 202.800781 30.5 200.449219 30.5 196.898438 C 30.5 196.199219 29.851562 195.199219 28.699219 194.300781 C 26.949219 192.949219 26.898438 192.75 27.148438 190.351562 C 27.398438 187.699219 27.25 187.851562 32.351562 183.949219 C 33.800781 182.851562 36.648438 179.851562 38.601562 177.25 C 42.550781 172.148438 45 166.851562 46.148438 161 C 47 156.449219 46.949219 136.550781 46.050781 133.351562 C 45.648438 132.050781 45.449219 130.898438 45.550781 130.75 C 45.648438 130.648438 48.5 132.800781 51.851562 135.5 C 58.351562 140.75 62.398438 143.648438 66 145.550781 C 68.199219 146.699219 68.5 146.75 78.25 146.601562 C 85.699219 146.5 88.898438 146.25 90.699219 145.648438 C 94.101562 144.550781 101.898438 138.050781 105.898438 133 C 107.648438 130.800781 109.101562 129 109.148438 129 C 109.199219 129 109.25 131.398438 109.300781 134.398438 Z M 109.300781 134.398438 "/>
<path style=" stroke:none;fill-rule:nonzero;fill:rgb(0%,0%,0%);fill-opacity:1;" d="M 65.699219 53.398438 C 66.25 54.300781 70.851562 55.101562 73.101562 54.699219 L 75.25 54.300781 L 72 54 C 70.199219 53.800781 68 53.5 67.050781 53.300781 C 65.949219 53.050781 65.5 53.050781 65.699219 53.398438 Z M 65.699219 53.398438 "/>
<path style=" stroke:none;fill-rule:nonzero;fill:rgb(0%,0%,0%);fill-opacity:1;" d="M 74.5 107.449219 C 74.5 108.601562 74.75 109.5 75 109.5 C 75.300781 109.5 75.5 108.75 75.5 107.800781 C 75.5 106.851562 75.300781 105.898438 75 105.75 C 74.699219 105.550781 74.5 106.25 74.5 107.449219 Z M 74.5 107.449219 "/>
<path style=" stroke:none;fill-rule:nonzero;fill:rgb(0%,0%,0%);fill-opacity:1;" d="M 79.300781 105.851562 C 78.851562 106.351562 78.949219 109.5 79.449219 109.5 C 80.351562 109.5 80.898438 106.300781 80.050781 105.800781 C 79.851562 105.648438 79.5 105.648438 79.300781 105.851562 Z M 79.300781 105.851562 "/>
<path style=" stroke:none;fill-rule:nonzero;fill:rgb(0%,0%,0%);fill-opacity:1;" d="M 68.199219 110.699219 C 67.398438 110.949219 65.648438 111.851562 64.25 112.648438 C 62.898438 113.449219 60.800781 114.550781 59.648438 115.050781 C 58.449219 115.550781 57.5 116.300781 57.5 116.648438 C 57.5 117.5 63.601562 121.300781 66.601562 122.351562 C 67.800781 122.75 69.851562 123.199219 71.199219 123.351562 L 73.648438 123.648438 L 70.5 124.800781 C 67.25 125.949219 66.101562 126.75 66.648438 127.351562 C 66.851562 127.5 67.851562 127.199219 68.898438 126.648438 C 69.898438 126.050781 72.148438 125.300781 73.898438 124.949219 C 76.648438 124.351562 77.601562 124.398438 81.101562 125.101562 C 83.300781 125.601562 85.5 126.300781 85.949219 126.75 C 87.050781 127.699219 87.5 127.699219 87.5 126.75 C 87.5 125.699219 85.199219 124.648438 80.949219 123.800781 C 77.75 123.199219 77.550781 123.101562 79.351562 123.050781 C 81.75 123 88.25 120.800781 89.75 119.550781 C 90.300781 119.101562 91.398438 118.398438 92.148438 118 C 92.949219 117.601562 94.148438 116.601562 94.851562 115.800781 C 96.050781 114.398438 96.050781 114.25 95.199219 113.648438 C 94.699219 113.300781 93.949219 113 93.449219 113 C 93 113 91.300781 112.398438 89.699219 111.648438 C 86.851562 110.300781 86.449219 110.25 78.199219 110.25 C 73.449219 110.199219 69 110.398438 68.199219 110.699219 Z M 86.5 111.699219 C 87.75 112.101562 89.699219 112.851562 90.898438 113.398438 L 93.050781 114.351562 L 90.398438 114.648438 C 88.949219 114.851562 86.601562 115 85.199219 115 C 83.800781 115 81.449219 115.351562 79.949219 115.800781 C 77.898438 116.398438 76.351562 116.550781 73.5 116.25 C 68.050781 115.75 65.101562 115.699219 62 116.148438 L 59.25 116.550781 L 69.25 111.449219 L 74 111.75 C 76.851562 111.949219 79.25 111.851562 80 111.550781 C 81.75 110.851562 83.898438 110.898438 86.5 111.699219 Z M 93.5 115.699219 C 93.101562 116.101562 91.851562 116.898438 90.75 117.550781 C 83.851562 121.449219 80.800781 122.199219 73 121.898438 C 68.199219 121.75 67.449219 121.601562 64.5 120.050781 C 59.351562 117.449219 59.199219 117 63 116.898438 C 68.101562 116.75 69.449219 116.851562 71.550781 117.5 C 73.050781 118 74.148438 118 76.601562 117.550781 C 78.351562 117.25 82.5 116.648438 85.898438 116.300781 C 89.25 115.949219 92.199219 115.5 92.351562 115.300781 C 92.550781 115.148438 93 115 93.449219 115 C 94.101562 115 94.101562 115.101562 93.5 115.699219 Z M 93.5 115.699219 "/>
<path style=" stroke:none;fill-rule:nonzero;fill:rgb(0%,0%,0%);fill-opacity:1;" d="M 75.75 69.949219 C 75.601562 70.25 76.300781 70.800781 77.25 71.300781 C 78.75 72 79.300781 72.050781 80.398438 71.5 C 81.699219 70.949219 81.699219 70.898438 80.75 70.199219 C 79.699219 69.398438 76.199219 69.25 75.75 69.949219 Z M 79.75 70.5 C 79.898438 70.75 79.601562 71 79.050781 71 C 78.5 71 77.898438 70.75 77.75 70.5 C 77.601562 70.199219 77.898438 70 78.449219 70 C 79 70 79.601562 70.199219 79.75 70.5 Z M 79.75 70.5 "/>
<path style=" stroke:none;fill-rule:nonzero;fill:rgb(0%,0%,0%);fill-opacity:1;" d="M 54.5 82.199219 C 54.5 82.851562 55.050781 83 57.25 83 C 58.75 83 60 82.75 60 82.5 C 60 82.199219 59.601562 82 59.148438 82 C 58.648438 82 57.398438 81.851562 56.398438 81.699219 C 54.851562 81.449219 54.5 81.5 54.5 82.199219 Z M 54.5 82.199219 "/>
<path style=" stroke:none;fill-rule:nonzero;fill:rgb(0%,0%,0%);fill-opacity:1;" d="M 65.351562 48.25 C 64.949219 49.148438 65.898438 49.800781 66.601562 49.101562 C 67.148438 48.550781 66.75 47.5 66 47.5 C 65.800781 47.5 65.5 47.851562 65.351562 48.25 Z M 65.351562 48.25 "/>
<path style=" stroke:none;fill-rule:nonzero;fill:rgb(0%,0%,0%);fill-opacity:1;" d="M 31.101562 54.699219 C 31.148438 55.199219 31.5 55.550781 31.75 55.550781 C 32.5 55.5 32.351562 54.351562 31.601562 54.101562 C 31.148438 53.949219 30.949219 54.199219 31.101562 54.699219 Z M 31.101562 54.699219 "/>
<path style=" stroke:none;fill-rule:nonzero;fill:rgb(0%,0%,0%);fill-opacity:1;" d="M 93.5 55.75 C 93.5 56.148438 93.851562 56.5 94.25 56.5 C 94.648438 56.5 95 56.148438 95 55.75 C 95 55.351562 94.648438 55 94.25 55 C 93.851562 55 93.5 55.351562 93.5 55.75 Z M 93.5 55.75 "/>
<path style=" stroke:none;fill-rule:nonzero;fill:rgb(0%,0%,0%);fill-opacity:1;" d="M 21.300781 57.601562 C 17.898438 60.601562 17.898438 65.5 21.25 68.449219 C 22.75 69.75 23.449219 70 25.601562 70 C 27.949219 70 28.300781 69.851562 30.101562 68 C 31.851562 66.101562 32 65.75 32 63 C 32 60.148438 31.898438 59.898438 30 58 C 28.199219 56.199219 27.75 56 25.601562 56 C 23.550781 56 22.851562 56.25 21.300781 57.601562 Z M 27.148438 57.601562 C 28.949219 58.648438 30 59.601562 29.75 60 C 29.601562 60.199219 29.851562 60.5 30.25 60.699219 C 31.449219 61.148438 31.101562 62 29.699219 62 C 29 62 28.550781 62.199219 28.699219 62.449219 C 28.851562 62.699219 29.449219 62.800781 30.050781 62.648438 C 30.949219 62.398438 31.050781 62.550781 30.898438 63.800781 C 30.800781 64.949219 30.449219 65.300781 29.25 65.550781 C 28 65.800781 27.949219 65.898438 28.898438 65.949219 C 30.398438 66 30.101562 66.949219 28.199219 68.050781 C 26.050781 69.351562 21.5 68.449219 21.5 66.75 C 21.5 66.351562 21.300781 66 21 66 C 20.75 66 20.5 65.75 20.5 65.5 C 20.5 65.199219 20.949219 65 21.550781 65 C 22.101562 65 22.449219 64.800781 22.300781 64.550781 C 22.148438 64.300781 21.550781 64.199219 21 64.351562 C 20.25 64.550781 20 64.351562 20 63.550781 C 20 62.75 20.300781 62.5 21.300781 62.5 C 22.050781 62.5 22.449219 62.300781 22.25 62 C 22.050781 61.699219 21.5 61.601562 20.949219 61.75 C 19.800781 62.148438 19.75 61.898438 20.75 60 C 21.199219 59.148438 21.851562 58.5 22.300781 58.5 C 22.699219 58.5 22.949219 58.300781 22.75 58.050781 C 22.601562 57.800781 23.101562 57.449219 23.851562 57.351562 C 24.648438 57.25 25.398438 57.101562 25.648438 57.050781 C 25.851562 57.050781 26.5 57.300781 27.148438 57.601562 Z M 27.148438 57.601562 "/>
<path style=" stroke:none;fill-rule:nonzero;fill:rgb(0%,0%,0%);fill-opacity:1;" d="M 26.5 59.5 C 25.449219 59.800781 25.398438 59.898438 26.101562 60.25 C 26.601562 60.449219 27.398438 60.25 28.101562 59.800781 C 29.300781 58.949219 28.648438 58.800781 26.5 59.5 Z M 26.5 59.5 "/>
<path style=" stroke:none;fill-rule:nonzero;fill:rgb(0%,0%,0%);fill-opacity:1;" d="M 21.5 60 C 21.5 60.25 22.050781 60.5 22.75 60.5 C 23.449219 60.5 24 60.25 24 60 C 24 59.699219 23.449219 59.5 22.75 59.5 C 22.050781 59.5 21.5 59.699219 21.5 60 Z M 21.5 60 "/>
<path style=" stroke:none;fill-rule:nonzero;fill:rgb(0%,0%,0%);fill-opacity:1;" d="M 24 61.5 C 24 61.75 24.800781 62 25.800781 62 C 26.851562 62 27.449219 61.800781 27.25 61.5 C 27.101562 61.199219 26.300781 61 25.449219 61 C 24.648438 61 24 61.199219 24 61.5 Z M 24 61.5 "/>
<path style=" stroke:none;fill-rule:nonzero;fill:rgb(0%,0%,0%);fill-opacity:1;" d="M 23.5 63 C 23.5 63.25 23.851562 63.5 24.25 63.5 C 24.648438 63.5 25 63.25 25 63 C 25 62.699219 24.648438 62.5 24.25 62.5 C 23.851562 62.5 23.5 62.699219 23.5 63 Z M 23.5 63 "/>
<path style=" stroke:none;fill-rule:nonzero;fill:rgb(0%,0%,0%);fill-opacity:1;" d="M 27.300781 64 C 27.601562 64.300781 28.351562 64.300781 29.25 64.050781 C 30.75 63.601562 30.75 63.601562 28.800781 63.550781 C 27.5 63.5 26.949219 63.648438 27.300781 64 Z M 27.300781 64 "/>
<path style=" stroke:none;fill-rule:nonzero;fill:rgb(0%,0%,0%);fill-opacity:1;" d="M 24.800781 64.398438 C 24.550781 64.851562 25.898438 66.800781 26.25 66.449219 C 26.351562 66.300781 26.351562 65.699219 26.148438 65.101562 C 25.898438 64 25.25 63.648438 24.800781 64.398438 Z M 24.800781 64.398438 "/>
<path style=" stroke:none;fill-rule:nonzero;fill:rgb(0%,0%,0%);fill-opacity:1;" d="M 22.5 66 C 22.5 66.25 22.851562 66.5 23.25 66.5 C 23.648438 66.5 24 66.25 24 66 C 24 65.699219 23.648438 65.5 23.25 65.5 C 22.851562 65.5 22.5 65.699219 22.5 66 Z M 22.5 66 "/>
<path style=" stroke:none;fill-rule:nonzero;fill:rgb(0%,0%,0%);fill-opacity:1;" d="M 27 67.300781 C 27 68 27.148438 68 27.75 67.5 C 28.148438 67.148438 28.5 66.800781 28.5 66.699219 C 28.5 66.601562 28.148438 66.5 27.75 66.5 C 27.351562 66.5 27 66.851562 27 67.300781 Z M 27 67.300781 "/>
<path style=" stroke:none;fill-rule:nonzero;fill:rgb(0%,0%,0%);fill-opacity:1;" d="M 34.5 56.75 C 34.5 57.148438 34.851562 57.5 35.25 57.5 C 35.648438 57.5 36 57.148438 36 56.75 C 36 56.351562 35.648438 56 35.25 56 C 34.851562 56 34.5 56.351562 34.5 56.75 Z M 34.5 56.75 "/>
<path style=" stroke:none;fill-rule:nonzero;fill:rgb(0%,0%,0%);fill-opacity:1;" d="M 94.851562 64.351562 C 94.25 64.898438 94.449219 65.5 95.25 65.5 C 95.648438 65.5 96 65.148438 96 64.75 C 96 63.949219 95.398438 63.75 94.851562 64.351562 Z M 94.851562 64.351562 "/>
<path style=" stroke:none;fill-rule:nonzero;fill:rgb(0%,0%,0%);fill-opacity:1;" d="M 15.601562 86.5 L 14.449219 88.949219 L 15.550781 90.5 C 16.898438 92.25 17.300781 92.351562 17.75 91 C 17.898438 90.449219 18.5 89.75 19 89.5 C 19.949219 89 19.949219 88.949219 19 87.351562 C 18.449219 86.5 18 85.351562 18 84.851562 C 18 83.199219 16.75 84.050781 15.601562 86.5 Z M 17.601562 89.101562 C 17.050781 89.800781 16.699219 89.851562 16.199219 89.449219 C 15.648438 89 15.648438 88.648438 16.300781 87.398438 L 17.101562 85.851562 L 17.699219 87.050781 C 18.25 88.050781 18.199219 88.398438 17.601562 89.101562 Z M 17.601562 89.101562 "/>
<path style=" stroke:none;fill-rule:nonzero;fill:rgb(0%,0%,0%);fill-opacity:1;" d="M 41.5 89.800781 C 41.5 90.648438 42.601562 90.5 42.898438 89.601562 C 43 89.25 42.75 89 42.300781 89 C 41.851562 89 41.5 89.351562 41.5 89.800781 Z M 41.5 89.800781 "/>
<path style=" stroke:none;fill-rule:nonzero;fill:rgb(0%,0%,0%);fill-opacity:1;" d="M 32.648438 92.25 C 32.5 92.699219 32.5 93.148438 32.648438 93.300781 C 33.101562 93.75 34 93 34 92.199219 C 34 91.25 33.050781 91.300781 32.648438 92.25 Z M 32.648438 92.25 "/>
<path style=" stroke:none;fill-rule:nonzero;fill:rgb(0%,0%,0%);fill-opacity:1;" d="M 41.601562 162.851562 C 41.648438 163.101562 41.398438 163.898438 41.101562 164.648438 C 40.75 165.449219 40.5 166.25 40.5 166.5 C 40.5 166.699219 40.199219 167 39.800781 167.148438 C 39.351562 167.351562 39.199219 167.898438 39.398438 168.800781 C 39.550781 169.75 39.5 170.050781 39.050781 169.75 C 38.148438 169.25 37 171 37.300781 172.5 C 37.398438 173.199219 37.351562 173.449219 37.199219 173.101562 C 37.050781 172.800781 36.699219 172.5 36.449219 172.5 C 35.800781 172.5 35.898438 173.699219 36.601562 174.398438 C 37.25 175.050781 38.449219 173.851562 38.5 172.449219 C 38.5 172 38.800781 171.5 39.199219 171.351562 C 39.601562 171.199219 40.050781 170.300781 40.25 169.398438 C 40.449219 168.5 40.800781 167.648438 41.050781 167.5 C 41.300781 167.351562 41.550781 166.648438 41.601562 166 C 41.699219 165.300781 42.050781 164.5 42.449219 164.199219 C 42.851562 163.898438 43 163.398438 42.800781 163.101562 C 42.398438 162.449219 41.449219 162.300781 41.601562 162.851562 Z M 41.601562 162.851562 "/>
<path style=" stroke:none;fill-rule:nonzero;fill:rgb(0%,0%,0%);fill-opacity:1;" d="M 33.601562 176.351562 C 33.300781 176.449219 33.101562 176.800781 33.300781 177.050781 C 33.601562 177.550781 32.351562 179 31.648438 179 C 31.449219 179 30.398438 179.800781 29.300781 180.75 C 28.25 181.699219 27.199219 182.5 26.949219 182.5 C 26.300781 182.5 26.398438 183.898438 27.101562 184.300781 C 27.398438 184.5 27.898438 184.300781 28.25 183.851562 C 28.601562 183.351562 29.25 183 29.75 183 C 30.351562 183 30.550781 182.699219 30.351562 182 C 30.199219 181.351562 30.351562 181 30.851562 181 C 31.800781 181 34.5 178.300781 34.5 177.351562 C 34.5 176.898438 34.800781 176.449219 35.148438 176.351562 C 35.550781 176.148438 35.5 176.101562 35 176.101562 C 34.601562 176.101562 33.949219 176.199219 33.601562 176.351562 Z M 33.601562 176.351562 "/>
</g>
</svg>
