<?xml version="1.0" standalone="no"?>
<!DOCTYPE svg PUBLIC "-//W3C//DTD SVG 20010904//EN"
 "http://www.w3.org/TR/2001/REC-SVG-20010904/DTD/svg10.dtd">
<svg version="1.0" xmlns="http://www.w3.org/2000/svg"
 width="300.000000pt" height="444.000000pt" viewBox="0 0 300.000000 444.000000"
 preserveAspectRatio="xMidYMid meet">
<metadata>
Created by potrace 1.10, written by Peter Selinger 2001-2011
</metadata>
<g transform="translate(0.000000,444.000000) scale(0.100000,-0.100000)"
fill="#000000" stroke="none">
<path d="M2175 4360 c-8 -13 4 -32 16 -25 12 8 12 35 0 35 -6 0 -13 -4 -16
-10z"/>
<path d="M2508 4303 c-8 -16 -20 -38 -28 -49 -12 -19 -10 -25 8 -52 12 -16 22
-37 22 -46 0 -27 14 -18 40 24 14 22 28 40 32 40 5 0 8 7 8 15 0 8 -4 15 -10
15 -5 0 -19 18 -30 40 -11 22 -22 40 -24 40 -3 0 -11 -12 -18 -27z m52 -68 c0
-3 -8 -17 -17 -29 l-18 -24 -16 25 c-15 23 -16 27 -1 53 l16 28 18 -23 c10
-13 18 -26 18 -30z"/>
<path d="M1032 4162 c0 -37 -22 -95 -42 -107 -5 -3 -1 -14 10 -25 11 -11 22
-32 26 -47 12 -57 15 -59 33 -23 9 19 25 49 35 66 18 30 18 31 -8 68 -14 22
-27 46 -27 55 -3 39 -5 45 -16 48 -8 3 -12 -9 -11 -35z m28 -64 c0 -6 8 -20
17 -30 11 -13 14 -22 7 -26 -6 -4 -17 -18 -24 -32 l-13 -25 -10 28 c-5 15 -12
27 -17 27 -10 0 22 69 33 70 4 0 7 -5 7 -12z"/>
<path d="M1678 4089 c-40 -21 -91 -99 -65 -99 7 0 22 7 33 15 30 23 72 18 101
-11 20 -20 24 -31 19 -57 -7 -34 -38 -64 -70 -69 -33 -5 -29 -26 9 -38 154
-51 244 174 103 260 -41 25 -82 25 -130 -1z m129 -26 c31 -20 56 -79 49 -115
-10 -49 -42 -84 -86 -96 -23 -6 -42 -6 -46 -1 -3 5 0 9 6 9 6 0 22 11 35 25
59 58 8 161 -75 153 -45 -4 -50 3 -17 25 44 28 90 28 134 0z"/>
<path d="M1315 4060 c-7 -12 2 -30 16 -30 12 0 12 27 0 35 -5 3 -12 1 -16 -5z"/>
<path d="M840 3975 c0 -8 5 -15 10 -15 6 0 10 7 10 15 0 8 -4 15 -10 15 -5 0
-10 -7 -10 -15z"/>
<path d="M2585 3870 c-4 -6 -3 -16 3 -22 6 -6 12 -6 17 2 4 6 3 16 -3 22 -6 6
-12 6 -17 -2z"/>
<path d="M1952 3838 c6 -18 28 -21 28 -4 0 9 -7 16 -16 16 -9 0 -14 -5 -12
-12z"/>
<path d="M1532 3821 c-11 -6 -10 -10 4 -15 20 -8 32 0 18 14 -5 5 -15 5 -22 1z"/>
<path d="M1340 3706 c0 -22 17 -28 24 -10 9 22 8 24 -9 24 -8 0 -15 -6 -15
-14z"/>
<path d="M1790 3668 c-8 -34 -24 -63 -44 -81 -28 -27 -29 -30 -12 -39 22 -13
46 -68 46 -108 0 -41 16 -38 24 4 4 19 22 50 42 70 34 35 35 38 20 55 -20 22
-38 74 -40 115 -2 49 -21 40 -36 -16z m46 -91 c12 -25 11 -30 -6 -47 -11 -11
-20 -24 -20 -30 0 -20 -16 -9 -34 24 -18 34 -18 35 3 62 11 15 21 36 22 48 0
19 1 19 10 -4 6 -14 17 -38 25 -53z"/>
<path d="M2090 3685 c-214 -96 -144 -419 90 -419 163 0 265 172 189 320 -38
73 -92 108 -177 111 -45 2 -79 -2 -102 -12z m146 -15 c26 -9 29 -15 31 -56 2
-47 -17 -68 -40 -45 -6 6 -30 11 -53 11 -24 0 -46 5 -50 11 -3 6 2 28 11 50
20 42 43 49 101 29z m-122 -31 c-25 -49 -7 -79 46 -79 22 0 52 -7 66 -16 23
-16 26 -15 45 2 17 15 20 26 15 56 -4 21 -2 38 2 38 18 0 72 -73 72 -98 0 -5
-12 -14 -26 -20 -16 -8 -24 -19 -22 -31 2 -11 -8 -28 -22 -39 l-25 -21 25 -9
c30 -12 60 2 59 26 -1 16 -2 16 -6 0 -2 -10 -14 -18 -25 -18 l-21 0 20 23 c11
12 18 28 16 36 -5 12 12 30 29 31 3 0 6 -21 6 -47 0 -88 -78 -172 -166 -180
-42 -4 -50 -2 -75 25 l-29 30 37 36 c24 25 35 44 33 59 -3 19 -10 22 -51 25
l-47 3 2 52 c3 50 2 52 -24 55 -16 2 -28 7 -28 11 0 16 81 80 103 81 4 0 0
-14 -9 -31z m-51 -86 c4 -2 0 -17 -10 -33 -17 -29 -16 -30 7 -55 18 -19 33
-25 54 -23 40 4 43 -16 7 -43 -41 -30 -46 -48 -20 -76 36 -37 0 -28 -43 11
-48 44 -69 87 -70 144 -2 73 8 93 40 86 15 -4 30 -9 35 -11z"/>
<path d="M2183 3380 c-33 -14 -28 -37 9 -45 24 -6 35 -3 45 11 25 34 -6 54
-54 34z m37 -20 c0 -5 -9 -10 -21 -10 -11 0 -17 5 -14 10 3 6 13 10 21 10 8 0
14 -4 14 -10z"/>
<path d="M645 3619 c-27 -42 47 -148 228 -328 l125 -124 -15 -36 c-11 -26 -14
-61 -11 -131 5 -115 31 -175 113 -256 l52 -52 -66 -64 c-90 -87 -133 -118
-219 -157 -63 -29 -80 -32 -135 -28 -34 2 -71 7 -83 11 -17 6 -22 2 -33 -34
-10 -34 -9 -56 4 -128 9 -48 26 -109 39 -137 26 -57 121 -179 193 -246 42 -39
49 -51 51 -89 2 -24 7 -51 12 -60 5 -9 12 -102 16 -206 6 -178 5 -196 -19
-314 -14 -69 -38 -152 -52 -185 -32 -71 -154 -237 -193 -262 -15 -9 -50 -37
-79 -61 -44 -36 -53 -51 -58 -86 -8 -49 12 -98 45 -116 11 -6 20 -18 20 -27 0
-37 41 -101 74 -117 41 -20 115 -21 159 -3 46 20 147 148 191 244 28 60 138
91 202 57 65 -35 89 -177 54 -319 -13 -54 -12 -109 2 -140 25 -55 167 -97 210
-62 26 21 58 83 58 114 0 16 -11 70 -24 120 -30 118 -23 156 66 341 38 78 98
128 166 138 43 6 47 5 74 -25 15 -17 28 -38 28 -47 0 -32 40 -91 69 -104 45
-18 74 -6 100 42 34 61 51 78 77 78 29 0 48 -28 74 -105 31 -94 94 -145 178
-145 34 0 133 37 156 59 18 17 125 71 141 71 3 0 29 0 58 0 69 0 88 15 94 73
5 43 3 49 -26 76 -17 16 -53 40 -79 52 -138 67 -278 179 -339 273 -69 104
-123 338 -130 556 l-4 125 51 60 c115 133 166 304 171 566 2 70 7 109 16 120
35 42 73 266 73 439 0 98 -32 240 -55 240 -5 0 -32 -17 -60 -38 -99 -74 -103
-75 -216 -83 -59 -4 -115 -12 -125 -17 -21 -12 -94 -97 -185 -214 -33 -43 -65
-78 -73 -78 -7 0 -21 9 -30 19 -16 17 -16 25 -6 57 8 22 11 69 8 120 -4 69
-10 94 -38 148 -41 83 -110 148 -198 189 -60 28 -77 31 -162 32 -77 0 -105 -4
-152 -23 l-57 -24 -123 83 c-204 136 -378 209 -403 168z m175 -64 c83 -41 136
-73 268 -158 57 -38 75 -57 53 -57 -5 0 -36 17 -68 39 -238 157 -244 75 -11
-140 172 -158 466 -393 564 -451 41 -24 31 -38 -27 -38 -31 0 -57 16 -170 101
-356 270 -664 557 -745 695 -46 78 -8 81 136 9z m228 -188 l64 -40 -27 -26
-26 -26 -70 73 c-38 41 -69 78 -69 83 0 11 43 -10 128 -64z m469 -3 c8 -10 26
-20 40 -21 14 -1 31 -7 37 -13 8 -8 -23 -10 -114 -6 -153 5 -242 17 -247 33
-8 22 52 33 161 30 94 -3 111 -6 123 -23z m-297 -13 c0 -24 95 -42 270 -50
142 -6 170 -12 170 -33 0 -7 -23 -8 -69 -4 -68 7 -70 6 -86 -22 -56 -95 -180
-93 -264 4 -19 21 -48 47 -64 57 -20 12 -26 22 -20 28 16 16 110 -48 122 -82
11 -33 44 -49 99 -49 55 0 81 10 88 32 11 35 -17 49 -101 54 -61 3 -88 10
-126 31 -26 15 -45 31 -43 35 7 11 24 10 24 -1z m5 -117 c19 -29 89 -70 134
-78 53 -10 105 10 145 54 l35 39 69 -3 c71 -3 92 -10 92 -27 0 -7 -19 -8 -52
-4 -49 6 -55 4 -83 -23 -42 -41 -108 -72 -152 -72 -45 0 -101 24 -172 74 -29
19 -69 38 -89 42 -20 4 -45 11 -56 16 -17 9 -16 12 9 38 l28 29 38 -31 c21
-17 46 -41 54 -54z m215 21 c6 -8 9 -19 5 -25 -9 -14 -28 -13 -22 3 3 8 -10
13 -45 14 -29 1 -46 -2 -43 -7 4 -6 17 -10 31 -10 13 0 24 -4 24 -10 0 -27
-72 -3 -90 30 -10 19 -7 20 58 20 49 0 73 -4 82 -15z m1038 -61 c25 -86 10
-391 -25 -513 -8 -29 -44 -98 -80 -153 -36 -55 -70 -114 -75 -132 -6 -17 -14
-35 -18 -41 -16 -22 -79 -238 -80 -274 0 -31 28 11 34 51 15 90 79 257 144
370 27 48 48 64 38 31 -2 -10 -8 -63 -11 -118 -14 -231 -68 -386 -167 -483
-24 -23 -68 -67 -98 -99 -178 -185 -261 -257 -322 -280 -32 -12 -92 -17 -240
-21 l-198 -4 -51 26 c-186 98 -513 383 -623 544 -39 57 -51 86 -70 171 -22 97
-24 151 -5 151 5 0 9 -4 9 -9 0 -5 25 -42 56 -82 83 -106 127 -178 139 -227
12 -45 32 -55 27 -12 -6 50 -56 134 -154 257 l-57 72 78 0 c69 0 85 4 148 35
86 43 148 91 244 190 41 41 96 86 123 100 52 27 121 35 128 14 9 -26 -12 -96
-46 -157 -43 -76 -47 -124 -12 -179 13 -20 30 -42 37 -48 16 -13 186 -16 210
-4 8 5 38 10 65 13 63 5 69 9 94 57 40 78 21 158 -54 227 -25 23 -46 46 -46
51 0 5 19 15 43 22 23 7 59 21 81 32 50 25 163 139 208 209 19 30 58 75 86
102 l51 47 85 0 c99 0 148 17 227 80 29 23 55 37 59 33 4 -4 12 -27 18 -49z
m-1238 -22 c30 -20 69 -42 85 -49 37 -14 132 -16 171 -3 48 16 227 29 242 18
22 -18 13 -25 -39 -32 -28 -4 -59 -12 -69 -18 -14 -9 -34 -9 -82 0 -35 6 -90
11 -123 11 -33 0 -87 3 -120 7 -55 5 -66 11 -125 62 -64 54 -64 55 -30 48 19
-3 60 -23 90 -44z m483 8 c5 -19 0 -20 -80 -20 -85 0 -86 0 -68 20 14 16 31
20 80 20 54 0 63 -3 68 -20z m-675 -49 c30 -26 28 -32 -10 -24 -41 7 -40 7
-32 27 8 20 14 20 42 -3z m392 -53 c179 -12 186 -11 250 1 54 10 79 4 66 -18
-4 -6 -22 -11 -40 -11 -23 0 -42 -10 -69 -35 -50 -47 -91 -47 -152 -1 -42 33
-49 35 -100 30 -45 -5 -61 -2 -90 16 -36 22 -49 49 -17 34 9 -4 78 -11 152
-16z m-307 -25 l32 -26 -49 6 c-27 4 -66 7 -87 7 -32 0 -39 4 -39 19 0 25 16
31 68 26 28 -3 56 -15 75 -32z m627 -29 c0 -8 -5 -12 -10 -9 -6 4 -25 -3 -44
-14 -18 -12 -40 -21 -49 -21 -28 0 25 48 58 53 17 2 33 5 38 6 4 0 7 -6 7 -15z
m-686 -9 c49 -10 73 -12 82 -4 9 8 21 4 43 -12 17 -13 31 -25 31 -28 0 -3 -53
-5 -117 -4 l-118 2 -3 31 c-4 35 -8 34 82 15z m397 -6 l24 -20 -37 5 c-21 2
-38 1 -38 -5 0 -5 14 -9 30 -9 17 0 47 -7 67 -15 55 -23 120 -19 180 12 58 29
69 27 59 -10 -4 -19 -15 -26 -43 -32 -25 -4 -53 -21 -80 -47 -39 -38 -45 -40
-68 -30 -30 14 -32 28 -5 37 11 3 20 10 20 14 0 8 -104 41 -130 41 -8 0 -23 9
-35 20 -11 11 -31 29 -45 40 l-25 19 51 1 c38 0 58 -5 75 -21z m-218 -64 c19
-5 27 -14 27 -30 0 -31 28 -53 78 -61 24 -4 48 -14 55 -24 7 -9 22 -20 35 -24
12 -4 22 -12 22 -17 0 -5 7 -9 15 -9 8 0 15 -4 15 -9 0 -5 8 -12 18 -14 10 -3
7 -5 -10 -6 -15 0 -31 5 -35 12 -5 8 -44 18 -93 25 -112 15 -118 16 -165 37
-26 11 -62 17 -104 16 -58 -1 -97 11 -87 28 2 3 44 6 93 6 77 -1 94 -4 141
-30 35 -18 72 -29 105 -31 29 -1 39 0 22 2 -31 5 -88 27 -115 45 -54 35 -86
41 -172 35 -49 -3 -88 -2 -88 2 0 4 -3 16 -6 28 -5 20 -2 21 109 23 62 1 126
-1 140 -4z m296 -40 c2 -3 -7 -5 -22 -5 -22 0 -57 22 -57 36 0 5 71 -23 79
-31z m191 -5 c-13 -24 -93 -80 -114 -80 -19 0 -33 23 -17 28 6 2 26 16 43 30
57 49 109 61 88 22z m-405 -5 c16 -13 26 -27 23 -30 -3 -4 -21 7 -40 24 -39
36 -26 41 17 6z m364 -80 c-27 -39 -32 -41 -48 -21 -10 11 -8 16 7 20 11 4 27
15 37 26 28 31 31 14 4 -25z m71 30 c7 -9 10 -18 7 -22 -8 -7 -37 15 -37 28 0
14 16 11 30 -6z m-557 -35 c53 -15 42 -33 -29 -47 -45 -10 -49 -12 -16 -9 23
2 42 2 42 0 0 -2 -11 -11 -25 -20 -27 -18 -65 -11 -65 12 0 8 -7 14 -15 14 -9
0 -19 8 -22 18 -4 9 -12 21 -20 25 -7 4 -13 13 -13 19 0 13 103 5 163 -12z
m532 1 c5 -9 -35 -44 -43 -37 -5 6 21 46 30 46 4 0 9 -4 13 -9z m-328 -147
c-4 -64 -11 -103 -22 -121 -11 -16 -13 -29 -7 -35 6 -6 16 1 27 19 13 20 20
54 23 125 5 97 8 108 28 88 6 -6 33 -13 61 -17 l51 -6 -9 -29 c-10 -36 9 -128
28 -135 22 -9 24 2 8 33 -8 16 -15 50 -15 77 0 48 14 63 25 27 3 -11 18 -29
32 -40 15 -11 33 -30 41 -42 21 -30 33 -103 22 -133 -8 -21 -16 -25 -48 -25
-27 0 -45 -7 -58 -21 -24 -26 -67 -49 -93 -49 -11 0 -32 11 -48 23 -42 36 -79
42 -97 16 -14 -21 -14 -21 -30 9 -26 49 -20 100 19 175 20 38 38 88 42 113 3
24 10 44 16 44 6 0 8 -34 4 -96z m769 -912 c2 -182 46 -406 109 -545 46 -102
198 -238 356 -317 86 -43 109 -67 109 -111 0 -47 -16 -56 -97 -58 -54 -1 -145
-35 -175 -65 -52 -52 -177 -72 -235 -36 -36 22 -47 39 -74 118 -21 62 -62 112
-92 112 -22 0 -75 -52 -99 -98 -15 -29 -22 -33 -50 -30 -37 3 -78 54 -78 95 0
14 -13 38 -29 54 -24 24 -38 29 -76 29 -88 0 -167 -64 -217 -175 -84 -190 -91
-225 -62 -306 8 -24 18 -74 21 -111 5 -62 4 -70 -21 -103 -32 -42 -74 -47
-136 -15 -62 32 -72 54 -59 131 21 119 22 238 2 299 -24 72 -77 113 -140 107
-75 -8 -130 -37 -159 -87 -14 -25 -37 -65 -52 -90 -14 -24 -49 -68 -77 -96
-42 -43 -58 -53 -97 -58 -82 -12 -148 35 -148 106 0 14 -13 34 -36 52 -35 27
-36 31 -31 79 5 53 2 50 104 128 29 22 86 82 125 134 79 102 128 208 151 325
17 91 16 489 -2 553 -8 26 -12 49 -10 52 2 2 59 -41 126 -95 130 -105 211
-163 283 -201 44 -23 50 -24 245 -21 149 2 213 7 249 19 68 22 224 152 304
253 35 44 64 80 65 80 1 0 2 -48 3 -108z"/>
<path d="M1314 3372 c11 -18 103 -34 148 -26 l43 8 -65 6 c-36 4 -80 10 -99
14 -22 5 -31 5 -27 -2z"/>
<path d="M1490 2291 c0 -23 5 -41 10 -41 6 0 10 15 10 34 0 19 -4 38 -10 41
-6 4 -10 -10 -10 -34z"/>
<path d="M1586 2323 c-9 -10 -7 -73 3 -73 18 0 29 64 12 74 -4 3 -11 3 -15 -1z"/>
<path d="M1364 2226 c-16 -5 -51 -23 -79 -39 -27 -16 -69 -38 -92 -48 -24 -10
-43 -25 -43 -32 0 -17 122 -93 182 -114 24 -8 65 -17 92 -20 l49 -6 -63 -23
c-65 -23 -88 -39 -77 -51 4 -3 24 3 45 14 20 12 65 27 100 34 55 12 74 11 144
-3 44 -10 88 -24 97 -33 22 -19 31 -19 31 0 0 21 -46 42 -131 59 -64 12 -68
14 -32 15 48 1 178 45 208 70 11 9 33 23 48 31 16 8 40 28 54 44 24 28 24 31
7 43 -10 7 -25 13 -35 13 -9 0 -43 12 -75 27 -57 27 -65 28 -230 28 -95 1
-184 -3 -200 -9z m366 -20 c25 -8 64 -23 88 -34 l43 -19 -53 -6 c-29 -4 -76
-7 -104 -7 -28 0 -75 -7 -105 -16 -41 -12 -72 -15 -129 -9 -109 10 -168 11
-230 2 l-55 -8 100 51 100 51 95 -6 c57 -4 105 -2 120 4 35 14 78 13 130 -3z
m140 -80 c-8 -8 -33 -24 -55 -37 -138 -78 -199 -93 -355 -87 -96 3 -111 6
-170 37 -103 52 -106 61 -30 63 102 3 129 1 171 -12 30 -10 52 -10 101 -1 35
6 118 18 186 25 67 7 126 16 129 20 4 3 13 6 22 6 13 0 13 -2 1 -14z"/>
<path d="M1515 3041 c-3 -6 11 -17 30 -27 30 -14 41 -15 63 -4 26 11 26 12 7
26 -21 16 -91 19 -100 5z m80 -11 c3 -5 -3 -10 -14 -10 -11 0 -23 5 -26 10 -3
6 3 10 14 10 11 0 23 -4 26 -10z"/>
<path d="M1090 2796 c0 -13 11 -16 55 -16 30 0 55 5 55 10 0 6 -8 10 -17 10
-10 0 -35 3 -55 6 -31 5 -38 4 -38 -10z"/>
<path d="M1307 3475 c-8 -18 11 -31 25 -17 11 11 3 32 -12 32 -4 0 -10 -7 -13
-15z"/>
<path d="M622 3346 c1 -10 8 -17 13 -17 15 1 12 24 -3 29 -9 3 -13 -2 -10 -12z"/>
<path d="M1870 3325 c0 -8 7 -15 15 -15 8 0 15 7 15 15 0 8 -7 15 -15 15 -8 0
-15 -7 -15 -15z"/>
<path d="M426 3288 c-68 -60 -68 -158 -1 -217 30 -26 44 -31 87 -31 47 0 54 3
90 40 35 38 38 45 38 100 0 57 -2 62 -40 100 -36 36 -45 40 -88 40 -41 0 -55
-5 -86 -32z m117 0 c36 -21 57 -40 52 -48 -3 -4 2 -10 10 -14 24 -9 17 -26
-11 -26 -14 0 -23 -4 -20 -9 3 -5 15 -7 27 -4 18 5 20 2 17 -23 -2 -23 -9 -30
-33 -35 -25 -5 -26 -7 -7 -8 30 -1 24 -20 -14 -42 -43 -26 -134 -8 -134 26 0
8 -4 15 -10 15 -5 0 -10 5 -10 10 0 6 9 10 21 10 11 0 18 4 15 9 -3 5 -15 7
-26 4 -15 -4 -20 0 -20 16 0 16 6 21 26 21 15 0 23 4 19 10 -4 6 -15 8 -26 5
-23 -8 -24 -3 -4 35 9 17 22 30 31 30 8 0 13 4 9 9 -3 5 7 12 22 14 16 2 31 5
36 6 4 0 17 -5 30 -11z"/>
<path d="M530 3250 c-21 -6 -22 -8 -8 -15 10 -4 26 0 40 9 24 17 11 20 -32 6z"/>
<path d="M430 3240 c0 -5 11 -10 25 -10 14 0 25 5 25 10 0 6 -11 10 -25 10
-14 0 -25 -4 -25 -10z"/>
<path d="M480 3210 c0 -5 16 -10 36 -10 21 0 33 4 29 10 -3 6 -19 10 -36 10
-16 0 -29 -4 -29 -10z"/>
<path d="M470 3180 c0 -5 7 -10 15 -10 8 0 15 5 15 10 0 6 -7 10 -15 10 -8 0
-15 -4 -15 -10z"/>
<path d="M546 3160 c6 -6 21 -6 39 -1 30 9 30 9 -9 10 -26 1 -37 -2 -30 -9z"/>
<path d="M496 3152 c-5 -9 22 -48 29 -41 2 3 2 15 -2 27 -5 22 -18 29 -27 14z"/>
<path d="M450 3120 c0 -5 7 -10 15 -10 8 0 15 5 15 10 0 6 -7 10 -15 10 -8 0
-15 -4 -15 -10z"/>
<path d="M540 3094 c0 -14 3 -14 15 -4 8 7 15 14 15 16 0 2 -7 4 -15 4 -8 0
-15 -7 -15 -16z"/>
<path d="M690 3305 c0 -8 7 -15 15 -15 8 0 15 7 15 15 0 8 -7 15 -15 15 -8 0
-15 -7 -15 -15z"/>
<path d="M1897 3153 c-12 -11 -8 -23 8 -23 8 0 15 7 15 15 0 16 -12 20 -23 8z"/>
<path d="M312 2710 l-23 -49 22 -31 c27 -35 35 -37 44 -10 3 11 15 25 25 30
19 10 19 11 0 43 -11 17 -20 40 -20 50 0 33 -25 16 -48 -33z m40 -52 c-11 -14
-18 -15 -28 -7 -11 9 -11 16 2 41 l16 31 12 -24 c11 -20 10 -27 -2 -41z"/>
<path d="M830 2644 c0 -17 22 -14 28 4 2 7 -3 12 -12 12 -9 0 -16 -7 -16 -16z"/>
<path d="M653 2595 c-3 -9 -3 -18 0 -21 9 -9 27 6 27 22 0 19 -19 18 -27 -1z"/>
<path d="M832 1183 c1 -5 -4 -21 -10 -36 -7 -16 -12 -32 -12 -37 0 -4 -6 -10
-14 -13 -9 -4 -12 -15 -8 -33 3 -19 2 -25 -7 -19 -18 10 -41 -25 -35 -55 2
-14 1 -19 -2 -12 -3 6 -10 12 -15 12 -13 0 -11 -24 3 -38 13 -13 37 11 38 39
0 9 6 19 14 22 8 3 17 21 21 39 4 18 11 35 16 38 5 3 10 17 11 30 2 14 9 30
17 36 8 6 11 16 7 22 -8 13 -27 16 -24 5z"/>
<path d="M672 913 c-6 -2 -10 -9 -6 -14 6 -10 -19 -39 -33 -39 -4 0 -25 -16
-47 -35 -21 -19 -42 -35 -47 -35 -13 0 -11 -28 3 -36 6 -4 16 0 23 9 7 10 20
17 30 17 12 0 16 6 12 20 -3 13 0 20 10 20 19 0 73 54 73 73 0 9 6 18 13 20 8
4 7 5 -3 5 -8 0 -21 -2 -28 -5z"/>
</g>
</svg>
