<?xml version="1.0" encoding="UTF-8"?>
<svg xmlns="http://www.w3.org/2000/svg" xmlns:xlink="http://www.w3.org/1999/xlink" width="150pt" height="132pt" viewBox="0 0 150 132" version="1.1">
<g id="surface1">
<path style=" stroke:none;fill-rule:nonzero;fill:rgb(0%,0%,0%);fill-opacity:1;" d="M 30.800781 15.746094 L 21.351562 19.359375 L 17.449219 27.132812 L 13.550781 34.855469 L 13.550781 49.046875 L 13.5 63.292969 L 19.851562 71.566406 L 26.25 79.792969 L 41.5 92.230469 C 49.898438 99.050781 60.800781 107.925781 65.75 111.9375 L 74.800781 119.261719 L 84.800781 111.136719 C 90.300781 106.722656 101.148438 97.898438 108.898438 91.578125 L 123 80.144531 L 129.5 71.765625 L 136 63.441406 L 136 34.753906 L 132 27.03125 L 128.050781 19.257812 L 118.398438 15.648438 L 108.75 12.035156 L 97.648438 15.445312 C 91.449219 17.402344 85.949219 19.410156 85.148438 20.011719 C 84.398438 20.613281 81.75 22.96875 79.351562 25.175781 C 75.398438 28.789062 74.851562 29.136719 74.101562 28.484375 C 73.648438 28.085938 71.101562 25.828125 68.449219 23.472656 C 64.5 19.960938 63.050781 19.007812 60.449219 18.15625 C 54.800781 16.300781 40.800781 12.035156 40.550781 12.085938 C 40.398438 12.085938 36 13.742188 30.800781 15.746094 Z M 59.949219 32.5 C 60.101562 32.546875 59.800781 34.957031 59.300781 37.765625 C 58.800781 40.574219 58.300781 43.632812 58.148438 44.484375 C 57.898438 46.089844 57.949219 46.191406 60.800781 47.445312 L 63.75 48.746094 L 46 54.664062 C 36.25 57.875 28.199219 60.484375 28.101562 60.433594 C 28.050781 60.382812 28.300781 59.378906 28.699219 58.277344 C 29.449219 56.21875 40.101562 18.15625 40.75 15.347656 C 41.050781 13.890625 41.199219 13.992188 50.398438 23.121094 C 55.5 28.183594 59.800781 32.398438 59.949219 32.5 Z M 109 15.445312 C 109 16.300781 116.75 44.382812 119.601562 53.914062 C 120.398438 56.671875 121.199219 59.378906 121.398438 59.882812 C 121.601562 60.683594 121.5 60.785156 120.699219 60.484375 C 120.199219 60.234375 111.898438 57.425781 102.25 54.164062 C 85 48.296875 77.898438 45.589844 77.648438 44.785156 C 77.550781 44.535156 82.75 39.320312 89.101562 33.152344 C 95.5 26.929688 102.449219 20.160156 104.5 18.054688 C 108.199219 14.292969 109 13.84375 109 15.445312 Z M 53.351562 17.554688 C 57.648438 18.90625 61.5 20.0625 61.851562 20.0625 C 62.199219 20.0625 62.5 20.363281 62.5 20.664062 C 62.5 21.316406 61.050781 29.339844 60.75 30.390625 C 60.648438 30.691406 58.800781 29.238281 56.648438 27.132812 C 54.5 25.027344 50.75 21.414062 48.351562 19.109375 C 43.949219 14.894531 43.398438 14.191406 44.75 14.695312 C 45.148438 14.894531 49 16.148438 53.351562 17.554688 Z M 99.398438 20.914062 C 95.75 24.472656 89.699219 30.292969 86 33.953125 C 82.300781 37.5625 79.199219 40.523438 79.148438 40.421875 C 78.800781 40.070312 84.949219 22.46875 85.75 21.566406 C 86.300781 20.964844 89.199219 19.761719 93.199219 18.507812 C 96.800781 17.402344 100.898438 16.097656 102.25 15.546875 C 103.648438 15.046875 105.050781 14.59375 105.398438 14.59375 C 105.75 14.542969 103.050781 17.402344 99.398438 20.914062 Z M 36.5 15.445312 C 36.5 15.648438 36.050781 16.097656 35.550781 16.398438 C 34.199219 17.253906 22.800781 26.730469 19.851562 29.488281 C 18.5 30.691406 17.351562 31.597656 17.199219 31.496094 C 17.101562 31.34375 18.300781 28.835938 19.851562 25.828125 L 22.75 20.460938 L 28.25 18.355469 C 31.300781 17.203125 34.199219 16 34.75 15.648438 C 35.898438 14.996094 36.5 14.894531 36.5 15.445312 Z M 39.25 15.898438 C 38.148438 18.707031 27.5 57.125 27.5 58.226562 C 27.5 58.777344 27.351562 59.179688 27.148438 59.179688 C 26.699219 59.179688 15.25 35.15625 15.550781 34.90625 C 23 28.789062 37 16.902344 37.699219 16.097656 C 38.851562 14.84375 39.75 14.695312 39.25 15.898438 Z M 112.5 16.75 C 113.449219 17.652344 118.550781 21.964844 123.75 26.28125 C 129 30.644531 133.449219 34.453125 133.699219 34.804688 C 133.949219 35.15625 133 37.714844 131.148438 41.625 C 129.5 45.085938 127.050781 50.253906 125.75 53.160156 C 124.398438 56.070312 123.148438 58.628906 122.949219 58.878906 C 122.75 59.128906 122.300781 58.328125 122 57.125 C 119.800781 48.746094 110.851562 17.351562 110.25 15.898438 C 109.699219 14.59375 110.550781 14.894531 112.5 16.75 Z M 116.601562 16.449219 C 118.300781 17.253906 121.300781 18.40625 123.199219 19.109375 C 125.148438 19.761719 126.898438 20.710938 127.25 21.316406 C 127.949219 22.417969 132.648438 31.09375 132.949219 31.746094 C 133.101562 32.148438 115.648438 17.703125 113.5 15.746094 C 112.449219 14.746094 113 14.894531 116.601562 16.449219 Z M 68.898438 25.980469 L 73.550781 30.34375 L 71.898438 40.472656 C 71 46.089844 70.148438 50.601562 70 50.503906 C 69.851562 50.453125 67.5 49.25 64.75 47.894531 C 62 46.492188 59.648438 45.335938 59.550781 45.289062 C 59.449219 45.238281 60.300781 40.273438 61.449219 34.253906 C 62.601562 28.234375 63.5 22.917969 63.5 22.417969 C 63.5 21.964844 63.648438 21.566406 63.898438 21.566406 C 64.101562 21.617188 66.351562 23.570312 68.898438 25.980469 Z M 79.5 34.355469 C 76.648438 42.980469 75.75 45.035156 73.949219 47.34375 C 72.75 48.847656 71.75 50.050781 71.699219 50 C 71.699219 49.953125 72.351562 45.738281 73.199219 40.671875 L 74.800781 31.496094 L 78.5 27.835938 C 80.550781 25.828125 82.398438 24.171875 82.601562 24.125 C 82.75 24.125 81.398438 28.6875 79.5 34.355469 Z M 20.300781 49.199219 C 22.898438 54.765625 25.300781 59.679688 25.601562 60.03125 C 25.898438 60.382812 26.050781 60.785156 25.949219 60.882812 C 25.75 61.035156 16.699219 62.1875 15.550781 62.1875 C 15.148438 62.1875 15 58.476562 15 50.300781 C 15 43.78125 15.148438 38.566406 15.300781 38.765625 C 15.449219 38.917969 17.699219 43.632812 20.300781 49.199219 Z M 134.300781 62.039062 C 134.199219 62.136719 131.75 61.988281 128.898438 61.636719 L 123.648438 61.085938 L 128.949219 49.851562 L 134.25 38.667969 L 134.398438 50.253906 C 134.449219 56.621094 134.449219 61.9375 134.300781 62.039062 Z M 82.351562 50.902344 C 81.398438 51.707031 79.25 53.613281 77.550781 55.066406 L 74.550781 57.726562 L 73.199219 55.117188 C 71.699219 52.15625 71.75 52.109375 74.898438 48.347656 L 76.601562 46.238281 L 80.351562 47.792969 L 84.101562 49.398438 Z M 66.351562 59.730469 L 62.851562 67.707031 L 68.398438 73.371094 L 73.898438 79.089844 L 74.101562 83.152344 C 74.25 87.113281 73.949219 87.964844 72.75 86.8125 C 72.148438 86.261719 31.199219 63.042969 29.75 62.488281 C 28.949219 62.136719 28.898438 62.039062 29.5 61.789062 C 29.898438 61.636719 38.101562 58.878906 47.75 55.667969 L 65.25 49.851562 L 67.550781 50.804688 L 69.851562 51.808594 Z M 103.5 56.21875 C 112.699219 59.28125 120.300781 61.886719 120.398438 61.9375 C 120.5 62.039062 118.550781 63.140625 116.148438 64.445312 C 111.449219 67.054688 97.300781 75.027344 84.101562 82.601562 C 79.601562 85.15625 75.800781 87.265625 75.699219 87.265625 C 75.601562 87.265625 75.5 85.761719 75.5 83.902344 L 75.5 80.492188 L 77.050781 82.398438 C 78.601562 84.253906 80 84.855469 80 83.601562 C 80 83.203125 79.449219 78.890625 78.75 73.925781 L 77.5 64.898438 L 81.550781 57.773438 C 83.800781 53.863281 85.898438 50.652344 86.148438 50.652344 C 86.449219 50.652344 94.25 53.160156 103.5 56.21875 Z M 83.351562 52.007812 C 83.25 52.257812 81.550781 55.167969 79.550781 58.527344 L 75.949219 64.597656 L 77 71.265625 C 77.550781 74.875 78 78.136719 78 78.4375 C 77.949219 78.738281 76.5 75.378906 74.699219 70.964844 C 72.949219 66.550781 71.550781 62.789062 71.601562 62.589844 C 71.75 62.238281 83.101562 51.757812 83.398438 51.707031 C 83.5 51.65625 83.449219 51.808594 83.351562 52.007812 Z M 71.148438 60.882812 C 66.101562 65.398438 64.800781 66.453125 65.148438 65.699219 C 65.300781 65.296875 66.648438 62.289062 68.101562 59.027344 L 70.699219 53.160156 L 72.148438 55.917969 L 73.550781 58.726562 Z M 26.449219 69.8125 L 26.449219 77.484375 L 25.351562 76.03125 C 24.75 75.226562 22.398438 72.21875 20.101562 69.308594 C 17.800781 66.453125 16 63.992188 16.101562 63.945312 C 16.199219 63.894531 18.5 63.492188 21.25 63.089844 C 24 62.640625 26.300781 62.289062 26.398438 62.238281 C 26.449219 62.238281 26.5 65.648438 26.449219 69.8125 Z M 129 63.242188 C 131.300781 63.492188 133.351562 63.84375 133.449219 63.992188 C 133.601562 64.09375 133.101562 64.847656 132.398438 65.597656 C 131.699219 66.351562 129.398438 69.261719 127.25 72.070312 C 125.101562 74.925781 123.300781 77.234375 123.300781 77.234375 C 123.25 77.234375 123.199219 73.972656 123.25 69.960938 C 123.25 63.792969 123.351562 62.691406 124 62.691406 C 124.449219 62.691406 126.699219 62.941406 129 63.242188 Z M 30.851562 64.644531 C 34.5 66.851562 67.898438 85.761719 70.648438 87.113281 C 72.800781 88.21875 73.699219 89.269531 72.5 89.269531 C 72 89.269531 54.75 98.5 53.75 99.351562 C 53.449219 99.550781 48.101562 95.589844 40.648438 89.472656 L 28.050781 79.238281 L 27.898438 71.214844 C 27.800781 66.800781 27.898438 63.191406 28.101562 63.191406 C 28.300781 63.191406 29.5 63.84375 30.851562 64.644531 Z M 121.75 71.164062 L 121.75 79.140625 L 109.351562 89.21875 C 102.550781 94.738281 96.75 99.300781 96.5 99.300781 C 96.25 99.300781 91.648438 96.894531 86.25 93.984375 L 76.449219 88.617188 L 78.851562 87.265625 C 80.148438 86.511719 88.800781 81.699219 98 76.480469 C 107.199219 71.265625 116.199219 66.199219 118 65.148438 C 119.800781 64.09375 121.351562 63.242188 121.5 63.191406 C 121.648438 63.191406 121.75 66.753906 121.75 71.164062 Z M 71.75 67.304688 C 72.5 69.308594 74 72.972656 75.101562 75.429688 C 76.148438 77.886719 76.949219 79.992188 76.851562 80.042969 C 76.800781 80.144531 74.148438 77.484375 71.050781 74.175781 L 65.351562 68.15625 L 67.550781 65.898438 C 68.75 64.695312 69.851562 63.691406 70.050781 63.691406 C 70.199219 63.691406 71 65.347656 71.75 67.304688 Z M 74.25 103.0625 C 74.25 110.382812 74.101562 116.351562 73.898438 116.351562 C 73.699219 116.351562 71.199219 114.398438 68.398438 112.039062 C 65.550781 109.683594 61.300781 106.273438 58.898438 104.417969 C 56.5 102.5625 54.550781 100.855469 54.550781 100.65625 C 54.5 100.453125 54.898438 100.101562 55.398438 99.953125 C 56.75 99.453125 72.699219 90.773438 73.25 90.222656 C 73.5 89.972656 73.800781 89.773438 74 89.773438 C 74.148438 89.773438 74.25 95.738281 74.25 103.0625 Z M 83.25 94.136719 C 86.851562 96.089844 90.949219 98.296875 92.398438 99.050781 C 93.800781 99.800781 95 100.554688 95 100.753906 C 95 100.90625 94.351562 101.507812 93.601562 102.058594 C 92.851562 102.5625 88.601562 106.019531 84.101562 109.683594 C 79.648438 113.34375 75.898438 116.351562 75.75 116.351562 C 75.601562 116.351562 75.5 110.335938 75.5 103.011719 C 75.5 92.378906 75.648438 89.773438 76.148438 90.171875 C 76.449219 90.425781 79.699219 92.230469 83.25 94.136719 Z M 83.25 94.136719 "/>
</g>
</svg>
