<?xml version="1.0" encoding="UTF-8"?>
<svg xmlns="http://www.w3.org/2000/svg" xmlns:xlink="http://www.w3.org/1999/xlink" width="416pt" height="517pt" viewBox="0 0 416 517" version="1.1">
<g id="surface1">
<path style=" stroke:none;fill-rule:nonzero;fill:rgb(0%,0%,0%);fill-opacity:1;" d="M 199.382812 22.464844 C 194.773438 23.195312 192.949219 24.320312 191.542969 27.269531 C 190.136719 30.273438 189.605469 30.664062 188.367188 29.679688 C 185.25 27.210938 182.945312 26.929688 178.984375 28.644531 C 177.550781 29.261719 175.894531 29.765625 175.359375 29.765625 C 172.773438 29.765625 170.105469 42.574219 172.183594 44.875 C 173.113281 45.914062 173.113281 45.96875 172.042969 46.304688 C 170.328125 46.839844 170.21875 47.933594 171.144531 53.804688 C 172.464844 61.890625 174.796875 62.816406 181.316406 57.761719 C 189.746094 51.277344 195.507812 47.457031 201.492188 44.339844 C 205.085938 42.457031 209.273438 40.046875 210.789062 38.949219 C 215.203125 35.773438 213.996094 37.601562 207.503906 43.890625 C 197.445312 53.664062 194.859375 57.285156 190.558594 67.675781 C 188.988281 71.523438 187.695312 74.894531 187.695312 75.203125 C 187.695312 75.511719 186.515625 78.855469 185.082031 82.671875 C 181.34375 92.585938 180.390625 95.167969 180.390625 95.335938 C 180.390625 95.421875 178.929688 94.773438 177.15625 93.878906 C 175.386719 92.980469 172.972656 91.9375 171.789062 91.574219 C 168.785156 90.59375 166.589844 87.445312 166.113281 83.347656 C 165.667969 79.527344 166.171875 78.628906 172.746094 71.609375 C 178.535156 65.429688 178.734375 62.707031 173.476562 61.328125 C 170.46875 60.570312 168.671875 61.246094 157.769531 67.285156 C 151.082031 70.992188 150.410156 71.777344 147.824219 78.292969 C 142.484375 91.910156 142.542969 91.828125 141.417969 89.128906 C 139.308594 84.074219 134.617188 84.976562 128.265625 91.714844 C 125.230469 94.914062 124.164062 98.285156 126.128906 98.285156 C 126.582031 98.285156 127.253906 98.816406 127.59375 99.464844 C 127.929688 100.109375 129.476562 102.355469 130.992188 104.433594 C 132.511719 106.515625 133.746094 108.816406 133.746094 109.574219 C 133.800781 113.339844 138.632812 119.769531 142.261719 120.835938 C 146 121.957031 148.355469 128.863281 146.78125 134.058594 L 146.140625 136.226562 L 140.941406 135.804688 C 138.074219 135.578125 131.921875 135.15625 127.285156 134.847656 C 118.855469 134.285156 98.988281 131.476562 95.8125 130.382812 C 93.257812 129.484375 78.503906 127.488281 74.488281 127.488281 C 65.296875 127.488281 57.007812 131.984375 51.757812 139.789062 C 50.632812 141.445312 49.03125 143.832031 48.160156 145.125 C 47.316406 146.390625 46.277344 148.214844 45.828125 149.199219 C 45.40625 150.152344 44.785156 151.109375 44.449219 151.304688 C 44.144531 151.527344 42.878906 154.785156 41.667969 158.550781 C 38.128906 169.699219 37.902344 186.460938 41.132812 197.554688 C 42.148438 201.035156 41.109375 205.105469 37.144531 213.140625 C 35.320312 216.84375 33.660156 220.664062 33.464844 221.617188 C 33.265625 222.601562 31.976562 226.195312 30.625 229.652344 C 23.714844 247.148438 24.5 250.207031 36.136719 250.769531 C 38.972656 250.910156 43.722656 251.160156 46.699219 251.300781 C 50.519531 251.46875 52.964844 251.300781 55.128906 250.683594 C 56.789062 250.207031 59.566406 249.476562 61.253906 249.054688 L 64.34375 248.269531 L 66.253906 250.542969 C 68.449219 253.15625 70.074219 254.25 77.886719 258.378906 C 84.347656 261.804688 87.414062 263.796875 91.320312 267.054688 C 92.863281 268.375 96.09375 270.988281 98.484375 272.867188 C 102.050781 275.707031 102.839844 276.632812 102.839844 277.921875 C 102.839844 281.910156 107.839844 293.140625 111.550781 297.46875 C 115.171875 301.679688 121.664062 298.589844 135.996094 285.871094 C 141.644531 280.871094 145.6875 277.867188 147.457031 277.390625 C 151.054688 276.40625 152.710938 274.496094 160.410156 262.28125 C 161.675781 260.261719 163.109375 257.875 163.558594 256.945312 C 164.0625 255.964844 165.636719 254.589844 167.464844 253.578125 C 169.625 252.367188 171.144531 250.964844 172.523438 248.886719 C 173.589844 247.257812 175.78125 244.980469 177.382812 243.859375 C 187.722656 236.476562 188.257812 235.914062 188.257812 232.066406 C 188.257812 230.746094 188.621094 229.566406 189.128906 229.117188 C 191.824219 226.898438 191.9375 224.371094 189.464844 221.703125 C 188.117188 220.246094 188.085938 220.019531 188.707031 217.492188 C 189.773438 213.25 191.628906 201.960938 192.5 194.324219 C 192.949219 190.449219 193.679688 185.394531 194.15625 183.089844 C 194.609375 180.761719 195.476562 176.101562 196.09375 172.703125 C 196.714844 169.300781 197.867188 163.605469 198.683594 160.066406 C 200.058594 154.167969 200.339844 147.257812 199.300781 146.195312 C 198.402344 145.320312 187.300781 143.527344 183.902344 143.691406 C 182.550781 143.777344 181.511719 143.582031 181.511719 143.246094 C 181.511719 142.90625 181.710938 142.652344 181.964844 142.652344 C 183.648438 142.652344 191.488281 128.699219 194.71875 119.910156 C 195.308594 118.363281 196.234375 116.425781 196.796875 115.609375 C 198.34375 113.339844 201.179688 106.398438 201.179688 104.828125 C 201.179688 102.078125 197.558594 97.863281 194.269531 96.824219 C 193.625 96.628906 191.457031 95.226562 189.519531 93.707031 C 187.554688 92.21875 185.757812 90.984375 185.558594 90.984375 C 183.902344 90.929688 183.84375 89.945312 185.25 86.179688 C 186.039062 84.046875 187.582031 79.75 188.648438 76.664062 C 194.269531 60.460938 197.753906 54.984375 210.203125 42.683594 C 213.574219 39.34375 216.355469 36.335938 216.355469 36 C 216.355469 35.664062 217.367188 35.382812 218.632812 35.382812 C 223.042969 35.382812 224.472656 34.035156 225.121094 29.261719 C 225.570312 25.890625 225.542969 25.890625 217.476562 23.898438 C 210.875 22.269531 204.101562 21.734375 199.382812 22.464844 Z M 213.433594 24.179688 C 219.921875 25.664062 223.152344 26.621094 223.488281 27.128906 C 224.136719 28.191406 221.75 29.203125 218.632812 29.234375 C 213.855469 29.261719 208.175781 30.101562 200.621094 31.957031 C 193.765625 33.640625 192.835938 34.117188 189.886719 37.347656 L 188.339844 39.035156 L 188.820312 36.507812 C 189.097656 35.101562 189.941406 32.824219 190.757812 31.453125 C 191.542969 30.046875 192.472656 28.191406 192.835938 27.324219 C 194.1875 23.925781 205.058594 22.269531 213.433594 24.179688 Z M 185.558594 29.457031 C 190.535156 31.535156 186.09375 35.382812 179.601562 34.625 C 175.246094 34.089844 172.269531 30.890625 176.175781 30.890625 C 176.566406 30.890625 178 30.382812 179.351562 29.765625 C 182.300781 28.445312 183.058594 28.390625 185.558594 29.457031 Z M 223.605469 31.339844 C 223.042969 32.964844 219.554688 34.851562 218.6875 33.980469 C 218.292969 33.585938 220.34375 31.421875 222.226562 30.273438 C 224.25 29.007812 224.390625 29.121094 223.605469 31.339844 Z M 218.855469 31.675781 C 217.84375 33.246094 207.8125 39.625 199.917969 43.695312 C 196.910156 45.242188 191.769531 48.496094 188.480469 50.914062 C 177.832031 58.773438 176.765625 59.476562 175.191406 59.503906 C 173.503906 59.53125 173.5625 59.644531 172.550781 53.300781 C 171.539062 46.980469 171.453125 47.175781 175.386719 47.175781 C 182.496094 47.175781 184.996094 45.800781 189.632812 39.371094 C 191.316406 36.984375 194.773438 34.257812 196.066406 34.257812 C 196.488281 34.257812 199.410156 33.613281 202.558594 32.855469 C 207.753906 31.5625 213.996094 30.609375 218.179688 30.414062 C 219.726562 30.328125 219.726562 30.355469 218.855469 31.675781 Z M 179.632812 35.859375 C 182.691406 36.027344 183.707031 35.859375 185.53125 34.820312 C 188.3125 33.277344 188.285156 33.246094 187.382812 37.542969 C 186.0625 43.949219 180.191406 47.542969 175.078125 45.101562 C 172.71875 44.003906 172.523438 42.878906 173.421875 36.027344 C 173.730469 33.640625 173.757812 33.613281 174.855469 34.597656 C 175.582031 35.296875 177.128906 35.691406 179.632812 35.859375 Z M 171.648438 62.3125 C 171.847656 62.59375 168.867188 65.34375 165.074219 68.40625 C 157.039062 74.867188 156.054688 76.070312 152.179688 83.824219 C 150.574219 86.996094 148.414062 90.929688 147.34375 92.613281 L 145.40625 95.617188 L 144.339844 93.933594 C 143.242188 92.21875 143.75 89.917969 146.082031 85.84375 C 146.359375 85.339844 147.65625 82.25 148.917969 79.019531 C 150.214844 75.765625 151.671875 72.730469 152.179688 72.28125 C 153.695312 70.90625 170.023438 61.917969 171.226562 61.78125 C 171.285156 61.78125 171.484375 62.003906 171.648438 62.3125 Z M 174.207031 64.476562 C 174.179688 66.328125 172.101562 69.980469 169.320312 73.011719 C 167.773438 74.695312 165.808594 77.476562 164.933594 79.191406 C 164.09375 80.875 162.039062 84.554688 160.382812 87.332031 C 158.722656 90.113281 156.898438 93.902344 156.308594 95.757812 C 154.34375 101.824219 152.824219 105.195312 149.816406 110.050781 C 148.160156 112.691406 146.277344 115.949219 145.601562 117.296875 C 143.664062 121.085938 139.449219 119.066406 136.21875 112.777344 C 134.195312 108.816406 134.363281 108.308594 139.167969 104.378906 C 144.199219 100.195312 148.355469 94.324219 153.21875 84.496094 C 156.703125 77.476562 158.441406 75.289062 164.09375 70.710938 C 166.113281 69.082031 168.953125 66.664062 170.414062 65.289062 C 173.054688 62.875 174.207031 62.621094 174.207031 64.476562 Z M 175.640625 66.609375 C 175.019531 69.164062 174.402344 67.957031 175.019531 65.320312 C 175.441406 63.492188 175.667969 63.074219 175.808594 63.96875 C 175.894531 64.699219 175.835938 65.878906 175.640625 66.609375 Z M 163.613281 87.25 C 161.113281 96.851562 161.453125 108.984375 164.542969 122.15625 C 165.75 127.40625 166.929688 132.824219 167.128906 134.230469 C 167.324219 135.605469 168.027344 138.613281 168.699219 140.882812 C 169.625 144.058594 169.742188 145.097656 169.207031 145.433594 C 168.390625 145.9375 159.003906 147.148438 154.089844 147.398438 L 150.519531 147.570312 L 150.660156 145.265625 C 150.746094 143.972656 150.519531 142.035156 150.183594 140.96875 C 149.847656 139.875 149.394531 137.347656 149.199219 135.351562 C 148.46875 128.050781 147.316406 122.886719 146.164062 121.648438 L 145.042969 120.46875 L 149.285156 113.449219 C 154.007812 105.640625 155.664062 102.21875 157.066406 97.386719 C 159.371094 89.441406 165.496094 79.949219 163.613281 87.25 Z M 167.152344 90.953125 C 167.828125 91.234375 169.601562 92.21875 171.085938 93.175781 C 172.605469 94.101562 175.246094 95.28125 176.960938 95.757812 C 183.027344 97.441406 184.324219 98.257812 184.324219 100.25 C 184.324219 101.261719 184.828125 102.695312 185.445312 103.480469 C 187.359375 105.921875 185.136719 113.785156 180.25 122.042969 C 176.933594 127.574219 172.550781 136.503906 171.425781 140.042969 C 170.445312 143.046875 169.9375 142.148438 168.644531 135.070312 C 168.027344 131.671875 166.648438 125.101562 165.582031 120.46875 C 162.855469 108.703125 162.65625 102.917969 164.484375 88.738281 L 164.824219 86.210938 L 165.355469 88.347656 C 165.722656 89.75 166.339844 90.675781 167.152344 90.953125 Z M 138.46875 88.089844 C 138.804688 88.652344 135.011719 92.359375 131.527344 94.832031 C 128.632812 96.882812 126.386719 97.21875 126.832031 95.53125 C 127.59375 92.613281 137.398438 86.351562 138.46875 88.089844 Z M 140.488281 89.945312 C 140.488281 90.28125 141.386719 91.996094 142.511719 93.792969 C 144.929688 97.722656 144.789062 98.089844 138.945312 103.003906 C 134.253906 106.933594 134.417969 106.933594 130.992188 102.21875 C 127.535156 97.5 127.566406 98.089844 130.710938 96.570312 C 132.144531 95.871094 134.730469 93.878906 136.472656 92.136719 C 139.476562 89.160156 140.488281 88.597656 140.488281 89.945312 Z M 188.539062 94.773438 C 190.394531 96.148438 193.0625 97.863281 194.492188 98.59375 C 198.175781 100.476562 198.652344 101.90625 195.421875 101.515625 C 193.679688 101.320312 183.226562 96.9375 181.652344 95.757812 C 181.570312 95.703125 181.878906 94.746094 182.355469 93.621094 C 183.367188 91.179688 183.761719 91.265625 188.539062 94.773438 Z M 189.492188 100.867188 C 191.09375 101.683594 193.539062 102.496094 194.945312 102.695312 C 198.261719 103.171875 198.316406 103.589844 196.152344 111.230469 C 192.160156 125.1875 180.867188 143.777344 176.847656 142.992188 C 175.949219 142.792969 174.460938 142.652344 173.535156 142.652344 C 172.101562 142.652344 171.929688 142.484375 172.242188 141.390625 C 172.886719 139.199219 179.039062 126.675781 181.597656 122.378906 C 184.6875 117.101562 185.195312 115.976562 186.9375 109.910156 L 188.367188 104.941406 L 186.90625 102.863281 C 184.324219 99.128906 184.996094 98.59375 189.492188 100.867188 Z M 200.027344 104.914062 C 200.027344 105.757812 199.496094 107.300781 198.878906 108.394531 C 197.980469 109.96875 197.808594 110.078125 198.0625 108.957031 C 198.230469 108.167969 198.542969 106.484375 198.738281 105.164062 C 199.101562 102.609375 200.085938 102.441406 200.027344 104.914062 Z M 86.542969 130.296875 C 90.726562 130.890625 95.5625 131.757812 97.304688 132.234375 C 99.046875 132.683594 104.355469 133.582031 109.105469 134.230469 C 113.851562 134.847656 119.246094 135.632812 121.101562 135.914062 C 122.957031 136.226562 129.195312 136.671875 134.925781 136.953125 C 146.867188 137.515625 146.671875 137.460938 146.671875 140.492188 C 146.671875 141.726562 147.148438 146.078125 147.765625 150.152344 C 149.339844 160.878906 149.425781 162.421875 148.386719 162 C 146.726562 161.359375 134.136719 158.941406 132.398438 158.941406 C 129.867188 158.914062 126.609375 157.257812 122.675781 153.972656 C 120.765625 152.371094 119.023438 151.078125 118.800781 151.078125 C 118.574219 151.078125 115.933594 149.925781 112.898438 148.550781 C 109.863281 147.148438 107.054688 146.023438 106.660156 146.023438 C 106.296875 146.023438 103.933594 145.042969 101.464844 143.832031 C 87.804688 137.261719 80.613281 136.503906 69.964844 140.546875 C 67.292969 141.558594 58.078125 148.160156 56.28125 150.292969 C 54.652344 152.285156 51.871094 159.167969 49.117188 168.066406 C 47.402344 173.65625 47.234375 173.855469 43.972656 174.246094 C 41.164062 174.613281 40.710938 173.796875 41.445312 169.613281 C 41.835938 167.335938 42.0625 167.054688 43.582031 166.914062 C 45.238281 166.75 47.765625 162.421875 47.765625 159.753906 C 47.765625 159.277344 48.554688 157.199219 49.507812 155.152344 C 50.855469 152.285156 51.363281 150.234375 51.671875 146.5 C 52.796875 132.910156 65.15625 127.152344 86.542969 130.296875 Z M 84.996094 140.125 C 87.804688 140.578125 96.769531 144.199219 104.160156 147.847656 C 107.839844 149.644531 112.308594 151.726562 114.132812 152.453125 C 118.121094 154.082031 126.300781 159.332031 129.984375 162.648438 C 133.578125 165.878906 139.535156 170.285156 146.390625 174.835938 C 154.203125 180.003906 169.625 192.46875 173.730469 196.90625 C 175.976562 199.351562 182.269531 208.28125 184.351562 211.988281 C 189.941406 221.898438 179.910156 225.917969 161.171875 221.28125 C 154.59375 219.652344 152.683594 218.894531 145.238281 214.933594 C 143.355469 213.953125 139.929688 212.546875 137.652344 211.820312 C 132.761719 210.246094 131.1875 209.542969 122.535156 205.023438 C 118.996094 203.171875 114.246094 201.09375 112 200.390625 C 109.75 199.6875 107.894531 198.847656 107.894531 198.480469 C 107.894531 197.441406 105.058594 189.042969 104.523438 188.511719 C 103.203125 187.132812 103.035156 188.960938 104.242188 191.65625 C 107.558594 199.042969 106.492188 202.101562 101.40625 199.6875 C 98.3125 198.199219 91.148438 196.570312 87.75 196.570312 C 84.769531 196.570312 84.324219 195.027344 86.652344 192.835938 C 87.582031 191.9375 89.324219 189.800781 90.503906 188.0625 C 92.527344 185.140625 97.585938 179.890625 103.289062 174.835938 L 105.703125 172.703125 L 104.523438 170.035156 C 103.792969 168.378906 103.230469 165.570312 103.007812 162.675781 L 102.699219 158.015625 L 98.0625 155.09375 C 95.503906 153.496094 91.65625 151.414062 89.492188 150.460938 L 85.527344 148.722656 L 81.117188 151.695312 C 78.703125 153.324219 75.078125 155.601562 73.054688 156.722656 C 56.871094 165.792969 55.832031 166.664062 58.78125 168.996094 C 59.597656 169.613281 61.113281 171.609375 62.179688 173.375 C 63.25 175.171875 65.074219 177.644531 66.253906 178.878906 C 67.40625 180.113281 69.207031 182.25 70.246094 183.652344 C 71.285156 185.027344 73.984375 188.089844 76.230469 190.421875 L 80.359375 194.632812 L 77.410156 194.773438 C 75.78125 194.832031 74.402344 195.082031 74.320312 195.308594 C 73.164062 198.480469 69.910156 196.65625 61.308594 188.117188 C 52.234375 179.105469 50.015625 176.351562 50.015625 173.996094 C 50.015625 168.800781 55.242188 156.890625 59.597656 152.203125 C 60.886719 150.796875 62.574219 148.832031 63.390625 147.820312 C 64.175781 146.78125 65.859375 145.238281 67.097656 144.367188 C 69.121094 142.992188 71.03125 142.234375 78.394531 139.957031 C 79.996094 139.453125 80.8125 139.453125 84.996094 140.125 Z M 149.339844 145.96875 C 149.535156 148.496094 149.425781 149.503906 149.03125 149.113281 C 148.722656 148.804688 148.300781 146.640625 148.105469 144.339844 C 147.824219 141 147.878906 140.351562 148.414062 141.195312 C 148.777344 141.757812 149.199219 143.917969 149.339844 145.96875 Z M 192.160156 145.828125 C 196.574219 146.695312 197.753906 147.148438 195.5625 147.148438 C 193.34375 147.148438 184.324219 145.265625 184.324219 144.816406 C 184.324219 144.339844 185.195312 144.449219 192.160156 145.828125 Z M 48.101562 148.410156 C 47.375 150.039062 45.996094 153.015625 45.066406 155.011719 C 44.144531 157.03125 42.960938 160.148438 42.429688 161.945312 C 41.894531 163.746094 41.332031 165.0625 41.191406 164.894531 C 40.292969 164.027344 44.984375 152.230469 48.722656 145.882812 C 49.59375 144.367188 49.226562 145.9375 48.101562 148.410156 Z M 183.761719 146.613281 C 186.402344 147.230469 189.800781 148.019531 191.347656 148.355469 C 192.894531 148.722656 195.167969 149.027344 196.40625 149.058594 C 199.355469 149.140625 199.441406 149.957031 197.527344 159.027344 C 196.714844 162.84375 195.671875 168.207031 195.226562 170.988281 C 194.75 173.738281 194.269531 176.15625 194.15625 176.351562 C 193.707031 177.082031 191.066406 193.480469 191.066406 195.589844 C 191.066406 196.796875 190.589844 200.753906 189.972656 204.347656 C 189.378906 207.945312 188.734375 212.101562 188.539062 213.558594 C 188.058594 217.125 187.132812 216.960938 187.132812 213.308594 C 187.132812 205.558594 184.605469 188.285156 182.019531 178.488281 C 181.738281 177.335938 181.121094 173.039062 180.671875 168.941406 C 179.828125 161.328125 178.5625 153.496094 177.578125 149.957031 C 176.203125 145.042969 176.457031 144.902344 183.761719 146.613281 Z M 49.816406 150.851562 C 49.339844 152.0625 48.21875 155.121094 47.261719 157.679688 C 44.902344 164.050781 43.863281 165.933594 43.160156 165.230469 C 42.429688 164.503906 43.832031 160.234375 47.542969 152.0625 C 50.210938 146.195312 51.894531 145.265625 49.816406 150.851562 Z M 176.0625 148.410156 C 176.230469 149.730469 176.765625 152.933594 177.269531 155.570312 C 177.75 158.183594 178.648438 164.277344 179.234375 169.082031 C 179.855469 173.878906 180.585938 178.933594 180.894531 180.3125 C 183.394531 191.152344 184.40625 196.484375 184.882812 201.34375 C 185.195312 204.433594 185.585938 207.972656 185.785156 209.207031 C 186.203125 211.960938 186.09375 211.875 181.203125 204.488281 C 177.074219 198.226562 171.648438 192.5 163.921875 186.179688 C 161.253906 184.019531 159.089844 181.996094 159.0625 181.6875 C 159.035156 181.378906 157.996094 180.425781 156.785156 179.550781 C 154.765625 178.121094 154.539062 177.726562 154.539062 175.621094 C 154.539062 172.589844 153.332031 166.046875 151.222656 157.648438 C 149.058594 149.058594 148.496094 149.730469 158.921875 148.550781 C 163.78125 147.988281 169.261719 147.230469 171.117188 146.835938 C 172.972656 146.445312 174.769531 146.109375 175.105469 146.078125 C 175.472656 146.054688 175.894531 147.089844 176.0625 148.410156 Z M 59.117188 151.359375 C 57.546875 153.074219 55.4375 156.105469 54.453125 158.128906 C 52.292969 162.480469 51.871094 162.816406 53.414062 158.855469 C 54.792969 155.375 56.167969 153.269531 59.203125 150.097656 C 62.519531 146.613281 62.460938 147.707031 59.117188 151.359375 Z M 88.929688 151.585938 C 90.304688 152.171875 93.707031 154.054688 96.488281 155.769531 L 101.546875 158.914062 L 101.855469 163.265625 C 102.023438 165.679688 102.613281 168.769531 103.175781 170.144531 L 104.160156 172.644531 L 102.023438 174.355469 C 97.890625 177.644531 91.796875 183.964844 89.242188 187.585938 C 86.035156 192.132812 84.070312 194.015625 82.917969 193.566406 C 79.9375 192.414062 84.324219 186.96875 96.292969 177 C 102.839844 171.523438 102.808594 171.550781 101.882812 167.226562 C 100.199219 159.558594 100.085938 159.363281 96.347656 157.816406 C 94.492188 157.0625 91.851562 155.742188 90.445312 154.925781 C 86.148438 152.371094 85.050781 152.398438 80.332031 155.207031 C 78.027344 156.554688 73.109375 159.390625 69.402344 161.441406 C 62.207031 165.484375 60.019531 167.140625 61 167.816406 C 61.339844 168.039062 63.613281 170.792969 66.058594 173.964844 C 68.53125 177.140625 71.847656 181.4375 73.476562 183.511719 C 75.105469 185.589844 76.425781 187.472656 76.425781 187.726562 C 76.425781 188.707031 75.246094 188.007812 73.671875 186.039062 C 72.746094 184.886719 70.695312 182.417969 69.121094 180.5625 C 67.574219 178.710938 64.90625 175.117188 63.191406 172.617188 C 61.503906 170.089844 59.792969 167.898438 59.425781 167.789062 C 58.386719 167.421875 60.441406 165.316406 63.5 163.546875 C 64.878906 162.761719 67.800781 161.078125 69.964844 159.785156 C 72.125 158.492188 74.289062 157.3125 74.742188 157.117188 C 75.21875 156.945312 77.71875 155.402344 80.359375 153.660156 C 85.785156 150.097656 85.585938 150.152344 88.929688 151.585938 Z M 119.246094 152.707031 C 122.054688 154.503906 123.632812 156.21875 121.328125 154.980469 C 119.277344 153.886719 115.539062 151.078125 116.128906 151.078125 C 116.4375 151.078125 117.816406 151.808594 119.246094 152.707031 Z M 90.757812 156.695312 C 91.992188 157.539062 94.324219 158.660156 95.925781 159.167969 C 99.128906 160.234375 99.015625 160.035156 100.339844 166.496094 L 101.238281 170.988281 L 99.074219 172.953125 C 97.867188 174.050781 95.113281 176.382812 92.976562 178.148438 C 87.777344 182.390625 82.609375 187.640625 81.453125 189.886719 L 80.5 191.710938 L 77.019531 186.433594 C 75.105469 183.511719 72.6875 180.226562 71.707031 179.160156 C 70.695312 178.066406 68.136719 174.949219 66.03125 172.195312 L 62.207031 167.226562 L 63.472656 166.242188 C 64.203125 165.710938 67.96875 163.574219 71.875 161.46875 C 75.753906 159.332031 79.96875 156.945312 81.203125 156.132812 C 84.941406 153.605469 86.289062 153.691406 90.757812 156.695312 Z M 134.082031 163.183594 C 136.667969 165.203125 138.804688 166.972656 138.804688 167.140625 C 138.804688 167.648438 136.332031 166.074219 132.652344 163.238281 C 127.789062 159.503906 127.789062 159.503906 128.632812 159.503906 C 129.023438 159.503906 131.5 161.160156 134.082031 163.183594 Z M 137.710938 160.851562 C 139.394531 161.273438 141.785156 161.777344 143.019531 162 C 148.496094 162.902344 149.089844 163.324219 148.667969 165.878906 C 148.1875 168.941406 147.824219 169.21875 144.84375 168.769531 C 142.683594 168.433594 135.964844 163.96875 132.117188 160.289062 C 131.582031 159.785156 134.816406 160.121094 137.710938 160.851562 Z M 151.617188 166.328125 C 151.785156 167.675781 150.378906 169.558594 149.707031 168.910156 C 149.535156 168.742188 149.59375 167.675781 149.792969 166.554688 C 150.214844 164.277344 151.363281 164.136719 151.617188 166.328125 Z M 143.160156 170.175781 C 144.675781 171.382812 146.953125 171.664062 147.515625 170.734375 C 147.710938 170.425781 148.554688 170.175781 149.394531 170.175781 C 150.238281 170.175781 151.253906 169.863281 151.617188 169.5 C 152.570312 168.542969 152.710938 168.910156 152.9375 173.375 C 153.164062 177.363281 153.132812 177.417969 152.039062 176.6875 C 151.390625 176.296875 149.117188 174.890625 146.953125 173.597656 C 142.089844 170.679688 139.984375 169.082031 140.96875 169.050781 C 141.386719 169.050781 142.371094 169.558594 143.160156 170.175781 Z M 47.34375 175.929688 C 47.261719 176.15625 47.203125 178.121094 47.203125 180.285156 C 47.203125 184.863281 46.613281 185.308594 45.488281 181.546875 C 44.84375 179.46875 44.425781 178.878906 43.496094 178.878906 C 42.0625 178.878906 40.351562 177.558594 40.796875 176.800781 C 41.613281 175.507812 47.765625 174.667969 47.34375 175.929688 Z M 49.058594 182.671875 C 49.367188 188.0625 48.75 190.28125 48.1875 185.898438 C 47.90625 183.933594 48.273438 176.632812 48.609375 177.023438 C 48.695312 177.140625 48.890625 179.667969 49.058594 182.671875 Z M 58.023438 187.726562 C 63.359375 194.15625 67.546875 197.523438 71.398438 198.453125 C 73.054688 198.847656 74.066406 201.175781 74.234375 204.996094 C 74.320312 206.371094 74.570312 207.972656 74.851562 208.503906 C 76.117188 211.03125 73.140625 209.011719 66.734375 202.945312 C 62.347656 198.789062 53.527344 192.640625 52.011719 192.640625 C 50.996094 192.640625 50.183594 188.652344 50.042969 183.089844 L 49.929688 177.785156 L 52.375 180.789062 C 53.695312 182.472656 56.25 185.589844 58.023438 187.726562 Z M 41.726562 186.292969 C 41.867188 187.921875 41.753906 189.101562 41.5 188.933594 C 41.25 188.761719 41.050781 187.191406 41.078125 185.449219 C 41.109375 181.742188 41.390625 182.109375 41.726562 186.292969 Z M 43.972656 187.445312 C 44.308594 191.429688 44.113281 192.304688 43.242188 190.925781 C 42.597656 189.886719 42.539062 183.652344 43.1875 183.652344 C 43.46875 183.652344 43.804688 185.367188 43.972656 187.445312 Z M 46.136719 188.960938 C 46.25 191.152344 46.082031 192.359375 45.628906 192.5 C 45.152344 192.667969 44.957031 191.546875 44.957031 188.652344 C 44.957031 183.738281 45.941406 183.988281 46.136719 188.960938 Z M 47.710938 190 C 47.738281 190.5625 47.515625 190.871094 47.203125 190.671875 C 46.894531 190.476562 46.671875 189.269531 46.699219 187.976562 C 46.78125 185.5625 47.515625 187.078125 47.710938 190 Z M 43.300781 199.941406 C 43.972656 206.734375 45.265625 213.363281 46.980469 218.953125 C 48.695312 224.597656 48.777344 224.089844 44.027344 234.117188 C 40.628906 241.304688 40.769531 240.941406 41.78125 240.941406 C 42.203125 240.941406 43.214844 239.449219 44.027344 237.625 L 45.519531 234.3125 L 47.851562 234.847656 C 49.140625 235.128906 51.222656 235.210938 52.488281 235.011719 C 55.042969 234.652344 55.71875 235.292969 60.863281 243.328125 C 63.359375 247.257812 63.53125 246.976562 58.023438 248.605469 C 47.710938 251.640625 26.046875 249.644531 27.253906 245.796875 C 27.367188 245.433594 27.871094 243.382812 28.378906 241.21875 C 28.886719 239.058594 30.542969 233.949219 32.0625 229.875 C 33.605469 225.804688 34.839844 222.125 34.839844 221.648438 C 34.839844 221.199219 35.996094 218.644531 37.398438 215.976562 C 42.511719 206.316406 43.691406 201.175781 41.949219 196.234375 C 41.53125 195.027344 41.023438 193.03125 40.828125 191.796875 L 40.460938 189.550781 L 41.640625 192.359375 C 42.289062 193.902344 43.019531 197.300781 43.300781 199.941406 Z M 57.039062 196.882812 C 59.511719 198.480469 63.867188 201.960938 66.703125 204.601562 C 69.542969 207.269531 72.632812 209.824219 73.585938 210.300781 C 74.542969 210.808594 75.300781 211.507812 75.300781 211.90625 C 75.300781 212.265625 75.472656 213.503906 75.667969 214.652344 L 76.003906 216.734375 L 73.421875 215.945312 C 67.714844 214.234375 62.941406 210.554688 60.746094 206.230469 C 59.175781 203.113281 53.976562 197.835938 50.800781 196.121094 C 49.679688 195.53125 49.5625 195.25 50.125 194.355469 C 50.941406 193.0625 51.390625 193.230469 57.039062 196.882812 Z M 46.050781 194.464844 C 46.050781 194.855469 45.6875 195.785156 45.238281 196.570312 C 44.394531 198.03125 44.144531 197.273438 44.761719 195.027344 C 45.097656 193.679688 46.082031 193.257812 46.050781 194.464844 Z M 50.914062 198.394531 C 52.121094 199.714844 54.230469 202.1875 55.632812 203.871094 C 59.484375 208.589844 62.996094 211.90625 66.816406 214.515625 C 72.183594 218.136719 73.304688 218.445312 82.046875 218.726562 C 93.003906 219.066406 93.285156 219.230469 93.285156 226.113281 L 93.285156 231.28125 L 90.644531 233.890625 C 85.867188 238.582031 82.550781 238.160156 67.042969 230.832031 C 62.882812 228.863281 62.238281 227.9375 61 222.265625 C 60.128906 218.25 59.738281 217.492188 56.109375 213.109375 C 49.339844 204.910156 44.621094 191.488281 50.914062 198.394531 Z M 85.980469 197.75 C 88.621094 198.394531 92.414062 199.410156 94.410156 199.996094 C 96.433594 200.585938 98.34375 201.0625 98.679688 201.0625 C 99.550781 201.0625 100.84375 202.71875 101.714844 204.996094 C 103.230469 209.011719 104.523438 208.816406 103.148438 204.742188 C 102.023438 201.457031 101.996094 201.597656 103.90625 202.242188 C 105.3125 202.75 105.734375 203.394531 106.6875 206.570312 C 108.628906 213 112.027344 230.324219 112.644531 237.007812 C 112.84375 239.003906 113.742188 243.691406 114.640625 247.398438 C 115.539062 251.105469 116.941406 256.890625 117.730469 260.261719 C 118.542969 263.601562 120.175781 268.542969 121.382812 271.210938 C 122.5625 273.851562 124.25 278.371094 125.089844 281.238281 C 126.019531 284.382812 126.949219 286.433594 127.394531 286.433594 C 128.265625 286.433594 128.351562 284.550781 127.535156 283.007812 C 127.199219 282.390625 126.667969 280.308594 126.386719 278.398438 C 126.074219 276.492188 125.207031 273.851562 124.445312 272.5625 L 123.070312 270.199219 L 125.710938 269.019531 L 128.351562 267.867188 L 133.097656 271.097656 C 135.714844 272.898438 139.140625 274.75 140.6875 275.253906 C 144.453125 276.460938 144.453125 276.773438 140.601562 280.113281 C 122.789062 295.585938 116.636719 299.519531 113.65625 297.296875 C 110.425781 294.886719 104.976562 283.398438 104.382812 277.671875 C 104.242188 276.40625 103.992188 275.144531 103.820312 274.863281 C 103.652344 274.582031 103.203125 269.554688 102.867188 263.6875 C 102.445312 256.804688 101.824219 251.527344 101.097656 248.800781 C 100.507812 246.472656 99.777344 241.671875 99.46875 238.132812 C 98.171875 222.460938 97.078125 220.832031 80.921875 210.863281 C 78.082031 209.121094 75.863281 207.351562 75.863281 206.875 C 75.863281 206.257812 76.457031 206.511719 77.886719 207.773438 C 79.910156 209.542969 88.789062 213.980469 90.304688 213.980469 C 92.105469 213.980469 90.476562 212.492188 87.355469 211.285156 C 81.0625 208.871094 78.058594 206.792969 76.089844 203.535156 C 73.390625 199.097656 74.179688 198.507812 77.972656 202.15625 C 81.59375 205.640625 89.378906 209.488281 92.835938 209.488281 C 94.632812 209.488281 92.777344 207.859375 90.335938 207.328125 C 84.546875 206.035156 75.863281 200.277344 75.863281 197.722656 C 75.863281 196.851562 77.296875 196.992188 78.082031 197.945312 C 79.515625 199.660156 84.183594 202.1875 88.507812 203.535156 C 93.816406 205.246094 93.847656 205.246094 93.847656 204.152344 C 93.847656 203.675781 93.566406 203.308594 93.230469 203.308594 C 90.417969 203.308594 82.777344 200.164062 80.695312 198.144531 C 78.644531 196.148438 78.5625 195.953125 79.796875 196.261719 C 80.585938 196.460938 83.367188 197.132812 85.980469 197.75 Z M 46.390625 203.449219 C 46.417969 210.808594 48.019531 214.574219 52.824219 218.417969 C 56.195312 221.140625 61.253906 227.234375 61.253906 228.613281 C 61.253906 229.089844 62.152344 230.351562 63.25 231.421875 C 64.34375 232.484375 66.113281 234.929688 67.183594 236.839844 C 69.457031 240.855469 71.339844 242.371094 75.835938 243.777344 C 84.546875 246.5 94.972656 245.433594 94.972656 241.8125 C 94.972656 240.066406 93.902344 239.957031 92.527344 241.558594 C 90 244.535156 74.039062 238.890625 66.59375 232.402344 C 66 231.867188 70.496094 233.695312 79.179688 237.515625 C 85.417969 240.238281 87.722656 240.433594 89.519531 238.414062 C 90.195312 237.625 91.796875 235.886719 93.058594 234.535156 C 94.296875 233.1875 95.671875 231.28125 96.09375 230.296875 C 97.109375 227.796875 97.75 229.0625 97.78125 233.636719 C 97.78125 237.515625 99.128906 247.398438 100 250.207031 C 100.816406 252.703125 102.558594 272.839844 102.023438 273.375 C 101.742188 273.683594 99.523438 271.800781 93.566406 266.214844 C 80.109375 253.546875 73.84375 247.988281 70.917969 246.078125 C 63.023438 240.910156 60.101562 238.441406 57.964844 235.070312 C 54.621094 229.847656 50.015625 221.59375 50.015625 220.863281 C 50.015625 220.496094 49.507812 219.933594 48.890625 219.597656 C 48.273438 219.261719 47.765625 218.726562 47.765625 218.417969 C 47.765625 218.109375 48.019531 217.996094 48.300781 218.164062 C 48.582031 218.363281 48.101562 216.367188 47.234375 213.757812 C 45.238281 207.914062 44.589844 202.496094 45.488281 199.714844 C 46.390625 197.019531 46.363281 196.90625 46.390625 203.449219 Z M 47.765625 200.8125 C 47.765625 202.832031 51.785156 210.050781 55.042969 213.898438 C 58.132812 217.546875 60.128906 221.199219 60.128906 223.25 C 60.128906 225.523438 49.085938 213.054688 48.21875 209.769531 C 46.953125 205.105469 46.390625 199.941406 47.175781 199.941406 C 47.484375 199.941406 47.765625 200.332031 47.765625 200.8125 Z M 114.21875 202.496094 C 117.027344 203.589844 119.613281 204.683594 119.949219 204.964844 C 120.257812 205.246094 123.179688 206.765625 126.386719 208.394531 L 132.230469 211.34375 L 130.625 212.183594 C 129.335938 212.859375 128.546875 212.886719 126.46875 212.382812 C 123.6875 211.707031 119.753906 212.210938 118.292969 213.417969 C 117.027344 214.457031 115.089844 213.417969 113.992188 211.089844 C 113.488281 210.050781 112.671875 208.308594 112.167969 207.242188 C 111.660156 206.148438 110.621094 204.40625 109.863281 203.367188 C 107.335938 199.941406 107.503906 199.910156 114.21875 202.496094 Z M 59.566406 206.203125 C 59.566406 206.59375 58.808594 206.035156 57.882812 204.964844 C 55.210938 201.90625 54.761719 200.53125 57.289062 203.140625 C 58.527344 204.464844 59.566406 205.835938 59.566406 206.203125 Z M 107.335938 201.65625 C 107.335938 201.992188 108.121094 203.421875 109.105469 204.855469 C 110.089844 206.257812 111.378906 208.703125 111.96875 210.273438 C 112.5625 211.847656 113.824219 213.785156 114.78125 214.574219 L 116.496094 216.003906 L 116.15625 220.75 C 115.960938 223.359375 115.3125 227.375 114.75 229.707031 L 113.710938 233.917969 L 112.503906 227.460938 C 111.828125 223.894531 110.902344 218.839844 110.453125 216.226562 C 109.972656 213.589844 108.851562 209.238281 107.894531 206.484375 C 105.984375 200.867188 106.015625 201.0625 106.773438 201.0625 C 107.082031 201.0625 107.335938 201.34375 107.335938 201.65625 Z M 82.046875 212.859375 C 84.070312 214.09375 86.34375 215.609375 87.105469 216.226562 L 88.507812 217.320312 L 84.011719 217.320312 C 78.503906 217.320312 78.503906 217.320312 77.042969 213.027344 C 75.582031 208.675781 75.582031 208.589844 77.128906 209.683594 C 77.832031 210.191406 80.050781 211.625 82.046875 212.859375 Z M 138.75 214.824219 C 141.503906 216.199219 144.003906 217.351562 144.339844 217.351562 C 144.648438 217.351562 148.667969 218.753906 153.246094 220.496094 C 167.070312 225.691406 166.394531 225.523438 170.46875 224.707031 C 173.054688 224.203125 174.660156 224.144531 176.144531 224.566406 C 178.085938 225.101562 181.792969 224.792969 185.277344 223.78125 C 186.320312 223.472656 186.542969 223.699219 186.878906 225.382812 C 187.441406 228.386719 187.046875 229.339844 184.996094 229.902344 C 182.410156 230.660156 178.195312 235.492188 175.753906 240.488281 C 173.839844 244.421875 173.503906 244.785156 170.78125 245.910156 C 167.042969 247.484375 167.238281 247.507812 165.550781 244.644531 C 164.765625 243.296875 162.855469 241.277344 161.28125 240.152344 C 157.910156 237.738281 157.855469 237.203125 160.160156 231.195312 C 161.929688 226.589844 162.210938 224.933594 161.28125 224.371094 C 160.691406 224.007812 159.90625 225.578125 159.34375 228.132812 C 158.921875 230.097656 156.898438 232.320312 155.101562 232.796875 L 153.695312 233.160156 L 155.210938 232.125 C 159.402344 229.230469 160.328125 224.652344 156.703125 224.652344 C 155.4375 224.652344 154.789062 225.691406 155.605469 226.507812 C 156.675781 227.570312 156.308594 228.554688 154.398438 229.707031 C 152.375 230.941406 151.53125 230.832031 147.765625 228.835938 C 145.4375 227.628906 144.5625 227.515625 139.140625 227.628906 L 133.097656 227.742188 L 131.300781 225.71875 C 125.371094 218.925781 125.035156 217.578125 128.828125 215.777344 C 130.148438 215.160156 131.695312 214.121094 132.285156 213.476562 C 133.605469 212.015625 132.875 211.847656 138.75 214.824219 Z M 125.035156 213.417969 C 125.230469 213.730469 126.074219 213.980469 126.890625 213.980469 L 128.40625 213.980469 L 126.722656 215.328125 C 125.148438 216.59375 125.007812 216.621094 124.644531 215.667969 C 124.445312 215.105469 123.996094 214.488281 123.660156 214.292969 C 123.011719 213.871094 123.378906 212.859375 124.191406 212.859375 C 124.472656 212.859375 124.839844 213.109375 125.035156 213.417969 Z M 122.535156 214.574219 C 123.152344 214.878906 123.632812 215.609375 123.632812 216.171875 C 123.632812 216.734375 124.25 218.335938 125.007812 219.738281 L 126.355469 222.320312 L 122.789062 219.488281 C 119.304688 216.703125 119.246094 216.59375 120.089844 215.300781 C 121.074219 213.785156 121.101562 213.785156 122.535156 214.574219 Z M 123.433594 221.535156 C 127.480469 224.820312 140.488281 238.101562 140.488281 238.917969 C 140.488281 240.488281 143.863281 244.28125 145.6875 244.761719 L 147.515625 245.238281 L 145.6875 246.191406 C 144.675781 246.726562 143.863281 247.34375 143.863281 247.59375 C 143.863281 248.660156 144.675781 248.691406 146.140625 247.648438 C 150.074219 244.84375 156.703125 243.328125 158.808594 244.730469 C 161.898438 246.808594 161.253906 259.050781 157.824219 263.546875 C 153.75 268.824219 151.027344 271.296875 150.324219 270.3125 C 149.535156 269.246094 146.054688 269.695312 144.984375 271.015625 C 143.890625 272.304688 142.765625 272 140.238281 269.667969 C 137.851562 267.476562 132.003906 265.089844 129 265.089844 C 126.808594 265.089844 127.285156 266.101562 129.671875 266.550781 C 132.371094 267.027344 133.355469 267.5625 135.515625 269.667969 C 136.472656 270.59375 138.328125 271.828125 139.648438 272.390625 C 142.230469 273.484375 143.382812 274.636719 141.894531 274.636719 C 140.660156 274.636719 138.382812 273.402344 134.113281 270.425781 C 128.042969 266.183594 127.789062 266.101562 125.457031 267.671875 C 121.664062 270.253906 121.242188 269.695312 118.601562 258.351562 C 117.898438 255.402344 116.605469 250.011719 115.707031 246.359375 C 113.964844 239.226562 113.742188 237.289062 114.640625 236.726562 C 114.949219 236.53125 115.203125 235.632812 115.203125 234.707031 C 115.203125 233.777344 115.707031 230.972656 116.296875 228.414062 C 116.917969 225.886719 117.5625 222.351562 117.761719 220.550781 L 118.097656 217.320312 L 119.386719 218.304688 C 120.117188 218.867188 121.914062 220.328125 123.433594 221.535156 Z M 188.847656 222.546875 C 190.082031 224.007812 190.222656 225.886719 189.269531 227.628906 C 188.621094 228.808594 188.566406 228.78125 188.199219 226.898438 C 188.003906 225.804688 187.640625 224.121094 187.414062 223.109375 C 186.90625 220.972656 187.382812 220.777344 188.847656 222.546875 Z M 95.476562 225.605469 C 95.785156 226.703125 95.703125 227.796875 95.222656 228.894531 C 94.519531 230.464844 94.492188 230.378906 94.464844 226.953125 C 94.410156 223.164062 94.691406 222.828125 95.476562 225.605469 Z M 52.769531 228.527344 C 55.183594 232.320312 55.832031 234.339844 53.863281 231.953125 C 52.628906 230.464844 48.945312 223.417969 49.902344 224.371094 C 50.210938 224.679688 51.503906 226.5625 52.769531 228.527344 Z M 158.441406 227.09375 C 158.332031 230.4375 150.410156 233.582031 148.355469 231.109375 C 147.90625 230.578125 147.878906 230.269531 148.246094 230.269531 C 148.582031 230.269531 149.003906 230.519531 149.199219 230.832031 C 150.773438 233.359375 157.714844 229.761719 157.125 226.730469 C 156.84375 225.300781 156.898438 225.183594 157.628906 225.777344 C 158.105469 226.167969 158.472656 226.757812 158.441406 227.09375 Z M 52.851562 232.207031 C 53.917969 233.273438 53.332031 233.636719 50.71875 233.609375 C 46.109375 233.527344 45.96875 233.328125 47.625 229.230469 L 49.03125 225.691406 L 50.6875 228.667969 C 51.589844 230.324219 52.574219 231.925781 52.851562 232.207031 Z M 136.105469 230.042969 C 137.035156 230.378906 139.140625 234.058594 138.664062 234.535156 C 138.523438 234.652344 137.3125 233.46875 135.996094 231.867188 C 134.644531 230.296875 133.917969 229.144531 134.335938 229.339844 C 134.785156 229.539062 135.574219 229.847656 136.105469 230.042969 Z M 146.5 230.015625 C 146.617188 230.351562 145.773438 230.492188 144.28125 230.324219 C 142.203125 230.097656 142.066406 230.015625 143.300781 229.652344 C 145.070312 229.144531 146.25 229.257812 146.5 230.015625 Z M 186.601562 234.734375 C 186.261719 235.351562 184.042969 237.316406 181.710938 239.113281 C 175.527344 243.777344 175.078125 244.085938 175.386719 243.46875 C 175.527344 243.15625 176.035156 242.148438 176.484375 241.21875 C 178.507812 236.953125 182.972656 231.867188 185.445312 230.941406 C 187.078125 230.324219 187.75 232.570312 186.601562 234.734375 Z M 147.992188 232.90625 C 151.167969 234.566406 155.4375 234.511719 157.347656 232.796875 C 158.667969 231.589844 158.699219 231.703125 157.714844 234.535156 C 156.703125 237.375 157.265625 238.777344 160.242188 240.941406 C 164.09375 243.71875 166.589844 247.59375 165.386719 248.941406 C 164.765625 249.617188 164.457031 250.796875 164.515625 252.203125 C 164.625 255.347656 163.726562 254.953125 163.390625 251.75 C 162.6875 244.871094 159.820312 242.035156 151.839844 240.40625 C 144.421875 238.890625 141.050781 237.039062 139.5625 233.667969 L 138.351562 230.941406 L 141.808594 231.222656 C 144.003906 231.390625 146.277344 232.007812 147.992188 232.90625 Z M 70.414062 236.390625 C 74.007812 239.085938 76.117188 240.011719 84.011719 242.429688 L 90.195312 244.339844 L 84.800781 244 C 76.761719 243.550781 71.539062 241.640625 69.457031 238.414062 C 68.953125 237.625 68.136719 236.363281 67.660156 235.605469 C 66.394531 233.667969 67.015625 233.835938 70.414062 236.390625 Z M 88.679688 237.878906 C 88.507812 238.046875 87.382812 238.300781 86.175781 238.414062 L 84.011719 238.664062 L 86.261719 237.90625 C 88.367188 237.203125 89.351562 237.179688 88.679688 237.878906 Z M 149.988281 241.277344 C 153.585938 241.726562 152.882812 242.851562 148.636719 243.496094 C 145.742188 243.945312 144.367188 243.269531 142.792969 240.742188 C 141.191406 238.160156 141.246094 238.101562 144.28125 239.589844 C 145.742188 240.292969 148.328125 241.050781 149.988281 241.277344 Z M 64.34375 242.90625 C 65.578125 243.859375 68.109375 245.714844 69.964844 246.976562 C 71.820312 248.210938 73.84375 249.730469 74.460938 250.292969 C 75.078125 250.851562 78.363281 253.828125 81.765625 256.890625 C 85.167969 259.949219 88.199219 262.703125 88.507812 262.984375 C 88.820312 263.292969 87.496094 262.535156 85.585938 261.355469 C 83.675781 260.175781 79.515625 257.816406 76.316406 256.105469 C 69.878906 252.679688 65.046875 248.242188 62.152344 243.101562 C 60.441406 240.042969 60.722656 240.011719 64.34375 242.90625 Z M 171.707031 248.183594 C 170.863281 249.816406 167.773438 252.734375 166.902344 252.734375 C 164.429688 252.734375 169.710938 246.78125 172.410156 246.554688 C 172.492188 246.554688 172.183594 247.289062 171.707031 248.183594 Z M 140.378906 271.183594 C 140.714844 272.25 137.734375 270.652344 136.273438 268.992188 L 135.152344 267.703125 L 137.652344 269.078125 C 139 269.808594 140.238281 270.761719 140.378906 271.183594 Z M 152.910156 271.746094 C 150.351562 274.808594 148.917969 276.125 148.917969 275.425781 C 148.917969 274.972656 154.566406 269.019531 154.988281 269.019531 C 155.101562 269.019531 154.171875 270.253906 152.910156 271.746094 Z M 149.199219 271.269531 C 150.351562 273.121094 145.828125 276.292969 144.253906 274.722656 C 143.609375 274.074219 143.1875 273.457031 143.328125 273.375 C 146.671875 271.210938 148.695312 270.480469 149.199219 271.269531 Z M 149.199219 271.269531 "/>
</g>
</svg>
