<?xml version="1.0" encoding="UTF-8"?>
<svg xmlns="http://www.w3.org/2000/svg" xmlns:xlink="http://www.w3.org/1999/xlink" width="555pt" height="690pt" viewBox="0 0 555 690" version="1.1">
<g id="surface1">
<path style=" stroke:none;fill-rule:nonzero;fill:rgb(0%,0%,0%);fill-opacity:1;" d="M 266.101562 30 C 259.949219 30.976562 257.511719 32.476562 255.636719 36.414062 C 253.761719 40.425781 253.050781 40.949219 251.398438 39.636719 C 247.238281 36.335938 244.164062 35.960938 238.875 38.25 C 236.960938 39.074219 234.75 39.75 234.039062 39.75 C 230.585938 39.75 227.023438 56.851562 229.800781 59.925781 C 231.039062 61.3125 231.039062 61.386719 229.613281 61.835938 C 227.324219 62.550781 227.175781 64.011719 228.414062 71.851562 C 230.175781 82.648438 233.289062 83.886719 241.988281 77.136719 C 253.238281 68.476562 260.925781 63.375 268.914062 59.210938 C 273.710938 56.699219 279.300781 53.476562 281.324219 52.011719 C 287.210938 47.773438 285.601562 50.210938 276.9375 58.613281 C 263.511719 71.664062 260.0625 76.5 254.324219 90.375 C 252.226562 95.511719 250.5 100.011719 250.5 100.425781 C 250.5 100.835938 248.925781 105.300781 247.011719 110.398438 C 242.023438 123.636719 240.75 127.085938 240.75 127.3125 C 240.75 127.425781 238.800781 126.5625 236.4375 125.363281 C 234.074219 124.164062 230.851562 122.773438 229.273438 122.289062 C 225.261719 120.976562 222.335938 116.773438 221.699219 111.300781 C 221.101562 106.199219 221.773438 105 230.550781 95.625 C 238.273438 87.375 238.539062 83.738281 231.523438 81.898438 C 227.511719 80.886719 225.113281 81.789062 210.5625 89.851562 C 201.636719 94.800781 200.738281 95.851562 197.289062 104.550781 C 190.164062 122.738281 190.238281 122.625 188.738281 119.023438 C 185.925781 112.273438 179.664062 113.476562 171.1875 122.476562 C 167.136719 126.75 165.710938 131.25 168.335938 131.25 C 168.9375 131.25 169.835938 131.960938 170.289062 132.824219 C 170.738281 133.6875 172.800781 136.6875 174.824219 139.460938 C 176.851562 142.238281 178.5 145.3125 178.5 146.324219 C 178.574219 151.351562 185.023438 159.9375 189.863281 161.363281 C 194.851562 162.863281 198 172.085938 195.898438 179.023438 L 195.039062 181.914062 L 188.101562 181.351562 C 184.273438 181.050781 176.0625 180.488281 169.875 180.074219 C 158.625 179.324219 132.113281 175.574219 127.875 174.113281 C 124.460938 172.914062 104.773438 170.25 99.414062 170.25 C 87.148438 170.25 76.085938 176.25 69.074219 186.675781 C 67.574219 188.886719 65.4375 192.074219 64.273438 193.800781 C 63.148438 195.488281 61.761719 197.925781 61.164062 199.238281 C 60.601562 200.511719 59.773438 201.789062 59.324219 202.050781 C 58.914062 202.351562 57.226562 206.699219 55.613281 211.726562 C 50.886719 226.613281 50.585938 249 54.898438 263.8125 C 56.25 268.460938 54.863281 273.898438 49.574219 284.625 C 47.136719 289.574219 44.925781 294.675781 44.664062 295.949219 C 44.398438 297.261719 42.675781 302.0625 40.875 306.675781 C 31.648438 330.039062 32.699219 334.125 48.226562 334.875 C 52.011719 335.0625 58.351562 335.398438 62.324219 335.585938 C 67.425781 335.8125 70.6875 335.585938 73.574219 334.761719 C 75.789062 334.125 79.5 333.148438 81.75 332.585938 L 85.875 331.539062 L 88.425781 334.574219 C 91.351562 338.0625 93.523438 339.523438 103.949219 345.039062 C 112.574219 349.613281 116.664062 352.273438 121.875 356.625 C 123.9375 358.386719 128.25 361.875 131.4375 364.386719 C 136.199219 368.175781 137.25 369.414062 137.25 371.136719 C 137.25 376.460938 143.925781 391.460938 148.875 397.238281 C 153.710938 402.863281 162.375 398.738281 181.5 381.75 C 189.039062 375.074219 194.4375 371.0625 196.800781 370.425781 C 201.601562 369.113281 203.8125 366.5625 214.085938 350.25 C 215.773438 347.550781 217.6875 344.363281 218.289062 343.125 C 218.960938 341.8125 221.0625 339.976562 223.5 338.625 C 226.386719 337.011719 228.414062 335.136719 230.25 332.363281 C 231.675781 330.1875 234.601562 327.148438 236.738281 325.648438 C 250.539062 315.789062 251.25 315.039062 251.25 309.898438 C 251.25 308.136719 251.738281 306.5625 252.414062 305.960938 C 256.011719 303 256.164062 299.625 252.863281 296.0625 C 251.0625 294.113281 251.023438 293.8125 251.851562 290.4375 C 253.273438 284.773438 255.75 269.699219 256.914062 259.5 C 257.511719 254.324219 258.488281 247.574219 259.125 244.5 C 259.726562 241.386719 260.886719 235.164062 261.710938 230.625 C 262.539062 226.085938 264.074219 218.476562 265.164062 213.75 C 267 205.875 267.375 196.648438 265.988281 195.226562 C 264.789062 194.0625 249.976562 191.664062 245.4375 191.886719 C 243.636719 192 242.25 191.738281 242.25 191.289062 C 242.25 190.835938 242.511719 190.5 242.851562 190.5 C 245.101562 190.5 255.5625 171.863281 259.875 160.125 C 260.664062 158.0625 261.898438 155.476562 262.648438 154.386719 C 264.710938 151.351562 268.5 142.085938 268.5 139.988281 C 268.5 136.3125 263.664062 130.6875 259.273438 129.300781 C 258.414062 129.039062 255.523438 127.164062 252.9375 125.136719 C 250.3125 123.148438 247.914062 121.5 247.648438 121.5 C 245.4375 121.425781 245.363281 120.113281 247.238281 115.085938 C 248.289062 112.238281 250.351562 106.5 251.773438 102.375 C 259.273438 80.738281 263.925781 73.425781 280.539062 57 C 285.039062 52.539062 288.75 48.523438 288.75 48.074219 C 288.75 47.625 290.101562 47.25 291.789062 47.25 C 297.675781 47.25 299.585938 45.449219 300.449219 39.074219 C 301.050781 34.574219 301.011719 34.574219 290.25 31.914062 C 281.4375 29.738281 272.398438 29.023438 266.101562 30 Z M 284.851562 32.289062 C 293.511719 34.273438 297.824219 35.550781 298.273438 36.226562 C 299.136719 37.648438 295.949219 39 291.789062 39.039062 C 285.414062 39.074219 277.835938 40.199219 267.75 42.675781 C 258.601562 44.925781 257.363281 45.5625 253.425781 49.875 L 251.363281 52.125 L 252 48.75 C 252.375 46.875 253.5 43.835938 254.585938 42 C 255.636719 40.125 256.875 37.648438 257.363281 36.488281 C 259.164062 31.949219 273.675781 29.738281 284.851562 32.289062 Z M 247.648438 39.335938 C 254.289062 42.113281 248.363281 47.25 239.699219 46.238281 C 233.886719 45.523438 229.914062 41.25 235.125 41.25 C 235.648438 41.25 237.5625 40.574219 239.363281 39.75 C 243.300781 37.988281 244.3125 37.914062 247.648438 39.335938 Z M 298.425781 41.851562 C 297.675781 44.023438 293.023438 46.539062 291.863281 45.375 C 291.335938 44.851562 294.074219 41.960938 296.585938 40.425781 C 299.289062 38.738281 299.476562 38.886719 298.425781 41.851562 Z M 292.085938 42.300781 C 290.738281 44.398438 277.351562 52.914062 266.8125 58.351562 C 262.800781 60.414062 255.9375 64.761719 251.550781 67.988281 C 237.335938 78.488281 235.914062 79.425781 233.8125 79.460938 C 231.5625 79.5 231.636719 79.648438 230.289062 71.175781 C 228.9375 62.738281 228.824219 63 234.074219 63 C 243.5625 63 246.898438 61.164062 253.085938 52.574219 C 255.335938 49.386719 259.949219 45.75 261.675781 45.75 C 262.238281 45.75 266.136719 44.886719 270.335938 43.875 C 277.273438 42.148438 285.601562 40.875 291.1875 40.613281 C 293.25 40.5 293.25 40.539062 292.085938 42.300781 Z M 239.738281 47.886719 C 243.824219 48.113281 245.175781 47.886719 247.613281 46.5 C 251.324219 44.4375 251.289062 44.398438 250.085938 50.136719 C 248.324219 58.6875 240.488281 63.488281 233.664062 60.226562 C 230.511719 58.761719 230.25 57.261719 231.449219 48.113281 C 231.863281 44.925781 231.898438 44.886719 233.363281 46.199219 C 234.335938 47.136719 236.398438 47.664062 239.738281 47.886719 Z M 229.085938 83.210938 C 229.351562 83.585938 225.375 87.261719 220.3125 91.351562 C 209.585938 99.976562 208.273438 101.585938 203.101562 111.9375 C 200.960938 116.175781 198.074219 121.425781 196.648438 123.675781 L 194.0625 127.6875 L 192.636719 125.4375 C 191.175781 123.148438 191.851562 120.074219 194.960938 114.636719 C 195.335938 113.960938 197.0625 109.835938 198.75 105.523438 C 200.476562 101.175781 202.425781 97.125 203.101562 96.523438 C 205.125 94.6875 226.914062 82.6875 228.523438 82.5 C 228.601562 82.5 228.863281 82.800781 229.085938 83.210938 Z M 232.5 86.101562 C 232.460938 88.574219 229.6875 93.449219 225.976562 97.5 C 223.914062 99.75 221.289062 103.460938 220.125 105.75 C 219 108 216.261719 112.914062 214.050781 116.625 C 211.835938 120.335938 209.398438 125.398438 208.613281 127.875 C 205.988281 135.976562 203.960938 140.476562 199.949219 146.960938 C 197.738281 150.488281 195.226562 154.835938 194.324219 156.636719 C 191.738281 161.699219 186.113281 159 181.800781 150.601562 C 179.101562 145.3125 179.324219 144.636719 185.738281 139.386719 C 192.449219 133.800781 198 125.960938 204.488281 112.835938 C 209.136719 103.460938 211.460938 100.539062 219 94.425781 C 221.699219 92.25 225.488281 89.023438 227.4375 87.1875 C 230.960938 83.960938 232.5 83.625 232.5 86.101562 Z M 234.414062 88.949219 C 233.585938 92.363281 232.761719 90.75 233.585938 87.226562 C 234.148438 84.789062 234.449219 84.226562 234.636719 85.425781 C 234.75 86.398438 234.675781 87.976562 234.414062 88.949219 Z M 218.363281 116.511719 C 215.023438 129.335938 215.476562 145.539062 219.601562 163.125 C 221.210938 170.136719 222.789062 177.375 223.050781 179.25 C 223.3125 181.085938 224.25 185.101562 225.148438 188.136719 C 226.386719 192.375 226.539062 193.761719 225.824219 194.210938 C 224.738281 194.886719 212.210938 196.5 205.648438 196.835938 L 200.886719 197.0625 L 201.074219 193.988281 C 201.1875 192.261719 200.886719 189.675781 200.4375 188.25 C 199.988281 186.789062 199.386719 183.414062 199.125 180.75 C 198.148438 171 196.613281 164.101562 195.074219 162.449219 L 193.574219 160.875 L 199.238281 151.5 C 205.539062 141.074219 207.75 136.5 209.625 130.050781 C 212.699219 119.4375 220.875 106.761719 218.363281 116.511719 Z M 223.085938 121.460938 C 223.988281 121.835938 226.351562 123.148438 228.335938 124.425781 C 230.363281 125.664062 233.886719 127.238281 236.175781 127.875 C 244.273438 130.125 246 131.210938 246 133.875 C 246 135.226562 246.675781 137.136719 247.5 138.1875 C 250.050781 141.449219 247.085938 151.949219 240.5625 162.976562 C 236.136719 170.363281 230.289062 182.289062 228.789062 187.011719 C 227.476562 191.023438 226.800781 189.824219 225.074219 180.375 C 224.25 175.835938 222.414062 167.0625 220.988281 160.875 C 217.351562 145.164062 217.085938 137.4375 219.523438 118.5 L 219.976562 115.125 L 220.6875 117.976562 C 221.175781 119.851562 222 121.085938 223.085938 121.460938 Z M 184.800781 117.636719 C 185.25 118.386719 180.1875 123.335938 175.539062 126.636719 C 171.675781 129.375 168.675781 129.824219 169.273438 127.574219 C 170.289062 123.675781 183.375 115.3125 184.800781 117.636719 Z M 187.5 120.113281 C 187.5 120.5625 188.699219 122.851562 190.199219 125.25 C 193.425781 130.5 193.238281 130.988281 185.4375 137.550781 C 179.175781 142.800781 179.398438 142.800781 174.824219 136.5 C 170.210938 130.199219 170.25 130.988281 174.449219 128.960938 C 176.363281 128.023438 179.8125 125.363281 182.136719 123.039062 C 186.148438 119.0625 187.5 118.3125 187.5 120.113281 Z M 251.625 126.5625 C 254.101562 128.398438 257.664062 130.6875 259.574219 131.664062 C 264.488281 134.175781 265.125 136.085938 260.8125 135.5625 C 258.488281 135.300781 244.539062 129.449219 242.4375 127.875 C 242.324219 127.800781 242.738281 126.523438 243.375 125.023438 C 244.726562 121.761719 245.25 121.875 251.625 126.5625 Z M 252.898438 134.699219 C 255.039062 135.789062 258.300781 136.875 260.175781 137.136719 C 264.601562 137.773438 264.675781 138.335938 261.789062 148.539062 C 256.460938 167.175781 241.386719 192 236.023438 190.949219 C 234.824219 190.6875 232.835938 190.5 231.601562 190.5 C 229.6875 190.5 229.460938 190.273438 229.875 188.8125 C 230.738281 185.886719 238.949219 169.164062 242.363281 163.425781 C 246.488281 156.375 247.164062 154.875 249.488281 146.773438 L 251.398438 140.136719 L 249.449219 137.363281 C 246 132.375 246.898438 131.664062 252.898438 134.699219 Z M 266.960938 140.101562 C 266.960938 141.226562 266.25 143.289062 265.425781 144.75 C 264.226562 146.851562 264 147 264.335938 145.5 C 264.5625 144.449219 264.976562 142.199219 265.238281 140.4375 C 265.726562 137.023438 267.039062 136.800781 266.960938 140.101562 Z M 115.5 174 C 121.085938 174.789062 127.539062 175.949219 129.863281 176.585938 C 132.1875 177.1875 139.273438 178.386719 145.613281 179.25 C 151.949219 180.074219 159.148438 181.125 161.625 181.5 C 164.101562 181.914062 172.425781 182.511719 180.074219 182.886719 C 196.011719 183.636719 195.75 183.5625 195.75 187.613281 C 195.75 189.261719 196.386719 195.074219 197.210938 200.511719 C 199.3125 214.835938 199.425781 216.898438 198.039062 216.335938 C 195.824219 215.476562 179.023438 212.25 176.699219 212.25 C 173.324219 212.210938 168.976562 210 163.726562 205.613281 C 161.175781 203.476562 158.851562 201.75 158.550781 201.75 C 158.25 201.75 154.726562 200.210938 150.675781 198.375 C 146.625 196.5 142.875 195 142.351562 195 C 141.863281 195 138.710938 193.6875 135.414062 192.074219 C 117.1875 183.300781 107.585938 182.289062 93.375 187.6875 C 89.8125 189.039062 77.511719 197.851562 75.113281 200.699219 C 72.9375 203.363281 69.226562 212.550781 65.550781 224.4375 C 63.261719 231.898438 63.039062 232.164062 58.6875 232.6875 C 54.9375 233.175781 54.335938 232.085938 55.3125 226.5 C 55.835938 223.460938 56.136719 223.085938 58.164062 222.898438 C 60.375 222.675781 63.75 216.898438 63.75 213.335938 C 63.75 212.699219 64.800781 209.925781 66.074219 207.1875 C 67.875 203.363281 68.550781 200.625 68.960938 195.636719 C 70.460938 177.488281 86.960938 169.800781 115.5 174 Z M 113.4375 187.125 C 117.1875 187.726562 129.148438 192.5625 139.011719 197.4375 C 143.925781 199.835938 149.886719 202.613281 152.324219 203.585938 C 157.648438 205.761719 168.5625 212.773438 173.476562 217.199219 C 178.273438 221.511719 186.226562 227.398438 195.375 233.476562 C 205.800781 240.375 226.386719 257.023438 231.863281 262.949219 C 234.863281 266.210938 243.261719 278.136719 246.039062 283.085938 C 253.5 296.324219 240.113281 301.6875 215.101562 295.5 C 206.324219 293.324219 203.773438 292.3125 193.835938 287.023438 C 191.324219 285.710938 186.75 283.835938 183.710938 282.863281 C 177.1875 280.761719 175.085938 279.824219 163.539062 273.789062 C 158.8125 271.3125 152.476562 268.539062 149.476562 267.601562 C 146.476562 266.664062 144 265.539062 144 265.050781 C 144 263.664062 140.210938 252.449219 139.5 251.738281 C 137.738281 249.898438 137.511719 252.335938 139.125 255.9375 C 143.550781 265.800781 142.125 269.886719 135.335938 266.664062 C 131.210938 264.675781 121.648438 262.5 117.113281 262.5 C 113.136719 262.5 112.539062 260.4375 115.648438 257.511719 C 116.886719 256.3125 119.210938 253.460938 120.789062 251.136719 C 123.488281 247.238281 130.238281 240.226562 137.851562 233.476562 L 141.074219 230.625 L 139.5 227.0625 C 138.523438 224.851562 137.773438 221.101562 137.476562 217.238281 L 137.0625 211.011719 L 130.875 207.113281 C 127.460938 204.976562 122.324219 202.199219 119.4375 200.925781 L 114.148438 198.601562 L 108.261719 202.574219 C 105.039062 204.75 100.199219 207.789062 97.5 209.289062 C 75.898438 221.398438 74.511719 222.5625 78.449219 225.675781 C 79.539062 226.5 81.5625 229.164062 82.988281 231.523438 C 84.414062 233.925781 86.851562 237.226562 88.425781 238.875 C 89.960938 240.523438 92.363281 243.375 93.75 245.25 C 95.136719 247.085938 98.738281 251.175781 101.738281 254.289062 L 107.25 259.914062 L 103.3125 260.101562 C 101.136719 260.175781 99.300781 260.511719 99.1875 260.8125 C 97.648438 265.050781 93.300781 262.613281 81.824219 251.210938 C 69.710938 239.175781 66.75 235.5 66.75 232.351562 C 66.75 225.414062 73.726562 209.511719 79.539062 203.25 C 81.261719 201.375 83.511719 198.75 84.601562 197.398438 C 85.648438 196.011719 87.898438 193.949219 89.550781 192.789062 C 92.25 190.949219 94.800781 189.9375 104.625 186.898438 C 106.761719 186.226562 107.851562 186.226562 113.4375 187.125 Z M 199.3125 194.925781 C 199.574219 198.300781 199.425781 199.648438 198.898438 199.125 C 198.488281 198.710938 197.925781 195.824219 197.664062 192.75 C 197.289062 188.289062 197.363281 187.425781 198.074219 188.550781 C 198.5625 189.300781 199.125 192.1875 199.3125 194.925781 Z M 256.460938 194.738281 C 262.351562 195.898438 263.925781 196.5 261 196.5 C 258.039062 196.5 246 193.988281 246 193.386719 C 246 192.75 247.164062 192.898438 256.460938 194.738281 Z M 64.199219 198.1875 C 63.226562 200.363281 61.386719 204.335938 60.148438 207 C 58.914062 209.699219 57.335938 213.863281 56.625 216.261719 C 55.914062 218.664062 55.164062 220.425781 54.976562 220.199219 C 53.773438 219.039062 60.039062 203.289062 65.023438 194.8125 C 66.1875 192.789062 65.699219 194.886719 64.199219 198.1875 Z M 245.25 195.789062 C 248.773438 196.613281 253.3125 197.664062 255.375 198.113281 C 257.4375 198.601562 260.476562 199.011719 262.125 199.050781 C 266.0625 199.164062 266.175781 200.25 263.625 212.363281 C 262.539062 217.460938 261.148438 224.625 260.550781 228.335938 C 259.914062 232.011719 259.273438 235.238281 259.125 235.5 C 258.523438 236.476562 255 258.375 255 261.1875 C 255 262.800781 254.363281 268.085938 253.539062 272.886719 C 252.75 277.6875 251.886719 283.238281 251.625 285.1875 C 250.988281 289.949219 249.75 289.726562 249.75 284.851562 C 249.75 274.5 246.375 251.4375 242.925781 238.351562 C 242.550781 236.8125 241.726562 231.074219 241.125 225.601562 C 240 215.4375 238.3125 204.976562 237 200.25 C 235.164062 193.6875 235.5 193.5 245.25 195.789062 Z M 66.488281 201.449219 C 65.851562 203.0625 64.351562 207.148438 63.074219 210.5625 C 59.925781 219.074219 58.539062 221.585938 57.601562 220.648438 C 56.625 219.675781 58.5 213.976562 63.449219 203.0625 C 67.011719 195.226562 69.261719 193.988281 66.488281 201.449219 Z M 234.976562 198.1875 C 235.199219 199.949219 235.914062 204.226562 236.585938 207.75 C 237.226562 211.238281 238.425781 219.375 239.210938 225.789062 C 240.039062 232.199219 241.011719 238.949219 241.425781 240.789062 C 244.761719 255.261719 246.113281 262.386719 246.75 268.875 C 247.164062 273 247.6875 277.726562 247.949219 279.375 C 248.511719 283.050781 248.363281 282.9375 241.835938 273.074219 C 236.324219 264.710938 229.085938 257.0625 218.773438 248.625 C 215.210938 245.738281 212.324219 243.039062 212.289062 242.625 C 212.25 242.210938 210.863281 240.9375 209.25 239.773438 C 206.550781 237.863281 206.25 237.335938 206.25 234.523438 C 206.25 230.476562 204.636719 221.738281 201.824219 210.523438 C 198.9375 199.050781 198.1875 199.949219 212.101562 198.375 C 218.585938 197.625 225.898438 196.613281 228.375 196.085938 C 230.851562 195.5625 233.25 195.113281 233.699219 195.074219 C 234.1875 195.039062 234.75 196.425781 234.976562 198.1875 Z M 78.898438 202.125 C 76.800781 204.414062 73.988281 208.460938 72.675781 211.164062 C 69.789062 216.976562 69.226562 217.425781 71.289062 212.136719 C 73.125 207.488281 74.960938 204.675781 79.011719 200.4375 C 83.4375 195.789062 83.363281 197.25 78.898438 202.125 Z M 118.6875 202.425781 C 120.523438 203.210938 125.0625 205.726562 128.773438 208.011719 L 135.523438 212.210938 L 135.9375 218.023438 C 136.164062 221.25 136.949219 225.375 137.699219 227.210938 L 139.011719 230.550781 L 136.164062 232.835938 C 130.648438 237.226562 122.511719 245.664062 119.101562 250.5 C 114.824219 256.574219 112.199219 259.085938 110.664062 258.488281 C 106.6875 256.949219 112.539062 249.675781 128.511719 236.363281 C 137.25 229.050781 137.210938 229.085938 135.976562 223.3125 C 133.726562 213.074219 133.574219 212.8125 128.585938 210.75 C 126.113281 209.738281 122.585938 207.976562 120.710938 206.886719 C 114.976562 203.476562 113.511719 203.511719 107.210938 207.261719 C 104.136719 209.0625 97.574219 212.851562 92.625 215.585938 C 83.023438 220.988281 80.101562 223.199219 81.414062 224.101562 C 81.863281 224.398438 84.898438 228.074219 88.164062 232.3125 C 91.460938 236.550781 95.886719 242.289062 98.0625 245.0625 C 100.238281 247.835938 102 250.351562 102 250.6875 C 102 252 100.425781 251.0625 98.324219 248.4375 C 97.085938 246.898438 94.351562 243.601562 92.25 241.125 C 90.1875 238.648438 86.625 233.851562 84.335938 230.511719 C 82.085938 227.136719 79.800781 224.210938 79.3125 224.0625 C 77.925781 223.574219 80.664062 220.761719 84.75 218.398438 C 86.585938 217.351562 90.488281 215.101562 93.375 213.375 C 96.261719 211.648438 99.148438 210.074219 99.75 209.8125 C 100.386719 209.585938 103.726562 207.523438 107.25 205.199219 C 114.488281 200.4375 114.226562 200.511719 118.6875 202.425781 Z M 159.148438 203.925781 C 162.898438 206.324219 165 208.613281 161.925781 206.960938 C 159.1875 205.5 154.199219 201.75 154.988281 201.75 C 155.398438 201.75 157.238281 202.726562 159.148438 203.925781 Z M 121.125 209.25 C 122.773438 210.375 125.886719 211.875 128.023438 212.550781 C 132.300781 213.976562 132.148438 213.710938 133.914062 222.335938 L 135.113281 228.335938 L 132.226562 230.960938 C 130.613281 232.425781 126.9375 235.539062 124.085938 237.898438 C 117.148438 243.5625 110.25 250.574219 108.710938 253.574219 L 107.4375 256.011719 L 102.789062 248.960938 C 100.238281 245.0625 97.011719 240.675781 95.699219 239.25 C 94.351562 237.789062 90.9375 233.625 88.125 229.949219 L 83.023438 223.3125 L 84.710938 222 C 85.6875 221.289062 90.710938 218.4375 95.925781 215.625 C 101.101562 212.773438 106.726562 209.585938 108.375 208.5 C 113.363281 205.125 115.164062 205.238281 121.125 209.25 Z M 178.949219 217.914062 C 182.398438 220.613281 185.25 222.976562 185.25 223.199219 C 185.25 223.875 181.949219 221.773438 177.039062 217.988281 C 170.550781 213 170.550781 213 171.675781 213 C 172.199219 213 175.5 215.210938 178.949219 217.914062 Z M 183.789062 214.800781 C 186.039062 215.363281 189.226562 216.039062 190.875 216.335938 C 198.1875 217.539062 198.976562 218.101562 198.414062 221.511719 C 197.773438 225.601562 197.289062 225.976562 193.3125 225.375 C 190.425781 224.925781 181.460938 218.960938 176.324219 214.050781 C 175.613281 213.375 179.925781 213.824219 183.789062 214.800781 Z M 202.351562 222.113281 C 202.574219 223.914062 200.699219 226.425781 199.800781 225.5625 C 199.574219 225.335938 199.648438 223.914062 199.914062 222.414062 C 200.476562 219.375 202.011719 219.1875 202.351562 222.113281 Z M 191.0625 227.25 C 193.085938 228.863281 196.125 229.238281 196.875 228 C 197.136719 227.585938 198.261719 227.25 199.386719 227.25 C 200.511719 227.25 201.863281 226.835938 202.351562 226.351562 C 203.625 225.074219 203.8125 225.5625 204.113281 231.523438 C 204.414062 236.851562 204.375 236.925781 202.914062 235.949219 C 202.050781 235.425781 199.011719 233.550781 196.125 231.824219 C 189.636719 227.925781 186.824219 225.789062 188.136719 225.75 C 188.699219 225.75 190.011719 226.425781 191.0625 227.25 Z M 63.1875 234.9375 C 63.074219 235.238281 63 237.863281 63 240.75 C 63 246.863281 62.210938 247.460938 60.710938 242.4375 C 59.851562 239.664062 59.289062 238.875 58.050781 238.875 C 56.136719 238.875 53.851562 237.113281 54.449219 236.101562 C 55.539062 234.375 63.75 233.25 63.1875 234.9375 Z M 65.476562 243.9375 C 65.886719 251.136719 65.0625 254.101562 64.3125 248.25 C 63.9375 245.625 64.425781 235.875 64.875 236.398438 C 64.988281 236.550781 65.25 239.925781 65.476562 243.9375 Z M 77.4375 250.6875 C 84.5625 259.273438 90.148438 263.773438 95.289062 265.011719 C 97.5 265.539062 98.851562 268.648438 99.074219 273.75 C 99.1875 275.585938 99.523438 277.726562 99.898438 278.4375 C 101.585938 281.8125 97.613281 279.113281 89.0625 271.011719 C 83.210938 265.460938 71.4375 257.25 69.414062 257.25 C 68.0625 257.25 66.976562 251.925781 66.789062 244.5 L 66.636719 237.414062 L 69.898438 241.425781 C 71.664062 243.675781 75.074219 247.835938 77.4375 250.6875 Z M 55.6875 248.773438 C 55.875 250.949219 55.726562 252.523438 55.386719 252.300781 C 55.050781 252.074219 54.789062 249.976562 54.824219 247.648438 C 54.863281 242.699219 55.238281 243.1875 55.6875 248.773438 Z M 58.6875 250.3125 C 59.136719 255.636719 58.875 256.800781 57.710938 254.960938 C 56.851562 253.574219 56.773438 245.25 57.636719 245.25 C 58.011719 245.25 58.460938 247.539062 58.6875 250.3125 Z M 61.574219 252.335938 C 61.726562 255.261719 61.5 256.875 60.898438 257.0625 C 60.261719 257.289062 60 255.789062 60 251.925781 C 60 245.363281 61.3125 245.699219 61.574219 252.335938 Z M 63.675781 253.726562 C 63.710938 254.476562 63.414062 254.886719 63 254.625 C 62.585938 254.363281 62.289062 252.75 62.324219 251.023438 C 62.4375 247.800781 63.414062 249.824219 63.675781 253.726562 Z M 57.789062 267 C 58.6875 276.074219 60.414062 284.925781 62.699219 292.386719 C 64.988281 299.925781 65.101562 299.25 58.761719 312.636719 C 54.226562 322.238281 54.414062 321.75 55.761719 321.75 C 56.324219 321.75 57.675781 319.761719 58.761719 317.324219 L 60.75 312.898438 L 63.863281 313.613281 C 65.585938 313.988281 68.363281 314.101562 70.050781 313.835938 C 73.460938 313.351562 74.363281 314.210938 81.226562 324.9375 C 84.5625 330.1875 84.789062 329.8125 77.4375 331.988281 C 63.675781 336.039062 34.761719 333.375 36.375 328.238281 C 36.523438 327.75 37.199219 325.011719 37.875 322.125 C 38.550781 319.238281 40.761719 312.414062 42.789062 306.976562 C 44.851562 301.539062 46.5 296.625 46.5 295.988281 C 46.5 295.386719 48.039062 291.976562 49.914062 288.414062 C 56.738281 275.511719 58.3125 268.648438 55.988281 262.050781 C 55.425781 260.4375 54.75 257.773438 54.488281 256.125 L 54 253.125 L 55.574219 256.875 C 56.4375 258.9375 57.414062 263.476562 57.789062 267 Z M 76.125 262.914062 C 79.425781 265.050781 85.238281 269.699219 89.023438 273.226562 C 92.8125 276.789062 96.9375 280.199219 98.210938 280.835938 C 99.488281 281.511719 100.5 282.449219 100.5 282.976562 C 100.5 283.460938 100.726562 285.113281 100.988281 286.648438 L 101.4375 289.425781 L 97.988281 288.375 C 90.375 286.085938 84 281.175781 81.074219 275.398438 C 78.976562 271.238281 72.039062 264.1875 67.800781 261.898438 C 66.300781 261.113281 66.148438 260.738281 66.898438 259.539062 C 67.988281 257.8125 68.585938 258.039062 76.125 262.914062 Z M 61.460938 259.6875 C 61.460938 260.210938 60.976562 261.449219 60.375 262.5 C 59.25 264.449219 58.914062 263.4375 59.738281 260.4375 C 60.1875 258.636719 61.5 258.074219 61.460938 259.6875 Z M 67.949219 264.9375 C 69.5625 266.699219 72.375 270 74.25 272.25 C 79.386719 278.550781 84.074219 282.976562 89.175781 286.460938 C 96.335938 291.300781 97.835938 291.710938 109.5 292.085938 C 124.125 292.539062 124.5 292.761719 124.5 301.949219 L 124.5 308.851562 L 120.976562 312.335938 C 114.601562 318.601562 110.175781 318.039062 89.476562 308.25 C 83.925781 305.625 83.0625 304.386719 81.414062 296.8125 C 80.25 291.449219 79.726562 290.4375 74.886719 284.585938 C 65.851562 273.636719 59.550781 255.710938 67.949219 264.9375 Z M 114.75 264.074219 C 118.273438 264.9375 123.335938 266.289062 126 267.074219 C 128.699219 267.863281 131.25 268.5 131.699219 268.5 C 132.863281 268.5 134.585938 270.710938 135.75 273.75 C 137.773438 279.113281 139.5 278.851562 137.664062 273.414062 C 136.164062 269.023438 136.125 269.210938 138.675781 270.074219 C 140.550781 270.75 141.113281 271.613281 142.386719 275.851562 C 144.976562 284.4375 149.511719 307.574219 150.335938 316.5 C 150.601562 319.164062 151.800781 325.425781 153 330.375 C 154.199219 335.324219 156.074219 343.050781 157.125 347.550781 C 158.210938 352.011719 160.386719 358.613281 162 362.175781 C 163.574219 365.699219 165.824219 371.738281 166.949219 375.5625 C 168.1875 379.761719 169.425781 382.5 170.023438 382.5 C 171.1875 382.5 171.300781 379.988281 170.210938 377.925781 C 169.761719 377.101562 169.050781 374.324219 168.675781 371.773438 C 168.261719 369.226562 167.101562 365.699219 166.085938 363.976562 L 164.25 360.824219 L 167.773438 359.25 L 171.300781 357.710938 L 177.636719 362.023438 C 181.125 364.425781 185.699219 366.898438 187.761719 367.574219 C 192.789062 369.1875 192.789062 369.601562 187.648438 374.0625 C 163.875 394.726562 155.664062 399.976562 151.6875 397.011719 C 147.375 393.789062 140.101562 378.449219 139.3125 370.800781 C 139.125 369.113281 138.789062 367.425781 138.5625 367.050781 C 138.335938 366.675781 137.738281 359.960938 137.289062 352.125 C 136.726562 342.9375 135.898438 335.886719 134.925781 332.25 C 134.136719 329.136719 133.164062 322.726562 132.75 318 C 131.023438 297.074219 129.5625 294.898438 108 281.585938 C 104.210938 279.261719 101.25 276.898438 101.25 276.261719 C 101.25 275.4375 102.039062 275.773438 103.949219 277.460938 C 106.648438 279.824219 118.5 285.75 120.523438 285.75 C 122.925781 285.75 120.75 283.761719 116.585938 282.148438 C 108.1875 278.925781 104.175781 276.148438 101.550781 271.800781 C 97.949219 265.875 99 265.085938 104.0625 269.960938 C 108.898438 274.613281 119.289062 279.75 123.898438 279.75 C 126.300781 279.75 123.824219 277.574219 120.5625 276.863281 C 112.835938 275.136719 101.25 267.449219 101.25 264.039062 C 101.25 262.875 103.164062 263.0625 104.210938 264.335938 C 106.125 266.625 112.351562 270 118.125 271.800781 C 125.210938 274.085938 125.25 274.085938 125.25 272.625 C 125.25 271.988281 124.875 271.5 124.425781 271.5 C 120.675781 271.5 110.476562 267.300781 107.699219 264.601562 C 104.960938 261.9375 104.851562 261.675781 106.5 262.085938 C 107.550781 262.351562 111.261719 263.25 114.75 264.074219 Z M 61.914062 271.6875 C 61.949219 281.511719 64.085938 286.539062 70.5 291.675781 C 75 295.3125 81.75 303.449219 81.75 305.289062 C 81.75 305.925781 82.949219 307.613281 84.414062 309.039062 C 85.875 310.460938 88.238281 313.726562 89.664062 316.273438 C 92.699219 321.636719 95.210938 323.664062 101.210938 325.539062 C 112.835938 329.175781 126.75 327.75 126.75 322.914062 C 126.75 320.585938 125.324219 320.4375 123.488281 322.574219 C 120.113281 326.550781 98.8125 319.011719 88.875 310.351562 C 88.085938 309.636719 94.085938 312.074219 105.675781 317.175781 C 114 320.8125 117.074219 321.074219 119.476562 318.375 C 120.375 317.324219 122.511719 315 124.199219 313.199219 C 125.851562 311.398438 127.6875 308.851562 128.25 307.539062 C 129.601562 304.199219 130.460938 305.886719 130.5 312 C 130.5 317.175781 132.300781 330.375 133.460938 334.125 C 134.550781 337.460938 136.875 364.351562 136.164062 365.0625 C 135.789062 365.476562 132.824219 362.960938 124.875 355.5 C 106.914062 338.585938 98.550781 331.164062 94.648438 328.613281 C 84.113281 321.710938 80.210938 318.414062 77.363281 313.914062 C 72.898438 306.9375 66.75 295.914062 66.75 294.9375 C 66.75 294.449219 66.074219 293.699219 65.25 293.25 C 64.425781 292.800781 63.75 292.085938 63.75 291.675781 C 63.75 291.261719 64.085938 291.113281 64.460938 291.335938 C 64.835938 291.601562 64.199219 288.9375 63.039062 285.449219 C 60.375 277.648438 59.511719 270.414062 60.710938 266.699219 C 61.914062 263.101562 61.875 262.949219 61.914062 271.6875 Z M 63.75 268.164062 C 63.75 270.863281 69.113281 280.5 73.460938 285.636719 C 77.585938 290.511719 80.25 295.386719 80.25 298.125 C 80.25 301.164062 65.511719 284.511719 64.351562 280.125 C 62.664062 273.898438 61.914062 267 62.960938 267 C 63.375 267 63.75 267.523438 63.75 268.164062 Z M 152.4375 270.414062 C 156.1875 271.875 159.636719 273.335938 160.085938 273.710938 C 160.5 274.085938 164.398438 276.113281 168.675781 278.289062 L 176.476562 282.226562 L 174.335938 283.351562 C 172.613281 284.25 171.5625 284.289062 168.789062 283.613281 C 165.074219 282.710938 159.824219 283.386719 157.875 285 C 156.1875 286.386719 153.601562 285 152.136719 281.886719 C 151.460938 280.5 150.375 278.175781 149.699219 276.75 C 149.023438 275.289062 147.636719 272.960938 146.625 271.574219 C 143.25 267 143.476562 266.960938 152.4375 270.414062 Z M 79.5 275.363281 C 79.5 275.886719 78.488281 275.136719 77.25 273.710938 C 73.6875 269.625 73.085938 267.789062 76.460938 271.273438 C 78.113281 273.039062 79.5 274.875 79.5 275.363281 Z M 143.25 269.289062 C 143.25 269.738281 144.300781 271.648438 145.613281 273.5625 C 146.925781 275.4375 148.648438 278.699219 149.4375 280.800781 C 150.226562 282.898438 151.914062 285.488281 153.1875 286.539062 L 155.476562 288.449219 L 155.023438 294.789062 C 154.761719 298.273438 153.898438 303.636719 153.148438 306.75 L 151.761719 312.375 L 150.148438 303.75 C 149.25 298.988281 148.011719 292.238281 147.414062 288.75 C 146.773438 285.226562 145.273438 279.414062 144 275.738281 C 141.449219 268.238281 141.488281 268.5 142.5 268.5 C 142.914062 268.5 143.25 268.875 143.25 269.289062 Z M 109.5 284.25 C 112.199219 285.898438 115.238281 287.925781 116.25 288.75 L 118.125 290.210938 L 112.125 290.210938 C 104.773438 290.210938 104.773438 290.210938 102.824219 284.476562 C 100.875 278.664062 100.875 278.550781 102.9375 280.011719 C 103.875 280.6875 106.835938 282.601562 109.5 284.25 Z M 185.175781 286.875 C 188.851562 288.710938 192.1875 290.25 192.636719 290.25 C 193.050781 290.25 198.414062 292.125 204.523438 294.449219 C 222.976562 301.386719 222.074219 301.164062 227.511719 300.074219 C 230.960938 299.398438 233.101562 299.324219 235.085938 299.886719 C 237.675781 300.601562 242.625 300.1875 247.273438 298.835938 C 248.664062 298.425781 248.960938 298.726562 249.414062 300.976562 C 250.164062 304.988281 249.636719 306.261719 246.898438 307.011719 C 243.449219 308.023438 237.824219 314.476562 234.5625 321.148438 C 232.011719 326.398438 231.5625 326.886719 227.925781 328.386719 C 222.9375 330.488281 223.199219 330.523438 220.949219 326.699219 C 219.898438 324.898438 217.351562 322.199219 215.25 320.699219 C 210.75 317.476562 210.675781 316.761719 213.75 308.738281 C 216.113281 302.585938 216.488281 300.375 215.25 299.625 C 214.460938 299.136719 213.414062 301.238281 212.664062 304.648438 C 212.101562 307.273438 209.398438 310.238281 207 310.875 L 205.125 311.363281 L 207.148438 309.976562 C 212.738281 306.113281 213.976562 300 209.136719 300 C 207.449219 300 206.585938 301.386719 207.675781 302.476562 C 209.101562 303.898438 208.613281 305.210938 206.0625 306.75 C 203.363281 308.398438 202.238281 308.25 197.210938 305.585938 C 194.101562 303.976562 192.9375 303.824219 185.699219 303.976562 L 177.636719 304.125 L 175.238281 301.425781 C 167.324219 292.351562 166.875 290.550781 171.9375 288.148438 C 173.699219 287.324219 175.761719 285.9375 176.550781 285.074219 C 178.3125 283.125 177.335938 282.898438 185.175781 286.875 Z M 166.875 285 C 167.136719 285.414062 168.261719 285.75 169.351562 285.75 L 171.375 285.75 L 169.125 287.550781 C 167.023438 289.238281 166.835938 289.273438 166.351562 288 C 166.085938 287.25 165.488281 286.425781 165.039062 286.164062 C 164.175781 285.601562 164.664062 284.25 165.75 284.25 C 166.125 284.25 166.613281 284.585938 166.875 285 Z M 163.539062 286.539062 C 164.363281 286.949219 165 287.925781 165 288.675781 C 165 289.425781 165.824219 291.5625 166.835938 293.4375 L 168.636719 296.886719 L 163.875 293.101562 C 159.226562 289.386719 159.148438 289.238281 160.273438 287.511719 C 161.585938 285.488281 161.625 285.488281 163.539062 286.539062 Z M 164.738281 295.835938 C 170.136719 300.226562 187.5 317.960938 187.5 319.050781 C 187.5 321.148438 192 326.210938 194.4375 326.851562 L 196.875 327.488281 L 194.4375 328.761719 C 193.085938 329.476562 192 330.300781 192 330.636719 C 192 332.0625 193.085938 332.101562 195.039062 330.710938 C 200.289062 326.960938 209.136719 324.9375 211.949219 326.8125 C 216.074219 329.585938 215.210938 345.9375 210.636719 351.9375 C 205.199219 358.988281 201.5625 362.289062 200.625 360.976562 C 199.574219 359.550781 194.925781 360.148438 193.5 361.914062 C 192.039062 363.636719 190.539062 363.226562 187.164062 360.113281 C 183.976562 357.1875 176.175781 354 172.164062 354 C 169.238281 354 169.875 355.351562 173.0625 355.949219 C 176.664062 356.585938 177.976562 357.300781 180.863281 360.113281 C 182.136719 361.351562 184.613281 363 186.375 363.75 C 189.824219 365.210938 191.363281 366.75 189.375 366.75 C 187.726562 366.75 184.6875 365.101562 178.988281 361.125 C 170.886719 355.460938 170.550781 355.351562 167.4375 357.449219 C 162.375 360.898438 161.8125 360.148438 158.289062 345 C 157.351562 341.0625 155.625 333.863281 154.425781 328.988281 C 152.101562 319.460938 151.800781 316.875 153 316.125 C 153.414062 315.863281 153.75 314.664062 153.75 313.425781 C 153.75 312.1875 154.425781 308.4375 155.210938 305.023438 C 156.039062 301.648438 156.898438 296.925781 157.164062 294.523438 L 157.613281 290.210938 L 159.335938 291.523438 C 160.3125 292.273438 162.710938 294.226562 164.738281 295.835938 Z M 252.039062 297.1875 C 253.6875 299.136719 253.875 301.648438 252.601562 303.976562 C 251.738281 305.550781 251.664062 305.511719 251.175781 303 C 250.914062 301.539062 250.425781 299.289062 250.125 297.9375 C 249.449219 295.085938 250.085938 294.824219 252.039062 297.1875 Z M 127.425781 301.273438 C 127.835938 302.738281 127.726562 304.199219 127.085938 305.664062 C 126.148438 307.761719 126.113281 307.648438 126.074219 303.074219 C 126 298.011719 126.375 297.5625 127.425781 301.273438 Z M 70.425781 305.175781 C 73.648438 310.238281 74.511719 312.9375 71.886719 309.75 C 70.238281 307.761719 65.324219 298.351562 66.601562 299.625 C 67.011719 300.039062 68.738281 302.550781 70.425781 305.175781 Z M 211.460938 303.261719 C 211.3125 307.726562 200.738281 311.925781 198 308.625 C 197.398438 307.914062 197.363281 307.5 197.851562 307.5 C 198.300781 307.5 198.863281 307.835938 199.125 308.25 C 201.226562 311.625 210.488281 306.824219 209.699219 302.773438 C 209.324219 300.863281 209.398438 300.710938 210.375 301.5 C 211.011719 302.023438 211.5 302.8125 211.460938 303.261719 Z M 70.539062 310.085938 C 71.960938 311.511719 71.175781 312 67.6875 311.960938 C 61.539062 311.851562 61.351562 311.585938 63.5625 306.113281 L 65.4375 301.386719 L 67.648438 305.363281 C 68.851562 307.574219 70.164062 309.710938 70.539062 310.085938 Z M 181.648438 307.199219 C 182.886719 307.648438 185.699219 312.5625 185.0625 313.199219 C 184.875 313.351562 183.261719 311.773438 181.5 309.636719 C 179.699219 307.539062 178.726562 306 179.289062 306.261719 C 179.886719 306.523438 180.9375 306.9375 181.648438 307.199219 Z M 195.523438 307.164062 C 195.675781 307.613281 194.550781 307.800781 192.5625 307.574219 C 189.789062 307.273438 189.601562 307.164062 191.25 306.675781 C 193.613281 306 195.1875 306.148438 195.523438 307.164062 Z M 249.039062 313.460938 C 248.585938 314.289062 245.625 316.914062 242.511719 319.3125 C 234.261719 325.539062 233.664062 325.949219 234.074219 325.125 C 234.261719 324.710938 234.9375 323.363281 235.539062 322.125 C 238.238281 316.425781 244.199219 309.636719 247.5 308.398438 C 249.675781 307.574219 250.574219 310.574219 249.039062 313.460938 Z M 197.511719 311.023438 C 201.75 313.238281 207.449219 313.164062 210 310.875 C 211.761719 309.261719 211.800781 309.414062 210.488281 313.199219 C 209.136719 316.988281 209.886719 318.863281 213.863281 321.75 C 219 325.460938 222.335938 330.636719 220.726562 332.4375 C 219.898438 333.335938 219.488281 334.914062 219.5625 336.789062 C 219.710938 340.988281 218.511719 340.460938 218.0625 336.1875 C 217.125 327 213.300781 323.210938 202.648438 321.039062 C 192.75 319.011719 188.25 316.539062 186.261719 312.039062 L 184.648438 308.398438 L 189.261719 308.773438 C 192.1875 309 195.226562 309.824219 197.511719 311.023438 Z M 93.976562 315.675781 C 98.773438 319.273438 101.585938 320.511719 112.125 323.738281 L 120.375 326.289062 L 113.175781 325.835938 C 102.449219 325.238281 95.476562 322.6875 92.699219 318.375 C 92.023438 317.324219 90.9375 315.636719 90.300781 314.625 C 88.613281 312.039062 89.4375 312.261719 93.976562 315.675781 Z M 118.351562 317.664062 C 118.125 317.886719 116.625 318.226562 115.011719 318.375 L 112.125 318.710938 L 115.125 317.699219 C 117.9375 316.761719 119.25 316.726562 118.351562 317.664062 Z M 200.175781 322.199219 C 204.976562 322.800781 204.039062 324.300781 198.375 325.164062 C 194.511719 325.761719 192.675781 324.863281 190.574219 321.488281 C 188.4375 318.039062 188.511719 317.960938 192.5625 319.949219 C 194.511719 320.886719 197.960938 321.898438 200.175781 322.199219 Z M 85.875 324.375 C 87.523438 325.648438 90.898438 328.125 93.375 329.8125 C 95.851562 331.460938 98.550781 333.488281 99.375 334.238281 C 100.199219 334.988281 104.585938 338.960938 109.125 343.050781 C 113.664062 347.136719 117.710938 350.8125 118.125 351.1875 C 118.539062 351.601562 116.773438 350.585938 114.226562 349.011719 C 111.675781 347.4375 106.125 344.289062 101.851562 342 C 93.261719 337.425781 86.8125 331.5 82.949219 324.636719 C 80.664062 320.550781 81.039062 320.511719 85.875 324.375 Z M 229.164062 331.425781 C 228.039062 333.601562 223.914062 337.5 222.75 337.5 C 219.449219 337.5 226.5 329.550781 230.101562 329.25 C 230.210938 329.25 229.800781 330.226562 229.164062 331.425781 Z M 187.351562 362.136719 C 187.800781 363.5625 183.824219 361.425781 181.875 359.210938 L 180.375 357.488281 L 183.710938 359.324219 C 185.511719 360.300781 187.164062 361.574219 187.351562 362.136719 Z M 204.074219 362.886719 C 200.664062 366.976562 198.75 368.738281 198.75 367.800781 C 198.75 367.199219 206.289062 359.25 206.851562 359.25 C 207 359.25 205.761719 360.898438 204.074219 362.886719 Z M 199.125 362.25 C 200.664062 364.726562 194.625 368.960938 192.523438 366.863281 C 191.664062 366 191.101562 365.175781 191.289062 365.0625 C 195.75 362.175781 198.449219 361.199219 199.125 362.25 Z M 199.125 362.25 "/>
</g>
</svg>
