<?xml version="1.0" encoding="UTF-8"?>
<svg xmlns="http://www.w3.org/2000/svg" xmlns:xlink="http://www.w3.org/1999/xlink" width="666pt" height="635pt" viewBox="0 0 666 635" version="1.1">
<g id="surface1">
<path style=" stroke:none;fill-rule:nonzero;fill:rgb(0%,0%,0%);fill-opacity:1;" d="M 79.125 13.878906 C 69.976562 15.90625 59.476562 21.457031 54.074219 27.082031 C 50.398438 30.984375 46.648438 37.8125 44.023438 45.390625 C 41.925781 51.464844 41.699219 53.042969 41.699219 61.144531 C 41.773438 66.320312 42.148438 71.046875 42.601562 72.246094 C 43.425781 74.199219 43.273438 74.722656 41.324219 77.199219 C 35.398438 84.625 26.476562 101.058594 22.125 112.535156 C 14.625 132.117188 11.476562 151.621094 12.226562 172.929688 C 13.800781 215.542969 31.800781 253.429688 64.125 282.3125 C 84.898438 300.84375 111 313.449219 140.25 319 C 151.648438 321.175781 174.300781 321.625 186.75 320.050781 C 226.425781 314.800781 261.75 295.292969 287.324219 264.382812 C 304.351562 243.828125 315.601562 219.445312 320.324219 192.4375 C 322.574219 179.679688 322.800781 155.375 320.773438 143.671875 C 316.050781 116.585938 306.300781 94.078125 290.550781 73.523438 C 264.300781 39.386719 226.351562 18.15625 182.925781 13.429688 C 163.199219 11.253906 130.199219 15.003906 118.050781 20.855469 C 115.800781 21.90625 115.5 21.832031 113.476562 20.480469 C 104.625 14.179688 90.074219 11.402344 79.125 13.878906 Z M 181.574219 15.003906 C 206.851562 17.480469 230.699219 25.808594 251.25 39.238281 C 278.023438 56.792969 298.5 81.851562 309.976562 111.035156 C 322.949219 144.046875 324.226562 178.480469 313.800781 212.316406 C 310.800781 221.996094 310.425781 222.820312 304.800781 234.449219 C 287.773438 269.785156 256.125 297.617188 217.425781 311.273438 L 211.5 313.375 L 211.726562 304.671875 L 211.875 296.042969 L 194.625 295.96875 L 177.375 295.96875 L 177.300781 293.34375 C 177.148438 285.390625 176.023438 278.636719 174.675781 277.363281 C 173.175781 276.011719 172.800781 274.585938 173.851562 274.585938 C 174.148438 274.585938 174.824219 274.960938 175.351562 275.488281 C 176.023438 276.160156 176.550781 276.011719 177.75 274.960938 C 180.226562 272.710938 179.476562 270.683594 175.949219 270.535156 C 175.125 270.460938 174.375 270.011719 174.375 269.484375 C 174.375 268.058594 172.949219 268.058594 172.648438 269.484375 C 172.5 270.386719 173.25 271.136719 175.050781 271.886719 C 176.550781 272.484375 177.75 273.386719 177.75 273.910156 C 177.75 274.585938 177.523438 274.585938 176.699219 273.910156 C 175.050781 272.484375 172.5 272.261719 173.023438 273.535156 C 173.25 274.136719 173.023438 274.585938 172.5 274.585938 C 171.75 274.585938 171.75 274.8125 172.425781 275.636719 C 173.023438 276.386719 173.101562 276.835938 172.5 277.210938 C 172.125 277.4375 171.75 278.414062 171.675781 279.3125 C 171.675781 280.363281 171.148438 279.613281 170.398438 277.4375 C 169.726562 275.488281 168.824219 273.609375 168.375 273.234375 C 167.550781 272.484375 152.550781 273.609375 150.75 274.511719 C 150.148438 274.886719 147.824219 280.289062 145.648438 286.664062 L 141.75 298.21875 L 141.898438 308.121094 L 142.125 318.023438 L 140.25 317.574219 C 120.898438 313.074219 109.726562 309.324219 96.898438 302.796875 C 86.101562 297.242188 86.101562 297.242188 85.875 293.117188 C 85.726562 290.265625 85.875 289.589844 86.699219 289.890625 C 87.300781 290.117188 88.199219 290.492188 88.726562 290.714844 C 89.25 290.941406 90.449219 290.492188 91.425781 289.667969 L 93.148438 288.164062 L 90.523438 287.117188 C 87.976562 285.988281 86.476562 284.566406 87.226562 283.890625 C 87.449219 283.664062 88.273438 283.890625 89.101562 284.414062 C 90.226562 285.164062 91.050781 285.164062 92.398438 284.566406 C 94.050781 283.738281 94.050781 283.664062 91.800781 283.664062 C 89.25 283.589844 86.324219 281.789062 87.226562 280.886719 C 87.523438 280.511719 88.425781 280.664062 89.25 281.1875 C 90.148438 281.714844 90.824219 281.789062 91.125 281.339844 C 91.425781 280.886719 91.125 280.363281 90.523438 280.136719 C 89.851562 279.914062 88.949219 278.710938 88.5 277.511719 C 87.976562 276.3125 87.300781 275.335938 86.925781 275.335938 C 86.550781 275.335938 86.25 275.035156 86.25 274.660156 C 86.25 274.210938 87.523438 274.0625 89.101562 274.285156 C 91.726562 274.585938 91.800781 274.585938 89.851562 273.761719 C 87.226562 272.785156 87.074219 271.285156 89.625 271.886719 C 90.675781 272.1875 91.5 272.035156 91.5 271.585938 C 91.5 271.210938 90.898438 270.835938 90.074219 270.835938 C 89.324219 270.835938 88.273438 270.308594 87.75 269.710938 C 86.476562 268.210938 88.425781 268.132812 90.449219 269.710938 C 92.023438 270.910156 93 271.136719 93 270.234375 C 93 269.933594 91.800781 268.960938 90.300781 267.984375 C 87.675781 266.257812 87.601562 266.183594 89.023438 264.683594 C 89.925781 263.632812 90.074219 263.03125 89.476562 262.808594 C 89.023438 262.65625 87.675781 261.683594 86.476562 260.632812 C 85.050781 259.433594 84.75 258.832031 85.574219 258.832031 C 86.175781 258.832031 87.074219 259.207031 87.601562 259.730469 C 88.050781 260.183594 88.726562 260.332031 89.023438 259.957031 C 89.398438 259.65625 89.324219 259.28125 88.875 259.054688 C 88.5 258.90625 87.601562 258.457031 87 258.082031 C 85.351562 257.03125 86.625 256.355469 88.5 257.332031 C 91.351562 258.832031 90.976562 257.554688 88.050781 255.753906 C 86.476562 254.855469 85.648438 253.878906 86.175781 253.730469 C 86.625 253.578125 87.523438 253.878906 88.199219 254.332031 C 88.800781 254.855469 89.476562 255.082031 89.699219 254.855469 C 90.449219 254.105469 89.25 252.828125 87.824219 252.828125 C 87.074219 252.828125 86.023438 252.304688 85.5 251.703125 C 84.976562 251.105469 84.148438 250.578125 83.625 250.578125 C 82.5 250.578125 81.601562 247.429688 82.199219 245.777344 C 82.949219 243.828125 83.699219 244.351562 84.449219 247.351562 C 85.125 250.128906 87.226562 252.15625 88.273438 251.027344 C 88.574219 250.730469 88.199219 249.980469 87.375 249.378906 C 86.175781 248.476562 86.101562 248.101562 86.925781 247.652344 C 87.601562 247.203125 87.675781 246.828125 87.074219 246.527344 C 86.023438 245.851562 85.949219 243.078125 87 243.078125 C 87.449219 243.078125 87.75 242.703125 87.75 242.328125 C 87.75 241.875 87.074219 241.574219 86.25 241.574219 C 84.523438 241.574219 83.625 239.925781 84.300781 238.125 C 84.75 237 84.898438 237 86.25 238.199219 C 87.074219 238.949219 87.976562 239.324219 88.273438 239.101562 C 88.5 238.800781 87.824219 237.898438 86.773438 237 C 84.449219 235.273438 84.148438 233.921875 86.101562 234.523438 C 87.148438 234.898438 87.148438 234.75 85.949219 233.773438 C 85.125 233.097656 84.226562 232.574219 83.851562 232.574219 C 83.550781 232.574219 83.25 232.046875 83.25 231.449219 C 83.25 230.847656 83.925781 230.324219 84.675781 230.324219 C 85.5 230.324219 86.398438 229.949219 86.625 229.574219 C 86.851562 229.121094 86.398438 228.820312 85.5 228.820312 C 84.675781 228.820312 83.773438 228.222656 83.550781 227.472656 C 83.324219 226.796875 82.800781 225.371094 82.351562 224.320312 L 81.601562 222.445312 L 80.550781 224.996094 C 79.949219 226.421875 79.648438 228.148438 79.875 228.820312 C 80.101562 229.574219 79.800781 230.546875 79.125 231.074219 C 78.074219 231.898438 78.148438 232.125 79.199219 232.949219 C 80.398438 233.773438 80.398438 234 79.050781 236.175781 C 78.300781 237.523438 77.398438 238.574219 77.101562 238.574219 C 76.800781 238.574219 76.5 239.175781 76.574219 239.851562 C 76.574219 240.976562 76.800781 240.902344 77.773438 239.476562 C 78.375 238.574219 79.199219 237.824219 79.574219 237.824219 C 80.625 237.824219 80.324219 239.777344 79.125 240.824219 C 78.523438 241.351562 78 242.101562 78 242.550781 C 78 242.925781 78.675781 242.703125 79.5 241.953125 C 81.75 239.925781 81.300781 241.652344 78.75 245.175781 C 76.648438 248.101562 76.574219 249.453125 78.601562 247.429688 C 80.25 245.777344 80.398438 247.503906 78.824219 249.679688 C 76.648438 252.753906 76.875 253.730469 79.125 250.953125 C 80.101562 249.753906 81.148438 249.003906 81.449219 249.226562 C 81.675781 249.527344 80.851562 250.804688 79.574219 252.078125 C 76.949219 254.78125 76.726562 255.230469 78.523438 254.554688 C 79.574219 254.179688 79.5 254.480469 78.148438 256.355469 C 75.898438 259.507812 75.976562 260.855469 78.375 259.28125 C 80.625 257.78125 81.074219 257.78125 80.550781 259.132812 C 80.324219 259.65625 78.976562 260.78125 77.550781 261.53125 C 76.125 262.28125 75 263.183594 75 263.484375 C 75 264.382812 75.601562 264.234375 77.625 262.882812 C 80.398438 261.082031 80.023438 263.03125 77.101562 266.109375 C 74.476562 268.882812 75.226562 269.484375 78.300781 267.007812 C 79.949219 265.734375 80.25 265.660156 80.25 266.710938 C 80.25 267.382812 79.273438 268.507812 78 269.183594 C 76.800781 269.859375 75.75 270.761719 75.75 271.058594 C 75.75 272.1875 79.050781 270.761719 80.398438 269.109375 C 81.074219 268.210938 81.824219 267.683594 82.125 267.910156 C 83.023438 268.882812 81.601562 270.535156 78.75 271.886719 C 75.824219 273.3125 75.675781 273.3125 71.175781 271.960938 C 67.875 270.910156 66.449219 270.085938 66 268.882812 C 65.25 267.007812 63.75 265.808594 63.75 267.160156 C 63.75 267.609375 62.851562 268.882812 61.800781 269.859375 C 60.074219 271.433594 59.851562 272.035156 60.300781 274.8125 L 60.824219 277.886719 L 55.351562 272.035156 C 47.25 263.332031 44.25 259.054688 44.25 256.28125 C 44.25 255.003906 44.023438 253.203125 43.800781 252.304688 C 43.351562 250.804688 43.574219 250.652344 45.824219 251.027344 C 48.601562 251.480469 52.5 250.355469 52.5 249.078125 C 52.5 248.703125 51.226562 248.328125 49.574219 248.328125 C 48 248.328125 46.273438 247.878906 45.824219 247.351562 C 44.699219 245.925781 45.601562 245.328125 47.699219 246.078125 C 48.75 246.527344 49.648438 246.527344 49.875 246.078125 C 50.324219 245.328125 49.800781 244.953125 47.023438 244.277344 C 45.898438 243.976562 45.148438 243.453125 45.375 243.078125 C 45.675781 242.550781 46.351562 242.625 47.324219 243.078125 C 48.300781 243.601562 48.75 243.601562 48.75 243.078125 C 48.75 242.703125 48.449219 242.328125 48 242.328125 C 46.5 242.328125 47.25 240.902344 48.898438 240.675781 C 49.800781 240.527344 50.625 240 50.851562 239.476562 C 51.074219 238.800781 50.398438 238.648438 48.601562 238.949219 C 46.5 239.25 45.976562 239.101562 45.226562 237.449219 C 44.398438 235.648438 44.476562 235.574219 45.976562 235.949219 C 47.324219 236.398438 47.25 236.097656 45.375 234.523438 C 42.976562 232.5 41.925781 232.421875 41.398438 234.074219 C 41.175781 234.597656 41.398438 234.824219 41.925781 234.523438 C 42.675781 234 43.125 234.972656 42.824219 236.625 C 42.75 237 43.199219 237.824219 43.800781 238.5 C 44.625 239.476562 44.699219 240.527344 44.023438 243.976562 C 43.574219 246.378906 43.050781 248.328125 42.75 248.328125 C 42.449219 248.328125 41.625 247.652344 40.875 246.828125 C 40.125 246.003906 39.226562 245.550781 38.925781 245.777344 C 37.648438 246.527344 38.25 249.152344 39.824219 249.753906 C 40.949219 250.128906 41.476562 251.027344 41.625 252.679688 C 41.773438 254.03125 41.625 255.082031 41.324219 255.082031 C 40.5 255.003906 35.101562 246.003906 30.75 237.449219 C 22.425781 221.019531 17.851562 206.988281 14.925781 188.308594 C 13.425781 179.082031 13.648438 153.949219 15.226562 144.421875 C 19.050781 122.0625 27.074219 101.582031 39.148438 83.277344 C 43.5 76.597656 43.800781 76.300781 44.476562 78.097656 C 50.925781 94.605469 63.824219 106.535156 79.5 110.359375 C 85.273438 111.785156 96.824219 111.558594 102.300781 109.984375 C 120.601562 104.582031 133.875 89.578125 136.574219 71.273438 C 138.976562 54.617188 133.351562 37.886719 121.726562 26.933594 C 119.101562 24.53125 117.300781 22.433594 117.601562 22.28125 C 118.574219 21.683594 132.898438 18.15625 139.125 16.957031 C 152.324219 14.328125 167.550781 13.65625 181.574219 15.003906 Z M 98.625 16.582031 C 102.824219 17.554688 110.324219 20.707031 111 21.757812 C 111.226562 22.132812 112.574219 22.957031 114 23.558594 C 115.425781 24.15625 116.324219 24.683594 115.949219 24.757812 C 115.125 24.757812 118.5 27.757812 119.398438 27.757812 C 119.699219 27.757812 120 28.285156 120 28.882812 C 120 29.484375 120.449219 30.007812 120.976562 30.007812 C 121.425781 30.007812 122.699219 31.285156 123.75 32.859375 C 124.800781 34.359375 126.148438 36.160156 126.75 36.761719 C 129.898438 39.835938 135.226562 54.917969 133.875 57.019531 C 133.574219 57.46875 133.800781 58.292969 134.25 58.894531 C 135.824219 60.84375 134.476562 71.722656 131.476562 81.175781 C 131.25 81.925781 130.726562 82.300781 130.351562 82.074219 C 129.898438 81.777344 129.75 82.226562 130.125 83.203125 C 130.425781 84.25 130.199219 84.925781 129.449219 85.226562 C 128.773438 85.453125 128.25 86.203125 128.25 86.800781 C 128.25 87.328125 127.425781 88.679688 126.375 89.726562 C 125.324219 90.777344 124.5 91.980469 124.5 92.355469 C 124.5 93.703125 116.773438 100.457031 113.25 102.183594 C 111.375 103.15625 109.726562 104.058594 109.5 104.28125 C 109.273438 104.507812 107.101562 105.332031 104.625 106.160156 C 102.148438 106.984375 99.824219 107.808594 99.375 108.109375 C 97.949219 109.007812 79.648438 108.484375 78.601562 107.433594 C 78.148438 106.984375 77.023438 106.535156 76.273438 106.535156 C 74.773438 106.535156 69.300781 103.832031 67.648438 102.183594 C 67.125 101.730469 66.300781 101.28125 65.925781 101.28125 C 65.550781 101.28125 64.125 100.15625 62.773438 98.804688 C 61.425781 97.53125 59.398438 95.804688 58.351562 95.128906 C 55.125 93.03125 48 82.152344 48 79.375 C 48 78.625 47.699219 78.097656 47.324219 78.398438 C 46.648438 78.773438 46.125 77.050781 45.523438 72.773438 C 45.375 72.171875 45.074219 71.273438 44.773438 70.746094 C 44.476562 70.296875 44.25 66.394531 44.25 62.121094 C 44.324219 53.941406 46.273438 44.5625 48.898438 39.914062 C 49.574219 38.636719 50.101562 37.511719 49.875 37.511719 C 49.648438 37.511719 50.023438 36.910156 50.625 36.160156 C 51.226562 35.484375 51.75 34.585938 51.675781 34.285156 C 51.675781 33.910156 52.273438 33.085938 53.101562 32.410156 C 53.851562 31.734375 54.898438 30.460938 55.351562 29.558594 C 55.800781 28.734375 58.125 26.707031 60.523438 25.058594 C 62.925781 23.480469 65.101562 21.757812 65.398438 21.382812 C 65.699219 20.929688 66 20.929688 66 21.308594 C 66 21.683594 66.601562 21.53125 67.351562 20.855469 C 69.148438 19.355469 71.851562 18.304688 77.324219 16.957031 C 85.125 15.078125 91.5 15.003906 98.625 16.582031 Z M 84.449219 254.855469 C 84.675781 256.957031 84.449219 258.082031 83.851562 258.082031 C 83.398438 258.082031 83.25 258.304688 83.476562 258.605469 C 83.773438 258.832031 83.625 259.507812 83.101562 260.105469 C 82.5 260.933594 82.574219 261.007812 83.476562 260.632812 C 85.648438 259.808594 87.148438 266.257812 85.5 269.335938 C 84.976562 270.234375 84.976562 270.910156 85.5 271.210938 C 86.699219 271.960938 86.398438 274.0625 85.199219 273.609375 C 84.226562 273.234375 84.226562 273.535156 85.199219 275.710938 C 86.25 278.261719 86.324219 283.8125 85.273438 284.113281 C 84.449219 284.414062 82.199219 283.4375 81.601562 282.539062 C 81.300781 282.089844 81.226562 281.039062 81.449219 280.289062 C 81.898438 278.9375 81.75 278.9375 79.648438 280.511719 C 78.375 281.339844 76.648438 282.089844 75.75 282.089844 C 74.773438 282.089844 74.25 282.464844 74.476562 282.988281 C 74.699219 283.589844 75.898438 283.890625 77.925781 283.738281 C 79.574219 283.664062 81 283.890625 81 284.265625 C 81 285.089844 79.125 285.839844 76.875 285.839844 C 75.898438 285.839844 74.851562 286.214844 74.550781 286.742188 C 74.175781 287.339844 74.699219 287.414062 76.351562 287.117188 C 77.625 286.816406 78.898438 286.964844 79.125 287.339844 C 79.351562 287.789062 78.898438 288.089844 78 288.089844 C 77.101562 288.089844 76.574219 288.390625 76.800781 288.691406 C 77.25 289.515625 81.601562 288.914062 82.199219 288.015625 C 83.175781 286.363281 83.851562 287.640625 84.148438 291.46875 C 84.226562 293.71875 84.226562 295.59375 84 295.59375 C 83.25 295.519531 73.5 288.390625 67.949219 283.738281 L 62.25 279.089844 L 62.25 270.160156 L 68.101562 272.261719 C 71.25 273.3125 74.324219 274.511719 74.851562 274.8125 C 75.300781 275.1875 76.125 275.1875 76.648438 274.886719 C 77.25 274.511719 77.324219 274.738281 77.023438 275.5625 C 76.648438 276.613281 76.800781 276.6875 78 275.863281 C 78.824219 275.410156 79.726562 274.363281 79.949219 273.6875 C 80.175781 272.9375 81 272.335938 81.824219 272.335938 C 82.648438 272.335938 83.101562 271.960938 82.875 271.585938 C 82.648438 271.136719 82.800781 270.835938 83.25 270.835938 C 83.699219 270.835938 83.851562 270.460938 83.625 270.085938 C 83.398438 269.636719 83.625 269.335938 84.148438 269.335938 C 84.824219 269.261719 84.75 269.035156 83.925781 268.359375 C 81.75 266.710938 81.226562 264.535156 81.449219 259.207031 C 81.601562 256.28125 81.75 253.355469 81.824219 252.605469 C 81.824219 251.78125 82.273438 251.328125 83.023438 251.480469 C 83.773438 251.628906 84.300781 252.753906 84.449219 254.855469 Z M 161.25 275.335938 C 161.25 275.710938 160.726562 276.085938 160.125 276.085938 C 159.523438 276.085938 159 275.710938 159 275.335938 C 159 274.886719 159.523438 274.585938 160.125 274.585938 C 160.726562 274.585938 161.25 274.886719 161.25 275.335938 Z M 170.625 282.613281 C 172.199219 287.117188 173.925781 291.84375 174.523438 293.265625 C 175.050781 294.691406 175.425781 295.894531 175.273438 296.042969 C 175.199219 296.117188 171.898438 296.34375 168 296.417969 C 159.75 296.570312 160.273438 297.542969 163.5 286.964844 C 164.699219 283.0625 165.898438 278.710938 166.199219 277.289062 C 166.425781 275.785156 166.949219 274.585938 167.25 274.585938 C 167.550781 274.585938 169.125 278.1875 170.625 282.613281 Z M 164.175781 278.113281 C 164.175781 279.988281 164.101562 280.0625 163.5 278.710938 C 162.601562 276.6875 162.601562 276.085938 163.5 276.085938 C 163.949219 276.085938 164.25 276.988281 164.175781 278.113281 Z M 156.226562 277.886719 C 156.976562 279.761719 155.925781 282.015625 154.648438 281.5625 C 153.601562 281.1875 153.523438 281.339844 154.351562 282.164062 C 155.324219 283.214844 155.625 285.839844 154.648438 285.839844 C 154.351562 285.839844 153.601562 284.714844 153 283.363281 C 152.476562 282.089844 151.875 280.664062 151.648438 280.363281 C 151.5 279.988281 151.800781 279.761719 152.324219 279.914062 C 155.023438 280.214844 155.476562 279.839844 154.125 278.335938 C 152.773438 276.914062 152.851562 276.835938 154.273438 276.835938 C 155.175781 276.835938 156 277.289062 156.226562 277.886719 Z M 159.75 278.710938 C 160.273438 279.761719 161.023438 280.589844 161.398438 280.589844 C 161.773438 280.589844 161.925781 280.886719 161.625 281.261719 C 161.25 281.9375 156.75 278.1875 156.75 277.210938 C 156.75 276.085938 158.925781 277.136719 159.75 278.710938 Z M 175.050781 283.363281 C 175.351562 285.765625 175.800781 288.914062 176.023438 290.339844 C 176.625 294.167969 175.125 292.292969 174.074219 287.941406 C 173.101562 283.738281 172.949219 279.089844 173.925781 279.089844 C 174.300781 279.089844 174.824219 281.039062 175.050781 283.363281 Z M 159.523438 281.488281 C 159.976562 282.015625 160.5 283.140625 160.648438 283.964844 C 160.875 284.789062 161.324219 286.140625 161.699219 286.964844 C 162.226562 288.316406 162.148438 288.316406 161.175781 287.339844 C 160.5 286.742188 159.75 285.238281 159.449219 284.113281 C 159.226562 282.988281 158.625 282.089844 158.25 282.089844 C 157.800781 282.089844 157.5 281.714844 157.5 281.339844 C 157.5 280.289062 158.699219 280.4375 159.523438 281.488281 Z M 151.5 283.214844 C 151.5 283.8125 150.976562 284.339844 150.375 284.339844 C 149.773438 284.339844 149.25 283.8125 149.25 283.214844 C 149.25 282.613281 149.773438 282.089844 150.375 282.089844 C 150.976562 282.089844 151.5 282.613281 151.5 283.214844 Z M 158.101562 283.515625 C 158.324219 284.113281 158.023438 284.414062 157.425781 284.191406 C 156.898438 284.039062 156.300781 283.4375 156.148438 282.914062 C 155.925781 282.3125 156.226562 282.015625 156.824219 282.238281 C 157.351562 282.390625 157.949219 282.988281 158.101562 283.515625 Z M 163.425781 282.613281 C 163.351562 283.8125 162.074219 286.214844 162.074219 285.316406 C 162 284.863281 161.773438 283.964844 161.550781 283.289062 C 161.25 282.464844 161.476562 282.089844 162.300781 282.089844 C 162.976562 282.089844 163.5 282.3125 163.425781 282.613281 Z M 150.148438 285.988281 C 150.675781 286.964844 150.976562 288.242188 150.898438 288.992188 C 150.75 289.667969 151.050781 290.417969 151.5 290.714844 C 151.949219 290.941406 152.101562 291.542969 151.875 291.917969 C 151.574219 292.292969 152.175781 292.515625 153.074219 292.367188 C 153.976562 292.292969 154.875 292.59375 155.023438 293.042969 C 155.324219 293.941406 151.726562 294.242188 150.375 293.492188 C 149.25 292.816406 147 292.742188 147 293.417969 C 147 293.71875 147.675781 294.242188 148.5 294.46875 C 149.324219 294.769531 149.851562 295.292969 149.550781 295.667969 C 149.324219 296.117188 148.574219 296.269531 147.898438 295.96875 C 147.300781 295.742188 146.550781 295.894531 146.25 296.269531 C 146.023438 296.71875 145.800781 295.742188 145.726562 294.09375 C 145.574219 291.316406 145.648438 291.167969 147.75 291.46875 C 149.773438 291.691406 149.925781 291.542969 149.699219 289.515625 C 149.398438 287.117188 148.800781 286.066406 148.050781 286.816406 C 147.75 287.117188 147.976562 287.789062 148.425781 288.390625 C 149.023438 289.140625 149.101562 289.589844 148.5 289.964844 C 147 290.867188 146.398438 289.589844 147.226562 286.964844 C 148.125 283.890625 148.800781 283.664062 150.148438 285.988281 Z M 153.675781 286.140625 C 154.351562 286.964844 154.351562 287.339844 153.675781 287.714844 C 152.925781 288.242188 151.574219 286.964844 151.5 285.613281 C 151.5 284.714844 152.773438 285.015625 153.675781 286.140625 Z M 159.300781 286.289062 C 160.199219 288.617188 159.75 289.140625 158.25 287.492188 C 156.449219 285.613281 156.375 285.089844 157.800781 285.089844 C 158.398438 285.089844 159.074219 285.613281 159.300781 286.289062 Z M 82.875 286.589844 C 82.648438 286.964844 81.898438 287.339844 81.300781 287.339844 C 80.699219 287.339844 80.398438 286.964844 80.625 286.589844 C 80.851562 286.140625 81.601562 285.839844 82.199219 285.839844 C 82.800781 285.839844 83.101562 286.140625 82.875 286.589844 Z M 87.300781 287.039062 C 87.601562 287.867188 87.375 288.089844 86.476562 287.941406 C 85.800781 287.789062 85.125 287.265625 84.898438 286.742188 C 84.449219 285.390625 86.773438 285.613281 87.300781 287.039062 Z M 157.351562 290.191406 C 157.5 291.917969 157.273438 293.34375 156.824219 293.34375 C 155.699219 293.34375 155.101562 291.992188 155.925781 291.46875 C 156.449219 291.167969 156.449219 290.339844 156 289.140625 C 155.023438 286.664062 155.023438 286.441406 156.226562 286.742188 C 156.675781 286.964844 157.199219 288.464844 157.351562 290.191406 Z M 154.574219 289.964844 C 154.5 291.089844 152.773438 290.867188 152.398438 289.742188 C 152.175781 289.066406 152.550781 288.765625 153.300781 288.992188 C 154.050781 289.066406 154.574219 289.515625 154.574219 289.964844 Z M 153.75 295.59375 C 153.75 295.96875 153.601562 296.34375 153.449219 296.34375 C 153.300781 296.34375 152.550781 296.570312 151.800781 296.867188 C 150.601562 297.320312 150.523438 297.242188 151.5 296.117188 C 152.773438 294.691406 153.75 294.46875 153.75 295.59375 Z M 159 308.796875 L 159 319.75 L 154.726562 319.300781 C 152.324219 319 148.949219 318.625 147.300781 318.398438 L 144.226562 317.949219 L 143.699219 313 C 143.476562 310.222656 143.25 305.871094 143.25 303.320312 L 143.25 298.667969 L 149.851562 298.367188 C 153.449219 298.292969 156.976562 298.070312 157.726562 297.992188 C 158.851562 297.84375 159 298.820312 159 308.796875 Z M 177.449219 299.042969 C 177.226562 299.71875 177 304.597656 177 309.921875 L 177 319.601562 L 160.574219 319.601562 L 160.351562 309.023438 C 160.199219 303.246094 160.273438 298.367188 160.425781 298.21875 C 160.5 298.070312 164.550781 297.917969 169.273438 297.917969 C 176.851562 297.84375 177.824219 297.992188 177.449219 299.042969 Z M 210.148438 305.496094 C 210 309.773438 209.625 313.449219 209.398438 313.75 C 208.199219 314.949219 180.375 319.976562 179.398438 319.226562 C 178.875 318.777344 178.273438 300.167969 178.726562 299.042969 C 179.175781 297.992188 181.273438 297.84375 194.773438 297.84375 L 210.375 297.84375 Z M 210.148438 305.496094 "/>
<path style=" stroke:none;fill-rule:nonzero;fill:rgb(0%,0%,0%);fill-opacity:1;" d="M 158.398438 29.410156 C 157.125 30.683594 157.273438 31.734375 159 33.609375 C 160.273438 34.960938 160.875 35.109375 162.074219 34.4375 C 164.25 33.308594 164.625 31.660156 163.125 30.007812 C 161.625 28.285156 159.75 28.058594 158.398438 29.410156 Z M 158.398438 29.410156 "/>
<path style=" stroke:none;fill-rule:nonzero;fill:rgb(0%,0%,0%);fill-opacity:1;" d="M 199.949219 34.285156 C 199.125 35.109375 199.5 36.011719 200.625 36.011719 C 201.226562 36.011719 201.75 35.710938 201.75 35.335938 C 201.75 34.359375 200.550781 33.6875 199.949219 34.285156 Z M 199.949219 34.285156 "/>
<path style=" stroke:none;fill-rule:nonzero;fill:rgb(0%,0%,0%);fill-opacity:1;" d="M 213.898438 34.660156 C 214.351562 36.011719 216 36.238281 216 34.960938 C 216 34.285156 215.476562 33.761719 214.800781 33.761719 C 214.125 33.761719 213.75 34.136719 213.898438 34.660156 Z M 213.898438 34.660156 "/>
<path style=" stroke:none;fill-rule:nonzero;fill:rgb(0%,0%,0%);fill-opacity:1;" d="M 187.351562 46.140625 C 186.375 48.390625 187.425781 50.039062 189.375 49.289062 C 191.023438 48.617188 191.550781 46.664062 190.5 45.390625 C 189.148438 43.8125 188.324219 43.964844 187.351562 46.140625 Z M 187.351562 46.140625 "/>
<path style=" stroke:none;fill-rule:nonzero;fill:rgb(0%,0%,0%);fill-opacity:1;" d="M 216.074219 49.441406 C 214.648438 50.339844 215.625 52.515625 217.351562 52.515625 C 219.300781 52.515625 219.824219 51.765625 218.925781 50.191406 C 218.101562 48.617188 217.574219 48.464844 216.074219 49.441406 Z M 216.074219 49.441406 "/>
<path style=" stroke:none;fill-rule:nonzero;fill:rgb(0%,0%,0%);fill-opacity:1;" d="M 246.601562 51.542969 C 245.101562 53.265625 245.699219 54.765625 247.875 54.765625 C 249.898438 54.765625 251.550781 52.964844 250.949219 51.390625 C 250.425781 49.890625 248.023438 49.964844 246.601562 51.542969 Z M 246.601562 51.542969 "/>
<path style=" stroke:none;fill-rule:nonzero;fill:rgb(0%,0%,0%);fill-opacity:1;" d="M 155.773438 53.042969 C 154.949219 53.792969 156.75 55.441406 157.949219 54.992188 C 159.449219 54.390625 159.226562 52.515625 157.648438 52.515625 C 156.898438 52.515625 156 52.742188 155.773438 53.042969 Z M 155.773438 53.042969 "/>
<path style=" stroke:none;fill-rule:nonzero;fill:rgb(0%,0%,0%);fill-opacity:1;" d="M 211.199219 55.292969 C 210.300781 56.191406 210.75 57.769531 211.875 57.769531 C 212.476562 57.769531 213 57.316406 213 56.71875 C 213 55.441406 211.949219 54.617188 211.199219 55.292969 Z M 211.199219 55.292969 "/>
<path style=" stroke:none;fill-rule:nonzero;fill:rgb(0%,0%,0%);fill-opacity:1;" d="M 199.273438 62.34375 C 196.949219 65.644531 200.324219 68.871094 203.625 66.472656 C 204.824219 65.570312 204.976562 65.046875 204.375 63.246094 C 203.398438 60.542969 200.851562 60.09375 199.273438 62.34375 Z M 199.273438 62.34375 "/>
<path style=" stroke:none;fill-rule:nonzero;fill:rgb(0%,0%,0%);fill-opacity:1;" d="M 181.425781 62.71875 C 180.226562 64.21875 181.351562 66.320312 183.601562 66.621094 C 185.625 66.921875 187.273438 64.144531 185.925781 62.570312 C 184.800781 61.144531 182.699219 61.21875 181.425781 62.71875 Z M 184.875 63.769531 C 185.101562 64.21875 184.800781 64.746094 184.125 64.96875 C 182.699219 65.570312 181.875 64.96875 182.625 63.84375 C 183.226562 62.792969 184.273438 62.792969 184.875 63.769531 Z M 184.875 63.769531 "/>
<path style=" stroke:none;fill-rule:nonzero;fill:rgb(0%,0%,0%);fill-opacity:1;" d="M 148.5 72.773438 C 148.5 73.148438 149.023438 73.523438 149.625 73.523438 C 150.226562 73.523438 150.75 73.148438 150.75 72.773438 C 150.75 72.324219 150.226562 72.023438 149.625 72.023438 C 149.023438 72.023438 148.5 72.324219 148.5 72.773438 Z M 148.5 72.773438 "/>
<path style=" stroke:none;fill-rule:nonzero;fill:rgb(0%,0%,0%);fill-opacity:1;" d="M 273.449219 76.300781 C 272.625 77.125 273 78.023438 274.125 78.023438 C 274.726562 78.023438 275.25 77.722656 275.25 77.347656 C 275.25 76.375 274.050781 75.699219 273.449219 76.300781 Z M 273.449219 76.300781 "/>
<path style=" stroke:none;fill-rule:nonzero;fill:rgb(0%,0%,0%);fill-opacity:1;" d="M 174.523438 77.875 C 173.476562 79 173.398438 79.449219 174.226562 80.574219 C 174.75 81.324219 175.875 81.851562 176.699219 81.625 C 178.425781 81.324219 179.101562 78.097656 177.601562 77.199219 C 176.175781 76.300781 175.875 76.375 174.523438 77.875 Z M 174.523438 77.875 "/>
<path style=" stroke:none;fill-rule:nonzero;fill:rgb(0%,0%,0%);fill-opacity:1;" d="M 224.476562 79.226562 C 223.875 80.800781 225.449219 82.375 226.574219 81.25 C 227.550781 80.273438 226.949219 78.023438 225.75 78.023438 C 225.300781 78.023438 224.773438 78.550781 224.476562 79.226562 Z M 224.476562 79.226562 "/>
<path style=" stroke:none;fill-rule:nonzero;fill:rgb(0%,0%,0%);fill-opacity:1;" d="M 248.550781 78.851562 C 247.800781 80.125 250.273438 82.300781 251.324219 81.25 C 251.851562 80.726562 252 79.824219 251.773438 79.226562 C 251.25 77.875 249.300781 77.648438 248.550781 78.851562 Z M 248.550781 78.851562 "/>
<path style=" stroke:none;fill-rule:nonzero;fill:rgb(0%,0%,0%);fill-opacity:1;" d="M 195 79.976562 C 194.175781 80.875 194.175781 81.324219 195.074219 82.226562 C 196.574219 83.652344 199.050781 82 198.300781 80.050781 C 197.699219 78.476562 196.273438 78.398438 195 79.976562 Z M 195 79.976562 "/>
<path style=" stroke:none;fill-rule:nonzero;fill:rgb(0%,0%,0%);fill-opacity:1;" d="M 283.726562 82.226562 C 283.125 83.800781 284.699219 85.375 285.824219 84.25 C 286.800781 83.277344 286.199219 81.027344 285 81.027344 C 284.550781 81.027344 284.023438 81.550781 283.726562 82.226562 Z M 283.726562 82.226562 "/>
<path style=" stroke:none;fill-rule:nonzero;fill:rgb(0%,0%,0%);fill-opacity:1;" d="M 237.300781 89.578125 C 236.625 91.378906 237.601562 93.179688 239.023438 92.878906 C 239.925781 92.730469 240.375 91.980469 240.375 90.777344 C 240.375 88.601562 237.976562 87.703125 237.300781 89.578125 Z M 237.300781 89.578125 "/>
<path style=" stroke:none;fill-rule:nonzero;fill:rgb(0%,0%,0%);fill-opacity:1;" d="M 187.949219 91.980469 C 185.550781 94.378906 187.199219 97.90625 190.574219 97.378906 C 193.199219 97.003906 194.023438 95.054688 192.523438 92.730469 C 191.023438 90.476562 189.601562 90.253906 187.949219 91.980469 Z M 187.949219 91.980469 "/>
<path style=" stroke:none;fill-rule:nonzero;fill:rgb(0%,0%,0%);fill-opacity:1;" d="M 138.449219 92.054688 C 137.625 92.878906 138 93.78125 139.125 93.78125 C 139.726562 93.78125 140.25 93.480469 140.25 93.105469 C 140.25 92.128906 139.050781 91.453125 138.449219 92.054688 Z M 138.449219 92.054688 "/>
<path style=" stroke:none;fill-rule:nonzero;fill:rgb(0%,0%,0%);fill-opacity:1;" d="M 218.023438 97.90625 C 217.425781 99.257812 218.851562 100.230469 219.898438 99.179688 C 220.726562 98.355469 220.125 96.78125 219 96.78125 C 218.699219 96.78125 218.25 97.304688 218.023438 97.90625 Z M 218.023438 97.90625 "/>
<path style=" stroke:none;fill-rule:nonzero;fill:rgb(0%,0%,0%);fill-opacity:1;" d="M 166.800781 98.582031 C 166.5 99.332031 166.648438 100.230469 167.101562 100.683594 C 167.699219 101.28125 168.074219 101.207031 168.449219 100.230469 C 168.75 99.480469 168.601562 98.582031 168.148438 98.132812 C 167.550781 97.53125 167.175781 97.605469 166.800781 98.582031 Z M 166.800781 98.582031 "/>
<path style=" stroke:none;fill-rule:nonzero;fill:rgb(0%,0%,0%);fill-opacity:1;" d="M 154.648438 100.304688 C 153.300781 102.933594 155.023438 105.03125 158.476562 105.03125 C 160.949219 105.03125 161.773438 103.382812 160.648438 100.832031 C 159.601562 98.582031 155.699219 98.28125 154.648438 100.304688 Z M 154.648438 100.304688 "/>
<path style=" stroke:none;fill-rule:nonzero;fill:rgb(0%,0%,0%);fill-opacity:1;" d="M 278.25 104.65625 C 278.25 105.257812 278.773438 105.785156 279.375 105.785156 C 279.976562 105.785156 280.5 105.257812 280.5 104.65625 C 280.5 104.058594 279.976562 103.53125 279.375 103.53125 C 278.773438 103.53125 278.25 104.058594 278.25 104.65625 Z M 278.25 104.65625 "/>
<path style=" stroke:none;fill-rule:nonzero;fill:rgb(0%,0%,0%);fill-opacity:1;" d="M 240.898438 107.433594 C 239.699219 108.632812 239.773438 109.910156 241.125 111.035156 C 242.625 112.308594 244.648438 110.660156 244.351562 108.484375 C 244.050781 106.683594 242.25 106.082031 240.898438 107.433594 Z M 240.898438 107.433594 "/>
<path style=" stroke:none;fill-rule:nonzero;fill:rgb(0%,0%,0%);fill-opacity:1;" d="M 299.25 108.035156 C 299.25 108.410156 299.773438 108.785156 300.375 108.785156 C 300.976562 108.785156 301.5 108.410156 301.5 108.035156 C 301.5 107.582031 300.976562 107.285156 300.375 107.285156 C 299.773438 107.285156 299.25 107.582031 299.25 108.035156 Z M 299.25 108.035156 "/>
<path style=" stroke:none;fill-rule:nonzero;fill:rgb(0%,0%,0%);fill-opacity:1;" d="M 226.5 115.085938 C 226.5 117.410156 228.75 118.3125 230.023438 116.585938 C 231.148438 115.011719 230.101562 113.285156 227.925781 113.285156 C 226.949219 113.285156 226.5 113.8125 226.5 115.085938 Z M 226.5 115.085938 "/>
<path style=" stroke:none;fill-rule:nonzero;fill:rgb(0%,0%,0%);fill-opacity:1;" d="M 45 116.585938 C 45 118.085938 45.375 118.539062 46.574219 118.539062 C 47.699219 118.539062 48.074219 118.164062 47.851562 116.886719 C 47.476562 114.335938 45 114.109375 45 116.585938 Z M 45 116.585938 "/>
<path style=" stroke:none;fill-rule:nonzero;fill:rgb(0%,0%,0%);fill-opacity:1;" d="M 135.226562 117.410156 C 135 118.085938 135 118.761719 135.226562 118.988281 C 135.898438 119.664062 137.25 118.539062 137.25 117.335938 C 137.25 115.910156 135.824219 115.988281 135.226562 117.410156 Z M 135.226562 117.410156 "/>
<path style=" stroke:none;fill-rule:nonzero;fill:rgb(0%,0%,0%);fill-opacity:1;" d="M 190.648438 118.613281 C 190.800781 119.0625 191.25 119.363281 191.625 119.363281 C 192 119.363281 192.449219 119.0625 192.601562 118.613281 C 192.75 118.164062 192.300781 117.785156 191.625 117.785156 C 190.949219 117.785156 190.5 118.164062 190.648438 118.613281 Z M 190.648438 118.613281 "/>
<path style=" stroke:none;fill-rule:nonzero;fill:rgb(0%,0%,0%);fill-opacity:1;" d="M 215.25 121.539062 C 215.25 122.511719 215.625 123.039062 216.226562 122.8125 C 216.675781 122.664062 217.125 122.0625 217.125 121.539062 C 217.125 121.011719 216.675781 120.414062 216.226562 120.1875 C 215.625 120.039062 215.25 120.5625 215.25 121.539062 Z M 215.25 121.539062 "/>
<path style=" stroke:none;fill-rule:nonzero;fill:rgb(0%,0%,0%);fill-opacity:1;" d="M 206.550781 125.363281 C 205.949219 126.414062 207.375 127.839844 208.425781 127.238281 C 209.25 126.714844 208.726562 124.539062 207.75 124.539062 C 207.375 124.539062 206.851562 124.914062 206.550781 125.363281 Z M 206.550781 125.363281 "/>
<path style=" stroke:none;fill-rule:nonzero;fill:rgb(0%,0%,0%);fill-opacity:1;" d="M 34.199219 127.992188 C 31.800781 130.390625 33.675781 133.242188 37.050781 132.339844 C 39.148438 131.816406 39.449219 130.617188 38.25 128.214844 C 37.273438 126.488281 35.773438 126.414062 34.199219 127.992188 Z M 34.199219 127.992188 "/>
<path style=" stroke:none;fill-rule:nonzero;fill:rgb(0%,0%,0%);fill-opacity:1;" d="M 95.625 127.539062 C 95.023438 128.589844 95.851562 129.789062 97.199219 129.789062 C 97.800781 129.789062 98.25 129.117188 98.25 128.289062 C 98.25 126.714844 96.449219 126.191406 95.625 127.539062 Z M 95.625 127.539062 "/>
<path style=" stroke:none;fill-rule:nonzero;fill:rgb(0%,0%,0%);fill-opacity:1;" d="M 221.550781 131.667969 C 220.949219 133.242188 221.773438 135.042969 223.050781 135.042969 C 224.550781 135.042969 225.226562 133.84375 224.625 132.042969 C 224.101562 130.316406 222.148438 130.015625 221.550781 131.667969 Z M 221.550781 131.667969 "/>
<path style=" stroke:none;fill-rule:nonzero;fill:rgb(0%,0%,0%);fill-opacity:1;" d="M 291.523438 132.566406 C 290.476562 133.542969 291.074219 135.71875 292.5 136.167969 C 294.523438 136.84375 295.5 136.09375 295.5 133.84375 C 295.5 132.492188 295.125 132.042969 293.773438 132.042969 C 292.800781 132.042969 291.75 132.265625 291.523438 132.566406 Z M 291.523438 132.566406 "/>
<path style=" stroke:none;fill-rule:nonzero;fill:rgb(0%,0%,0%);fill-opacity:1;" d="M 177.75 133.917969 C 177.75 134.515625 178.273438 135.042969 178.875 135.042969 C 179.476562 135.042969 180 134.515625 180 133.917969 C 180 133.316406 179.476562 132.792969 178.875 132.792969 C 178.273438 132.792969 177.75 133.316406 177.75 133.917969 Z M 177.75 133.917969 "/>
<path style=" stroke:none;fill-rule:nonzero;fill:rgb(0%,0%,0%);fill-opacity:1;" d="M 304.574219 134.890625 C 304.050781 135.941406 304.125 136.769531 304.949219 137.96875 C 306.523438 140.144531 309.300781 139.84375 309.601562 137.441406 C 310.125 133.992188 306.074219 132.042969 304.574219 134.890625 Z M 304.574219 134.890625 "/>
<path style=" stroke:none;fill-rule:nonzero;fill:rgb(0%,0%,0%);fill-opacity:1;" d="M 135 136.542969 C 135 137.519531 135.375 138.042969 135.976562 137.820312 C 136.425781 137.667969 136.875 137.066406 136.875 136.542969 C 136.875 136.019531 136.425781 135.417969 135.976562 135.191406 C 135.375 135.042969 135 135.566406 135 136.542969 Z M 135 136.542969 "/>
<path style=" stroke:none;fill-rule:nonzero;fill:rgb(0%,0%,0%);fill-opacity:1;" d="M 66.226562 137.742188 C 65.625 139.320312 67.199219 140.894531 68.324219 139.769531 C 69.300781 138.792969 68.699219 136.542969 67.5 136.542969 C 67.050781 136.542969 66.523438 137.066406 66.226562 137.742188 Z M 66.226562 137.742188 "/>
<path style=" stroke:none;fill-rule:nonzero;fill:rgb(0%,0%,0%);fill-opacity:1;" d="M 278.023438 138.492188 C 277.351562 139.242188 278.175781 140.292969 279.449219 140.292969 C 280.050781 140.292969 280.5 139.769531 280.5 139.167969 C 280.5 138.042969 278.925781 137.59375 278.023438 138.492188 Z M 278.023438 138.492188 "/>
<path style=" stroke:none;fill-rule:nonzero;fill:rgb(0%,0%,0%);fill-opacity:1;" d="M 251.398438 139.46875 C 251.699219 140.445312 252.75 140.667969 252.824219 139.769531 C 252.824219 139.46875 252.449219 139.09375 252 138.867188 C 251.476562 138.71875 251.175781 139.019531 251.398438 139.46875 Z M 251.398438 139.46875 "/>
<path style=" stroke:none;fill-rule:nonzero;fill:rgb(0%,0%,0%);fill-opacity:1;" d="M 115.050781 145.921875 C 114.75 146.597656 114.898438 147.496094 115.351562 147.945312 C 116.476562 149.070312 118.648438 148.023438 118.351562 146.519531 C 118.050781 144.796875 115.648438 144.34375 115.050781 145.921875 Z M 115.050781 145.921875 "/>
<path style=" stroke:none;fill-rule:nonzero;fill:rgb(0%,0%,0%);fill-opacity:1;" d="M 179.773438 145.246094 C 179.476562 145.546875 179.25 146.445312 179.25 147.195312 C 179.25 148.171875 179.851562 148.546875 181.574219 148.546875 C 183.523438 148.546875 183.824219 148.320312 183.601562 146.820312 C 183.375 145.171875 180.898438 144.121094 179.773438 145.246094 Z M 179.773438 145.246094 "/>
<path style=" stroke:none;fill-rule:nonzero;fill:rgb(0%,0%,0%);fill-opacity:1;" d="M 101.398438 149.746094 C 99.148438 151.324219 99.300781 153.648438 101.699219 154.546875 C 104.023438 155.449219 106.5 154.324219 106.5 152.296875 C 106.5 148.546875 104.550781 147.570312 101.398438 149.746094 Z M 101.398438 149.746094 "/>
<path style=" stroke:none;fill-rule:nonzero;fill:rgb(0%,0%,0%);fill-opacity:1;" d="M 145.199219 149.898438 C 144.976562 150.347656 145.125 150.949219 145.574219 151.171875 C 146.699219 151.921875 147.449219 150.949219 146.476562 149.972656 C 145.949219 149.445312 145.5 149.445312 145.199219 149.898438 Z M 145.199219 149.898438 "/>
<path style=" stroke:none;fill-rule:nonzero;fill:rgb(0%,0%,0%);fill-opacity:1;" d="M 199.5 163.550781 C 199.5 163.925781 200.023438 164.300781 200.625 164.300781 C 201.226562 164.300781 201.75 163.925781 201.75 163.550781 C 201.75 163.101562 201.226562 162.800781 200.625 162.800781 C 200.023438 162.800781 199.5 163.101562 199.5 163.550781 Z M 199.5 163.550781 "/>
<path style=" stroke:none;fill-rule:nonzero;fill:rgb(0%,0%,0%);fill-opacity:1;" d="M 287.25 165.425781 C 286.199219 166.703125 286.875 168.054688 288.675781 168.054688 C 290.625 168.054688 291.976562 166.328125 290.851562 165.203125 C 289.648438 164 288.375 164.078125 287.25 165.425781 Z M 287.25 165.425781 "/>
<path style=" stroke:none;fill-rule:nonzero;fill:rgb(0%,0%,0%);fill-opacity:1;" d="M 252.449219 166.253906 C 251.023438 167.679688 250.949219 168.203125 252.148438 169.402344 C 253.351562 170.605469 253.875 170.527344 255.300781 169.101562 C 256.199219 168.203125 256.273438 167.601562 255.75 166.476562 C 254.773438 164.75 253.949219 164.675781 252.449219 166.253906 Z M 252.449219 166.253906 "/>
<path style=" stroke:none;fill-rule:nonzero;fill:rgb(0%,0%,0%);fill-opacity:1;" d="M 263.023438 165.578125 C 262.125 166.402344 262.425781 167.300781 263.625 167.300781 C 264.226562 167.300781 264.75 166.777344 264.75 166.175781 C 264.75 164.976562 263.851562 164.675781 263.023438 165.578125 Z M 263.023438 165.578125 "/>
<path style=" stroke:none;fill-rule:nonzero;fill:rgb(0%,0%,0%);fill-opacity:1;" d="M 58.648438 167.453125 C 57.523438 168.578125 57.523438 171.277344 58.648438 172.40625 C 60 173.753906 61.875 173.53125 63.375 171.804688 C 64.648438 170.453125 64.648438 170.230469 63.449219 168.429688 C 62.101562 166.402344 60.074219 166.027344 58.648438 167.453125 Z M 62.101562 169.777344 C 62.25 170.679688 61.875 171.054688 60.824219 171.054688 C 59.925781 171.054688 59.25 170.605469 59.25 170.078125 C 59.25 167.753906 61.648438 167.527344 62.101562 169.777344 Z M 62.101562 169.777344 "/>
<path style=" stroke:none;fill-rule:nonzero;fill:rgb(0%,0%,0%);fill-opacity:1;" d="M 157.648438 171.128906 C 157.800781 171.578125 158.25 171.878906 158.625 171.878906 C 159 171.878906 159.449219 171.578125 159.601562 171.128906 C 159.75 170.679688 159.300781 170.304688 158.625 170.304688 C 157.949219 170.304688 157.5 170.679688 157.648438 171.128906 Z M 157.648438 171.128906 "/>
<path style=" stroke:none;fill-rule:nonzero;fill:rgb(0%,0%,0%);fill-opacity:1;" d="M 262.5 172.929688 C 261.75 173.828125 261.824219 174.128906 262.726562 174.503906 C 264 174.957031 265.5 174.355469 265.5 173.304688 C 265.5 172.179688 263.324219 171.878906 262.5 172.929688 Z M 262.5 172.929688 "/>
<path style=" stroke:none;fill-rule:nonzero;fill:rgb(0%,0%,0%);fill-opacity:1;" d="M 151.273438 173.753906 C 150.148438 174.878906 150.75 177.128906 152.101562 176.90625 C 152.773438 176.753906 153.375 176.003906 153.375 175.253906 C 153.375 173.753906 152.175781 172.929688 151.273438 173.753906 Z M 151.273438 173.753906 "/>
<path style=" stroke:none;fill-rule:nonzero;fill:rgb(0%,0%,0%);fill-opacity:1;" d="M 279 177.429688 C 279 178.03125 279.375 178.554688 279.75 178.554688 C 280.199219 178.554688 280.5 178.03125 280.5 177.429688 C 280.5 176.832031 280.199219 176.304688 279.75 176.304688 C 279.375 176.304688 279 176.832031 279 177.429688 Z M 279 177.429688 "/>
<path style=" stroke:none;fill-rule:nonzero;fill:rgb(0%,0%,0%);fill-opacity:1;" d="M 33.75 181.257812 C 33.75 183.28125 34.050781 184.484375 34.5 184.183594 C 34.949219 183.957031 35.25 184.257812 35.25 184.933594 C 35.25 185.757812 34.875 186.058594 34.199219 185.832031 C 33.601562 185.609375 32.925781 185.910156 32.699219 186.507812 C 32.476562 187.109375 32.773438 187.558594 33.375 187.558594 C 35.101562 187.558594 34.726562 189.734375 32.625 192.210938 C 30.300781 194.988281 30.148438 196.636719 32.476562 194.460938 C 34.574219 192.511719 35.25 192.359375 35.25 194.085938 C 35.25 194.761719 34.199219 196.488281 32.851562 197.835938 C 30.300781 200.464844 31.050781 201.136719 34.125 199.113281 C 35.851562 197.988281 36 197.988281 36 199.113281 C 36 199.789062 35.324219 200.914062 34.5 201.589844 C 33.449219 202.5625 33.226562 203.089844 33.898438 203.839844 C 34.5 204.589844 34.199219 205.191406 32.699219 206.390625 C 30.375 208.191406 30.601562 209.089844 33 207.816406 C 34.125 207.214844 34.875 207.140625 35.398438 207.664062 C 35.925781 208.191406 35.625 208.714844 34.574219 209.242188 C 32.550781 210.367188 32.550781 211.566406 34.5 211.042969 C 36.226562 210.589844 36.449219 211.714844 34.949219 213.066406 C 34.125 213.667969 34.050781 214.417969 34.5 215.691406 C 34.949219 216.96875 34.875 217.71875 34.125 218.320312 C 33.523438 218.84375 33.226562 219.59375 33.449219 219.96875 C 33.675781 220.34375 33.300781 221.09375 32.550781 221.695312 C 30.074219 223.496094 32.023438 223.71875 35.25 222.070312 C 38.175781 220.570312 38.324219 220.417969 36.976562 219.445312 C 36.226562 218.84375 36 218.320312 36.449219 218.320312 C 36.898438 218.320312 37.125 217.34375 36.898438 215.917969 C 36.601562 213.96875 36.75 213.667969 37.800781 214.042969 C 38.550781 214.34375 38.925781 214.265625 38.625 213.816406 C 38.324219 213.367188 38.023438 211.792969 37.875 210.214844 C 37.726562 208.714844 37.273438 207.367188 36.824219 207.214844 C 36 206.914062 36.601562 204.890625 38.023438 203.464844 C 38.851562 202.640625 39.074219 202.640625 39.449219 203.6875 C 39.75 204.4375 39.523438 205.265625 38.925781 205.640625 C 38.175781 206.089844 38.175781 206.316406 38.851562 206.316406 C 39.300781 206.316406 39.75 206.988281 39.75 207.742188 C 39.75 208.566406 40.726562 209.917969 41.925781 210.742188 C 44.550781 212.617188 45.523438 212.765625 44.175781 211.042969 C 43.273438 209.917969 43.273438 209.839844 44.476562 210.292969 C 45.148438 210.515625 45.75 210.441406 45.75 210.140625 C 45.75 209.765625 44.773438 209.089844 43.5 208.640625 C 42.226562 208.265625 41.25 207.367188 41.25 206.691406 C 41.25 205.566406 41.398438 205.566406 42.898438 206.613281 C 44.851562 207.964844 45.75 208.117188 45.75 207.066406 C 45.75 206.613281 45.226562 206.316406 44.625 206.316406 C 44.023438 206.316406 43.5 205.941406 43.5 205.488281 C 43.5 205.039062 42.523438 203.6875 41.25 202.414062 C 38.550781 199.714844 38.324219 198.210938 40.875 199.863281 C 44.324219 202.113281 44.550781 201.0625 41.25 197.6875 C 39.449219 195.886719 38.175781 194.085938 38.476562 193.859375 C 38.773438 193.5625 39.449219 193.785156 40.125 194.3125 C 42.375 196.1875 42.148438 194.386719 39.675781 191.386719 C 37.125 188.160156 37.125 186.359375 39.75 188.683594 C 40.574219 189.433594 41.476562 189.808594 41.699219 189.585938 C 42 189.359375 41.101562 188.234375 39.824219 187.183594 C 38.550781 186.058594 37.5 184.558594 37.5 183.808594 C 37.5 183.058594 37.199219 182.15625 36.75 181.933594 C 36.375 181.707031 36 180.65625 36 179.605469 C 36 178.480469 35.550781 177.804688 34.875 177.804688 C 34.050781 177.804688 33.75 178.707031 33.75 181.257812 Z M 33.75 181.257812 "/>
<path style=" stroke:none;fill-rule:nonzero;fill:rgb(0%,0%,0%);fill-opacity:1;" d="M 197.25 181.183594 C 197.25 181.78125 197.625 182.308594 198 182.308594 C 198.449219 182.308594 198.75 181.78125 198.75 181.183594 C 198.75 180.582031 198.449219 180.058594 198 180.058594 C 197.625 180.058594 197.25 180.582031 197.25 181.183594 Z M 197.25 181.183594 "/>
<path style=" stroke:none;fill-rule:nonzero;fill:rgb(0%,0%,0%);fill-opacity:1;" d="M 307.648438 188.382812 C 307.800781 188.835938 308.25 189.132812 308.625 189.132812 C 309 189.132812 309.449219 188.835938 309.601562 188.382812 C 309.75 187.933594 309.300781 187.558594 308.625 187.558594 C 307.949219 187.558594 307.5 187.933594 307.648438 188.382812 Z M 307.648438 188.382812 "/>
<path style=" stroke:none;fill-rule:nonzero;fill:rgb(0%,0%,0%);fill-opacity:1;" d="M 104.25 193.1875 C 103.273438 194.386719 103.800781 195.8125 105.375 195.8125 C 106.5 195.8125 107.175781 194.386719 106.648438 192.960938 C 106.199219 191.761719 105.375 191.835938 104.25 193.1875 Z M 104.25 193.1875 "/>
<path style=" stroke:none;fill-rule:nonzero;fill:rgb(0%,0%,0%);fill-opacity:1;" d="M 114.523438 192.511719 C 113.925781 193.109375 114.601562 194.3125 115.574219 194.3125 C 115.949219 194.3125 116.25 193.785156 116.25 193.1875 C 116.25 192.058594 115.351562 191.683594 114.523438 192.511719 Z M 114.523438 192.511719 "/>
<path style=" stroke:none;fill-rule:nonzero;fill:rgb(0%,0%,0%);fill-opacity:1;" d="M 174.898438 194.988281 C 175.199219 195.960938 176.25 196.1875 176.324219 195.285156 C 176.324219 194.988281 175.949219 194.609375 175.5 194.386719 C 174.976562 194.234375 174.675781 194.535156 174.898438 194.988281 Z M 174.898438 194.988281 "/>
<path style=" stroke:none;fill-rule:nonzero;fill:rgb(0%,0%,0%);fill-opacity:1;" d="M 117.375 199.636719 C 116.625 200.761719 117.601562 201.511719 118.574219 200.539062 C 119.101562 200.011719 119.101562 199.5625 118.648438 199.261719 C 118.199219 199.039062 117.601562 199.1875 117.375 199.636719 Z M 117.375 199.636719 "/>
<path style=" stroke:none;fill-rule:nonzero;fill:rgb(0%,0%,0%);fill-opacity:1;" d="M 57.75 201.964844 C 57.75 202.9375 57.226562 204.363281 56.625 205.113281 C 56.023438 205.941406 55.5 207.140625 55.5 207.742188 C 55.574219 208.714844 55.800781 208.640625 56.625 207.515625 C 57.75 206.089844 57.75 206.089844 57.75 207.589844 C 57.75 208.492188 57.449219 209.390625 57.074219 209.691406 C 56.398438 210.066406 54 214.34375 54 215.167969 C 54 215.316406 54.523438 215.316406 55.125 215.019531 C 55.726562 214.792969 56.25 214.941406 56.25 215.394531 C 56.25 215.769531 55.726562 216.292969 55.125 216.519531 C 53.25 217.269531 53.851562 218.394531 55.875 217.867188 C 58.351562 217.269531 58.273438 218.542969 55.726562 220.496094 C 53.699219 221.996094 53.699219 221.996094 55.351562 222.070312 C 57.523438 222.070312 57.449219 222.894531 55.050781 225.746094 C 53.101562 228.070312 53.625 228.746094 56.324219 227.246094 C 57.75 226.570312 57.824219 226.644531 57.601562 228.597656 C 57.449219 230.246094 57 230.699219 55.726562 230.546875 C 54.148438 230.324219 53.699219 230.921875 54.226562 232.347656 C 54.300781 232.648438 54.976562 232.796875 55.726562 232.722656 C 57.449219 232.421875 57.375 233.097656 55.050781 236.097656 C 53.25 238.5 53.25 238.574219 54.75 238.351562 C 55.648438 238.199219 56.699219 237.601562 57 237.074219 C 57.375 236.472656 57.898438 236.25 58.199219 236.550781 C 59.101562 237.375 56.851562 240.824219 54.601562 242.175781 C 53.476562 242.851562 52.5 243.675781 52.5 243.976562 C 52.5 245.027344 54.226562 244.652344 55.648438 243.300781 C 57.375 241.800781 57.449219 243.152344 55.800781 245.777344 C 54.675781 247.429688 54.675781 247.578125 55.800781 247.128906 C 57.226562 246.601562 57.375 247.652344 56.101562 248.929688 C 55.425781 249.605469 55.425781 249.828125 56.023438 249.828125 C 56.550781 249.828125 57.148438 249.453125 57.375 249.078125 C 57.601562 248.628906 58.273438 248.328125 58.726562 248.328125 C 59.925781 248.402344 54.675781 252.828125 53.476562 252.828125 C 52.949219 252.828125 52.5 253.503906 52.5 254.40625 C 52.5 255.605469 52.800781 255.832031 54.226562 255.378906 C 55.125 255.15625 56.324219 254.554688 56.851562 254.179688 C 57.449219 253.578125 57.75 253.730469 57.75 254.628906 C 57.75 255.230469 56.699219 256.355469 55.425781 257.03125 C 53.699219 257.855469 53.324219 258.382812 54 258.832031 C 54.675781 259.28125 54.523438 259.582031 53.324219 259.957031 C 52.5 260.183594 51.75 260.78125 51.75 261.230469 C 51.75 261.683594 52.273438 261.757812 53.101562 261.457031 C 53.773438 261.15625 54.976562 260.855469 55.726562 260.78125 C 56.476562 260.632812 57.75 259.507812 58.574219 258.230469 C 60.226562 255.457031 60.375 254.78125 59.175781 255.53125 C 58.726562 255.832031 58.5 255.457031 58.574219 254.628906 C 58.726562 253.804688 58.574219 252.753906 58.199219 252.15625 C 57.75 251.402344 57.824219 251.253906 58.351562 251.628906 C 58.875 251.929688 59.25 251.703125 59.25 251.027344 C 59.25 250.355469 59.773438 249.828125 60.375 249.828125 C 61.273438 249.828125 61.199219 249.527344 60 248.328125 C 58.875 247.203125 58.648438 246.226562 58.949219 244.425781 C 59.175781 243.078125 59.398438 241.351562 59.476562 240.601562 C 59.550781 239.925781 59.851562 239.324219 60.226562 239.324219 C 60.601562 239.324219 60.523438 238.800781 60 238.199219 C 59.25 237.300781 59.25 237.074219 60.074219 237.074219 C 60.824219 237 60.675781 236.773438 59.851562 236.25 C 58.351562 235.425781 58.050781 233.324219 59.398438 233.324219 C 60.074219 233.324219 60.074219 233.097656 59.476562 232.5 C 58.425781 231.449219 59.101562 229.421875 60.300781 230.097656 C 60.75 230.398438 60.601562 229.796875 59.925781 228.746094 C 58.351562 226.421875 58.425781 219.445312 60 219.445312 C 60.523438 219.445312 61.050781 220.195312 61.125 221.09375 C 61.199219 221.996094 60.976562 222.59375 60.675781 222.371094 C 60.300781 222.21875 60.523438 222.894531 61.125 224.019531 C 61.726562 225.144531 61.949219 226.945312 61.800781 228.070312 C 61.351562 230.171875 62.25 231.296875 65.101562 232.125 C 67.273438 232.875 67.351562 230.921875 65.101562 229.949219 C 62.25 228.597656 62.550781 227.320312 65.699219 227.847656 C 67.726562 228.148438 68.324219 228.070312 67.949219 227.472656 C 67.648438 226.945312 67.125 226.570312 66.75 226.570312 C 65.773438 226.570312 61.949219 222.894531 62.476562 222.371094 C 62.699219 222.144531 63.601562 222.296875 64.425781 222.820312 C 66.675781 224.019531 66.375 222.671875 63.824219 220.269531 C 62.625 219.070312 61.648438 217.492188 61.726562 216.742188 C 61.875 215.019531 62.175781 215.019531 64.351562 216.519531 C 66.523438 218.019531 66.449219 217.34375 64.125 214.867188 C 62.25 212.84375 61.273438 209.539062 63.148438 211.417969 C 63.675781 211.941406 64.574219 212.316406 65.175781 212.316406 C 65.925781 212.316406 65.476562 211.417969 63.824219 209.839844 C 62.550781 208.414062 61.5 206.988281 61.574219 206.613281 C 61.800781 205.941406 58.648438 200.3125 58.050781 200.3125 C 57.898438 200.3125 57.75 201.0625 57.75 201.964844 Z M 60.148438 211.566406 C 60.226562 212.617188 60.75 213.667969 61.125 213.96875 C 61.574219 214.265625 61.273438 214.566406 60.523438 214.566406 C 59.773438 214.566406 59.023438 215.09375 58.800781 215.691406 C 58.5 216.292969 58.050781 216.59375 57.675781 216.367188 C 56.550781 215.691406 56.925781 214.566406 58.199219 214.566406 C 58.800781 214.566406 59.101562 214.191406 58.875 213.816406 C 58.648438 213.367188 58.875 213.066406 59.398438 212.992188 C 60.074219 212.992188 60.074219 212.84375 59.550781 212.617188 C 59.023438 212.390625 58.800781 211.566406 59.023438 210.742188 C 59.550781 208.941406 59.773438 209.089844 60.148438 211.566406 Z M 60.148438 211.566406 "/>
<path style=" stroke:none;fill-rule:nonzero;fill:rgb(0%,0%,0%);fill-opacity:1;" d="M 267.449219 201.589844 C 266.625 202.414062 267 203.3125 268.125 203.3125 C 268.726562 203.3125 269.25 203.015625 269.25 202.640625 C 269.25 201.664062 268.050781 200.988281 267.449219 201.589844 Z M 267.449219 201.589844 "/>
<path style=" stroke:none;fill-rule:nonzero;fill:rgb(0%,0%,0%);fill-opacity:1;" d="M 132.75 204.4375 C 132.75 205.039062 133.425781 205.566406 134.25 205.566406 C 135.074219 205.566406 135.75 205.039062 135.75 204.4375 C 135.75 203.839844 135.074219 203.3125 134.25 203.3125 C 133.425781 203.3125 132.75 203.839844 132.75 204.4375 Z M 132.75 204.4375 "/>
<path style=" stroke:none;fill-rule:nonzero;fill:rgb(0%,0%,0%);fill-opacity:1;" d="M 249.226562 203.839844 C 248.101562 204.214844 247.949219 206.765625 248.925781 207.367188 C 250.125 208.117188 252 206.988281 252 205.566406 C 252 204.140625 250.726562 203.3125 249.226562 203.839844 Z M 249.226562 203.839844 "/>
<path style=" stroke:none;fill-rule:nonzero;fill:rgb(0%,0%,0%);fill-opacity:1;" d="M 269.625 210.742188 C 269.175781 211.566406 270.300781 212.46875 271.050781 211.792969 C 271.726562 211.117188 271.574219 210.066406 270.824219 210.066406 C 270.375 210.066406 269.925781 210.367188 269.625 210.742188 Z M 269.625 210.742188 "/>
<path style=" stroke:none;fill-rule:nonzero;fill:rgb(0%,0%,0%);fill-opacity:1;" d="M 39.375 212.167969 C 39.148438 212.84375 39.148438 213.140625 39.449219 212.917969 C 40.125 212.167969 42.226562 214.417969 41.625 215.316406 C 41.398438 215.769531 41.699219 215.84375 42.375 215.617188 C 43.351562 215.242188 43.425781 215.46875 42.75 217.269531 C 42.148438 218.695312 42.148438 219.519531 42.675781 219.667969 C 43.199219 219.820312 43.199219 220.570312 42.675781 221.769531 C 41.851562 224.171875 41.773438 227.320312 42.675781 227.320312 C 43.648438 227.320312 44.25 230.324219 43.273438 230.324219 C 42.074219 230.398438 47.324219 233.25 48.601562 233.324219 C 49.273438 233.324219 49.425781 232.796875 49.125 231.746094 C 48.75 230.699219 48.898438 230.324219 49.351562 230.621094 C 49.800781 230.847656 50.324219 230.773438 50.625 230.324219 C 50.851562 229.949219 50.398438 229.574219 49.648438 229.574219 C 48.824219 229.574219 47.773438 229.046875 47.25 228.445312 C 46.726562 227.847656 45.824219 227.320312 45.300781 227.320312 C 44.699219 227.320312 44.25 226.945312 44.25 226.496094 C 44.25 225.894531 45.375 225.820312 47.699219 226.195312 C 50.101562 226.496094 51 226.421875 50.625 225.894531 C 50.398438 225.445312 49.574219 225.070312 48.898438 225.070312 C 47.550781 225.070312 45 222.59375 45 221.320312 C 45 220.792969 45.523438 220.792969 46.574219 221.320312 C 47.398438 221.84375 48.300781 221.996094 48.523438 221.769531 C 49.273438 221.019531 47.925781 219.894531 45.75 219.445312 C 44.476562 219.144531 43.5 218.617188 43.5 218.167969 C 43.5 217.71875 44.175781 217.570312 45.074219 217.792969 C 46.125 218.09375 46.5 217.945312 46.273438 217.195312 C 45.976562 216.519531 46.351562 216.367188 47.324219 216.59375 C 48.074219 216.816406 48.75 216.59375 48.75 216.144531 C 48.75 215.691406 48.300781 215.316406 47.699219 215.316406 C 47.101562 215.316406 46.5 215.09375 46.351562 214.71875 C 46.273438 214.417969 44.699219 213.441406 42.976562 212.617188 C 40.199219 211.191406 39.824219 211.117188 39.375 212.167969 Z M 44.550781 225.144531 C 43.800781 226.347656 42.75 225.820312 42.75 224.246094 C 42.75 222.894531 42.898438 222.820312 43.875 223.570312 C 44.476562 224.09375 44.773438 224.769531 44.550781 225.144531 Z M 44.550781 225.144531 "/>
<path style=" stroke:none;fill-rule:nonzero;fill:rgb(0%,0%,0%);fill-opacity:1;" d="M 229.875 212.316406 C 229.273438 213.367188 230.101562 214.566406 231.449219 214.566406 C 232.050781 214.566406 232.5 213.890625 232.5 213.066406 C 232.5 211.492188 230.699219 210.964844 229.875 212.316406 Z M 229.875 212.316406 "/>
<path style=" stroke:none;fill-rule:nonzero;fill:rgb(0%,0%,0%);fill-opacity:1;" d="M 219.75 217.195312 C 219.75 217.867188 220.125 218.320312 220.574219 218.167969 C 221.023438 218.019531 221.398438 217.570312 221.398438 217.195312 C 221.398438 216.816406 221.023438 216.367188 220.574219 216.21875 C 220.125 216.066406 219.75 216.519531 219.75 217.195312 Z M 219.75 217.195312 "/>
<path style=" stroke:none;fill-rule:nonzero;fill:rgb(0%,0%,0%);fill-opacity:1;" d="M 63.675781 218.394531 C 64.648438 219.21875 65.625 219.667969 65.851562 219.445312 C 66.375 218.992188 63.675781 216.894531 62.625 216.894531 C 62.25 216.894531 62.699219 217.570312 63.675781 218.394531 Z M 63.675781 218.394531 "/>
<path style=" stroke:none;fill-rule:nonzero;fill:rgb(0%,0%,0%);fill-opacity:1;" d="M 176.25 218.320312 C 176.25 218.695312 176.699219 219.070312 177.300781 219.070312 C 177.898438 219.070312 178.648438 218.695312 178.875 218.320312 C 179.101562 217.867188 178.648438 217.570312 177.824219 217.570312 C 176.925781 217.570312 176.25 217.867188 176.25 218.320312 Z M 176.25 218.320312 "/>
<path style=" stroke:none;fill-rule:nonzero;fill:rgb(0%,0%,0%);fill-opacity:1;" d="M 38.398438 222.21875 C 38.773438 223.34375 40.5 223.945312 40.5 222.96875 C 40.5 222.59375 39.976562 221.996094 39.300781 221.769531 C 38.550781 221.46875 38.25 221.695312 38.398438 222.21875 Z M 38.398438 222.21875 "/>
<path style=" stroke:none;fill-rule:nonzero;fill:rgb(0%,0%,0%);fill-opacity:1;" d="M 34.199219 224.996094 C 32.101562 226.347656 31.574219 227.023438 32.476562 227.171875 C 33.148438 227.320312 34.351562 227.023438 35.175781 226.644531 C 36.074219 226.121094 36.824219 226.121094 37.050781 226.496094 C 37.574219 227.320312 35.550781 229.574219 34.273438 229.574219 C 33.675781 229.574219 33.75 229.871094 34.351562 230.472656 C 35.023438 231.148438 35.476562 231.148438 36.148438 230.472656 C 37.273438 229.347656 38.25 229.273438 38.25 230.324219 C 38.25 230.773438 37.050781 231.671875 35.625 232.347656 C 34.199219 233.023438 33 233.847656 33 234.222656 C 33 235.125 36.601562 234.972656 37.125 234.074219 C 37.351562 233.625 38.101562 233.324219 38.773438 233.324219 C 39.824219 233.324219 39.824219 233.472656 38.699219 234.75 C 37.949219 235.574219 36.375 236.625 35.175781 237.074219 C 32.476562 238.199219 32.25 239.550781 34.949219 238.574219 C 38.175781 237.300781 38.699219 237.75 36.375 239.699219 C 33.898438 241.726562 35.101562 242.328125 38.550781 240.75 C 40.050781 240.074219 40.273438 239.550781 39.75 238.273438 C 39.449219 237.300781 39.449219 236.097656 39.824219 235.347656 C 40.351562 234.523438 40.273438 233.546875 39.75 232.574219 C 39.148438 231.449219 39.148438 231.074219 39.824219 231.074219 C 40.425781 231.074219 40.351562 230.621094 39.601562 229.722656 C 38.925781 229.046875 38.398438 227.472656 38.398438 226.347656 C 38.476562 223.121094 37.425781 222.820312 34.199219 224.996094 Z M 34.199219 224.996094 "/>
<path style=" stroke:none;fill-rule:nonzero;fill:rgb(0%,0%,0%);fill-opacity:1;" d="M 182.25 228.820312 C 182.25 229.722656 182.773438 230.324219 183.601562 230.324219 C 184.574219 230.324219 184.648438 230.171875 183.824219 229.648438 C 183.300781 229.273438 183.074219 228.597656 183.300781 228.148438 C 183.601562 227.695312 183.449219 227.320312 183.074219 227.320312 C 182.625 227.320312 182.25 227.996094 182.25 228.820312 Z M 182.25 228.820312 "/>
<path style=" stroke:none;fill-rule:nonzero;fill:rgb(0%,0%,0%);fill-opacity:1;" d="M 176.398438 228.898438 C 176.550781 229.347656 177 229.648438 177.375 229.648438 C 177.75 229.648438 178.199219 229.347656 178.351562 228.898438 C 178.5 228.445312 178.050781 228.070312 177.375 228.070312 C 176.699219 228.070312 176.25 228.445312 176.398438 228.898438 Z M 176.398438 228.898438 "/>
<path style=" stroke:none;fill-rule:nonzero;fill:rgb(0%,0%,0%);fill-opacity:1;" d="M 188.773438 228.597656 C 188.023438 229.273438 188.101562 230.324219 188.925781 230.324219 C 189.300781 230.324219 189.75 229.796875 190.050781 229.195312 C 190.425781 228.070312 189.675781 227.695312 188.773438 228.597656 Z M 188.773438 228.597656 "/>
<path style=" stroke:none;fill-rule:nonzero;fill:rgb(0%,0%,0%);fill-opacity:1;" d="M 62.398438 234.449219 C 62.476562 235.5 62.925781 236.324219 63.300781 236.324219 C 63.75 236.324219 64.949219 237.226562 66.074219 238.273438 C 67.273438 239.402344 68.699219 240.074219 69.523438 239.851562 C 70.648438 239.625 70.5 239.402344 68.851562 238.726562 C 66.898438 237.898438 66.074219 236.097656 67.351562 235.347656 C 67.648438 235.199219 67.5 235.125 67.050781 235.273438 C 66.523438 235.347656 65.476562 234.824219 64.648438 234 C 62.550781 232.125 62.25 232.199219 62.398438 234.449219 Z M 62.398438 234.449219 "/>
<path style=" stroke:none;fill-rule:nonzero;fill:rgb(0%,0%,0%);fill-opacity:1;" d="M 184.125 233.546875 C 183.226562 234.296875 183 234.75 183.675781 235.125 C 184.125 235.425781 185.023438 235.199219 185.625 234.523438 C 187.648438 232.5 186.601562 231.824219 184.125 233.546875 Z M 184.125 233.546875 "/>
<path style=" stroke:none;fill-rule:nonzero;fill:rgb(0%,0%,0%);fill-opacity:1;" d="M 178.949219 233.921875 C 178.800781 234.222656 179.25 234.597656 180.074219 234.597656 C 180.824219 234.675781 181.5 234.449219 181.5 234 C 181.5 233.171875 179.476562 233.097656 178.949219 233.921875 Z M 178.949219 233.921875 "/>
<path style=" stroke:none;fill-rule:nonzero;fill:rgb(0%,0%,0%);fill-opacity:1;" d="M 181.726562 236.550781 C 182.023438 237.300781 182.25 238.273438 182.25 238.648438 C 182.25 239.476562 185.925781 238.726562 187.351562 237.601562 C 188.773438 236.472656 187.875 236.097656 186 237.074219 C 184.648438 237.824219 184.125 237.675781 182.773438 236.550781 C 181.273438 235.273438 181.273438 235.273438 181.726562 236.550781 Z M 181.726562 236.550781 "/>
<path style=" stroke:none;fill-rule:nonzero;fill:rgb(0%,0%,0%);fill-opacity:1;" d="M 175.800781 237.148438 C 175.648438 237.449219 175.800781 237.898438 176.175781 238.125 C 176.550781 238.425781 177.148438 238.199219 177.449219 237.75 C 177.75 237.226562 178.351562 237.824219 179.023438 239.324219 C 179.550781 240.675781 180.226562 241.574219 180.523438 241.277344 C 180.824219 241.050781 180.601562 240.375 180.148438 239.925781 C 179.625 239.402344 179.25 238.425781 179.25 237.75 C 179.25 236.398438 176.550781 236.023438 175.800781 237.148438 Z M 175.800781 237.148438 "/>
<path style=" stroke:none;fill-rule:nonzero;fill:rgb(0%,0%,0%);fill-opacity:1;" d="M 62.699219 238.351562 C 61.875 239.175781 62.25 240.152344 63.226562 239.925781 C 63.75 239.777344 64.125 240 64.125 240.449219 C 64.125 240.824219 63.976562 241.125 63.75 241.050781 C 62.925781 240.824219 63.074219 244.125 63.898438 245.101562 C 64.5 245.851562 64.425781 246.078125 63.75 246.078125 C 62.398438 246.078125 66.601562 249.605469 68.550781 250.128906 C 69.75 250.429688 69.601562 250.128906 67.875 248.703125 C 66.601562 247.652344 66.226562 247.054688 66.976562 247.277344 C 69 248.027344 68.476562 246.753906 65.851562 244.503906 C 64.125 243 63.75 242.402344 64.574219 242.328125 C 65.25 242.328125 66.226562 242.851562 66.75 243.453125 C 67.273438 244.050781 68.101562 244.578125 68.550781 244.578125 C 69 244.578125 68.851562 244.125 68.175781 243.601562 C 67.5 243.078125 67.125 242.328125 67.199219 241.953125 C 67.351562 241.5 67.199219 240.824219 66.898438 240.449219 C 66.074219 239.25 63.226562 237.898438 62.699219 238.351562 Z M 62.699219 238.351562 "/>
<path style=" stroke:none;fill-rule:nonzero;fill:rgb(0%,0%,0%);fill-opacity:1;" d="M 174.75 239.324219 C 174.75 239.699219 175.125 240.074219 175.574219 240.074219 C 175.949219 240.074219 176.101562 240.375 175.875 240.824219 C 175.648438 241.199219 175.800781 242.175781 176.175781 242.851562 C 176.851562 244.050781 176.925781 244.050781 177 242.925781 C 177 242.25 177.375 241.574219 177.824219 241.425781 C 178.351562 241.277344 177.824219 240.527344 176.699219 239.851562 C 175.648438 239.101562 174.75 238.875 174.75 239.324219 Z M 174.75 239.324219 "/>
<path style=" stroke:none;fill-rule:nonzero;fill:rgb(0%,0%,0%);fill-opacity:1;" d="M 38.101562 243.078125 C 36.449219 244.503906 36 245.328125 36.824219 245.328125 C 37.425781 245.328125 38.398438 244.878906 38.851562 244.425781 C 39.601562 243.675781 39.898438 243.675781 40.425781 244.425781 C 40.800781 245.101562 41.023438 244.578125 41.101562 243.152344 C 41.101562 241.875 41.023438 240.824219 40.800781 240.824219 C 40.648438 240.824219 39.449219 241.800781 38.101562 243.078125 Z M 38.101562 243.078125 "/>
<path style=" stroke:none;fill-rule:nonzero;fill:rgb(0%,0%,0%);fill-opacity:1;" d="M 172.949219 242.851562 C 172.273438 243.601562 172.425781 244.726562 173.175781 244.277344 C 173.550781 243.976562 174 244.277344 174.226562 244.726562 C 174.375 245.253906 174.824219 245.476562 175.125 245.175781 C 175.425781 244.878906 175.199219 244.125 174.523438 243.527344 C 173.925781 242.925781 173.25 242.625 172.949219 242.851562 Z M 172.949219 242.851562 "/>
<path style=" stroke:none;fill-rule:nonzero;fill:rgb(0%,0%,0%);fill-opacity:1;" d="M 179.324219 246.828125 C 178.949219 248.027344 178.050781 249.078125 177.449219 249.078125 C 176.023438 249.078125 175.875 251.027344 177.226562 251.554688 C 177.898438 251.78125 177.898438 252.230469 177.148438 253.503906 C 176.625 254.40625 176.550781 255.082031 177 255.082031 C 177.375 255.082031 177.75 255.53125 177.75 255.980469 C 177.75 257.179688 181.425781 260.707031 181.949219 260.105469 C 182.25 259.882812 181.425781 258.832031 180.300781 257.707031 C 179.023438 256.65625 178.648438 255.980469 179.476562 256.28125 C 180.148438 256.503906 180.75 256.355469 180.75 255.90625 C 180.75 255.457031 180 255.082031 179.101562 255.082031 C 177.601562 255.082031 177.601562 255.003906 178.800781 253.65625 C 180.074219 252.304688 180.074219 252.15625 178.726562 251.480469 C 177.601562 250.804688 177.523438 250.503906 178.351562 249.679688 C 179.175781 248.851562 179.476562 248.929688 180.074219 249.828125 C 180.675781 250.730469 180.75 250.578125 180.375 249.378906 C 180.148438 248.402344 180.449219 247.429688 181.125 246.828125 C 182.550781 245.628906 182.550781 244.578125 181.199219 244.578125 C 180.601562 244.578125 179.773438 245.550781 179.324219 246.828125 Z M 179.324219 246.828125 "/>
<path style=" stroke:none;fill-rule:nonzero;fill:rgb(0%,0%,0%);fill-opacity:1;" d="M 173.25 246.601562 C 173.25 247.652344 174.675781 249.453125 175.125 249.003906 C 175.726562 248.402344 174.75 246.078125 173.925781 246.078125 C 173.550781 246.078125 173.25 246.300781 173.25 246.601562 Z M 173.25 246.601562 "/>
<path style=" stroke:none;fill-rule:nonzero;fill:rgb(0%,0%,0%);fill-opacity:1;" d="M 63 249.828125 C 63 250.277344 63.300781 250.503906 63.675781 250.277344 C 64.050781 250.054688 64.5 250.578125 64.800781 251.554688 C 65.398438 253.878906 65.324219 254.480469 64.574219 253.953125 C 64.125 253.730469 63.976562 254.480469 64.125 255.605469 C 64.273438 256.804688 64.425781 258.304688 64.425781 258.980469 C 64.5 259.730469 65.101562 260.332031 65.851562 260.332031 C 66.898438 260.332031 66.976562 260.480469 66 261.082031 C 65.101562 261.605469 65.175781 262.058594 66.75 263.632812 C 68.175781 265.207031 68.324219 265.582031 67.273438 265.582031 C 65.625 265.582031 65.625 266.785156 67.273438 267.382812 C 68.398438 267.835938 68.398438 268.058594 67.5 268.585938 C 66.675781 269.109375 66.898438 269.335938 68.398438 269.710938 C 69.523438 270.011719 71.023438 270.085938 71.773438 269.859375 C 72.898438 269.636719 72.75 269.410156 71.101562 268.734375 C 68.175781 267.535156 68.476562 267.085938 71.773438 267.609375 C 73.726562 267.910156 74.324219 267.835938 73.949219 267.234375 C 73.648438 266.710938 72.449219 266.332031 71.175781 266.332031 C 69.976562 266.332031 69 266.035156 69 265.660156 C 69 265.285156 68.773438 264.382812 68.476562 263.707031 C 68.101562 262.582031 68.25 262.507812 69.601562 263.257812 C 71.476562 264.234375 73.726562 264.382812 73.199219 263.40625 C 72.976562 263.03125 71.476562 262.507812 69.976562 262.207031 C 68.398438 261.90625 67.574219 261.457031 68.101562 261.308594 C 68.699219 261.082031 68.476562 260.480469 67.351562 259.507812 L 65.625 258.082031 L 68.101562 258.53125 C 71.101562 259.132812 71.25 258.230469 68.25 257.257812 C 67.050781 256.804688 66 255.980469 66 255.378906 C 66 254.628906 66.675781 254.78125 68.625 255.980469 C 70.125 256.804688 71.476562 257.332031 71.699219 257.105469 C 71.925781 256.957031 70.800781 255.980469 69.226562 255.003906 L 66.375 253.28125 L 68.625 252.828125 C 70.574219 252.378906 70.726562 252.230469 69.375 251.78125 C 68.023438 251.253906 65.25 250.054688 63.601562 249.226562 C 63.226562 249.078125 63 249.304688 63 249.828125 Z M 63 249.828125 "/>
<path style=" stroke:none;fill-rule:nonzero;fill:rgb(0%,0%,0%);fill-opacity:1;" d="M 173.25 251.253906 C 173.25 252.453125 175.273438 254.554688 175.726562 253.804688 C 175.875 253.429688 175.425781 252.53125 174.675781 251.78125 C 173.773438 250.878906 173.25 250.652344 173.25 251.253906 Z M 173.25 251.253906 "/>
<path style=" stroke:none;fill-rule:nonzero;fill:rgb(0%,0%,0%);fill-opacity:1;" d="M 174.300781 258.90625 C 174 259.433594 174.375 260.105469 175.050781 260.480469 C 176.773438 261.457031 176.550781 262.808594 174.75 262.207031 C 173.925781 261.90625 173.25 262.058594 173.25 262.507812 C 173.25 263.40625 174.75 263.558594 176.625 262.882812 C 177.675781 262.433594 177.675781 262.28125 176.550781 261.007812 C 175.125 259.433594 176.101562 258.980469 177.601562 260.480469 C 178.125 261.007812 178.5 261.082031 178.5 260.632812 C 178.5 258.605469 175.351562 257.332031 174.300781 258.90625 Z M 174.300781 258.90625 "/>
<path style=" stroke:none;fill-rule:nonzero;fill:rgb(0%,0%,0%);fill-opacity:1;" d="M 56.625 262.207031 C 55.800781 263.183594 55.050781 263.859375 54.824219 263.632812 C 54.675781 263.484375 54.074219 263.707031 53.550781 264.15625 C 52.050781 265.359375 53.101562 266.484375 54.824219 265.582031 C 55.800781 265.058594 56.25 265.058594 56.25 265.582031 C 56.25 265.957031 55.949219 266.332031 55.5 266.332031 C 55.125 266.332031 54.75 266.859375 54.75 267.460938 C 54.75 268.058594 55.125 268.585938 55.5 268.585938 C 55.949219 268.585938 56.25 269.109375 56.25 269.710938 C 56.25 271.136719 56.925781 271.136719 60.074219 269.558594 C 61.726562 268.734375 62.175781 268.210938 61.5 267.984375 C 60.449219 267.609375 57 264.382812 57 263.78125 C 57 263.632812 57.675781 263.332031 58.5 263.109375 C 59.476562 262.882812 59.851562 262.359375 59.550781 261.53125 C 58.949219 259.957031 58.425781 260.03125 56.625 262.207031 Z M 56.625 262.207031 "/>
<path style=" stroke:none;fill-rule:nonzero;fill:rgb(0%,0%,0%);fill-opacity:1;" d="M 178.949219 260.933594 C 178.726562 261.382812 178.726562 262.207031 178.949219 262.882812 C 179.398438 264.007812 177.898438 264.535156 175.050781 264.15625 C 174.074219 264.082031 172.949219 266.257812 173.625 266.933594 C 173.851562 267.160156 174 266.933594 174 266.484375 C 174 265.957031 174.523438 265.582031 175.199219 265.582031 C 176.25 265.582031 176.324219 265.734375 175.425781 266.859375 C 174.523438 267.910156 174.523438 268.058594 175.5 267.683594 C 176.101562 267.460938 176.550781 266.785156 176.550781 266.109375 C 176.476562 265.433594 177.226562 264.832031 178.273438 264.609375 C 179.625 264.382812 180 264.535156 179.699219 265.285156 C 179.476562 265.882812 179.625 266.332031 180 266.332031 C 181.273438 266.332031 181.5 264.984375 180.449219 262.582031 C 179.925781 261.230469 179.25 260.480469 178.949219 260.933594 Z M 178.949219 260.933594 "/>
<path style=" stroke:none;fill-rule:nonzero;fill:rgb(0%,0%,0%);fill-opacity:1;" d="M 178.125 267.910156 C 177.375 269.035156 178.351562 269.785156 179.324219 268.808594 C 179.851562 268.285156 179.851562 267.835938 179.398438 267.535156 C 178.949219 267.308594 178.351562 267.460938 178.125 267.910156 Z M 178.125 267.910156 "/>
<path style=" stroke:none;fill-rule:nonzero;fill:rgb(0%,0%,0%);fill-opacity:1;" d="M 80.25 276.011719 C 80.25 276.460938 79.726562 276.835938 79.125 276.835938 C 77.699219 276.835938 74.25 278.414062 74.25 279.089844 C 74.25 279.539062 76.800781 279.613281 79.726562 279.164062 C 80.023438 279.089844 80.25 278.636719 80.25 278.039062 C 80.25 277.4375 80.625 276.835938 81.148438 276.6875 C 81.824219 276.460938 81.824219 276.238281 81.148438 275.785156 C 80.625 275.488281 80.25 275.636719 80.25 276.011719 Z M 80.25 276.011719 "/>
<path style=" stroke:none;fill-rule:nonzero;fill:rgb(0%,0%,0%);fill-opacity:1;" d="M 165.75 290.714844 C 165.75 291.765625 166.125 292.59375 166.5 292.59375 C 166.949219 292.59375 167.25 292.292969 167.25 291.917969 C 167.25 291.542969 167.476562 290.714844 167.699219 290.042969 C 168 289.214844 167.773438 288.839844 166.949219 288.839844 C 166.199219 288.839844 165.75 289.515625 165.75 290.714844 Z M 165.75 290.714844 "/>
<path style=" stroke:none;fill-rule:nonzero;fill:rgb(0%,0%,0%);fill-opacity:1;" d="M 169.5 291.46875 C 169.5 292.140625 168.976562 292.816406 168.375 293.042969 C 167.773438 293.34375 167.25 293.792969 167.25 294.09375 C 167.25 294.84375 171 293.941406 171 293.117188 C 171.074219 290.867188 170.925781 290.339844 170.25 290.339844 C 169.875 290.339844 169.5 290.867188 169.5 291.46875 Z M 169.5 291.46875 "/>
<path style=" stroke:none;fill-rule:nonzero;fill:rgb(0%,0%,0%);fill-opacity:1;" d="M 146.101562 303.171875 C 144.675781 303.996094 144.226562 307.597656 145.5 307.597656 C 145.949219 307.597656 146.25 306.921875 146.25 306.171875 C 146.25 305.347656 146.925781 304.445312 147.75 304.222656 C 148.574219 303.921875 149.101562 303.394531 148.875 303.019531 C 148.273438 302.195312 147.75 302.195312 146.101562 303.171875 Z M 146.101562 303.171875 "/>
<path style=" stroke:none;fill-rule:nonzero;fill:rgb(0%,0%,0%);fill-opacity:1;" d="M 151.574219 303.769531 C 150.976562 304.144531 150.75 304.972656 150.976562 305.644531 C 151.425781 306.773438 151.574219 306.773438 152.851562 305.570312 C 154.875 303.621094 153.898438 302.269531 151.574219 303.769531 Z M 151.574219 303.769531 "/>
<path style=" stroke:none;fill-rule:nonzero;fill:rgb(0%,0%,0%);fill-opacity:1;" d="M 147.375 307.597656 C 145.726562 309.398438 146.023438 309.921875 148.351562 309.023438 C 149.25 308.648438 150 307.898438 150 307.222656 C 150 305.644531 149.023438 305.796875 147.375 307.597656 Z M 147.375 307.597656 "/>
<path style=" stroke:none;fill-rule:nonzero;fill:rgb(0%,0%,0%);fill-opacity:1;" d="M 153.75 307.746094 C 152.175781 308.421875 152.101562 308.648438 153.226562 308.871094 C 154.949219 309.324219 156.75 308.648438 156.75 307.597656 C 156.75 306.695312 156.148438 306.695312 153.75 307.746094 Z M 153.75 307.746094 "/>
<path style=" stroke:none;fill-rule:nonzero;fill:rgb(0%,0%,0%);fill-opacity:1;" d="M 163.875 309.324219 C 163.199219 312.023438 163.800781 317.574219 164.773438 317.875 C 165.375 318.101562 165.523438 317.050781 165.226562 314.050781 C 164.851562 310.597656 165 309.773438 166.050781 309.398438 C 167.925781 308.722656 169.273438 310.222656 168.074219 311.648438 C 167.476562 312.324219 167.398438 313.148438 167.773438 313.75 C 168.074219 314.273438 168.375 315.398438 168.375 316.148438 C 168.375 316.976562 168.824219 317.726562 169.351562 317.949219 C 170.023438 318.175781 170.175781 317.199219 169.800781 313.824219 C 169.199219 307.820312 169.125 307.597656 166.574219 307.597656 C 164.773438 307.597656 164.175781 307.972656 163.875 309.324219 Z M 163.875 309.324219 "/>
<path style=" stroke:none;fill-rule:nonzero;fill:rgb(0%,0%,0%);fill-opacity:1;" d="M 198.523438 303.171875 C 198.074219 304.972656 198.601562 306.847656 199.574219 306.847656 C 199.949219 306.847656 200.25 306.019531 200.25 304.972656 C 200.25 303.546875 200.625 303.09375 201.824219 303.09375 C 202.648438 303.09375 203.101562 302.71875 202.875 302.34375 C 201.976562 300.917969 198.976562 301.519531 198.523438 303.171875 Z M 198.523438 303.171875 "/>
<path style=" stroke:none;fill-rule:nonzero;fill:rgb(0%,0%,0%);fill-opacity:1;" d="M 204.898438 304.746094 C 204.449219 306.695312 203.851562 307.296875 202.273438 307.445312 C 199.425781 307.820312 200.550781 309.097656 203.625 309.097656 C 205.949219 309.097656 206.101562 308.949219 206.398438 306.019531 C 206.773438 302.269531 205.800781 301.445312 204.898438 304.746094 Z M 204.898438 304.746094 "/>
<path style=" stroke:none;fill-rule:nonzero;fill:rgb(0%,0%,0%);fill-opacity:1;" d="M 183.300781 304.519531 C 183.148438 304.671875 183 307.523438 183 310.746094 C 183 314.949219 183.300781 316.601562 183.976562 316.601562 C 184.574219 316.601562 184.875 315.097656 184.800781 311.421875 L 184.648438 306.246094 L 189.074219 305.945312 L 193.5 305.722656 L 193.5 308.570312 C 193.5 312.25 192.523438 314.050781 190.125 314.648438 C 189.074219 314.949219 188.25 315.398438 188.25 315.773438 C 188.25 316.222656 189.148438 316.222656 190.574219 315.847656 C 191.773438 315.472656 193.351562 315.398438 193.949219 315.625 C 194.925781 316 195 315.097656 194.851562 310.148438 L 194.625 304.222656 L 189.148438 304.222656 C 186.074219 304.222656 183.523438 304.371094 183.300781 304.519531 Z M 183.300781 304.519531 "/>
<path style=" stroke:none;fill-rule:nonzero;fill:rgb(0%,0%,0%);fill-opacity:1;" d="M 311.851562 294.617188 C 310.726562 294.917969 310.648438 295.519531 310.949219 298.445312 C 311.25 300.394531 312 302.421875 312.601562 302.945312 C 313.648438 303.695312 313.648438 304.144531 312.898438 305.347656 C 312.449219 306.097656 312.300781 306.996094 312.675781 307.222656 C 313.050781 307.445312 314.101562 306.398438 315 304.972656 C 315.898438 303.546875 316.949219 302.496094 317.324219 302.796875 C 318.375 303.394531 318.148438 304.445312 316.875 304.746094 C 316.125 304.894531 315.976562 305.269531 316.5 306.097656 C 317.175781 307.070312 317.324219 307.070312 318 306.097656 C 318.675781 305.121094 318.898438 305.195312 319.875 306.398438 C 321.300781 308.273438 322.125 307.445312 321 305.347656 C 320.476562 304.296875 320.398438 303.46875 320.851562 302.871094 C 321.300781 302.34375 321.75 300.246094 321.898438 298.21875 L 322.125 294.46875 L 317.625 294.394531 C 315.148438 294.394531 312.523438 294.46875 311.851562 294.617188 Z M 316.199219 297.46875 C 316.726562 299.71875 315.976562 302.34375 314.699219 302.34375 C 313.050781 302.34375 312.148438 300.621094 312.523438 298.21875 C 312.976562 295.292969 315.523438 294.769531 316.199219 297.46875 Z M 320.25 298.96875 C 320.25 302.496094 319.125 303.46875 318.074219 300.695312 C 317.324219 298.519531 317.925781 295.59375 319.199219 295.59375 C 319.949219 295.59375 320.25 296.570312 320.25 298.96875 Z M 320.25 298.96875 "/>
<path style=" stroke:none;fill-rule:nonzero;fill:rgb(0%,0%,0%);fill-opacity:1;" d="M 313.574219 309.773438 C 313.050781 310.148438 312.898438 310.523438 313.199219 310.746094 C 314.476562 311.273438 324.75 310.449219 324.75 309.773438 C 324.75 308.949219 315 308.871094 313.574219 309.773438 Z M 313.574219 309.773438 "/>
<path style=" stroke:none;fill-rule:nonzero;fill:rgb(0%,0%,0%);fill-opacity:1;" d="M 33.226562 321.625 C 33.898438 321.777344 35.101562 321.777344 35.851562 321.625 C 36.523438 321.402344 35.925781 321.25 34.5 321.25 C 33.074219 321.25 32.476562 321.402344 33.226562 321.625 Z M 33.226562 321.625 "/>
</g>
</svg>
