<?xml version="1.0" encoding="UTF-8"?>
<svg xmlns="http://www.w3.org/2000/svg" xmlns:xlink="http://www.w3.org/1999/xlink" width="149pt" height="84pt" viewBox="0 0 149 84" version="1.1">
<g id="surface1">
<path style=" stroke:none;fill-rule:nonzero;fill:rgb(0%,0%,0%);fill-opacity:1;" d="M 64.566406 4.925781 C 55.675781 7.363281 50.710938 10.5 42.367188 19.007812 C 35.859375 25.726562 33.574219 27.417969 30.695312 27.71875 C 28.757812 27.917969 28.460938 27.816406 27.414062 26.425781 C 26.074219 24.582031 24.882812 24.484375 23.046875 26.027344 C 21.902344 27.019531 21.703125 27.617188 21.65625 29.90625 L 21.605469 32.59375 L 19.867188 32.742188 C 17.832031 32.941406 16.886719 33.640625 16.886719 34.882812 C 16.886719 35.429688 16.6875 35.828125 16.390625 35.828125 C 15.894531 35.828125 15.546875 34.734375 15.296875 32.394531 C 15.050781 30.453125 14.054688 30.605469 11.574219 33.042969 C 9.933594 34.636719 8.839844 35.332031 7.898438 35.332031 C 7.152344 35.332031 6.355469 35.582031 6.160156 35.929688 C 5.910156 36.328125 6.355469 36.375 7.699219 36.175781 C 8.988281 35.980469 10.28125 35.230469 11.671875 33.839844 C 13.707031 31.847656 15.246094 31.203125 14.703125 32.59375 C 14.253906 33.839844 15.398438 36.328125 16.441406 36.328125 C 17.035156 36.328125 17.382812 35.980469 17.382812 35.429688 C 17.382812 34.085938 18.375 33.339844 20.113281 33.339844 C 22.25 33.339844 22.746094 32.644531 22.449219 30.058594 C 22.050781 26.273438 24.933594 24.484375 27.21875 27.121094 C 29.453125 29.707031 33.476562 28.515625 38.589844 23.738281 C 40.328125 22.09375 41.71875 20.851562 41.71875 21 C 41.71875 21.097656 41.074219 22.742188 40.28125 24.632812 C 39.238281 27.121094 38.195312 28.613281 36.503906 30.105469 C 34.71875 31.648438 34.121094 32.59375 33.722656 34.335938 C 33.128906 36.925781 31.738281 38.617188 29.851562 39.0625 C 29.105469 39.214844 27.414062 40.257812 26.125 41.351562 C 23.09375 43.792969 22.300781 43.992188 16.789062 43.59375 C 12.714844 43.34375 12.167969 43.394531 10.828125 44.386719 C 9.488281 45.285156 9.089844 45.382812 7.796875 44.886719 C 6.953125 44.585938 6.160156 44.4375 6.007812 44.539062 C 5.613281 44.984375 6.308594 45.335938 8.09375 45.632812 C 9.4375 45.832031 10.230469 45.632812 11.421875 44.785156 C 12.914062 43.742188 13.160156 43.691406 15.746094 44.289062 C 18.574219 44.886719 22.25 44.636719 24.089844 43.691406 C 24.632812 43.394531 25.875 42.398438 26.871094 41.550781 C 27.863281 40.65625 29.351562 39.761719 30.199219 39.613281 C 32.183594 39.164062 33.574219 37.519531 34.269531 34.835938 C 34.765625 32.84375 37.347656 29.359375 38.292969 29.359375 C 38.789062 29.359375 36.058594 36.425781 34.417969 39.414062 C 32.878906 42.199219 31.984375 42.894531 28.261719 43.941406 C 24.386719 45.085938 23.144531 46.230469 21.007812 50.660156 C 18.425781 56.082031 17.730469 56.730469 14.75 56.730469 C 11.820312 56.730469 9.335938 57.824219 8.441406 59.515625 C 7.945312 60.414062 7.5 60.660156 6.753906 60.460938 C 5.761719 60.164062 5.761719 60.214844 6.605469 60.910156 C 7.300781 61.457031 7.449219 62.003906 7.203125 63.148438 C 7.003906 63.996094 6.65625 64.792969 6.40625 64.941406 C 6.160156 65.140625 5.960938 65.539062 5.960938 65.835938 C 6.007812 66.929688 7.945312 64.09375 7.945312 62.949219 C 7.945312 62.054688 8.292969 61.757812 9.683594 61.507812 C 11.472656 61.160156 12.417969 61.40625 12.417969 62.253906 C 12.417969 63.097656 8.941406 66.582031 7.449219 67.179688 C 6.605469 67.527344 5.960938 68.027344 5.960938 68.273438 C 5.960938 69.019531 9.933594 66.582031 11.375 64.890625 L 12.714844 63.398438 L 18.574219 63.398438 C 23.242188 63.449219 24.535156 63.597656 24.980469 64.242188 C 25.976562 65.488281 27.21875 65.6875 29.304688 64.890625 C 30.792969 64.292969 31.488281 63.597656 32.285156 61.90625 C 33.328125 59.816406 33.425781 59.714844 35.164062 60.015625 C 36.207031 60.164062 37.648438 60.0625 38.390625 59.765625 C 39.484375 59.316406 40.03125 59.367188 40.875 59.964844 C 42.214844 60.910156 44.152344 60.910156 45.394531 59.964844 C 45.941406 59.566406 47.183594 59.21875 48.175781 59.21875 C 49.417969 59.21875 50.3125 58.871094 50.957031 58.171875 C 51.605469 57.476562 52.199219 57.277344 53.042969 57.476562 C 54.582031 57.875 55.625 56.980469 55.625 55.238281 C 55.625 53.296875 56.074219 52.25 56.96875 52.25 C 57.515625 52.25 57.613281 52.597656 57.363281 53.742188 C 57.117188 54.9375 57.214844 55.238281 57.8125 55.238281 C 58.257812 55.238281 58.855469 55.785156 59.101562 56.429688 C 59.351562 57.078125 59.75 57.773438 60.046875 57.972656 C 60.34375 58.125 61.289062 59.269531 62.132812 60.511719 L 63.671875 62.800781 L 62.828125 66.335938 C 62.332031 68.324219 61.933594 70.863281 61.984375 72.058594 C 61.984375 74.394531 60.890625 75.441406 58.855469 74.941406 C 58.210938 74.792969 56.820312 75.042969 55.625 75.589844 C 53.191406 76.683594 50.460938 76.285156 49.171875 74.742188 C 47.332031 72.40625 44.105469 72.355469 39.832031 74.644531 C 36.753906 76.335938 34.71875 75.988281 30.695312 73.050781 C 30 72.554688 29.351562 72.652344 27.066406 73.597656 C 22.996094 75.292969 19.816406 74.941406 16.339844 72.355469 C 13.855469 70.5625 13.410156 70.414062 9.835938 70.214844 C 7.699219 70.117188 5.960938 70.265625 5.960938 70.515625 C 5.960938 70.714844 6.953125 70.863281 8.195312 70.761719 C 11.621094 70.464844 13.558594 71.011719 16.09375 72.953125 C 17.53125 74.046875 19.371094 74.894531 21.007812 75.242188 C 23.34375 75.738281 23.890625 75.640625 26.671875 74.445312 C 28.359375 73.75 29.851562 73.152344 29.949219 73.152344 C 30.046875 73.152344 30.992188 73.796875 32.035156 74.644531 C 34.371094 76.484375 37.5 76.683594 40.429688 75.09375 C 41.472656 74.546875 43.410156 73.949219 44.800781 73.796875 C 47.035156 73.550781 47.382812 73.597656 48.871094 75.09375 C 50.859375 77.03125 53.589844 77.628906 55.328125 76.4375 C 56.023438 75.988281 57.515625 75.640625 58.605469 75.640625 C 59.75 75.640625 61.039062 75.441406 61.535156 75.140625 C 62.132812 74.84375 62.976562 74.894531 63.96875 75.242188 C 65.113281 75.691406 65.957031 75.691406 67.347656 75.242188 C 68.9375 74.792969 69.535156 74.84375 71.320312 75.589844 C 75.941406 77.679688 77.378906 77.480469 81.105469 74.246094 C 83.339844 72.257812 83.488281 72.257812 86.269531 72.503906 C 87.859375 72.652344 89.351562 72.953125 89.597656 73.203125 C 90.492188 73.996094 92.578125 73.648438 95.113281 72.257812 C 97.246094 71.113281 98.042969 70.164062 101.070312 65.339844 C 106.285156 56.980469 108.621094 54.988281 114.628906 53.695312 C 117.910156 52.996094 120.191406 53.496094 126.402344 56.332031 C 128.886719 57.476562 132.460938 58.769531 134.347656 59.269531 L 137.824219 60.164062 L 134.695312 60.164062 C 132.410156 60.214844 130.773438 59.863281 128.636719 58.96875 C 125.011719 57.425781 124.960938 57.425781 124.265625 58.96875 C 123.570312 60.460938 122.726562 60.511719 119.300781 59.21875 L 116.667969 58.222656 L 115.476562 59.417969 C 114.78125 60.113281 114.234375 61.207031 114.234375 61.90625 C 114.234375 63.648438 113.585938 63.894531 108.769531 64.195312 L 104.546875 64.441406 L 103.65625 66.335938 C 103.058594 67.480469 102.261719 68.273438 101.519531 68.472656 C 99.878906 68.871094 99.132812 70.363281 100.078125 71.160156 C 101.023438 71.957031 104.894531 71.460938 106.4375 70.414062 C 107.976562 69.371094 108.621094 69.46875 110.804688 71.210938 C 113.042969 72.953125 114.085938 72.953125 118.800781 71.210938 C 121.386719 70.265625 122.628906 70.164062 131.46875 70.214844 C 136.882812 70.214844 141.949219 70.066406 142.691406 69.816406 C 143.535156 69.570312 139.363281 69.46875 132.511719 69.570312 C 121.882812 69.769531 120.640625 69.867188 117.511719 70.960938 C 115.625 71.609375 113.785156 72.15625 113.488281 72.15625 C 113.140625 72.15625 112.046875 71.507812 111.003906 70.664062 C 108.871094 68.972656 108.074219 68.871094 105.9375 69.917969 C 104.003906 70.914062 100.773438 71.113281 100.476562 70.316406 C 100.328125 69.96875 100.773438 69.46875 101.417969 69.21875 C 102.710938 68.722656 103.703125 67.726562 104.546875 65.984375 C 105.046875 65.089844 105.492188 64.941406 107.777344 65.039062 C 112.84375 65.289062 115.226562 63.894531 115.226562 60.660156 C 115.226562 59.21875 116.566406 58.96875 119.398438 59.914062 C 122.527344 61.007812 124.214844 60.808594 124.910156 59.417969 L 125.457031 58.324219 L 128.140625 59.515625 C 131.21875 60.808594 136.632812 61.109375 138.867188 60.113281 C 140.109375 59.515625 139.960938 59.46875 136.433594 58.917969 C 134.296875 58.570312 130.921875 57.527344 128.539062 56.480469 C 118.753906 52.152344 116.171875 51.851562 110.308594 54.492188 C 106.585938 56.183594 104.351562 58.570312 100.722656 64.691406 C 97.546875 70.066406 96.949219 70.714844 93.769531 72.15625 C 91.882812 73.003906 91.238281 73.050781 90.046875 72.605469 C 89.300781 72.304688 87.363281 71.957031 85.824219 71.859375 C 83.042969 71.660156 82.894531 71.707031 80.460938 73.898438 C 77.53125 76.484375 76.039062 76.734375 71.917969 75.09375 C 69.78125 74.246094 68.988281 74.148438 67.347656 74.59375 C 64.515625 75.292969 62.878906 74.445312 62.679688 72.207031 C 62.480469 70.515625 63.871094 63.796875 64.566406 63.050781 C 64.765625 62.851562 65.609375 63.25 66.503906 63.945312 C 67.84375 65.089844 68.339844 65.238281 70.179688 64.992188 C 71.320312 64.792969 74.75 64.492188 77.726562 64.292969 C 83.886719 63.894531 84.085938 63.796875 89.003906 59.417969 C 90.742188 57.875 93.769531 55.785156 95.808594 54.839844 C 99.332031 53.148438 99.730469 53.046875 107.480469 52.648438 C 114.035156 52.300781 116.21875 52.003906 119.695312 50.859375 C 122.230469 50.0625 125.011719 49.515625 126.699219 49.515625 C 129.234375 49.515625 129.679688 49.714844 131.816406 51.503906 C 135.988281 54.988281 136.136719 55.085938 143.1875 57.027344 C 143.636719 57.175781 144.035156 57.078125 144.035156 56.828125 C 144.035156 56.582031 143.089844 56.230469 141.949219 56.03125 C 138.96875 55.535156 135.839844 54.042969 133.207031 51.851562 C 130.027344 49.164062 129.082031 48.769531 126.300781 48.769531 L 123.917969 48.71875 L 125.507812 47.273438 C 127.148438 45.78125 127.148438 45.78125 132.558594 45.929688 C 138.816406 46.128906 139.910156 46.578125 141.949219 50.011719 C 142.691406 51.257812 143.4375 52.25 143.6875 52.25 C 144.332031 52.25 144.035156 51.503906 142.246094 49.117188 C 139.863281 45.882812 138.273438 45.285156 131.816406 45.285156 L 126.550781 45.285156 L 124.664062 47.324219 C 123.171875 48.96875 122.527344 49.316406 121.386719 49.164062 C 120.191406 49.066406 119.945312 48.769531 119.796875 47.523438 C 119.746094 46.675781 120.09375 45.234375 120.539062 44.289062 C 121.433594 42.546875 121.484375 42.546875 124.613281 42.546875 C 127.792969 42.546875 127.84375 42.496094 129.082031 40.65625 C 130.820312 38.167969 135.839844 34.835938 137.925781 34.835938 C 139.8125 34.835938 140.160156 35.582031 139.164062 37.71875 C 138.273438 39.613281 138.816406 40.558594 140.804688 40.558594 C 142.144531 40.605469 143.585938 38.367188 143.1875 36.824219 C 142.792969 35.28125 139.910156 32.992188 136.929688 31.898438 C 128.339844 28.761719 119.546875 32.246094 107.328125 43.59375 C 104.5 46.230469 101.46875 48.667969 100.523438 49.066406 C 98.339844 49.960938 95.65625 49.960938 94.863281 49.015625 C 93.96875 47.972656 94.515625 43.441406 95.808594 40.90625 C 97.496094 37.570312 100.375 36.226562 101.070312 38.417969 C 101.371094 39.511719 101.417969 39.511719 101.867188 38.070312 C 102.460938 36.078125 102.015625 34.882812 100.574219 34.535156 C 99.183594 34.1875 98.191406 34.683594 93.027344 38.417969 C 88.160156 41.949219 84.878906 43.292969 81.15625 43.292969 C 77.828125 43.292969 75.542969 42.199219 72.613281 39.261719 C 69.832031 36.425781 68.589844 33.738281 67.746094 28.613281 C 66.851562 23.4375 67.398438 19.707031 69.335938 17.765625 C 70.726562 16.371094 73.011719 15.476562 71.96875 16.71875 C 71.621094 17.167969 71.570312 17.417969 71.917969 17.417969 C 72.214844 17.417969 72.664062 17.117188 72.859375 16.71875 C 73.40625 15.773438 74.945312 15.625 76.636719 16.324219 C 78.421875 17.070312 79.117188 17.070312 79.914062 16.273438 C 80.460938 15.773438 80.507812 15.875 80.210938 16.769531 C 80.011719 17.46875 80.113281 17.914062 80.460938 17.914062 C 81.304688 17.914062 81.652344 16.371094 80.90625 15.875 C 80.410156 15.574219 80.359375 15.328125 80.757812 14.929688 C 81.15625 14.53125 81.652344 14.78125 82.59375 15.875 C 84.136719 17.714844 84.234375 17.714844 84.683594 16.273438 C 84.832031 15.675781 85.128906 15.425781 85.226562 15.773438 C 85.527344 16.472656 86.917969 16.074219 86.917969 15.328125 C 86.917969 15.027344 86.570312 14.929688 86.171875 15.128906 C 85.179688 15.476562 85.226562 14.730469 86.222656 13.933594 C 86.816406 13.386719 87.117188 13.4375 87.8125 14.183594 C 88.605469 15.078125 88.605469 15.078125 87.660156 14.429688 C 86.71875 13.785156 86.71875 13.785156 87.511719 14.679688 C 88.257812 15.476562 88.507812 15.527344 89.003906 14.980469 C 89.5 14.480469 89.5 14.230469 89.101562 14.082031 C 88.753906 13.984375 88.605469 13.484375 88.753906 12.988281 C 88.902344 12.390625 88.355469 11.546875 87.066406 10.5 C 85.328125 9.007812 84.980469 8.90625 82.546875 9.15625 C 79.714844 9.503906 79.863281 9.605469 76.4375 5.523438 C 75.144531 4.03125 74.945312 3.980469 71.46875 4.03125 C 69.433594 4.03125 66.355469 4.429688 64.566406 4.925781 Z M 75.890625 5.921875 C 76.636719 6.667969 77.726562 7.914062 78.324219 8.660156 C 79.316406 9.851562 79.714844 9.953125 82.347656 9.851562 C 84.832031 9.753906 85.527344 9.953125 86.816406 10.949219 C 88.703125 12.441406 88.804688 12.9375 87.214844 12.9375 C 86.519531 12.9375 85.824219 13.1875 85.675781 13.4375 C 85.226562 14.183594 84.335938 13.484375 84.632812 12.640625 C 84.929688 11.84375 84.136719 11.195312 83.6875 11.941406 C 83.242188 12.691406 82.445312 12.539062 82.445312 11.695312 C 82.445312 11.195312 81.949219 10.949219 81.105469 10.949219 C 78.769531 10.949219 77.480469 10.402344 77.480469 9.453125 C 77.480469 8.859375 76.984375 8.410156 75.988281 8.210938 C 75.195312 8.011719 74.5 7.664062 74.5 7.414062 C 74.5 7.164062 73.902344 6.96875 73.160156 6.96875 C 72.363281 6.96875 71.371094 6.617188 70.875 6.21875 C 70.078125 5.671875 69.582031 5.671875 67.644531 6.21875 C 66.058594 6.667969 64.714844 6.769531 63.574219 6.46875 C 62.628906 6.269531 62.183594 6.019531 62.578125 5.972656 C 62.976562 5.921875 64.664062 5.625 66.304688 5.226562 C 67.945312 4.875 70.476562 4.527344 71.917969 4.527344 C 74.25 4.480469 74.75 4.675781 75.890625 5.921875 Z M 71.222656 7.265625 C 71.421875 7.8125 71.917969 8.011719 72.761719 7.863281 C 73.457031 7.714844 74.003906 7.761719 74.003906 7.960938 C 74.003906 8.160156 74.699219 8.460938 75.492188 8.609375 C 76.535156 8.859375 76.984375 9.207031 76.984375 9.902344 C 76.984375 10.949219 78.523438 11.644531 80.609375 11.496094 C 81.652344 11.394531 81.949219 11.59375 81.949219 12.390625 C 81.949219 13.484375 82.644531 13.785156 83.242188 12.886719 C 83.441406 12.539062 83.789062 12.789062 84.183594 13.535156 C 85.078125 15.277344 84.136719 16.273438 82.695312 14.929688 C 81.304688 13.636719 80.957031 13.683594 79.714844 15.226562 C 78.769531 16.421875 78.574219 16.472656 77.429688 15.875 C 76.785156 15.476562 76.089844 14.980469 75.890625 14.679688 C 75.640625 14.382812 75.292969 14.429688 74.898438 14.828125 C 74.054688 15.675781 72.015625 15.574219 72.015625 14.679688 C 72.015625 14.28125 71.769531 13.933594 71.46875 13.933594 C 71.171875 13.933594 71.023438 13.484375 71.171875 12.9375 C 71.320312 12.292969 71.171875 11.941406 70.726562 11.941406 C 70.328125 11.941406 69.882812 11.59375 69.730469 11.195312 C 69.535156 10.796875 69.234375 10.597656 68.988281 10.75 C 68.738281 10.898438 68.539062 10.648438 68.539062 10.25 C 68.539062 9.355469 67.296875 9.15625 66.800781 9.953125 C 66.304688 10.75 65.558594 10.550781 65.558594 9.605469 C 65.558594 9.15625 65.410156 8.957031 65.210938 9.105469 C 65.0625 9.304688 64.515625 9.105469 64.019531 8.660156 C 63.226562 7.914062 63.027344 7.960938 61.488281 9.105469 C 60.59375 9.804688 59.253906 10.351562 58.507812 10.351562 C 57.761719 10.351562 56.023438 11.046875 54.683594 11.941406 C 48.324219 16.023438 43.160156 24.285156 41.96875 32.246094 C 40.925781 39.261719 39.882812 42.25 38.34375 42.847656 C 37.597656 43.144531 36.40625 44.089844 35.660156 44.984375 C 34.914062 45.882812 33.328125 46.976562 32.132812 47.472656 C 30 48.269531 29.351562 49.015625 28.308594 51.851562 C 27.960938 52.949219 27.515625 53.246094 26.324219 53.246094 C 25.132812 53.246094 24.683594 53.546875 24.1875 54.640625 C 23.441406 56.382812 22.945312 56.730469 21.007812 56.730469 C 19.816406 56.730469 19.171875 57.128906 18.375 58.222656 C 17.234375 59.863281 13.460938 61.804688 12.664062 61.160156 C 12.367188 60.960938 11.273438 60.710938 10.230469 60.613281 L 8.34375 60.460938 L 9.289062 59.269531 C 10.132812 58.222656 10.925781 57.972656 13.855469 57.675781 C 18.226562 57.277344 18.773438 56.828125 21.308594 51.503906 C 23.542969 46.828125 24.832031 45.582031 28.757812 44.488281 C 33.425781 43.144531 35.164062 40.855469 38.390625 31.550781 C 39.335938 28.863281 40.578125 25.429688 41.171875 23.984375 C 41.769531 22.492188 42.066406 21.097656 41.917969 20.800781 C 41.71875 20.453125 41.820312 20.402344 42.117188 20.601562 C 42.414062 20.800781 42.960938 20.351562 43.410156 19.558594 C 44.351562 17.765625 49.269531 13.039062 52.148438 11.097656 C 56.371094 8.261719 59.003906 7.363281 63.425781 7.265625 C 65.660156 7.214844 67.644531 7.015625 67.84375 6.816406 C 68.539062 6.121094 70.925781 6.46875 71.222656 7.265625 Z M 64.46875 9.953125 C 65.660156 11.097656 66.601562 11.195312 67.449219 10.351562 C 67.894531 9.902344 68.042969 9.902344 68.042969 10.5 C 68.042969 10.949219 68.589844 11.59375 69.285156 11.941406 C 70.128906 12.390625 70.425781 12.886719 70.277344 13.484375 C 70.128906 13.984375 70.328125 14.429688 70.773438 14.628906 C 71.667969 14.980469 71.769531 15.925781 70.875 15.925781 C 69.832031 15.925781 67.695312 18.511719 67.050781 20.601562 C 66.207031 23.238281 66.652344 28.714844 68.09375 32.992188 C 69.929688 38.664062 75.046875 43.394531 80.0625 44.089844 C 84.183594 44.6875 87.363281 43.292969 96.054688 37.074219 C 98.636719 35.183594 101.320312 34.734375 101.320312 36.128906 C 101.320312 36.675781 101.070312 36.824219 100.523438 36.625 C 99.183594 36.128906 96.851562 37.769531 95.113281 40.507812 C 92.378906 44.785156 88.753906 47.074219 83.488281 47.824219 C 76.734375 48.816406 70.179688 46.480469 68.09375 42.449219 C 67.148438 40.507812 66.949219 37.472656 67.746094 35.730469 C 67.992188 35.183594 67.796875 34.238281 67.199219 33.242188 C 66.453125 31.949219 65.90625 31.550781 64.46875 31.449219 C 61.984375 31.25 60.144531 32.296875 57.363281 35.582031 C 54.683594 38.714844 52.695312 40.058594 50.015625 40.558594 C 48.574219 40.855469 47.929688 40.707031 47.132812 40.007812 C 46.140625 39.113281 46.089844 39.164062 44.402344 41.003906 C 43.0625 42.449219 42.464844 42.796875 41.570312 42.546875 C 40.726562 42.25 40.628906 42.296875 41.074219 42.796875 C 41.917969 43.742188 44.152344 42.996094 44.800781 41.550781 C 45.394531 40.257812 46.386719 39.910156 46.933594 40.804688 C 47.382812 41.503906 50.410156 41.402344 52.300781 40.605469 C 53.191406 40.207031 55.328125 38.417969 57.117188 36.574219 C 61.785156 31.75 64.367188 30.703125 66.304688 32.84375 C 67.050781 33.691406 67.148438 34.136719 66.703125 35.582031 C 66.40625 36.527344 66.253906 37.820312 66.40625 38.367188 C 66.652344 39.261719 66.554688 39.363281 65.660156 39.113281 C 64.765625 38.816406 64.515625 39.0625 64.070312 40.757812 C 63.773438 41.949219 63.175781 42.847656 62.628906 43.046875 C 61.289062 43.441406 61.089844 44.339844 61.4375 48.070312 C 61.6875 50.859375 61.984375 51.652344 63.472656 53.394531 C 65.113281 55.386719 65.164062 55.585938 64.914062 58.71875 L 64.664062 61.953125 L 65.363281 59.765625 C 66.207031 57.078125 65.660156 54.441406 63.871094 52.796875 C 63.027344 52.003906 62.578125 50.90625 62.332031 48.617188 C 61.835938 44.738281 61.882812 44.339844 63.375 43.195312 C 64.070312 42.648438 64.566406 41.703125 64.566406 41.003906 C 64.566406 40.058594 64.816406 39.761719 65.410156 39.910156 C 66.007812 40.007812 66.253906 40.605469 66.304688 42.296875 C 66.40625 46.082031 66.503906 46.230469 68.492188 47.472656 C 69.929688 48.417969 70.625 49.316406 71.273438 51.105469 C 71.71875 52.402344 72.363281 54.140625 72.613281 54.886719 C 73.207031 56.480469 75.292969 57.726562 77.332031 57.726562 C 78.671875 57.726562 79.269531 57.425781 83.339844 54.589844 L 85.328125 53.148438 L 87.3125 54.292969 L 89.300781 55.4375 L 92.726562 54.390625 C 98.339844 52.597656 98.738281 52.597656 95.113281 54.441406 C 93.222656 55.386719 90.144531 57.527344 88.257812 59.167969 C 86.421875 60.808594 84.433594 62.453125 83.789062 62.800781 C 83.191406 63.097656 80.113281 63.546875 76.984375 63.746094 C 73.855469 63.996094 70.578125 64.292969 69.78125 64.441406 C 67.84375 64.839844 65.3125 63.097656 61.289062 58.519531 C 60.34375 57.425781 59.601562 56.230469 59.601562 55.933594 C 59.601562 55.585938 59.300781 55.085938 58.90625 54.886719 C 58.507812 54.691406 58.109375 53.84375 58.011719 53.046875 C 57.710938 50.113281 55.476562 51.304688 54.929688 54.691406 C 54.632812 56.628906 54.535156 56.730469 52.945312 56.730469 C 52.050781 56.730469 51.007812 57.078125 50.660156 57.476562 C 50.3125 57.875 49.46875 58.222656 48.773438 58.222656 C 48.078125 58.222656 46.488281 58.71875 45.296875 59.316406 C 43.109375 60.363281 43.0625 60.363281 41.371094 59.46875 C 39.980469 58.671875 39.433594 58.621094 38.09375 59.117188 C 37.199219 59.417969 35.710938 59.566406 34.71875 59.417969 C 33.078125 59.117188 32.929688 59.21875 32.035156 61.207031 C 31.042969 63.347656 29.203125 64.691406 27.167969 64.691406 C 26.472656 64.691406 25.828125 64.394531 25.675781 64.046875 C 25.28125 63 20.960938 62.253906 17.035156 62.550781 C 15.050781 62.703125 13.410156 62.652344 13.410156 62.402344 C 13.410156 62.152344 14.402344 61.558594 15.644531 61.007812 C 16.984375 60.511719 18.226562 59.515625 18.722656 58.671875 C 19.417969 57.476562 19.917969 57.226562 21.40625 57.226562 C 23.34375 57.226562 24.832031 56.230469 24.832031 54.9375 C 24.832031 54.539062 25.328125 54.242188 25.976562 54.242188 C 27.566406 54.242188 28.609375 53.296875 29.253906 51.15625 C 29.949219 49.066406 30.496094 48.519531 32.53125 48.070312 C 33.328125 47.871094 34.816406 46.828125 35.859375 45.730469 C 36.902344 44.636719 38.292969 43.542969 38.988281 43.292969 C 39.683594 43.046875 40.429688 42.398438 40.628906 41.949219 C 40.824219 41.453125 41.273438 41.054688 41.671875 41.054688 C 42.414062 41.054688 42.714844 40.605469 44.152344 37.125 C 44.898438 35.480469 45.394531 34.835938 45.890625 34.984375 C 46.636719 35.28125 47.183594 34.386719 47.183594 32.792969 C 47.183594 32.195312 47.78125 31.597656 48.871094 31.152344 C 49.816406 30.753906 50.808594 30.058594 51.105469 29.507812 C 51.554688 28.761719 51.703125 28.714844 52.101562 29.359375 C 52.496094 29.90625 52.695312 29.808594 53.09375 28.714844 C 53.390625 27.917969 53.640625 26.625 53.640625 25.828125 C 53.640625 25.03125 53.886719 24.382812 54.136719 24.382812 C 54.433594 24.382812 54.632812 25.378906 54.632812 26.625 C 54.632812 28.316406 54.882812 28.960938 55.625 29.359375 C 56.867188 30.007812 57.613281 29.609375 57.613281 28.316406 C 57.613281 27.816406 57.960938 27.371094 58.359375 27.371094 C 58.804688 27.371094 59.253906 26.773438 59.449219 25.875 C 59.601562 25.03125 59.847656 24.382812 60.046875 24.382812 C 60.195312 24.382812 60.394531 23.539062 60.394531 22.492188 C 60.445312 21.050781 60.195312 20.402344 59.5 19.953125 C 58.65625 19.40625 58.40625 19.507812 57.761719 20.402344 C 57.214844 21.199219 56.667969 21.398438 55.777344 21.148438 C 55.082031 21 54.234375 21.097656 53.839844 21.449219 C 53.292969 21.894531 53.09375 21.847656 52.84375 21.199219 C 52.398438 20.054688 53.539062 17.863281 55.527344 16.273438 C 56.621094 15.375 56.769531 14.183594 55.824219 14.183594 C 55.578125 14.183594 55.082031 13.984375 54.78125 13.785156 C 53.839844 13.1875 53.988281 14.183594 54.929688 14.980469 C 55.675781 15.574219 55.625 15.675781 54.582031 15.925781 C 53.9375 16.074219 53.390625 16.570312 53.390625 17.070312 C 53.390625 17.515625 53.09375 18.164062 52.746094 18.511719 C 52.300781 18.960938 52.148438 18.960938 52.148438 18.511719 C 52.148438 18.164062 52.449219 17.914062 52.796875 17.863281 C 53.191406 17.863281 53.242188 17.765625 52.796875 17.617188 C 51.902344 17.21875 50.261719 18.910156 50.511719 19.953125 C 50.710938 20.601562 50.511719 20.902344 49.964844 20.902344 C 49.519531 20.902344 49.171875 20.601562 49.171875 20.203125 C 49.171875 19.804688 48.773438 19.40625 48.324219 19.308594 C 47.679688 19.207031 48.128906 18.511719 50.214844 16.371094 C 53.441406 13.136719 56.96875 10.949219 58.953125 10.949219 C 59.699219 10.949219 60.890625 10.5 61.585938 9.953125 C 63.125 8.757812 63.175781 8.757812 64.46875 9.953125 Z M 51.953125 19.707031 C 51.503906 20.902344 52.546875 22.542969 53.539062 22.09375 C 53.988281 21.945312 55.082031 21.796875 55.972656 21.847656 C 56.96875 21.894531 57.710938 21.648438 57.960938 21.148438 C 58.210938 20.703125 58.753906 20.503906 59.203125 20.652344 C 59.847656 20.902344 59.898438 21.296875 59.5 22.792969 C 59.253906 23.785156 58.90625 25.128906 58.753906 25.726562 C 58.605469 26.375 58.160156 26.871094 57.8125 26.871094 C 57.414062 26.871094 57.117188 27.320312 57.117188 27.917969 C 57.117188 28.613281 56.867188 28.863281 56.273438 28.761719 C 55.625 28.664062 55.429688 28.066406 55.378906 26.472656 C 55.277344 22.542969 53.292969 22.394531 52.796875 26.324219 C 52.648438 27.417969 52.347656 28.265625 52.148438 28.117188 C 51.953125 28.015625 51.355469 28.363281 50.859375 28.914062 C 50.363281 29.460938 49.21875 30.257812 48.375 30.605469 C 47.234375 31.050781 46.6875 31.699219 46.4375 32.792969 C 46.238281 33.640625 45.792969 34.335938 45.394531 34.335938 C 44.75 34.335938 43.257812 37.023438 42.515625 39.414062 C 42.019531 41.105469 41.074219 40.40625 41.472656 38.664062 C 42.019531 36.277344 42.714844 32.347656 42.910156 30.355469 C 43.011719 29.410156 43.90625 26.773438 44.949219 24.484375 C 46.738281 20.550781 46.886719 20.402344 47.78125 21.199219 C 48.773438 22.144531 48.574219 23.539062 47.382812 24.78125 C 46.984375 25.128906 46.6875 25.726562 46.6875 26.125 C 46.6875 26.472656 46.289062 26.722656 45.84375 26.671875 C 45.246094 26.625 44.898438 27.019531 44.800781 27.867188 C 44.699219 28.5625 44.253906 29.507812 43.855469 29.957031 C 43.410156 30.453125 43.257812 30.851562 43.507812 30.851562 C 44.351562 30.851562 45.195312 29.707031 45.195312 28.5625 C 45.195312 27.769531 45.542969 27.371094 46.339844 27.269531 C 47.035156 27.171875 47.480469 26.722656 47.582031 25.976562 C 47.679688 25.378906 48.078125 24.882812 48.476562 24.882812 C 48.871094 24.882812 49.171875 24.582031 49.121094 24.234375 C 48.921875 22.492188 49.269531 21.496094 50.164062 21.25 C 50.757812 21.097656 51.15625 20.550781 51.15625 19.953125 C 51.15625 19.359375 51.40625 18.910156 51.703125 18.910156 C 52 18.910156 52.101562 19.257812 51.953125 19.707031 Z M 48.671875 20.402344 C 48.671875 20.652344 48.574219 20.902344 48.476562 20.902344 C 48.324219 20.902344 48.078125 20.652344 47.929688 20.402344 C 47.78125 20.105469 47.878906 19.90625 48.128906 19.90625 C 48.425781 19.90625 48.671875 20.105469 48.671875 20.402344 Z M 136.433594 32.445312 C 141.152344 34.1875 143.785156 37.371094 141.949219 39.214844 C 141.101562 40.058594 139.5625 39.960938 139.5625 39.0625 C 139.5625 38.664062 139.8125 37.820312 140.109375 37.125 C 140.90625 35.382812 139.960938 34.335938 137.625 34.335938 C 135.492188 34.335938 131.863281 36.726562 128.984375 39.910156 C 127.195312 42 127.046875 42.050781 124.117188 42.050781 C 121.136719 42.050781 121.039062 42.097656 120.144531 43.792969 C 118.605469 46.828125 118.503906 48.019531 119.695312 49.164062 L 120.789062 50.160156 L 117.910156 50.558594 C 116.070312 50.757812 114.730469 50.707031 114.132812 50.308594 C 113.636719 50.011719 112.941406 49.761719 112.542969 49.761719 C 112.195312 49.761719 111.601562 49.414062 111.253906 49.015625 C 110.109375 47.671875 106.832031 48.121094 102.5625 50.210938 C 100.375 51.304688 98.886719 52.203125 99.234375 52.203125 C 99.582031 52.25 101.171875 51.605469 102.808594 50.757812 C 106.484375 48.917969 109.464844 48.371094 110.65625 49.363281 C 111.105469 49.761719 112.496094 50.410156 113.738281 50.808594 C 115.972656 51.503906 115.921875 51.503906 108.769531 51.851562 C 97.992188 52.351562 95.011719 52.648438 93.074219 53.496094 C 90.742188 54.492188 88.65625 54.441406 86.917969 53.394531 C 85.277344 52.449219 84.582031 52.699219 81.105469 55.285156 C 77.378906 58.125 73.507812 57.226562 72.761719 53.347656 C 72.265625 50.660156 71.273438 49.015625 69.035156 47.226562 C 67.398438 45.882812 67.050781 45.335938 67.050781 43.839844 L 67.050781 42.050781 L 68.292969 43.890625 C 69.085938 45.035156 70.578125 46.230469 72.363281 47.125 C 74.945312 48.371094 75.742188 48.519531 80.460938 48.519531 C 86.46875 48.519531 89.25 47.574219 92.527344 44.386719 L 94.417969 42.546875 L 94.070312 44.039062 C 92.976562 48.320312 94.070312 50.507812 97.246094 50.460938 C 100.175781 50.359375 102.511719 48.96875 107.675781 44.191406 C 115.824219 36.625 120.738281 33.441406 126.300781 32.046875 C 130.175781 31.101562 133.207031 31.25 136.433594 32.445312 Z M 136.433594 32.445312 "/>
<path style=" stroke:none;fill-rule:nonzero;fill:rgb(0%,0%,0%);fill-opacity:1;" d="M 60.890625 11.695312 C 61.238281 12.589844 61.039062 12.640625 59.300781 11.84375 C 58.210938 11.347656 57.910156 11.347656 57.414062 11.992188 C 56.820312 12.839844 56.621094 12.9375 55.328125 12.9375 C 54.929688 12.9375 54.734375 13.1875 54.882812 13.4375 C 55.082031 13.734375 55.429688 13.785156 55.726562 13.636719 C 56.023438 13.4375 56.421875 13.585938 56.621094 13.933594 C 57.167969 14.78125 58.160156 14.082031 57.761719 13.136719 C 57.5625 12.539062 57.863281 12.390625 59.402344 12.539062 C 60.890625 12.640625 61.339844 12.492188 61.488281 11.792969 C 61.585938 11.347656 61.4375 10.949219 61.140625 10.949219 C 60.839844 10.949219 60.742188 11.296875 60.890625 11.695312 Z M 60.890625 11.695312 "/>
<path style=" stroke:none;fill-rule:nonzero;fill:rgb(0%,0%,0%);fill-opacity:1;" d="M 64.863281 12.738281 C 64.316406 13.085938 64.019531 13.585938 64.21875 13.734375 C 64.367188 13.933594 64.914062 13.683594 65.363281 13.238281 C 66.40625 12.140625 66.105469 11.84375 64.863281 12.738281 Z M 64.863281 12.738281 "/>
<path style=" stroke:none;fill-rule:nonzero;fill:rgb(0%,0%,0%);fill-opacity:1;" d="M 66.554688 12.441406 C 66.554688 12.691406 66.800781 12.9375 67.050781 12.9375 C 67.347656 12.9375 67.546875 12.691406 67.546875 12.441406 C 67.546875 12.140625 67.347656 11.941406 67.050781 11.941406 C 66.800781 11.941406 66.554688 12.140625 66.554688 12.441406 Z M 66.554688 12.441406 "/>
<path style=" stroke:none;fill-rule:nonzero;fill:rgb(0%,0%,0%);fill-opacity:1;" d="M 63.574219 15.425781 C 63.574219 15.675781 63.820312 15.925781 64.070312 15.925781 C 64.367188 15.925781 64.566406 15.675781 64.566406 15.425781 C 64.566406 15.128906 64.367188 14.929688 64.070312 14.929688 C 63.820312 14.929688 63.574219 15.128906 63.574219 15.425781 Z M 63.574219 15.425781 "/>
<path style=" stroke:none;fill-rule:nonzero;fill:rgb(0%,0%,0%);fill-opacity:1;" d="M 58.707031 17.019531 C 57.910156 17.816406 57.960938 18.414062 58.855469 18.414062 C 59.253906 18.414062 59.601562 17.964844 59.601562 17.417969 C 59.601562 16.273438 59.5 16.222656 58.707031 17.019531 Z M 58.707031 17.019531 "/>
<path style=" stroke:none;fill-rule:nonzero;fill:rgb(0%,0%,0%);fill-opacity:1;" d="M 57.863281 30.851562 C 57.515625 31.449219 57.960938 32.347656 58.65625 32.347656 C 59.253906 32.347656 59.253906 31.003906 58.65625 30.605469 C 58.40625 30.453125 58.058594 30.554688 57.863281 30.851562 Z M 57.863281 30.851562 "/>
<path style=" stroke:none;fill-rule:nonzero;fill:rgb(0%,0%,0%);fill-opacity:1;" d="M 50.957031 31.203125 C 50.363281 31.796875 50.660156 32.84375 51.40625 32.84375 C 51.800781 32.84375 52.148438 32.546875 52.148438 32.148438 C 52.148438 31.300781 51.453125 30.753906 50.957031 31.203125 Z M 50.957031 31.203125 "/>
<path style=" stroke:none;fill-rule:nonzero;fill:rgb(0%,0%,0%);fill-opacity:1;" d="M 63.871094 37.621094 C 63.574219 39.015625 63.375 39.261719 62.878906 38.863281 C 62.382812 38.417969 62.035156 38.617188 61.386719 39.5625 C 60.792969 40.457031 60.246094 40.757812 59.601562 40.558594 C 58.953125 40.359375 58.40625 40.707031 57.613281 41.800781 C 57.015625 42.597656 56.171875 43.292969 55.726562 43.292969 C 55.277344 43.292969 54.535156 43.542969 54.136719 43.792969 C 53.492188 44.238281 53.492188 44.386719 54.335938 45.035156 C 55.777344 46.128906 55.179688 49.363281 53.191406 51.207031 C 52.347656 52.003906 51.652344 52.898438 51.652344 53.195312 C 51.652344 53.84375 50.0625 53.941406 49.417969 53.296875 C 49.121094 53.046875 48.375 52.75 47.679688 52.648438 C 46.539062 52.5 46.4375 52.351562 46.585938 50.0625 C 46.738281 47.523438 45.792969 45.78125 44.253906 45.78125 C 43.109375 45.78125 40.230469 48.917969 40.230469 50.160156 C 40.230469 51.554688 39.484375 51.902344 38.691406 50.957031 C 37.449219 49.464844 36.257812 49.117188 35.214844 50.0625 C 34.71875 50.507812 34.269531 51.355469 34.269531 51.851562 C 34.269531 53.546875 32.332031 56.679688 31.140625 56.929688 C 27.714844 57.625 26.917969 57.824219 25.328125 58.222656 L 23.589844 58.671875 L 25.578125 58.472656 C 32.285156 57.773438 32.433594 57.726562 33.871094 54.738281 C 34.617188 53.246094 35.261719 51.605469 35.261719 51.105469 C 35.261719 49.960938 36.851562 50.011719 37.996094 51.257812 C 38.492188 51.804688 39.1875 52.25 39.535156 52.25 C 40.28125 52.25 41.222656 50.707031 41.222656 49.515625 C 41.222656 48.519531 43.109375 46.828125 44.203125 46.777344 C 45.644531 46.777344 46.140625 47.824219 45.84375 50.0625 C 45.542969 52.402344 46.289062 53.992188 47.480469 53.546875 C 47.828125 53.394531 48.773438 53.59375 49.519531 53.992188 C 50.808594 54.691406 50.957031 54.640625 52.945312 52.597656 C 54.136719 51.355469 55.277344 49.613281 55.578125 48.519531 C 56.273438 45.980469 56.273438 45.980469 55.378906 45.085938 C 54.683594 44.386719 54.734375 44.289062 55.824219 43.992188 C 56.519531 43.839844 57.414062 43.144531 57.863281 42.496094 C 58.308594 41.800781 59.101562 41.304688 59.847656 41.304688 C 60.59375 41.304688 61.289062 40.855469 61.636719 40.207031 C 62.230469 39.113281 62.230469 39.113281 62.578125 40.058594 C 62.878906 40.953125 63.027344 40.90625 63.773438 39.460938 C 64.269531 38.417969 64.816406 37.96875 65.3125 38.117188 C 65.90625 38.367188 65.90625 38.21875 65.410156 37.125 C 64.617188 35.382812 64.21875 35.480469 63.871094 37.621094 Z M 63.871094 37.621094 "/>
<path style=" stroke:none;fill-rule:nonzero;fill:rgb(0%,0%,0%);fill-opacity:1;" d="M 54.136719 36.824219 C 54.136719 37.074219 54.386719 37.324219 54.632812 37.324219 C 54.929688 37.324219 55.128906 37.074219 55.128906 36.824219 C 55.128906 36.527344 54.929688 36.328125 54.632812 36.328125 C 54.386719 36.328125 54.136719 36.527344 54.136719 36.824219 Z M 54.136719 36.824219 "/>
<path style=" stroke:none;fill-rule:nonzero;fill:rgb(0%,0%,0%);fill-opacity:1;" d="M 89.746094 14.730469 C 89.351562 15.128906 89.796875 15.925781 90.441406 15.925781 C 90.691406 15.925781 90.890625 15.574219 90.890625 15.175781 C 90.890625 14.429688 90.292969 14.183594 89.746094 14.730469 Z M 89.746094 14.730469 "/>
<path style=" stroke:none;fill-rule:nonzero;fill:rgb(0%,0%,0%);fill-opacity:1;" d="M 74.152344 16.769531 C 73.804688 16.917969 73.507812 17.316406 73.507812 17.664062 C 73.507812 18.015625 73.160156 18.460938 72.710938 18.613281 C 72.316406 18.761719 72.117188 19.160156 72.316406 19.457031 C 72.5625 19.90625 72.859375 19.804688 73.257812 19.257812 C 73.605469 18.808594 74.003906 18.5625 74.152344 18.761719 C 74.550781 19.109375 75.144531 17.664062 74.898438 17.019531 C 74.847656 16.769531 74.449219 16.671875 74.152344 16.769531 Z M 74.152344 16.769531 "/>
<path style=" stroke:none;fill-rule:nonzero;fill:rgb(0%,0%,0%);fill-opacity:1;" d="M 77.183594 19.007812 C 77.03125 19.257812 76.984375 19.558594 77.03125 19.65625 C 77.378906 19.953125 79.964844 19.308594 79.964844 18.910156 C 79.964844 18.363281 77.53125 18.460938 77.183594 19.007812 Z M 77.183594 19.007812 "/>
<path style=" stroke:none;fill-rule:nonzero;fill:rgb(0%,0%,0%);fill-opacity:1;" d="M 75.941406 19.90625 C 75.941406 20.054688 75.839844 20.550781 75.742188 21 C 75.640625 21.496094 75.792969 21.996094 76.039062 22.195312 C 76.734375 22.59375 77.183594 20.902344 76.535156 20.253906 C 76.238281 19.953125 75.988281 19.804688 75.941406 19.90625 Z M 75.941406 19.90625 "/>
<path style=" stroke:none;fill-rule:nonzero;fill:rgb(0%,0%,0%);fill-opacity:1;" d="M 83.242188 20.351562 C 83.042969 20.703125 82.992188 21.097656 83.140625 21.25 C 83.589844 21.695312 84.085938 21.050781 83.835938 20.351562 C 83.636719 19.804688 83.539062 19.804688 83.242188 20.351562 Z M 83.242188 20.351562 "/>
<path style=" stroke:none;fill-rule:nonzero;fill:rgb(0%,0%,0%);fill-opacity:1;" d="M 68.539062 21.398438 C 68.539062 21.648438 68.738281 21.894531 68.988281 21.894531 C 69.285156 21.894531 69.632812 21.648438 69.78125 21.398438 C 69.929688 21.097656 69.730469 20.902344 69.335938 20.902344 C 68.886719 20.902344 68.539062 21.097656 68.539062 21.398438 Z M 68.539062 21.398438 "/>
<path style=" stroke:none;fill-rule:nonzero;fill:rgb(0%,0%,0%);fill-opacity:1;" d="M 86.917969 22.640625 C 86.917969 23.539062 87.117188 23.785156 87.660156 23.585938 C 88.058594 23.386719 88.40625 23.089844 88.40625 22.792969 C 88.40625 22.542969 88.207031 22.492188 87.910156 22.640625 C 87.613281 22.792969 87.5625 22.59375 87.710938 22.195312 C 87.859375 21.746094 87.761719 21.398438 87.464844 21.398438 C 87.164062 21.398438 86.917969 21.945312 86.917969 22.640625 Z M 86.917969 22.640625 "/>
<path style=" stroke:none;fill-rule:nonzero;fill:rgb(0%,0%,0%);fill-opacity:1;" d="M 90.09375 22.195312 C 90.292969 22.640625 90.195312 22.839844 89.847656 22.59375 C 89.5 22.394531 89.351562 22.542969 89.5 22.890625 C 89.898438 24.183594 90.890625 23.984375 90.890625 22.691406 C 90.890625 21.996094 90.640625 21.398438 90.34375 21.398438 C 90.046875 21.398438 89.945312 21.746094 90.09375 22.195312 Z M 90.09375 22.195312 "/>
<path style=" stroke:none;fill-rule:nonzero;fill:rgb(0%,0%,0%);fill-opacity:1;" d="M 77.332031 22.195312 C 77.132812 22.394531 76.984375 22.890625 76.984375 23.339844 C 76.984375 23.886719 77.132812 23.9375 77.53125 23.539062 C 77.828125 23.238281 78.027344 22.742188 77.878906 22.394531 C 77.777344 22.09375 77.53125 21.996094 77.332031 22.195312 Z M 77.332031 22.195312 "/>
<path style=" stroke:none;fill-rule:nonzero;fill:rgb(0%,0%,0%);fill-opacity:1;" d="M 71.519531 23.9375 C 71.519531 24.484375 71.769531 24.78125 72.015625 24.632812 C 72.316406 24.484375 72.511719 23.984375 72.511719 23.585938 C 72.511719 23.191406 72.316406 22.890625 72.015625 22.890625 C 71.769531 22.890625 71.519531 23.339844 71.519531 23.9375 Z M 71.519531 23.9375 "/>
<path style=" stroke:none;fill-rule:nonzero;fill:rgb(0%,0%,0%);fill-opacity:1;" d="M 24.832031 28.316406 C 24.832031 28.613281 25.28125 28.761719 25.828125 28.714844 C 26.371094 28.664062 26.820312 28.464844 26.820312 28.265625 C 26.820312 28.066406 26.371094 27.867188 25.828125 27.867188 C 25.28125 27.867188 24.832031 28.066406 24.832031 28.316406 Z M 24.832031 28.316406 "/>
<path style=" stroke:none;fill-rule:nonzero;fill:rgb(0%,0%,0%);fill-opacity:1;" d="M 23.839844 29.507812 C 23.839844 30.503906 25.132812 31.550781 25.578125 30.851562 C 25.726562 30.605469 25.628906 30.355469 25.378906 30.355469 C 25.082031 30.355469 24.882812 30.105469 24.980469 29.808594 C 25.03125 29.507812 24.785156 29.113281 24.484375 29.011719 C 24.136719 28.863281 23.839844 29.113281 23.839844 29.507812 Z M 23.839844 29.507812 "/>
<path style=" stroke:none;fill-rule:nonzero;fill:rgb(0%,0%,0%);fill-opacity:1;" d="M 91.636719 29.308594 C 91.335938 29.859375 92.082031 30.453125 92.578125 30.007812 C 93.027344 29.558594 92.925781 28.863281 92.429688 28.863281 C 92.132812 28.863281 91.832031 29.0625 91.636719 29.308594 Z M 91.636719 29.308594 "/>
<path style=" stroke:none;fill-rule:nonzero;fill:rgb(0%,0%,0%);fill-opacity:1;" d="M 28.160156 29.660156 C 27.761719 30.058594 28.210938 30.851562 28.855469 30.851562 C 29.105469 30.851562 29.304688 30.503906 29.304688 30.105469 C 29.304688 29.359375 28.707031 29.113281 28.160156 29.660156 Z M 28.160156 29.660156 "/>
<path style=" stroke:none;fill-rule:nonzero;fill:rgb(0%,0%,0%);fill-opacity:1;" d="M 83.441406 29.859375 C 83.441406 30.105469 83.6875 30.355469 83.9375 30.355469 C 84.234375 30.355469 84.433594 30.105469 84.433594 29.859375 C 84.433594 29.558594 84.234375 29.359375 83.9375 29.359375 C 83.6875 29.359375 83.441406 29.558594 83.441406 29.859375 Z M 83.441406 29.859375 "/>
<path style=" stroke:none;fill-rule:nonzero;fill:rgb(0%,0%,0%);fill-opacity:1;" d="M 30.644531 36.574219 C 30.296875 37.371094 31.042969 38.019531 31.785156 37.570312 C 32.285156 37.273438 31.886719 35.828125 31.289062 35.828125 C 31.089844 35.828125 30.792969 36.175781 30.644531 36.574219 Z M 30.644531 36.574219 "/>
<path style=" stroke:none;fill-rule:nonzero;fill:rgb(0%,0%,0%);fill-opacity:1;" d="M 136.085938 37.074219 C 136.085938 37.472656 136.335938 37.820312 136.582031 37.820312 C 136.882812 37.820312 137.078125 37.472656 137.078125 37.074219 C 137.078125 36.675781 136.882812 36.328125 136.582031 36.328125 C 136.335938 36.328125 136.085938 36.675781 136.085938 37.074219 Z M 136.085938 37.074219 "/>
<path style=" stroke:none;fill-rule:nonzero;fill:rgb(0%,0%,0%);fill-opacity:1;" d="M 74.847656 37.125 C 74.449219 37.519531 74.898438 38.316406 75.542969 38.316406 C 75.792969 38.316406 75.988281 37.96875 75.988281 37.570312 C 75.988281 36.824219 75.394531 36.574219 74.847656 37.125 Z M 74.847656 37.125 "/>
<path style=" stroke:none;fill-rule:nonzero;fill:rgb(0%,0%,0%);fill-opacity:1;" d="M 98.339844 39.808594 C 97.941406 40.058594 97.792969 40.40625 97.992188 40.605469 C 98.191406 40.804688 98.636719 40.707031 98.9375 40.40625 C 99.679688 39.660156 99.285156 39.214844 98.339844 39.808594 Z M 98.339844 39.808594 "/>
<path style=" stroke:none;fill-rule:nonzero;fill:rgb(0%,0%,0%);fill-opacity:1;" d="M 131.367188 41.054688 C 129.53125 42 128.636719 43.144531 128.984375 44.089844 C 129.28125 44.9375 130.722656 44.984375 131.515625 44.191406 C 132.261719 43.441406 132.3125 42.796875 131.617188 42.796875 C 131.367188 42.796875 131.121094 43.144531 131.121094 43.542969 C 131.121094 43.941406 130.773438 44.289062 130.375 44.289062 C 129.234375 44.289062 129.480469 42.894531 130.871094 42 C 131.515625 41.550781 133.40625 41.105469 135.042969 40.953125 C 137.675781 40.707031 138.074219 40.804688 138.867188 41.851562 C 140.855469 44.289062 142.492188 45.78125 143.238281 45.78125 C 143.6875 45.78125 144.035156 45.53125 144.035156 45.285156 C 144.035156 44.984375 143.636719 44.785156 143.089844 44.785156 C 142.59375 44.785156 141.351562 43.792969 140.359375 42.546875 C 138.570312 40.359375 138.421875 40.308594 135.6875 40.308594 C 134.148438 40.308594 132.210938 40.65625 131.367188 41.054688 Z M 131.367188 41.054688 "/>
<path style=" stroke:none;fill-rule:nonzero;fill:rgb(0%,0%,0%);fill-opacity:1;" d="M 101.816406 41.304688 C 101.816406 41.550781 102.066406 41.800781 102.3125 41.800781 C 102.613281 41.800781 102.808594 41.550781 102.808594 41.304688 C 102.808594 41.003906 102.613281 40.804688 102.3125 40.804688 C 102.066406 40.804688 101.816406 41.003906 101.816406 41.304688 Z M 101.816406 41.304688 "/>
<path style=" stroke:none;fill-rule:nonzero;fill:rgb(0%,0%,0%);fill-opacity:1;" d="M 133.601562 42.296875 C 133.601562 42.546875 133.851562 42.796875 134.101562 42.796875 C 134.398438 42.796875 134.597656 42.546875 134.597656 42.296875 C 134.597656 42 134.398438 41.800781 134.101562 41.800781 C 133.851562 41.800781 133.601562 42 133.601562 42.296875 Z M 133.601562 42.296875 "/>
<path style=" stroke:none;fill-rule:nonzero;fill:rgb(0%,0%,0%);fill-opacity:1;" d="M 142.046875 42.546875 C 142.046875 42.945312 142.296875 43.292969 142.542969 43.292969 C 142.839844 43.292969 143.039062 42.945312 143.039062 42.546875 C 143.039062 42.148438 142.839844 41.800781 142.542969 41.800781 C 142.296875 41.800781 142.046875 42.148438 142.046875 42.546875 Z M 142.046875 42.546875 "/>
<path style=" stroke:none;fill-rule:nonzero;fill:rgb(0%,0%,0%);fill-opacity:1;" d="M 98.339844 42.796875 C 98.339844 43.046875 98.589844 43.292969 98.835938 43.292969 C 99.132812 43.292969 99.332031 43.046875 99.332031 42.796875 C 99.332031 42.496094 99.132812 42.296875 98.835938 42.296875 C 98.589844 42.296875 98.339844 42.496094 98.339844 42.796875 Z M 98.339844 42.796875 "/>
<path style=" stroke:none;fill-rule:nonzero;fill:rgb(0%,0%,0%);fill-opacity:1;" d="M 101.320312 43.292969 C 101.320312 43.542969 101.566406 43.792969 101.816406 43.792969 C 102.113281 43.792969 102.3125 43.542969 102.3125 43.292969 C 102.3125 42.996094 102.113281 42.796875 101.816406 42.796875 C 101.566406 42.796875 101.320312 42.996094 101.320312 43.292969 Z M 101.320312 43.292969 "/>
<path style=" stroke:none;fill-rule:nonzero;fill:rgb(0%,0%,0%);fill-opacity:1;" d="M 135.09375 43.292969 C 135.09375 43.542969 135.339844 43.792969 135.589844 43.792969 C 135.886719 43.792969 136.085938 43.542969 136.085938 43.292969 C 136.085938 42.996094 135.886719 42.796875 135.589844 42.796875 C 135.339844 42.796875 135.09375 42.996094 135.09375 43.292969 Z M 135.09375 43.292969 "/>
<path style=" stroke:none;fill-rule:nonzero;fill:rgb(0%,0%,0%);fill-opacity:1;" d="M 97.097656 45.285156 C 96.949219 45.53125 97.046875 45.78125 97.296875 45.78125 C 97.59375 45.78125 97.84375 45.53125 97.84375 45.285156 C 97.84375 44.984375 97.742188 44.785156 97.644531 44.785156 C 97.496094 44.785156 97.246094 44.984375 97.097656 45.285156 Z M 97.097656 45.285156 "/>
<path style=" stroke:none;fill-rule:nonzero;fill:rgb(0%,0%,0%);fill-opacity:1;" d="M 140.804688 60.214844 C 140.65625 60.460938 140.753906 60.710938 141.003906 60.710938 C 141.300781 60.710938 141.550781 60.460938 141.550781 60.214844 C 141.550781 59.914062 141.449219 59.714844 141.351562 59.714844 C 141.203125 59.714844 140.953125 59.914062 140.804688 60.214844 Z M 140.804688 60.214844 "/>
<path style=" stroke:none;fill-rule:nonzero;fill:rgb(0%,0%,0%);fill-opacity:1;" d="M 121.683594 62.054688 C 121.1875 62.652344 121.136719 62.949219 121.585938 63.097656 C 121.933594 63.199219 122.082031 63.496094 121.882812 63.746094 C 121.734375 63.996094 121.882812 64.195312 122.179688 64.195312 C 122.527344 64.195312 122.628906 63.796875 122.429688 63.199219 C 122.179688 62.453125 122.378906 62.105469 123.273438 61.757812 C 124.265625 61.308594 124.316406 61.257812 123.421875 61.257812 C 122.875 61.257812 122.082031 61.605469 121.683594 62.054688 Z M 121.683594 62.054688 "/>
<path style=" stroke:none;fill-rule:nonzero;fill:rgb(0%,0%,0%);fill-opacity:1;" d="M 125.160156 62.652344 C 125.160156 62.949219 125.410156 63.296875 125.65625 63.449219 C 125.953125 63.597656 126.152344 63.398438 126.152344 63 C 126.152344 62.550781 125.953125 62.203125 125.65625 62.203125 C 125.410156 62.203125 125.160156 62.402344 125.160156 62.652344 Z M 125.160156 62.652344 "/>
<path style=" stroke:none;fill-rule:nonzero;fill:rgb(0%,0%,0%);fill-opacity:1;" d="M 133.601562 62.902344 C 133.601562 63.347656 133.851562 63.695312 134.101562 63.695312 C 134.398438 63.695312 134.597656 63.496094 134.597656 63.25 C 134.597656 62.949219 134.398438 62.601562 134.101562 62.453125 C 133.851562 62.304688 133.601562 62.503906 133.601562 62.902344 Z M 133.601562 62.902344 "/>
<path style=" stroke:none;fill-rule:nonzero;fill:rgb(0%,0%,0%);fill-opacity:1;" d="M 131.121094 63.496094 C 131.121094 63.894531 131.367188 64.09375 131.617188 63.945312 C 131.914062 63.796875 132.113281 63.449219 132.113281 63.148438 C 132.113281 62.902344 131.914062 62.703125 131.617188 62.703125 C 131.367188 62.703125 131.121094 63.050781 131.121094 63.496094 Z M 131.121094 63.496094 "/>
<path style=" stroke:none;fill-rule:nonzero;fill:rgb(0%,0%,0%);fill-opacity:1;" d="M 138.074219 65.6875 C 138.074219 65.9375 138.320312 66.183594 138.570312 66.183594 C 138.867188 66.183594 139.066406 65.9375 139.066406 65.6875 C 139.066406 65.386719 138.867188 65.191406 138.570312 65.191406 C 138.320312 65.191406 138.074219 65.386719 138.074219 65.6875 Z M 138.074219 65.6875 "/>
<path style=" stroke:none;fill-rule:nonzero;fill:rgb(0%,0%,0%);fill-opacity:1;" d="M 126.648438 67.230469 C 126.648438 67.480469 126.898438 67.578125 127.148438 67.429688 C 127.445312 67.28125 127.644531 67.03125 127.644531 66.882812 C 127.644531 66.78125 127.445312 66.683594 127.148438 66.683594 C 126.898438 66.683594 126.648438 66.929688 126.648438 67.230469 Z M 126.648438 67.230469 "/>
</g>
</svg>
