<?xml version="1.0"?>
<svg xmlns="http://www.w3.org/2000/svg" width="512" height="512" viewBox="0 0 128 128"><g><path d="M63.911,14.188l-1.562.625a1.75,1.75,0,0,0,1.3,3.25l1.563-.625a1.75,1.75,0,0,0-1.3-3.25Z"/><path d="M65.243,33.169,63.7,32.506a1.75,1.75,0,0,0-1.379,3.217l1.547.663a1.75,1.75,0,0,0,1.379-3.217Z"/><path d="M127.935,54.9h0a50.832,50.832,0,0,0-.553-5.3h0a50.226,50.226,0,0,0-4.314-13.9l3.709-9.131a16.553,16.553,0,0,0-3.882-18.282,6.011,6.011,0,0,0-2.314-7.119L119.255.291a1.755,1.755,0,0,0-1.181-.277A33.778,33.778,0,0,0,99.1,8.992L97.163,10.83a50.054,50.054,0,0,0-6.932-2.4A50.861,50.861,0,0,0,77.284,6.754h-2a9.007,9.007,0,0,0-10.673,0,18.952,18.952,0,0,0-14.573,7.207c-1.568-.242-4.752-1.02-5.345-3.387a1.749,1.749,0,1,0-3.394.848C42.2,15,45.556,16.5,48.019,17.12c-.125.245-.254.486-.369.737A11.934,11.934,0,0,0,44,26.249a12.368,12.368,0,0,0,4.668,9.339,13.313,13.313,0,0,0-6.911,3.305,1.75,1.75,0,0,0,2.488,2.462c1.952-1.973,5.412-2.462,6.924-2.583a18.808,18.808,0,0,0,12.648,5.879A8.667,8.667,0,0,0,69.953,47.1a8.933,8.933,0,0,0,4.778-1.37c.8.173,1.618.376,2.443.6L76.4,49.447a33.779,33.779,0,0,0,1.55,20.935,1.748,1.748,0,0,0,.823.891l1.416.721a6.011,6.011,0,0,0,7.334-1.5A16.533,16.533,0,0,0,104.338,66c3.053,3.333,9.078,21.351,10.944,26.61l-5.723,7.489a24.014,24.014,0,0,0-3.013,23.933,1.749,1.749,0,0,0,1.33,1.043,1.772,1.772,0,0,0,.28.023,1.75,1.75,0,0,0,1.312-.592l8.479-9.594,1.73,6.982a1.75,1.75,0,0,0,3.251.386A45.159,45.159,0,0,0,128,101.531V57.469q0-1.29-.065-2.566ZM109.6,66.57a7,7,0,0,0-.5.5,50.361,50.361,0,0,0-3.173-4.924A51.291,51.291,0,0,0,84.174,45.016a7.03,7.03,0,0,0,4.71-6.737,8.689,8.689,0,0,1,.552-2.448,8.783,8.783,0,0,1,1.6-1.947,8.868,8.868,0,0,0,2.657-4,8.792,8.792,0,0,0-.585-4.736,9.05,9.05,0,0,1-.571-2.5,4.845,4.845,0,0,1,.611-1.349,5.527,5.527,0,0,0,1.006-3.543,5.577,5.577,0,0,0-2.066-3.1,4.934,4.934,0,0,1-.975-1.062,4.16,4.16,0,0,1,.126-1.237,47.054,47.054,0,0,1,6.174,2.417c.294.138.587.277.877.422,1.694,4.349,2.862,7.538,2.057,13.833-1.471,7.294-1.036,12.151,1.294,14.435a4.894,4.894,0,0,0,4.645,1.213c.605-.135,1.315-.318,2.077-.516,1.582-.409,5.151-1.336,6.328-1.069a5.4,5.4,0,0,1-.814,2.365c-.564,1.087-1.416,2.729-.222,4.163,1.8,1.421,4.206,2.972,10.522,2.366q.114.962.186,1.9c-1.478.84-2.548,1.578-2.277,4.56.019.268.047.638.038.881-.231.061-.588.115-.847.154a5.062,5.062,0,0,0-2.9,1.122,7.306,7.306,0,0,0-1.611,2.918A4.685,4.685,0,0,1,116,65.1a4.558,4.558,0,0,1-1.784.131C113.485,65.3,111.266,64.99,109.6,66.57Zm-5.079-47.64c8.7,5.777,17.034,17.8,19.119,29.6a12.366,12.366,0,0,1-6.915-.95c.081-.167.176-.35.256-.506a7.685,7.685,0,0,0,1.157-4.714,2.994,2.994,0,0,0-1.312-2.11c-1.893-1.268-5.067-.58-9.343.528-.718.186-1.388.361-1.959.487a1.384,1.384,0,0,1-1.435-.295c-.5-.5-2.022-2.771-.313-11.244a24.51,24.51,0,0,0-.793-11.836C103.667,18.333,103.211,18.024,104.523,18.93Zm9.263,58.8c.363.052.956.13,1.715.277a6.266,6.266,0,0,1,2.646.872c.837,1.939.189,4.319-1.8,6.3l-2.66-7.466Zm3.823,10.986c2.014-1.816,4.29-3.967,4.409-8.008a6.434,6.434,0,0,0-1.031-3.879c-2.133-2.307-5.185-2.29-8.617-2.785-.448-1.186-.954-2.374-1.528-3.594q.166-.2.328-.4a5.139,5.139,0,0,1,1.214-1.223,5.147,5.147,0,0,1,1.714-.1,6.285,6.285,0,0,0,3.866-.73,6.144,6.144,0,0,0,2.092-3.286,6.034,6.034,0,0,1,.689-1.541c.385-.244,2.614-.175,3.755-1.178V91.167h-6.016Zm-16.1-77.184a30.259,30.259,0,0,1,16.364-7.956l.776.513a2.5,2.5,0,0,1,.64,3.566,1.751,1.751,0,0,0,.313,2.4,13.088,13.088,0,0,1,3.931,15.2l-2.6,6.4c-4.117-6.373-9.31-13.362-20.364-19.231ZM74.679,42.144a1.749,1.749,0,0,0-1.421.343,5.342,5.342,0,0,1-3.3,1.11,5.175,5.175,0,0,1-3.989-1.778,1.748,1.748,0,0,0-1.322-.639,15.391,15.391,0,0,1-13-7.529,1.73,1.73,0,0,0-.4-.459A9.09,9.09,0,0,1,47.5,26.249a8.613,8.613,0,0,1,2.845-6.137,1.754,1.754,0,0,0,.378-.55,15.471,15.471,0,0,1,14.186-9.308h.337a1.746,1.746,0,0,0,1.171-.45,5.462,5.462,0,0,1,7.074,0,1.746,1.746,0,0,0,1.171.45h2.623a47.447,47.447,0,0,1,10.568,1.192v.005a6.267,6.267,0,0,0-.07,3.216,6.238,6.238,0,0,0,1.932,2.56A5.348,5.348,0,0,1,90.7,18.28a5,5,0,0,1-.6,1.3,6.308,6.308,0,0,0-1.06,3.062,11.847,11.847,0,0,0,.737,3.566,6.252,6.252,0,0,1,.513,2.863,6.31,6.31,0,0,1-1.756,2.367A11.353,11.353,0,0,0,86.3,34.286a11.222,11.222,0,0,0-.88,3.519c-.039.288-.078.572-.122.846a4.535,4.535,0,0,1-.668,2.012,6.421,6.421,0,0,1-2.5,1.41,16.108,16.108,0,0,0-2.618,1.284A48.8,48.8,0,0,0,74.679,42.144ZM87.431,66.763a1.75,1.75,0,0,0-2.239.909,2.5,2.5,0,0,1-3.418,1.2l-.83-.423a30.267,30.267,0,0,1-1.15-18.159l.725-2.911a47.366,47.366,0,0,1,21.744,15.7A13.077,13.077,0,0,1,87.431,66.763ZM124.5,101.531a41.661,41.661,0,0,1-2.65,14.58l-1.308-5.278a1.75,1.75,0,0,0-3.01-.738l-8.7,9.847a20.516,20.516,0,0,1,3.51-17.718l5.775-7.557H124.5Z"/><path d="M64.351,109.938l-1.563.625a1.75,1.75,0,0,0,1.3,3.25l1.562-.625a1.75,1.75,0,0,0-1.3-3.25Z"/><path d="M62.757,94.831l1.547.663a1.75,1.75,0,0,0,1.379-3.217l-1.547-.663a1.75,1.75,0,0,0-1.379,3.217Z"/><path d="M86.231,86.633a1.751,1.751,0,0,0-2.475.012c-1.952,1.973-5.411,2.462-6.924,2.583a18.808,18.808,0,0,0-12.648-5.879A8.673,8.673,0,0,0,58.047,80.9a8.93,8.93,0,0,0-4.778,1.37c-.806-.173-1.619-.376-2.444-.6l.777-3.117a33.782,33.782,0,0,0-1.549-20.936,1.746,1.746,0,0,0-.824-.891l-1.416-.721a6.012,6.012,0,0,0-7.334,1.5A16.537,16.537,0,0,0,23.662,62,46.479,46.479,0,0,1,20.824,57.1a47.125,47.125,0,0,1-2.206-5.148l-.076-.216h0v0l-4.4-12.353h0l-1.42-3.983L18.441,27.9A24.014,24.014,0,0,0,21.454,3.968a1.75,1.75,0,0,0-2.922-.474l-8.479,9.594L8.323,6.106A1.75,1.75,0,0,0,5.072,5.72,45.159,45.159,0,0,0,0,26.469V70.531q0,1.29.064,2.566h0a51.111,51.111,0,0,0,.554,5.3h0A50.261,50.261,0,0,0,4.933,92.3l-3.709,9.131a16.554,16.554,0,0,0,3.881,18.282,6.014,6.014,0,0,0,2.315,7.119l1.325.875a1.759,1.759,0,0,0,1.181.277A33.778,33.778,0,0,0,28.9,119.008l1.934-1.838a50.113,50.113,0,0,0,6.933,2.4,50.861,50.861,0,0,0,12.947,1.674h2a9.007,9.007,0,0,0,10.673,0,18.955,18.955,0,0,0,14.573-7.207c1.567.242,4.752,1.02,5.345,3.387a1.75,1.75,0,0,0,1.7,1.327,1.794,1.794,0,0,0,.426-.053,1.749,1.749,0,0,0,1.272-2.122c-.893-3.574-4.253-5.072-6.716-5.7.125-.245.254-.486.369-.737A11.934,11.934,0,0,0,84,101.751a12.371,12.371,0,0,0-4.668-9.339,13.313,13.313,0,0,0,6.911-3.305A1.749,1.749,0,0,0,86.231,86.633ZM42.966,83.378a6.894,6.894,0,0,0-2.348,1.8,9.035,9.035,0,0,0-1.5,4.542,8.652,8.652,0,0,1-.553,2.448,8.748,8.748,0,0,1-1.6,1.947,8.868,8.868,0,0,0-2.657,4,8.792,8.792,0,0,0,.585,4.736,9.086,9.086,0,0,1,.571,2.5,4.845,4.845,0,0,1-.611,1.349,4.416,4.416,0,0,0,1.06,6.639,4.96,4.96,0,0,1,.975,1.062,4.16,4.16,0,0,1-.126,1.237,47.221,47.221,0,0,1-6.176-2.417c-.293-.139-.586-.278-.876-.422-1.75-4.262-3.024-8.9-2.056-13.833,1.471-7.294,1.035-12.151-1.294-14.435a4.894,4.894,0,0,0-4.645-1.213c-.6.135-1.315.318-2.077.516-1.581.409-5.148,1.338-6.328,1.069a5.4,5.4,0,0,1,.814-2.365c.563-1.087,1.416-2.729.222-4.163-2.542-2.2-6.371-2.886-10.522-2.366q-.114-.961-.186-1.9A4.377,4.377,0,0,0,5.474,72.6a5.012,5.012,0,0,0,.44-3.049c-.02-.268-.047-.638-.038-.881.231-.061.588-.115.847-.154a5.065,5.065,0,0,0,2.9-1.122,7.306,7.306,0,0,0,1.611-2.918A4.666,4.666,0,0,1,12,62.9a4.556,4.556,0,0,1,1.784-.131,7.2,7.2,0,0,0,3.271-.407,6.034,6.034,0,0,0,1.841-1.437A51.514,51.514,0,0,0,43.826,82.984C43.467,83.143,43.811,82.99,42.966,83.378Zm-28.752-33.1c-.786-.033-4.21-.791-4.361-1.149-.837-1.942-.189-4.318,1.8-6.3l2.66,7.466ZM10.391,39.287C5.3,43.2,1.985,53.99,15.63,53.959c.448,1.186.954,2.374,1.528,3.594-.111.132-.221.264-.328.4a5.139,5.139,0,0,1-1.214,1.223,5.152,5.152,0,0,1-1.714.1,6.3,6.3,0,0,0-3.866.73,6.144,6.144,0,0,0-2.092,3.286,6.034,6.034,0,0,1-.689,1.541c-.926.372-2.33.1-3.755,1.178V36.833H9.516Zm13.087,69.784c-8.7-5.776-17.036-17.8-19.12-29.6a12.357,12.357,0,0,1,6.915.95c-.081.167-.176.35-.256.506A7.685,7.685,0,0,0,9.86,85.645a2.991,2.991,0,0,0,1.312,2.11c1.893,1.268,5.068.58,9.343-.528.718-.186,1.388-.361,1.959-.487a1.387,1.387,0,0,1,1.435.3c.505.5,2.022,2.771.313,11.244a24.505,24.505,0,0,0,.793,11.835C24.334,109.667,24.787,109.975,23.478,109.071ZM40.569,61.237a1.75,1.75,0,0,0,2.239-.909,2.5,2.5,0,0,1,3.418-1.2l.83.423a30.267,30.267,0,0,1,1.15,18.159l-.725,2.911a47.373,47.373,0,0,1-21.745-15.7A13.084,13.084,0,0,1,40.569,61.237ZM3.5,26.469a41.661,41.661,0,0,1,2.65-14.58l1.308,5.278a1.75,1.75,0,0,0,3.01.738l8.7-9.847a20.516,20.516,0,0,1-3.51,17.718L9.885,33.333H3.5Zm22.99,90a30.262,30.262,0,0,1-16.364,7.956l-.776-.513a2.5,2.5,0,0,1-.64-3.566,1.75,1.75,0,0,0-.314-2.4,13.089,13.089,0,0,1-3.93-15.2l2.6-6.4A51.774,51.774,0,0,0,27.43,115.579ZM80.5,101.751a8.612,8.612,0,0,1-2.845,6.137,1.754,1.754,0,0,0-.378.55,15.471,15.471,0,0,1-14.186,9.308h-.337a1.75,1.75,0,0,0-1.172.45,5.459,5.459,0,0,1-7.072,0,1.754,1.754,0,0,0-1.172-.45H50.716a47.447,47.447,0,0,1-10.568-1.192v0a4.9,4.9,0,0,0-1.862-5.776,5.348,5.348,0,0,1-.982-1.053,5,5,0,0,1,.6-1.3,6.308,6.308,0,0,0,1.06-3.062,11.847,11.847,0,0,0-.737-3.566,6.252,6.252,0,0,1-.513-2.863,6.31,6.31,0,0,1,1.756-2.367A11.353,11.353,0,0,0,41.7,93.714a11.222,11.222,0,0,0,.88-3.519c.039-.288.078-.572.122-.846a4.523,4.523,0,0,1,.668-2.012h0a6.421,6.421,0,0,1,2.5-1.41,16.108,16.108,0,0,0,2.618-1.284,49.088,49.088,0,0,0,4.833,1.214,1.755,1.755,0,0,0,1.421-.344,5.342,5.342,0,0,1,3.305-1.11,5.172,5.172,0,0,1,3.989,1.778,1.748,1.748,0,0,0,1.322.639,15.388,15.388,0,0,1,13,7.529,1.751,1.751,0,0,0,.4.459A9.09,9.09,0,0,1,80.5,101.751Z"/></g></svg>
