<?xml version="1.0" encoding="UTF-8"?>
<svg xmlns="http://www.w3.org/2000/svg" xmlns:xlink="http://www.w3.org/1999/xlink" width="256pt" height="256pt" viewBox="0 0 256 256" version="1.1">
<g id="surface1">
<path style=" stroke:none;fill-rule:nonzero;fill:rgb(0%,0%,0%);fill-opacity:1;" d="M 105.660156 126.433594 L 54.671875 106.011719 C 48.464844 111.402344 44.972656 119.035156 44.972656 127.464844 C 44.972656 135.902344 48.464844 143.542969 54.675781 148.933594 L 105.558594 128.582031 C 105.554688 128.382812 105.5 128.199219 105.5 128 C 105.5 127.464844 105.621094 126.960938 105.660156 126.433594 Z M 105.660156 126.433594 "/>
<path style=" stroke:none;fill-rule:nonzero;fill:rgb(0%,0%,0%);fill-opacity:1;" d="M 164.679688 60.449219 L 142.917969 111.285156 C 143.382812 111.699219 143.847656 112.097656 144.273438 112.546875 L 195.023438 90.800781 C 196.269531 73.164062 181.078125 59.101562 164.679688 60.449219 Z M 164.679688 60.449219 "/>
<path style=" stroke:none;fill-rule:nonzero;fill:rgb(0%,0%,0%);fill-opacity:1;" d="M 111.085938 142.679688 L 60.976562 164.144531 C 59.785156 181.03125 73.898438 195.664062 91.328125 194.496094 L 112.769531 144.460938 C 112.167969 143.902344 111.625 143.296875 111.085938 142.679688 Z M 111.085938 142.679688 "/>
<path style=" stroke:none;fill-rule:nonzero;fill:rgb(0%,0%,0%);fill-opacity:1;" d="M 106.539062 54.148438 L 127.113281 105.589844 C 127.414062 105.578125 127.695312 105.5 128 105.5 C 128.304688 105.5 128.585938 105.578125 128.886719 105.589844 L 149.460938 54.148438 C 138.679688 41.726562 117.320312 41.726562 106.539062 54.148438 Z M 106.539062 54.148438 "/>
<path style=" stroke:none;fill-rule:nonzero;fill:rgb(0%,0%,0%);fill-opacity:1;" d="M 128 120.5 C 123.863281 120.5 120.5 123.863281 120.5 128 C 120.5 132.136719 123.863281 135.5 128 135.5 C 132.136719 135.5 135.5 132.136719 135.5 128 C 135.5 123.863281 132.136719 120.5 128 120.5 Z M 128 120.5 "/>
<path style=" stroke:none;fill-rule:nonzero;fill:rgb(0%,0%,0%);fill-opacity:1;" d="M 91.320312 60.449219 C 74.707031 59.074219 59.746094 73.355469 60.976562 90.800781 L 111.726562 112.546875 C 112.152344 112.097656 112.617188 111.699219 113.082031 111.285156 Z M 91.320312 60.449219 "/>
<path style=" stroke:none;fill-rule:nonzero;fill:rgb(0%,0%,0%);fill-opacity:1;" d="M 201.328125 106.011719 L 150.339844 126.433594 C 150.378906 126.960938 150.5 127.464844 150.5 128 C 150.5 128.191406 150.449219 128.371094 150.441406 128.566406 L 201.328125 148.933594 C 207.535156 143.542969 211.027344 135.902344 211.027344 127.464844 C 211.027344 119.035156 207.535156 111.402344 201.328125 106.011719 Z M 201.328125 106.011719 "/>
<path style=" stroke:none;fill-rule:nonzero;fill:rgb(0%,0%,0%);fill-opacity:1;" d="M 129.289062 150.367188 C 128.855469 150.394531 128.441406 150.5 128 150.5 C 127.5625 150.5 127.152344 150.394531 126.722656 150.371094 L 106.539062 200.800781 C 117.320312 213.210938 138.679688 213.21875 149.460938 200.796875 Z M 129.289062 150.367188 "/>
<path style=" stroke:none;fill-rule:nonzero;fill:rgb(0%,0%,0%);fill-opacity:1;" d="M 128 0 C 57.695312 0 0 57.695312 0 128 C 0 198.304688 57.695312 256 128 256 C 198.304688 256 256 198.304688 256 128 C 256 57.695312 198.304688 0 128 0 Z M 209.824219 161.367188 C 212.78125 188.917969 189.527344 212.230469 161.898438 209.296875 C 153.664062 219.507812 141.265625 225.5 128 225.5 C 114.734375 225.5 102.335938 219.507812 94.101562 209.300781 C 66.328125 212.21875 43.230469 188.816406 46.175781 161.371094 C 35.957031 153.136719 29.972656 140.738281 29.972656 127.464844 C 29.972656 114.199219 35.964844 101.800781 46.175781 93.574219 C 43.214844 66.136719 66.382812 42.679688 94.101562 45.648438 C 102.335938 35.4375 114.734375 29.445312 128 29.445312 C 141.265625 29.445312 153.664062 35.4375 161.898438 45.648438 C 189.269531 42.667969 212.816406 65.863281 209.824219 93.574219 C 220.035156 101.800781 226.027344 114.199219 226.027344 127.464844 C 226.027344 140.738281 220.042969 153.136719 209.824219 161.367188 Z M 209.824219 161.367188 "/>
<path style=" stroke:none;fill-rule:nonzero;fill:rgb(0%,0%,0%);fill-opacity:1;" d="M 195.023438 164.136719 L 144.917969 142.671875 C 144.378906 143.292969 143.835938 143.894531 143.234375 144.453125 L 164.679688 194.496094 C 181.734375 195.679688 196.234375 181.335938 195.023438 164.136719 Z M 195.023438 164.136719 "/>
</g>
</svg>
