<?xml version="1.0" encoding="UTF-8"?>
<svg xmlns="http://www.w3.org/2000/svg" xmlns:xlink="http://www.w3.org/1999/xlink" width="225pt" height="225pt" viewBox="0 0 225 225" version="1.1">
<g id="surface1">
<path style=" stroke:none;fill-rule:nonzero;fill:rgb(0%,0%,0%);fill-opacity:1;" d="M 142.5 20.960938 C 142.5 21.375 143.476562 22.199219 144.636719 22.800781 C 146.851562 23.960938 153.9375 31.3125 155.324219 33.898438 C 156.039062 35.210938 155.960938 35.289062 154.613281 34.574219 C 152.773438 33.601562 150 33.488281 150 34.425781 C 150 34.761719 150.976562 35.476562 152.136719 35.960938 C 153.335938 36.449219 155.398438 37.949219 156.710938 39.335938 L 159.113281 41.8125 L 157.011719 41.4375 C 154.949219 41.023438 154.988281 41.175781 158.511719 44.925781 C 162.675781 49.425781 162.675781 50.398438 158.511719 47.8125 C 152.585938 44.175781 146.324219 42 141.710938 42 C 137.136719 42 135.261719 43.460938 139.6875 43.574219 L 142.125 43.613281 L 140.0625 44.363281 C 136.085938 45.824219 137.550781 47.25 143.0625 47.25 C 149.324219 47.289062 151.539062 47.8125 151.011719 49.199219 C 150.75 49.835938 151.351562 50.511719 152.585938 51 C 153.675781 51.414062 154.425781 52.050781 154.199219 52.386719 C 153.976562 52.726562 154.6875 53.4375 155.738281 53.925781 C 159 55.386719 166.085938 61.199219 168.375 64.238281 L 170.550781 67.125 L 167.210938 64.125 C 156.488281 54.414062 148.125 50.25 139.425781 50.25 C 133.273438 50.25 132.335938 51.113281 137.101562 52.425781 L 140.625 53.363281 L 138.1875 54.414062 C 134.363281 56.023438 135.300781 56.476562 141.1875 55.949219 C 146.175781 55.539062 146.476562 55.574219 144.75 56.550781 C 143.324219 57.375 143.136719 57.710938 144 58.011719 C 144.636719 58.199219 147.488281 59.0625 150.375 59.925781 C 156.789062 61.835938 158.324219 62.699219 156.863281 63.636719 C 155.699219 64.425781 156.226562 64.835938 159.375 65.550781 C 161.398438 66.039062 170.25 73.800781 170.25 75.113281 C 170.25 75.414062 168.226562 74.25 165.710938 72.523438 C 162.523438 70.351562 161.023438 69.675781 160.613281 70.3125 C 160.199219 70.988281 158.925781 70.835938 155.476562 69.75 C 149.851562 68.023438 143.550781 67.460938 143.8125 68.773438 C 143.886719 69.300781 142.761719 69.898438 141.1875 70.199219 C 137.699219 70.835938 129.75 74.738281 129.75 75.824219 C 129.75 76.238281 130.351562 76.425781 131.0625 76.238281 C 131.773438 76.011719 133.574219 75.675781 135 75.414062 L 137.625 75 L 135.375 76.199219 C 132.9375 77.476562 127.238281 85.050781 127.648438 86.363281 C 127.800781 86.8125 129.75 85.613281 131.960938 83.699219 C 136.386719 79.949219 136.914062 79.800781 135.789062 82.761719 C 134.773438 85.386719 135.710938 85.273438 138.414062 82.425781 C 139.648438 81.148438 141.898438 79.460938 143.4375 78.675781 C 146.210938 77.25 147.113281 77.585938 145.351562 79.351562 C 144.75 79.949219 144.75 80.25 145.273438 80.25 C 145.6875 80.25 146.4375 79.800781 146.925781 79.199219 C 149.4375 76.199219 163.6875 75.523438 166.3125 78.300781 C 167.585938 79.648438 167.550781 79.6875 166.125 79.125 C 162.601562 77.8125 153.488281 77.699219 153.976562 79.011719 C 154.351562 79.988281 153.976562 80.25 152.023438 80.25 C 148.6875 80.289062 143.886719 81.488281 143.289062 82.425781 C 143.023438 82.875 140.699219 84.261719 138.148438 85.539062 C 132.675781 88.273438 132.113281 89.585938 136.6875 88.875 L 139.875 88.351562 L 137.023438 90.75 C 134.738281 92.699219 130.5 99.226562 130.5 100.835938 C 130.5 101.8125 132.414062 101.136719 134.023438 99.601562 L 135.789062 97.949219 L 134.664062 101.136719 C 131.699219 109.539062 132.601562 115.164062 135.75 107.8125 C 137.4375 103.875 143.625 93.75 144.335938 93.75 C 144.5625 93.75 144.1875 95.101562 143.511719 96.789062 C 142.351562 99.75 142.726562 102 144.039062 99.675781 C 145.800781 96.523438 151.613281 89.25 152.363281 89.25 C 152.886719 89.25 152.738281 89.8125 151.988281 90.636719 C 151.3125 91.386719 150.75 92.210938 150.75 92.511719 C 150.75 93.675781 152.886719 92.851562 154.574219 91.050781 C 155.550781 89.960938 157.351562 88.425781 158.511719 87.5625 L 160.6875 86.023438 L 160.164062 87.636719 C 159.488281 89.8125 159.898438 89.699219 163.835938 86.664062 C 170.25 81.789062 171.976562 82.125 169.125 87.710938 C 168.074219 89.851562 167.25 92.175781 167.363281 92.851562 C 167.4375 93.5625 167.289062 94.914062 166.949219 95.886719 C 166.199219 98.101562 166.875 98.773438 168.449219 97.425781 C 169.460938 96.601562 169.386719 97.050781 168.113281 99.523438 C 165.414062 104.851562 166.050781 106.574219 169.273438 102.710938 C 171.898438 99.5625 172.125 100.3125 169.914062 105.074219 C 167.738281 109.726562 167.210938 113.960938 169.164062 111.414062 C 169.761719 110.625 170.960938 109.914062 171.863281 109.835938 C 174.9375 109.613281 177.5625 104.699219 175.125 103.761719 C 174.488281 103.539062 174 102.414062 174 101.175781 C 174 98.738281 172.914062 98.398438 170.398438 100.164062 C 168.039062 101.8125 168.335938 100.5 171.335938 96.074219 C 174.039062 92.0625 173.773438 91.386719 170.4375 93.5625 C 168.261719 94.988281 168.335938 94.648438 171.1875 90.523438 C 172.835938 88.164062 172.460938 87 170.550781 88.574219 C 169.613281 89.363281 169.6875 88.914062 170.925781 86.625 C 172.726562 83.210938 172.949219 79.011719 171.488281 75.523438 C 169.164062 70.125 155.023438 58.574219 150.601562 58.5 C 149.925781 58.5 149.101562 58.125 148.800781 57.636719 C 148.425781 57.039062 149.0625 56.925781 151.011719 57.300781 C 152.511719 57.601562 153.75 57.636719 153.75 57.414062 C 153.75 56.4375 147.976562 54.75 144.488281 54.675781 C 142.351562 54.675781 141.039062 54.449219 141.5625 54.261719 C 143.101562 53.625 142.648438 52.6875 140.550781 52.164062 C 136.761719 51.226562 139.386719 50.925781 144.074219 51.75 C 152.324219 53.25 169.5 65.25 171.824219 71.101562 C 172.199219 72.039062 172.914062 72.710938 173.4375 72.601562 C 175.875 72.074219 177.75 75.226562 177.75 79.875 C 177.75 83.8125 178.125 85.011719 180.335938 88.539062 C 183.488281 93.449219 183.5625 93.976562 181.125 92.851562 C 178.425781 91.613281 178.085938 92.550781 180.1875 95.398438 C 182.585938 98.625 183.5625 101.136719 181.875 99.75 C 180.261719 98.398438 179.585938 99.375 180.601562 101.585938 C 181.050781 102.601562 181.613281 105.226562 181.835938 107.398438 C 182.210938 110.773438 182.136719 111.074219 181.425781 109.3125 C 180.113281 105.898438 179.4375 106.988281 180.1875 111.335938 C 180.636719 114.074219 180.636719 115.835938 180.074219 116.773438 C 179.4375 117.898438 179.289062 117.601562 179.25 115.125 C 179.210938 109.050781 177.1875 104.664062 175.875 107.8125 C 174.898438 110.136719 173.886719 141.976562 173.664062 176.476562 C 173.550781 194.925781 173.289062 210.226562 173.101562 210.414062 C 171.601562 211.914062 170.664062 207.5625 170.550781 198.636719 C 170.511719 193.3125 170.289062 188.773438 170.0625 188.550781 C 169.3125 187.800781 168.636719 199.726562 169.125 204.824219 C 169.425781 207.675781 169.539062 210 169.386719 210.039062 C 167.585938 210.261719 49.875 212.136719 49.6875 211.949219 C 48.5625 210.824219 50.0625 112.460938 51.1875 111.300781 C 51.675781 110.8125 52.164062 113.289062 52.914062 120.335938 C 53.476562 125.625 55.425781 124.574219 55.613281 118.914062 C 55.648438 117.1875 55.835938 116.625 56.023438 117.5625 C 56.886719 122.023438 57.898438 118.835938 57.601562 112.574219 C 57.335938 107.0625 57.488281 105.976562 58.351562 106.3125 C 59.773438 106.835938 58.988281 102.824219 56.851562 98.625 L 55.351562 95.625 L 57.300781 97.425781 C 60.601562 100.539062 60.449219 98.476562 56.773438 91.460938 C 54.449219 87 53.25 83.773438 53.25 81.976562 L 53.25 79.238281 L 55.5 81.375 C 56.738281 82.539062 59.023438 86.175781 60.5625 89.363281 C 63.488281 95.476562 64.914062 96.824219 64.351562 93 C 63.9375 90.148438 65.324219 91.164062 67.125 95.023438 C 68.0625 96.9375 68.585938 97.425781 69.039062 96.710938 C 69.488281 95.960938 70.011719 96.375 71.023438 98.175781 C 74.175781 103.914062 76.613281 105.414062 74.925781 100.574219 C 73.613281 96.824219 74.699219 96.976562 77.023438 100.835938 C 80.511719 106.726562 81.148438 107.324219 80.773438 104.363281 L 80.476562 101.8125 L 81.863281 103.613281 C 82.648438 104.585938 84.449219 107.136719 85.914062 109.3125 C 90.148438 115.613281 90.75 114.976562 88.351562 106.613281 C 86.0625 98.511719 77.210938 89.550781 65.023438 82.949219 C 60.5625 80.550781 57.074219 78.414062 57.261719 78.261719 C 57.710938 77.773438 66.636719 79.949219 69.824219 81.300781 C 72.75 82.5 74.023438 82.164062 72.636719 80.511719 C 71.324219 78.9375 73.273438 79.238281 76.273438 81.074219 C 79.5 83.0625 80.289062 82.460938 77.738281 79.914062 C 74.4375 76.613281 80.210938 78.414062 84.523438 82.011719 C 87.9375 84.9375 88.3125 83.136719 85.011719 79.5 L 82.238281 76.425781 L 84.449219 76.949219 C 85.648438 77.210938 87.601562 77.960938 88.800781 78.5625 C 90.75 79.539062 90.9375 79.539062 90.523438 78.488281 C 89.925781 76.914062 93.414062 78.1875 95.773438 80.363281 C 96.636719 81.226562 97.761719 81.675781 98.210938 81.414062 C 101.023438 79.648438 93.675781 72.523438 87.375 70.949219 C 80.324219 69.1875 79.613281 69.226562 61.164062 72.449219 C 52.761719 73.914062 53.625 72.636719 63.601562 68.960938 C 64.949219 68.4375 65.925781 67.6875 65.773438 67.199219 C 65.625 66.75 66.523438 66 67.800781 65.511719 C 69.074219 65.0625 70.050781 64.3125 69.9375 63.824219 C 69.824219 63.335938 70.761719 63 72.1875 63 C 75.414062 63 85.574219 59.960938 85.050781 59.136719 C 84.824219 58.800781 85.6875 58.5 86.960938 58.5 C 89.738281 58.5 89.886719 57.449219 87.375 55.800781 C 85.949219 54.898438 84.636719 54.675781 82.3125 55.050781 C 79.351562 55.539062 79.238281 55.5 80.625 54.449219 C 82.460938 53.0625 80.8125 52.800781 77.738281 53.960938 C 76.3125 54.488281 75.789062 54.414062 75.449219 53.550781 C 75.074219 52.574219 74.773438 52.574219 72.824219 53.585938 C 71.136719 54.449219 70.539062 54.523438 70.273438 53.8125 C 69.675781 52.050781 64.761719 55.5 57.789062 62.625 C 54.074219 66.414062 51 69.414062 51 69.261719 C 51 68.476562 55.164062 60.789062 57.148438 57.9375 C 58.351562 56.175781 59.136719 54.449219 58.914062 54.074219 C 58.6875 53.738281 59.25 52.5 60.1875 51.335938 C 61.273438 49.914062 61.539062 49.125 60.898438 48.9375 C 60.226562 48.710938 60.300781 48.226562 61.125 47.023438 C 62.550781 45 62.550781 44.25 61.125 44.25 C 60.148438 44.25 60.226562 43.761719 61.5 41.25 C 62.925781 38.476562 62.886719 37.914062 61.238281 38.175781 C 60.898438 38.25 61.6875 36.414062 63 34.085938 C 64.351562 31.800781 65.210938 29.738281 64.988281 29.476562 C 64.761719 29.25 65.0625 28.085938 65.664062 26.886719 C 67.425781 23.550781 65.175781 24.074219 61.988281 27.789062 C 59.585938 30.636719 59.363281 30.75 58.875 29.289062 C 58.273438 27.335938 57 28.011719 57 30.335938 C 57 31.3125 56.324219 33.5625 55.5 35.363281 C 54.449219 37.761719 54.039062 38.175781 54 36.9375 C 54 34.988281 52.875 34.6875 52.199219 36.449219 C 51.9375 37.085938 51.75 40.199219 51.710938 43.386719 L 51.675781 49.125 L 50.550781 46.5 C 49.050781 43.050781 47.289062 45 47.175781 50.210938 L 47.136719 53.625 L 45.789062 49.875 C 44.851562 47.210938 44.101562 46.199219 43.238281 46.351562 C 42.5625 46.460938 42 46.085938 42 45.488281 C 42 44.925781 41.363281 44.25 40.539062 44.0625 C 39.488281 43.761719 39.039062 42.898438 38.851562 40.761719 C 38.738281 39.1875 38.324219 38.023438 37.988281 38.25 C 37.648438 38.4375 36.863281 37.6875 36.300781 36.5625 C 35.699219 35.4375 34.761719 34.5 34.199219 34.5 C 33.1875 34.5 28.574219 27.5625 26.886719 23.550781 C 26.0625 21.523438 25.949219 21.488281 25.6875 23.023438 C 25.539062 23.925781 25.800781 25.425781 26.289062 26.324219 C 26.960938 27.601562 26.210938 27.300781 22.726562 24.863281 C 18.488281 21.863281 16.5 21.074219 16.5 22.351562 C 16.5 22.6875 17.925781 23.960938 19.6875 25.199219 C 24.710938 28.726562 32.324219 38.023438 28.539062 36.039062 C 26.699219 35.023438 24 35.023438 24 36 C 24 36.414062 25.085938 37.199219 26.4375 37.761719 C 29.585938 39.113281 34.050781 43.648438 31.613281 42.976562 C 29.25 42.375 29.585938 43.199219 33.414062 47.4375 C 36.636719 51.039062 37.5 53.363281 34.648438 50.773438 C 31.726562 48.113281 21.449219 44.0625 16.726562 43.6875 C 11.664062 43.273438 10.164062 44.398438 14.4375 45.375 L 16.875 45.9375 L 14.699219 46.425781 C 9.074219 47.585938 12.449219 49.351562 20.398438 49.386719 C 25.164062 49.386719 27.074219 50.023438 25.386719 51.074219 C 24.636719 51.523438 25.011719 51.9375 26.773438 52.539062 C 28.238281 53.023438 29.023438 53.738281 28.800781 54.335938 C 28.574219 54.898438 29.136719 55.5 30.148438 55.800781 C 32.550781 56.4375 40.726562 63.148438 42.789062 66.148438 L 44.476562 68.625 L 41.550781 65.925781 C 31.613281 56.699219 23.25 52.425781 14.960938 52.238281 C 8.398438 52.125 7.011719 53.023438 11.625 54.375 L 14.625 55.273438 L 12.5625 56.136719 C 9.074219 57.5625 10.238281 58.386719 15.1875 58.011719 C 18.523438 57.75 19.539062 57.863281 18.789062 58.386719 C 17.324219 59.4375 17.476562 59.511719 23.960938 61.460938 C 29.210938 63.039062 33.710938 65.25 31.648438 65.25 C 29.773438 65.25 30.863281 66.636719 33.148438 67.164062 C 35.4375 67.648438 44.25 75.1875 44.25 76.613281 C 44.25 76.988281 42.523438 76.085938 40.425781 74.625 C 36.75 72.113281 33.898438 71.136719 34.875 72.75 C 35.136719 73.164062 33.5625 72.824219 31.386719 71.960938 C 25.875 69.789062 17.25 69.074219 17.25 70.761719 C 17.25 71.550781 16.648438 72 15.636719 72 C 13.800781 72 4.761719 76.199219 4.050781 77.363281 C 3.75 77.851562 4.875 77.960938 7.238281 77.664062 C 10.460938 77.25 10.6875 77.289062 9.226562 78.148438 C 7.726562 79.050781 1.5 87.039062 1.5 88.050781 C 1.5 88.949219 3.039062 88.460938 4.351562 87.148438 C 5.0625 86.4375 6.9375 84.863281 8.476562 83.664062 L 11.289062 81.523438 L 10.5 83.625 C 9.300781 86.738281 10.199219 86.8125 13.3125 83.851562 C 17.25 80.101562 20.625 78.414062 19.761719 80.625 C 19.199219 82.085938 19.648438 82.050781 22.6875 80.25 C 27.375 77.511719 39.226562 77.585938 40.949219 80.398438 C 41.324219 80.960938 40.949219 81.074219 39.675781 80.699219 C 33.488281 78.9375 26.773438 79.3125 28.460938 81.335938 C 29.175781 82.199219 28.613281 82.386719 24.824219 82.386719 C 20.289062 82.425781 16.875 83.511719 17.585938 84.710938 C 17.8125 85.050781 17.101562 85.574219 15.976562 85.835938 C 13.273438 86.511719 7.5 89.960938 7.5 90.898438 C 7.5 91.3125 8.101562 91.425781 8.8125 91.164062 C 13.835938 89.210938 14.738281 89.699219 11.398438 92.625 C 8.175781 95.4375 5.25 100.125 5.25 102.488281 C 5.25 103.574219 5.476562 103.539062 6.976562 102.113281 C 9.523438 99.75 9.789062 100.085938 8.664062 104.0625 C 5.625 114.863281 6.898438 116.210938 11.476562 107.023438 C 13.351562 103.238281 15.9375 98.925781 17.210938 97.5 L 19.5 94.875 L 18.039062 98.210938 C 15.789062 103.5 17.0625 103.273438 20.960938 97.726562 C 24.5625 92.585938 27 89.960938 27 91.273438 C 27 91.648438 26.625 92.324219 26.175781 92.773438 C 23.699219 95.25 26.363281 94.988281 29.25 92.476562 C 35.25 87.375 35.625 87.113281 34.613281 89.0625 C 33.375 91.351562 34.351562 91.199219 37.988281 88.539062 C 44.738281 83.550781 45.976562 83.960938 43.085938 90.261719 C 42 92.585938 41.324219 94.800781 41.585938 95.175781 C 41.8125 95.550781 41.699219 96.710938 41.289062 97.726562 C 40.3125 100.3125 41.289062 100.949219 42.9375 98.851562 C 43.914062 97.648438 43.726562 98.363281 42.414062 101.023438 C 39.636719 106.761719 39.863281 108.148438 43.125 105 C 44.550781 103.613281 45.75 102.601562 45.75 102.789062 C 45.75 102.976562 44.925781 105.148438 43.875 107.625 C 42.863281 110.101562 42.039062 112.539062 42 113.0625 C 42 114.523438 43.351562 114.148438 43.835938 112.574219 C 44.136719 111.636719 44.773438 111.261719 45.710938 111.523438 C 48.75 112.3125 51.375 107.511719 49.125 105.261719 C 48.488281 104.664062 48 103.3125 48 102.335938 C 48 100.085938 47.289062 100.050781 44.738281 102.039062 C 42.039062 104.175781 42.226562 103.125 45.414062 98.324219 C 48.375 93.824219 48.335938 93 45.335938 94.988281 L 43.273438 96.335938 L 44.25 94.460938 C 44.773438 93.449219 45.75 91.988281 46.425781 91.199219 C 47.550781 89.851562 47.511719 89.773438 46.011719 90.148438 C 44.398438 90.5625 44.398438 90.5625 45.710938 87.636719 C 49.539062 79.085938 39.449219 64.988281 26.363281 60.636719 C 22.574219 59.363281 22.425781 59.25 24.9375 59.476562 C 26.664062 59.625 27.675781 59.398438 27.523438 58.914062 C 27.1875 57.9375 22.125 56.398438 18.898438 56.324219 C 17.511719 56.289062 16.613281 55.949219 16.835938 55.574219 C 17.0625 55.199219 16.3125 54.523438 15.1875 54.113281 L 13.125 53.363281 L 15.75 53.324219 C 23.476562 53.175781 46.5 68.324219 46.5 73.539062 C 46.5 74.023438 47.136719 74.136719 48 73.875 C 49.050781 73.539062 49.5 73.726562 49.5 74.550781 C 49.5 75.148438 50.101562 76.011719 50.8125 76.425781 C 51.863281 76.988281 52.125 78.148438 52.125 81.976562 C 52.164062 85.875 52.539062 87.335938 54.074219 89.699219 C 58.011719 95.664062 58.199219 96.261719 55.574219 94.914062 C 53.136719 93.675781 51.789062 94.460938 53.699219 96.039062 C 54.824219 97.011719 57 100.6875 57 101.664062 C 57 101.960938 56.476562 101.773438 55.875 101.25 C 54.039062 99.75 53.738281 100.875 54.976562 104.398438 C 55.613281 106.164062 56.289062 108.976562 56.511719 110.625 L 56.851562 113.625 L 55.800781 111.1875 C 54.226562 107.550781 53.960938 108.148438 54.375 114.1875 C 54.789062 120.113281 53.773438 118.835938 52.875 112.3125 C 52.351562 108.335938 50.699219 107.476562 49.949219 110.8125 C 49.726562 111.9375 49.3125 117.75 49.085938 123.75 C 48.863281 129.710938 48.375 141.863281 48.039062 150.75 C 47.699219 159.601562 47.550781 177.074219 47.699219 189.5625 C 47.925781 208.351562 47.773438 212.25 46.949219 212.25 C 45.300781 212.25 45 210.449219 45 200.175781 C 45 194.210938 44.699219 190.5 44.25 190.5 C 43.199219 190.5 43.273438 209.4375 44.324219 211.761719 C 45.148438 213.523438 45.414062 213.601562 50.886719 213.300781 C 59.960938 212.8125 157.199219 211.386719 166.011719 211.574219 C 170.398438 211.6875 174.1875 211.539062 174.449219 211.3125 C 174.710938 211.050781 175.011719 196.726562 175.085938 179.476562 C 175.273438 145.574219 176.0625 114 176.773438 111 C 177.449219 108.300781 178.273438 112.011719 178.425781 118.011719 C 178.5 123.261719 179.886719 123.449219 181.199219 118.460938 C 181.6875 116.625 182.136719 115.726562 182.175781 116.4375 C 182.210938 117.148438 182.625 117.75 183.113281 117.75 C 184.011719 117.75 183.601562 106.800781 182.585938 103.875 C 182.0625 102.375 182.0625 102.375 183.261719 103.875 C 185.101562 106.199219 184.914062 101.8125 182.960938 97.539062 L 181.425781 94.164062 L 183.1875 95.851562 C 186.824219 99.226562 185.960938 95.511719 181.3125 87.601562 C 179.925781 85.273438 179.25 83.0625 179.25 80.925781 L 179.25 77.738281 L 181.164062 79.539062 C 182.25 80.550781 184.5 84.226562 186.226562 87.710938 L 189.375 94.050781 L 189.75 91.085938 L 190.125 88.164062 L 192 91.6875 C 193.835938 95.175781 194.960938 96.148438 195.039062 94.3125 C 195.039062 93.789062 195.863281 94.914062 196.835938 96.789062 C 200.023438 102.898438 201.9375 103.386719 200.289062 97.648438 C 199.3125 94.238281 200.585938 95.25 203.363281 100.199219 C 205.761719 104.4375 207.488281 105.601562 206.699219 102.375 C 205.988281 99.523438 206.476562 100.011719 210.75 106.199219 C 215.625 113.25 216.636719 112.574219 213.789062 104.210938 C 210.449219 94.460938 202.351562 87.039062 185.8125 78.636719 C 180.414062 75.898438 185.324219 76.011719 193.460938 78.824219 C 198.335938 80.511719 200.25 80.699219 198.898438 79.351562 C 196.914062 77.363281 198.1875 77.210938 201.375 79.085938 C 204.863281 81.148438 205.875 80.511719 203.4375 77.773438 C 201.375 75.414062 205.800781 76.761719 209.324219 79.539062 C 213.789062 83.101562 214.648438 81.675781 210.601562 77.476562 C 207.863281 74.664062 209.210938 73.988281 213.261719 76.125 C 215.738281 77.4375 217.050781 77.585938 216.375 76.5 C 215.550781 75.1875 217.199219 75.675781 220.050781 77.625 C 225.261719 81.148438 225.898438 78.976562 221.136719 73.875 C 215.664062 67.914062 207.898438 66.9375 189.9375 69.976562 C 184.460938 70.914062 180 71.585938 180 71.476562 C 180 71.023438 185.886719 68.324219 188.8125 67.460938 C 190.949219 66.824219 191.960938 66.113281 191.8125 65.363281 C 191.699219 64.648438 192.523438 64.011719 194.101562 63.601562 C 195.449219 63.226562 196.386719 62.664062 196.164062 62.324219 C 195.976562 61.988281 197.363281 61.5 199.3125 61.238281 C 203.289062 60.675781 210.226562 58.425781 210.636719 57.5625 C 210.75 57.261719 211.6875 57 212.699219 57 C 214.726562 57 215.101562 55.425781 213.375 54 C 212.664062 53.398438 210.976562 53.210938 208.835938 53.4375 C 205.988281 53.773438 205.613281 53.664062 206.324219 52.761719 C 207.710938 51.113281 206.738281 50.886719 203.664062 52.164062 C 202.125 52.800781 201.074219 52.988281 201.335938 52.539062 C 202.273438 51.074219 199.648438 50.886719 197.511719 52.238281 C 196.386719 53.023438 195.675781 53.210938 195.976562 52.726562 C 196.273438 52.238281 196.164062 51.636719 195.710938 51.375 C 194.511719 50.625 187.539062 56.210938 182.25 62.210938 C 179.625 65.136719 177.335938 67.351562 177.148438 67.125 C 176.699219 66.675781 180.113281 60.1875 183.148438 55.6875 C 184.351562 53.925781 184.949219 52.5 184.5 52.5 C 184.050781 52.5 184.539062 51.335938 185.625 49.949219 C 186.898438 48.261719 187.238281 47.289062 186.675781 47.101562 C 186.039062 46.875 186.148438 46.199219 187.085938 44.773438 C 188.289062 42.9375 188.175781 42.414062 186.5625 42.675781 C 185.664062 42.789062 185.925781 41.550781 187.3125 38.960938 C 188.324219 37.085938 188.398438 36.488281 187.648438 36.226562 C 186.9375 35.960938 187.199219 34.949219 188.664062 32.476562 C 189.75 30.636719 190.761719 28.386719 190.914062 27.488281 C 191.023438 26.585938 191.363281 25.125 191.664062 24.1875 C 192.488281 21.449219 190.875 22.199219 187.574219 26.0625 C 184.949219 29.101562 184.5 29.398438 184.5 27.9375 C 184.5 27 184.164062 26.25 183.75 26.25 C 183.335938 26.25 183 26.925781 183 27.75 C 183 31.460938 179.886719 36.636719 179.023438 34.3125 C 178.3125 32.289062 177.824219 34.425781 177.636719 40.351562 C 177.449219 47.0625 177.335938 47.4375 176.210938 44.550781 C 175.011719 41.398438 173.664062 42.863281 173.25 47.699219 L 172.875 52.125 L 171.414062 47.8125 C 170.289062 44.4375 169.761719 43.6875 168.976562 44.363281 C 168.226562 45 168 44.886719 168 43.949219 C 168 43.273438 167.398438 42.75 166.613281 42.75 C 165.5625 42.75 165.074219 42 164.738281 39.824219 C 164.25 36.9375 160.914062 32.25 159.335938 32.25 C 158.851562 32.25 156.976562 29.550781 155.175781 26.289062 C 151.199219 19.050781 149.664062 18.226562 152.0625 24.601562 C 152.511719 25.726562 147.601562 22.988281 146.210938 21.335938 C 145.199219 20.101562 142.5 19.875 142.5 20.960938 Z M 62.289062 29.925781 C 60.636719 32.289062 60.300781 33.375 61.5 32.625 C 61.914062 32.363281 62.25 32.289062 62.25 32.4375 C 62.25 33.226562 58.914062 39.5625 57.898438 40.6875 C 56.476562 42.300781 57.261719 43.351562 58.914062 41.960938 C 59.960938 41.101562 60 41.210938 59.136719 43.050781 C 58.386719 44.738281 58.386719 45.226562 59.25 45.75 C 60.074219 46.273438 60.113281 46.613281 59.324219 47.550781 C 58.800781 48.1875 58.5 49.125 58.6875 49.648438 C 58.875 50.175781 58.386719 51.414062 57.636719 52.425781 C 56.886719 53.398438 56.25 54.636719 56.25 55.164062 C 56.25 55.726562 54.9375 58.574219 53.324219 61.539062 L 50.4375 66.898438 L 49.949219 63.636719 C 48.898438 56.289062 48.75 45.9375 49.726562 48.75 C 51.9375 55.164062 53.210938 54.148438 53.25 45.9375 C 53.25 42.9375 53.511719 40.5 53.886719 40.5 C 54.226562 40.5 55.273438 38.8125 56.25 36.789062 C 57.1875 34.726562 58.238281 33.1875 58.539062 33.375 C 58.835938 33.5625 59.960938 32.363281 61.050781 30.75 C 62.136719 29.101562 63.226562 27.75 63.449219 27.75 C 63.675781 27.75 63.148438 28.726562 62.289062 29.925781 Z M 159 33.824219 C 163.125 38.175781 163.5 38.8125 163.5 40.914062 C 163.5 42.261719 163.988281 43.011719 165 43.273438 C 165.824219 43.5 166.5 44.136719 166.5 44.699219 C 166.5 45.675781 167.324219 46.011719 168.488281 45.5625 C 170.023438 44.960938 176.210938 66.75 175.238281 69.335938 C 174.523438 71.210938 173.511719 70.125 172.988281 66.9375 C 172.386719 63.261719 168.636719 55.5 166.613281 53.699219 C 165.710938 52.914062 165 51.9375 165 51.488281 C 165 51.074219 163.613281 49.085938 161.960938 47.101562 C 160.273438 45.113281 159.261719 43.5 159.675781 43.5 C 160.085938 43.5 160.613281 43.835938 160.875 44.25 C 161.136719 44.664062 161.664062 45 162.074219 45 C 163.125 45 158.738281 38.773438 156.601562 37.238281 L 154.875 35.960938 L 156.636719 36.789062 C 159.414062 38.101562 159.335938 37.125 156.449219 33.335938 C 154.988281 31.386719 154.011719 29.4375 154.273438 29.023438 C 154.574219 28.5 155.0625 28.726562 155.585938 29.625 C 156 30.414062 157.574219 32.289062 159 33.824219 Z M 33.300781 35.699219 C 36.789062 39.226562 37.5 40.273438 37.5 41.960938 C 37.5 43.574219 39.1875 45.601562 42.1875 47.585938 C 45.601562 49.800781 51.335938 69.75 49.164062 71.886719 C 48.113281 72.976562 48 72.898438 48 71.363281 C 48 68.699219 43.5 58.574219 41.136719 55.875 C 39.976562 54.523438 39 53.101562 39 52.6875 C 39 52.273438 37.613281 50.398438 35.925781 48.488281 C 34.238281 46.574219 33.1875 45 33.601562 45 C 33.976562 45 34.726562 45.523438 35.25 46.125 C 35.773438 46.761719 36.375 47.136719 36.5625 46.949219 C 37.199219 46.3125 33.710938 41.324219 31.273438 39.335938 C 29.625 37.988281 29.398438 37.648438 30.636719 38.25 C 33.300781 39.5625 33.335938 38.699219 30.824219 35.210938 C 29.550781 33.488281 28.726562 31.726562 28.988281 31.3125 C 29.25 30.898438 29.773438 31.164062 30.226562 31.949219 C 30.636719 32.738281 32.023438 34.425781 33.300781 35.699219 Z M 185.476562 35.585938 C 182.625 40.875 182.398438 42.039062 184.574219 40.050781 C 186.113281 38.664062 186.113281 38.664062 185.175781 40.761719 C 184.386719 42.449219 184.386719 42.976562 185.175781 43.460938 C 185.960938 43.949219 185.925781 44.4375 184.949219 45.898438 C 184.273438 46.914062 183.9375 47.960938 184.199219 48.1875 C 184.460938 48.449219 184.011719 49.613281 183.1875 50.773438 C 182.363281 51.9375 181.6875 53.363281 181.6875 54 C 181.613281 56.664062 176.363281 64.914062 175.988281 62.960938 C 175.800781 61.949219 175.273438 59.324219 174.824219 57.113281 C 173.8125 52.3125 173.738281 46.011719 174.675781 45.414062 C 175.050781 45.1875 175.539062 46.164062 175.800781 47.550781 C 177.261719 55.238281 178.835938 51.523438 178.726562 40.6875 C 178.726562 39.75 179.023438 39 179.398438 39 C 179.773438 39 180.898438 37.238281 181.914062 35.0625 C 182.925781 32.886719 183.75 31.460938 183.75 31.835938 C 183.75 32.210938 184.125 32.175781 184.613281 31.6875 C 187.351562 28.949219 187.875 31.164062 185.476562 35.585938 Z M 152.699219 46.238281 C 159.449219 49.125 163.574219 52.835938 167.25 59.4375 L 169.011719 62.550781 L 163.5 57.898438 C 160.460938 55.351562 157.6875 53.25 157.3125 53.25 C 156.976562 53.25 156.863281 52.914062 157.125 52.460938 C 157.386719 52.050781 156.523438 51.335938 155.175781 50.851562 C 153.039062 50.101562 152.886719 49.914062 154.164062 49.5 C 157.050781 48.488281 151.351562 46.5 145.351562 46.425781 C 140.851562 46.386719 140.289062 46.238281 142.125 45.675781 C 143.363281 45.300781 144.789062 45.148438 145.3125 45.335938 C 145.835938 45.5625 146.25 45.414062 146.25 45.039062 C 146.25 44.664062 145.648438 44.210938 144.9375 44.023438 C 143.738281 43.6875 143.738281 43.648438 145.011719 43.574219 C 145.761719 43.539062 149.210938 44.738281 152.699219 46.238281 Z M 24.636719 46.988281 C 33.261719 50.4375 38.023438 54.488281 41.550781 61.386719 C 42.789062 63.75 42.636719 63.675781 37.761719 59.699219 C 34.988281 57.375 32.4375 55.5 32.101562 55.5 C 31.761719 55.5 31.5 55.011719 31.5 54.414062 C 31.5 53.851562 30.824219 53.136719 30.039062 52.875 C 29.175781 52.613281 28.726562 51.976562 28.988281 51.375 C 29.625 49.726562 24.488281 48 18.488281 47.886719 L 13.125 47.738281 L 17.25 47.289062 C 21.074219 46.835938 21.226562 46.726562 19.5 45.9375 C 15.75 44.25 19.761719 45.039062 24.636719 46.988281 Z M 198.488281 53.886719 C 196.574219 55.988281 196.988281 56.398438 199.613281 55.085938 C 201.113281 54.300781 202.125 54.148438 202.425781 54.601562 C 202.726562 55.125 204.148438 55.125 206.511719 54.710938 C 208.539062 54.335938 210.675781 54.300781 211.3125 54.636719 C 212.0625 55.085938 210.9375 55.460938 207.824219 55.800781 C 203.25 56.324219 201.75 57.414062 204.9375 57.898438 C 207.039062 58.238281 199.835938 60 196.273438 60 C 193.425781 60.039062 191.625 61.011719 192.335938 62.175781 C 192.601562 62.625 192.335938 63 191.699219 63 C 191.101562 63 190.164062 63.636719 189.601562 64.386719 C 189.074219 65.136719 186.9375 66.523438 184.914062 67.425781 C 182.851562 68.324219 180.5625 69.601562 179.8125 70.273438 C 176.175781 73.574219 176.699219 69.75 180.414062 65.851562 C 188.738281 57.113281 195.789062 50.886719 193.914062 53.925781 C 193.199219 55.085938 195 54.898438 197.25 53.625 C 199.761719 52.199219 199.949219 52.238281 198.488281 53.886719 Z M 72.335938 55.800781 C 70.164062 57.414062 71.511719 58.050781 74.136719 56.664062 C 76.800781 55.3125 77.511719 55.199219 76.875 56.289062 C 76.539062 56.8125 77.960938 56.886719 81.226562 56.550781 C 84.488281 56.210938 86.210938 56.324219 86.550781 56.925781 C 86.925781 57.488281 85.914062 57.75 83.363281 57.75 C 78.414062 57.75 75.9375 58.648438 79.125 59.289062 L 81.375 59.738281 L 78.375 60.5625 C 75.898438 61.273438 72.414062 61.761719 67.238281 62.210938 C 66.863281 62.210938 66.789062 62.738281 67.011719 63.335938 C 67.273438 64.011719 66.863281 64.613281 65.960938 64.875 C 65.175781 65.136719 64.164062 65.960938 63.789062 66.675781 C 63.414062 67.386719 61.726562 68.398438 60.074219 68.886719 C 58.425781 69.375 56.023438 70.6875 54.710938 71.773438 C 49.875 75.863281 50.773438 72.148438 56.0625 66.300781 C 62.738281 58.914062 67.5 55.011719 68.25 56.25 C 68.699219 57 69.226562 56.925781 70.574219 55.988281 C 72.710938 54.488281 74.363281 54.335938 72.335938 55.800781 Z M 154.613281 70.835938 C 156.523438 71.398438 159.113281 72.414062 160.386719 73.050781 C 163.460938 74.664062 164.738281 74.625 163.386719 73.011719 C 162.488281 71.886719 162.523438 71.851562 163.875 72.601562 C 169.539062 75.824219 169.761719 77.960938 164.210938 76.011719 C 157.6875 73.726562 145.164062 75.636719 139.988281 79.6875 C 137.699219 81.488281 137.25 81.636719 137.925781 80.398438 C 138.375 79.574219 139.164062 78.710938 139.6875 78.523438 C 140.210938 78.375 140.363281 77.925781 140.0625 77.625 C 139.761719 77.289062 137.625 78.300781 135.300781 79.835938 L 131.101562 82.613281 L 132.414062 80.398438 C 133.6875 78.226562 137.699219 75.75 139.914062 75.75 C 140.511719 75.75 141 75.414062 141 75 C 141 74.585938 139.574219 74.25 137.8125 74.210938 L 134.625 74.175781 L 136.875 72.9375 C 138.414062 72.074219 140.960938 71.664062 144.9375 71.664062 C 149.289062 71.625 150.675781 71.398438 150.414062 70.6875 C 149.960938 69.523438 150.335938 69.523438 154.613281 70.835938 Z M 213.789062 70.875 C 217.386719 72.148438 222 75.375 222 76.613281 C 222 77.175781 221.664062 77.175781 220.988281 76.574219 C 219.414062 75.261719 211.5 72.75 211.5 73.539062 C 211.5 73.949219 210.261719 74.0625 208.5 73.800781 C 205.273438 73.273438 204.449219 74.25 206.8125 75.789062 C 207.976562 76.539062 207.976562 76.539062 206.625 76.050781 C 203.699219 75 199.5 74.8125 199.5 75.75 C 199.5 76.351562 198.863281 76.5 197.625 76.199219 C 196.199219 75.824219 195.75 76.011719 195.75 76.949219 C 195.75 77.8125 195.375 78 194.4375 77.625 C 193.726562 77.324219 190.273438 76.460938 186.789062 75.675781 C 180.226562 74.210938 177.414062 72.789062 180.789062 72.675781 C 181.800781 72.636719 186.335938 72.039062 190.875 71.289062 C 201.488281 69.5625 209.625 69.414062 213.789062 70.875 Z M 31.125 73.273438 C 32.738281 73.835938 34.914062 74.8125 35.851562 75.449219 C 37.988281 76.835938 38.886719 76.3125 37.425781 74.511719 C 36.863281 73.800781 38.023438 74.324219 40.011719 75.710938 C 43.6875 78.226562 43.726562 80.664062 40.050781 78.261719 C 37.011719 76.273438 22.5 76.835938 17.8125 79.125 C 16.6875 79.648438 15.113281 79.949219 14.324219 79.726562 C 13.425781 79.5 11.511719 80.25 9.414062 81.710938 C 7.539062 83.023438 6 83.886719 6 83.625 C 6 82.164062 8.664062 79.648438 11.585938 78.375 C 15.710938 76.539062 15.898438 75.75 12.1875 75.710938 L 9.375 75.675781 L 11.625 74.4375 C 13.164062 73.613281 15.75 73.199219 19.6875 73.164062 C 25.164062 73.125 26.738281 72.675781 24.5625 71.699219 C 22.875 70.988281 28.085938 72.226562 31.125 73.273438 Z M 88.5 72.675781 C 91.238281 73.5 97.125 77.886719 96.449219 78.5625 C 96.226562 78.789062 95.585938 78.636719 95.0625 78.1875 C 92.550781 76.199219 84.1875 74.886719 79.5 75.710938 C 79.3125 75.75 79.988281 76.425781 81 77.25 L 82.875 78.675781 L 79.6875 77.585938 C 76.125 76.386719 70.5 77.4375 70.5 79.351562 C 70.5 80.0625 70.125 80.101562 69 79.5 C 68.175781 79.050781 65.550781 78.335938 63.1875 77.925781 C 57.5625 76.949219 53.773438 75.710938 54.375 75.113281 C 56.699219 72.75 82.648438 70.914062 88.5 72.675781 Z M 193.238281 84.261719 C 201.601562 88.5 211.085938 98.476562 212.550781 104.4375 C 213.226562 107.25 213.074219 107.175781 208.914062 101.664062 C 205.875 97.613281 202.726562 95.398438 204.488281 98.476562 C 204.75 98.960938 203.699219 97.949219 202.164062 96.1875 C 199.3125 92.925781 197.585938 92.585938 198.414062 95.511719 C 198.636719 96.414062 197.960938 95.699219 196.875 93.9375 C 195.789062 92.175781 194.550781 90.75 194.101562 90.75 C 193.648438 90.75 192.148438 89.476562 190.800781 87.9375 C 188.699219 85.574219 188.289062 85.351562 188.25 86.625 C 188.210938 87.710938 187.726562 87.261719 186.636719 85.125 C 185.773438 83.476562 183.675781 80.664062 181.988281 78.863281 L 178.875 75.601562 L 184.238281 79.011719 C 187.199219 80.886719 191.25 83.25 193.238281 84.261719 Z M 170.851562 79.011719 C 171 79.726562 170.625 80.25 170.023438 80.25 C 168.824219 80.25 167.8125 78.449219 168.5625 77.699219 C 169.3125 76.914062 170.625 77.664062 170.851562 79.011719 Z M 64.726562 84.414062 C 72.710938 88.988281 82.6875 97.199219 84.488281 100.726562 C 85.613281 102.863281 87.824219 108.75 87.523438 108.75 C 87.449219 108.75 85.6875 106.539062 83.625 103.875 C 79.914062 99.074219 78.75 98.136719 78.75 99.9375 C 78.75 100.425781 77.699219 99.601562 76.460938 98.0625 C 73.800781 94.835938 72.75 94.539062 72.75 96.9375 C 72.75 98.324219 72.414062 98.101562 70.914062 95.625 C 69.9375 93.976562 68.8125 92.625 68.398438 92.625 C 68.023438 92.625 66.789062 91.5 65.625 90.148438 C 64.5 88.800781 63.113281 87.824219 62.625 88.011719 C 62.101562 88.238281 61.3125 87.5625 60.863281 86.550781 C 60.414062 85.574219 58.574219 83.175781 56.8125 81.226562 C 54.789062 78.9375 54.300781 78.113281 55.5 78.9375 C 56.550781 79.613281 60.675781 82.085938 64.726562 84.414062 Z M 163.761719 79.949219 C 166.3125 80.585938 168.636719 81.375 168.976562 81.710938 C 169.648438 82.351562 166.085938 83.625 164.4375 83.324219 C 163.199219 83.136719 159.710938 85.011719 156.636719 87.523438 C 155.175781 88.726562 154.648438 88.949219 155.4375 88.050781 C 158.738281 84.226562 154.6875 85.5 149.925781 89.773438 C 148.3125 91.238281 147.1875 91.914062 147.449219 91.238281 C 149.625 85.574219 140.851562 95.175781 136.613281 103.125 C 134.25 107.476562 134.511719 103.988281 136.835938 99.335938 C 139.050781 95.023438 138.789062 94.386719 135.675781 96.675781 C 134.398438 97.613281 133.238281 98.210938 133.050781 98.023438 C 132.449219 97.460938 140.210938 89.363281 141.789062 88.875 C 143.925781 88.199219 142.800781 87 140.023438 87 C 136.726562 86.960938 138.523438 85.914062 144.75 84.261719 C 147.414062 83.550781 149.851562 82.648438 150.074219 82.273438 C 150.335938 81.898438 152.289062 81.710938 154.386719 81.863281 C 158.664062 82.164062 158.773438 82.085938 157.011719 80.136719 C 155.363281 78.300781 157.238281 78.261719 163.761719 79.949219 Z M 45.375 81 C 45.375 82.613281 43.199219 82.386719 42.863281 80.738281 C 42.675781 79.726562 42.976562 79.425781 43.988281 79.613281 C 44.738281 79.761719 45.375 80.398438 45.375 81 Z M 39.710938 82.199219 C 44.210938 83.511719 43.988281 84.863281 39.226562 85.238281 C 37.574219 85.386719 35.0625 86.398438 33.226562 87.675781 C 31.5 88.914062 30.261719 89.4375 30.488281 88.835938 C 31.3125 86.664062 28.574219 87.824219 24.636719 91.3125 C 22.425781 93.261719 21.039062 94.351562 21.5625 93.675781 C 22.914062 91.914062 21.863281 91.386719 19.761719 92.773438 C 17.773438 94.050781 14.476562 98.585938 11.023438 104.625 C 9 108.226562 8.925781 108.300781 9.414062 105.75 C 9.675781 104.289062 10.726562 101.699219 11.738281 99.9375 C 13.761719 96.414062 13.273438 95.925781 10.199219 98.324219 C 9.074219 99.226562 8.023438 99.789062 7.835938 99.601562 C 7.238281 99 11.0625 94.425781 14.136719 92.0625 C 17.550781 89.4375 17.511719 88.199219 13.988281 88.835938 C 11.738281 89.210938 11.738281 89.175781 14.625 87.75 C 16.273438 86.960938 18.824219 86.0625 20.25 85.800781 C 21.710938 85.539062 23.289062 84.824219 23.773438 84.1875 C 24.488281 83.289062 25.574219 83.136719 28.835938 83.511719 C 33.226562 84.039062 33.863281 83.699219 31.6875 82.050781 C 29.738281 80.585938 34.574219 80.664062 39.710938 82.199219 Z M 173.960938 107.664062 C 173.476562 108.261719 172.539062 108.75 171.898438 108.75 C 171 108.75 171.1875 108.300781 172.539062 106.835938 C 174.375 104.886719 175.648438 105.636719 173.960938 107.664062 Z M 48.976562 107.960938 C 48.523438 109.726562 46.6875 111.414062 45.976562 110.738281 C 45.710938 110.476562 46.273438 109.386719 47.25 108.375 C 49.386719 106.125 49.460938 106.085938 48.976562 107.960938 Z M 48.976562 107.960938 "/>
<path style=" stroke:none;fill-rule:nonzero;fill:rgb(0%,0%,0%);fill-opacity:1;" d="M 107.175781 159.5625 C 107.136719 162.75 106.949219 174.148438 106.835938 184.875 C 106.648438 196.425781 106.835938 204.824219 107.25 205.5 C 107.738281 206.210938 107.960938 197.210938 108 180.1875 C 108 165.636719 107.851562 153.75 107.625 153.75 C 107.4375 153.75 107.210938 156.375 107.175781 159.5625 Z M 107.175781 159.5625 "/>
<path style=" stroke:none;fill-rule:nonzero;fill:rgb(0%,0%,0%);fill-opacity:1;" d="M 107.175781 218.625 C 107.101562 218.8125 107.023438 219.261719 106.949219 219.5625 C 106.914062 219.863281 106.648438 220.460938 106.351562 220.875 C 106.085938 221.289062 106.351562 222.488281 106.914062 223.5 C 107.925781 225.300781 107.960938 225.261719 107.960938 221.8125 C 108 218.886719 107.550781 217.085938 107.175781 218.625 Z M 107.175781 218.625 "/>
<path style=" stroke:none;fill-rule:nonzero;fill:rgb(0%,0%,0%);fill-opacity:1;" d="M 212.101562 222.5625 C 214.6875 222.710938 218.738281 222.710938 221.101562 222.5625 C 223.460938 222.414062 221.324219 222.300781 216.375 222.300781 C 211.425781 222.300781 209.511719 222.414062 212.101562 222.5625 Z M 212.101562 222.5625 "/>
</g>
</svg>
