<?xml version="1.0" standalone="no"?>
<!DOCTYPE svg PUBLIC "-//W3C//DTD SVG 20010904//EN"
 "http://www.w3.org/TR/2001/REC-SVG-20010904/DTD/svg10.dtd">
<svg version="1.0" xmlns="http://www.w3.org/2000/svg"
 width="1207.000000pt" height="1264.000000pt" viewBox="0 0 1207.000000 1264.000000"
 preserveAspectRatio="xMidYMid meet">
<metadata>
Created by potrace 1.16, written by Peter Selinger 2001-2019
</metadata>
<g transform="translate(0.000000,1264.000000) scale(0.100000,-0.100000)"
fill="#000000" stroke="none">
<path d="M3060 9893 c0 -16 -5 -121 -10 -235 l-11 -207 62 -83 c171 -229 456
-682 648 -1028 124 -224 359 -692 469 -935 717 -1585 1171 -3373 1332 -5245
16 -187 50 -684 50 -736 0 -7 137 -11 450 -11 l450 0 0 56 c0 74 -25 411 -51
686 -235 2519 -998 4809 -2202 6609 -198 298 -418 591 -607 811 l-78 90 -245
128 c-134 70 -247 127 -251 127 -3 0 -6 -12 -6 -27z"/>
<path d="M9140 8671 l-264 -139 -84 -113 c-118 -161 -311 -453 -434 -659 -948
-1585 -1549 -3583 -1732 -5755 -20 -233 -41 -593 -35 -599 2 -2 108 -12 234
-21 197 -14 390 -33 626 -61 l57 -7 6 94 c3 52 11 166 16 254 64 994 190 1848
429 2905 36 160 168 650 244 910 84 287 266 816 410 1195 55 145 152 378 211
508 20 44 36 81 36 83 0 2 18 44 41 92 22 48 57 123 77 167 20 44 93 193 163
330 144 284 165 324 261 488 l39 68 -6 157 c-7 176 -13 242 -23 242 -4 0 -126
-63 -272 -139z"/>
</g>
</svg>
