<?xml version="1.0" encoding="UTF-8"?>
<svg xmlns="http://www.w3.org/2000/svg" xmlns:xlink="http://www.w3.org/1999/xlink" width="149pt" height="129pt" viewBox="0 0 149 129" version="1.1">
<g id="surface1">
<path style=" stroke:none;fill-rule:nonzero;fill:rgb(0%,0%,0%);fill-opacity:1;" d="M 105.046875 1.25 C 103.207031 1.796875 96.75 5.140625 95.609375 6.140625 C 95.011719 6.691406 91.089844 9.386719 87.214844 11.980469 C 85.625 13.078125 83.191406 14.925781 81.851562 16.074219 C 79.21875 18.320312 73.605469 21.964844 72.8125 21.964844 C 72.363281 21.964844 68.738281 24.261719 68.042969 24.960938 C 67.894531 25.109375 66.800781 25.910156 65.558594 26.707031 C 64.316406 27.558594 62.925781 28.554688 62.429688 29.003906 C 61.984375 29.453125 60.941406 30.101562 60.195312 30.503906 C 58.507812 31.351562 50.511719 36.492188 50.164062 36.894531 C 49.714844 37.441406 43.804688 40.9375 43.359375 40.9375 C 42.910156 40.9375 42.019531 41.535156 39.238281 43.78125 C 38.492188 44.429688 37.695312 44.929688 37.546875 44.929688 C 37.398438 44.929688 36.15625 45.679688 34.867188 46.628906 C 33.574219 47.527344 30.742188 49.125 28.65625 50.121094 C 25.230469 51.820312 23.789062 52.769531 19.070312 56.613281 C 18.226562 57.3125 16.886719 58.109375 16.09375 58.460938 C 15.296875 58.808594 14.304688 59.359375 13.90625 59.707031 C 13.507812 60.058594 11.820312 61.003906 10.183594 61.855469 C 6.507812 63.75 3.625 66.496094 3.03125 68.542969 C 2.53125 70.390625 3.625 72.636719 5.511719 73.6875 C 6.902344 74.382812 11.324219 76.382812 11.621094 76.382812 C 11.722656 76.382812 12.8125 76.832031 14.105469 77.378906 C 15.347656 77.980469 16.488281 78.429688 16.636719 78.429688 C 16.738281 78.429688 17.929688 78.878906 19.222656 79.425781 C 20.5625 80.027344 22.945312 80.925781 24.585938 81.472656 C 26.222656 82.023438 28.261719 82.722656 29.054688 83.070312 C 29.898438 83.421875 31.785156 84.167969 33.277344 84.71875 C 34.765625 85.316406 36.457031 85.917969 37 86.117188 C 37.546875 86.367188 38.242188 86.566406 38.492188 86.617188 C 39.484375 86.867188 51.453125 91.410156 52.996094 92.105469 C 53.839844 92.507812 54.78125 92.855469 55.128906 92.855469 C 55.429688 92.855469 56.71875 93.304688 58.011719 93.804688 C 61.386719 95.203125 62.230469 95.5 63.273438 95.703125 C 63.820312 95.800781 64.46875 96.050781 64.765625 96.300781 C 65.0625 96.5 66.554688 97.097656 68.042969 97.546875 C 69.535156 98.046875 71.46875 98.746094 72.265625 99.144531 C 73.109375 99.496094 77.777344 101.242188 82.695312 103.039062 C 87.613281 104.789062 93.324219 106.933594 95.359375 107.78125 C 97.394531 108.632812 99.285156 109.332031 99.480469 109.332031 C 99.730469 109.332031 100.722656 109.679688 101.71875 110.128906 C 102.761719 110.578125 104.003906 111.128906 104.546875 111.378906 C 106.484375 112.226562 111.003906 113.921875 111.75 114.074219 C 112.148438 114.171875 113.585938 114.722656 114.878906 115.320312 C 116.171875 115.921875 117.710938 116.46875 118.257812 116.570312 C 118.800781 116.667969 121.1875 117.46875 123.570312 118.316406 C 127.84375 119.863281 128.734375 120.214844 131.121094 121.210938 C 132.460938 121.761719 135.988281 123.058594 140.707031 124.757812 C 143.785156 125.90625 145.921875 125.804688 147.90625 124.507812 C 149.050781 123.757812 149.097656 123.609375 148.902344 117.417969 C 148.703125 110.976562 148.554688 109.78125 147.90625 109.332031 C 147.460938 108.980469 143.238281 97.097656 142.046875 92.707031 C 140.308594 86.566406 137.03125 76.78125 134.347656 69.890625 C 131.367188 62.203125 130.523438 59.558594 129.332031 54.664062 C 128.039062 49.171875 126.648438 44.929688 125.109375 41.835938 C 124.316406 40.289062 123.273438 37.492188 122.726562 35.59375 C 122.179688 33.746094 121.484375 31.300781 121.1875 30.203125 C 120.691406 28.457031 116.714844 15.726562 114.382812 8.238281 C 113.238281 4.644531 112.394531 3.09375 111.054688 2.246094 C 109.019531 0.898438 107.179688 0.597656 105.046875 1.25 Z M 109.566406 2.945312 C 111.601562 3.894531 111.652344 3.945312 113.488281 9.785156 C 114.480469 13.078125 116.171875 18.421875 117.214844 21.714844 C 118.257812 25.011719 119.746094 29.953125 120.492188 32.699219 C 121.238281 35.445312 122.777344 39.886719 123.96875 42.535156 C 125.160156 45.179688 126.800781 50.121094 127.644531 53.515625 C 128.488281 56.910156 130.175781 62.351562 131.46875 65.648438 C 134.644531 74.085938 140.558594 91.410156 140.558594 92.40625 C 140.558594 92.90625 142.34375 98.246094 144.53125 104.289062 C 148.054688 114.074219 148.503906 115.671875 148.503906 118.765625 C 148.503906 121.910156 148.402344 122.308594 147.210938 123.257812 C 146.46875 123.859375 145.324219 124.308594 144.578125 124.308594 C 143.882812 124.308594 139.710938 122.960938 135.339844 121.261719 C 130.972656 119.613281 124.367188 117.167969 120.691406 115.871094 C 117.015625 114.523438 108.96875 111.476562 102.808594 109.082031 C 96.652344 106.683594 88.058594 103.441406 83.6875 101.84375 C 79.316406 100.246094 66.253906 95.402344 54.632812 91.109375 C 43.011719 86.816406 31.089844 82.421875 28.160156 81.324219 C 22.199219 79.128906 12.117188 75.132812 7.847656 73.238281 C 4.519531 71.738281 3.625 70.441406 4.46875 68.394531 C 5.3125 66.398438 6.457031 65.449219 13.113281 61.65625 C 16.390625 59.808594 20.414062 57.210938 22.050781 55.914062 C 23.742188 54.617188 27.265625 52.417969 29.898438 51.019531 C 32.582031 49.625 36.109375 47.527344 37.796875 46.328125 C 39.484375 45.128906 42.910156 42.933594 45.394531 41.4375 C 47.929688 39.9375 51.304688 37.792969 52.894531 36.644531 C 54.535156 35.542969 57.316406 33.746094 59.101562 32.699219 C 60.890625 31.652344 64.121094 29.503906 66.304688 27.90625 C 68.492188 26.359375 72.214844 23.914062 74.597656 22.566406 C 76.984375 21.21875 80.660156 18.722656 82.792969 17.023438 C 93.421875 8.6875 103.902344 2.148438 106.785156 2.046875 C 107.179688 2.046875 108.472656 2.445312 109.566406 2.945312 Z M 109.566406 2.945312 "/>
<path style=" stroke:none;fill-rule:nonzero;fill:rgb(0%,0%,0%);fill-opacity:1;" d="M 101.667969 6.589844 C 96.800781 9.585938 91.785156 13.128906 85.476562 18.070312 C 83.140625 19.917969 79.316406 22.515625 76.984375 23.8125 C 74.648438 25.109375 71.074219 27.40625 69.035156 28.957031 C 67 30.503906 63.175781 33.097656 60.59375 34.695312 C 58.011719 36.292969 54.535156 38.539062 52.894531 39.738281 C 51.257812 40.886719 48.574219 42.535156 46.933594 43.484375 C 45.296875 44.382812 42.167969 46.378906 39.980469 47.976562 C 37.796875 49.523438 33.773438 51.96875 31.042969 53.367188 C 28.308594 54.765625 23.9375 57.511719 21.355469 59.507812 C 18.773438 61.453125 14.851562 64.050781 12.664062 65.296875 C 7.5 68.195312 6.902344 68.992188 9.335938 69.941406 C 20.960938 74.632812 42.316406 82.570312 58.109375 88.0625 C 61.535156 89.261719 67.101562 91.308594 70.527344 92.605469 C 73.953125 93.90625 80.410156 96.25 84.929688 97.847656 C 89.449219 99.445312 98.738281 102.890625 105.542969 105.488281 C 112.394531 108.132812 119.996094 110.828125 122.429688 111.578125 C 124.863281 112.324219 128.636719 113.722656 130.820312 114.671875 C 136.382812 117.070312 141.5 118.816406 142.890625 118.816406 C 143.535156 118.816406 144.183594 118.464844 144.382812 118.066406 C 144.53125 117.617188 143.289062 113.425781 141.648438 108.679688 C 139.960938 103.9375 138.273438 98.546875 137.824219 96.601562 C 136.632812 91.308594 133.949219 82.871094 129.382812 70.140625 C 127.097656 63.800781 124.515625 55.761719 123.671875 52.167969 C 122.777344 48.625 121.238281 43.78125 120.191406 41.4375 C 118.453125 37.542969 116.816406 32.449219 116.019531 28.707031 C 115.824219 27.855469 114.828125 24.261719 113.738281 20.71875 C 112.695312 17.125 111.105469 11.929688 110.261719 9.085938 C 108.820312 4.195312 108.671875 3.992188 107.328125 3.992188 C 106.535156 3.992188 104.152344 5.09375 101.667969 6.589844 Z M 107.976562 5.890625 C 108.074219 6.089844 108.023438 6.539062 107.828125 6.890625 C 107.628906 7.289062 107.28125 7.140625 106.882812 6.488281 C 106.386719 5.691406 106.386719 5.492188 106.980469 5.492188 C 107.378906 5.492188 107.828125 5.691406 107.976562 5.890625 Z M 108.324219 14.226562 C 109.167969 17.222656 110.804688 23.464844 112 28.054688 C 113.191406 32.648438 114.828125 37.941406 115.625 39.789062 C 117.410156 43.933594 117.910156 45.53125 118.953125 50.671875 C 119.398438 52.867188 122.875 64.152344 126.699219 75.734375 C 130.472656 87.363281 134.398438 99.996094 135.339844 103.839844 C 136.285156 107.683594 137.277344 111.277344 137.578125 111.828125 C 138.320312 113.222656 137.625 113.125 133.703125 111.277344 C 131.863281 110.429688 128.039062 108.929688 125.160156 107.984375 C 118.257812 105.6875 109.464844 102.492188 98.9375 98.546875 C 94.21875 96.75 87.761719 94.402344 84.582031 93.355469 C 76.636719 90.660156 74.101562 88.113281 74.648438 83.421875 C 74.945312 81.074219 79.070312 70.140625 83.191406 60.90625 C 84.484375 58.011719 86.570312 52.917969 87.859375 49.574219 C 89.101562 46.179688 90.246094 43.433594 90.394531 43.433594 C 90.542969 43.433594 90.59375 44.332031 90.492188 45.378906 C 90.394531 46.429688 90.394531 47.726562 90.492188 48.226562 C 90.640625 48.972656 90.839844 48.875 91.535156 47.527344 C 92.03125 46.628906 92.628906 46.027344 92.875 46.179688 C 93.175781 46.378906 93.375 47.976562 93.421875 49.824219 L 93.472656 53.167969 L 94.21875 51.269531 C 94.664062 50.273438 95.160156 49.421875 95.359375 49.421875 C 95.757812 49.421875 96.304688 52.269531 96.402344 54.664062 L 96.453125 56.164062 L 97.199219 54.414062 C 98.089844 52.367188 98.539062 52.917969 99.085938 56.664062 C 99.285156 58.011719 99.53125 58.910156 99.582031 58.660156 C 99.679688 58.359375 99.878906 57.511719 100.078125 56.710938 C 100.574219 54.464844 101.320312 55.8125 101.667969 59.609375 C 101.964844 62.953125 101.964844 62.953125 102.613281 61.453125 C 103.457031 59.40625 104.152344 59.507812 104.746094 61.753906 C 104.996094 62.800781 105.441406 64.449219 105.691406 65.398438 L 106.1875 67.144531 L 106.238281 64.648438 C 106.335938 58.660156 103.65625 52.121094 98.984375 46.925781 C 97.496094 45.28125 96.453125 43.933594 96.75 43.933594 C 97.445312 43.933594 101.71875 47.425781 102.113281 48.324219 C 102.414062 48.925781 102.5625 48.625 102.808594 47.175781 L 103.109375 45.179688 L 104.546875 47.527344 C 106.285156 50.273438 106.785156 50.472656 106.785156 48.425781 C 106.785156 46.328125 107.429688 46.578125 109.117188 49.171875 L 110.507812 51.421875 L 110.757812 49.574219 L 111.003906 47.675781 L 113.339844 49.871094 L 115.722656 52.019531 L 115.175781 50.472656 C 113.339844 45.230469 103.851562 39.4375 97 39.4375 C 96.105469 39.4375 95.359375 39.1875 95.359375 38.890625 C 95.359375 38.492188 96.15625 38.390625 97.792969 38.539062 C 99.980469 38.738281 100.175781 38.691406 99.929688 37.792969 C 99.679688 36.742188 100.128906 36.742188 102.511719 37.742188 C 103.257812 38.042969 103.40625 37.941406 103.15625 37.34375 C 102.761719 36.242188 103.257812 35.894531 104.449219 36.492188 C 105.144531 36.894531 105.492188 36.894531 105.742188 36.492188 C 105.988281 36.09375 106.882812 36.144531 108.820312 36.644531 C 110.261719 37.042969 111.550781 37.292969 111.652344 37.191406 C 111.949219 36.894531 108.125 34.894531 105.742188 34.148438 C 102.414062 33.046875 98.4375 33.449219 94.8125 35.34375 L 92.03125 36.792969 L 91.4375 34.546875 C 91.136719 33.347656 90.246094 31.699219 89.449219 30.953125 C 87.859375 29.355469 83.789062 27.957031 80.660156 27.957031 C 77.777344 27.957031 77.480469 28.753906 80.261719 29.105469 C 82.792969 29.355469 83.488281 29.804688 82.445312 30.453125 C 81.898438 30.800781 82.050781 30.953125 83.09375 30.953125 C 84.632812 30.953125 84.832031 31.652344 83.589844 32.398438 C 82.84375 32.847656 82.992188 32.898438 84.335938 32.949219 C 86.121094 32.949219 86.269531 33.25 85.179688 34.445312 C 84.53125 35.195312 84.632812 35.296875 86.171875 35.894531 C 87.117188 36.242188 87.910156 36.742188 87.910156 37.042969 C 87.910156 37.34375 87.5625 37.390625 87.066406 37.191406 C 82.792969 35.394531 75.941406 34.996094 70.578125 36.242188 C 66.253906 37.191406 63.96875 38.640625 67.945312 37.839844 C 71.023438 37.191406 71.621094 37.542969 69.980469 38.890625 C 68.539062 40.085938 68.6875 40.136719 71.273438 39.1875 C 74.300781 38.089844 74.847656 38.242188 73.507812 39.6875 C 72.117188 41.136719 72.214844 41.1875 74.996094 40.1875 C 77.777344 39.1875 78.324219 39.238281 77.332031 40.335938 C 76.140625 41.636719 76.289062 41.984375 77.777344 41.4375 C 78.472656 41.136719 80.0625 40.9375 81.355469 40.988281 C 83.636719 40.988281 83.539062 41.035156 79.367188 42.183594 C 71.816406 44.28125 65.808594 47.625 61.835938 51.917969 C 60.492188 53.367188 60.691406 53.316406 63.820312 51.171875 C 67.296875 48.824219 68.390625 48.824219 66.851562 51.21875 C 66.253906 52.070312 67 51.667969 69.136719 49.921875 C 70.824219 48.574219 72.414062 47.425781 72.664062 47.425781 C 72.910156 47.425781 72.511719 48.273438 71.71875 49.273438 C 70.277344 51.21875 70.328125 51.21875 73.902344 48.476562 C 76.335938 46.578125 76.984375 46.675781 75.640625 48.722656 C 74.898438 49.921875 75.246094 49.722656 77.726562 47.777344 C 80.757812 45.429688 81.75 45.378906 80.210938 47.726562 C 78.820312 49.871094 79.664062 49.523438 82.199219 46.925781 C 83.539062 45.53125 84.78125 44.429688 84.980469 44.429688 C 85.179688 44.429688 85.179688 45.179688 84.929688 46.027344 C 84.484375 47.625 84.484375 47.625 86.71875 45.179688 C 87.960938 43.78125 88.855469 43.035156 88.703125 43.433594 C 86.964844 48.574219 72.414062 78.378906 70.328125 81.074219 C 68.390625 83.621094 65.0625 85.066406 61.933594 84.71875 C 59.101562 84.417969 46.339844 79.976562 17.980469 69.441406 C 14.601562 68.195312 14.402344 68.042969 15.246094 67.296875 C 17.234375 65.546875 28.558594 58.210938 33.175781 55.761719 C 35.859375 54.316406 39.933594 51.71875 42.265625 50.074219 C 44.550781 48.425781 47.234375 46.628906 48.175781 46.179688 C 49.121094 45.679688 52.84375 43.332031 56.371094 40.9375 C 59.949219 38.589844 64.167969 35.792969 65.808594 34.746094 C 67.449219 33.746094 70.230469 31.699219 72.015625 30.203125 C 73.753906 28.753906 76.984375 26.609375 79.070312 25.460938 C 81.203125 24.3125 84.234375 22.367188 85.824219 21.167969 C 88.804688 18.871094 99.980469 10.734375 103.804688 8.136719 C 106.4375 6.289062 106.089844 5.792969 108.324219 14.226562 Z M 109.464844 10.785156 C 109.613281 11.433594 109.515625 11.980469 109.265625 11.980469 C 109.019531 11.980469 108.871094 11.582031 108.871094 11.082031 C 108.871094 10.632812 108.769531 9.535156 108.570312 8.738281 C 108.273438 7.4375 108.324219 7.386719 108.769531 8.386719 C 109.019531 9.035156 109.367188 10.085938 109.464844 10.785156 Z M 110.65625 15.226562 C 110.507812 15.375 110.210938 15.125 110.0625 14.628906 C 109.761719 13.929688 109.8125 13.878906 110.308594 14.328125 C 110.65625 14.675781 110.804688 15.078125 110.65625 15.226562 Z M 110.90625 16.972656 C 111.054688 17.523438 110.957031 17.871094 110.707031 17.671875 C 110.457031 17.523438 110.261719 17.074219 110.261719 16.675781 C 110.261719 15.675781 110.609375 15.824219 110.90625 16.972656 Z M 112.941406 24.0625 C 112.792969 24.261719 112.890625 24.460938 113.140625 24.460938 C 113.390625 24.460938 113.785156 25.460938 114.085938 26.707031 C 114.433594 28.355469 114.433594 28.957031 114.035156 28.957031 C 113.6875 28.957031 113.6875 29.105469 114.085938 29.355469 C 115.277344 30.101562 116.320312 34.445312 115.324219 34.445312 C 115.078125 34.445312 114.628906 33.398438 114.332031 32.050781 C 113.984375 30.753906 113.636719 29.355469 113.539062 28.957031 C 111.203125 19.96875 110.558594 15.976562 112.246094 20.96875 C 112.742188 22.464844 113.042969 23.863281 112.941406 24.0625 Z M 87.511719 31.902344 C 87.464844 32.25 87.613281 32.351562 87.910156 32.199219 C 88.65625 31.75 89.847656 33.449219 89.5 34.398438 C 89.351562 34.847656 89.449219 34.996094 89.796875 34.746094 C 90.195312 34.496094 90.394531 34.746094 90.394531 35.394531 C 90.394531 35.996094 90.742188 36.84375 91.1875 37.390625 C 91.984375 38.289062 92.082031 38.289062 94.613281 36.894531 C 97.59375 35.296875 101.320312 34.445312 101.320312 35.394531 C 101.320312 35.695312 100.871094 35.945312 100.375 35.945312 C 99.828125 35.945312 99.234375 36.144531 99.085938 36.445312 C 98.9375 36.691406 98.242188 36.941406 97.644531 36.941406 C 97 36.941406 95.957031 37.34375 95.359375 37.839844 L 94.21875 38.789062 L 95.261719 39.738281 C 95.90625 40.335938 97.148438 40.785156 98.4375 40.886719 C 99.632812 40.9375 101.21875 41.335938 102.015625 41.734375 C 102.808594 42.085938 103.703125 42.433594 103.953125 42.433594 C 104.996094 42.433594 109.613281 45.082031 110.210938 46.027344 C 111.105469 47.425781 110.410156 47.777344 108.71875 46.828125 C 107.925781 46.328125 106.882812 46.128906 106.4375 46.277344 C 105.890625 46.476562 105.742188 46.429688 105.988281 46.027344 C 106.1875 45.679688 106.089844 45.53125 105.640625 45.730469 C 105.242188 45.878906 104.699219 45.628906 104.351562 45.230469 C 103.902344 44.679688 103.40625 44.582031 102.511719 44.929688 C 101.519531 45.328125 100.921875 45.179688 99.382812 44.179688 C 97.496094 42.933594 95.855469 42.933594 95.855469 44.179688 C 95.855469 44.730469 97.496094 47.175781 98.339844 47.925781 C 99.480469 48.925781 103.554688 55.914062 102.960938 55.914062 C 102.761719 55.914062 102.859375 56.164062 103.207031 56.511719 C 103.902344 57.210938 104.003906 58.410156 103.308594 58.410156 C 103.058594 58.410156 103.007812 58.058594 103.15625 57.5625 C 103.355469 57.011719 103.308594 56.863281 102.859375 57.113281 C 102.5625 57.3125 102.3125 57.3125 102.363281 57.0625 C 102.5625 55.8125 102.164062 55.066406 100.773438 54.316406 C 99.929688 53.816406 99.433594 53.21875 99.582031 52.917969 C 99.730469 52.667969 99.632812 52.417969 99.332031 52.417969 C 99.035156 52.417969 98.886719 52.21875 99.035156 51.96875 C 99.234375 51.71875 98.886719 51.621094 98.339844 51.769531 C 97.59375 51.96875 97.347656 51.769531 97.347656 51.070312 C 97.347656 50.523438 96.699219 49.472656 95.90625 48.773438 C 94.960938 47.925781 94.464844 47.125 94.613281 46.476562 C 94.714844 45.878906 94.664062 45.480469 94.464844 45.480469 C 93.472656 45.628906 91.933594 44.730469 91.484375 43.730469 C 90.839844 42.234375 87.265625 41.984375 86.421875 43.332031 C 86.023438 43.882812 85.773438 43.980469 85.625 43.582031 C 85.328125 42.933594 84.085938 43.234375 82.894531 44.28125 C 82.445312 44.628906 81.550781 44.878906 80.90625 44.78125 C 80.261719 44.628906 79.117188 44.980469 78.375 45.480469 C 77.679688 46.027344 76.734375 46.328125 76.386719 46.179688 C 75.988281 46.027344 75.046875 46.128906 74.300781 46.429688 C 73.554688 46.675781 72.710938 46.777344 72.414062 46.628906 C 71.71875 46.179688 72.960938 45.429688 74.402344 45.429688 C 75.046875 45.429688 75.394531 45.230469 75.246094 44.929688 C 75.097656 44.628906 75.492188 44.429688 76.1875 44.429688 C 76.882812 44.429688 77.578125 44.179688 77.726562 43.882812 C 77.925781 43.632812 78.421875 43.484375 78.871094 43.582031 C 79.367188 43.683594 80.3125 43.433594 81.105469 43.082031 C 81.851562 42.734375 82.445312 42.535156 82.445312 42.683594 C 82.445312 42.785156 82.894531 42.535156 83.441406 42.085938 C 84.78125 40.9375 83.988281 40.136719 81.15625 39.789062 C 79.863281 39.6875 78.671875 39.289062 78.472656 38.941406 C 78.273438 38.589844 77.480469 38.289062 76.734375 38.289062 C 75.988281 38.289062 74.796875 37.992188 74.054688 37.640625 C 72.761719 36.941406 72.761719 36.941406 74.847656 36.941406 C 75.988281 36.941406 77.28125 36.792969 77.777344 36.59375 C 78.273438 36.394531 78.523438 36.492188 78.324219 36.742188 C 78.175781 36.992188 78.921875 37.140625 80.0625 37.042969 C 81.652344 36.84375 82 36.941406 81.703125 37.492188 C 81.402344 38.042969 81.453125 38.042969 81.949219 37.589844 C 82.347656 37.242188 82.894531 37.140625 83.390625 37.390625 C 84.730469 38.089844 87.613281 38.441406 88.308594 37.992188 C 88.804688 37.691406 88.855469 37.34375 88.355469 36.292969 C 88.007812 35.542969 87.613281 34.945312 87.414062 34.945312 C 87.214844 34.945312 86.917969 34.445312 86.769531 33.796875 C 86.667969 33.199219 86.371094 32.300781 86.171875 31.75 C 85.875 31.050781 85.972656 30.902344 86.71875 31.050781 C 87.214844 31.152344 87.613281 31.550781 87.511719 31.902344 Z M 102.808594 35.144531 C 102.808594 35.296875 102.613281 35.542969 102.3125 35.695312 C 102.066406 35.84375 101.816406 35.746094 101.816406 35.496094 C 101.816406 35.195312 102.066406 34.945312 102.3125 34.945312 C 102.613281 34.945312 102.808594 35.046875 102.808594 35.144531 Z M 116.765625 36.292969 C 117.0625 37.09375 117.3125 38.140625 117.363281 38.691406 C 117.363281 39.238281 117.609375 39.839844 117.808594 39.988281 C 118.207031 40.238281 121.1875 47.175781 121.1875 47.777344 C 121.1875 47.875 120.886719 47.824219 120.589844 47.675781 C 120.242188 47.476562 120.34375 47.675781 120.839844 48.074219 C 121.285156 48.476562 121.683594 49.023438 121.683594 49.324219 C 121.683594 49.972656 120.191406 50.523438 120.144531 49.921875 C 120.042969 49.222656 119.894531 48.773438 119.496094 47.875 C 119.300781 47.375 119.199219 46.726562 119.25 46.378906 C 119.347656 45.980469 119.148438 45.179688 118.800781 44.582031 C 118.453125 43.980469 118.257812 43.28125 118.304688 43.082031 C 118.355469 42.882812 118.058594 41.886719 117.609375 40.9375 C 117.113281 39.988281 116.714844 38.839844 116.617188 38.441406 C 116.519531 38.042969 116.320312 37.589844 116.171875 37.441406 C 115.972656 37.292969 115.722656 36.691406 115.523438 36.042969 C 114.976562 34.445312 116.121094 34.644531 116.765625 36.292969 Z M 58.109375 38.140625 C 58.109375 38.242188 57.761719 38.492188 57.316406 38.640625 C 56.917969 38.789062 56.71875 38.738281 56.867188 38.441406 C 57.167969 37.941406 58.109375 37.742188 58.109375 38.140625 Z M 39.734375 50.121094 C 39.734375 50.273438 39.535156 50.523438 39.238281 50.671875 C 38.988281 50.820312 38.738281 50.722656 38.738281 50.472656 C 38.738281 50.171875 38.988281 49.921875 39.238281 49.921875 C 39.535156 49.921875 39.734375 50.023438 39.734375 50.121094 Z M 122.179688 51.769531 C 122.179688 52.21875 122.429688 53.367188 122.777344 54.265625 C 123.273438 55.664062 123.273438 56.0625 122.675781 56.414062 C 121.734375 57.011719 121.632812 56.863281 121.335938 54.566406 C 121.1875 53.515625 120.886719 52.269531 120.640625 51.820312 C 120.34375 51.269531 120.390625 50.921875 120.839844 50.769531 C 121.683594 50.472656 122.179688 50.820312 122.179688 51.769531 Z M 36.753906 52.417969 C 36.753906 52.667969 36.554688 52.917969 36.257812 52.917969 C 36.007812 52.917969 35.761719 52.667969 35.761719 52.417969 C 35.761719 52.121094 36.007812 51.917969 36.257812 51.917969 C 36.554688 51.917969 36.753906 52.121094 36.753906 52.417969 Z M 33.773438 53.667969 C 33.773438 53.765625 33.277344 54.117188 32.679688 54.414062 C 31.589844 54.964844 31.589844 54.914062 32.480469 54.214844 C 33.523438 53.367188 33.773438 53.265625 33.773438 53.667969 Z M 28.558594 56.863281 C 28.410156 57.160156 28.011719 57.410156 27.714844 57.410156 C 27.414062 57.410156 27.414062 57.113281 27.8125 56.664062 C 28.507812 55.8125 29.105469 56.011719 28.558594 56.863281 Z M 26.671875 57.660156 C 26.671875 58.058594 26.324219 58.410156 25.925781 58.410156 C 25.328125 58.410156 25.328125 58.257812 25.828125 57.660156 C 26.175781 57.261719 26.472656 56.910156 26.570312 56.910156 C 26.621094 56.910156 26.671875 57.261719 26.671875 57.660156 Z M 123.472656 57.960938 C 123.472656 58.359375 123.820312 59.359375 124.316406 60.207031 C 124.761719 61.054688 125.210938 62.402344 125.359375 63.152344 C 125.507812 63.949219 125.804688 64.699219 126.054688 64.847656 C 126.648438 65.296875 127.742188 69.34375 127.394531 69.890625 C 127.246094 70.191406 127.296875 70.390625 127.59375 70.390625 C 128.089844 70.390625 128.933594 72.289062 128.734375 72.988281 C 128.6875 73.238281 128.886719 73.386719 129.132812 73.386719 C 129.429688 73.386719 129.628906 73.785156 129.628906 74.335938 C 129.628906 74.832031 129.976562 75.933594 130.375 76.679688 C 130.773438 77.480469 131.121094 78.527344 131.121094 78.976562 C 131.121094 79.425781 131.367188 79.976562 131.617188 80.125 C 131.914062 80.324219 132.015625 80.675781 131.816406 80.925781 C 131.667969 81.175781 131.714844 81.671875 131.964844 82.023438 C 132.710938 83.019531 133.703125 86.417969 133.355469 86.765625 C 132.410156 87.765625 130.820312 85.019531 129.878906 80.773438 C 129.777344 80.277344 129.332031 79.175781 128.933594 78.277344 C 128.488281 77.378906 128.089844 76.183594 127.992188 75.632812 C 127.890625 75.082031 127.644531 74.285156 127.496094 73.886719 C 127.148438 73.085938 125.109375 67.144531 123.96875 63.5 C 123.472656 62.054688 123.421875 61.40625 123.820312 61.40625 C 124.117188 61.40625 124.019531 61.105469 123.621094 60.753906 C 122.675781 60.007812 121.632812 57.609375 122.082031 57.210938 C 122.527344 56.710938 123.421875 57.160156 123.472656 57.960938 Z M 24.832031 59.109375 C 24.832031 59.207031 24.484375 59.457031 24.039062 59.609375 C 23.640625 59.757812 23.441406 59.707031 23.589844 59.40625 C 23.890625 58.910156 24.832031 58.707031 24.832031 59.109375 Z M 14.453125 66.597656 C 13.507812 67.59375 13.410156 67.996094 13.855469 68.84375 C 14.203125 69.390625 14.601562 69.839844 14.800781 69.792969 C 15.199219 69.742188 16.738281 70.242188 17.980469 70.941406 C 18.476562 71.191406 19.371094 71.390625 19.964844 71.390625 C 20.5625 71.390625 20.859375 71.539062 20.710938 71.738281 C 20.414062 72.039062 29.351562 75.382812 33.175781 76.332031 C 34.070312 76.582031 35.066406 76.980469 35.414062 77.28125 C 35.761719 77.53125 36.703125 77.929688 37.597656 78.078125 C 38.441406 78.277344 39.433594 78.777344 39.78125 79.175781 C 40.082031 79.578125 40.875 79.875 41.472656 79.875 C 42.066406 79.875 43.457031 80.277344 44.5 80.726562 C 45.59375 81.175781 46.539062 81.574219 46.6875 81.625 C 50.0625 82.523438 51.554688 82.972656 52.25 83.371094 C 52.746094 83.671875 53.390625 83.871094 53.789062 83.871094 C 54.136719 83.871094 55.179688 84.269531 56.125 84.820312 C 57.066406 85.316406 58.257812 85.667969 58.707031 85.566406 C 59.203125 85.515625 59.699219 85.667969 59.847656 85.867188 C 59.996094 86.117188 60.445312 86.214844 60.839844 86.015625 C 61.238281 85.867188 61.585938 85.964844 61.585938 86.214844 C 61.585938 86.867188 67.546875 85.367188 68.738281 84.417969 C 71.074219 82.523438 73.507812 79.527344 73.507812 78.527344 C 73.507812 78.179688 73.707031 77.878906 73.953125 77.878906 C 74.203125 77.878906 74.550781 77.332031 74.699219 76.632812 C 74.898438 75.933594 75.246094 75.382812 75.492188 75.382812 C 75.792969 75.382812 75.640625 76.132812 75.144531 76.980469 C 74.699219 77.878906 74.300781 78.828125 74.25 79.128906 C 73.953125 81.324219 73.308594 83.917969 72.960938 84.167969 C 72.710938 84.320312 72.710938 84.820312 72.960938 85.269531 C 73.160156 85.71875 73.753906 86.914062 74.203125 87.914062 C 75.046875 89.710938 77.976562 93.40625 77.976562 92.707031 C 77.976562 92.507812 78.621094 92.65625 79.464844 93.105469 C 80.261719 93.503906 81.007812 93.855469 81.054688 93.804688 C 81.15625 93.804688 81.851562 94.003906 82.59375 94.304688 C 83.390625 94.601562 84.335938 94.851562 84.730469 94.851562 C 85.128906 94.851562 85.378906 95.003906 85.277344 95.203125 C 85.128906 95.453125 85.527344 95.652344 86.074219 95.703125 C 87.859375 95.902344 88.855469 96.152344 89.203125 96.5 C 89.398438 96.699219 89.898438 96.851562 90.34375 96.851562 C 90.789062 96.851562 91.785156 97.199219 92.578125 97.597656 C 93.324219 98 94.316406 98.347656 94.664062 98.347656 C 95.0625 98.347656 95.359375 98.597656 95.359375 98.898438 C 95.359375 99.144531 95.609375 99.246094 95.855469 99.097656 C 96.105469 98.945312 96.351562 98.996094 96.351562 99.246094 C 96.351562 99.496094 96.652344 99.695312 97 99.746094 C 98.886719 99.945312 100.328125 100.292969 100.921875 100.644531 C 101.269531 100.894531 101.914062 101.09375 102.3125 101.191406 C 103.355469 101.34375 105.292969 102.441406 105.292969 102.890625 C 105.292969 103.140625 105.589844 103.191406 105.988281 103.039062 C 106.386719 102.890625 107.230469 103.089844 107.875 103.539062 C 108.523438 103.9375 109.167969 104.289062 109.414062 104.289062 C 110.757812 104.238281 112.695312 104.988281 112.445312 105.4375 C 112.246094 105.785156 112.347656 105.835938 112.695312 105.636719 C 112.992188 105.4375 113.835938 105.636719 114.582031 106.085938 C 115.277344 106.535156 115.722656 106.683594 115.523438 106.433594 C 115.375 106.136719 115.921875 106.285156 116.816406 106.734375 C 117.710938 107.183594 118.703125 107.582031 118.953125 107.582031 C 120.292969 107.632812 124.664062 108.980469 124.664062 109.332031 C 124.664062 109.53125 125.109375 109.628906 125.65625 109.480469 C 126.203125 109.332031 126.648438 109.480469 126.648438 109.78125 C 126.648438 110.078125 126.800781 110.277344 127.046875 110.230469 C 127.496094 110.078125 133.15625 112.324219 133.800781 112.875 C 134.25 113.273438 134.695312 114.820312 134.398438 114.820312 C 134.347656 114.820312 132.210938 113.921875 129.730469 112.875 C 127.195312 111.777344 125.160156 111.027344 125.160156 111.175781 C 125.160156 111.328125 124.863281 111.175781 124.464844 110.878906 C 124.066406 110.527344 123.324219 110.230469 122.777344 110.078125 C 119.894531 109.53125 114.433594 107.632812 114.132812 107.082031 C 113.886719 106.734375 113.289062 106.535156 112.742188 106.683594 C 112.148438 106.835938 111.75 106.683594 111.75 106.335938 C 111.75 105.984375 111.402344 105.835938 111.003906 106.035156 C 110.609375 106.183594 110.261719 106.085938 110.261719 105.785156 C 110.261719 105.488281 110.0625 105.4375 109.761719 105.585938 C 109.515625 105.734375 108.769531 105.585938 108.175781 105.238281 C 107.527344 104.886719 106.933594 104.585938 106.785156 104.585938 C 106.632812 104.585938 106.089844 104.289062 105.542969 103.988281 C 104.996094 103.6875 103.851562 103.289062 102.960938 103.140625 C 102.113281 102.941406 101.121094 102.492188 100.824219 102.089844 C 100.523438 101.691406 99.980469 101.492188 99.582031 101.640625 C 99.234375 101.792969 98.785156 101.691406 98.589844 101.394531 C 98.4375 101.09375 97.792969 100.84375 97.199219 100.84375 C 96.550781 100.84375 95.65625 100.542969 95.113281 100.144531 C 94.117188 99.445312 93.820312 99.347656 92.828125 99.347656 C 92.578125 99.347656 92.429688 99.144531 92.578125 98.898438 C 92.777344 98.648438 92.429688 98.546875 91.882812 98.695312 C 91.335938 98.847656 90.890625 98.695312 90.890625 98.398438 C 90.890625 98.097656 90.742188 97.898438 90.542969 97.898438 C 89.152344 98.148438 87.910156 97.796875 88.207031 97.25 C 88.457031 96.898438 88.308594 96.800781 87.8125 97 C 87.363281 97.148438 86.867188 97.148438 86.667969 96.949219 C 86.46875 96.75 86.171875 96.601562 86.023438 96.550781 C 84.234375 96.25 82.496094 95.652344 82.644531 95.402344 C 82.746094 95.253906 82.347656 95.050781 81.800781 95.050781 C 79.765625 94.902344 73.457031 92.507812 73.109375 91.707031 C 73.011719 91.507812 72.710938 91.507812 72.464844 91.65625 C 72.164062 91.808594 71.171875 91.558594 70.179688 91.109375 C 69.234375 90.609375 68.144531 90.210938 67.84375 90.160156 C 67.546875 90.109375 67.101562 89.960938 66.800781 89.8125 C 66.554688 89.660156 65.261719 89.210938 63.96875 88.863281 C 62.628906 88.511719 61.585938 88.0625 61.585938 87.863281 C 61.585938 87.664062 61.289062 87.515625 60.992188 87.515625 C 59.847656 87.464844 50.660156 84.320312 50.660156 83.917969 C 50.660156 83.769531 50.261719 83.570312 49.816406 83.519531 C 49.070312 83.46875 46.039062 82.472656 42.214844 81.023438 C 41.820312 80.875 41.222656 80.675781 40.875 80.574219 C 40.082031 80.425781 33.824219 77.980469 31.785156 77.03125 C 30.84375 76.582031 29.550781 76.183594 28.90625 76.183594 C 28.261719 76.132812 27.613281 75.882812 27.414062 75.582031 C 27.21875 75.285156 26.222656 74.882812 25.179688 74.734375 C 24.089844 74.585938 22.894531 74.136719 22.5 73.785156 C 22.050781 73.4375 20.808594 72.886719 19.667969 72.585938 C 18.527344 72.289062 17.679688 71.789062 17.78125 71.4375 C 17.832031 71.089844 17.730469 70.941406 17.484375 71.089844 C 17.234375 71.238281 16.191406 71.089844 15.097656 70.789062 C 14.054688 70.441406 13.0625 70.191406 12.914062 70.140625 C 11.273438 69.691406 9.039062 67.894531 10.132812 67.894531 C 10.230469 67.894531 10.726562 67.746094 11.226562 67.546875 C 11.871094 67.296875 11.96875 67.394531 11.671875 67.945312 C 11.472656 68.34375 11.421875 68.492188 11.621094 68.292969 C 11.820312 68.144531 12.019531 67.792969 12.019531 67.546875 C 12.070312 67.097656 14.402344 65.5 15.097656 65.449219 C 15.347656 65.398438 15.050781 65.949219 14.453125 66.597656 Z M 134.347656 89.011719 C 135.09375 90.808594 137.578125 100.894531 137.578125 102.089844 C 137.578125 102.492188 137.824219 102.839844 138.074219 102.839844 C 138.371094 102.839844 138.570312 103.238281 138.570312 103.738281 C 138.570312 104.238281 138.816406 104.886719 139.164062 105.238281 C 139.511719 105.585938 139.613281 105.835938 139.414062 105.835938 C 139.214844 105.835938 139.265625 106.285156 139.5625 106.882812 C 139.910156 107.433594 140.257812 108.480469 140.359375 109.179688 C 140.507812 109.878906 141.152344 111.828125 141.796875 113.472656 C 142.492188 115.121094 143.039062 116.667969 143.039062 116.917969 C 143.039062 117.46875 141.253906 117.417969 140.160156 116.820312 C 139.710938 116.570312 138.371094 116.121094 137.230469 115.820312 C 136.035156 115.519531 135.09375 115.070312 135.09375 114.820312 C 135.09375 114.523438 135.042969 114.171875 134.992188 113.972656 C 134.894531 113.773438 135.640625 113.625 136.582031 113.625 C 138.121094 113.574219 138.320312 113.425781 138.320312 112.175781 C 138.273438 111.425781 138.46875 110.828125 138.769531 110.828125 C 139.015625 110.828125 138.816406 110.378906 138.371094 109.878906 C 137.773438 109.230469 137.476562 107.984375 137.425781 106.136719 C 137.378906 104.585938 137.179688 103.339844 137.03125 103.339844 C 136.730469 103.339844 134.894531 97.699219 134.84375 96.601562 C 134.84375 96.300781 134.695312 95.851562 134.496094 95.601562 C 134.199219 95.050781 132.113281 88.214844 132.113281 87.664062 C 132.113281 87.515625 132.460938 87.363281 132.90625 87.363281 C 133.304688 87.363281 133.949219 88.113281 134.347656 89.011719 Z M 134.347656 89.011719 "/>
<path style=" stroke:none;fill-rule:nonzero;fill:rgb(0%,0%,0%);fill-opacity:1;" d="M 1.292969 27.65625 C 1.640625 28.554688 1.835938 28.554688 3.226562 27.90625 C 4.222656 27.457031 4.222656 27.457031 3.226562 27.558594 C 2.683594 27.65625 1.9375 27.507812 1.640625 27.308594 C 1.191406 27.007812 1.09375 27.15625 1.292969 27.65625 Z M 1.292969 27.65625 "/>
<path style=" stroke:none;fill-rule:nonzero;fill:rgb(0%,0%,0%);fill-opacity:1;" d="M 148.054688 88.164062 C 148.054688 88.710938 148.207031 88.863281 148.355469 88.460938 C 148.503906 88.113281 148.453125 87.664062 148.304688 87.515625 C 148.15625 87.316406 148.007812 87.613281 148.054688 88.164062 Z M 148.054688 88.164062 "/>
</g>
</svg>
