<svg id="Capa_1" enable-background="new 0 0 512 512" height="512" viewBox="0 0 512 512" width="512" xmlns="http://www.w3.org/2000/svg"><path d="m348.512 147.782-168.673-41.082c-17.398 9.918-29.407 25.16-36.34 36.016-2.904 4.547 1.215 10.228 6.438 8.88 39.214-10.115 82.628-7.198 104.719-5.149l18.37 5.344c20.278 10.815 54.586 31.485 78.456 55.074 3.8 3.755 10.208 1.13 10.101-4.211-.288-14.329-2.653-36.597-13.071-54.872z" fill="#aedb81"/><path d="m280.732 113.897 64.771-1.593c48.574 9.593 83.751 55.432 100.529 82.162 2.512 4.003-2.371 8.373-6.168 5.558-67.018-49.695-145.404-56.414-178.528-57.085z" fill="#95cc81"/><path d="m257.662 107.702-55.111-34.069c-46.775-16.237-100.279 5.579-128.255 20.185-4.189 2.187-2.179 8.425 2.519 7.911 82.938-9.072 155.754 18.723 184.688 34.864z" fill="#95cc81"/><path d="m330.81 504.5-18.025-17.85 8.515-23.899-24.003-8.226-2.697-25.23-25.197 2.962-13.38-21.558-16.063 10.3-26.386-11.691-13.74 22.948-25.196-2.965-2.699 25.229-24.005 8.226 8.515 23.901-18.027 17.853z" fill="#aedb81"/><path d="m280.074 143.772-24.082-10.352c-61.457 154.645-45.425 371.08-45.425 371.08h40.081c-17.683-170.935 12.31-302.863 29.426-360.728z" fill="#c38c66"/><path d="m361.645 46.685c-36.397-15.053-62.318 7.772-79.155 34.403-1.124 1.778-3.866 1.037-3.95-1.064-1.266-31.843-12.304-65.284-51.872-70.229-3.705-.463-6.163 3.918-3.83 6.833 7.558 9.444 19.357 26.998 22.466 47.652l26.402 76.418 46.801-55.827c12.889-16.432 31.806-25.884 43.039-30.374 3.461-1.382 3.544-6.387.099-7.812z" fill="#c8eb82"/><path d="m447.259 114.072c-33.167-26.002-112.092-74.361-172.041 1.652-1.978 2.508-6.032 1.39-6.447-1.778-12.023-91.761-106.978-93.707-148.287-90.074-4.662.41-5.433 6.805-1.033 8.4 81.069 29.393 120.103 77.964 136.542 101.147l24.082 10.352c26.42-10.459 79.45-41.698 163.403-22.123 4.552 1.063 7.46-4.691 3.781-7.576z" fill="#aedb81"/><path d="m255.993 133.42c-6.29 15.826-11.728 32.318-16.495 49.14l28.646 7.344c4.171-18.369 8.335-33.975 11.931-46.132z" fill="#966a5b"/><path d="m210.568 504.5h40.081c-.842-8.135-1.478-16.094-2.11-24.048h-39.151c.536 15.204 1.18 24.048 1.18 24.048z" fill="#b57f5f"/><path d="m436.194 165.711c-14.646-19.291-30.931-34.271-48.17-44.473 22.231.798 44.696 4.054 67.192 9.782.616.157 1.237.233 1.852.233 2.658 0 5.18-1.42 6.532-3.817 1.664-2.951 1.144-6.651-1.271-9.028-2.215-2.181-52.631-51.134-110.324-53.909 10.357-5.029 19.01-7.365 19.156-7.403 2.929-.767 5.109-3.22 5.528-6.218.418-2.999-1.007-5.955-3.614-7.495-32.921-19.444-64.404-12.751-90.22 18.543-2.161-13.908-6.655-27.377-14.916-38.215-11.976-15.709-29.909-23.688-53.303-23.711h-.008c-3.024 0-5.753 1.817-6.92 4.608-1.167 2.793-.541 6.015 1.588 8.167.115.116 7.107 7.259 13.817 17.806-19.574-10.095-44.172-15.571-72.403-15.988-28.199-.415-49.977 4.248-50.89 4.446-3.35.729-5.778 3.637-5.9 7.063s2.095 6.498 5.385 7.463c23.842 6.991 44.682 15.973 62.754 25.83-20.021.004-41.644 4.582-64.059 13.713-27.693 11.282-46.744 25.344-47.541 25.937-2.812 2.091-3.801 5.85-2.383 9.054 1.417 3.204 4.864 5 8.304 4.324 34.386-6.752 69.2-6.963 103.691-.667-21.679 17.776-30.372 40.212-30.794 41.327-1.033 2.73-.388 5.812 1.653 7.898 1.436 1.468 3.379 2.256 5.363 2.256.837 0 1.681-.14 2.498-.429 36.14-12.768 76.698-13.021 102.331-11.364-4.673 13.45-8.962 28.017-12.809 43.552-.996 4.021 1.457 8.087 5.478 9.083.605.15 1.212.222 1.809.222 3.367 0 6.429-2.283 7.274-5.699.556-2.246 1.124-4.463 1.699-6.667l14.662 3.122c-15.307 69.864-29 174.711-16.866 301.942h-24.58c-1.01-30.728-3.461-155.2 17.856-265.429.786-4.067-1.873-8.001-5.94-8.788-4.063-.786-8 1.873-8.788 5.939-12.312 63.664-16.806 131.925-18.207 184.658l-6.736 10.869-20.458-2.408c-1.989-.233-3.989.337-5.555 1.587-1.565 1.249-2.566 3.072-2.779 5.064l-2.191 20.48-19.486 6.678c-1.897.65-3.454 2.032-4.325 3.838s-.982 3.885-.309 5.774l6.914 19.41-12.448 12.329h-12.947c-4.142 0-7.5 3.358-7.5 7.5s3.358 7.5 7.5 7.5h224.452c4.142 0 7.5-3.358 7.5-7.5s-3.358-7.5-7.5-7.5h-12.948l-12.445-12.324 6.915-19.407c.673-1.888.562-3.968-.309-5.773-.87-1.806-2.428-3.188-4.324-3.839l-19.485-6.678-2.189-20.479c-.213-1.992-1.213-3.815-2.779-5.065-1.565-1.25-3.563-1.821-5.554-1.587l-20.463 2.406-10.866-17.508c-1.057-1.703-2.752-2.912-4.706-3.357-1.682-.383-3.434-.17-4.968.582-.475-105.32 15.772-188.732 29.556-240.317 41.867 23.259 64.195 45.804 73.953 57.468 1.446 1.729 3.564 2.688 5.753 2.688.646 0 1.299-.083 1.941-.256 2.82-.756 4.944-3.079 5.446-5.954.201-1.153 4.001-24.066-4.952-49.835 30.032 11.605 60.436 28.785 87.562 52.984 1.415 1.263 3.201 1.904 4.994 1.903 1.52 0 3.045-.46 4.354-1.394 2.853-2.035 3.917-5.773 2.563-9.005-.384-.918-9.614-22.724-27.697-46.542zm-279.54 331.289 5.073-5.024c2.067-2.047 2.764-5.105 1.787-7.846l-5.967-16.75 16.824-5.765c2.756-.945 4.716-3.4 5.026-6.298l1.893-17.692 17.668 2.079c1.127.133 2.242 0 3.277-.351-.266 26.67.207 47.128.546 57.647zm96.999-75.897 9.377 15.11c1.535 2.472 4.36 3.833 7.248 3.494l17.67-2.077 1.891 17.693c.31 2.897 2.27 5.353 5.026 6.298l16.822 5.765-5.967 16.747c-.977 2.741-.28 5.799 1.788 7.847l5.071 5.021h-55.139c-2.531-26.146-3.956-51.334-4.488-75.45zm30.884-335.804c10.066-16.134 21.04-27.288 32.645-33.138 10.238-5.16 20.853-6.162 32.131-2.979-9.21 4.127-20.355 10.343-29.486 19.037-12.65 3.735-24.446 10.187-35.305 19.313.01-.742.014-1.486.015-2.233zm-28.543-52.512c8.133 10.659 13.885 30.926 12.976 48.03-4.953-12.511-12.025-23.365-21.214-32.492-3.441-12.068-9.835-23.03-15.631-31.236 10.004 2.656 17.886 7.856 23.869 15.698zm-104.454 110.566c5.857-8.688 15.09-19.406 28.428-27.24 22.036 5.656 40.466 13.15 54.451 19.953-22.481-.967-53.022-.177-82.879 7.287zm25.808-43.327c-28.736-6.722-57.762-9.125-86.674-7.202 26.669-12.896 66.395-25.857 103.001-13.528 21.16 15.272 36.794 30.875 47.581 43.417-16.084-7.844-37.78-16.575-63.908-22.687zm-42.724-70.098c28.287-1.495 69.461 1.192 97.255 24.219 19.242 15.941 29.516 39.796 30.611 71.007-17.463-23.154-57.718-67.069-127.866-95.226zm127.949 150.505-14.007-2.982c3.081-10.547 6.383-20.509 9.88-29.832 4.064-.061 8.29 0 12.648.18-2.728 9.55-5.622 20.459-8.521 32.634zm24.059-31.51c18.176 1.856 38.081 5.735 58.547 12.127 7.006 13.165 9.363 26.69 9.96 36.908-22.806-22.251-50.78-39.357-68.507-49.035zm4.794-14.773c5.105-1.642 10.339-3.147 15.667-4.5 4.015-1.019 6.444-5.1 5.425-9.114-1.019-4.015-5.099-6.445-9.114-5.425-7.557 1.917-14.94 4.131-22.064 6.598.601-3.596 1.183-7.576 1.684-11.837 17.401-19.448 37.943-29.695 61.062-30.452 32.258-1.06 63.774 16.254 84.297 30.729-30.73-4.926-61.278-5.439-91.158-1.51-4.107.541-6.998 4.308-6.458 8.414s4.298 6.995 8.414 6.458c3.783-.497 7.581-.899 11.386-1.247 37.816 7.982 65.476 39.484 81.895 64.216-46.648-31.894-98.102-47.52-141.036-52.33z"/></svg>