<?xml version="1.0" encoding="UTF-8"?>
<svg xmlns="http://www.w3.org/2000/svg" xmlns:xlink="http://www.w3.org/1999/xlink" width="281pt" height="157pt" viewBox="0 0 281 157" version="1.1">
<g id="surface1">
<path style=" stroke:none;fill-rule:nonzero;fill:rgb(0%,0%,0%);fill-opacity:1;" d="M 95.632812 27.136719 C 98.351562 29.578125 99.941406 30.421875 100.410156 29.671875 C 100.972656 28.921875 101.160156 28.921875 101.160156 29.765625 C 101.160156 31.925781 100.691406 32.394531 99.097656 32.113281 C 96.664062 31.644531 97.039062 32.488281 100.503906 34.648438 C 102.097656 35.683594 102.941406 36.621094 102.285156 36.621094 C 101.628906 36.621094 101.347656 37.089844 101.628906 37.558594 C 102.003906 38.125 102.566406 38.3125 102.941406 38.125 C 103.3125 37.839844 103.6875 38.21875 103.6875 38.96875 C 103.6875 40.660156 103.96875 40.660156 100.128906 39.0625 C 98.351562 38.40625 95.070312 37.839844 92.730469 37.839844 C 90.386719 37.746094 89.359375 37.933594 90.292969 38.21875 C 91.417969 38.5 91.699219 38.96875 91.042969 39.34375 C 90.386719 39.71875 91.417969 40.09375 93.292969 40.09375 C 95.539062 40.1875 97.414062 40.941406 98.726562 42.253906 C 100.597656 44.320312 100.597656 44.320312 98.816406 43.664062 C 95.351562 42.347656 86.734375 41.878906 87.484375 43.101562 C 87.859375 43.664062 88.890625 44.132812 89.734375 44.226562 C 90.761719 44.226562 90.855469 44.507812 90.199219 44.789062 C 88.046875 45.636719 88.890625 46.667969 91.324219 46.199219 C 92.636719 46.011719 93.667969 46.199219 93.667969 46.761719 C 93.667969 47.230469 95.351562 47.890625 97.414062 48.265625 C 99.566406 48.546875 101.441406 49.484375 101.722656 50.234375 C 102.097656 50.988281 102.847656 51.644531 103.5 51.644531 C 104.15625 51.644531 105.65625 52.488281 106.875 53.523438 L 109.121094 55.308594 L 105.84375 54.835938 C 95.351562 53.335938 94.976562 53.335938 90.105469 55.402344 C 84.394531 57.84375 83.925781 58.875 88.609375 58.5 C 92.636719 58.21875 94.136719 57.277344 90.761719 57.183594 L 88.515625 57.183594 L 90.667969 56.246094 C 93.386719 55.214844 100.410156 55.023438 104.90625 55.871094 C 106.6875 56.152344 108.746094 56.527344 109.496094 56.527344 C 110.433594 56.621094 110.433594 56.902344 109.214844 57.75 C 108.464844 58.40625 107.902344 59.0625 108.089844 59.25 C 108.371094 59.4375 106.5 59.4375 104.15625 59.15625 L 99.753906 58.78125 L 103.96875 58.21875 C 106.3125 57.9375 107.808594 57.464844 107.25 57.183594 C 106.78125 56.902344 103.40625 57.183594 99.753906 57.9375 C 96.195312 58.59375 92.449219 59.25 91.605469 59.25 C 90.667969 59.25 89.734375 59.625 89.453125 60.191406 C 88.609375 61.503906 86.921875 61.222656 87.578125 59.8125 C 87.953125 59.25 87.109375 59.90625 85.796875 61.503906 C 82.707031 65.167969 82.613281 66.761719 85.796875 63.851562 C 87.765625 61.878906 88.328125 61.785156 88.984375 62.914062 C 89.640625 63.945312 89.453125 64.695312 88.328125 65.449219 C 87.203125 66.386719 87.109375 66.667969 88.046875 66.667969 C 88.703125 66.667969 90.011719 66.011719 90.855469 65.261719 C 91.792969 64.414062 95.070312 63.289062 98.257812 62.632812 C 101.441406 61.972656 103.6875 61.035156 103.3125 60.660156 C 102.941406 60.191406 104.34375 60.09375 106.59375 60.472656 C 109.308594 60.847656 110.433594 60.753906 110.058594 60.09375 C 109.777344 59.625 109.871094 59.15625 110.433594 59.15625 C 111.464844 59.15625 111.277344 61.878906 109.777344 67.796875 C 109.214844 69.957031 109.214844 71.363281 109.683594 71.363281 C 110.246094 71.363281 110.152344 72.113281 109.589844 73.148438 C 108.277344 75.777344 108.371094 76.527344 110.058594 75.121094 C 110.808594 74.460938 111.277344 73.617188 110.996094 73.242188 C 110.808594 72.867188 111.183594 71.738281 111.933594 70.800781 C 113.804688 68.359375 113.710938 67.136719 111.746094 68.640625 C 110.433594 69.765625 110.246094 69.765625 110.902344 68.640625 C 111.371094 67.984375 111.933594 65.167969 112.117188 62.441406 L 112.585938 57.558594 L 107.25 52.773438 C 104.34375 50.046875 101.066406 47.890625 99.941406 47.890625 C 98.070312 47.792969 98.070312 47.699219 99.566406 46.855469 C 101.347656 45.824219 104.25 47.417969 110.808594 53.242188 C 112.773438 55.023438 114.648438 56.246094 115.023438 55.964844 C 115.492188 55.683594 115.867188 57.277344 115.960938 59.4375 C 116.148438 61.691406 117.082031 64.601562 118.113281 66.105469 L 120.082031 68.734375 L 117.925781 68.078125 C 115.867188 67.417969 115.773438 67.417969 117.082031 69.015625 C 118.488281 70.800781 119.144531 81.972656 117.832031 81.035156 C 117.363281 80.847656 117.082031 81.972656 117.082031 83.570312 C 117.082031 85.261719 117.457031 86.292969 118.019531 85.917969 C 118.488281 85.636719 118.957031 84.699219 118.957031 83.945312 C 118.957031 83.101562 119.425781 82.820312 120.082031 83.195312 C 120.828125 83.664062 120.921875 83.195312 120.457031 81.597656 C 120.082031 80.378906 119.800781 78.5 119.894531 77.46875 C 119.988281 76.433594 120.175781 74.460938 120.175781 72.960938 C 120.175781 71.550781 120.550781 70.425781 121.015625 70.425781 C 121.484375 70.425781 120.738281 68.359375 119.332031 65.917969 C 117.925781 63.382812 116.988281 60.660156 117.363281 59.8125 C 117.925781 58.3125 118.113281 58.3125 130.382812 59.53125 C 132.351562 59.71875 133.664062 59.53125 133.382812 59.0625 C 132.632812 57.75 134.222656 58.03125 136.566406 59.71875 C 139 61.410156 139.28125 60.472656 137.035156 57.9375 C 135.441406 56.058594 135.441406 56.058594 137.222656 56.808594 C 138.253906 57.183594 139.9375 57.464844 140.96875 57.464844 C 141.90625 57.371094 143.308594 57.84375 143.964844 58.40625 C 144.714844 58.96875 145.558594 59.15625 145.933594 58.78125 C 146.308594 58.40625 145.183594 56.808594 143.402344 55.214844 L 140.21875 52.300781 L 131.226562 52.960938 C 126.261719 53.335938 120.738281 53.804688 118.957031 53.992188 C 116.054688 54.179688 115.585938 53.898438 115.398438 52.207031 C 115.304688 50.988281 115.585938 50.707031 115.960938 51.363281 C 116.519531 52.207031 118.113281 51.082031 121.203125 47.890625 C 124.578125 44.414062 126.074219 43.382812 127.292969 43.945312 C 128.136719 44.414062 130.476562 44.695312 132.539062 44.507812 C 134.597656 44.414062 135.347656 44.507812 134.128906 44.789062 C 133.007812 44.976562 132.257812 45.542969 132.539062 45.917969 C 132.726562 46.386719 131.226562 46.949219 129.167969 47.230469 C 127.105469 47.511719 124.671875 48.546875 123.828125 49.484375 C 122.984375 50.519531 121.390625 51.644531 120.457031 51.925781 C 119.519531 52.300781 118.863281 52.867188 119.144531 53.148438 C 119.894531 53.804688 124.578125 51.832031 124.578125 50.894531 C 124.578125 50.425781 126.917969 49.296875 129.914062 48.359375 C 139.09375 45.449219 141.8125 43.195312 136.097656 43.195312 C 134.597656 43.195312 134.035156 42.816406 134.503906 42.066406 C 134.878906 41.503906 134.785156 41.316406 134.128906 41.597656 C 133.664062 41.972656 131.320312 42.347656 129.167969 42.441406 C 125.699219 42.535156 124.390625 43.289062 120.644531 46.761719 C 118.113281 49.109375 116.148438 50.707031 116.148438 50.332031 C 116.148438 49.953125 117.175781 47.792969 118.582031 45.542969 C 121.296875 40.753906 122.234375 36.996094 120.738281 36.058594 C 119.988281 35.589844 120.082031 35.210938 120.921875 34.742188 C 121.578125 34.273438 122.234375 33.148438 122.328125 32.207031 C 122.421875 31.269531 122.984375 29.109375 123.453125 27.417969 C 124.578125 24.132812 123.359375 23.285156 121.578125 26.199219 C 121.015625 27.136719 119.988281 27.792969 119.425781 27.511719 C 118.769531 27.324219 118.019531 28.359375 117.644531 30.234375 C 117.175781 32.675781 116.800781 33.050781 116.148438 31.925781 C 115.492188 30.894531 115.210938 31.550781 115.210938 34.273438 C 115.210938 36.339844 114.929688 38.96875 114.648438 40.09375 C 114.273438 41.410156 114.460938 42.253906 115.117188 42.253906 C 115.679688 42.253906 116.148438 40.660156 116.148438 38.6875 C 116.148438 34.929688 119.332031 28.640625 120.828125 29.578125 C 121.390625 29.953125 121.203125 31.082031 120.269531 32.394531 C 119.238281 34.085938 119.050781 35.117188 119.800781 36.433594 C 120.363281 37.464844 120.457031 38.59375 120.082031 38.96875 C 119.707031 39.25 119.425781 39.90625 119.332031 40.1875 C 119.332031 40.566406 118.300781 43.195312 117.082031 46.011719 L 114.835938 51.082031 L 113.992188 47.417969 C 113.617188 45.351562 113.429688 42.066406 113.804688 40.09375 C 114.085938 37.746094 113.992188 36.714844 113.335938 37.089844 C 112.867188 37.371094 112.398438 38.78125 112.398438 40.1875 L 112.304688 42.722656 L 110.996094 39.90625 C 110.339844 38.3125 109.683594 37.464844 109.683594 37.839844 C 109.589844 38.96875 106.78125 35.964844 106.78125 34.742188 C 106.78125 33.429688 104.4375 30.988281 103.3125 30.988281 C 102.847656 30.988281 101.535156 29.296875 100.316406 27.230469 C 98.070312 23.097656 96.945312 22.347656 97.976562 25.539062 L 98.539062 27.511719 L 96.007812 25.539062 C 91.605469 22.066406 91.324219 23.285156 95.632812 27.136719 Z M 105.375 35.117188 C 106.125 36.902344 107.53125 38.59375 108.558594 38.96875 C 109.683594 39.25 110.996094 41.597656 112.304688 45.542969 C 114.648438 52.960938 114.835938 55.117188 112.960938 53.335938 C 112.210938 52.675781 111.839844 51.832031 112.117188 51.457031 C 112.679688 50.425781 110.808594 47.136719 107.15625 42.628906 C 105.375 40.566406 104.25 38.5 104.625 38.21875 C 104.90625 37.839844 104.625 36.902344 103.875 36.058594 C 102.378906 34.179688 101.910156 31.925781 103.128906 31.925781 C 103.6875 31.925781 104.625 33.335938 105.375 35.117188 Z M 98.351562 39.4375 C 100.035156 40.566406 98.539062 40.566406 96.007812 39.4375 C 94.789062 38.875 94.601562 38.59375 95.539062 38.59375 C 96.289062 38.59375 97.601562 38.96875 98.351562 39.4375 Z M 102.566406 41.316406 C 102.847656 41.785156 103.59375 42.253906 104.0625 42.253906 C 104.625 42.253906 104.71875 41.785156 104.34375 41.128906 C 103.96875 40.46875 104.0625 40.375 104.8125 40.753906 C 105.375 41.128906 105.65625 41.785156 105.46875 42.160156 C 105.1875 42.535156 106.21875 44.226562 107.714844 45.824219 C 109.214844 47.511719 109.964844 48.828125 109.496094 48.828125 C 108.933594 48.828125 108.839844 49.296875 109.121094 49.765625 C 109.496094 50.332031 110.152344 50.425781 110.714844 50.140625 C 111.371094 49.765625 111.464844 49.953125 111.089844 50.519531 C 110.714844 51.269531 109.027344 50.613281 106.03125 48.546875 C 102.941406 46.386719 100.410156 45.351562 97.414062 45.257812 C 95.070312 45.070312 92.824219 44.601562 92.355469 44.132812 C 91.136719 42.910156 93.761719 42.910156 96.945312 44.132812 C 99.566406 45.164062 103.21875 44.039062 101.253906 42.816406 C 100.691406 42.441406 100.222656 41.785156 100.222656 41.222656 C 100.222656 40.09375 101.816406 40.09375 102.566406 41.316406 Z M 141.4375 54.929688 C 144.902344 56.714844 145.089844 57.558594 141.8125 56.339844 C 138.71875 55.117188 133.664062 55.117188 134.410156 56.339844 C 134.691406 56.808594 134.785156 57.277344 134.503906 57.277344 C 134.316406 57.277344 133.289062 57.558594 132.351562 57.84375 C 130.945312 58.3125 130.851562 58.21875 132.070312 57.277344 C 133.195312 56.433594 132.914062 56.339844 130.664062 56.902344 C 127.480469 57.65625 121.296875 57.558594 118.488281 56.621094 C 117.175781 56.152344 118.394531 55.683594 122.703125 54.835938 C 131.507812 53.242188 138.253906 53.335938 141.4375 54.929688 Z M 100.785156 60.191406 C 101.160156 60.847656 100.222656 61.035156 98.257812 60.847656 C 96.195312 60.660156 94.507812 61.128906 93.480469 62.160156 C 91.324219 64.320312 90.011719 64.320312 90.292969 62.253906 C 90.480469 61.410156 91.324219 60.660156 92.167969 60.472656 C 93.105469 60.378906 93.949219 60.09375 94.136719 59.90625 C 94.976562 59.15625 100.222656 59.34375 100.785156 60.191406 Z M 100.785156 60.191406 "/>
<path style=" stroke:none;fill-rule:nonzero;fill:rgb(0%,0%,0%);fill-opacity:1;" d="M 103.5 45.636719 C 106.875 48.265625 109.214844 49.015625 106.3125 46.574219 C 104.8125 45.257812 103.128906 44.226562 102.566406 44.226562 C 102.097656 44.226562 102.472656 44.882812 103.5 45.636719 Z M 103.5 45.636719 "/>
<path style=" stroke:none;fill-rule:nonzero;fill:rgb(0%,0%,0%);fill-opacity:1;" d="M 11.800781 27.980469 C 12.269531 28.359375 14.238281 30.140625 16.203125 31.925781 C 18.828125 34.367188 19.578125 34.742188 19.109375 33.335938 C 18.640625 31.832031 18.734375 31.644531 19.671875 32.582031 C 21.261719 33.992188 19.855469 35.964844 17.703125 35.398438 C 16.671875 35.117188 15.921875 35.210938 15.921875 35.683594 C 15.921875 36.058594 16.765625 36.621094 17.796875 36.902344 C 18.828125 37.183594 19.949219 38.125 20.230469 39.15625 C 20.605469 40.09375 21.542969 41.597656 22.292969 42.441406 C 24.074219 44.601562 23.605469 44.507812 18.640625 42.253906 C 14.332031 40.375 6.648438 39.53125 9.367188 41.316406 C 10.304688 41.878906 10.398438 42.253906 9.648438 42.253906 C 8.992188 42.253906 8.429688 42.722656 8.429688 43.289062 C 8.429688 44.039062 10.304688 44.226562 13.957031 43.945312 C 18.640625 43.664062 19.296875 43.757812 17.984375 44.789062 C 16.484375 45.824219 16.484375 45.917969 17.984375 46.011719 C 18.828125 46.011719 19.671875 45.542969 19.855469 44.976562 C 20.417969 43.289062 23.792969 45.449219 26.414062 49.015625 C 27.632812 50.707031 28.476562 52.207031 28.289062 52.300781 C 28.195312 52.488281 28.101562 52.867188 28.101562 53.242188 C 28.101562 53.710938 28.566406 53.335938 29.035156 52.582031 C 29.597656 51.738281 29.972656 51.644531 29.972656 52.300781 C 29.972656 54.085938 28.660156 54.367188 26.695312 52.960938 C 25.664062 52.113281 25.382812 51.644531 26.132812 51.644531 C 26.882812 51.644531 26.226562 50.707031 24.726562 49.578125 C 23.230469 48.453125 21.636719 47.042969 21.261719 46.480469 C 20.699219 45.824219 20.324219 45.917969 20.042969 46.667969 C 19.671875 47.417969 18.828125 47.511719 16.765625 46.761719 C 15.269531 46.292969 12.925781 46.105469 11.613281 46.386719 C 10.210938 46.761719 9.460938 46.667969 9.742188 46.105469 C 10.117188 45.636719 9.460938 45.449219 8.242188 45.824219 C 6.464844 46.292969 6.371094 46.480469 7.773438 46.761719 C 9.648438 47.136719 9.929688 48.453125 8.242188 49.203125 C 7.585938 49.484375 8.054688 49.578125 9.367188 49.484375 C 10.773438 49.390625 11.613281 48.734375 11.425781 47.984375 C 10.585938 44.226562 26.507812 52.019531 30.160156 57.089844 C 31.378906 58.78125 35.21875 60.847656 34.28125 59.34375 C 34.09375 58.96875 34.1875 58.03125 34.5625 57.371094 C 34.9375 56.714844 34.375 53.617188 33.25 50.425781 C 31.097656 44.132812 31.097656 40.28125 33.34375 44.226562 L 34.5625 46.480469 L 34.75 43.382812 C 34.84375 41.785156 34.9375 40.09375 35.03125 39.625 C 35.3125 38.3125 37.746094 34.273438 38.683594 33.710938 C 39.246094 33.335938 39.246094 32.488281 38.589844 31.457031 C 37.839844 29.953125 37.558594 30.140625 37 32.675781 C 36.71875 34.273438 35.875 35.492188 35.3125 35.398438 C 34.75 35.304688 34 36.714844 33.625 38.5 C 33.34375 40.28125 32.96875 41.316406 32.878906 40.847656 C 32.785156 40.28125 32.128906 40.941406 31.378906 42.253906 C 30.441406 43.945312 30.066406 44.132812 29.972656 43.007812 C 29.972656 42.160156 29.128906 41.128906 28.101562 40.847656 C 27.070312 40.566406 26.226562 39.71875 26.226562 38.96875 C 26.226562 38.3125 25.289062 36.902344 24.074219 35.964844 C 22.855469 35.023438 20.699219 32.582031 19.296875 30.515625 C 17.421875 27.886719 16.859375 27.417969 17.328125 29.015625 L 17.984375 31.269531 L 15.453125 29.296875 C 14.050781 28.167969 12.457031 27.230469 11.894531 27.230469 C 11.238281 27.230469 11.238281 27.511719 11.800781 27.980469 Z M 24.445312 38.3125 C 25.195312 39.71875 26.695312 41.691406 27.820312 42.722656 C 30.347656 44.976562 34.1875 56.246094 32.96875 57.464844 C 32.410156 58.03125 31.847656 57.183594 31.472656 55.402344 C 30.722656 51.644531 25.382812 44.039062 23.980469 44.789062 C 23.417969 45.070312 23.230469 45.070312 23.605469 44.601562 C 23.980469 44.226562 23.792969 43.195312 23.136719 42.441406 C 22.292969 41.222656 22.292969 41.128906 23.136719 41.691406 C 23.980469 42.160156 24.164062 41.878906 23.792969 40.941406 C 23.511719 40.09375 22.855469 39.625 22.480469 39.90625 C 22.011719 40.1875 21.824219 39.625 22.011719 38.78125 C 22.105469 37.839844 21.824219 36.527344 21.261719 35.871094 C 20.605469 35.023438 20.699219 34.835938 21.730469 35.210938 C 22.480469 35.492188 23.699219 36.902344 24.445312 38.3125 Z M 16.859375 42.722656 C 16.859375 42.910156 15.546875 43.007812 13.957031 43.007812 C 12.363281 42.910156 11.613281 42.628906 12.269531 42.253906 C 13.207031 41.597656 16.859375 42.066406 16.859375 42.722656 Z M 23.511719 49.859375 C 25.289062 51.363281 25.382812 51.550781 23.886719 50.800781 C 20.699219 49.203125 19.109375 47.890625 20.230469 47.890625 C 20.886719 47.890625 22.292969 48.734375 23.511719 49.859375 Z M 23.511719 49.859375 "/>
<path style=" stroke:none;fill-rule:nonzero;fill:rgb(0%,0%,0%);fill-opacity:1;" d="M 41.121094 28.828125 C 41.027344 29.296875 41.027344 29.859375 41.121094 30.234375 C 41.121094 30.707031 40.839844 30.988281 40.277344 30.988281 C 39.808594 30.988281 39.621094 31.550781 39.902344 32.300781 C 40.183594 33.050781 39.808594 34.835938 39.058594 36.339844 C 38.121094 38.03125 37.933594 39.53125 38.402344 40.46875 C 38.964844 41.316406 38.402344 43.851562 37 47.324219 C 33.8125 55.214844 34.84375 56.527344 40.183594 51.457031 C 43.835938 47.890625 45.054688 47.324219 48.050781 47.417969 C 50.019531 47.605469 51.890625 47.890625 52.265625 48.265625 C 53.203125 49.296875 50.394531 50.707031 47.488281 50.707031 C 45.898438 50.707031 44.117188 51.550781 43.273438 52.582031 C 42.335938 53.617188 40.183594 55.214844 38.402344 56.152344 C 35.59375 57.558594 35.125 58.21875 34.84375 61.691406 C 34.5625 64.695312 35.03125 66.480469 36.53125 68.546875 C 38.308594 71.082031 38.402344 71.363281 36.90625 71.363281 C 35.40625 71.363281 35.40625 71.457031 36.8125 73.054688 C 38.683594 75.027344 38.871094 76.527344 37.28125 75.496094 C 36.53125 75.027344 36.4375 75.308594 36.8125 76.527344 C 37.1875 77.46875 37 79.53125 36.34375 81.222656 C 35.59375 83.570312 35.5 85.074219 36.34375 87.515625 C 37.371094 90.613281 37.371094 90.519531 37 86.386719 C 36.625 83.101562 36.71875 82.632812 37.464844 84.226562 C 38.871094 87.609375 39.621094 86.761719 39.152344 82.160156 C 38.871094 79.910156 38.964844 78.125 39.339844 78.40625 C 40.839844 79.34375 39.527344 71.644531 37.558594 68.078125 C 36.53125 66.011719 35.59375 63.757812 35.59375 63.007812 C 35.59375 60.941406 38.214844 63.570312 40.464844 67.984375 C 41.683594 70.332031 42.617188 71.269531 42.898438 70.519531 C 43.179688 69.671875 44.585938 70.613281 47.113281 73.335938 C 50.019531 76.527344 50.671875 76.996094 50.113281 75.214844 C 49.550781 73.523438 49.738281 73.148438 50.671875 73.804688 C 51.703125 74.367188 51.609375 74.085938 50.578125 72.867188 C 49.832031 71.832031 49.082031 71.550781 48.894531 72.207031 C 48.707031 72.773438 47.113281 71.644531 45.335938 69.765625 C 43.554688 67.984375 42.148438 66.949219 42.148438 67.703125 C 42.148438 68.453125 41.402344 67.703125 40.371094 66.199219 C 39.433594 64.601562 38.777344 63.289062 38.964844 63.101562 C 39.433594 62.441406 48.707031 68.171875 52.921875 71.644531 C 55.261719 73.617188 57.136719 75.964844 57.136719 76.808594 C 57.136719 78.03125 56.574219 77.65625 54.980469 75.683594 C 53.390625 73.804688 52.546875 73.242188 52.078125 74.085938 C 51.234375 75.308594 53.203125 78.125 54.328125 77.46875 C 54.796875 77.183594 55.355469 77.375 55.730469 77.9375 C 56.105469 78.5 56.761719 78.6875 57.230469 78.40625 C 57.699219 78.125 57.792969 78.40625 57.511719 79.15625 C 57.230469 79.910156 57.699219 81.035156 58.542969 81.691406 C 60.414062 83.195312 60.414062 81.878906 58.449219 77.089844 C 56.761719 72.867188 51.515625 68.171875 44.492188 64.507812 C 41.121094 62.726562 40.371094 62.066406 41.867188 61.972656 C 42.992188 61.972656 44.960938 62.347656 46.269531 62.820312 C 47.863281 63.476562 48.707031 63.476562 48.988281 62.632812 C 49.269531 61.785156 49.832031 61.878906 51.046875 62.914062 C 52.640625 64.226562 52.734375 64.132812 52.265625 62.726562 C 51.890625 61.785156 52.171875 60.941406 53.203125 60.566406 C 54.046875 60.285156 54.421875 60.285156 54.046875 60.660156 C 53.671875 61.035156 54.140625 61.878906 55.074219 62.535156 C 57.511719 64.507812 58.542969 64.039062 56.667969 61.972656 C 54.886719 60.09375 54.980469 60 58.449219 60.472656 C 60.320312 60.753906 62.570312 61.410156 63.320312 62.066406 C 64.347656 62.914062 64.628906 62.820312 64.628906 61.691406 C 64.628906 59.625 60.320312 56.527344 56.386719 55.777344 C 54.328125 55.402344 49.738281 55.777344 45.054688 56.621094 C 36.4375 58.3125 34 58.125 40.183594 56.246094 C 42.242188 55.683594 43.835938 54.835938 43.554688 54.554688 C 43.179688 53.804688 46.175781 52.488281 53.203125 50.234375 C 60.695312 47.792969 59.570312 45.917969 50.488281 45.636719 C 44.960938 45.351562 44.679688 45.542969 40.183594 49.578125 C 35.21875 54.085938 34.5625 53.992188 37.464844 49.296875 C 38.496094 47.699219 39.433594 45.542969 39.621094 44.507812 C 39.714844 43.570312 40.183594 42.160156 40.558594 41.503906 C 41.027344 40.847656 40.839844 40.375 40.277344 40.375 C 39.621094 40.375 39.527344 39.8125 40.183594 38.59375 C 40.746094 37.652344 40.933594 36.621094 40.652344 36.339844 C 40.371094 36.058594 40.652344 34.835938 41.308594 33.617188 C 42.898438 30.707031 43.273438 28.167969 42.148438 28.167969 C 41.589844 28.167969 41.121094 28.453125 41.121094 28.828125 Z M 55.824219 47.699219 C 54.886719 47.890625 53.765625 47.699219 53.203125 47.136719 C 52.640625 46.574219 53.203125 46.480469 54.980469 46.761719 C 56.949219 47.230469 57.136719 47.417969 55.824219 47.699219 Z M 57.605469 57.183594 C 58.636719 57.277344 60.507812 58.21875 61.820312 59.25 C 63.785156 60.847656 63.878906 61.035156 62.101562 60.191406 C 59.382812 58.78125 53.671875 58.96875 49.457031 60.472656 C 47.488281 61.128906 44.960938 61.503906 43.742188 61.316406 C 42.429688 61.035156 40.464844 61.316406 39.246094 61.972656 C 37.09375 63.007812 37.09375 62.914062 38.777344 61.597656 C 40.558594 60.09375 40.558594 60.09375 38.402344 60.09375 C 34.46875 60.09375 37.09375 59.0625 44.117188 57.84375 C 50.488281 56.808594 52.359375 56.714844 57.605469 57.183594 Z M 57.605469 57.183594 "/>
<path style=" stroke:none;fill-rule:nonzero;fill:rgb(0%,0%,0%);fill-opacity:1;" d="M 165.882812 40.1875 C 167.851562 42.347656 169.347656 43.382812 169.722656 42.722656 C 170.191406 42.160156 170.472656 42.253906 170.472656 43.007812 C 170.472656 43.757812 169.628906 44.507812 168.601562 44.789062 C 166.820312 45.257812 166.914062 45.351562 169.160156 47.230469 C 170.847656 48.546875 171.222656 49.296875 170.472656 49.765625 C 169.628906 50.234375 169.628906 50.613281 170.378906 51.082031 C 170.941406 51.457031 171.410156 52.113281 171.410156 52.582031 C 171.410156 53.054688 169.628906 52.394531 167.476562 51.175781 C 165.226562 49.859375 162.417969 48.828125 161.105469 48.828125 C 159.046875 48.921875 158.953125 49.015625 160.449219 49.859375 C 161.292969 50.332031 162.417969 50.613281 162.792969 50.332031 C 163.167969 50.140625 164.105469 50.332031 164.851562 50.800781 C 165.789062 51.363281 165.039062 51.457031 162.511719 51.175781 C 159.515625 50.894531 159.140625 50.988281 160.449219 51.738281 C 161.480469 52.300781 163.449219 52.582031 164.945312 52.207031 C 166.445312 51.925781 167.851562 52.113281 168.226562 52.773438 C 168.601562 53.335938 168.507812 53.523438 167.851562 53.148438 C 167.289062 52.867188 166.632812 52.960938 166.257812 53.429688 C 165.976562 53.992188 163.542969 54.179688 160.824219 53.992188 C 158.109375 53.804688 156.703125 53.804688 157.640625 54.085938 C 158.953125 54.554688 159.140625 54.929688 158.203125 55.964844 C 157.359375 56.996094 157.453125 57.277344 158.953125 57.277344 C 161.761719 57.277344 166.820312 60 170.753906 63.757812 C 174.21875 67.136719 175.8125 70.238281 172.347656 67.136719 C 171.316406 66.199219 170.472656 65.730469 170.472656 66.011719 C 170.472656 66.292969 168.976562 65.917969 167.101562 65.167969 C 163.636719 63.757812 160.355469 63.945312 155.113281 65.917969 C 152.769531 66.855469 152.582031 67.136719 154.175781 67.609375 C 155.113281 67.984375 156.796875 68.078125 157.734375 67.796875 C 159.609375 67.324219 159.609375 67.324219 157.734375 66.480469 C 156.703125 66.011719 158.390625 65.917969 162.324219 66.105469 C 170.941406 66.574219 173.003906 68.546875 165.039062 68.640625 C 161.855469 68.734375 158.859375 68.921875 158.296875 69.015625 C 157.828125 69.109375 156.984375 69.296875 156.609375 69.390625 C 156.140625 69.390625 155.769531 70.144531 155.769531 70.894531 C 155.769531 72.113281 156.140625 72.113281 157.734375 71.082031 C 159.609375 69.859375 172.441406 68.828125 171.316406 69.859375 C 171.035156 70.238281 168.507812 70.707031 165.789062 70.988281 C 163.074219 71.269531 159.890625 71.925781 158.859375 72.398438 C 157.546875 72.960938 158.484375 73.054688 161.574219 72.585938 C 164.199219 72.300781 168.039062 72.019531 170.285156 72.019531 C 173.191406 72.019531 174.125 71.644531 173.84375 70.800781 C 173.5625 70.050781 173.84375 69.296875 174.5 68.921875 C 175.15625 68.546875 175.34375 68.546875 174.96875 69.015625 C 174.59375 69.390625 174.6875 70.332031 175.25 70.988281 C 175.90625 71.832031 175.625 72.300781 174.03125 72.867188 C 171.316406 73.804688 169.628906 74.179688 167.007812 74.648438 C 165.882812 74.839844 164.386719 75.308594 163.730469 75.683594 C 163.074219 76.152344 161.949219 76.527344 161.292969 76.621094 C 160.636719 76.714844 159.421875 77.375 158.578125 78.03125 C 157.828125 78.78125 156.046875 79.25 154.738281 79.34375 C 153.425781 79.34375 152.207031 79.910156 151.925781 80.660156 C 151.644531 81.410156 151.925781 81.691406 152.582031 81.316406 C 153.894531 80.472656 153.894531 81.785156 152.675781 84.886719 C 151.367188 88.359375 152.769531 87.890625 155.300781 83.945312 C 156.421875 82.160156 157.734375 80.941406 158.203125 81.128906 C 158.578125 81.410156 159.890625 80.566406 161.105469 79.34375 C 162.324219 78.125 163.636719 77.28125 164.105469 77.5625 C 164.574219 77.84375 165.507812 77.65625 166.164062 77.089844 C 166.914062 76.433594 167.851562 76.058594 168.226562 76.152344 C 168.695312 76.246094 170.285156 75.871094 171.691406 75.308594 C 175.25 73.804688 175.4375 73.898438 173.75 76.433594 C 172.910156 77.65625 172.160156 81.222656 171.972656 84.320312 C 171.691406 89.296875 171.785156 89.863281 173.285156 89.484375 C 175.0625 89.015625 175.15625 85.730469 173.378906 86.199219 C 172.816406 86.292969 172.347656 86.011719 172.347656 85.449219 C 172.347656 84.980469 172.722656 84.507812 173.191406 84.507812 C 174.5 84.507812 176.1875 86.949219 175.34375 87.796875 C 174.96875 88.265625 175.15625 88.265625 175.71875 87.984375 C 176.375 87.609375 176.84375 87.890625 176.75 88.546875 C 176.75 89.109375 176.84375 91.363281 176.84375 93.335938 C 177.03125 97 177.03125 97 178.714844 95.214844 C 180.496094 93.242188 182.929688 81.410156 181.621094 80.941406 C 181.152344 80.753906 180.964844 80.191406 181.246094 79.71875 C 181.527344 79.25 181.339844 78.03125 180.777344 76.996094 C 180.214844 75.871094 179.839844 74.085938 180.121094 72.960938 C 180.402344 71.269531 180.964844 71.925781 182.835938 75.964844 C 184.710938 80.097656 185.273438 80.753906 185.835938 79.25 C 186.210938 78.21875 186.117188 77.375 185.460938 77.183594 C 184.898438 76.996094 183.867188 75.683594 183.117188 74.179688 C 181.808594 71.644531 181.808594 71.550781 183.867188 71.738281 C 184.992188 71.925781 186.863281 72.492188 188.082031 73.148438 C 189.207031 73.710938 190.613281 73.992188 191.171875 73.710938 C 191.640625 73.335938 192.859375 73.617188 193.703125 74.367188 C 195.109375 75.496094 195.203125 75.402344 193.984375 73.898438 C 192.203125 71.644531 194.171875 71.832031 196.230469 74.179688 C 198.480469 76.621094 199.882812 76.621094 198.480469 74.085938 C 197.542969 72.300781 197.636719 72.207031 199.699219 72.773438 C 200.820312 73.148438 202.601562 74.179688 203.632812 75.027344 C 205.222656 76.433594 205.316406 76.433594 205.035156 74.273438 C 204.378906 70.238281 200.257812 68.171875 191.265625 67.515625 C 186.769531 67.230469 183.960938 66.855469 184.992188 66.761719 C 186.023438 66.667969 187.707031 66.011719 188.644531 65.261719 C 189.675781 64.507812 191.359375 63.851562 192.390625 63.851562 C 195.296875 63.851562 201.382812 61.972656 201.382812 61.128906 C 201.382812 60.09375 196.699219 58.125 195.761719 58.6875 C 195.296875 58.96875 193.890625 58.78125 192.578125 58.21875 C 190.613281 57.464844 189.582031 57.84375 186.210938 60.378906 C 181.058594 64.320312 179.746094 65.074219 179.933594 64.132812 C 180.027344 63.757812 179.839844 61.785156 179.464844 59.90625 C 178.621094 56.152344 179.558594 53.335938 180.777344 55.402344 C 181.246094 56.152344 181.714844 55.402344 182.183594 53.429688 C 182.554688 51.644531 183.867188 48.921875 185.085938 47.230469 C 186.304688 45.636719 186.957031 44.039062 186.492188 43.664062 C 186.023438 43.382812 185.367188 44.039062 184.992188 45.070312 C 184.710938 46.105469 183.773438 46.949219 183.023438 46.949219 C 182.183594 46.949219 181.714844 48.078125 181.621094 50.425781 C 181.621094 52.394531 181.339844 53.429688 181.058594 52.773438 C 180.308594 50.894531 178.902344 51.457031 178.808594 53.710938 C 178.714844 55.683594 178.621094 55.683594 178.246094 53.992188 C 177.964844 52.960938 177.21875 51.738281 176.46875 51.363281 C 175.71875 50.988281 175.15625 49.953125 175.15625 49.203125 C 175.15625 48.453125 174.3125 46.855469 173.285156 45.824219 C 172.253906 44.695312 170.941406 42.347656 170.285156 40.660156 C 169.628906 38.96875 168.882812 37.558594 168.414062 37.558594 C 168.039062 37.558594 167.945312 38.3125 168.320312 39.15625 C 168.789062 40.46875 168.414062 40.375 166.539062 38.6875 C 162.886719 35.398438 162.511719 36.246094 165.882812 40.1875 Z M 173.9375 49.203125 C 174.6875 50.800781 175.8125 53.148438 176.5625 54.460938 C 178.246094 57.65625 179.464844 67.136719 178.058594 66.292969 C 177.5 65.917969 177.03125 64.601562 177.03125 63.382812 C 177.03125 60.472656 173.378906 53.335938 172.253906 54.085938 C 171.785156 54.367188 172.253906 56.058594 173.285156 57.84375 C 174.40625 59.625 175.0625 61.035156 174.78125 61.035156 C 174.5 61.035156 173.9375 61.035156 173.5625 61.035156 C 173.097656 61.035156 172.816406 60.472656 172.816406 59.8125 C 172.722656 59.25 172.160156 58.78125 171.503906 58.96875 C 170.847656 59.0625 170.566406 58.78125 170.847656 58.3125 C 171.128906 57.84375 170.753906 56.996094 170.003906 56.339844 C 168.226562 54.835938 168.226562 53.148438 170.003906 53.898438 C 171.972656 54.648438 173.378906 51.550781 172.066406 49.296875 C 171.503906 48.265625 170.941406 46.855469 170.847656 46.199219 C 170.472656 44.226562 172.441406 46.105469 173.9375 49.203125 Z M 169.066406 56.621094 C 170.941406 58.3125 170.941406 58.3125 169.066406 57.65625 C 167.382812 56.996094 167.289062 57.089844 168.507812 58.59375 C 169.253906 59.4375 170.378906 60 171.035156 59.71875 C 171.785156 59.4375 172.253906 59.53125 172.160156 59.90625 C 171.878906 61.316406 173.46875 63.851562 174.3125 63.289062 C 174.78125 63.007812 175.0625 63.101562 174.96875 63.570312 C 174.78125 63.945312 175.4375 65.355469 176.28125 66.574219 L 177.871094 68.828125 L 180.496094 66.199219 C 185.835938 60.847656 188.738281 59.15625 191.546875 59.71875 C 195.949219 60.472656 196.324219 62.347656 192.203125 62.726562 C 190.332031 62.914062 188.082031 63.570312 187.332031 64.226562 C 186.585938 64.789062 184.429688 66.011719 182.554688 66.855469 C 179.464844 68.265625 179.183594 68.640625 179.371094 72.492188 C 179.464844 74.648438 179.839844 77.28125 180.214844 78.125 C 180.683594 79.15625 180.589844 79.816406 179.933594 79.816406 C 179.371094 79.816406 179.183594 80.472656 179.464844 81.222656 C 179.839844 81.972656 180.496094 82.351562 181.152344 82.066406 C 181.714844 81.785156 181.527344 82.066406 180.777344 82.820312 C 179.933594 83.476562 179.464844 84.699219 179.652344 85.636719 C 179.839844 86.480469 179.558594 88.546875 178.996094 90.332031 L 178.152344 93.429688 L 178.058594 90.425781 C 177.964844 88.828125 177.59375 87.140625 177.03125 86.855469 C 176.5625 86.574219 176.09375 85.449219 176.09375 84.320312 C 176.09375 83.007812 175.625 82.632812 174.6875 82.914062 C 173.9375 83.289062 173.097656 83.007812 172.722656 82.445312 C 172.347656 81.878906 172.441406 81.691406 172.910156 81.972656 C 173.46875 82.257812 174.40625 81.691406 175.0625 80.566406 C 175.71875 79.53125 175.8125 78.96875 175.25 79.34375 C 174.6875 79.625 174.21875 79.4375 174.21875 78.96875 C 174.21875 78.40625 174.6875 77.9375 175.25 77.9375 C 175.71875 77.9375 176 77.5625 175.71875 77.089844 C 175.34375 76.621094 175.53125 75.214844 176 73.992188 C 176.46875 72.773438 176.46875 70.894531 176 69.671875 C 174.78125 66.480469 169.535156 60.191406 167.476562 59.53125 C 166.164062 59.15625 165.976562 58.6875 166.726562 57.75 C 167.476562 56.902344 167.382812 56.527344 166.539062 56.621094 C 163.449219 56.714844 161.105469 56.246094 161.105469 55.496094 C 161.105469 54.085938 167.195312 54.929688 169.066406 56.621094 Z M 199.511719 60.660156 C 199.511719 60.847656 198.667969 61.035156 197.542969 61.035156 C 196.511719 61.035156 195.855469 60.660156 196.230469 60.09375 C 196.699219 59.34375 199.511719 59.8125 199.511719 60.660156 Z M 172.816406 68.546875 C 173.097656 69.015625 172.910156 69.484375 172.441406 69.484375 C 171.878906 69.484375 171.410156 69.015625 171.410156 68.546875 C 171.410156 67.984375 171.597656 67.609375 171.785156 67.609375 C 172.066406 67.609375 172.535156 67.984375 172.816406 68.546875 Z M 200.726562 70.238281 C 202.132812 70.800781 203.257812 71.738281 203.257812 72.300781 C 203.257812 72.960938 202.695312 73.054688 201.476562 72.398438 C 200.539062 71.832031 197.261719 71.457031 194.265625 71.550781 C 187.050781 71.738281 180.214844 70.238281 181.152344 68.734375 C 181.714844 67.796875 197.636719 69.015625 200.726562 70.238281 Z M 159.515625 79.34375 C 159.234375 80.191406 158.765625 80.660156 158.578125 80.378906 C 158.296875 80.097656 158.390625 79.53125 158.765625 78.96875 C 159.609375 77.46875 160.171875 77.75 159.515625 79.34375 Z M 155.675781 81.878906 C 155.019531 82.539062 154.550781 82.632812 154.550781 82.066406 C 154.550781 80.753906 155.675781 79.625 156.328125 80.285156 C 156.515625 80.566406 156.234375 81.316406 155.675781 81.878906 Z M 155.675781 81.878906 "/>
<path style=" stroke:none;fill-rule:nonzero;fill:rgb(0%,0%,0%);fill-opacity:1;" d="M 188.550781 42.441406 C 188.175781 43.101562 187.707031 44.507812 187.613281 45.449219 C 187.425781 46.480469 186.585938 48.078125 185.742188 49.015625 C 184.710938 50.234375 184.523438 51.082031 185.179688 51.738281 C 186.117188 52.675781 184.242188 57.464844 181.621094 60.660156 C 181.058594 61.410156 180.683594 62.253906 180.964844 62.441406 C 181.808594 63.289062 186.492188 55.402344 186.863281 52.773438 C 186.957031 51.363281 187.238281 50.140625 187.332031 49.953125 C 187.425781 49.859375 187.613281 49.484375 187.707031 49.015625 C 187.800781 48.640625 188.644531 47.042969 189.488281 45.351562 C 190.332031 43.664062 191.078125 42.160156 191.078125 41.785156 C 191.078125 40.847656 189.300781 41.316406 188.550781 42.441406 Z M 188.550781 42.441406 "/>
<path style=" stroke:none;fill-rule:nonzero;fill:rgb(0%,0%,0%);fill-opacity:1;" d="M 234.730469 45.824219 C 235.851562 46.667969 237.539062 48.640625 238.476562 50.234375 C 240.066406 52.773438 240.160156 52.960938 238.570312 52.300781 C 236.414062 51.457031 236.507812 52.773438 238.851562 54.273438 C 239.878906 54.835938 240.441406 55.964844 240.160156 56.621094 C 239.878906 57.371094 240.347656 58.5 241.191406 59.15625 C 244.28125 61.691406 242.410156 61.785156 238.664062 59.25 C 236.414062 57.75 233.511719 56.246094 232.105469 55.964844 C 229.859375 55.496094 229.484375 55.683594 229.484375 57.277344 C 229.484375 58.59375 230.046875 59.25 231.167969 59.0625 C 232.011719 58.96875 233.792969 59.25 235.007812 59.8125 C 238.101562 61.035156 235.945312 62.253906 232.761719 61.035156 C 229.671875 59.8125 226.390625 59.8125 227.140625 60.941406 C 227.421875 61.410156 228.828125 61.785156 230.328125 61.785156 C 231.730469 61.691406 233.417969 61.972656 234.074219 62.347656 C 234.730469 62.726562 236.132812 62.441406 237.351562 61.597656 C 239.410156 60.285156 239.691406 60.378906 241.378906 62.253906 C 244.5625 65.917969 246.34375 69.390625 245.40625 69.957031 C 244.75 70.332031 244.84375 71.175781 245.5 72.398438 C 247.28125 75.871094 245.875 75.121094 242.222656 70.894531 C 240.347656 68.546875 238.101562 66.667969 237.351562 66.667969 C 236.601562 66.667969 236.226562 66.199219 236.507812 65.730469 C 236.789062 65.167969 236.320312 64.507812 235.382812 64.226562 C 234.449219 63.945312 233.042969 63.382812 232.292969 63.007812 C 231.542969 62.535156 230.046875 62.535156 229.015625 63.007812 C 227.421875 63.664062 227.515625 63.757812 229.765625 63.757812 C 231.167969 63.851562 232.292969 64.226562 232.292969 64.695312 C 232.292969 65.167969 233.136719 65.917969 234.167969 66.199219 C 236.039062 66.761719 244.5625 74.179688 243.441406 74.179688 C 243.160156 74.179688 240.535156 73.335938 237.726562 72.398438 C 232.855469 70.707031 232.199219 70.707031 227.984375 72.113281 C 222.832031 73.710938 222.363281 73.992188 223.113281 74.742188 C 223.488281 75.027344 224.613281 74.742188 225.738281 74.179688 C 228.453125 72.773438 236.039062 72.679688 238.570312 73.992188 C 239.691406 74.648438 241.566406 75.214844 242.785156 75.308594 C 244.65625 75.496094 245.03125 75.964844 244.9375 78.78125 C 244.9375 80.660156 244.375 83.101562 243.71875 84.226562 C 242.316406 86.855469 241.378906 93.242188 242.597656 92.492188 C 243.160156 92.117188 243.535156 91.457031 243.535156 90.894531 C 243.535156 90.332031 244.28125 89.015625 245.21875 87.984375 C 246.71875 86.105469 246.71875 86.105469 245.03125 86.761719 C 243.347656 87.328125 243.253906 87.234375 244.5625 85.730469 C 245.40625 84.792969 246.15625 82.160156 246.25 79.816406 C 246.4375 77.46875 246.71875 75.402344 246.90625 75.214844 C 247.9375 74.179688 249.621094 77.375 249.621094 80.566406 C 249.714844 82.445312 250.089844 84.886719 250.558594 85.824219 C 251.121094 87.042969 251.027344 87.421875 250.277344 86.949219 C 249.621094 86.574219 249.433594 87.703125 249.714844 90.800781 C 249.902344 93.335938 249.714844 96.527344 249.152344 98.125 C 248.402344 100.660156 248.308594 100.753906 248.402344 98.59375 C 248.496094 95.777344 246.25 90.144531 245.125 90.144531 C 244.65625 90.144531 244.5625 90.800781 244.84375 91.644531 C 245.125 92.398438 245.03125 92.867188 244.5625 92.585938 C 244.1875 92.304688 243.347656 93.148438 242.691406 94.464844 C 241.378906 97.5625 241.378906 98.125 242.878906 96.808594 C 243.628906 96.246094 244.46875 96.058594 244.84375 96.433594 C 245.21875 96.808594 245.21875 96.433594 244.84375 95.496094 C 244.5625 94.652344 244.65625 93.898438 245.125 93.898438 C 245.59375 93.898438 246.0625 94.464844 246.15625 95.027344 C 246.25 95.683594 246.625 98.03125 246.90625 100.285156 L 247.46875 104.226562 L 249.246094 101.976562 C 250.183594 100.753906 251.027344 98.6875 251.027344 97.46875 C 251.027344 96.246094 251.402344 93.804688 251.964844 92.023438 C 252.710938 89.582031 252.523438 87.890625 251.402344 84.792969 C 249.058594 78.78125 250.464844 77.75 253.085938 83.476562 C 254.867188 87.421875 255.523438 88.171875 256.085938 86.855469 C 256.460938 85.730469 256.085938 84.601562 254.773438 83.382812 C 251.121094 80.003906 253.085938 78.125 258.050781 80.191406 C 260.113281 81.128906 261.328125 81.222656 261.328125 80.566406 C 261.328125 79.910156 261.796875 80.003906 262.734375 80.753906 C 263.484375 81.316406 264.515625 81.597656 265.078125 81.222656 C 265.636719 80.847656 266.667969 81.128906 267.417969 81.691406 C 269.011719 83.007812 269.292969 81.597656 267.792969 80.097656 C 266.667969 78.96875 271.914062 80.472656 274.257812 81.972656 C 276.222656 83.289062 275.472656 80.285156 273.320312 78.21875 C 270.320312 75.496094 267.511719 74.839844 259.457031 74.933594 C 254.492188 74.933594 253.179688 74.742188 254.960938 74.179688 C 256.367188 73.804688 258.425781 72.773438 259.644531 71.925781 C 260.769531 71.082031 263.015625 70.425781 264.609375 70.425781 C 271.070312 70.425781 273.695312 68.359375 269.292969 66.667969 C 263.671875 64.507812 260.113281 64.789062 255.992188 67.703125 C 253.742188 69.296875 251.964844 70.144531 251.964844 69.578125 C 251.964844 69.109375 252.339844 68.453125 252.804688 68.171875 C 254.210938 67.324219 257.675781 60 257.113281 59.15625 C 256.835938 58.6875 257.019531 58.125 257.582031 57.75 C 258.144531 57.371094 258.332031 56.714844 257.957031 56.246094 C 257.675781 55.683594 258.050781 54.554688 258.800781 53.710938 C 260.488281 51.644531 261.515625 48.828125 260.488281 48.828125 C 260.019531 48.828125 259.175781 49.484375 258.519531 50.234375 C 257.582031 51.269531 257.113281 51.457031 256.648438 50.707031 C 256.179688 50.046875 255.710938 50.519531 255.335938 52.019531 C 255.054688 53.335938 254.117188 54.460938 253.367188 54.460938 C 252.433594 54.460938 251.964844 55.402344 251.964844 57.277344 C 251.964844 59.34375 251.589844 59.90625 250.558594 59.53125 C 248.777344 58.78125 248.683594 60.753906 250.464844 62.441406 C 251.589844 63.570312 251.871094 63.289062 252.433594 60.285156 C 252.992188 56.996094 256.085938 52.582031 257.769531 52.582031 C 258.238281 52.582031 257.863281 53.710938 257.019531 55.023438 C 256.085938 56.339844 255.335938 58.5 255.242188 59.90625 C 255.148438 61.316406 254.023438 64.039062 252.898438 66.011719 C 250.464844 70.144531 249.808594 69.578125 248.683594 63.195312 C 248.402344 61.035156 247.46875 59.0625 246.71875 58.78125 C 245.96875 58.5 245.40625 57.464844 245.40625 56.527344 C 245.40625 55.496094 244.75 54.085938 243.8125 53.429688 C 242.972656 52.675781 241.472656 50.332031 240.535156 48.078125 C 238.664062 43.851562 237.351562 42.722656 238.476562 46.199219 L 239.039062 48.359375 L 236.789062 46.199219 C 235.570312 45.070312 234.167969 44.132812 233.605469 44.132812 C 233.136719 44.132812 233.699219 44.882812 234.730469 45.824219 Z M 243.535156 56.527344 C 243.535156 57.371094 244.375 58.6875 245.3125 59.34375 C 247.65625 61.035156 250.558594 75.121094 248.214844 73.710938 C 247.75 73.429688 247.28125 72.113281 247.28125 70.800781 C 247.28125 69.484375 246.15625 66.292969 244.75 63.570312 C 243.347656 60.847656 242.316406 58.125 242.503906 57.371094 C 242.597656 56.714844 242.316406 56.339844 241.941406 56.621094 C 241.472656 56.902344 241.097656 56.246094 241.003906 55.117188 C 241.003906 53.992188 240.628906 52.207031 240.253906 51.175781 C 239.878906 50.140625 240.441406 50.519531 241.566406 52.113281 C 242.597656 53.617188 243.535156 55.683594 243.535156 56.527344 Z M 237.914062 59.53125 C 237.914062 59.71875 237.070312 59.71875 236.039062 59.4375 C 235.007812 59.15625 234.167969 58.59375 234.167969 58.03125 C 234.167969 57.558594 235.007812 57.65625 236.039062 58.21875 C 237.070312 58.78125 237.914062 59.34375 237.914062 59.53125 Z M 265.917969 67.515625 C 270.976562 67.796875 270.414062 68.359375 264.421875 69.109375 C 261.421875 69.390625 258.800781 70.050781 258.519531 70.425781 C 258.238281 70.894531 256.085938 72.207031 253.648438 73.523438 C 250.183594 75.402344 249.339844 75.589844 249.996094 74.367188 C 250.464844 73.429688 250.933594 72.300781 251.027344 71.832031 C 251.121094 71.269531 251.589844 70.988281 252.152344 71.175781 C 252.617188 71.269531 254.492188 70.144531 256.367188 68.640625 C 258.707031 66.761719 260.207031 66.105469 261.238281 66.574219 C 262.078125 66.949219 264.234375 67.324219 265.917969 67.515625 Z M 271.445312 77.9375 C 274.722656 80.003906 275.566406 81.410156 272.476562 79.71875 C 269.667969 78.21875 264.703125 77.5625 265.453125 78.78125 C 265.824219 79.25 265.546875 80.003906 264.984375 80.378906 C 264.234375 80.847656 264.140625 80.660156 264.609375 79.910156 C 265.078125 79.0625 264.421875 78.78125 262.171875 78.96875 C 260.394531 79.0625 258.050781 78.875 256.835938 78.5 C 255.429688 78.03125 254.117188 78.21875 253.179688 79.0625 C 251.871094 80.097656 251.683594 80.097656 252.339844 78.96875 C 252.804688 78.21875 252.617188 77.375 251.871094 76.902344 C 251.027344 76.433594 254.023438 76.058594 259.457031 76.058594 C 266.667969 76.058594 268.917969 76.433594 271.445312 77.9375 Z M 271.445312 77.9375 "/>
<path style=" stroke:none;fill-rule:nonzero;fill:rgb(0%,0%,0%);fill-opacity:1;" d="M 13.207031 49.671875 C 12.363281 50.234375 13.488281 50.800781 16.765625 51.644531 C 19.390625 52.207031 21.355469 53.148438 21.074219 53.617188 C 20.792969 53.992188 21.542969 54.648438 22.855469 55.023438 C 24.074219 55.308594 25.945312 56.433594 26.882812 57.558594 C 28.566406 59.4375 28.476562 59.4375 26.695312 58.78125 C 25.664062 58.40625 23.980469 57.9375 22.949219 57.75 C 13.300781 56.246094 12.175781 56.152344 12.175781 57.183594 C 12.175781 57.75 11.519531 58.21875 10.773438 58.21875 C 10.023438 58.21875 8.054688 59.0625 6.371094 60.09375 C 4.214844 61.410156 3.746094 61.972656 4.964844 61.972656 C 6.558594 61.972656 6.558594 62.160156 4.777344 64.695312 C 2.15625 68.265625 2.339844 68.921875 5.246094 67.042969 C 6.929688 65.824219 7.304688 65.261719 6.371094 64.695312 C 5.527344 64.132812 5.621094 63.757812 6.929688 63.289062 C 8.054688 62.820312 8.242188 62.441406 7.492188 61.972656 C 6.648438 61.503906 6.648438 61.128906 7.398438 60.660156 C 7.960938 60.285156 8.429688 60.472656 8.429688 60.941406 C 8.429688 61.503906 9.085938 61.972656 9.835938 61.972656 C 11.519531 61.972656 11.707031 60.09375 10.117188 60 C 9.460938 60 10.117188 59.53125 11.519531 59.15625 C 14.144531 58.3125 20.980469 58.59375 25.289062 59.625 C 26.601562 60 28.195312 60.285156 28.753906 60.285156 C 29.410156 60.378906 29.785156 60.660156 29.503906 60.847656 C 29.222656 61.128906 29.503906 61.878906 30.066406 62.632812 C 30.910156 63.476562 30.816406 63.851562 30.066406 63.851562 C 29.503906 63.851562 29.035156 63.382812 29.035156 62.820312 C 29.035156 62.253906 28.289062 62.066406 27.445312 62.347656 C 26.507812 62.632812 24.257812 63.007812 22.480469 63.289062 C 17.421875 63.851562 13.769531 64.976562 11.707031 66.292969 C 9.179688 68.078125 11.613281 67.984375 15.546875 66.105469 C 17.328125 65.261719 19.578125 64.789062 20.605469 65.074219 C 21.636719 65.355469 22.480469 65.167969 22.480469 64.695312 C 22.480469 63.664062 27.820312 63.570312 28.476562 64.601562 C 28.660156 64.976562 26.976562 65.917969 24.539062 66.667969 C 17.515625 68.640625 13.019531 71.457031 10.960938 74.839844 C 8.898438 78.3125 7.585938 78.40625 9.460938 74.933594 C 10.492188 72.960938 10.492188 72.867188 8.992188 74.085938 C 5.902344 76.621094 6.558594 74.367188 9.742188 71.550781 L 13.019531 68.734375 L 10.585938 68.078125 C 8.148438 67.515625 8.148438 67.515625 9.929688 65.636719 C 11.988281 63.664062 13.582031 63.195312 22.011719 61.972656 L 27.632812 61.128906 L 20.511719 61.410156 C 16.578125 61.597656 12.832031 62.066406 12.082031 62.535156 C 11.332031 62.914062 10.117188 63.382812 9.367188 63.382812 C 8.523438 63.382812 7.960938 64.320312 7.960938 65.730469 C 7.867188 67.042969 7.585938 68.640625 7.117188 69.390625 C 6.464844 70.332031 6.835938 70.519531 8.523438 69.957031 C 10.492188 69.390625 10.585938 69.484375 9.273438 70.519531 C 7.398438 72.113281 4.683594 76.152344 4.683594 77.28125 C 4.683594 77.75 5.339844 77.65625 6.089844 76.996094 C 7.398438 75.871094 7.492188 76.246094 6.929688 79.625 C 6.558594 81.785156 6.558594 83.570312 6.835938 83.570312 C 7.117188 83.570312 8.710938 81.035156 10.398438 77.9375 C 12.082031 74.839844 13.582031 72.492188 13.769531 72.679688 C 14.050781 72.867188 13.769531 74.085938 13.113281 75.308594 L 12.082031 77.46875 L 13.957031 75.214844 C 15.082031 74.085938 15.734375 72.679688 15.453125 72.207031 C 15.175781 71.832031 15.734375 71.644531 16.765625 71.832031 C 17.796875 72.019531 19.671875 71.363281 21.074219 70.332031 C 22.386719 69.296875 23.417969 68.640625 23.417969 68.921875 C 23.417969 69.203125 24.820312 68.640625 26.507812 67.609375 C 30.441406 65.167969 31.285156 65.261719 29.785156 67.796875 C 28.195312 70.800781 27.914062 79.25 29.503906 77.9375 C 31.191406 76.527344 31.941406 77.9375 30.441406 79.53125 C 29.691406 80.285156 29.035156 81.597656 29.035156 82.445312 C 29.035156 83.664062 29.503906 83.476562 30.816406 81.691406 L 32.597656 79.34375 L 33.15625 81.691406 C 33.90625 85.449219 34.28125 144.511719 33.53125 144.042969 C 33.0625 143.761719 32.785156 140.660156 32.785156 137 C 32.785156 132.773438 32.410156 130.519531 31.753906 130.519531 C 30.535156 130.519531 31.191406 143.476562 32.503906 144.605469 C 32.878906 144.980469 49.269531 144.511719 68.84375 143.574219 C 115.117188 141.414062 121.390625 141.414062 144.246094 143.574219 C 166.351562 145.730469 235.382812 152.867188 237.726562 153.242188 C 239.410156 153.527344 239.410156 153.808594 242.035156 131.929688 C 242.878906 125.730469 244.09375 116.246094 244.9375 110.894531 C 245.78125 105.449219 246.25 100.191406 246.15625 99.15625 C 245.78125 97.1875 245.40625 99.535156 241.753906 126.292969 C 240.722656 133.996094 239.410156 143.101562 238.945312 146.484375 L 238.007812 152.585938 L 238.289062 146.296875 C 238.476562 138.785156 237.445312 138.691406 236.695312 146.109375 C 236.414062 149.019531 236.039062 151.460938 235.851562 151.648438 C 235.570312 151.929688 170.191406 145.449219 169.722656 145.074219 C 169.347656 144.699219 172.253906 120.285156 174.3125 107.046875 C 176 95.777344 176.46875 90.332031 175.71875 91.175781 C 175.53125 91.363281 174.125 101.035156 172.535156 112.679688 C 170.941406 124.324219 169.253906 136.53125 168.695312 139.910156 L 167.757812 146.015625 L 168.039062 139.722656 C 168.132812 136.15625 167.945312 133.617188 167.570312 134.089844 C 167.101562 134.464844 166.726562 137 166.632812 139.628906 L 166.351562 144.605469 L 161.667969 144.042969 C 159.046875 143.761719 148.179688 142.820312 137.503906 141.882812 C 126.730469 140.941406 117.738281 139.910156 117.363281 139.535156 C 116.242188 138.5 115.585938 113.335938 116.148438 94.273438 C 116.519531 81.503906 116.335938 77.183594 115.492188 76.246094 C 114.835938 75.589844 114.273438 74.367188 114.273438 73.617188 C 114.273438 72.867188 113.617188 72.300781 112.773438 72.300781 C 111.464844 72.300781 111.371094 72.492188 112.492188 73.898438 C 113.242188 74.742188 113.335938 75.214844 112.679688 74.839844 C 112.023438 74.460938 111.277344 75.308594 110.621094 77.183594 C 110.058594 78.78125 109.683594 80.191406 109.777344 80.285156 C 109.964844 80.378906 111.089844 79.910156 112.398438 79.15625 C 113.710938 78.5 114.179688 77.9375 113.523438 77.9375 C 112.867188 77.9375 112.585938 77.46875 112.867188 76.902344 C 113.242188 76.339844 113.710938 76.152344 113.898438 76.339844 C 114.179688 76.621094 114.460938 91.175781 114.648438 108.828125 C 114.929688 139.535156 114.460938 147.046875 113.242188 133.523438 L 112.585938 127.234375 L 112.773438 134.089844 C 112.867188 140.753906 112.867188 140.847656 110.527344 140.847656 C 109.214844 140.847656 92.074219 141.507812 72.3125 142.351562 C 52.640625 143.195312 36.15625 143.667969 35.78125 143.289062 C 35.40625 142.914062 35.03125 128.359375 34.84375 110.988281 C 34.65625 92.398438 34.1875 78.96875 33.71875 78.5 C 33.15625 77.9375 32.785156 76.996094 32.785156 76.246094 C 32.785156 75.496094 32.222656 75.121094 31.378906 75.402344 C 30.628906 75.777344 29.785156 75.496094 29.410156 74.839844 C 29.035156 74.179688 29.035156 73.992188 29.503906 74.367188 C 29.878906 74.742188 30.816406 74.367188 31.472656 73.429688 C 33.15625 71.269531 33.0625 69.957031 31.378906 71.363281 C 29.972656 72.492188 29.316406 71.363281 30.628906 70.144531 C 31.003906 69.765625 31.378906 67.796875 31.566406 65.730469 C 31.847656 62.632812 31.472656 61.503906 28.476562 58.21875 C 24.820312 54.179688 17.515625 48.828125 15.640625 48.828125 C 14.988281 48.828125 13.957031 49.203125 13.207031 49.671875 Z M 34.46875 81.222656 C 34.1875 81.503906 33.625 81.035156 33.34375 80.097656 C 32.785156 78.78125 32.878906 78.6875 33.8125 79.53125 C 34.46875 80.191406 34.75 80.941406 34.46875 81.222656 Z M 34.46875 81.222656 "/>
<path style=" stroke:none;fill-rule:nonzero;fill:rgb(0%,0%,0%);fill-opacity:1;" d="M 120.457031 62.820312 C 121.671875 64.695312 122.703125 66.667969 122.703125 67.324219 C 122.703125 67.984375 123.171875 68.546875 123.734375 68.546875 C 124.296875 68.546875 124.484375 67.796875 124.203125 66.855469 C 123.828125 65.730469 124.109375 65.824219 125.417969 67.324219 C 126.355469 68.453125 127.386719 69.109375 127.667969 68.828125 C 128.417969 68.171875 124.484375 63.851562 123.171875 63.851562 C 122.609375 63.851562 121.671875 63.007812 121.015625 61.972656 C 119.519531 59.4375 120.082031 59.625 126.542969 63.007812 C 132.070312 66.011719 138.625 72.207031 138.625 74.460938 C 138.625 75.027344 137.691406 74.460938 136.660156 72.960938 C 135.628906 71.550781 134.222656 70.425781 133.476562 70.425781 C 132.820312 70.425781 131.789062 69.765625 131.132812 69.015625 C 130.007812 67.703125 128.324219 67.890625 128.324219 69.390625 C 128.324219 69.765625 128.980469 70.894531 129.820312 71.925781 C 131.226562 73.617188 131.226562 73.617188 130.851562 71.550781 C 130.476562 69.765625 130.570312 69.578125 131.601562 70.425781 C 132.351562 71.082031 133.195312 72.398438 133.570312 73.429688 C 133.941406 74.839844 134.316406 75.027344 134.878906 74.179688 C 135.347656 73.335938 136.191406 73.898438 137.785156 75.964844 C 140.78125 80.097656 141.53125 79.625 139.84375 74.554688 C 138.8125 71.457031 137.128906 69.296875 133.664062 66.574219 C 127.855469 61.972656 122.703125 59.25 120.082031 59.4375 C 118.300781 59.53125 118.300781 59.625 120.457031 62.820312 Z M 120.457031 62.820312 "/>
<path style=" stroke:none;fill-rule:nonzero;fill:rgb(0%,0%,0%);fill-opacity:1;" d="M 104.4375 63.570312 C 103.128906 64.320312 102.097656 64.601562 102.097656 64.320312 C 102.097656 63.945312 100.878906 64.601562 99.378906 65.636719 C 97.976562 66.667969 96.476562 67.324219 96.195312 67.042969 C 95.914062 66.761719 94.324219 68.359375 92.636719 70.613281 C 90.761719 73.242188 89.828125 73.898438 90.105469 72.585938 C 90.574219 70.988281 90.292969 70.707031 89.078125 71.082031 C 88.234375 71.363281 88.984375 70.238281 90.667969 68.546875 C 92.449219 66.949219 93.574219 65.355469 93.292969 65.074219 C 92.542969 64.320312 86.171875 71.363281 86.171875 73.054688 C 86.171875 74.179688 86.359375 74.179688 87.671875 73.148438 C 89.078125 72.019531 89.171875 72.113281 88.703125 73.710938 C 86.453125 82.066406 87.390625 83.195312 90.667969 75.777344 C 92.074219 72.679688 93.105469 71.363281 93.574219 72.113281 C 94.042969 72.867188 94.882812 72.398438 96.382812 70.425781 C 97.507812 68.828125 98.816406 67.796875 99.285156 68.078125 C 99.660156 68.359375 100.691406 67.890625 101.535156 67.136719 C 102.378906 66.292969 103.875 65.449219 104.90625 65.261719 C 105.9375 65.074219 107.714844 64.226562 108.746094 63.476562 L 110.808594 62.066406 L 108.839844 62.253906 C 107.714844 62.347656 105.75 62.914062 104.4375 63.570312 Z M 104.4375 63.570312 "/>
<path style=" stroke:none;fill-rule:nonzero;fill:rgb(0%,0%,0%);fill-opacity:1;" d="M 237.257812 62.535156 C 236.695312 62.820312 237.914062 64.601562 240.066406 66.667969 C 244.9375 71.175781 246.53125 70.519531 242.410156 65.730469 C 239.132812 61.972656 239.039062 61.878906 237.257812 62.535156 Z M 242.222656 66.855469 L 244.9375 69.957031 L 241.941406 67.230469 C 239.039062 64.601562 238.382812 63.851562 239.132812 63.851562 C 239.316406 63.851562 240.628906 65.261719 242.222656 66.855469 Z M 242.222656 66.855469 "/>
<path style=" stroke:none;fill-rule:nonzero;fill:rgb(0%,0%,0%);fill-opacity:1;" d="M 152.300781 70.613281 C 150.710938 72.867188 151.085938 74.273438 152.863281 72.492188 C 153.894531 71.457031 154.738281 68.546875 154.082031 68.546875 C 153.894531 68.546875 153.050781 69.484375 152.300781 70.613281 Z M 152.300781 70.613281 "/>
<path style=" stroke:none;fill-rule:nonzero;fill:rgb(0%,0%,0%);fill-opacity:1;" d="M 189.957031 78.5 C 193.984375 82.351562 196.699219 85.730469 196.699219 86.855469 C 196.699219 88.453125 196.417969 88.359375 194.921875 86.105469 C 193.046875 83.195312 191.171875 84.132812 192.859375 87.042969 C 193.609375 88.359375 193.890625 88.453125 193.890625 87.328125 C 193.984375 86.574219 194.828125 87.609375 195.949219 89.675781 C 198.292969 93.992188 199.136719 92.867188 197.636719 87.421875 C 196.605469 83.476562 189.769531 75.496094 185.460938 73.242188 C 184.148438 72.585938 186.210938 74.933594 189.957031 78.5 Z M 189.957031 78.5 "/>
<path style=" stroke:none;fill-rule:nonzero;fill:rgb(0%,0%,0%);fill-opacity:1;" d="M 154.550781 74.179688 C 153.425781 74.933594 153.425781 75.121094 155.019531 75.121094 C 156.796875 75.214844 156.796875 75.214844 155.300781 76.433594 C 154.363281 77.089844 153.613281 77.9375 153.613281 78.3125 C 153.613281 78.6875 154.925781 78.03125 156.421875 76.808594 C 158.484375 75.308594 158.953125 74.554688 158.109375 73.992188 C 156.609375 73.054688 156.234375 73.054688 154.550781 74.179688 Z M 154.550781 74.179688 "/>
<path style=" stroke:none;fill-rule:nonzero;fill:rgb(0%,0%,0%);fill-opacity:1;" d="M 223.957031 76.621094 C 220.492188 79.53125 220.117188 81.410156 223.394531 79.25 C 224.894531 78.21875 225.738281 78.125 225.738281 78.78125 C 225.738281 79.53125 226.390625 79.4375 227.796875 78.5 C 230.234375 76.808594 231.730469 76.527344 230.886719 77.9375 C 230.511719 78.5 228.734375 79.53125 226.953125 80.285156 C 221.894531 82.445312 223.675781 82.726562 229.484375 80.753906 C 232.292969 79.816406 235.664062 79.25 236.882812 79.53125 C 238.570312 79.910156 238.945312 79.816406 238.382812 78.875 C 237.820312 78.03125 238.007812 77.75 238.945312 78.125 C 244.375 80.191406 246.25 79.625 243.066406 76.996094 C 240.910156 75.214844 227.984375 75.496094 224.988281 77.375 C 224.332031 77.75 223.863281 77.75 223.863281 77.46875 C 223.863281 77.183594 225.269531 76.339844 226.953125 75.589844 C 228.546875 74.839844 229.203125 74.273438 228.359375 74.179688 C 227.515625 74.179688 225.550781 75.308594 223.957031 76.621094 Z M 237.445312 76.996094 C 236.414062 77.46875 234.730469 77.75 233.699219 77.75 C 232.199219 77.75 232.292969 77.5625 234.167969 76.996094 C 237.351562 75.964844 239.785156 75.964844 237.445312 76.996094 Z M 242.972656 77.84375 C 243.347656 78.3125 242.691406 78.5 241.660156 78.21875 C 239.503906 77.65625 239.226562 76.996094 241.097656 76.996094 C 241.847656 76.996094 242.691406 77.375 242.972656 77.84375 Z M 242.972656 77.84375 "/>
<path style=" stroke:none;fill-rule:nonzero;fill:rgb(0%,0%,0%);fill-opacity:1;" d="M 186.398438 79.34375 C 186.398438 81.035156 188.175781 83.101562 188.832031 82.351562 C 189.207031 81.972656 188.832031 80.941406 187.988281 80.097656 C 187.144531 79.15625 186.398438 78.875 186.398438 79.34375 Z M 186.398438 79.34375 "/>
<path style=" stroke:none;fill-rule:nonzero;fill:rgb(0%,0%,0%);fill-opacity:1;" d="M 253.835938 80.285156 C 253.835938 80.472656 255.242188 81.691406 257.019531 82.820312 C 261.050781 85.542969 266.949219 92.679688 266.949219 94.652344 C 266.949219 95.777344 266.386719 95.402344 265.171875 93.617188 C 263.390625 90.894531 261.703125 91.457031 262.828125 94.367188 C 263.296875 95.402344 263.671875 95.589844 264.140625 94.839844 C 264.515625 94.179688 265.265625 94.839844 266.011719 96.621094 C 266.667969 98.21875 267.511719 99.535156 267.980469 99.535156 C 269.292969 99.535156 267.792969 93.617188 265.546875 90.050781 C 262.734375 85.636719 253.835938 78.21875 253.835938 80.285156 Z M 253.835938 80.285156 "/>
<path style=" stroke:none;fill-rule:nonzero;fill:rgb(0%,0%,0%);fill-opacity:1;" d="M 238.851562 81.597656 C 238.101562 82.160156 237.257812 82.351562 236.882812 82.066406 C 235.757812 81.410156 230.046875 84.320312 227.703125 86.761719 C 226.484375 88.078125 225.175781 88.921875 224.800781 88.734375 C 223.863281 88.171875 221.710938 93.992188 222.457031 94.746094 C 223.300781 95.496094 224.800781 92.679688 224.332031 91.269531 C 224.050781 90.613281 224.238281 90.332031 224.800781 90.613281 C 225.269531 90.894531 226.113281 90.238281 226.765625 89.109375 C 227.515625 87.703125 227.984375 87.421875 228.546875 88.171875 C 229.015625 89.015625 229.859375 88.640625 231.261719 86.761719 C 232.386719 85.355469 233.511719 84.507812 233.792969 84.792969 C 234.167969 85.167969 235.289062 84.886719 236.414062 84.320312 C 237.445312 83.664062 239.039062 83.195312 239.785156 83.101562 C 240.535156 83.007812 242.035156 82.539062 243.066406 81.878906 C 244.84375 80.847656 244.84375 80.847656 242.597656 80.753906 C 241.285156 80.753906 239.597656 81.128906 238.851562 81.597656 Z M 238.851562 81.597656 "/>
<path style=" stroke:none;fill-rule:nonzero;fill:rgb(0%,0%,0%);fill-opacity:1;" d="M 189.582031 82.914062 C 188.738281 85.167969 190.144531 87.042969 191.265625 84.980469 C 191.921875 83.945312 191.828125 83.007812 191.171875 82.351562 C 190.519531 81.691406 190.050781 81.785156 189.582031 82.914062 Z M 189.582031 82.914062 "/>
<path style=" stroke:none;fill-rule:nonzero;fill:rgb(0%,0%,0%);fill-opacity:1;" d="M 224.707031 84.414062 C 221.988281 87.234375 220.773438 90.519531 223.207031 88.359375 C 223.957031 87.796875 224.707031 87.609375 224.988281 87.890625 C 225.269531 88.078125 225.738281 87.703125 226.019531 86.949219 C 226.390625 86.011719 226.113281 85.730469 225.175781 86.105469 C 222.832031 86.949219 223.769531 85.730469 226.953125 83.664062 C 228.546875 82.632812 229.390625 81.691406 228.734375 81.691406 C 227.984375 81.691406 226.203125 82.914062 224.707031 84.414062 Z M 224.707031 84.414062 "/>
<path style=" stroke:none;fill-rule:nonzero;fill:rgb(0%,0%,0%);fill-opacity:1;" d="M 256.648438 87.703125 C 256.648438 88.359375 257.300781 89.203125 258.050781 89.582031 C 258.800781 89.863281 259.457031 90.707031 259.457031 91.457031 C 259.457031 93.617188 261.050781 94.085938 261.609375 92.117188 C 261.890625 90.894531 261.144531 89.675781 259.363281 88.359375 C 257.300781 86.855469 256.648438 86.667969 256.648438 87.703125 Z M 256.648438 87.703125 "/>
<path style=" stroke:none;fill-rule:nonzero;fill:rgb(0%,0%,0%);fill-opacity:1;" d="M 267.980469 141.414062 C 267.980469 142.445312 268.261719 142.726562 268.542969 141.976562 C 268.824219 141.320312 268.730469 140.472656 268.449219 140.191406 C 268.167969 139.816406 267.886719 140.378906 267.980469 141.414062 Z M 267.980469 141.414062 "/>
<path style=" stroke:none;fill-rule:nonzero;fill:rgb(0%,0%,0%);fill-opacity:1;" d="M 66.785156 150.898438 C 67.628906 151.085938 69.125 151.085938 70.0625 150.898438 C 70.90625 150.613281 70.15625 150.425781 68.375 150.425781 C 66.597656 150.425781 65.847656 150.613281 66.785156 150.898438 Z M 66.785156 150.898438 "/>
<path style=" stroke:none;fill-rule:nonzero;fill:rgb(0%,0%,0%);fill-opacity:1;" d="M 200.539062 154.558594 C 200.539062 155.589844 200.820312 155.875 201.101562 155.121094 C 201.382812 154.464844 201.289062 153.621094 201.007812 153.339844 C 200.726562 152.960938 200.445312 153.527344 200.539062 154.558594 Z M 200.539062 154.558594 "/>
</g>
</svg>
