<?xml version="1.0" encoding="UTF-8"?>
<svg xmlns="http://www.w3.org/2000/svg" xmlns:xlink="http://www.w3.org/1999/xlink" width="150pt" height="270pt" viewBox="0 0 150 270" version="1.1">
<g id="surface1">
<path style=" stroke:none;fill-rule:nonzero;fill:rgb(0%,0%,0%);fill-opacity:1;" d="M 39.5 25.113281 C 39.5 25.460938 40.898438 26.660156 42.601562 27.707031 C 45.351562 29.457031 47.898438 32.152344 55.601562 41.339844 C 56.949219 42.984375 56.398438 43.234375 54.25 41.988281 C 52.398438 40.890625 48.5 40.539062 48.5 41.4375 C 48.5 41.738281 49.699219 42.535156 51.148438 43.1875 C 52.75 43.933594 55.199219 45.882812 57.25 47.929688 C 60.898438 51.574219 61.050781 51.921875 58.699219 50.675781 C 56.050781 49.328125 53.898438 50.125 56.199219 51.574219 C 56.851562 52.023438 59.101562 54.371094 61.199219 56.867188 C 65 61.308594 66.148438 63.15625 63.75 60.910156 C 61.050781 58.414062 62.699219 60.761719 66.148438 64.355469 C 69.851562 68.296875 72.199219 72.292969 74.75 79.03125 C 75.949219 82.226562 76.398438 84.425781 75.699219 83.726562 C 75.5 83.578125 74.5 81.230469 73.449219 78.582031 C 70.398438 71.09375 68.648438 68.148438 64.050781 63.007812 C 60 58.464844 59.601562 58.164062 54.25 55.667969 C 44.949219 51.273438 43.449219 50.875 38 51.023438 C 32.851562 51.175781 31.648438 51.972656 35.800781 52.472656 C 37.199219 52.671875 38.800781 53.019531 39.300781 53.320312 C 40.101562 53.820312 39.851562 53.871094 37.949219 53.921875 C 35.648438 53.921875 32.800781 55.417969 33.601562 56.167969 C 34.351562 56.914062 38.398438 57.464844 41.050781 57.164062 C 44 56.816406 48.199219 57.414062 50.75 58.464844 L 52.25 59.113281 L 50.648438 59.3125 C 48.148438 59.5625 48.699219 60.609375 51.75 61.609375 C 53.25 62.058594 54.5 62.65625 54.5 62.855469 C 54.5 63.105469 55.050781 63.40625 55.75 63.507812 C 57.949219 63.957031 57.101562 62.90625 54.148438 61.507812 C 51.300781 60.160156 51.25 60.160156 52.898438 60.011719 C 53.75 59.910156 54.5 59.660156 54.5 59.460938 C 54.5 59.261719 53.199219 58.464844 51.648438 57.664062 C 48.898438 56.316406 48.351562 56.214844 42.101562 56.167969 C 36.050781 56.066406 34.398438 55.867188 35.101562 55.167969 C 35.25 55.019531 37.398438 54.867188 39.898438 54.820312 C 42.398438 54.769531 44.300781 54.570312 44.101562 54.371094 C 43.898438 54.21875 42.648438 53.671875 41.25 53.121094 C 39 52.273438 38.898438 52.171875 40.148438 52.023438 C 42.101562 51.773438 46.800781 53.371094 53.550781 56.566406 C 58.851562 59.0625 59.550781 59.511719 63.101562 63.40625 C 66.75 67.351562 72.898438 77.136719 72.199219 77.835938 C 72.050781 77.984375 71.699219 77.683594 71.398438 77.1875 C 69.800781 74.289062 60.851562 66.5 57.5 65.054688 C 56.550781 64.605469 55.25 64.054688 54.648438 63.753906 C 53.351562 63.15625 52.398438 63.707031 53.5 64.453125 C 53.898438 64.703125 55.050781 65.105469 56 65.402344 C 57.75 65.902344 62.949219 69.746094 66.949219 73.542969 C 69.199219 75.738281 74.148438 81.929688 73.851562 82.226562 C 73.75 82.277344 71.648438 80.382812 69.199219 77.984375 C 66.75 75.589844 63.199219 72.542969 61.25 71.292969 C 59.351562 69.996094 56.199219 67.800781 54.25 66.402344 C 52.148438 64.902344 49.449219 63.457031 47.5 62.855469 C 43.351562 61.558594 36.550781 60.511719 33.851562 60.761719 C 32.699219 60.910156 31.199219 61.007812 30.550781 61.058594 C 29.148438 61.210938 28.449219 62.40625 29.800781 62.40625 C 31.25 62.40625 37.101562 64.554688 36.648438 64.902344 C 36.449219 65.105469 35.199219 65.652344 33.898438 66.152344 C 32.5 66.652344 31.5 67.351562 31.5 67.75 C 31.5 68.25 31.800781 68.398438 32.398438 68.148438 C 34.050781 67.5 45.800781 67.25 46.800781 67.800781 C 47.601562 68.296875 47.351562 68.347656 45.25 68.398438 C 42.300781 68.398438 40.5 68.847656 40.5 69.445312 C 40.5 69.996094 40.550781 69.996094 44.5 70.894531 C 49.398438 72.042969 54.300781 73.742188 56.800781 75.1875 L 59.25 76.636719 L 57.800781 76.886719 C 56.300781 77.136719 55.351562 78.382812 56.601562 78.382812 C 57 78.382812 58.550781 78.734375 60 79.183594 C 62.199219 79.832031 63.5 80.730469 66.699219 83.824219 C 70.949219 87.917969 73.5 91.066406 73.5 92.261719 C 73.5 92.710938 72.699219 92.261719 71.398438 91.015625 C 69 88.867188 65.550781 86.421875 63.148438 85.273438 C 61.898438 84.675781 61.5 84.625 61.300781 85.125 C 61.199219 85.472656 61.351562 86.023438 61.648438 86.320312 C 62.699219 87.371094 61.648438 87.320312 59.148438 86.121094 C 55.050781 84.125 47.699219 82.378906 43.648438 82.378906 C 41.648438 82.378906 40 82.578125 40 82.828125 C 40 83.375 41.75 83.875 43.648438 83.875 C 44.398438 83.875 45 84.125 45 84.375 C 45 84.675781 43.851562 84.875 42.398438 84.824219 C 38.5 84.722656 34.699219 85.671875 30.75 87.71875 C 28.851562 88.71875 26.5 89.867188 25.648438 90.316406 C 23.949219 91.113281 23.25 92.761719 24.898438 92.113281 C 26.300781 91.5625 30.5 90.867188 32.199219 90.867188 C 33.648438 90.914062 33.550781 91.015625 30.800781 92.511719 C 28.199219 93.910156 27.398438 94.757812 24.449219 99.101562 C 22.550781 101.847656 21.050781 104.246094 21 104.445312 C 21 105.292969 22.050781 104.746094 24.300781 102.796875 C 26.5 100.902344 31 97.503906 32.351562 96.707031 C 32.699219 96.507812 32.398438 97.554688 31.75 99.101562 C 31.050781 100.652344 30.5 102 30.5 102.097656 C 30.5 102.949219 32.050781 101.898438 34.949219 99.152344 C 39.5 94.757812 47.5 90.964844 43.5 95.109375 C 41.550781 97.105469 42.300781 97.457031 44.648438 95.660156 C 48.449219 92.8125 55.101562 91.515625 61.699219 92.363281 C 65.949219 92.914062 68.148438 93.910156 69.449219 95.859375 C 70.199219 97.007812 70.199219 97.054688 69.25 96.65625 C 65.300781 95.058594 61.101562 94.261719 57.449219 94.460938 C 53.148438 94.609375 51.449219 95.457031 53.601562 96.308594 C 56.199219 97.304688 55.300781 97.65625 50.101562 97.65625 C 44.800781 97.707031 40.5 98.554688 40.148438 99.652344 C 40.050781 100 40.851562 100.152344 42.601562 100.050781 C 45.148438 99.851562 45.050781 99.902344 40.851562 101.101562 C 36.398438 102.347656 32.300781 104.246094 29.851562 106.144531 C 28.300781 107.390625 28 108.6875 29.398438 108.089844 C 30.800781 107.441406 36.601562 106.292969 37.199219 106.492188 C 37.5 106.59375 37.101562 107.042969 36.25 107.441406 C 33.148438 109.039062 28.648438 114.132812 26.75 118.074219 C 24.351562 123.066406 24.898438 123.714844 28.601562 120.371094 C 30.148438 118.972656 31.550781 117.824219 31.699219 117.824219 C 31.898438 117.824219 31.699219 118.523438 31.25 119.324219 C 29 123.617188 26.949219 135.300781 28.449219 135.300781 C 28.75 135.300781 29 135.050781 29 134.75 C 29 133.550781 34.601562 122.816406 37.25 118.824219 C 41.25 112.882812 45.25 108.839844 42.550781 113.382812 C 41.050781 115.929688 39.398438 120.722656 39.800781 121.371094 C 40 121.667969 40.949219 120.621094 42.101562 118.824219 C 44.851562 114.429688 49.050781 109.289062 51.199219 107.691406 C 52.199219 106.890625 53 106.441406 53 106.640625 C 53 106.839844 52.199219 108.089844 51.199219 109.4375 C 50.25 110.835938 49.550781 112.082031 49.699219 112.234375 C 50.199219 112.683594 52.601562 111.183594 55.449219 108.539062 C 58.351562 105.941406 63.550781 102.25 63.898438 102.546875 C 64 102.699219 63.148438 103.695312 62.050781 104.792969 C 60.898438 105.941406 60 107.042969 60 107.339844 C 60 108.191406 61.300781 107.890625 62.300781 106.792969 C 64.25 104.59375 73.648438 99.351562 74.351562 100 C 74.5 100.152344 73.800781 101.949219 72.851562 103.945312 C 70.300781 109.136719 68.949219 112.433594 69.25 112.734375 C 69.398438 112.882812 70 112.582031 70.550781 112.035156 C 71.148438 111.535156 71.550781 111.285156 71.398438 111.585938 C 71.300781 111.835938 70.601562 113.433594 69.800781 115.03125 C 68.101562 118.722656 68.449219 120.320312 70.398438 117.824219 C 73.75 113.582031 73.898438 113.78125 71.25 119.074219 C 69.75 122.070312 68.5 125.113281 68.398438 125.765625 C 68.199219 127.261719 69.300781 127.710938 69.75 126.363281 C 70.101562 125.265625 75.351562 120.519531 75.800781 120.921875 C 75.898438 121.070312 75.25 122.367188 74.25 123.765625 C 72.648438 126.164062 71.148438 130.105469 70.25 134.152344 C 69.800781 136.347656 70.75 136.296875 71.699219 134.101562 C 72.351562 132.503906 72.550781 132.402344 74.351562 132.652344 C 75.949219 132.851562 76.5 132.703125 77.601562 131.605469 C 81.351562 127.8125 80.148438 123.714844 76.300781 127.160156 L 74.75 128.558594 L 76.199219 126.960938 C 77.550781 125.464844 77.601562 125.214844 77.101562 123.316406 C 76.800781 122.167969 76.800781 121.21875 77.050781 121.019531 C 77.898438 120.519531 77.5 119.824219 76.351562 119.824219 C 75.101562 119.824219 72.699219 121.421875 71 123.367188 L 69.949219 124.566406 L 70.300781 123.316406 C 70.75 121.621094 74.851562 114.378906 76.148438 112.984375 C 76.699219 112.332031 77.050781 111.683594 76.851562 111.535156 C 76.398438 111.085938 73.25 113.183594 71.800781 114.878906 C 71.101562 115.679688 70.398438 116.328125 70.25 116.328125 C 69.699219 116.328125 73.5 109.738281 74.851562 108.289062 C 75.800781 107.292969 75.898438 106.839844 75.449219 106.542969 C 75.050781 106.292969 74.148438 106.941406 72.898438 108.390625 C 71.851562 109.585938 71 110.386719 71 110.1875 C 71 109.988281 71.949219 107.988281 73.050781 105.84375 C 75.699219 100.75 76.101562 96.757812 74.351562 92.015625 C 73.398438 89.367188 72.5 88.121094 68.300781 83.875 C 65.550781 81.128906 63 78.882812 62.601562 78.882812 C 62.199219 78.882812 62 78.582031 62.148438 78.183594 C 62.851562 76.386719 51.5 70.894531 45.5 70.097656 C 44.148438 69.894531 43 69.597656 43 69.398438 C 43 68.796875 49 68.898438 50.898438 69.496094 C 52.648438 70.046875 53.699219 69.648438 52.5 68.898438 C 52.148438 68.699219 50.25 68 48.351562 67.398438 C 45.398438 66.453125 44.050781 66.300781 39.851562 66.5 C 35.550781 66.703125 35.050781 66.652344 36.050781 66.101562 C 36.699219 65.753906 37.800781 65.453125 38.398438 65.402344 C 40.5 65.402344 39.25 64.203125 36 63.105469 C 31.050781 61.507812 33.101562 61.160156 40.5 62.359375 C 42.300781 62.65625 44.949219 63.257812 46.398438 63.65625 C 49.050781 64.453125 54.699219 67.5 55.25 68.398438 C 55.449219 68.699219 57.648438 70.296875 60.148438 71.992188 C 65.898438 75.835938 74.449219 84.027344 74.851562 86.023438 C 75.199219 87.769531 76.25 88.269531 77.449219 87.171875 C 78.648438 86.074219 79 86.171875 79 87.570312 C 79 88.96875 80.949219 90.714844 82.949219 91.214844 C 83.648438 91.363281 85.398438 92.3125 86.75 93.3125 C 88.148438 94.359375 90.5 95.859375 92 96.707031 C 106.148438 104.445312 109.050781 106.492188 117.050781 114.28125 C 119.601562 116.777344 121.800781 119.421875 122.300781 120.570312 C 123.5 123.316406 126.449219 132.003906 126.25 132.203125 C 126.148438 132.304688 125.050781 130.757812 123.800781 128.808594 C 121 124.515625 115.398438 117.375 114.800781 117.375 C 114.398438 117.328125 114.449219 117.976562 115.25 121.621094 C 115.449219 122.617188 115.101562 122.21875 113.949219 120.222656 C 112.351562 117.328125 107.699219 112.433594 107.101562 113.03125 C 106.949219 113.230469 107.199219 114.828125 107.699219 116.628906 C 108.648438 120.222656 108.5 121.320312 107.5 118.722656 C 106.550781 116.328125 102.351562 109.386719 101.800781 109.339844 C 101.550781 109.339844 101.5 109.988281 101.699219 110.835938 C 102.101562 112.832031 101.699219 112.734375 100.550781 110.4375 C 99.300781 107.988281 95.550781 103.746094 94.949219 104.144531 C 94.699219 104.296875 94.648438 104.695312 94.851562 104.996094 C 95.25 105.644531 95.949219 109.988281 95.601562 109.636719 C 95.5 109.488281 94.648438 107.640625 93.699219 105.492188 C 92.75 103.347656 91.199219 100.402344 90.148438 98.953125 C 88.449219 96.40625 83.800781 91.863281 83 91.863281 C 82.398438 91.863281 81.898438 97.105469 82.300781 99.703125 C 82.648438 102.398438 83.300781 103.746094 86.949219 109.789062 C 88.351562 112.082031 89.449219 114.082031 89.351562 114.132812 C 89.25 114.230469 88.101562 113.730469 86.75 113.082031 C 82.75 111.035156 81.898438 111.535156 84.601562 114.378906 C 86.101562 116.027344 88 119.671875 88.75 122.320312 C 89.050781 123.417969 88.898438 123.316406 87.5 121.667969 C 86.648438 120.671875 85.601562 119.824219 85.199219 119.824219 C 84.300781 119.824219 84.300781 119.824219 85.449219 122.46875 C 86.550781 125.015625 88.148438 134.5 87.898438 136.648438 L 87.699219 138.046875 L 87.351562 136.546875 C 86.398438 132.851562 85.199219 129.707031 84.75 129.90625 C 84.5 129.957031 84.300781 130.207031 84.351562 130.355469 C 85.449219 133.652344 85.601562 144.785156 84.5 144.785156 C 84.300781 144.785156 84 142.589844 83.851562 139.894531 C 83.5 135.199219 82.398438 130.058594 81.449219 129.109375 C 80.75 128.359375 79.550781 131.953125 79.050781 136.148438 C 78.851562 138.296875 78.601562 144.984375 78.550781 151.027344 C 78.5 157.066406 78.199219 167.050781 77.851562 173.242188 C 77.550781 179.433594 77.25 200.105469 77.199219 219.175781 C 77.199219 238.246094 77.101562 254.171875 77.050781 254.472656 C 76.949219 255.621094 75.050781 255.171875 74.148438 253.773438 C 73.351562 252.574219 73.25 250.929688 73.101562 240.542969 C 73.050781 234.003906 72.800781 228.710938 72.601562 228.8125 C 72.398438 228.859375 72.199219 234.101562 72.148438 240.394531 C 72.050781 250.578125 72.148438 252.125 72.949219 253.921875 C 74.25 256.71875 76.648438 257.21875 78.148438 254.972656 C 78.75 254.023438 78.800781 252.175781 78.449219 242.890625 C 77.699219 223.71875 78.300781 185.074219 80 145.285156 C 80.5 133.503906 80.851562 130.707031 81.550781 131.855469 C 81.75 132.253906 82.101562 133.800781 82.25 135.300781 C 82.449219 136.796875 82.648438 138.695312 82.75 139.542969 C 82.851562 140.34375 83.101562 142.6875 83.300781 144.636719 C 83.449219 146.632812 83.800781 148.28125 84 148.28125 C 84.648438 148.28125 85.949219 143.785156 86.199219 140.792969 C 86.351562 139.292969 86.5 137.796875 86.5 137.546875 C 86.648438 136.496094 87.449219 139.09375 87.449219 140.640625 C 87.5 141.738281 87.75 142.289062 88.25 142.289062 C 89.898438 142.289062 88.648438 127.011719 86.75 123.265625 C 86.25 122.367188 86.148438 121.820312 86.5 121.820312 C 86.800781 121.820312 87.550781 122.917969 88.148438 124.316406 C 89.550781 127.460938 90.648438 128.058594 90.25 125.414062 C 89.398438 120.023438 88.199219 116.925781 86.101562 114.679688 C 85.398438 113.929688 85.050781 113.332031 85.351562 113.332031 C 86.101562 113.332031 90 116.277344 90 116.828125 C 90 117.125 90.351562 117.328125 90.75 117.328125 C 91.148438 117.328125 91.5 117.277344 91.5 117.175781 C 91.5 116.378906 88.601562 110.136719 87.25 108.039062 C 83.699219 102.5 83.199219 100.851562 83.449219 95.109375 L 83.550781 93.113281 L 86.5 96.308594 C 89.648438 99.753906 91.699219 103.195312 94.25 109.4375 C 95.449219 112.332031 96 113.183594 96.398438 112.734375 C 96.699219 112.285156 96.75 111.136719 96.449219 109.386719 C 96.101562 107.042969 96.148438 105.644531 96.648438 106.390625 C 96.699219 106.492188 97.449219 107.589844 98.300781 108.839844 C 99.148438 110.085938 100.25 112.035156 100.800781 113.183594 C 101.949219 115.730469 102.398438 115.878906 102.601562 113.679688 C 102.75 112.132812 102.800781 112.183594 104.75 115.730469 C 107.601562 120.972656 109.550781 123.566406 110 122.867188 C 110.300781 122.320312 109.601562 119.222656 108.449219 116.378906 C 108.199219 115.730469 108.101562 115.078125 108.25 114.929688 C 108.699219 114.480469 111.351562 117.824219 113.851562 122.070312 C 116.699219 126.910156 116.398438 126.613281 117 126.011719 C 117.25 125.765625 117.050781 124.515625 116.5 122.816406 C 116 121.320312 115.648438 120.023438 115.699219 119.921875 C 115.898438 119.722656 119.550781 124.515625 123.300781 129.90625 C 128.050781 136.796875 128.5 136.449219 126 127.910156 C 123.75 119.921875 123 118.675781 116.800781 112.632812 C 110.199219 106.191406 106.300781 103.195312 100.800781 100.351562 C 98.601562 99.203125 96.398438 97.953125 96 97.605469 C 95.601562 97.257812 93.800781 96.257812 92 95.359375 C 90.199219 94.460938 88.101562 93.261719 87.25 92.664062 C 86.449219 92.113281 84.648438 91.066406 83.25 90.367188 C 80.800781 89.167969 78.898438 86.820312 79.699219 86.023438 C 79.898438 85.824219 80.398438 86.074219 80.800781 86.621094 C 83.300781 90.167969 86.550781 91.765625 94.148438 93.3125 C 97.101562 93.859375 100.898438 94.910156 102.601562 95.609375 C 105.800781 96.90625 108 97.207031 108 96.355469 C 108 96.058594 107.800781 95.859375 107.550781 95.859375 C 107.300781 95.859375 106.75 95.308594 106.300781 94.609375 C 105.449219 93.3125 105.449219 93.3125 106.851562 93.660156 C 108.800781 94.160156 112.699219 96.109375 113.449219 97.054688 C 114.25 98.003906 115 98.105469 115 97.207031 C 115 96.457031 112.601562 93.761719 111.25 92.960938 C 109.351562 91.964844 111 91.714844 113.949219 92.613281 C 115.851562 93.160156 118.300781 94.511719 120.5 96.207031 C 122.449219 97.65625 124.300781 98.753906 124.5 98.605469 C 125.300781 98.105469 123.300781 95.058594 120.898438 93.113281 C 119.550781 92.0625 118.5 91.015625 118.5 90.765625 C 118.5 89.765625 125.949219 91.8125 127.601562 93.210938 C 128.101562 93.660156 128.5 93.761719 128.699219 93.410156 C 128.898438 93.160156 128.199219 92.363281 127.148438 91.664062 C 126.101562 90.914062 125.5 90.367188 125.800781 90.367188 C 127.050781 90.367188 132.949219 93.113281 135.148438 94.710938 C 136.449219 95.707031 137.699219 96.355469 137.851562 96.207031 C 138 96.058594 137.949219 95.109375 137.800781 94.109375 C 137.550781 92.761719 136.601562 91.464844 134.199219 89.167969 C 131.101562 86.121094 130 85.472656 124.5 83.824219 C 121.300781 82.828125 109.601562 82.925781 102.550781 84.027344 C 96.199219 84.972656 86.898438 86.621094 84.851562 87.121094 C 84.101562 87.320312 83.5 87.371094 83.5 87.222656 C 83.5 86.523438 90.601562 82.925781 94.5 81.628906 C 99.5 79.929688 99.5 79.929688 98.351562 79.332031 C 96.898438 78.484375 97.398438 77.984375 100.398438 77.085938 C 104.351562 75.835938 104.898438 75.386719 103.148438 74.589844 C 101.800781 73.992188 101.898438 73.992188 104.601562 73.941406 C 108.25 73.890625 114.050781 72.742188 117.398438 71.445312 C 118.851562 70.84375 120.5 70.394531 121 70.394531 C 122.550781 70.394531 122.148438 69.398438 120.648438 69.347656 C 119.851562 69.347656 118.800781 69.148438 118.25 68.898438 C 117.601562 68.597656 118.851562 68.449219 121.898438 68.449219 C 127.148438 68.398438 127.699219 67.847656 124.851562 65.703125 C 123 64.253906 120.601562 64.054688 117.351562 64.953125 C 114.550781 65.703125 113.949219 65.203125 116.148438 63.90625 C 120.5 61.308594 115.101562 62.058594 110.398438 64.703125 C 108.75 65.601562 108.601562 65.152344 110.050781 63.605469 L 111.101562 62.507812 L 110.050781 62.15625 C 109.300781 61.957031 108.101562 62.308594 106.25 63.355469 C 103.050781 65.152344 102.800781 65.203125 103.601562 63.90625 C 104.351562 62.707031 103.898438 62.207031 102.398438 62.558594 C 100.398438 63.054688 92.050781 70.445312 86.5 76.535156 C 79.300781 84.425781 78.851562 84.273438 83.300781 75.589844 C 84.851562 72.59375 86.75 69.347656 87.550781 68.347656 C 88.351562 67.351562 89 66.25 89 65.953125 C 89 65.601562 89.351562 65.253906 89.75 65.105469 C 90.851562 64.652344 90.648438 63.753906 89.5 64.054688 C 87.75 64.503906 88.101562 63.855469 92.050781 59.5625 C 93.800781 57.566406 93.851562 57.214844 92.25 57.515625 C 90.601562 57.863281 90.648438 57.566406 92.699219 54.667969 C 94.550781 52.121094 94.601562 51.324219 92.851562 51.472656 C 91.101562 51.574219 90.851562 51.472656 91.398438 50.773438 C 91.648438 50.476562 92.601562 48.878906 93.449219 47.28125 C 95.199219 44.035156 95.050781 42.738281 93.199219 44.484375 C 92.550781 45.082031 91.898438 45.53125 91.800781 45.382812 C 91.699219 45.28125 92.5 43.585938 93.648438 41.6875 C 97.101562 35.746094 98.050781 33.851562 97.800781 33.550781 C 97.648438 33.402344 97.199219 33.601562 96.75 33.949219 C 95.648438 34.847656 95.800781 34.199219 97.199219 32.050781 C 98.699219 29.757812 99.25 27.957031 98.5 27.957031 C 97.398438 27.957031 94.550781 30.554688 92.648438 33.300781 L 90.75 36.097656 L 90.300781 34 C 89.699219 31.203125 88.699219 31.402344 88.351562 34.398438 C 88.050781 36.996094 85.148438 44.433594 84.449219 44.433594 C 84.199219 44.433594 84 43.683594 84 42.738281 C 84 41.789062 83.75 40.839844 83.5 40.691406 C 82.449219 40.039062 82 43.335938 81.949219 51.523438 C 81.949219 56.214844 81.75 59.859375 81.550781 59.613281 C 81.351562 59.363281 80.898438 58.015625 80.601562 56.667969 C 80.300781 55.269531 79.800781 53.519531 79.5 52.722656 L 78.949219 51.222656 L 77.851562 52.324219 C 76.898438 53.320312 76.699219 54.121094 76.5 58.960938 L 76.25 64.503906 L 74.601562 59.363281 C 73.648438 56.515625 72.800781 53.820312 72.648438 53.421875 C 72.449219 52.820312 72.300781 52.820312 71.75 53.621094 C 70.800781 54.867188 69.398438 54.320312 69.601562 52.820312 C 69.699219 51.875 69.5 51.671875 68.351562 51.671875 C 66.550781 51.671875 66.148438 50.972656 65.75 46.832031 C 65.550781 44.984375 65.199219 43.4375 64.949219 43.4375 C 64.699219 43.4375 64.5 43.636719 64.5 43.933594 C 64.5 45.082031 63.648438 44.234375 62.601562 41.886719 C 61.800781 40.289062 61.101562 39.441406 60.601562 39.492188 C 58.851562 39.640625 58.5 39.390625 57.300781 37.046875 C 56.601562 35.746094 55.25 33.449219 54.25 31.953125 C 53.25 30.453125 52.101562 28.160156 51.601562 26.808594 C 50.648438 24.0625 49.351562 23.515625 49.851562 26.0625 C 50 26.960938 50.550781 28.65625 51.101562 29.855469 C 52.300781 32.75 52.300781 32.800781 50.148438 30.953125 C 44.75 26.410156 39.5 23.515625 39.5 25.113281 Z M 42.800781 26.511719 C 43.75 27.609375 43.75 27.609375 42.648438 27.011719 C 42 26.710938 41.5 26.210938 41.5 25.960938 C 41.5 25.210938 41.75 25.363281 42.800781 26.511719 Z M 95.050781 33.449219 C 92.699219 36.695312 92.050781 37.945312 92.800781 37.945312 C 92.949219 37.945312 93.648438 37.246094 94.351562 36.445312 C 97.199219 33.050781 96.050781 35.496094 89.601562 46.78125 C 88.699219 48.328125 88.300781 49.527344 88.601562 49.726562 C 88.851562 49.875 89.351562 49.625 89.75 49.128906 C 92.601562 45.035156 93.949219 44.832031 91.449219 48.828125 C 89.648438 51.773438 89.75 53.222656 91.75 52.722656 C 93 52.371094 93 52.421875 91.25 54.96875 C 89.199219 57.914062 89.148438 58.265625 90.5 58.511719 C 91.351562 58.664062 91.25 58.914062 89.5 60.910156 C 87.25 63.457031 86.601562 64.855469 87.5 65.402344 C 87.898438 65.652344 87.449219 66.652344 86.050781 68.597656 C 84.949219 70.195312 83.199219 73.292969 82.199219 75.488281 C 80.101562 79.929688 79.851562 79.832031 79.300781 74.289062 C 79.148438 72.441406 78.648438 69.996094 78.25 68.847656 C 77.050781 65.554688 77.5 50.476562 78.648438 53.421875 C 78.800781 53.820312 79.300781 55.617188 79.75 57.414062 C 80.199219 59.210938 80.949219 61.058594 81.398438 61.558594 C 82.199219 62.457031 82.25 62.457031 82.550781 61.308594 C 82.75 60.710938 82.898438 56.367188 82.949219 51.722656 C 83 44.085938 83.300781 41.4375 83.699219 45.234375 C 83.800781 46.03125 84.050781 46.679688 84.300781 46.679688 C 85 46.679688 88.449219 39.441406 88.800781 37.34375 C 89 36.296875 89.300781 35.597656 89.550781 35.746094 C 89.800781 35.898438 89.851562 36.546875 89.699219 37.195312 C 89.199219 39.242188 90.398438 38.992188 91.449219 36.84375 C 92.550781 34.546875 96.949219 29.257812 97.398438 29.65625 C 97.5 29.804688 96.5 31.503906 95.050781 33.449219 Z M 51.800781 33.949219 C 53.300781 35.496094 54 35.945312 54 35.347656 C 54 34.898438 53.800781 34.347656 53.5 34.199219 C 53.25 34.050781 53 33.5 53 33.050781 C 53 31.804688 53.949219 33 56 36.84375 C 57.449219 39.589844 58 40.242188 59.101562 40.339844 C 60.148438 40.488281 60.800781 41.089844 61.851562 42.835938 C 62.550781 44.132812 63.449219 45.433594 63.851562 45.730469 C 64.25 46.082031 64.699219 47.480469 64.949219 48.878906 C 65.398438 51.773438 66.300781 53.070312 67.601562 52.773438 C 68.199219 52.570312 68.5 52.773438 68.5 53.371094 C 68.5 54.71875 70.300781 56.167969 71.148438 55.519531 C 71.648438 55.070312 72.148438 55.96875 73.5 59.8125 C 74.398438 62.457031 75.449219 65.253906 75.851562 66.003906 C 76.648438 67.699219 79.5 80.53125 79.5 82.628906 C 79.5 83.625 79.050781 84.625 78.300781 85.324219 L 77.148438 86.421875 L 76.851562 83.726562 C 76.199219 78.632812 72 69.246094 68.5 65.304688 C 67.5 64.105469 66.25 62.308594 65.800781 61.308594 C 65.300781 60.261719 63.351562 57.664062 61.449219 55.417969 C 59.5 53.222656 58.148438 51.421875 58.398438 51.421875 C 58.648438 51.421875 59.898438 52.222656 61.199219 53.171875 C 62.449219 54.167969 63.5 54.71875 63.5 54.417969 C 63.5 53.320312 59.398438 47.980469 57 45.980469 C 55.648438 44.832031 53.5 43.386719 52.148438 42.6875 C 50.851562 42.039062 50.050781 41.4375 50.449219 41.4375 C 51.351562 41.4375 56.5 43.835938 57.601562 44.785156 C 58.050781 45.183594 58.699219 45.382812 58.949219 45.183594 C 59.601562 44.832031 55 38.644531 50.601562 33.949219 C 48.898438 32.152344 47.5 30.503906 47.5 30.253906 C 47.5 29.707031 48.851562 30.902344 51.800781 33.949219 Z M 107.5 64.902344 C 106.300781 66.003906 105.449219 67 105.648438 67.199219 C 105.851562 67.398438 107.800781 66.703125 110.050781 65.703125 C 114.449219 63.753906 115.5 63.605469 113 65.402344 C 111.300781 66.601562 111.398438 67.601562 113.148438 66.949219 C 114.601562 66.402344 119.949219 65.402344 121.601562 65.402344 C 122.300781 65.402344 123.398438 65.851562 124.050781 66.402344 L 125.25 67.351562 L 122.199219 67.398438 C 118.851562 67.398438 113.5 68.296875 112.800781 68.949219 C 112.351562 69.347656 115.351562 69.695312 117.648438 69.496094 C 118.898438 69.398438 118.699219 70.246094 117.398438 70.546875 C 116.75 70.644531 114.898438 71.144531 113.25 71.59375 C 111.601562 72.042969 107.898438 72.640625 105.050781 72.890625 C 102.199219 73.140625 99.75 73.492188 99.648438 73.589844 C 99.101562 74.140625 100.148438 74.890625 101.398438 74.890625 C 103.101562 74.890625 102.300781 75.539062 99.75 76.285156 C 96.898438 77.136719 95.699219 78.183594 96.449219 79.03125 C 96.898438 79.632812 96.601562 79.882812 94.648438 80.382812 C 91.351562 81.28125 85.550781 84.175781 83.949219 85.671875 L 82.601562 86.921875 L 81.398438 85.722656 L 80.148438 84.523438 L 88.449219 76.039062 C 97.898438 66.402344 104.949219 60.558594 102.25 64.703125 C 100.898438 66.75 101.851562 66.800781 105.398438 64.804688 C 109.699219 62.40625 110.300781 62.457031 107.5 64.902344 Z M 61 77.882812 C 61.648438 78.332031 61.648438 78.382812 61 78.332031 C 60.601562 78.332031 59.800781 78.132812 59.25 77.882812 C 58.25 77.433594 58.25 77.433594 59.25 77.433594 C 59.800781 77.433594 60.601562 77.636719 61 77.882812 Z M 48.75 83.925781 C 56 85.824219 61 87.769531 64.101562 89.964844 C 65.699219 91.113281 65.648438 89.917969 64.050781 88.269531 C 60.699219 84.824219 63.101562 85.921875 69.601562 90.765625 L 71.949219 92.511719 L 70.699219 93.160156 C 69.648438 93.710938 69.25 93.660156 67.800781 92.8125 C 65.050781 91.214844 58.800781 90.566406 53.648438 91.316406 C 51.199219 91.664062 48.148438 92.0625 46.75 92.164062 C 42.449219 92.511719 39.648438 93.761719 35.699219 97.207031 L 32.050781 100.402344 L 33 98.253906 C 33.5 97.054688 34.5 95.757812 35.199219 95.359375 C 36.550781 94.609375 36.898438 93.859375 36 93.859375 C 34.5 93.859375 28.601562 97.707031 25.300781 100.800781 C 22.449219 103.496094 22.648438 102.949219 26.398438 97.953125 C 27.898438 95.957031 29.648438 94.109375 30.300781 93.8125 C 31 93.5625 32.351562 92.8125 33.351562 92.113281 C 34.601562 91.316406 35.601562 91.015625 36.351562 91.164062 C 37.199219 91.414062 37.5 91.265625 37.5 90.617188 C 37.5 89.816406 37.050781 89.765625 32.648438 89.964844 L 27.800781 90.214844 L 30.648438 88.820312 C 35.648438 86.273438 45.199219 84.875 47.800781 86.273438 C 48.800781 86.820312 49.5 86.621094 49.5 85.824219 C 49.5 85.625 48.601562 85.125 47.5 84.675781 C 44.300781 83.425781 45.050781 82.925781 48.75 83.925781 Z M 126.300781 85.574219 C 129.949219 86.722656 130.75 87.222656 133.699219 90.167969 C 137.398438 93.859375 138.300781 95.957031 135.050781 93.363281 C 133.550781 92.214844 124.398438 88.367188 123.101562 88.367188 C 123 88.367188 123.101562 88.820312 123.25 89.417969 C 123.550781 90.316406 123.449219 90.417969 122.5 90.117188 C 120.351562 89.417969 115.949219 89.019531 115.699219 89.46875 C 115.550781 89.71875 115.5 89.964844 115.550781 90.066406 C 117 90.964844 123 96.109375 123 96.40625 C 123 96.65625 121.5 95.757812 119.648438 94.410156 C 115.75 91.613281 113.398438 90.714844 110.5 91.015625 C 108.148438 91.214844 108.050781 91.664062 110.199219 93.3125 C 111.050781 93.960938 111.300781 94.308594 110.75 94.109375 C 104.398438 91.613281 102.949219 91.664062 104.898438 94.308594 L 106 95.808594 L 103.25 94.558594 C 101.699219 93.910156 97.699219 92.8125 94.300781 92.113281 C 88.601562 90.964844 83.101562 89.117188 83.648438 88.570312 C 83.898438 88.269531 89.148438 87.371094 97.5 86.121094 C 100.398438 85.671875 104.449219 84.972656 106.5 84.625 C 112.300781 83.527344 121.25 83.976562 126.300781 85.574219 Z M 73.898438 94.460938 C 74.800781 95.359375 74.601562 96.558594 73.449219 97.257812 C 72.550781 97.804688 72.25 97.804688 71.449219 97.054688 C 70.5 96.207031 70.199219 94.808594 70.851562 94.210938 C 71.398438 93.660156 73.25 93.8125 73.898438 94.460938 Z M 68.101562 97.40625 C 70.800781 98.304688 72.851562 99.152344 72.75 99.351562 C 72.601562 99.550781 71.800781 99.902344 70.898438 100.050781 C 70 100.25 68.351562 101.050781 67.300781 101.847656 C 65.148438 103.496094 63.550781 103.894531 65.398438 102.347656 C 66.050781 101.800781 66.449219 101.148438 66.25 100.902344 C 65.75 100.050781 58.949219 103.945312 55.699219 106.941406 C 54 108.539062 52.449219 109.835938 52.300781 109.835938 C 51.898438 109.835938 53.449219 107.589844 54.949219 105.992188 C 56 104.84375 56.300781 103.847656 55.601562 103.847656 C 54.898438 103.847656 50.300781 106.890625 48.550781 108.488281 C 47.648438 109.386719 46 111.386719 44.949219 112.933594 C 43.898438 114.480469 42.75 115.929688 42.449219 116.078125 C 41.851562 116.476562 43.648438 112.734375 45.050781 110.734375 C 46.300781 108.988281 45.449219 108.4375 43.550781 109.789062 C 40.101562 112.285156 34.25 120.421875 31.199219 127.113281 C 30.25 129.207031 29.351562 130.804688 29.25 130.707031 C 28.851562 130.308594 31.398438 120.972656 32.449219 119.023438 C 33 118.074219 33.800781 116.976562 34.300781 116.628906 C 34.75 116.277344 35 115.730469 34.800781 115.378906 C 34.351562 114.679688 33.300781 115.230469 29.75 118.125 C 28.25 119.324219 27 120.070312 27 119.824219 C 27 118.675781 30.550781 113.78125 33.25 111.183594 C 34.800781 109.6875 36.949219 108.039062 38.050781 107.539062 C 39.101562 106.992188 40 106.441406 40 106.242188 C 40 105.542969 36.699219 105.292969 34.300781 105.84375 C 32.949219 106.144531 31.75 106.292969 31.648438 106.144531 C 30.851562 105.394531 43.398438 100.949219 47.101562 100.652344 C 47.300781 100.601562 47.75 100.300781 48.101562 99.953125 C 48.550781 99.453125 48.300781 99.351562 46.699219 99.304688 C 44.800781 99.253906 44.800781 99.253906 46.101562 98.753906 C 47 98.453125 49.300781 98.453125 52.851562 98.753906 C 55.851562 99.003906 58.351562 99.152344 58.449219 99.054688 C 58.800781 98.753906 56.949219 96.90625 55.949219 96.605469 C 55.398438 96.40625 55 96.058594 55 95.757812 C 55 94.660156 63 95.660156 68.101562 97.40625 Z M 74.5 97.855469 C 74.5 98.105469 74.25 98.355469 73.949219 98.355469 C 73.699219 98.355469 73.601562 98.105469 73.75 97.855469 C 73.898438 97.554688 74.148438 97.355469 74.300781 97.355469 C 74.398438 97.355469 74.5 97.554688 74.5 97.855469 Z M 75 126.910156 C 74.148438 128.011719 73.5 129.257812 73.5 129.558594 C 73.5 129.90625 73.148438 130.457031 72.75 130.804688 C 71.648438 131.703125 71.800781 131.207031 73.851562 126.761719 C 75.398438 123.316406 75.75 122.867188 76.101562 123.765625 C 76.398438 124.566406 76.101562 125.363281 75 126.910156 Z M 79 127.0625 C 79 128.261719 76.800781 131.355469 75.75 131.605469 C 73.300781 132.203125 73.25 131.503906 75.601562 129.160156 C 77.648438 127.0625 79 126.261719 79 127.0625 Z M 79 127.0625 "/>
<path style=" stroke:none;fill-rule:nonzero;fill:rgb(0%,0%,0%);fill-opacity:1;" d="M 113.75 192.214844 C 113.601562 192.464844 113.699219 192.714844 113.949219 192.714844 C 114.25 192.714844 114.5 192.464844 114.5 192.214844 C 114.5 191.914062 114.398438 191.714844 114.300781 191.714844 C 114.148438 191.714844 113.898438 191.914062 113.75 192.214844 Z M 113.75 192.214844 "/>
<path style=" stroke:none;fill-rule:nonzero;fill:rgb(0%,0%,0%);fill-opacity:1;" d="M 131.5 258.667969 C 131.5 258.917969 131.75 259.015625 132 258.867188 C 132.300781 258.714844 132.5 258.46875 132.5 258.316406 C 132.5 258.21875 132.300781 258.117188 132 258.117188 C 131.75 258.117188 131.5 258.367188 131.5 258.667969 Z M 131.5 258.667969 "/>
</g>
</svg>
