<?xml version="1.0" encoding="iso-8859-1"?>
<!-- Generator: Adobe Illustrator 18.1.1, SVG Export Plug-In . SVG Version: 6.00 Build 0)  -->
<svg version="1.1" id="Capa_1" xmlns="http://www.w3.org/2000/svg" xmlns:xlink="http://www.w3.org/1999/xlink" x="0px" y="0px"
	 viewBox="0 0 612 612" style="enable-background:new 0 0 612 612;" xml:space="preserve">
<g>
	<g>
		<path d="M169.311,408.884c38.055-29.841,81.902-69.238,126.135-113.461c44.072-44.083,83.609-88.069,113.451-126.124
			c-6.634-5.99-13.64-11.346-20.918-16.104c-8.059-5.27-16.463-9.792-25.121-13.55c-2.259-0.98-4.534-1.905-6.824-2.782
			c-10.054-3.852-20.394-6.715-30.882-8.587c-52.766-9.414-109.035,6.133-149.927,46.925
			c-40.712,40.814-56.351,97.173-46.936,149.939c1.872,10.488,4.729,20.834,8.581,30.887c0.878,2.291,1.8,4.569,2.78,6.827
			c3.758,8.658,8.279,17.064,13.548,25.123C157.954,395.255,163.321,402.25,169.311,408.884z"/>
		<path d="M581.602,11.401c-22.671-22.67-70.714-11.497-142.798,33.209c-30.115,18.677-62.729,42.23-96.441,69.501
			c7.895,2.052,15.671,4.615,23.299,7.708c2.011,0.815,3.997,1.676,5.972,2.557c28.289-22.263,55.595-41.65,81.027-57.423
			c29.831-18.501,56.25-31.335,76.401-37.114c16.69-4.787,29.065-4.731,33.949,0.153c2.081,2.081,3.483,5.926,3.643,11.702
			c-10.847,0.314-21.601,4.598-29.879,12.876c-17.209,17.209-17.209,45.111-0.001,62.32c0.654,0.654,1.33,1.276,2.014,1.88
			c-12.276,21.98-28.267,46.484-47.412,72.618c-1.768,2.414-3.562,4.841-5.384,7.282c-1.792,2.4-3.603,4.811-5.445,7.236
			c-4.148,5.461-8.417,10.967-12.79,16.509c-2.064,2.615-4.152,5.237-6.262,7.867c-2.11,2.629-4.241,5.264-6.397,7.906
			c-0.003,0.004-0.008,0.011-0.008,0.011c-3.829,4.692-7.718,9.393-11.686,14.119c-27.728,33.037-58.742,66.811-91.493,99.57
			c-32.787,32.778-66.546,63.776-99.582,91.505c-4.727,3.968-9.439,7.868-14.131,11.698c0,0-0.007,0.006-0.011,0.008
			c-2.642,2.156-5.277,4.287-7.906,6.397c-2.63,2.11-5.252,4.199-7.867,6.262c-5.541,4.373-11.048,8.642-16.509,12.79
			c-2.425,1.842-4.835,3.653-7.236,5.445c-2.441,1.822-4.868,3.616-7.282,5.384c-26.134,19.145-50.638,35.136-72.618,47.412
			c-0.604-0.684-1.226-1.36-1.88-2.014c-17.209-17.209-45.11-17.209-62.32,0.001c-8.278,8.278-12.563,19.032-12.876,29.879
			c-5.776-0.16-9.62-1.561-11.702-3.643c-4.884-4.884-4.94-17.259-0.153-33.949c5.779-20.152,18.613-46.57,37.114-76.401
			c15.773-25.432,35.159-52.738,57.423-81.027c-0.881-1.975-1.742-3.961-2.557-5.972c-3.093-7.627-5.655-15.405-7.708-23.299
			c-27.273,33.713-50.825,66.327-69.503,96.442c-44.705,72.083-55.879,120.127-33.208,142.798
			c8.702,8.701,21.315,12.45,37.49,11.141c0.13-0.011,0.266-0.027,0.397-0.038c1.532,2.25,3.286,4.394,5.282,6.39
			c17.209,17.209,45.111,17.209,62.32,0c9.891-9.891,14.085-23.312,12.607-36.207c1.828-1.011,3.666-2.035,5.526-3.094
			c20.778-11.82,43.484-26.617,67.459-43.973c1.598-1.157,3.202-2.325,4.812-3.506c2.414-1.77,4.841-3.566,7.281-5.387
			c2.402-1.793,4.812-3.603,7.235-5.445c10.031-7.62,20.21-15.627,30.48-23.967c2.879-2.337,5.766-4.702,8.659-7.092
			c2.941-2.429,5.887-4.885,8.84-7.365l0.001-0.001c2.335,0.355,4.675,0.667,7.02,0.925c1.773,0.195,3.549,0.357,5.326,0.497
			c2.786,0.218,5.576,0.374,8.368,0.458c0.93,0.029,1.861,0.049,2.792,0.061c0.073,0.001,0.147,0.004,0.219,0.005
			c0.644,0.007,1.287-0.002,1.931-0.003c0.897,0.001,1.795,0.005,2.692-0.01c1.383-0.021,2.766-0.057,4.148-0.112
			c1.769-0.071,3.538-0.169,5.304-0.294c12.368-0.879,24.657-3.105,36.631-6.679c1.244-0.371,2.484-0.757,3.721-1.157
			c2.474-0.802,4.933-1.66,7.375-2.577c2.443-0.918,4.868-1.893,7.274-2.927c19.187-8.242,37.164-20.188,52.847-35.831
			c15.752-15.79,27.577-33.648,35.82-52.836c1.034-2.406,1.997-4.82,2.916-7.263c0.916-2.442,1.775-4.901,2.577-7.375
			c0.4-1.237,0.786-2.477,1.157-3.721c3.574-11.974,5.8-24.263,6.679-36.631c0.125-1.766,0.223-3.535,0.294-5.304
			c0.055-1.382,0.09-2.765,0.112-4.148c0.014-0.897,0.01-1.795,0.01-2.692c0.001-0.644,0.01-1.287,0.003-1.931
			c-0.001-0.073-0.005-0.146-0.005-0.219c-0.012-0.931-0.032-1.862-0.061-2.792c-0.084-2.792-0.24-5.582-0.458-8.368
			c-0.139-1.778-0.302-3.553-0.496-5.326c-0.258-2.345-0.57-4.685-0.925-7.02l0.001-0.001c2.48-2.953,4.936-5.899,7.365-8.84
			c2.39-2.893,4.755-5.779,7.092-8.659c8.339-10.271,16.347-20.449,23.967-30.48c1.841-2.424,3.652-4.834,5.445-7.235
			c1.821-2.439,3.617-4.866,5.387-7.281c1.18-1.61,2.349-3.213,3.506-4.812c17.357-23.974,32.154-46.68,43.973-67.459
			c1.058-1.86,2.084-3.698,3.094-5.526c12.894,1.478,26.315-2.715,36.207-12.607c17.209-17.209,17.209-45.111,0-62.32
			c-1.996-1.996-4.14-3.749-6.39-5.282c0.011-0.131,0.027-0.266,0.038-0.397C594.051,32.717,590.303,20.103,581.602,11.401z"/>
		<path d="M475.08,97.9c-0.026,0.095-0.053,0.191-0.08,0.289c-0.017,0.061-0.035,0.121-0.052,0.184
			c-0.04,0.141-0.083,0.285-0.126,0.432c-0.015,0.051-0.032,0.105-0.048,0.157c-0.034,0.112-0.068,0.226-0.105,0.342
			c-0.021,0.067-0.042,0.136-0.064,0.204c-0.042,0.132-0.085,0.266-0.129,0.402c-0.022,0.067-0.044,0.134-0.066,0.201
			c-0.048,0.144-0.097,0.291-0.147,0.439c-0.024,0.072-0.049,0.144-0.074,0.217c-0.045,0.132-0.092,0.267-0.14,0.402
			c-0.023,0.065-0.045,0.127-0.068,0.193c-0.065,0.183-0.133,0.372-0.203,0.562c-0.029,0.078-0.058,0.158-0.088,0.238
			c-0.052,0.14-0.105,0.282-0.16,0.426c-0.03,0.077-0.058,0.155-0.089,0.233c-0.077,0.203-0.157,0.41-0.24,0.62
			c-0.032,0.08-0.064,0.161-0.096,0.241c-0.061,0.153-0.123,0.308-0.186,0.466c-0.037,0.091-0.073,0.181-0.111,0.273
			c-0.09,0.22-0.182,0.444-0.277,0.671c-0.035,0.083-0.071,0.168-0.106,0.251c-0.071,0.17-0.145,0.342-0.219,0.517
			c-0.042,0.099-0.085,0.198-0.129,0.299c-0.098,0.226-0.197,0.454-0.3,0.687c-0.038,0.086-0.077,0.173-0.115,0.259
			c-0.09,0.202-0.182,0.407-0.275,0.615c-0.049,0.108-0.098,0.217-0.148,0.326c-0.093,0.205-0.188,0.412-0.285,0.622
			c-0.046,0.099-0.091,0.197-0.138,0.297c-0.117,0.251-0.238,0.507-0.36,0.766c-0.055,0.116-0.111,0.233-0.167,0.35
			c-0.099,0.208-0.201,0.419-0.304,0.631c-0.049,0.102-0.098,0.204-0.148,0.307c-0.142,0.291-0.287,0.586-0.435,0.885
			c-0.06,0.12-0.12,0.241-0.181,0.362c-0.109,0.218-0.219,0.438-0.332,0.66c-0.061,0.121-0.121,0.24-0.183,0.362
			c-0.159,0.313-0.322,0.629-0.488,0.949c-0.061,0.118-0.124,0.239-0.186,0.358c-0.124,0.239-0.251,0.481-0.379,0.725
			c-0.023,0.044-0.047,0.088-0.07,0.133c-8.372-0.812-17.029,1.987-23.442,8.4c-2.228,2.228-4.014,4.73-5.369,7.394
			c-2.727,5.36-3.693,11.383-2.891,17.213c0.502,3.646,1.696,7.213,3.579,10.495c-2.208,3.022-4.481,6.088-6.831,9.202
			c-1.757,2.328-3.562,4.686-5.397,7.062c-1.791,2.319-3.603,4.648-5.466,7.011c-30.134,38.23-69.441,81.916-113.513,125.998
			c-44.038,44.027-87.78,83.39-126.01,113.525c-2.363,1.863-4.703,3.686-7.022,5.477c-2.376,1.835-4.734,3.64-7.062,5.397
			c-3.114,2.35-6.18,4.624-9.202,6.831c-3.281-1.882-6.848-3.077-10.495-3.579c-5.831-0.802-11.854,0.163-17.213,2.891
			c-2.664,1.356-5.166,3.141-7.394,5.369c-6.413,6.413-9.212,15.07-8.4,23.442c-0.045,0.023-0.089,0.047-0.133,0.07
			c-0.244,0.129-0.486,0.255-0.725,0.379c-0.12,0.062-0.24,0.125-0.358,0.186c-0.321,0.167-0.637,0.329-0.949,0.488
			c-0.122,0.062-0.242,0.122-0.362,0.183c-0.222,0.113-0.442,0.223-0.66,0.332c-0.121,0.061-0.242,0.121-0.362,0.181
			c-0.299,0.148-0.594,0.294-0.885,0.436c-0.104,0.051-0.205,0.099-0.307,0.148c-0.212,0.103-0.423,0.205-0.631,0.304
			c-0.117,0.056-0.234,0.112-0.35,0.167c-0.258,0.122-0.515,0.243-0.766,0.36c-0.1,0.046-0.198,0.092-0.297,0.138
			c-0.21,0.096-0.417,0.192-0.622,0.285c-0.109,0.049-0.218,0.099-0.326,0.148c-0.207,0.093-0.413,0.185-0.615,0.275
			c-0.086,0.038-0.173,0.077-0.259,0.115c-0.233,0.102-0.462,0.202-0.687,0.3c-0.101,0.043-0.2,0.086-0.299,0.129
			c-0.174,0.074-0.347,0.148-0.517,0.219c-0.083,0.035-0.169,0.071-0.251,0.106c-0.227,0.095-0.451,0.187-0.671,0.277
			c-0.092,0.038-0.183,0.074-0.273,0.111c-0.157,0.063-0.313,0.125-0.466,0.186c-0.08,0.032-0.161,0.064-0.241,0.096
			c-0.211,0.083-0.417,0.163-0.621,0.24c-0.079,0.03-0.156,0.059-0.233,0.089c-0.144,0.054-0.286,0.107-0.426,0.16
			c-0.079,0.03-0.16,0.059-0.238,0.088c-0.191,0.07-0.379,0.138-0.562,0.203c-0.065,0.023-0.128,0.045-0.193,0.068
			c-0.135,0.048-0.27,0.094-0.402,0.14c-0.073,0.025-0.145,0.05-0.217,0.074c-0.149,0.05-0.295,0.099-0.439,0.147
			c-0.067,0.022-0.134,0.043-0.201,0.066c-0.136,0.044-0.27,0.087-0.402,0.129c-0.068,0.021-0.137,0.043-0.204,0.064
			c-0.116,0.036-0.23,0.071-0.342,0.105c-0.052,0.015-0.105,0.033-0.157,0.048c-0.147,0.044-0.291,0.086-0.432,0.126
			c-0.063,0.017-0.123,0.035-0.184,0.052c-0.098,0.027-0.194,0.054-0.289,0.08c-0.053,0.014-0.106,0.029-0.158,0.043
			c-0.007,0.002-0.014,0.004-0.021,0.006c2.167-8.083,10.546-28.147,42.548-70.493c0.525-0.695,1.064-1.398,1.596-2.098
			c-5.422-7.736-10.236-15.867-14.425-24.356c-5.342,6.846-10.395,13.518-15.116,19.976c-16.051,21.954-27.612,40.478-34.36,55.058
			c-3.838,8.292-6.104,15.243-6.927,21.25c-1.543,11.26,2.372,17.864,5.928,21.42c3.48,3.48,9.92,7.345,20.846,6.003
			c5.831-0.716,12.551-2.816,20.548-6.419c3.517-1.585,7.275-3.462,11.264-5.624c11.129,6.595,25.701,5.142,35.317-4.351
			c0.045-0.045,0.093-0.086,0.138-0.132c3.454-3.454,5.854-7.561,7.212-11.923c1.211-3.889,1.587-7.978,1.132-11.994
			c5.162-3.755,10.455-7.712,15.869-11.869c2.406-1.847,4.836-3.733,7.288-5.656c2.391-1.875,4.805-3.789,7.237-5.734
			c2.542,1.632,5.118,3.188,7.725,4.671c0.181,0.102,0.361,0.207,0.543,0.309c2.398,1.353,4.821,2.646,7.269,3.873
			c39.29-31.565,80.22-68.443,119.751-107.963c39.624-39.634,76.387-80.449,107.952-119.739c-1.227-2.448-2.531-4.86-3.884-7.258
			c-0.102-0.182-0.206-0.361-0.309-0.543c-1.483-2.607-3.039-5.183-4.671-7.725c1.944-2.432,3.858-4.846,5.734-7.237
			c1.923-2.452,3.808-4.881,5.656-7.288c4.157-5.415,8.114-10.707,11.869-15.869c4.016,0.456,8.105,0.079,11.994-1.132
			c4.361-1.358,8.469-3.758,11.923-7.212c0.045-0.045,0.086-0.093,0.131-0.138c9.493-9.616,10.945-24.188,4.351-35.317
			c2.162-3.989,4.039-7.746,5.624-11.264c3.603-7.996,5.703-14.718,6.419-20.548c1.342-10.926-2.524-17.367-6.003-20.846
			c-3.556-3.556-10.16-7.471-21.42-5.928c-6.007,0.823-12.958,3.089-21.25,6.927c-14.58,6.748-33.104,18.309-55.058,34.36
			c-6.458,4.721-13.13,9.775-19.976,15.116c8.489,4.189,16.62,9.003,24.356,14.425c0.7-0.532,1.404-1.071,2.098-1.596
			c42.346-32.001,62.41-40.381,70.493-42.548c-0.002,0.007-0.004,0.014-0.006,0.021C475.109,97.794,475.095,97.847,475.08,97.9z"/>
	</g>
</g>
<g>
</g>
<g>
</g>
<g>
</g>
<g>
</g>
<g>
</g>
<g>
</g>
<g>
</g>
<g>
</g>
<g>
</g>
<g>
</g>
<g>
</g>
<g>
</g>
<g>
</g>
<g>
</g>
<g>
</g>
</svg>
