<?xml version="1.0" standalone="no"?>
<!DOCTYPE svg PUBLIC "-//W3C//DTD SVG 20010904//EN"
 "http://www.w3.org/TR/2001/REC-SVG-20010904/DTD/svg10.dtd">
<svg version="1.0" xmlns="http://www.w3.org/2000/svg"
 width="716.000000pt" height="648.000000pt" viewBox="0 0 716.000000 648.000000"
 preserveAspectRatio="xMidYMid meet">
<metadata>
Created by potrace 1.16, written by Peter Selinger 2001-2019
</metadata>
<g transform="translate(0.000000,648.000000) scale(0.100000,-0.100000)"
fill="#000000" stroke="none">
<path d="M3525 6206 c-22 -12 -94 -55 -160 -93 -168 -98 -1069 -623 -1560
-908 -620 -360 -696 -406 -701 -420 -3 -7 -2 -653 3 -1436 l8 -1423 460 -263
c253 -145 654 -375 890 -511 237 -135 585 -335 775 -444 190 -109 351 -198
358 -198 7 0 81 40 165 89 396 231 1468 855 1865 1085 l442 258 0 1392 c0 766
-3 1413 -6 1437 -6 44 -7 45 -103 100 -89 52 -858 493 -1576 904 -170 98 -323
185 -340 195 -335 194 -455 260 -466 260 -8 0 -32 -11 -54 -24z m450 -251
c160 -92 679 -390 1155 -662 476 -272 870 -500 877 -507 19 -17 20 -2804 1
-2821 -7 -7 -251 -151 -543 -320 -737 -428 -1022 -594 -1375 -800 -456 -266
-471 -275 -479 -275 -8 0 -66 97 -718 1220 -243 418 -226 386 -218 428 3 20
47 210 96 422 49 212 110 471 134 575 138 591 432 1855 456 1955 11 47 26 112
34 145 100 431 198 841 201 847 3 5 24 -3 47 -16 23 -14 173 -100 332 -191z
m-478 163 c-3 -7 -188 -332 -412 -723 -224 -390 -569 -995 -768 -1342 -199
-348 -364 -633 -367 -633 -3 0 -55 87 -117 193 -61 105 -182 314 -268 462
-347 597 -397 686 -392 698 3 6 90 61 193 121 104 61 279 162 389 226 110 64
342 199 515 300 822 477 1177 684 1195 696 26 17 38 17 32 2z m2 -140 c-6 -36
-114 -499 -149 -643 -11 -47 -21 -90 -139 -595 -50 -212 -160 -686 -246 -1055
-297 -1280 -328 -1410 -335 -1418 -8 -9 -25 19 -400 662 -246 423 -252 435
-237 460 12 22 446 779 1284 2246 250 436 236 415 222 343z m-2254 -1446 c43
-75 134 -231 201 -347 66 -115 200 -346 297 -513 117 -201 174 -309 169 -320
-3 -9 -98 -177 -210 -372 -112 -195 -277 -482 -366 -637 -88 -156 -164 -283
-167 -283 -8 0 -19 1172 -19 1973 0 350 3 637 8 637 4 -1 43 -62 87 -138z
m768 -1324 c156 -267 635 -1090 662 -1138 17 -30 195 -336 395 -680 460 -791
450 -773 445 -778 -2 -2 -192 104 -422 235 -535 307 -1159 665 -1578 905 -181
104 -333 193 -337 196 -4 4 155 291 353 637 444 776 408 715 419 715 5 0 33
-42 63 -92z"/>
</g>
</svg>
