<?xml version="1.0" encoding="UTF-8"?>
<svg xmlns="http://www.w3.org/2000/svg" xmlns:xlink="http://www.w3.org/1999/xlink" width="224pt" height="158pt" viewBox="0 0 224 158" version="1.1">
<g id="surface1">
<path style=" stroke:none;fill-rule:nonzero;fill:rgb(0%,0%,0%);fill-opacity:1;" d="M 5.972656 16.457031 L 5.972656 20.945312 L 36.398438 20.761719 L 66.828125 20.574219 L 67.050781 16.269531 L 67.273438 11.96875 L 5.972656 11.96875 Z M 14.671875 14.773438 C 14.484375 15.074219 14.859375 15.824219 15.53125 16.421875 C 16.574219 17.394531 16.652344 17.394531 16.203125 16.160156 C 15.792969 15.148438 15.941406 14.886719 16.800781 15.222656 C 17.398438 15.484375 17.921875 15.335938 17.921875 14.960938 C 17.921875 14.589844 18.40625 14.4375 19.039062 14.699219 C 19.636719 14.925781 19.972656 15.410156 19.75 15.785156 C 19.523438 16.160156 19.675781 16.457031 20.121094 16.457031 C 20.535156 16.457031 20.90625 16.121094 20.90625 15.710938 C 20.90625 15.296875 22.101562 14.960938 23.519531 14.960938 C 25.574219 14.960938 26.132812 15.261719 26.132812 16.347656 C 26.132812 17.84375 16.539062 18.292969 14.261719 16.871094 C 13.589844 16.457031 13.367188 16.496094 13.664062 16.980469 C 13.925781 17.394531 13.214844 17.765625 11.945312 17.804688 C 9.332031 17.878906 8.25 16.570312 9.894531 15.410156 C 11.164062 14.4375 15.195312 13.914062 14.671875 14.773438 Z M 31.585938 14.960938 C 32.480469 14.960938 32.890625 15.410156 32.703125 16.269531 C 32.40625 17.878906 30.425781 18.03125 29.71875 16.457031 C 29.308594 15.523438 29.230469 15.5625 29.15625 16.644531 C 29.121094 18.03125 26.878906 18.515625 26.878906 17.167969 C 26.878906 16.71875 27.179688 16.53125 27.515625 16.757812 C 27.851562 16.980469 28.113281 16.683594 28.113281 16.085938 C 28.113281 15.484375 27.851562 15.1875 27.515625 15.410156 C 27.179688 15.636719 26.878906 15.410156 26.878906 14.925781 C 26.878906 14.363281 27.515625 14.214844 28.558594 14.476562 C 29.492188 14.738281 30.835938 14.960938 31.585938 14.960938 Z M 35.914062 15.523438 C 35.953125 16.308594 36.101562 16.457031 36.324219 15.898438 C 37.035156 14.214844 41.066406 14.738281 41.066406 16.53125 C 41.066406 17.953125 40.730469 18.066406 37.707031 17.765625 C 33.863281 17.394531 33.226562 16.980469 33.863281 15.375 C 34.457031 13.800781 35.839844 13.914062 35.914062 15.523438 Z M 46.292969 16.347656 C 46.257812 17.429688 46.179688 17.429688 45.546875 16.457031 C 44.910156 15.484375 44.835938 15.484375 44.800781 16.496094 C 44.800781 17.132812 44.128906 17.691406 43.308594 17.765625 C 41.402344 17.878906 41.253906 15.1875 43.121094 14.773438 C 45.0625 14.363281 46.292969 14.960938 46.292969 16.347656 Z M 52.265625 16.046875 C 52.265625 17.355469 51.929688 17.765625 51.222656 17.503906 C 50.625 17.28125 49.429688 17.46875 48.609375 17.917969 C 47.226562 18.664062 47.039062 18.554688 47.039062 16.871094 C 47.039062 14.960938 49.242188 13.988281 49.316406 15.898438 C 49.316406 16.421875 49.652344 16.234375 50.101562 15.523438 C 51.183594 13.652344 52.265625 13.914062 52.265625 16.046875 Z M 56.632812 15.785156 C 55.925781 16.234375 55.925781 16.421875 56.523438 16.457031 C 57.007812 16.457031 57.605469 16.160156 57.828125 15.785156 C 58.835938 14.140625 63.464844 15.035156 63.464844 16.90625 C 63.464844 17.992188 63.019531 18.703125 62.347656 18.703125 C 61.75 18.703125 61.226562 18.402344 61.226562 18.066406 C 61.226562 17.429688 58.5 17.503906 55.441406 18.214844 C 54.542969 18.441406 53.574219 18.253906 53.273438 17.804688 C 52.976562 17.320312 53.125 17.207031 53.648438 17.503906 C 54.207031 17.84375 54.507812 17.394531 54.507812 16.195312 C 54.507812 14.699219 54.804688 14.4375 56.074219 14.773438 C 57.230469 15.074219 57.382812 15.335938 56.632812 15.785156 Z M 56.632812 15.785156 "/>
<path style=" stroke:none;fill-rule:nonzero;fill:rgb(0%,0%,0%);fill-opacity:1;" d="M 87.359375 54.386719 C 66.378906 82.851562 66.601562 82.554688 70.597656 81.429688 C 73.359375 80.683594 75.1875 81.019531 72.6875 81.84375 C 71.605469 82.179688 47.785156 112.925781 45.398438 117.042969 C 44.652344 118.3125 70.039062 129.386719 73.769531 129.460938 L 76.535156 129.535156 L 73.621094 130.804688 L 70.710938 132.117188 L 90.683594 140.980469 C 101.695312 145.878906 111.066406 149.882812 111.515625 149.84375 C 112.261719 149.84375 136.492188 139.335938 137.3125 138.660156 C 137.460938 138.550781 136.863281 137.839844 135.96875 137.089844 C 134.324219 135.78125 134.398438 135.742188 143.695312 131.777344 C 148.847656 129.570312 153.066406 127.476562 153.066406 127.101562 C 153.066406 126.730469 153.886719 126.429688 154.859375 126.429688 C 157.769531 126.429688 178.453125 117.191406 178.453125 115.882812 C 178.453125 115.246094 174.046875 109.558594 157.023438 88.277344 C 156.238281 87.304688 155.867188 87.453125 154.148438 89.398438 L 152.207031 91.644531 L 152.617188 89.734375 C 152.953125 88.125 150.714844 84.722656 138.84375 68.789062 C 121.820312 45.972656 123.835938 48.066406 120.960938 50.125 L 118.570312 51.804688 L 119.691406 49.675781 C 120.660156 47.730469 112.523438 34.675781 106.699219 28.839844 C 106.511719 28.691406 97.8125 40.171875 87.359375 54.386719 Z M 105.765625 73.089844 C 105.464844 73.351562 71.902344 80.046875 70.785156 80.046875 C 70.484375 80.046875 77.390625 70.359375 86.128906 58.539062 C 94.828125 46.71875 102.816406 35.835938 103.824219 34.414062 L 105.652344 31.792969 L 105.839844 52.292969 C 105.953125 63.550781 105.914062 72.941406 105.765625 73.089844 Z M 113.71875 59.027344 C 110.582031 65.046875 107.855469 70.171875 107.59375 70.472656 C 107.332031 70.769531 107.222656 62.503906 107.332031 52.144531 C 107.445312 41.78125 107.519531 32.992188 107.519531 32.65625 C 107.519531 32.316406 110.207031 35.648438 113.457031 40.0625 L 119.390625 48.101562 Z M 137.984375 70.058594 L 151.425781 88.089844 L 151.683594 107.203125 C 151.835938 117.714844 151.796875 126.46875 151.574219 126.617188 C 150.527344 127.515625 135.109375 134.023438 134.511719 133.796875 C 134.136719 133.648438 128.613281 129.160156 122.230469 123.8125 L 110.582031 114.085938 L 110.542969 94.597656 L 110.507812 75.074219 L 112.632812 71.03125 C 113.828125 68.789062 116.703125 63.289062 119.054688 58.839844 C 121.445312 54.386719 123.609375 51.019531 123.945312 51.359375 C 124.28125 51.695312 130.59375 60.109375 137.984375 70.058594 Z M 109.125 93.886719 C 109.199219 103.574219 109.273438 112.027344 109.3125 112.664062 C 109.386719 113.5625 104.683594 115.621094 90.382812 120.929688 L 71.34375 128 L 59.210938 122.613281 C 52.527344 119.660156 47.039062 117.191406 47.039062 117.117188 C 47.039062 117.042969 52.753906 109.449219 59.695312 100.207031 L 72.351562 83.414062 L 89.003906 79.933594 C 98.148438 78.027344 106.398438 76.417969 107.332031 76.382812 L 109.011719 76.308594 Z M 167.367188 103.425781 L 176.886719 115.582031 L 167.105469 120.257812 C 161.726562 122.839844 157.210938 124.933594 157.0625 124.933594 C 156.910156 124.933594 156.800781 117.117188 156.800781 107.613281 C 156.800781 98.078125 157.023438 90.484375 157.285156 90.78125 C 157.585938 91.042969 162.101562 96.730469 167.367188 103.425781 Z M 110.65625 132.976562 C 110.46875 141.09375 110.28125 147.824219 110.207031 147.902344 C 110.132812 148.011719 102.851562 144.871094 94.042969 140.980469 C 85.230469 137.054688 77.054688 133.425781 75.863281 132.902344 C 73.808594 132.003906 74.292969 131.742188 89.601562 126.128906 C 98.375 122.914062 106.550781 119.808594 107.820312 119.285156 C 109.089844 118.722656 110.320312 118.238281 110.542969 118.238281 C 110.804688 118.199219 110.84375 124.859375 110.65625 132.976562 Z M 124.320312 128.972656 C 129.660156 133.460938 134.289062 137.351562 134.585938 137.613281 C 135.035156 137.988281 120.660156 144.832031 112.933594 147.902344 C 112.222656 148.199219 112 145.019531 112 133.535156 C 112 119.621094 112.074219 118.835938 113.308594 119.808594 C 114.015625 120.371094 118.980469 124.484375 124.320312 128.972656 Z M 124.320312 128.972656 "/>
</g>
</svg>
