<?xml version="1.0" standalone="no"?>
<!DOCTYPE svg PUBLIC "-//W3C//DTD SVG 20010904//EN"
 "http://www.w3.org/TR/2001/REC-SVG-20010904/DTD/svg10.dtd">
<svg version="1.0" xmlns="http://www.w3.org/2000/svg"
 width="300.000000pt" height="67.000000pt" viewBox="0 0 300.000000 67.000000"
 preserveAspectRatio="xMidYMid meet">
<metadata>
Created by potrace 1.10, written by Peter Selinger 2001-2011
</metadata>
<g transform="translate(0.000000,67.000000) scale(0.100000,-0.100000)"
fill="#000000" stroke="none">
<path d="M188 483 c-16 -18 -68 -235 -68 -284 0 -36 21 -51 67 -47 31 2 41 9
53 33 10 20 21 29 33 27 22 -4 57 25 57 47 0 10 9 4 26 -17 l26 -33 102 2 c68
2 106 7 117 16 14 11 18 11 29 -2 15 -18 51 -20 68 -3 10 10 17 10 32 0 26
-16 40 -15 62 5 16 14 20 15 36 1 27 -24 65 -29 97 -12 25 13 36 14 69 3 35
-12 40 -11 56 8 16 20 17 20 28 2 14 -21 52 -25 70 -7 9 9 18 8 37 -2 15 -8
41 -14 60 -14 19 0 45 6 60 14 19 10 28 11 37 2 17 -17 38 -15 60 5 17 15 19
15 36 0 24 -22 50 -22 74 0 17 15 19 15 39 -3 24 -21 90 -24 114 -4 13 11 15
8 15 -14 0 -62 72 -81 94 -24 8 22 17 28 39 28 63 0 107 57 107 137 0 71 -25
92 -105 92 -40 -1 -66 -6 -77 -16 -16 -15 -20 -15 -36 0 -25 23 -88 21 -127
-3 -32 -20 -32 -20 -50 0 -10 11 -26 20 -35 20 -9 0 -26 14 -38 30 -13 17 -29
30 -37 30 -23 0 -55 -38 -55 -65 0 -28 -12 -32 -30 -10 -18 22 -92 19 -122 -5
-25 -19 -26 -19 -43 0 -23 25 -130 27 -157 2 -16 -14 -20 -14 -36 1 -25 22
-80 21 -116 -2 -27 -18 -29 -18 -46 -1 -15 15 -36 18 -123 18 -80 0 -109 -4
-118 -14 -10 -12 -15 -12 -35 1 -26 17 -91 20 -114 5 -9 -5 -19 -5 -26 1 -7 6
-23 9 -36 8 -43 -4 -58 1 -58 19 0 10 -5 23 -12 30 -18 18 -82 15 -100 -5z
m92 -20 c0 -14 -15 -28 -29 -28 -10 0 -20 -25 -32 -80 -32 -146 -32 -144 -10
-138 16 4 19 1 14 -16 -4 -17 -13 -21 -44 -21 -36 0 -39 2 -34 23 11 46 55
257 55 262 0 3 18 5 40 5 22 0 40 -3 40 -7z m1156 -13 c-19 -64 -19 -65 -5
-52 18 17 64 15 79 -3 9 -11 9 -29 -1 -85 -11 -64 -14 -70 -37 -70 -20 0 -23
4 -18 23 15 53 18 105 7 112 -19 11 -48 -23 -56 -63 -10 -62 -16 -72 -36 -72
-24 0 -24 -7 3 123 21 100 24 107 46 107 19 0 22 -4 18 -20z m-1110 -57 c-6
-16 -6 -16 12 0 10 9 26 17 34 17 26 0 10 -35 -21 -46 -22 -9 -29 -20 -40 -67
-10 -47 -16 -57 -33 -57 -18 0 -19 4 -13 38 22 118 26 132 47 132 15 0 18 -4
14 -17z m199 1 c8 -9 13 -25 10 -35 -3 -10 -8 -28 -11 -39 -3 -11 -6 -33 -6
-50 -1 -25 -5 -30 -25 -30 -12 0 -23 5 -23 12 0 9 -3 9 -12 0 -17 -17 -63 -15
-78 3 -10 12 -10 21 -2 40 12 26 34 39 85 49 15 4 27 11 27 17 0 18 -31 21
-50 4 -10 -9 -27 -15 -37 -13 -16 3 -15 7 9 31 31 31 87 37 113 11z m95 4 c0
-9 3 -9 12 0 16 16 65 15 71 0 4 -10 7 -10 18 0 7 6 25 12 41 12 42 0 49 -25
32 -103 -14 -59 -18 -67 -39 -67 l-23 0 16 61 c10 42 12 63 4 71 -18 18 -49
-26 -57 -81 -6 -46 -9 -51 -32 -51 -18 0 -24 4 -19 15 3 8 8 38 12 66 7 49 6
51 -17 47 -20 -3 -26 -12 -37 -65 -12 -57 -16 -63 -38 -63 -14 0 -23 3 -21 8
3 4 12 42 22 85 14 63 20 77 36 77 10 0 19 -5 19 -12z m344 -4 c9 -8 16 -31
16 -50 l0 -34 -60 0 c-61 0 -72 -7 -44 -31 12 -10 20 -10 35 -1 10 7 29 12 41
12 22 -1 22 -1 -5 -25 -49 -44 -127 -25 -127 31 0 35 19 77 43 96 28 22 81 23
101 2z m96 6 c0 -7 7 -7 20 0 12 6 33 10 48 8 34 -4 39 -29 22 -110 -11 -51
-16 -58 -37 -58 -18 0 -23 4 -19 18 24 84 27 105 15 113 -30 18 -56 -20 -71
-106 -2 -12 -13 -21 -27 -23 -21 -3 -23 -1 -17 20 3 12 11 51 18 86 9 49 15
62 30 62 10 0 18 -5 18 -10z m270 -9 c14 -28 13 -31 -15 -31 -14 0 -25 5 -25
11 0 13 -42 8 -47 -7 -2 -6 13 -15 33 -20 52 -13 64 -36 38 -71 -17 -22 -30
-29 -67 -31 -37 -2 -48 1 -61 19 -8 12 -13 26 -10 31 9 14 42 9 48 -8 3 -9 15
-14 28 -12 36 5 31 24 -11 36 -43 13 -56 33 -41 62 15 27 40 39 82 40 27 0 40
-5 48 -19z m364 3 c31 -31 10 -120 -33 -144 -30 -15 -82 -12 -103 7 -32 29
-14 117 29 142 27 16 90 13 107 -5z m101 6 c-4 -6 4 -6 19 1 13 6 36 9 50 5
70 -18 25 -166 -52 -166 -15 0 -33 5 -39 11 -7 7 -12 -2 -17 -30 -5 -32 -11
-41 -26 -41 -25 0 -25 -7 2 123 21 99 24 107 46 107 13 0 20 -4 17 -10z"/>
<path d="M443 310 c-27 -11 -31 -40 -5 -40 21 0 42 18 42 37 0 15 -6 15 -37 3z"/>
<path d="M886 364 c-22 -22 -21 -24 19 -24 37 0 49 22 19 34 -21 8 -20 8 -38
-10z"/>
<path d="M1607 363 c-25 -29 -31 -67 -12 -83 33 -27 87 39 65 80 -13 25 -32
26 -53 3z m20 -45 c-3 -8 -6 -5 -6 6 -1 11 2 17 5 13 3 -3 4 -12 1 -19z"/>
<path d="M1790 351 c-15 -29 -12 -68 5 -75 23 -8 55 29 55 64 0 25 -4 30 -25
30 -14 0 -29 -8 -35 -19z"/>
<path d="M2417 470 c-16 -18 -35 -30 -50 -30 -13 0 -35 -9 -48 -19 -24 -19
-25 -19 -48 0 -25 20 -86 25 -111 9 -9 -5 -19 -5 -25 0 -6 5 -33 8 -60 7 -62
-3 -80 -27 -97 -124 -10 -58 -9 -74 1 -87 22 -26 59 -20 79 14 l19 30 22 -30
c20 -28 26 -30 89 -30 40 0 73 5 80 12 9 9 15 9 24 0 14 -14 144 -16 153 -2 4
6 13 5 26 -3 16 -10 25 -9 51 6 29 16 32 17 49 1 21 -18 59 -23 101 -11 22 6
26 4 22 -8 -4 -9 2 -25 11 -35 21 -24 87 -27 104 -6 6 7 25 78 43 157 l31 143
-23 18 c-29 23 -72 23 -93 0 -20 -21 -22 -53 -6 -69 6 -6 8 -16 5 -22 -5 -7
-17 0 -33 19 -20 25 -32 30 -67 30 -23 0 -51 -7 -62 -15 -28 -21 -35 -18 -22
10 9 21 8 28 -7 45 -20 22 -45 26 -62 9 -8 -8 -17 -8 -31 0 -30 16 -38 14 -65
-19z m62 -7 c0 -5 -10 -55 -23 -113 -19 -92 -25 -105 -44 -108 -13 -2 -22 2
-22 9 0 10 -3 10 -12 1 -15 -15 -61 -15 -76 0 -18 18 -14 79 8 115 22 36 63
52 91 35 15 -10 19 -7 24 21 10 43 13 47 36 47 10 0 19 -3 18 -7z m81 -13 c0
-15 -7 -20 -25 -20 -24 0 -34 18 -18 33 15 15 43 7 43 -13z m290 8 c-1 -7 -13
-71 -28 -143 l-28 -130 -37 -3 c-32 -3 -37 0 -37 19 0 16 5 20 20 16 16 -4 21
3 30 52 7 31 17 82 25 114 12 56 12 59 -6 54 -18 -5 -26 12 -12 26 12 12 73 8
73 -5z m-787 -65 c-6 -17 -5 -17 14 0 26 23 43 22 43 -3 0 -13 -7 -20 -20 -20
-25 0 -46 -34 -55 -87 -6 -37 -10 -43 -32 -43 -16 0 -23 4 -20 13 2 7 10 39
16 72 17 83 18 85 40 85 15 0 19 -5 14 -17z m196 8 c11 -7 12 -20 6 -58 -4
-26 -8 -60 -9 -75 -1 -22 -6 -28 -23 -28 -13 0 -23 5 -23 10 0 7 -7 7 -20 0
-12 -6 -33 -10 -48 -8 -60 7 -27 98 36 98 34 0 57 14 48 29 -10 16 -31 14 -46
-4 -12 -15 -50 -21 -50 -8 0 4 10 17 22 30 22 24 79 31 107 14z m287 -13 c-3
-13 -11 -51 -18 -85 -10 -57 -14 -63 -36 -63 -15 0 -22 5 -19 13 2 6 10 45 17
85 12 66 15 72 38 72 20 0 23 -4 18 -22z m168 6 c31 -31 10 -120 -33 -144 -30
-15 -82 -12 -103 7 -31 28 -20 92 23 132 27 25 90 28 113 5z"/>
<path d="M2346 348 c-31 -43 -8 -90 33 -69 20 11 37 63 26 81 -11 17 -43 11
-59 -12z"/>
<path d="M2180 313 c-31 -12 -34 -43 -5 -43 15 0 45 27 45 41 0 10 -16 11 -40
2z"/>
<path d="M2628 363 c-22 -26 -28 -60 -13 -80 17 -22 42 -10 65 30 26 46 -19
88 -52 50z m19 -45 c-3 -8 -6 -5 -6 6 -1 11 2 17 5 13 3 -3 4 -12 1 -19z"/>
</g>
</svg>
