<?xml version="1.0" standalone="no"?>
<!DOCTYPE svg PUBLIC "-//W3C//DTD SVG 20010904//EN"
 "http://www.w3.org/TR/2001/REC-SVG-20010904/DTD/svg10.dtd">
<svg version="1.0" xmlns="http://www.w3.org/2000/svg"
 width="300.000000pt" height="55.000000pt" viewBox="0 0 300.000000 55.000000"
>
<g id="surface1">


<path d="M190 398 c0 -7 -13 -73 -29 -145 l-29 -133 39 0 c28 0 39 4 39 15 0
8 -8 15 -18 15 -18 0 -17 6 7 115 20 92 28 115 42 115 9 0 19 7 23 15 4 12 -3
15 -34 15 -25 0 -40 -5 -40 -12z"/>
<path d="M1365 388 c-3 -13 -12 -57 -20 -98 -9 -41 -18 -83 -21 -92 -4 -13 0
-18 14 -18 16 0 23 11 32 52 12 58 33 88 63 88 18 0 19 -5 14 -47 -4 -27 -9
-58 -13 -70 -5 -19 -2 -23 14 -23 17 0 22 10 33 70 10 56 10 72 -1 85 -15 18
-43 19 -72 4 -17 -9 -19 -8 -14 10 3 12 9 30 12 41 4 15 1 20 -15 20 -13 0
-23 -8 -26 -22z"/>
<path d="M2426 394 c-3 -9 -6 -27 -6 -40 0 -24 -14 -32 -25 -14 -11 18 -62 10
-88 -14 -71 -65 -23 -182 58 -140 14 7 23 9 20 4 -4 -6 3 -10 14 -10 16 0 22
11 31 58 6 31 17 83 24 115 12 53 12 57 -4 57 -10 0 -21 -7 -24 -16z m-28
-111 c4 -44 -38 -89 -68 -73 -44 23 -12 114 38 108 22 -2 28 -9 30 -35z"/>
<path d="M2500 390 c0 -13 7 -20 20 -20 13 0 20 7 20 20 0 13 -7 20 -20 20
-13 0 -20 -7 -20 -20z"/>
<path d="M2747 403 c-13 -12 -7 -23 12 -23 18 0 18 -4 -5 -112 -13 -62 -24
-114 -24 -115 0 -2 -9 -3 -20 -3 -11 0 -20 -7 -20 -15 0 -10 11 -15 35 -15 19
0 35 2 35 5 0 5 44 216 55 263 5 19 2 22 -28 22 -19 0 -37 -3 -40 -7z"/>
<path d="M265 338 c-2 -7 -10 -46 -18 -85 -14 -70 -14 -73 4 -73 12 0 21 10
25 28 15 71 29 97 56 100 16 2 28 11 31 23 7 26 -20 25 -49 -2 l-23 -21 6 21
c4 15 1 21 -11 21 -9 0 -18 -6 -21 -12z"/>
<path d="M396 329 c-14 -11 -26 -25 -26 -30 0 -15 37 -10 44 7 4 10 15 14 33
12 35 -4 37 -32 3 -36 -56 -7 -90 -24 -96 -47 -3 -13 -3 -29 1 -35 12 -19 49
-28 74 -19 15 6 28 6 36 -1 16 -13 45 -3 45 16 0 8 -4 14 -8 14 -5 0 -4 25 1
55 8 41 7 58 -3 70 -18 21 -73 19 -104 -6z m74 -79 c0 -12 -37 -50 -47 -50 -5
0 -14 4 -22 9 -21 13 -6 39 26 44 15 2 31 5 36 6 4 0 7 -3 7 -9z"/>
<path d="M551 288 c-7 -35 -15 -73 -18 -85 -4 -18 -1 -23 15 -23 16 0 21 9 27
48 8 58 29 92 57 92 19 0 20 -4 15 -47 -4 -27 -9 -58 -13 -70 -5 -18 -2 -23
14 -23 16 0 21 11 31 58 12 62 25 82 52 82 25 0 30 -12 20 -51 -22 -87 -22
-89 -2 -89 15 0 22 11 30 50 14 66 14 93 -1 108 -17 17 -53 15 -68 -3 -12 -14
-15 -14 -30 0 -22 20 -49 19 -72 -2 -17 -15 -18 -15 -18 0 0 10 -6 17 -14 17
-9 0 -18 -22 -25 -62z"/>
<path d="M865 338 c-64 -37 -68 -135 -6 -155 37 -12 65 -5 92 23 19 20 20 24
5 24 -9 0 -27 -7 -41 -16 -18 -12 -28 -13 -44 -4 -42 22 -25 39 42 42 l62 3
-3 30 c-5 53 -59 80 -107 53z m63 -30 c21 -21 13 -28 -28 -28 -22 0 -40 4 -40
8 0 14 23 32 40 32 9 0 21 -5 28 -12z"/>
<path d="M1015 338 c-2 -7 -9 -40 -16 -73 -6 -33 -14 -65 -16 -72 -3 -8 3 -13
15 -13 16 0 23 11 32 53 14 59 34 87 63 87 18 0 19 -5 13 -54 -3 -30 -9 -61
-12 -70 -4 -11 0 -16 14 -16 16 0 22 11 32 58 14 68 12 91 -12 106 -13 8 -26
7 -48 -1 -16 -6 -30 -7 -30 -2 0 14 -30 11 -35 -3z"/>
<path d="M1199 329 c-29 -29 -20 -51 29 -74 23 -11 42 -25 42 -31 0 -19 -37
-23 -60 -7 -11 8 -28 13 -36 11 -14 -3 -14 -6 2 -25 31 -35 96 -35 119 1 22
33 6 63 -38 74 -17 5 -32 15 -32 22 0 20 36 26 49 8 14 -18 42 -16 38 2 -9 42
-79 53 -113 19z"/>
<path d="M1561 336 c-49 -27 -66 -96 -33 -136 25 -31 86 -30 119 2 74 74 4
184 -86 134z m67 -28 c20 -20 14 -57 -13 -84 -20 -20 -28 -23 -45 -14 -24 13
-27 56 -4 88 17 24 43 29 62 10z"/>
<path d="M1725 338 c-4 -15 -45 -206 -45 -213 0 -3 9 -5 19 -5 15 0 21 10 26
39 6 38 7 39 31 26 54 -28 103 7 112 80 7 69 -34 104 -89 75 -13 -7 -19 -7
-19 0 0 14 -30 13 -35 -2z m104 -40 c11 -31 1 -67 -24 -84 -43 -28 -75 8 -55
62 19 48 64 61 79 22z"/>
<path d="M2005 338 c-2 -7 -9 -40 -16 -73 -6 -33 -14 -65 -16 -72 -3 -8 3 -13
15 -13 16 0 23 8 28 38 11 59 31 92 58 92 15 0 26 7 29 20 6 25 -24 28 -47 5
-8 -8 -17 -15 -20 -15 -3 0 -3 7 0 15 4 10 0 15 -10 15 -9 0 -18 -6 -21 -12z"/>
<path d="M2145 338 c-21 -12 -35 -28 -35 -40 0 -15 38 -8 44 7 3 8 17 15 31
15 18 0 25 -5 25 -20 0 -14 -7 -20 -24 -20 -86 0 -132 -73 -62 -99 11 -5 32
-4 45 0 15 6 28 6 36 -1 7 -6 20 -8 29 -4 17 7 22 30 7 36 -5 2 -4 26 2 57 10
48 10 54 -8 67 -23 17 -62 18 -90 2z m54 -102 c-12 -26 -39 -38 -59 -26 -20
13 -4 38 27 43 15 2 31 5 35 6 4 0 3 -10 -3 -23z"/>
<path d="M2481 288 c-7 -35 -15 -73 -18 -85 -4 -18 -1 -23 14 -23 16 0 22 11
31 63 7 34 15 72 18 85 5 17 2 22 -14 22 -16 0 -21 -11 -31 -62z"/>
<path d="M2589 335 c-26 -14 -49 -59 -49 -95 0 -60 90 -84 137 -38 75 76 4
183 -88 133z m69 -27 c20 -20 14 -57 -13 -84 -20 -20 -28 -23 -45 -14 -24 13
-27 56 -4 88 17 24 43 29 62 10z"/>
</g>
</svg>
