<svg id="Capa_1" enable-background="new 0 0 512 512" height="512" viewBox="0 0 512 512" width="512" xmlns="http://www.w3.org/2000/svg"><g><path d="m479.833 256c4.676-8.789 8.391-18.171 11.031-28.026 9.108-33.992 4.434-69.497-13.162-99.974s-46.007-52.277-79.999-61.386c-9.888-2.65-19.904-4.124-29.887-4.463-23.294-37.288-64.703-62.151-111.816-62.151-47.114 0-88.522 24.863-111.816 62.152-9.983.338-19.999 1.813-29.887 4.462-33.992 9.109-62.403 30.909-79.999 61.386s-22.271 65.982-13.162 99.974c2.646 9.874 6.369 19.272 11.058 28.075-18.241 34.183-21.182 75.87-5.015 113.705 1.627 3.808 6.032 5.577 9.844 3.95 3.809-1.628 5.577-6.035 3.949-9.844-13.092-30.639-12.04-64.13.579-92.79 10.741 14.879 24.602 27.453 40.97 36.903 16.783 9.69 35.089 15.449 53.829 17.158-7.76 16.779-12.1 35.45-12.1 55.118 0 19.209 4.135 37.469 11.557 53.942-31.161-3.382-60.725-19.221-80.73-45.902-2.484-3.314-7.187-3.986-10.5-1.501-3.314 2.485-3.986 7.186-1.502 10.5 24.705 32.948 62.321 51.249 101.081 52.515 23.288 37.314 64.711 62.197 111.844 62.197 47.111 0 88.518-24.86 111.812-62.146 9.984-.338 20.003-1.819 29.891-4.469 33.992-9.108 62.403-30.909 79.999-61.386s22.271-65.982 13.162-99.974c-2.64-9.854-6.355-19.236-11.031-28.025zm-86.013-174.897c30.123 8.071 55.299 27.39 70.892 54.397s19.734 58.47 11.663 88.592c-1.558 5.816-3.54 11.444-5.912 16.858-10.743-14.888-24.609-27.469-40.985-36.924-16.781-9.689-35.089-15.45-53.828-17.16 7.76-16.778 12.099-35.449 12.099-55.116 0-19.214-4.137-37.479-11.563-53.956 5.902.653 11.794 1.744 17.634 3.309zm-34.647 353.74c-18.772-.689-37.213-5.949-53.944-15.609-14.304-8.258-26.45-19.206-35.912-32.153 38.391-3.871 71.964-24.297 93.467-54.004 6.401 14.434 9.966 30.394 9.966 47.174 0 19.709-4.917 38.29-13.577 54.592zm-206.346-357.684c18.772.689 37.215 5.948 53.945 15.608 14.304 8.258 26.45 19.206 35.912 32.153-38.391 3.871-71.964 24.297-93.467 54.004-6.401-14.434-9.966-30.394-9.966-47.174-.001-19.71 4.916-38.29 13.576-54.591zm219.923 54.591c0 16.779-3.565 32.74-9.966 47.174-21.503-29.708-55.076-50.133-93.467-54.004 9.462-12.946 21.607-23.895 35.912-32.153 16.732-9.66 35.171-14.918 53.945-15.608 8.659 16.301 13.576 34.881 13.576 54.591zm-111.582 216.592c-1.392 5.194-3.126 10.237-5.168 15.113-2.042-4.876-3.776-9.919-5.168-15.113-6.804-25.392-4.928-51.736 5.168-75.561 10.096 23.825 11.972 50.169 5.168 75.561zm-10.336-184.684c1.392-5.194 3.126-10.237 5.168-15.113 2.042 4.876 3.776 9.919 5.168 15.113 6.804 25.392 4.928 51.736-5.168 75.561-10.096-23.825-11.972-50.169-5.168-75.561zm78.672 27.206c-19.282 5.167-36.764 14.421-51.499 27.022 3.546-19.061 2.819-38.829-2.348-58.11-1.837-6.857-4.2-13.482-7.037-19.842 33.395 3.606 62.61 21.35 81.528 47.11-6.907.724-13.806 1.988-20.644 3.82zm19.468 11.417c-18.569 24.418-46.517 41.332-78.428 45.315 15.584-20.649 37.456-35.44 62.843-42.242 5.165-1.385 10.37-2.404 15.585-3.073zm-112.629-42.505c-5.167 19.282-5.893 39.049-2.348 58.11-14.735-12.601-32.217-21.855-51.499-27.022-6.838-1.832-13.737-3.097-20.644-3.821 18.918-25.759 48.133-43.503 81.528-47.11-2.838 6.361-5.2 12.986-7.037 19.843zm-57.73 45.578c25.386 6.802 47.259 21.593 62.843 42.242-31.91-3.983-59.856-20.895-78.425-45.311 5.214.669 10.418 1.685 15.582 3.069zm3.883 115.782c19.282-5.167 36.764-14.421 51.499-27.022-3.546 19.061-2.819 38.829 2.348 58.11 1.837 6.857 4.2 13.482 7.037 19.842-33.395-3.606-62.611-21.351-81.528-47.111 6.907-.723 13.807-1.987 20.644-3.819zm-19.466-11.419c18.569-24.416 46.516-41.329 78.426-45.312-15.584 20.649-37.456 35.44-62.843 42.242-5.164 1.384-10.369 2.4-15.583 3.07zm112.627 42.507c5.167-19.282 5.893-39.049 2.348-58.11 14.735 12.601 32.217 21.855 51.499 27.022 6.839 1.832 13.738 3.096 20.645 3.82-18.918 25.76-48.133 43.504-81.528 47.11 2.837-6.36 5.199-12.985 7.036-19.842zm-5.113-87.819c31.91 3.983 59.856 20.896 78.426 45.311-5.214-.67-10.418-1.685-15.583-3.069-25.387-6.802-47.259-21.594-62.843-42.242zm92.24 38.769c-15.575-21.518-37.483-38.16-62.969-47.174 25.486-9.014 47.394-25.656 62.969-47.174 6.401 14.434 9.966 30.394 9.966 47.174s-3.565 32.74-9.966 47.174zm-213.568-94.348c15.575 21.518 37.483 38.16 62.969 47.174-25.486 9.014-47.394 25.656-62.969 47.174-6.401-14.434-9.966-30.394-9.966-47.174s3.565-32.74 9.966-47.174zm93.467 178.255c-9.462 12.946-21.607 23.895-35.912 32.153-16.972 9.799-35.498 14.874-53.969 15.562-8.645-16.29-13.552-34.854-13.552-54.545 0-16.779 3.565-32.74 9.966-47.174 21.503 29.707 55.076 50.132 93.467 54.004zm133.486-185.079c15.945 1.72 31.504 6.755 45.81 15.014 16.755 9.674 30.548 23.039 40.535 38.983-9.987 15.944-23.779 29.31-40.535 38.983-14.308 8.261-29.867 13.306-45.814 15.025 7.441-16.49 11.586-34.774 11.586-54.009-.001-19.228-4.144-37.508-11.582-53.996zm-120.169-187.002c38.583 0 72.848 18.817 94.117 47.751-18.237 1.868-36.037 7.584-52.388 17.025-16.758 9.675-30.885 22.626-41.729 37.971-10.844-15.345-24.971-28.296-41.729-37.971-16.352-9.441-34.152-15.156-52.389-17.025 21.27-28.933 55.535-47.751 94.118-47.751zm-220.375 209.092c-8.071-30.123-3.93-61.585 11.663-88.592s40.769-46.326 70.892-54.397c5.842-1.565 11.733-2.657 17.633-3.309-7.426 16.476-11.563 34.742-11.563 53.956 0 19.667 4.339 38.338 12.099 55.116-18.739 1.71-37.046 7.472-53.827 17.16-16.582 9.573-30.356 22.286-40.956 36.988-2.385-5.433-4.377-11.083-5.941-16.922zm13.891 31.954c9.834-15.683 23.507-29.216 40.505-39.03 14.308-8.26 29.867-13.306 45.814-15.025-7.441 16.49-11.586 34.774-11.586 54.009s4.145 37.519 11.586 54.01c-15.947-1.719-31.506-6.765-45.815-15.026-16.738-9.665-30.519-23.014-40.504-38.938zm206.484 240.954c-38.609 0-72.894-18.843-94.16-47.811 18.006-1.837 35.874-7.406 52.432-16.966 16.758-9.675 30.885-22.626 41.729-37.971 10.844 15.345 24.971 28.296 41.729 37.971 16.353 9.442 34.152 15.156 52.389 17.024-21.27 28.935-55.536 47.753-94.119 47.753zm208.712-120.5c-15.593 27.007-40.769 46.326-70.892 54.397-5.843 1.566-11.736 2.666-17.637 3.318 7.428-16.479 11.567-34.747 11.567-53.965 0-19.668-4.34-38.34-12.1-55.119 18.739-1.709 37.047-7.469 53.829-17.157 16.376-9.455 30.242-22.036 40.985-36.924 2.371 5.413 4.353 11.042 5.912 16.858 8.07 30.122 3.929 61.585-11.664 88.592z"/></g></svg>