<?xml version="1.0" encoding="UTF-8"?>
<svg xmlns="http://www.w3.org/2000/svg" xmlns:xlink="http://www.w3.org/1999/xlink" width="281pt" height="252pt" viewBox="0 0 281 252" version="1.1">
<g id="surface1">
<path style=" stroke:none;fill-rule:nonzero;fill:rgb(0%,0%,0%);fill-opacity:1;" d="M 122.703125 42.28125 C 94.789062 45.28125 68.5625 61.3125 52.921875 84.75 C 46.363281 94.59375 42.523438 103.03125 39.527344 114.375 C 37.464844 122.0625 37.09375 125.25 37.09375 138.28125 C 37 151.21875 37.28125 154.40625 39.246094 161.625 C 49.269531 199.78125 79.054688 227.4375 117.457031 234.28125 C 132.539062 237 153.894531 234.75 169.066406 228.84375 C 195.761719 218.53125 220.117188 191.90625 226.859375 165.75 C 227.421875 163.21875 228.546875 161.25 229.203125 161.25 C 231.167969 161.25 232.480469 157.78125 231.261719 155.53125 C 230.605469 154.3125 230.140625 147.1875 230.046875 137.4375 C 229.859375 123.1875 229.484375 120.46875 227.328125 112.96875 C 215.714844 73.96875 183.492188 46.6875 143.964844 42.28125 C 134.035156 41.15625 132.914062 41.15625 122.703125 42.28125 Z M 150.523438 44.53125 C 193.703125 52.6875 225.269531 87.46875 229.015625 130.96875 C 229.859375 141.09375 228.828125 153.75 227.046875 153.75 C 226.390625 153.75 225.363281 154.59375 224.800781 155.71875 C 223.957031 157.21875 224.050781 158.15625 225.175781 159.84375 C 226.578125 162 226.578125 162.5625 224.707031 168 C 219.085938 184.40625 211.78125 195.84375 199.230469 207.75 C 188.457031 218.0625 177.78125 224.53125 164.199219 229.03125 C 137.878906 237.75 110.339844 235.21875 86.640625 221.90625 C 49.738281 201 30.816406 158.53125 40.277344 117.5625 C 44.398438 99.9375 51.515625 86.625 63.878906 73.5 C 78.679688 58.03125 95.070312 48.75 114.273438 45.09375 C 117.082031 44.53125 120.269531 43.875 121.296875 43.6875 C 126.074219 42.75 143.871094 43.3125 150.523438 44.53125 Z M 230.234375 157.21875 C 230.046875 158.15625 229.109375 158.90625 228.078125 158.90625 C 227.046875 158.90625 226.113281 158.15625 225.925781 157.21875 C 225.644531 156 226.203125 155.625 228.078125 155.625 C 229.953125 155.625 230.511719 156 230.234375 157.21875 Z M 230.234375 157.21875 "/>
<path style=" stroke:none;fill-rule:nonzero;fill:rgb(0%,0%,0%);fill-opacity:1;" d="M 122.515625 56.25 C 115.117188 57.46875 105.9375 59.90625 102.753906 61.5 C 100.691406 62.625 99.378906 62.71875 97.320312 61.96875 C 94.976562 61.125 94.230469 61.3125 92.636719 62.90625 C 91.605469 63.9375 90.949219 65.34375 91.136719 65.90625 C 91.324219 66.46875 89.546875 68.25 87.203125 69.65625 C 81.300781 73.5 70.8125 83.71875 65.941406 90.65625 C 59.757812 99.28125 54.421875 111.375 52.265625 121.78125 C 50.019531 132.46875 50.394531 149.4375 52.921875 159.375 C 60.789062 189.28125 86.171875 213.5625 116.519531 220.03125 C 125.417969 221.90625 141.90625 221.8125 151.085938 219.9375 C 182.929688 213.09375 208.128906 187.6875 215.152344 155.15625 C 215.996094 151.5 216.652344 144 216.652344 138.28125 C 216.652344 100.6875 190.800781 67.5 153.988281 58.125 C 145.746094 55.96875 130.101562 55.03125 122.515625 56.25 Z M 149.867188 58.5 C 193.703125 67.78125 222.175781 110.25 213.933594 153.75 C 207.941406 185.34375 185.179688 209.4375 152.957031 218.0625 C 144.152344 220.5 123.078125 220.5 113.804688 218.0625 C 84.488281 210.46875 62.101562 188.0625 54.234375 158.34375 C 51.328125 147.5625 51.328125 129.46875 54.140625 118.875 C 59.199219 100.03125 70.25 84 86.453125 71.8125 C 90.011719 69.1875 91.511719 68.625 93.667969 69.09375 C 96.757812 69.65625 99.285156 68.15625 99.285156 65.71875 C 99.285156 63.84375 107.0625 60.84375 117.082031 58.6875 C 125.046875 56.90625 142.09375 56.90625 149.867188 58.5 Z M 97.226562 65.15625 C 97.695312 67.21875 95.539062 68.625 93.949219 67.3125 C 92.355469 66.09375 92.355469 64.03125 93.949219 63.46875 C 95.726562 62.71875 96.945312 63.28125 97.226562 65.15625 Z M 97.226562 65.15625 "/>
<path style=" stroke:none;fill-rule:nonzero;fill:rgb(0%,0%,0%);fill-opacity:1;" d="M 117.550781 72 C 109.964844 73.96875 100.222656 78.28125 94.414062 82.3125 C 88.703125 86.25 80.179688 95.0625 76.152344 101.15625 C 72.683594 106.40625 67.535156 118.21875 67.441406 121.125 C 67.441406 121.96875 66.316406 123.28125 64.910156 123.9375 C 61.726562 125.4375 60.789062 130.03125 63.226562 131.8125 C 64.441406 132.75 64.910156 134.8125 65.097656 140.90625 C 66.503906 179.34375 99.847656 209.53125 137.972656 206.90625 C 167.851562 204.84375 192.296875 184.6875 200.164062 155.625 C 202.695312 146.25 202.414062 129.09375 199.605469 120 C 192.390625 96.84375 175.4375 79.6875 152.675781 72.65625 C 144.808594 70.21875 125.886719 69.84375 117.550781 72 Z M 151.644531 74.15625 C 183.210938 82.875 203.726562 112.875 200.351562 145.40625 C 195.386719 194.4375 142 221.15625 99.003906 196.21875 C 95.820312 194.34375 89.828125 189.375 85.703125 185.25 C 76.714844 176.25 71.28125 166.40625 68.375 154.59375 C 66.503906 146.53125 65.847656 133.125 67.347656 133.125 C 68.84375 133.125 71.1875 130.21875 71.1875 128.34375 C 71.1875 127.40625 70.34375 125.8125 69.40625 125.0625 C 67.628906 123.5625 67.628906 123.375 69.3125 118.5 C 73.058594 107.8125 77.835938 100.125 86.171875 91.78125 C 97.226562 80.625 108.933594 74.53125 123.546875 72.1875 C 130.945312 71.0625 143.683594 71.90625 151.644531 74.15625 Z M 68.84375 128.4375 C 68.84375 130.125 68.28125 130.875 66.691406 131.0625 C 64.441406 131.4375 63.132812 129.375 64.066406 126.9375 C 64.347656 126.09375 65.472656 125.625 66.691406 125.8125 C 68.28125 126 68.84375 126.75 68.84375 128.4375 Z M 68.84375 128.4375 "/>
<path style=" stroke:none;fill-rule:nonzero;fill:rgb(0%,0%,0%);fill-opacity:1;" d="M 125.417969 83.4375 C 112.960938 85.40625 100.878906 91.96875 92.355469 101.34375 C 72.3125 123.46875 73.152344 156.65625 94.136719 177.65625 C 105.75 189.375 118.957031 194.53125 135.816406 193.875 C 143.121094 193.6875 145.183594 193.875 147.058594 195.28125 C 148.273438 196.125 150.242188 196.875 151.273438 196.875 C 153.800781 196.875 157.359375 193.125 157.359375 190.59375 C 157.359375 189.28125 158.578125 188.15625 161.386719 186.9375 C 167.382812 184.21875 178.808594 172.3125 182.929688 164.4375 C 192.203125 146.53125 191.171875 124.6875 180.308594 108.28125 C 168.414062 90.375 146.027344 80.25 125.417969 83.4375 Z M 147.617188 86.25 C 157.171875 88.6875 165.976562 94.03125 173.097656 101.71875 C 193.421875 123.375 192.859375 155.90625 171.972656 176.8125 C 168.320312 180.375 163.355469 184.5 161.011719 185.8125 C 156.796875 188.15625 156.609375 188.15625 155.113281 186.46875 C 152.113281 182.90625 145.183594 185.25 145.183594 189.84375 C 145.183594 191.53125 144.527344 192.09375 141.71875 192.5625 C 125.417969 195.1875 107.25 189.09375 95.070312 176.8125 C 84.488281 166.125 79.617188 154.125 79.617188 138.84375 C 79.617188 123 84.207031 111.65625 95.070312 100.6875 C 109.214844 86.4375 128.042969 81.28125 147.617188 86.25 Z M 154.363281 187.6875 C 155.019531 188.34375 155.488281 189.65625 155.488281 190.78125 C 155.488281 193.5 153.707031 195 150.617188 195 C 147.242188 195 145.371094 191.625 146.964844 188.53125 C 148.179688 186.375 152.488281 185.8125 154.363281 187.6875 Z M 154.363281 187.6875 "/>
<path style=" stroke:none;fill-rule:nonzero;fill:rgb(0%,0%,0%);fill-opacity:1;" d="M 143.027344 95.25 C 142.65625 95.625 138.90625 95.8125 134.691406 95.71875 C 121.484375 95.4375 111.277344 99.65625 102.285156 109.125 C 85.984375 126.375 86.359375 152.34375 103.3125 169.125 C 111.933594 177.75 121.671875 181.78125 133.476562 181.875 C 145.558594 181.875 156.328125 177.1875 164.945312 168.09375 C 181.058594 151.125 180.777344 125.15625 164.480469 108.46875 C 161.574219 105.46875 156.984375 102.1875 153.800781 100.6875 C 150.710938 99.1875 147.992188 97.21875 147.710938 96.28125 C 147.242188 94.78125 144.246094 94.03125 143.027344 95.25 Z M 142.5625 98.8125 C 143.308594 100.125 144.246094 100.3125 146.496094 99.9375 C 151.925781 98.90625 163.355469 107.25 169.347656 116.71875 C 175.25 126.09375 176.9375 141.09375 173.191406 152.0625 C 163.730469 180.375 128.230469 189.65625 105.65625 169.78125 C 90.855469 156.65625 87.484375 134.34375 97.695312 116.90625 C 102.753906 108.28125 113.523438 100.5 124.109375 97.78125 C 130.945312 96.09375 141.34375 96.65625 142.5625 98.8125 Z M 142.5625 98.8125 "/>
<path style=" stroke:none;fill-rule:nonzero;fill:rgb(0%,0%,0%);fill-opacity:1;" d="M 124.578125 103.6875 C 113.992188 106.59375 105.65625 113.53125 100.785156 123.75 C 98.164062 129.28125 97.882812 130.6875 97.882812 138.75 C 97.882812 146.4375 98.257812 148.40625 100.410156 153 C 103.3125 159.28125 110.246094 166.96875 115.773438 170.25 C 124.484375 175.3125 137.878906 176.15625 147.523438 172.03125 C 153.050781 169.78125 160.355469 163.875 162.980469 159.5625 C 164.292969 157.40625 165.789062 155.625 166.351562 155.625 C 168.414062 155.625 170.003906 152.8125 168.882812 151.125 C 168.226562 150 168.226562 148.6875 168.882812 146.90625 C 170.472656 142.21875 169.253906 129.46875 166.539062 123.75 C 161.761719 113.34375 152.019531 105.5625 140.6875 103.21875 C 134.316406 101.90625 130.945312 102 124.578125 103.6875 Z M 143.964844 105.46875 C 160.449219 110.34375 170.941406 127.875 167.945312 145.59375 C 167.664062 147.65625 166.726562 149.4375 165.882812 149.8125 C 163.730469 150.5625 162.980469 152.0625 163.917969 153.65625 C 164.945312 155.625 159.984375 162.375 154.457031 166.5 C 139.9375 177.1875 120.457031 175.3125 108.277344 162.09375 C 101.628906 154.96875 99.003906 148.3125 99.003906 138.75 C 99.003906 115.21875 121.296875 98.71875 143.964844 105.46875 Z M 167.664062 152.34375 C 167.664062 153.09375 167.007812 153.75 166.257812 153.75 C 164.757812 153.75 164.386719 152.625 165.507812 151.59375 C 166.539062 150.46875 167.664062 150.84375 167.664062 152.34375 Z M 167.664062 152.34375 "/>
<path style=" stroke:none;fill-rule:nonzero;fill:rgb(0%,0%,0%);fill-opacity:1;" d="M 124.953125 110.625 C 112.023438 114.5625 102.472656 129.9375 104.8125 142.875 C 105.375 145.78125 106.6875 149.8125 107.902344 152.0625 C 109.121094 154.3125 110.246094 157.125 110.527344 158.4375 C 110.808594 160.03125 111.746094 160.875 113.242188 161.0625 C 114.460938 161.25 116.988281 162.375 118.863281 163.59375 C 132.726562 172.6875 153.238281 166.03125 160.449219 150.09375 C 163.261719 144 163.261719 133.5 160.355469 126.9375 C 157.828125 121.3125 152.019531 115.40625 146.121094 112.3125 C 141.4375 109.96875 130.289062 109.03125 124.953125 110.625 Z M 145.089844 113.53125 C 150.242188 115.78125 154.832031 120 158.015625 125.53125 C 161.199219 130.875 162.042969 141.09375 159.796875 147.84375 C 155.675781 160.3125 142 168.375 129.167969 165.9375 C 122.046875 164.53125 116.148438 161.34375 116.148438 158.90625 C 116.148438 157.5 115.210938 156.46875 113.148438 155.53125 C 107.53125 153.09375 104.25 140.4375 106.78125 131.0625 C 108.183594 126 113.242188 119.0625 117.738281 115.875 C 125.511719 110.4375 136.097656 109.5 145.089844 113.53125 Z M 145.089844 113.53125 "/>
<path style=" stroke:none;fill-rule:nonzero;fill:rgb(0%,0%,0%);fill-opacity:1;" d="M 123.265625 119.0625 C 120.644531 120 118.394531 121.3125 118.113281 121.96875 C 117.738281 122.71875 116.425781 125.15625 115.023438 127.5 C 108.464844 138.65625 112.398438 152.15625 123.828125 157.875 C 135.253906 163.59375 147.898438 159.1875 153.238281 147.65625 C 156.984375 139.6875 155.863281 131.34375 149.960938 124.59375 C 148.179688 122.4375 144.996094 119.90625 142.933594 118.96875 C 138.066406 116.71875 129.355469 116.8125 123.265625 119.0625 Z M 139.5625 119.0625 C 141.34375 119.53125 144.433594 121.3125 146.402344 122.90625 C 157.734375 132.1875 155.953125 150 143.121094 156.65625 C 129.261719 163.78125 113.429688 154.21875 113.335938 138.65625 C 113.335938 132.28125 116.519531 125.53125 119.894531 124.6875 C 121.109375 124.40625 122.328125 123.375 122.703125 122.34375 C 123.921875 118.96875 132.820312 117.1875 139.5625 119.0625 Z M 139.5625 119.0625 "/>
<path style=" stroke:none;fill-rule:nonzero;fill:rgb(0%,0%,0%);fill-opacity:1;" d="M 129.726562 124.40625 C 126.355469 125.25 121.578125 129.5625 120.175781 133.03125 C 116.148438 142.59375 123.078125 152.90625 133.476562 153 C 147.804688 153.28125 153.238281 135 141.4375 126.46875 C 138.90625 124.59375 132.820312 123.5625 129.726562 124.40625 Z M 139.5625 129.5625 C 147.058594 133.96875 146.214844 144.5625 138.066406 148.40625 C 134.691406 150.09375 128.324219 149.8125 128.324219 148.03125 C 128.324219 147.5625 127.667969 147.1875 126.824219 147.1875 C 125.886719 147.1875 125.511719 146.71875 125.886719 145.6875 C 126.167969 144.9375 126.074219 144.5625 125.511719 144.84375 C 124.109375 145.6875 122.890625 142.3125 123.078125 138.1875 C 123.546875 129.09375 131.507812 124.96875 139.5625 129.5625 Z M 139.5625 129.5625 "/>
</g>
</svg>
