<?xml version="1.0" encoding="UTF-8"?>
<svg xmlns="http://www.w3.org/2000/svg" xmlns:xlink="http://www.w3.org/1999/xlink" width="675pt" height="313pt" viewBox="0 0 675 313" version="1.1">
<g id="surface1">
<path style=" stroke:none;fill-rule:nonzero;fill:rgb(0%,0%,0%);fill-opacity:1;" d="M 178.875 58.273438 C 172.574219 59.550781 170.398438 60.226562 161.625 63.679688 C 137.851562 72.992188 118.273438 94.921875 110.773438 120.527344 C 109.050781 126.386719 107.101562 139.679688 107.398438 143.734375 C 107.625 147.9375 109.273438 149.667969 111.300781 148.015625 C 112.199219 147.261719 112.5 145.609375 112.5 141.332031 C 112.5 131.042969 115.648438 118.652344 121.050781 107.613281 C 126.300781 97.097656 136.574219 84.632812 144.824219 78.851562 C 146.25 77.875 147.523438 76.824219 147.75 76.597656 C 148.5 75.695312 155.925781 71.417969 160.199219 69.464844 C 165.675781 66.910156 171.148438 65.109375 178.5 63.304688 C 189.074219 60.753906 212.550781 61.878906 219 65.257812 C 219.675781 65.632812 221.324219 66.160156 222.675781 66.460938 C 226.726562 67.359375 238.5 73.59375 244.125 77.800781 C 260.398438 90.039062 271.125 106.1875 275.773438 125.335938 C 276.449219 128.039062 277.351562 134.347656 277.800781 139.304688 C 278.625 148.164062 278.625 148.316406 280.5 148.316406 C 282.300781 148.316406 282.375 148.164062 282.601562 141.929688 C 282.898438 133.746094 281.023438 123.984375 276.898438 112.644531 C 274.875 107.160156 268.425781 95.597656 265.125 91.691406 C 249.675781 73.21875 233.625 63.003906 213.375 58.726562 C 206.023438 57.222656 185.625 56.921875 178.875 58.273438 Z M 178.875 58.273438 "/>
<path style=" stroke:none;fill-rule:nonzero;fill:rgb(0%,0%,0%);fill-opacity:1;" d="M 38.25 151.542969 C 37.125 151.917969 37.351562 156.199219 38.476562 156.199219 C 94.949219 156.425781 646.875 156.050781 647.324219 155.75 C 648.300781 155.148438 648.148438 152.445312 647.101562 152.070312 C 646.050781 151.617188 39.449219 151.167969 38.25 151.542969 Z M 38.25 151.542969 "/>
<path style=" stroke:none;fill-rule:nonzero;fill:rgb(0%,0%,0%);fill-opacity:1;" d="M 109.726562 163.484375 C 109.5 163.933594 109.5 164.984375 109.648438 165.738281 C 109.875 167.011719 113.550781 167.089844 195.074219 167.3125 L 280.351562 167.464844 L 280.726562 165.8125 C 281.023438 164.835938 280.949219 163.859375 280.574219 163.484375 C 280.273438 163.183594 241.726562 162.808594 195 162.734375 C 129.824219 162.582031 109.949219 162.808594 109.726562 163.484375 Z M 109.726562 163.484375 "/>
<path style=" stroke:none;fill-rule:nonzero;fill:rgb(0%,0%,0%);fill-opacity:1;" d="M 112.726562 174.671875 C 112.5 175.273438 112.800781 176.324219 113.398438 176.925781 C 115.050781 178.578125 275.699219 178.578125 277.351562 176.925781 C 277.949219 176.324219 278.25 175.273438 278.023438 174.671875 C 277.574219 173.621094 269.550781 173.472656 195.375 173.472656 C 121.199219 173.472656 113.175781 173.621094 112.726562 174.671875 Z M 112.726562 174.671875 "/>
<path style=" stroke:none;fill-rule:nonzero;fill:rgb(0%,0%,0%);fill-opacity:1;" d="M 118.5 184.585938 C 116.25 185.335938 118.574219 189.316406 121.273438 189.316406 C 122.023438 189.316406 156.074219 189.316406 197.023438 189.316406 L 271.425781 189.242188 L 272.324219 187.664062 C 272.773438 186.6875 272.851562 185.789062 272.476562 185.410156 C 271.875 184.8125 120.300781 183.984375 118.5 184.585938 Z M 118.5 184.585938 "/>
<path style=" stroke:none;fill-rule:nonzero;fill:rgb(0%,0%,0%);fill-opacity:1;" d="M 124.726562 196.226562 C 124.050781 197.277344 125.324219 199.753906 126.601562 199.753906 C 150.898438 199.980469 264.300781 199.679688 264.75 199.378906 C 265.199219 199.078125 265.5 198.179688 265.5 197.277344 L 265.5 195.625 L 195.300781 195.625 C 156.675781 195.625 124.949219 195.851562 124.726562 196.226562 Z M 124.726562 196.226562 "/>
<path style=" stroke:none;fill-rule:nonzero;fill:rgb(0%,0%,0%);fill-opacity:1;" d="M 134.550781 206.4375 C 133.875 207.113281 134.324219 208.691406 135.449219 209.816406 C 136.5 210.871094 142.949219 211.019531 195.074219 211.019531 C 253.125 211.019531 253.5 211.019531 255.074219 209.441406 C 255.898438 208.617188 256.5 207.566406 256.351562 207.191406 C 256.125 206.4375 135.300781 205.761719 134.550781 206.4375 Z M 134.550781 206.4375 "/>
<path style=" stroke:none;fill-rule:nonzero;fill:rgb(0%,0%,0%);fill-opacity:1;" d="M 147.75 218.078125 C 147.75 218.605469 148.425781 219.65625 149.324219 220.480469 C 150.824219 221.832031 152.699219 221.910156 195 221.910156 L 239.101562 221.910156 L 241.050781 220.105469 C 242.101562 219.128906 242.773438 218.003906 242.550781 217.703125 C 242.324219 217.328125 220.949219 217.027344 194.925781 217.027344 C 156.523438 217.101562 147.75 217.253906 147.75 218.078125 Z M 147.75 218.078125 "/>
<path style=" stroke:none;fill-rule:nonzero;fill:rgb(0%,0%,0%);fill-opacity:1;" d="M 172.5 229.34375 C 172.5 232.949219 211.875 233.625 217.5 230.167969 C 219.898438 228.667969 215.476562 228.292969 194.925781 228.292969 C 176.25 228.292969 172.5 228.441406 172.5 229.34375 Z M 172.5 229.34375 "/>
</g>
</svg>
