<?xml version="1.0" encoding="UTF-8"?>
<svg xmlns="http://www.w3.org/2000/svg" xmlns:xlink="http://www.w3.org/1999/xlink" width="505pt" height="234pt" viewBox="0 0 505 234" version="1.1">
<g id="surface1">
<path style=" stroke:none;fill-rule:nonzero;fill:rgb(0%,0%,0%);fill-opacity:1;" d="M 133.785156 43.59375 C 129.074219 44.550781 127.445312 45.054688 120.882812 47.636719 C 103.101562 54.605469 88.460938 71.007812 82.851562 90.164062 C 81.5625 94.546875 80.105469 104.492188 80.324219 107.523438 C 80.496094 110.667969 81.726562 111.964844 83.246094 110.726562 C 83.917969 110.164062 84.140625 108.925781 84.140625 105.726562 C 84.140625 98.03125 86.496094 88.761719 90.535156 80.503906 C 94.464844 72.636719 102.148438 63.3125 108.316406 58.988281 C 109.382812 58.257812 110.335938 57.472656 110.507812 57.300781 C 111.066406 56.625 116.621094 53.425781 119.816406 51.964844 C 123.914062 50.054688 128.007812 48.707031 133.503906 47.355469 C 141.414062 45.449219 158.972656 46.289062 163.796875 48.816406 C 164.300781 49.097656 165.535156 49.492188 166.546875 49.71875 C 169.574219 50.390625 178.378906 55.054688 182.585938 58.203125 C 194.757812 67.355469 202.78125 79.4375 206.257812 93.761719 C 206.765625 95.785156 207.4375 100.503906 207.773438 104.210938 C 208.390625 110.839844 208.390625 110.953125 209.792969 110.953125 C 211.140625 110.953125 211.195312 110.839844 211.363281 106.175781 C 211.585938 100.054688 210.183594 92.75 207.101562 84.265625 C 205.585938 80.164062 200.761719 71.515625 198.292969 68.59375 C 186.738281 54.773438 174.734375 47.132812 159.589844 43.933594 C 154.089844 42.808594 138.832031 42.582031 133.785156 43.59375 Z M 133.785156 43.59375 "/>
<path style=" stroke:none;fill-rule:nonzero;fill:rgb(0%,0%,0%);fill-opacity:1;" d="M 28.609375 113.367188 C 27.765625 113.648438 27.9375 116.851562 28.777344 116.851562 C 71.015625 117.019531 483.816406 116.738281 484.152344 116.515625 C 484.882812 116.0625 484.765625 114.042969 483.984375 113.761719 C 483.199219 113.421875 29.503906 113.085938 28.609375 113.367188 Z M 28.609375 113.367188 "/>
<path style=" stroke:none;fill-rule:nonzero;fill:rgb(0%,0%,0%);fill-opacity:1;" d="M 82.066406 122.300781 C 81.898438 122.636719 81.898438 123.421875 82.007812 123.984375 C 82.179688 124.9375 84.925781 124.996094 145.902344 125.164062 L 209.683594 125.277344 L 209.960938 124.042969 C 210.183594 123.3125 210.128906 122.582031 209.847656 122.300781 C 209.625 122.074219 180.792969 121.792969 145.84375 121.738281 C 97.097656 121.625 82.234375 121.792969 82.066406 122.300781 Z M 82.066406 122.300781 "/>
<path style=" stroke:none;fill-rule:nonzero;fill:rgb(0%,0%,0%);fill-opacity:1;" d="M 84.3125 130.667969 C 84.140625 131.117188 84.367188 131.90625 84.8125 132.355469 C 86.050781 133.589844 206.203125 133.589844 207.4375 132.355469 C 207.886719 131.90625 208.109375 131.117188 207.941406 130.667969 C 207.605469 129.882812 201.605469 129.773438 146.125 129.773438 C 90.648438 129.773438 84.648438 129.882812 84.3125 130.667969 Z M 84.3125 130.667969 "/>
<path style=" stroke:none;fill-rule:nonzero;fill:rgb(0%,0%,0%);fill-opacity:1;" d="M 88.628906 138.085938 C 86.945312 138.644531 88.683594 141.625 90.703125 141.625 C 91.265625 141.625 116.730469 141.625 147.359375 141.625 L 203.007812 141.570312 L 203.679688 140.386719 C 204.015625 139.65625 204.074219 138.984375 203.792969 138.703125 C 203.34375 138.253906 89.976562 137.636719 88.628906 138.085938 Z M 88.628906 138.085938 "/>
<path style=" stroke:none;fill-rule:nonzero;fill:rgb(0%,0%,0%);fill-opacity:1;" d="M 93.285156 146.792969 C 92.78125 147.578125 93.734375 149.433594 94.6875 149.433594 C 112.859375 149.601562 197.675781 149.375 198.011719 149.152344 C 198.347656 148.925781 198.574219 148.253906 198.574219 147.578125 L 198.574219 146.34375 L 146.070312 146.34375 C 117.183594 146.34375 93.453125 146.511719 93.285156 146.792969 Z M 93.285156 146.792969 "/>
<path style=" stroke:none;fill-rule:nonzero;fill:rgb(0%,0%,0%);fill-opacity:1;" d="M 100.632812 154.433594 C 100.128906 154.9375 100.464844 156.117188 101.304688 156.960938 C 102.09375 157.75 106.914062 157.859375 145.902344 157.859375 C 189.320312 157.859375 189.597656 157.859375 190.777344 156.679688 C 191.394531 156.0625 191.84375 155.277344 191.730469 154.996094 C 191.5625 154.433594 101.195312 153.925781 100.632812 154.433594 Z M 100.632812 154.433594 "/>
<path style=" stroke:none;fill-rule:nonzero;fill:rgb(0%,0%,0%);fill-opacity:1;" d="M 110.507812 163.140625 C 110.507812 163.535156 111.011719 164.320312 111.683594 164.9375 C 112.804688 165.949219 114.207031 166.007812 145.84375 166.007812 L 178.832031 166.007812 L 180.289062 164.65625 C 181.074219 163.925781 181.578125 163.085938 181.410156 162.859375 C 181.242188 162.578125 165.253906 162.355469 145.789062 162.355469 C 117.066406 162.410156 110.507812 162.523438 110.507812 163.140625 Z M 110.507812 163.140625 "/>
<path style=" stroke:none;fill-rule:nonzero;fill:rgb(0%,0%,0%);fill-opacity:1;" d="M 129.015625 171.566406 C 129.015625 174.265625 158.46875 174.769531 162.675781 172.183594 C 164.46875 171.0625 161.160156 170.78125 145.789062 170.78125 C 131.820312 170.78125 129.015625 170.894531 129.015625 171.566406 Z M 129.015625 171.566406 "/>
</g>
</svg>
