<?xml version="1.0" encoding="UTF-8"?>
<svg xmlns="http://www.w3.org/2000/svg" xmlns:xlink="http://www.w3.org/1999/xlink" width="186pt" height="80pt" viewBox="0 0 186 80" version="1.1">
<g id="surface1">
<path style=" stroke:none;fill-rule:nonzero;fill:rgb(0%,0%,0%);fill-opacity:1;" d="M 84.949219 6.449219 C 82.550781 7.398438 79.949219 8.75 78.300781 10 C 76.699219 11.199219 74 13.851562 74 14.148438 C 74 14.351562 73.25 15.648438 72.300781 17.101562 C 71.398438 18.550781 70.449219 20.398438 70.25 21.25 C 69.601562 23.648438 69.398438 32.601562 69.949219 33.699219 C 70.199219 34.300781 70.550781 35.300781 70.699219 36 C 70.898438 37.050781 72.300781 39.398438 74.75 42.898438 C 75.101562 43.398438 75 43.75 74.300781 44.199219 C 73.398438 44.699219 71.800781 46.25 70.199219 48.101562 C 69.851562 48.449219 68.800781 49.5 67.800781 50.398438 C 66.800781 51.351562 66 52.351562 66 52.648438 C 66 53.449219 60.800781 57 59.648438 57 C 59.101562 57 58.050781 56.351562 57.25 55.5 C 56.449219 54.699219 55.398438 54 54.898438 54 C 54.351562 54 53.398438 53.449219 52.699219 52.75 C 52 52.050781 50.949219 51.5 50.351562 51.5 C 49.601562 51.5 47.550781 49.898438 44.5 47 C 41.898438 44.5 39.550781 42.5 39.25 42.5 C 38.949219 42.5 38 43.300781 37.050781 44.25 C 36.148438 45.199219 35.101562 46 34.699219 46 C 34.300781 46 33.148438 46.75 32.148438 47.648438 C 29.351562 50.101562 27.601562 51.050781 25.75 51.25 C 24.050781 51.398438 20.898438 54 19.300781 56.601562 C 18.800781 57.300781 17.199219 58.550781 15.699219 59.300781 C 14.148438 60.050781 12.300781 61.449219 11.5 62.351562 C 10.699219 63.25 9.601562 64 9.050781 64 C 8.050781 64 4.851562 67.851562 5.300781 68.550781 C 5.699219 69.199219 6.898438 68.5 7.148438 67.5 C 7.300781 67 8.25 66.148438 9.300781 65.601562 C 10.398438 65.050781 12.148438 63.699219 13.199219 62.550781 C 14.300781 61.449219 15.800781 60.398438 16.550781 60.25 C 17.351562 60.050781 18.398438 59.449219 18.949219 58.851562 C 24.148438 52.949219 24.648438 52.5 26.199219 52.5 C 27.050781 52.5 28.601562 51.949219 29.601562 51.25 C 30.601562 50.550781 31.648438 50 31.851562 50 C 32.101562 50 32.550781 49.550781 32.851562 49.050781 C 33.199219 48.5 34.300781 47.648438 35.351562 47.199219 C 36.398438 46.699219 37.699219 45.800781 38.25 45.148438 L 39.25 43.949219 L 41.75 46.25 C 43.148438 47.5 45.25 49.550781 46.5 50.75 C 47.800781 52.050781 49.199219 53 49.851562 53 C 50.449219 53 51.398438 53.449219 51.898438 54 C 52.449219 54.550781 53.398438 55.148438 54.050781 55.25 C 55.601562 55.550781 58.449219 58.398438 57.699219 58.898438 C 57.398438 59.101562 56.75 60 56.300781 60.851562 C 55.851562 61.75 55.25 62.5 55.050781 62.5 C 54.800781 62.5 53.898438 61.800781 53.101562 61 C 50.898438 58.851562 49.351562 59 46.800781 61.75 C 45.601562 63 44.300781 64 43.851562 64 C 42.648438 64 39.75 66.699219 40.199219 67.449219 C 40.449219 67.851562 41.148438 67.550781 42.398438 66.5 C 43.398438 65.699219 44.601562 65 45.050781 65 C 45.550781 65 46.699219 64.101562 47.648438 63 C 49.601562 60.699219 51.050781 60.449219 52.199219 62.25 C 53.351562 64 55.300781 64.398438 56.550781 63.101562 C 57.050781 62.5 57.5 61.898438 57.5 61.699219 C 57.5 60.949219 60.101562 58 60.75 58 C 62.199219 58 64.851562 55.898438 68.5 51.949219 C 70.550781 49.699219 73.148438 46.949219 74.25 45.898438 L 76.25 43.949219 L 77.300781 45.101562 C 77.851562 45.75 78.75 46.5 79.300781 46.851562 C 82.699219 49 84.75 50 85.800781 50 C 86.398438 50 87.101562 50.199219 87.25 50.5 C 87.648438 51.148438 98.351562 51.148438 98.75 50.5 C 98.898438 50.199219 99.449219 50 100 50 C 101.5 50 105.949219 47.449219 108.5 45.148438 C 109.800781 43.949219 111.148438 43 111.398438 43 C 111.699219 43 112.898438 44.101562 114 45.449219 C 115.148438 46.800781 116.898438 48.5 117.949219 49.199219 C 118.949219 49.898438 120.898438 51.5 122.25 52.75 C 124.898438 55.148438 126.351562 55.800781 128.101562 55.351562 C 128.699219 55.148438 129.449219 55.25 129.699219 55.449219 C 130 55.699219 131.300781 56.449219 132.550781 57.148438 C 134.648438 58.351562 134.949219 58.398438 136.199219 57.75 C 136.898438 57.351562 137.851562 56.699219 138.300781 56.25 C 139.351562 55.199219 140.148438 55.300781 140.898438 56.550781 C 141.25 57.101562 142.550781 58.050781 143.800781 58.601562 C 145.050781 59.148438 146.199219 59.898438 146.300781 60.25 C 146.601562 61 153.800781 66 154.601562 66 C 154.898438 66 155.898438 66.550781 156.800781 67.25 C 158.398438 68.5 160 68.898438 160 68.101562 C 160 67.351562 158.300781 66.101562 156.25 65.25 C 153.601562 64.148438 148 60.5 148 59.851562 C 148 59.148438 152.601562 55 153.398438 55 C 153.75 55 154.851562 55.351562 155.851562 55.75 C 156.800781 56.148438 158.148438 56.5 158.75 56.5 C 159.851562 56.5 161.050781 57.5 164.300781 61.050781 C 165.898438 62.75 169.148438 65 170.050781 65 C 170.351562 65 171.949219 65.949219 173.648438 67.148438 C 175.351562 68.351562 177.5 69.648438 178.398438 70.050781 C 179.25 70.398438 180 70.949219 180 71.148438 C 180 71.398438 180.5 71.5 181.148438 71.398438 C 182.800781 71.148438 182.199219 70.398438 179.050781 68.75 C 177.5 67.949219 176.199219 67.101562 176.101562 66.898438 C 176 66.648438 175.699219 66.5 175.398438 66.5 C 175.148438 66.5 174.199219 65.949219 173.300781 65.25 C 172.398438 64.550781 171.300781 64 170.898438 64 C 170.5 64 169.75 63.550781 169.25 63 C 168.75 62.449219 168.101562 62 167.75 62 C 167.449219 62 165.699219 60.398438 163.898438 58.5 C 161.25 55.699219 160.300781 55 159.101562 55 C 158.300781 55 156.800781 54.648438 155.851562 54.25 C 153.101562 53.101562 152.398438 53.300781 149.601562 56.101562 L 147 58.699219 L 144.75 57.601562 C 143.550781 57 142.148438 55.949219 141.699219 55.25 C 140.601562 53.601562 139.148438 53.648438 136.898438 55.5 L 135.050781 57 L 133.148438 55.949219 C 132.101562 55.398438 130.75 54.449219 130.199219 53.898438 C 129.5 53.25 129 53.101562 128.75 53.449219 C 127.949219 54.75 125.648438 53.949219 122.699219 51.398438 C 121.101562 49.949219 119.449219 48.550781 119.050781 48.25 C 118.699219 48 116.898438 46.300781 115.148438 44.550781 C 112.199219 41.648438 111.949219 41.199219 112.5 40.351562 C 115.148438 36.050781 116 33.101562 116 28.148438 C 116 22.050781 113.851562 16.800781 109.699219 12.75 C 106.398438 9.5 106.050781 9.25 102.648438 7.699219 C 101.050781 6.949219 99.351562 6.148438 98.898438 5.949219 C 97.300781 5.148438 87.449219 5.5 84.949219 6.449219 Z M 97.101562 7.101562 C 103.550781 8.550781 110.101562 13.648438 112.898438 19.449219 C 114.148438 22 114.25 22.75 114.25 28.300781 C 114.25 34.148438 114.199219 34.398438 112.550781 37.648438 C 111.601562 39.5 110.601562 40.949219 110.300781 40.851562 C 110 40.75 109.648438 39.898438 109.449219 38.949219 C 108.949219 35.75 104.398438 28.5 102.949219 28.5 C 102.699219 28.5 102.5 28.199219 102.5 27.851562 C 102.5 26.699219 100.199219 24.300781 99.351562 24.648438 C 98.199219 25.101562 95.050781 29.550781 95 30.800781 C 95 31.398438 94.199219 32.851562 93.25 34.050781 C 92.300781 35.25 91.5 36.648438 91.5 37.101562 C 91.5 37.601562 91.148438 38 90.75 38 C 90.101562 38 89.199219 37.199219 85.851562 33.550781 C 85.101562 32.699219 84.148438 32.148438 83.800781 32.300781 C 83.398438 32.449219 82.5 33.75 81.851562 35.148438 C 80.5 37.898438 76.351562 42.300781 75.550781 41.800781 C 74.800781 41.300781 72.648438 37.199219 71.550781 34.101562 C 69.75 29.050781 70.449219 23.351562 73.648438 17.199219 C 75.148438 14.25 79.898438 10.148438 83.449219 8.75 C 85.25 8 87.199219 7.199219 87.75 7 C 89.25 6.351562 94.050781 6.398438 97.101562 7.101562 Z M 100.949219 27.75 C 101.300781 28.699219 101.699219 29.5 101.898438 29.5 C 103.351562 29.5 108.5 37.800781 108.5 40.101562 C 108.5 40.550781 108.75 41.101562 109 41.25 C 110 41.851562 109.398438 42.800781 106.851562 44.800781 C 102.648438 48.199219 97.699219 50 92.949219 50 C 90.25 49.949219 85.851562 49.050781 85.199219 48.351562 C 85 48.148438 84.550781 48 84.199219 48 C 83.300781 48 77.601562 44.398438 77.300781 43.601562 C 77.148438 43.25 78.300781 41.699219 80 40.050781 C 81.648438 38.398438 83 36.648438 83 36.101562 C 83 35.550781 83.351562 34.800781 83.800781 34.449219 C 84.5 33.898438 84.75 34 85.550781 35 C 86.050781 35.699219 86.5 36.398438 86.5 36.550781 C 86.5 37.199219 90.351562 39.5 91.398438 39.5 C 92.199219 39.5 92.601562 39.050781 92.949219 37.601562 C 93.25 36.550781 93.949219 35.199219 94.550781 34.550781 C 95.148438 33.898438 95.898438 32.648438 96.199219 31.800781 C 97.050781 29.398438 99.101562 26 99.75 26 C 100.050781 26 100.601562 26.800781 100.949219 27.75 Z M 100.949219 27.75 "/>
</g>
</svg>
