<?xml version="1.0" encoding="UTF-8"?>
<svg xmlns="http://www.w3.org/2000/svg" xmlns:xlink="http://www.w3.org/1999/xlink" width="256pt" height="256pt" viewBox="0 0 256 256" version="1.1">
<g id="surface1">
<path style=" stroke:none;fill-rule:nonzero;fill:rgb(0%,0%,0%);fill-opacity:1;" d="M 52.40625 88.460938 C 43.410156 87.648438 34.40625 89.617188 26.441406 94.25 C 4.757812 106.855469 -2.691406 131.667969 9.109375 151.964844 L 12.726562 158.1875 L 38.992188 144.238281 C 38.75 141.554688 38.621094 138.839844 38.621094 136.09375 C 38.621094 118.597656 43.679688 102.257812 52.40625 88.460938 Z M 52.40625 88.460938 "/>
<path style=" stroke:none;fill-rule:nonzero;fill:rgb(0%,0%,0%);fill-opacity:1;" d="M 229.558594 94.25 C 221.59375 89.617188 212.589844 87.648438 203.59375 88.460938 C 212.320312 102.257812 217.378906 118.597656 217.378906 136.09375 C 217.378906 138.839844 217.25 141.554688 217.003906 144.238281 L 243.273438 158.1875 L 246.890625 151.964844 C 258.691406 131.667969 251.242188 106.855469 229.558594 94.25 Z M 229.558594 94.25 "/>
<path style=" stroke:none;fill-rule:nonzero;fill:rgb(0%,0%,0%);fill-opacity:1;" d="M 58.238281 191.90625 C 57.605469 192.964844 57 194.050781 56.449219 195.171875 C 45.378906 217.675781 52.921875 242.460938 73.988281 252.824219 L 80.449219 256 L 99.472656 220.808594 C 83.097656 215.277344 68.835938 205.121094 58.238281 191.90625 Z M 58.238281 191.90625 "/>
<path style=" stroke:none;fill-rule:nonzero;fill:rgb(0%,0%,0%);fill-opacity:1;" d="M 199.550781 195.171875 C 199 194.050781 198.394531 192.964844 197.761719 191.90625 C 187.164062 205.121094 172.902344 215.277344 156.527344 220.808594 L 175.550781 256 L 182.011719 252.824219 C 203.078125 242.460938 210.621094 217.675781 199.550781 195.171875 Z M 199.550781 195.171875 "/>
<path style=" stroke:none;fill-rule:nonzero;fill:rgb(0%,0%,0%);fill-opacity:1;" d="M 167.007812 41.101562 C 163.03125 23.21875 150.898438 9.8125 130.949219 1.261719 L 128 0 L 125.050781 1.261719 C 105.101562 9.8125 92.96875 23.21875 88.992188 41.101562 C 87.847656 46.261719 87.503906 51.414062 87.679688 56.339844 C 99.800781 50.1875 113.5 46.714844 128 46.714844 C 142.5 46.714844 156.199219 50.1875 168.320312 56.339844 C 168.496094 51.414062 168.152344 46.261719 167.007812 41.101562 Z M 167.007812 41.101562 "/>
<path style=" stroke:none;fill-rule:nonzero;fill:rgb(0%,0%,0%);fill-opacity:1;" d="M 161.007812 143.628906 L 150.96875 161.015625 L 171.390625 196.515625 C 188.230469 184.386719 199.820312 165.40625 202.03125 143.691406 Z M 161.007812 143.628906 "/>
<path style=" stroke:none;fill-rule:nonzero;fill:rgb(0%,0%,0%);fill-opacity:1;" d="M 171.578125 75.8125 L 151.027344 111.277344 L 161.066406 128.664062 L 202.050781 128.726562 C 199.90625 106.996094 188.375 87.988281 171.578125 75.8125 Z M 171.578125 75.8125 "/>
<path style=" stroke:none;fill-rule:nonzero;fill:rgb(0%,0%,0%);fill-opacity:1;" d="M 84.609375 75.675781 C 67.769531 87.804688 56.179688 106.785156 53.96875 128.5 L 94.992188 128.5625 L 105.03125 111.175781 Z M 84.609375 75.675781 "/>
<path style=" stroke:none;fill-rule:nonzero;fill:rgb(0%,0%,0%);fill-opacity:1;" d="M 137.980469 168.449219 L 117.902344 168.449219 L 97.359375 203.90625 C 106.707031 208.148438 117.082031 210.511719 128 210.511719 C 138.835938 210.511719 149.136719 208.179688 158.433594 204 Z M 137.980469 168.449219 "/>
<path style=" stroke:none;fill-rule:nonzero;fill:rgb(0%,0%,0%);fill-opacity:1;" d="M 94.933594 143.527344 L 53.949219 143.464844 C 56.09375 165.195312 67.628906 184.203125 84.425781 196.378906 L 104.972656 160.914062 Z M 94.933594 143.527344 "/>
<path style=" stroke:none;fill-rule:nonzero;fill:rgb(0%,0%,0%);fill-opacity:1;" d="M 128 61.679688 C 117.164062 61.679688 106.863281 64.007812 97.566406 68.191406 L 118.019531 103.742188 L 138.097656 103.742188 L 158.644531 68.285156 C 149.292969 64.042969 138.917969 61.679688 128 61.679688 Z M 128 61.679688 "/>
<path style=" stroke:none;fill-rule:nonzero;fill:rgb(0%,0%,0%);fill-opacity:1;" d="M 138.039062 118.707031 L 117.960938 118.707031 L 107.921875 136.09375 L 117.960938 153.484375 L 138.039062 153.484375 L 148.078125 136.09375 Z M 138.039062 118.707031 "/>
</g>
</svg>
