<?xml version="1.0" encoding="UTF-8"?>
<svg xmlns="http://www.w3.org/2000/svg" xmlns:xlink="http://www.w3.org/1999/xlink" width="675pt" height="583pt" viewBox="0 0 675 583" version="1.1">
<g id="surface1">
<path style=" stroke:none;fill-rule:nonzero;fill:rgb(0%,0%,0%);fill-opacity:1;" d="M 336.148438 3.976562 C 335.699219 4.503906 334.949219 5.929688 334.5 7.128906 C 334.050781 8.332031 327.675781 19.589844 320.324219 32.195312 C 312.976562 44.804688 305.851562 57.1875 304.5 59.589844 C 303.226562 62.066406 301.050781 65.820312 299.699219 67.847656 C 297.675781 71.074219 293.550781 78.277344 287.023438 90.0625 C 283.726562 96.066406 279.375 103.421875 277.125 106.949219 C 275.851562 108.976562 273.449219 113.027344 271.875 115.953125 C 270.300781 118.804688 267.226562 124.285156 265.050781 128.039062 C 262.800781 131.789062 260.773438 135.542969 260.550781 136.292969 C 260.25 137.117188 259.425781 138.394531 258.75 139.21875 C 258 140.046875 254.851562 145.449219 251.625 151.230469 C 248.398438 157.007812 245.25 162.636719 244.574219 163.761719 C 243.898438 164.886719 240.375 171.042969 236.625 177.496094 C 232.949219 183.875 227.25 193.632812 223.949219 199.113281 C 220.726562 204.515625 217.875 209.542969 217.648438 210.144531 C 217.273438 211.042969 210.449219 223.054688 207.75 227.40625 C 206.101562 230.183594 196.425781 246.917969 194.550781 250.296875 C 193.425781 252.324219 190.273438 257.726562 187.574219 262.304688 C 181.574219 272.511719 172.5 288.347656 172.5 288.722656 C 172.5 288.875 169.5 293.976562 165.898438 300.054688 C 162.226562 306.136719 159 311.613281 158.699219 312.214844 C 158.398438 312.816406 157.800781 314.015625 157.273438 314.839844 C 156.75 315.667969 154.875 319.042969 153.074219 322.347656 C 151.273438 325.648438 149.101562 329.25 148.351562 330.453125 C 147.074219 332.179688 143.398438 338.558594 135.976562 351.992188 C 134.925781 353.867188 131.925781 358.894531 129.375 363.25 C 126.824219 367.601562 123.976562 372.628906 123 374.507812 C 122.101562 376.382812 120.898438 378.410156 120.375 379.011719 C 119.851562 379.609375 118.5 381.785156 117.449219 383.886719 C 116.324219 385.914062 115.125 388.167969 114.75 388.765625 C 111.375 394.320312 100.5 412.859375 100.5 413.160156 C 100.5 413.308594 99 416.085938 97.125 419.238281 C 95.25 422.316406 93.75 425.015625 93.75 425.167969 C 93.75 425.316406 91.351562 429.445312 88.5 434.246094 C 85.574219 439.050781 82.351562 444.53125 81.375 446.480469 C 80.324219 448.359375 79.199219 450.460938 78.824219 451.058594 C 75.824219 455.863281 65.550781 473.648438 62.699219 478.828125 C 60.75 482.355469 58.5 486.183594 57.675781 487.460938 C 56.925781 488.660156 56.023438 490.238281 55.726562 490.835938 C 55.425781 491.4375 53.324219 495.191406 50.925781 499.09375 C 47.324219 505.171875 43.648438 511.699219 40.199219 518.15625 C 39.75 519.054688 38.851562 520.558594 38.175781 521.609375 C 36.300781 524.535156 26.625 541.121094 24.75 544.5 C 23.851562 546.148438 22.351562 548.851562 21.449219 550.503906 C 20.476562 552.152344 17.625 557.183594 15 561.761719 C 12.449219 566.261719 8.773438 572.269531 6.976562 575.042969 C 5.101562 577.820312 3.824219 580.449219 4.125 580.898438 C 4.5 581.5 6 581.648438 8.925781 581.273438 C 14.324219 580.597656 663.824219 580.597656 667.949219 581.273438 C 669.976562 581.648438 671.25 581.5 671.625 580.972656 C 671.851562 580.449219 670.648438 577.671875 668.851562 574.667969 C 667.050781 571.667969 665.101562 568.363281 664.5 567.238281 C 663.898438 566.113281 660.824219 560.859375 657.75 555.605469 C 650.851562 543.898438 651.375 544.875 646.949219 536.84375 C 644.925781 533.242188 642.226562 528.511719 640.875 526.484375 C 637.800781 521.683594 635.25 517.253906 629.25 506.222656 C 624.898438 498.265625 617.25 485.734375 616.125 484.832031 C 615.523438 484.308594 615 483.480469 615 482.957031 C 615 482.054688 612.226562 476.578125 609.148438 471.324219 C 608.25 469.898438 606.601562 466.96875 605.398438 464.945312 C 604.199219 462.84375 600.523438 456.539062 597.148438 450.757812 C 593.773438 445.054688 591 440.175781 591 439.953125 C 591 439.726562 588.523438 435.523438 585.523438 430.496094 C 580.125 421.5625 571.425781 406.402344 570.824219 404.902344 C 570.675781 404.527344 567.449219 398.898438 563.625 392.519531 C 559.875 386.140625 554.625 377.132812 552 372.628906 C 546.898438 363.699219 527.699219 330.300781 520.273438 317.46875 C 517.800781 313.113281 514.726562 307.710938 513.449219 305.460938 C 512.175781 303.207031 508.648438 297.128906 505.574219 291.949219 C 495.449219 274.6875 478.5 245.191406 478.5 244.816406 C 478.5 244.59375 475.5 239.488281 471.898438 233.484375 C 468.226562 227.480469 465 222.003906 464.699219 221.402344 C 464.398438 220.800781 463.800781 219.601562 463.273438 218.773438 C 462.75 217.949219 460.875 214.570312 459.074219 211.269531 C 457.273438 207.96875 453.300781 201.136719 450.226562 196.109375 C 447.226562 191.082031 444.75 186.804688 444.75 186.652344 C 444.75 186.203125 431.023438 162.710938 429.148438 160.011719 C 428.398438 158.882812 426.898438 156.257812 425.851562 154.15625 C 423 148.675781 422.398438 147.625 402.300781 112.953125 C 400.125 109.199219 396.226562 102.519531 393.601562 98.015625 C 391.050781 93.4375 387.75 87.886719 386.398438 85.632812 C 385.125 83.308594 382.949219 79.40625 381.675781 76.929688 C 380.324219 74.449219 376.949219 68.523438 374.023438 63.792969 C 371.175781 59.066406 368.550781 54.488281 368.175781 53.660156 C 367.800781 52.835938 366.75 50.960938 365.925781 49.535156 C 365.101562 48.109375 362.324219 43.378906 359.851562 39.027344 C 357.300781 34.671875 354.148438 29.34375 352.800781 27.242188 C 351.375 25.066406 350.25 23.117188 350.25 22.964844 C 350.25 22.816406 348.675781 19.964844 346.800781 16.738281 C 344.851562 13.507812 342.449219 9.082031 341.550781 6.90625 C 339.75 2.925781 337.875 1.875 336.148438 3.976562 Z M 340.050781 21.464844 C 340.726562 22.066406 341.25 23.191406 341.25 23.867188 C 341.324219 24.542969 342.148438 26.492188 343.125 28.144531 C 344.101562 29.796875 345.75 32.796875 346.800781 34.898438 C 347.851562 36.925781 349.050781 39.175781 349.425781 39.777344 C 351.601562 43.304688 357.75 53.738281 364.125 64.917969 C 374.023438 82.257812 379.351562 91.261719 382.273438 95.464844 C 386.925781 102.296875 390.976562 101.695312 338.101562 101.542969 C 284.324219 101.394531 289.273438 102.371094 295.351562 93.0625 C 297.375 89.988281 303.074219 80.304688 308.023438 71.675781 C 313.050781 62.96875 320.023438 50.808594 323.625 44.65625 C 330.898438 32.121094 335.25 23.941406 335.25 22.816406 C 335.25 21.765625 336.898438 20.265625 337.949219 20.265625 C 338.476562 20.265625 339.449219 20.789062 340.050781 21.464844 Z M 383.101562 107.171875 C 383.25 107.625 381.675781 110.402344 379.574219 113.476562 C 375.898438 119.03125 368.101562 132.089844 363.375 140.722656 C 362.023438 143.199219 358.351562 149.578125 355.273438 154.980469 L 349.648438 164.738281 L 338.699219 164.738281 C 326.101562 164.8125 327.375 165.488281 322.5 156.480469 C 319.800781 151.453125 312.226562 138.320312 309.75 134.34375 C 309.375 133.742188 307.574219 130.515625 305.773438 127.210938 C 303.976562 123.835938 300.523438 118.207031 298.199219 114.605469 C 295.800781 111 294 107.625 294.226562 107.097656 C 294.675781 105.972656 382.726562 106.046875 383.101562 107.171875 Z M 290.625 110.777344 C 291.976562 114.152344 298.800781 126.535156 303.898438 135.09375 C 305.023438 136.96875 306.300781 139.144531 306.675781 139.972656 C 307.875 142.671875 316.574219 157.15625 318.523438 159.710938 C 322.351562 164.738281 323.476562 164.589844 287.324219 164.589844 C 265.425781 164.589844 254.625 164.363281 254.476562 163.835938 C 254.324219 163.386719 255 162.109375 255.976562 160.910156 C 258.148438 158.207031 265.273438 146.351562 273.300781 131.714844 C 274.5 129.6875 277.050781 125.261719 279.074219 121.882812 C 281.101562 118.582031 282.75 115.429688 282.75 114.980469 C 282.75 113.402344 287.398438 106.5 288.226562 106.796875 C 288.675781 106.949219 289.726562 108.75 290.625 110.777344 Z M 389.773438 108.675781 C 390.300781 108.976562 391.273438 110.550781 391.949219 112.203125 C 392.625 113.851562 395.773438 119.707031 399 125.335938 C 402.226562 130.890625 405.601562 136.820312 406.5 138.46875 C 409.949219 144.625 418.050781 158.058594 419.773438 160.308594 C 423.226562 164.964844 424.648438 164.738281 389.175781 164.589844 C 371.398438 164.511719 356.699219 164.289062 356.476562 164.0625 C 356.25 163.835938 357.75 161.058594 359.851562 157.832031 C 361.875 154.605469 364.800781 149.804688 366.226562 147.101562 C 367.648438 144.398438 371.25 138.167969 374.175781 133.214844 C 379.273438 124.734375 385.726562 112.277344 386.550781 109.351562 C 387 108 388.273438 107.699219 389.773438 108.675781 Z M 420.675781 169.917969 C 421.351562 170.667969 420.601562 172.242188 417.523438 176.820312 C 413.324219 182.976562 404.324219 198.4375 396.300781 212.996094 L 391.648438 221.550781 L 338.550781 221.476562 L 285.449219 221.476562 L 284.101562 219.75 C 283.351562 218.773438 282.75 217.800781 282.75 217.425781 C 282.75 217.125 279.226562 210.746094 274.875 203.316406 C 270.523438 195.882812 267 189.65625 267 189.429688 C 267 188.753906 259.351562 176.820312 257.550781 174.644531 C 256.574219 173.519531 255.75 171.941406 255.75 171.265625 C 255.75 170.066406 258.449219 169.992188 290.023438 170.066406 L 324.375 170.140625 L 326.851562 174.570312 C 330.449219 180.949219 333.75 186.804688 335.550781 190.253906 C 336.75 192.507812 337.574219 193.257812 339 193.257812 C 340.273438 193.257812 340.949219 192.808594 341.101562 191.757812 C 341.476562 189.804688 351.675781 171.265625 352.800781 170.515625 C 353.25 170.214844 366.300781 170.066406 381.75 170.214844 C 397.199219 170.292969 411.75 170.066406 414 169.691406 C 419.851562 168.789062 419.699219 168.789062 420.675781 169.917969 Z M 345.75 171.417969 C 345.75 172.46875 345.375 173.519531 345 173.746094 C 344.550781 174.042969 343.199219 176.222656 342 178.699219 C 340.726562 181.097656 339.300781 183.125 338.699219 183.125 C 337.574219 183.125 330.75 172.46875 330.75 170.742188 C 330.75 169.839844 332.175781 169.617188 338.25 169.617188 C 345.675781 169.617188 345.75 169.617188 345.75 171.417969 Z M 252.449219 174.121094 C 252.976562 175.171875 253.949219 177.347656 254.773438 178.996094 C 256.648438 183.125 273.300781 211.871094 276.523438 216.75 C 278.023438 218.925781 279 220.875 278.699219 221.175781 C 278.476562 221.476562 266.699219 221.777344 252.523438 221.851562 C 238.425781 221.925781 225.675781 222.152344 224.25 222.300781 C 222.148438 222.453125 221.625 222.226562 221.398438 221.101562 C 221.25 220.277344 221.550781 219.300781 222.074219 218.851562 C 223.648438 217.648438 226.5 213.070312 232.726562 202.265625 C 235.726562 196.859375 240 189.503906 242.175781 185.828125 C 244.273438 182.226562 246.75 177.496094 247.648438 175.46875 C 249.375 171.417969 250.949219 170.96875 252.449219 174.121094 Z M 429.601562 177.945312 C 430.949219 180.574219 433.875 185.753906 436.050781 189.503906 C 438.226562 193.183594 441.300781 198.585938 442.875 201.511719 C 444.449219 204.363281 447.675781 209.769531 450.148438 213.445312 C 455.023438 220.726562 455.398438 222.679688 451.875 222.226562 C 450.601562 222.152344 438.074219 221.925781 423.976562 221.851562 C 409.875 221.777344 398.101562 221.476562 397.800781 221.175781 C 397.5 220.875 397.800781 220.050781 398.398438 219.375 C 399.523438 218.023438 416.25 190.105469 416.25 189.503906 C 416.25 189.355469 417.449219 187.253906 418.875 184.851562 C 420.300781 182.449219 421.875 179.296875 422.324219 177.871094 C 423.300781 174.796875 425.175781 172.46875 426.300781 172.84375 C 426.75 172.992188 428.25 175.246094 429.601562 177.945312 Z M 259.5 227.632812 L 283.125 227.78125 L 284.699219 230.785156 C 289.726562 240.238281 294.898438 249.394531 304.5 265.832031 C 308.398438 272.511719 311.773438 278.367188 311.925781 278.816406 C 312.074219 279.191406 313.875 282.117188 315.824219 285.269531 C 317.851562 288.421875 319.5 291.273438 319.5 291.648438 C 319.5 292.175781 264.675781 292.476562 260.101562 292.023438 C 259.726562 291.949219 258.75 290.375 257.851562 288.347656 C 256.125 284.671875 245.324219 265.457031 238.648438 254.347656 C 236.625 250.898438 232.949219 244.667969 230.625 240.539062 C 228.226562 236.414062 225.449219 232.132812 224.398438 231.007812 C 222.898438 229.355469 222.675781 228.757812 223.425781 227.855469 C 224.101562 227.03125 225.675781 226.878906 230.101562 227.179688 C 233.25 227.332031 246.523438 227.554688 259.5 227.632812 Z M 338.550781 227.480469 C 362.925781 227.40625 383.550781 227.179688 384.375 226.957031 C 385.351562 226.730469 386.398438 227.03125 386.925781 227.707031 C 387.675781 228.605469 387.375 229.507812 385.125 232.734375 C 383.625 234.910156 380.550781 240.015625 378.148438 244.066406 C 375.824219 248.195312 373.574219 252.097656 373.125 252.773438 C 372.75 253.523438 370.351562 257.652344 367.949219 261.929688 C 365.476562 266.28125 360.976562 274.011719 357.976562 279.117188 C 354.976562 284.296875 352.5 288.875 352.5 289.324219 C 352.5 289.847656 351.898438 290.75 351.148438 291.425781 C 350.023438 292.476562 348 292.625 337.875 292.476562 L 325.949219 292.324219 L 320.625 282.867188 C 309.824219 263.28125 298.199219 243.390625 290.324219 230.859375 C 288.75 228.308594 289.726562 226.355469 292.351562 227.03125 C 293.476562 227.332031 314.25 227.480469 338.550781 227.480469 Z M 422.773438 227.554688 C 435.226562 227.554688 447.300781 227.257812 449.476562 227.03125 C 454.875 226.355469 455.25 227.554688 451.425781 232.660156 C 449.851562 234.761719 446.324219 240.316406 443.699219 244.894531 C 441.074219 249.546875 436.199219 258.027344 432.75 263.804688 C 429.375 269.585938 424.875 277.539062 422.773438 281.441406 C 420.75 285.347656 418.425781 289.398438 417.75 290.375 L 416.476562 292.175781 L 387 292.25 C 370.875 292.324219 357.449219 292.023438 357.226562 291.726562 C 357 291.351562 358.351562 288.875 360.226562 286.097656 C 362.023438 283.320312 364.125 279.941406 364.875 278.515625 C 365.550781 277.089844 369.300781 270.636719 373.125 264.105469 C 377.023438 257.578125 383.101562 246.917969 386.699219 240.390625 C 390.300781 233.859375 393.75 228.082031 394.425781 227.554688 C 395.175781 226.957031 396.449219 226.804688 397.800781 227.105469 C 399 227.332031 410.25 227.554688 422.773438 227.554688 Z M 221.773438 235.511719 C 224.625 241.066406 229.875 250.371094 244.574219 275.8125 C 247.199219 280.316406 250.273438 285.421875 251.398438 286.996094 C 255.523438 292.699219 257.25 292.402344 222.976562 292.402344 C 206.101562 292.324219 189.898438 292.550781 186.898438 292.925781 C 179.851562 293.601562 179.476562 292.851562 183.898438 286.097656 C 187.273438 281.066406 195 268.160156 195 267.558594 C 195 267.410156 197.699219 262.753906 201 257.203125 C 211.273438 239.789062 213.976562 234.835938 215.550781 230.183594 C 216.449219 227.480469 218.550781 229.28125 221.773438 235.511719 Z M 463.574219 236.9375 C 465.75 240.992188 469.949219 248.421875 473.023438 253.523438 C 476.023438 258.550781 478.5 262.90625 478.5 263.054688 C 478.5 263.65625 488.175781 279.941406 491.699219 285.269531 C 493.5 287.972656 495 290.976562 495 291.875 C 495 293.453125 494.851562 293.453125 488.851562 292.925781 C 485.398438 292.550781 469.199219 292.324219 452.851562 292.324219 C 418.726562 292.324219 421.425781 293.074219 426.75 285.195312 C 428.25 282.945312 431.773438 277.015625 434.625 272.0625 C 437.398438 267.109375 442.875 257.578125 446.773438 250.898438 C 450.675781 244.140625 454.5 237.085938 455.398438 235.136719 C 457.125 231.160156 458.101562 229.65625 459 229.65625 C 459.375 229.65625 461.398438 232.960938 463.574219 236.9375 Z M 221.925781 297.652344 L 257.476562 297.804688 L 258.75 299.90625 C 259.425781 301.105469 264 309.136719 268.875 317.84375 C 279.375 336.457031 291.523438 357.171875 292.949219 358.820312 C 293.550781 359.421875 294 360.621094 294 361.449219 C 294 362.875 293.023438 362.875 256.425781 362.722656 L 218.851562 362.648438 L 216 357.394531 C 211.726562 349.515625 210.375 347.1875 199.125 327.601562 C 187.425781 307.261719 184.425781 302.457031 182.699219 301.03125 C 181.425781 299.980469 181.125 297.878906 182.023438 296.902344 C 182.324219 296.601562 183.449219 296.601562 184.5 296.902344 C 185.550781 297.203125 202.351562 297.578125 221.925781 297.652344 Z M 494.101562 298.40625 C 494.25 299.230469 493.273438 301.257812 492 302.832031 C 490.726562 304.484375 488.023438 308.535156 486.074219 311.839844 C 481.199219 320.019531 461.925781 353.644531 459.300781 358.671875 L 457.125 362.648438 L 420 362.648438 C 399.375 362.648438 382.800781 362.347656 382.726562 361.972656 C 382.574219 361.597656 383.476562 359.796875 384.675781 357.921875 C 387.523438 353.566406 395.25 340.734375 395.25 340.359375 C 395.25 340.207031 397.273438 336.679688 399.75 332.476562 C 402.226562 328.273438 404.25 324.746094 404.25 324.597656 C 404.25 324.523438 406.5 320.546875 409.273438 315.890625 C 412.050781 311.164062 415.199219 305.535156 416.324219 303.28125 C 417.449219 301.105469 418.726562 298.929688 419.175781 298.480469 C 419.699219 297.953125 430.726562 297.730469 451.648438 297.804688 C 469.125 297.878906 485.398438 297.652344 487.875 297.277344 C 493.425781 296.527344 493.800781 296.601562 494.101562 298.40625 Z M 323.625 298.105469 C 323.699219 298.253906 324.75 300.207031 325.875 302.457031 C 327 304.710938 328.800781 307.859375 329.773438 309.511719 C 330.824219 311.089844 332.773438 314.765625 334.273438 317.617188 C 337.726562 324.523438 338.925781 324.371094 343.050781 316.34375 C 344.773438 313.039062 347.023438 308.988281 348.074219 307.335938 C 349.125 305.683594 350.398438 303.28125 350.925781 301.933594 C 351.449219 300.582031 352.351562 299.15625 352.949219 298.628906 C 353.699219 298.03125 362.550781 297.730469 383.25 297.652344 C 416.851562 297.578125 414.675781 296.980469 409.5 304.785156 C 407.851562 307.261719 406.5 309.4375 406.5 309.664062 C 406.5 309.8125 403.351562 315.292969 399.449219 321.820312 C 393.226562 332.328125 389.175781 339.457031 378.976562 357.546875 L 376.125 362.648438 L 338.851562 362.648438 C 318.375 362.648438 301.273438 362.421875 300.824219 362.199219 C 300.449219 361.972656 298.800781 359.273438 297.148438 356.269531 C 291.675781 346.210938 283.351562 331.351562 281.25 327.976562 C 272.773438 314.164062 263.925781 298.628906 264.226562 298.179688 C 264.601562 297.652344 323.175781 297.578125 323.625 298.105469 Z M 346.726562 298.105469 C 346.875 298.628906 346.273438 300.28125 345.375 301.707031 C 344.476562 303.132812 342.824219 306.136719 341.699219 308.3125 C 340.425781 310.789062 339.226562 312.214844 338.398438 312.214844 C 337.050781 312.140625 330 300.507812 330 298.328125 C 330 297.429688 331.5 297.203125 338.175781 297.203125 C 344.101562 297.203125 346.5 297.503906 346.726562 298.105469 Z M 504.976562 308.238281 C 507.601562 313.113281 511.875 320.769531 514.5 325.347656 C 517.050781 329.851562 520.351562 335.78125 521.851562 338.40625 C 525.300781 344.785156 531.976562 355.59375 533.925781 358.144531 C 534.824219 359.195312 535.5 360.699219 535.5 361.523438 C 535.5 362.800781 534 362.875 499.726562 362.722656 C 460.425781 362.648438 461.550781 362.722656 465.226562 358.296875 C 467.25 355.742188 469.273438 352.441406 481.199219 331.726562 C 486.074219 323.246094 491.851562 312.816406 494.023438 308.535156 C 497.324219 302.007812 498.898438 299.53125 500.023438 299.457031 C 500.101562 299.457031 502.351562 303.433594 504.976562 308.238281 Z M 178.273438 301.105469 C 178.648438 301.632812 179.476562 303.28125 180 304.710938 C 181.351562 308.085938 203.851562 347.636719 208.648438 354.917969 C 210.601562 357.996094 212.25 360.996094 212.25 361.671875 C 212.25 362.800781 209.398438 362.875 182.101562 362.648438 C 165.449219 362.5 149.625 362.648438 146.925781 363.023438 C 144.226562 363.398438 141.601562 363.550781 141.148438 363.398438 C 139.425781 362.875 140.25 360.699219 144.601562 354.316406 C 147.074219 350.789062 150.226562 345.6875 151.648438 342.984375 C 153.148438 340.285156 156.75 333.902344 159.75 328.726562 C 168.898438 312.890625 172.273438 306.734375 173.699219 303.433594 C 175.125 300.207031 176.925781 299.378906 178.273438 301.105469 Z M 535.199219 368.128906 C 535.425781 368.726562 534.523438 370.828125 533.023438 372.78125 C 529.5 377.585938 513.074219 405.578125 509.101562 413.535156 C 507.976562 415.785156 506.699219 418.113281 506.25 418.636719 C 505.574219 419.386719 497.550781 419.539062 468.300781 419.460938 C 433.5 419.3125 431.25 419.238281 431.25 417.960938 C 431.25 417.210938 432.074219 415.710938 433.050781 414.507812 C 434.023438 413.382812 436.199219 409.855469 437.925781 406.777344 C 439.648438 403.703125 441.375 400.625 441.75 400.023438 C 449.023438 387.714844 453.226562 380.359375 456.148438 374.882812 L 459.675781 368.128906 L 495.675781 368.128906 C 515.398438 368.128906 531.898438 367.902344 532.199219 367.527344 C 533.101562 366.625 534.75 366.925781 535.199219 368.128906 Z M 218.550781 372.253906 C 219.75 374.507812 222.976562 380.285156 225.675781 385.015625 C 228.449219 389.742188 232.574219 396.871094 234.75 400.773438 C 237 404.675781 240.300781 410.15625 242.101562 412.933594 C 243.898438 415.710938 245.25 418.335938 245.101562 418.789062 C 244.875 419.460938 235.5 419.613281 209.625 419.613281 C 190.199219 419.539062 173.625 419.539062 172.726562 419.539062 C 171.375 419.539062 170.476562 418.488281 168.75 414.960938 C 167.476562 412.484375 164.25 406.777344 161.550781 402.277344 C 158.925781 397.773438 156.75 393.945312 156.75 393.796875 C 156.75 393.121094 147.601562 377.882812 144.675781 373.757812 C 143.023438 371.429688 141.75 369.253906 141.75 368.878906 C 141.75 368.429688 155.851562 368.128906 179.101562 368.128906 L 216.375 368.128906 Z M 298.273438 368.726562 C 298.648438 368.953125 300.226562 371.578125 301.800781 374.582031 C 304.800781 380.210938 316.800781 401.300781 322.125 410.15625 C 323.851562 413.007812 326.398438 417.4375 327.75 419.914062 C 331.199219 426.140625 333.523438 429.820312 334.5 430.421875 C 335.699219 431.171875 335.398438 434.171875 333.898438 436.125 C 333.148438 437.101562 330 442.128906 327 447.308594 C 324 452.484375 319.875 459.390625 318 462.691406 C 314.476562 468.695312 302.101562 490.835938 300 494.964844 C 297.976562 498.792969 296.550781 498.265625 293.851562 492.5625 C 292.574219 489.785156 291 486.933594 290.476562 486.332031 C 289.949219 485.660156 288.300781 482.804688 286.800781 479.953125 C 285.375 477.027344 281.023438 469.523438 277.273438 463.292969 C 273.449219 456.988281 269.773438 450.683594 268.949219 449.332031 L 267.523438 446.855469 L 272.851562 437.925781 C 275.773438 432.972656 279.226562 427.492188 280.5 425.765625 C 283.273438 421.863281 283.425781 419.761719 280.949219 419.085938 C 279.898438 418.863281 278.851562 418.789062 278.476562 419.011719 C 278.175781 419.238281 272.023438 419.460938 264.824219 419.613281 L 251.773438 419.839844 L 248.476562 413.535156 C 246.601562 410.007812 242.476562 402.652344 239.175781 397.171875 C 235.949219 391.769531 233.25 387.117188 233.25 386.890625 C 233.25 386.289062 224.925781 372.707031 223.726562 371.355469 C 220.875 368.203125 221.398438 368.128906 260.476562 368.203125 C 280.875 368.277344 297.898438 368.503906 298.273438 368.726562 Z M 372.148438 369.328125 C 372 369.929688 371.101562 371.578125 370.125 373.007812 C 366.300781 378.636719 346.273438 413.535156 343.273438 419.6875 C 340.800781 424.867188 339.75 426.21875 338.550781 426.292969 C 337.425781 426.292969 336.675781 425.542969 336 423.816406 C 335.398438 422.539062 333.75 419.238281 332.25 416.535156 C 322.726562 399.800781 319.351562 393.945312 313.199219 383.664062 C 304.726562 369.328125 304.5 369.027344 304.875 368.578125 C 305.023438 368.351562 320.25 368.128906 338.773438 368.203125 C 367.050781 368.277344 372.375 368.429688 372.148438 369.328125 Z M 453.449219 368.652344 C 453.675781 368.953125 452.550781 371.128906 450.976562 373.53125 C 449.324219 375.933594 445.351562 382.460938 442.125 388.015625 C 438.898438 393.570312 434.925781 400.476562 433.199219 403.402344 C 431.550781 406.253906 428.925781 410.980469 427.425781 413.910156 L 424.648438 419.164062 L 409.800781 419.164062 C 392.25 419.164062 392.550781 419.011719 397.800781 426.894531 C 399.675781 429.746094 401.476562 432.671875 401.773438 433.496094 C 402.074219 434.246094 403.726562 437.175781 405.523438 440.027344 C 407.324219 442.804688 408.75 445.429688 408.75 445.804688 C 408.75 446.480469 399.300781 462.84375 394.875 469.824219 C 391.648438 474.925781 383.023438 490.460938 381.675781 493.613281 C 380.925781 495.414062 379.800781 496.839844 379.125 496.839844 C 378.523438 496.839844 376.875 494.664062 375.375 491.585938 C 373.875 488.660156 371.324219 484.007812 369.601562 481.230469 C 367.949219 478.453125 365.550781 474.324219 364.273438 472.074219 C 360.074219 464.195312 345.449219 439.425781 343.726562 437.101562 C 342.75 435.824219 342 434.097656 342 433.347656 C 342 432.523438 344.925781 426.96875 348.449219 421.039062 C 356.550781 407.53125 374.398438 376.382812 376.800781 371.65625 L 378.601562 368.128906 L 415.800781 368.128906 C 436.199219 368.203125 453.148438 368.429688 453.449219 368.652344 Z M 138.449219 371.28125 C 139.800781 375.183594 143.625 382.6875 148.726562 391.167969 C 151.949219 396.496094 154.5 400.925781 154.5 401.148438 C 154.5 401.527344 160.875 412.109375 163.273438 415.710938 C 164.25 417.136719 164.773438 418.5625 164.398438 418.9375 C 164.101562 419.238281 151.050781 419.613281 135.523438 419.761719 C 110.625 419.914062 107.25 419.761719 107.25 418.789062 C 107.25 418.113281 108.675781 415.785156 110.324219 413.535156 C 112.050781 411.28125 113.699219 408.730469 114.074219 407.90625 C 114.449219 407.078125 115.425781 405.351562 116.25 404.152344 C 117.074219 402.875 118.199219 400.851562 118.800781 399.648438 C 120.148438 396.949219 121.949219 393.945312 127.726562 384.039062 C 130.125 380.0625 132.75 375.183594 133.5 373.382812 C 135.074219 369.777344 137.625 368.726562 138.449219 371.28125 Z M 543.449219 375.03125 C 544.5 377.359375 547.5 382.914062 550.199219 387.414062 C 552.824219 391.84375 555 395.671875 555 395.898438 C 555 396.496094 560.550781 405.726562 564.601562 411.808594 C 569.398438 419.164062 569.398438 420.738281 564.523438 419.988281 C 560.476562 419.386719 515.25 419.238281 514.726562 419.839844 C 514.425781 420.0625 513.824219 419.914062 513.300781 419.460938 C 512.175781 418.5625 512.625 416.984375 514.875 413.910156 C 515.773438 412.632812 517.5 409.78125 518.773438 407.53125 C 519.976562 405.277344 523.574219 399.125 526.648438 393.945312 C 532.800781 383.589844 537.75 374.132812 537.75 372.554688 C 537.75 371.578125 538.875 370.90625 540.601562 370.828125 C 541.125 370.753906 542.398438 372.628906 543.449219 375.03125 Z M 168.449219 425.089844 C 168.824219 425.242188 170.625 428.167969 172.351562 431.621094 C 174.148438 435.074219 175.875 438.449219 176.25 439.050781 C 178.273438 442.351562 186.976562 457.289062 196.5 473.949219 C 202.351562 484.230469 207.898438 493.839844 208.875 495.339844 C 209.773438 496.765625 211.648438 499.992188 213 502.46875 C 214.351562 504.945312 216.75 509 218.398438 511.402344 C 221.699219 516.65625 221.851562 517.707031 219.523438 520.632812 C 217.648438 522.882812 213 530.390625 213 531.0625 C 213 531.289062 210.300781 536.019531 207 541.570312 C 203.699219 547.050781 198.976562 555.304688 196.648438 559.882812 C 194.25 564.539062 191.925781 568.363281 191.550781 568.363281 C 191.175781 568.441406 190.199219 567.164062 189.375 565.511719 C 188.550781 563.863281 185.925781 558.984375 183.449219 554.707031 C 181.050781 550.351562 178.800781 546.300781 178.425781 545.699219 C 178.125 545.023438 175.648438 540.671875 172.949219 536.019531 C 170.175781 531.363281 168 527.460938 168 527.238281 C 168 527.011719 165.675781 523.257812 162.75 518.832031 C 159.898438 514.328125 157.5 510.050781 157.5 509.148438 C 157.5 508.25 158.25 506.449219 159.226562 505.023438 C 161.324219 501.871094 168.824219 489.859375 170.023438 487.683594 C 171.976562 484.15625 171 483.933594 156.824219 484.15625 C 149.550781 484.308594 143.175781 484.15625 142.648438 483.855469 C 142.199219 483.480469 141.074219 481.980469 140.324219 480.480469 C 137.101562 474.023438 136.050781 472.074219 132.148438 465.320312 C 129.824219 461.417969 124.800781 452.636719 120.898438 445.804688 C 117 438.976562 112.5 431.695312 110.851562 429.519531 C 109.199219 427.34375 108 425.316406 108.226562 425.015625 C 108.601562 424.417969 166.726562 424.566406 168.449219 425.089844 Z M 248.773438 425.089844 C 249.300781 425.316406 250.574219 427.269531 251.699219 429.445312 C 253.949219 434.023438 258.449219 441.601562 260.398438 444.230469 C 262.050781 446.40625 262.125 448.28125 260.625 449.558594 C 260.023438 450.007812 258.75 451.886719 257.773438 453.535156 C 256.800781 455.261719 251.773438 463.96875 246.523438 472.898438 C 235.648438 491.511719 232.875 496.464844 228.75 504.496094 C 226.726562 508.472656 225.300781 510.351562 224.398438 510.351562 C 223.5 510.351562 222.074219 508.398438 219.898438 504.121094 C 216 496.539062 213.226562 491.4375 204.523438 476.578125 C 197.398438 464.269531 193.574219 457.664062 192.226562 455.1875 C 191.699219 454.363281 187.574219 447.382812 183 439.652344 C 178.425781 431.921875 174.824219 425.316406 174.976562 425.015625 C 175.351562 424.417969 247.125 424.492188 248.773438 425.089844 Z M 273.601562 425.46875 C 273.75 425.917969 272.625 428.242188 271.199219 430.71875 C 269.699219 433.121094 267.976562 436.347656 267.375 437.851562 C 265.800781 441.527344 263.851562 441.453125 262.125 437.476562 C 261.300781 435.75 259.574219 432.820312 258.226562 430.945312 C 255.976562 427.71875 255.226562 425.542969 256.050781 424.714844 C 256.800781 423.964844 273.300781 424.640625 273.601562 425.46875 Z M 420.148438 426.140625 C 420.074219 427.117188 419.023438 429.292969 417.898438 431.019531 C 416.773438 432.746094 415.273438 435.449219 414.523438 437.023438 C 412.949219 440.476562 411.148438 440.476562 409.5 437.175781 C 408.824219 435.898438 407.25 432.972656 405.824219 430.570312 C 404.476562 428.167969 403.5 425.84375 403.726562 425.316406 C 404.023438 424.566406 406.273438 424.339844 412.199219 424.417969 C 420.226562 424.492188 420.375 424.492188 420.148438 426.140625 Z M 502.199219 425.015625 C 502.5 425.316406 501.898438 426.441406 493.425781 440.628906 C 489.824219 446.554688 486.375 452.410156 485.699219 453.6875 C 485.023438 454.886719 484.199219 456.464844 483.824219 457.0625 C 480.898438 461.792969 474 473.726562 474 474.023438 C 474 474.175781 471.375 478.601562 468.226562 483.933594 C 465.074219 489.1875 460.574219 497.140625 458.25 501.71875 C 455.851562 506.222656 453.449219 510.050781 452.851562 510.199219 C 452.101562 510.351562 450.523438 508.023438 448.125 503.445312 C 446.101562 499.617188 443.25 494.363281 441.675781 491.8125 C 440.101562 489.261719 437.925781 485.582031 436.875 483.558594 C 435.824219 481.605469 433.800781 478.078125 432.375 475.828125 C 430.949219 473.574219 429.523438 471.171875 429.226562 470.574219 C 429 469.972656 426.75 466.144531 424.351562 462.09375 C 421.949219 458.113281 420 454.585938 420 454.4375 C 420 454.210938 418.800781 452.183594 417.300781 449.933594 L 414.601562 445.882812 L 417.148438 441.902344 C 420.523438 436.800781 423.375 431.847656 424.875 428.617188 C 425.476562 427.191406 426.300781 425.691406 426.675781 425.242188 C 427.199219 424.640625 438.75 424.492188 464.625 424.566406 C 485.175781 424.640625 502.050781 424.867188 502.199219 425.015625 Z M 568.5 425.46875 C 568.5 425.992188 567.523438 427.71875 566.324219 429.21875 C 564.300781 431.847656 555 447.007812 555 447.683594 C 555 447.90625 552.300781 452.558594 549 458.113281 C 543.300781 467.722656 541.5 470.949219 536.476562 480.328125 L 534.226562 484.457031 L 520.648438 484.15625 C 508.199219 483.933594 507 484.007812 506.550781 485.207031 C 506.25 485.957031 506.398438 487.085938 506.851562 487.757812 C 508.726562 490.386719 516 502.167969 517.949219 505.621094 L 519.976562 509.300781 L 517.800781 512.828125 C 516.601562 514.777344 515.101562 517.40625 514.425781 518.605469 C 513.75 519.808594 512.851562 521.234375 512.476562 521.757812 C 510.898438 523.710938 495.300781 550.953125 490.351562 560.410156 C 487.875 565.0625 486.226562 567.390625 485.398438 567.390625 C 484.574219 567.390625 483.300781 565.664062 481.726562 562.285156 C 480.375 559.507812 478.574219 555.90625 477.601562 554.253906 C 476.625 552.605469 474.523438 548.851562 472.949219 546 C 468.226562 537.519531 458.101562 520.558594 457.050781 519.28125 C 455.324219 517.328125 455.851562 515.605469 460.5 508.324219 C 462.976562 504.496094 465 501.195312 465 500.96875 C 465 500.742188 467.550781 496.390625 470.625 491.210938 C 473.699219 486.035156 476.25 481.679688 476.25 481.53125 C 476.25 481.230469 486.898438 462.617188 493.050781 452.335938 C 494.925781 449.109375 496.5 446.332031 496.5 446.105469 C 496.5 445.957031 498.148438 443.027344 500.101562 439.652344 C 502.050781 436.199219 504.449219 431.921875 505.425781 430.046875 C 508.648438 423.890625 505.800781 424.417969 538.800781 424.417969 C 563.324219 424.417969 568.5 424.566406 568.5 425.46875 Z M 107.25 432.445312 C 108.601562 435.449219 111.601562 440.925781 113.851562 444.605469 C 116.101562 448.359375 118.125 451.960938 118.425781 452.558594 C 119.023438 454.0625 128.925781 470.949219 133.125 477.703125 C 135 480.554688 136.351562 483.257812 136.273438 483.558594 C 136.050781 484.382812 70.273438 484.457031 69.976562 483.558594 C 69.824219 483.179688 70.800781 481.378906 72.226562 479.503906 C 74.699219 476.125 78.824219 469.371094 83.324219 461.191406 C 84.675781 458.714844 87.601562 453.609375 89.851562 449.933594 C 92.101562 446.179688 95.625 439.953125 97.648438 436.050781 C 101.773438 428.019531 102.375 427.042969 103.726562 427.042969 C 104.25 427.042969 105.824219 429.445312 107.25 432.445312 Z M 575.625 430.421875 C 576.226562 431.921875 578.625 436.5 581.023438 440.628906 C 583.425781 444.753906 586.425781 449.933594 587.625 452.183594 C 593.925781 463.519531 599.476562 472.972656 602.550781 477.703125 C 604.425781 480.554688 606 483.257812 606 483.707031 C 606 484.230469 595.648438 484.382812 573.300781 484.308594 C 555.300781 484.230469 540.449219 484.007812 540.226562 483.855469 C 540.074219 483.707031 540.898438 482.28125 542.023438 480.628906 C 544.050781 477.628906 555 459.390625 555 458.941406 C 555 458.863281 558 453.535156 561.75 447.230469 C 565.425781 440.925781 569.175781 434.023438 570.148438 431.769531 C 572.101562 426.96875 573.976562 426.519531 575.625 430.421875 Z M 339.449219 439.652344 C 339.898438 439.953125 341.023438 441.828125 342.074219 443.929688 C 345.375 450.835938 370.574219 494.515625 373.574219 498.640625 C 376.273438 502.394531 376.273438 503.671875 373.648438 507.574219 C 369.449219 513.800781 347.925781 550.953125 342.601562 561.386719 C 340.726562 564.914062 338.699219 567.839844 338.101562 567.988281 C 337.273438 568.140625 336.148438 566.640625 334.425781 563.113281 C 333 560.335938 330.824219 556.132812 329.550781 553.878906 C 312.675781 524.386719 303.226562 508.25 301.726562 506.523438 C 300.300781 504.796875 300.523438 502.46875 302.476562 500.066406 C 303.449219 498.941406 307.050781 493.089844 310.5 487.085938 C 313.949219 481.078125 318.226562 473.726562 320.023438 470.722656 C 321.75 467.722656 323.25 465.09375 323.25 464.945312 C 323.25 464.71875 325.425781 460.964844 328.050781 456.539062 C 330.675781 452.035156 333.898438 446.332031 335.175781 443.703125 C 337.574219 439.050781 337.949219 438.601562 339.449219 439.652344 Z M 420.300781 465.695312 C 429.375 482.054688 445.351562 509.601562 447.449219 512.375 C 448.425781 513.652344 449.25 515.453125 449.25 516.277344 C 449.25 517.105469 447.75 520.105469 445.949219 522.882812 C 444.148438 525.660156 441.226562 530.613281 439.425781 533.765625 C 437.625 536.992188 433.425781 544.421875 430.050781 550.277344 C 426.675781 556.207031 423.375 562.4375 422.625 564.160156 C 421.273438 567.3125 419.476562 568.738281 418.5 567.613281 C 418.199219 567.3125 417.523438 565.8125 417.074219 564.386719 C 416.625 562.960938 414.898438 559.582031 413.324219 556.882812 C 411.75 554.179688 408.074219 547.875 405.148438 542.847656 C 402.148438 537.820312 399.75 533.542969 399.75 533.316406 C 399.75 532.941406 385.574219 509.300781 382.5 504.644531 C 381.601562 503.21875 381.824219 502.542969 384.898438 497.890625 C 387.898438 493.3125 396.226562 479.054688 405.675781 462.390625 C 407.398438 459.316406 408.976562 456.011719 409.199219 455.039062 C 409.5 454.0625 410.25 452.9375 410.925781 452.558594 C 412.5 451.660156 412.726562 451.886719 420.300781 465.695312 Z M 268.273438 457.964844 C 271.5 464.867188 290.699219 498.042969 293.023438 500.667969 C 293.625 501.34375 294.148438 502.542969 294.148438 503.296875 C 294.226562 504.121094 290.175781 511.550781 285.148438 519.957031 C 280.125 528.363281 276 535.34375 276 535.492188 C 276 535.71875 273.824219 539.46875 271.199219 543.898438 C 268.574219 548.402344 264.523438 555.605469 262.125 560.035156 C 259.800781 564.539062 257.625 568.140625 257.25 568.140625 C 256.875 568.140625 254.398438 563.9375 251.699219 558.757812 C 246.226562 548.476562 231.898438 524.160156 229.050781 520.40625 C 228.074219 519.132812 227.25 517.78125 227.25 517.40625 C 227.25 516.953125 228.601562 514.554688 230.25 512 C 231.898438 509.523438 233.25 507.273438 233.25 507.046875 C 233.25 506.898438 234.824219 504.046875 236.773438 500.820312 C 244.726562 487.460938 259.125 462.46875 260.851562 458.941406 C 264.375 451.734375 265.351562 451.660156 268.273438 457.964844 Z M 109.648438 489.484375 L 140.25 489.335938 L 142.726562 494.363281 C 144.074219 497.214844 146.699219 501.570312 148.425781 504.195312 L 151.648438 508.847656 L 150.226562 511.027344 C 148.351562 514.027344 139.5 528.964844 132.300781 541.121094 C 129.074219 546.675781 124.648438 554.707031 122.398438 558.910156 C 120.226562 563.113281 118.125 566.789062 117.75 567.015625 C 117.375 567.238281 115.5 564.3125 113.625 560.558594 C 111.675781 556.730469 107.476562 549.152344 104.175781 543.597656 C 100.949219 538.121094 98.25 533.464844 98.25 533.316406 C 98.25 533.164062 96.601562 530.238281 94.574219 526.785156 C 92.625 523.335938 89.023438 517.105469 86.625 512.976562 C 84.226562 508.847656 80.324219 502.320312 77.925781 498.417969 C 72.375 489.636719 72.226562 487.984375 76.875 489.035156 C 78.074219 489.335938 92.851562 489.5625 109.648438 489.484375 Z M 160.726562 489.335938 C 161.925781 489.410156 161.101562 492.488281 158.925781 496.242188 C 157.648438 498.417969 156.375 500.742188 156.074219 501.34375 C 154.800781 503.746094 153.074219 502.996094 151.050781 499.015625 C 150 496.839844 148.351562 494.0625 147.449219 492.863281 C 146.023438 490.910156 146.023438 490.613281 147.074219 489.859375 C 148.050781 489.109375 154.050781 488.886719 160.726562 489.335938 Z M 579 489.785156 C 589.949219 489.5625 599.773438 489.109375 600.898438 488.886719 C 603.300781 488.359375 604.574219 490.238281 603.148438 492.261719 C 601.125 495.191406 590.851562 512.078125 587.550781 517.855469 C 585.601562 521.382812 582 527.535156 579.601562 531.589844 C 577.199219 535.640625 575.25 539.09375 575.25 539.320312 C 575.25 539.621094 573.074219 543.371094 570.449219 547.800781 C 567.824219 552.152344 564.523438 558.082031 563.101562 561.011719 C 561.601562 564.238281 560.101562 566.261719 559.425781 566.261719 C 558.675781 566.261719 556.425781 562.886719 553.351562 556.882812 C 550.648438 551.703125 545.925781 543.222656 542.773438 537.96875 C 539.550781 532.640625 537 528.210938 537 528.0625 C 537 527.761719 532.949219 521.082031 526.574219 510.726562 C 525.523438 509.148438 525.675781 508.625 528.824219 503.820312 C 530.773438 501.042969 533.175781 496.765625 534.300781 494.4375 C 535.351562 492.113281 536.773438 489.859375 537.300781 489.5625 C 537.898438 489.1875 543.074219 489.261719 548.773438 489.5625 C 554.476562 489.859375 568.050781 490.011719 579 489.785156 Z M 530.25 490.535156 C 530.25 491.210938 529.273438 493.464844 528 495.488281 C 526.800781 497.441406 525.75 499.316406 525.75 499.617188 C 525.75 500.441406 523.273438 502.84375 522.449219 502.84375 C 521.625 502.84375 515.25 491.585938 515.25 490.160156 C 515.25 489.636719 517.875 489.335938 522.75 489.335938 C 529.199219 489.335938 530.25 489.484375 530.25 490.535156 Z M 69.976562 494.289062 C 71.773438 498.417969 80.699219 514.476562 90.375 530.988281 C 93.75 536.769531 99.375 546.375 102.75 552.304688 C 106.199219 558.15625 110.25 564.761719 111.898438 566.9375 C 113.476562 569.039062 114.675781 571.21875 114.601562 571.742188 C 114.449219 572.492188 105.148438 572.71875 67.125 572.71875 C 26.175781 572.71875 19.875 572.566406 19.648438 571.59375 C 19.5 570.992188 20.773438 568.515625 22.351562 566.113281 C 25.199219 561.910156 28.050781 557.105469 39.074219 537.742188 C 41.925781 532.789062 44.550781 528.210938 45 527.613281 C 45.375 527.011719 46.648438 524.835938 47.699219 522.734375 C 49.351562 519.65625 56.023438 508.324219 58.574219 504.347656 C 60 502.09375 64.351562 493.089844 64.726562 491.585938 C 65.476562 488.660156 68.175781 490.011719 69.976562 494.289062 Z M 613.875 497.066406 C 615.523438 500.441406 619.574219 507.796875 622.875 513.351562 C 626.175781 518.90625 629.398438 524.535156 630.074219 525.734375 C 634.351562 533.542969 636.824219 538.042969 641.625 546 C 644.550781 550.953125 647.25 555.53125 647.476562 556.132812 C 647.773438 556.730469 648.675781 558.234375 649.5 559.507812 C 650.324219 560.710938 651.226562 562.285156 651.449219 562.886719 C 651.75 563.488281 653.101562 565.4375 654.523438 567.164062 C 657.074219 570.390625 657.75 572.644531 656.101562 572.644531 C 655.351562 572.644531 565.273438 572.644531 563.101562 572.644531 C 561.976562 572.644531 562.5 570.542969 564.375 568.066406 C 566.925781 564.460938 585 534.214844 588.976562 526.863281 C 589.949219 524.984375 593.851562 518.082031 597.675781 511.476562 C 606.675781 495.714844 606.75 495.640625 606.75 494.515625 C 606.75 493.3125 609 490.835938 610.050781 490.910156 C 610.5 490.910156 612.226562 493.6875 613.875 497.066406 Z M 382.726562 514.476562 C 384.75 518.757812 388.050781 524.609375 397.875 541.496094 C 400.273438 545.625 403.125 550.503906 404.101562 552.378906 C 406.800781 557.183594 412.425781 565.964844 414.074219 567.765625 C 414.824219 568.664062 415.574219 570.089844 415.648438 570.992188 L 415.875 572.71875 L 379.574219 572.71875 C 356.101562 572.644531 342.976562 572.417969 342.449219 571.890625 C 341.925781 571.367188 342.226562 570.464844 343.351562 569.117188 C 344.925781 567.015625 358.050781 545.550781 362.023438 538.417969 C 376.574219 512.300781 378.300781 509.523438 379.425781 509.75 C 380.023438 509.898438 381.523438 512 382.726562 514.476562 Z M 302.101562 516.730469 C 309.898438 531.214844 314.101562 538.644531 326.25 559.507812 C 327.226562 561.160156 328.949219 563.710938 330.074219 565.210938 C 332.476562 568.289062 334.199219 571.742188 333.601562 572.269531 C 333 572.867188 261.675781 572.792969 261.074219 572.269531 C 260.625 571.816406 261.148438 570.917969 265.050781 565.0625 C 267.675781 561.160156 289.5 523.785156 289.5 523.257812 C 289.5 523.035156 290.476562 521.308594 291.675781 519.429688 C 292.800781 517.480469 294.074219 515.078125 294.375 514.027344 C 296.023438 508.625 298.125 509.300781 302.101562 516.730469 Z M 526.050781 519.730469 C 527.476562 523.109375 546.976562 556.808594 551.101562 562.960938 C 556.425781 570.992188 556.574219 571.367188 555.523438 572.269531 C 554.925781 572.71875 542.925781 572.941406 521.851562 572.792969 C 495.601562 572.644531 489 572.417969 489 571.59375 C 489 571.066406 490.125 569.339844 491.550781 567.691406 C 492.898438 566.113281 495.074219 562.886719 496.273438 560.632812 C 498.75 556.054688 507.226562 541.648438 510.148438 536.992188 C 511.199219 535.34375 514.273438 529.636719 517.125 524.386719 C 522.074219 515.003906 522.226562 514.777344 523.648438 516.128906 C 524.476562 516.878906 525.523438 518.457031 526.050781 519.730469 Z M 158.023438 520.707031 C 160.5 525.960938 162.148438 528.8125 169.949219 542.023438 C 172.574219 546.523438 174.75 550.277344 174.75 550.503906 C 174.75 551.253906 183.300781 564.914062 185.324219 567.390625 C 187.351562 569.789062 188.175781 572.644531 186.976562 572.644531 C 186.601562 572.644531 171.675781 572.644531 153.75 572.71875 C 124.199219 572.71875 121.125 572.644531 120.898438 571.515625 C 120.75 570.839844 121.125 569.714844 121.726562 569.039062 C 124.125 566.261719 128.25 559.808594 133.5 550.503906 C 136.5 545.097656 141.148438 537.21875 143.699219 532.867188 C 146.25 528.511719 149.398438 522.882812 150.75 520.257812 C 153.824219 514.179688 154.949219 514.179688 158.023438 520.707031 Z M 230.101562 531.738281 C 236.476562 543.972656 243 555.082031 250.050781 565.664062 C 253.875 571.367188 254.25 573.992188 251.023438 573.09375 C 250.125 572.867188 237.300781 572.644531 222.601562 572.644531 C 196.574219 572.644531 195.75 572.566406 195.75 571.21875 C 195.75 570.390625 196.574219 568.816406 197.550781 567.613281 C 199.5 565.289062 213 542.996094 213 542.023438 C 213 541.722656 213.824219 540.296875 214.800781 538.871094 C 215.773438 537.445312 217.949219 533.542969 219.675781 530.3125 C 221.398438 527.011719 222.976562 524.085938 223.199219 523.710938 C 224.324219 521.984375 226.199219 524.160156 230.101562 531.738281 Z M 456.75 528.511719 C 465 544.199219 474.75 560.933594 479.023438 566.640625 C 483.824219 572.941406 485.023438 572.644531 452.625 572.71875 C 425.023438 572.792969 424.125 572.792969 423.898438 571.367188 C 423.75 570.617188 424.726562 568.589844 426.074219 566.9375 C 428.25 564.160156 440.25 544.5 440.25 543.597656 C 440.25 543.371094 441.898438 540.445312 443.925781 537.070312 C 445.949219 533.765625 448.5 529.1875 449.550781 527.011719 C 450.976562 524.234375 451.949219 523.109375 452.851562 523.257812 C 453.523438 523.410156 455.324219 525.734375 456.75 528.511719 Z M 456.75 528.511719 "/>
</g>
</svg>
