<?xml version="1.0" standalone="no"?>
<!DOCTYPE svg PUBLIC "-//W3C//DTD SVG 20010904//EN"
 "http://www.w3.org/TR/2001/REC-SVG-20010904/DTD/svg10.dtd">
<svg version="1.0" xmlns="http://www.w3.org/2000/svg"
 width="900.000000pt" height="777.000000pt" viewBox="0 0 900.000000 777.000000"
 preserveAspectRatio="xMidYMid meet">
<metadata>
Created by potrace 1.10, written by Peter Selinger 2001-2011
</metadata>
<g transform="translate(0.000000,777.000000) scale(0.100000,-0.100000)"
fill="#000000" stroke="none">
<path d="M4482 7717 c-6 -7 -16 -26 -22 -42 -6 -16 -91 -166 -189 -334 -98
-168 -193 -333 -211 -365 -17 -33 -46 -83 -64 -110 -27 -43 -82 -139 -169
-296 -44 -80 -102 -178 -132 -225 -17 -27 -49 -81 -70 -120 -21 -38 -62 -111
-91 -161 -30 -50 -57 -100 -60 -110 -4 -11 -15 -28 -24 -39 -10 -11 -52 -83
-95 -160 -43 -77 -85 -152 -94 -167 -9 -15 -56 -97 -106 -183 -49 -85 -125
-215 -169 -288 -43 -72 -81 -139 -84 -147 -5 -12 -96 -172 -132 -230 -22 -37
-151 -260 -176 -305 -15 -27 -57 -99 -93 -160 -80 -136 -201 -347 -201 -352 0
-2 -40 -70 -88 -151 -49 -81 -92 -154 -96 -162 -4 -8 -12 -24 -19 -35 -7 -11
-32 -56 -56 -100 -24 -44 -53 -92 -63 -108 -17 -23 -66 -108 -165 -287 -14
-25 -54 -92 -88 -150 -34 -58 -72 -125 -85 -150 -12 -25 -28 -52 -35 -60 -7
-8 -25 -37 -39 -65 -15 -27 -31 -57 -36 -65 -45 -74 -190 -321 -190 -325 0 -2
-20 -39 -45 -81 -25 -41 -45 -77 -45 -79 0 -2 -32 -57 -70 -121 -39 -64 -82
-137 -95 -163 -14 -25 -29 -53 -34 -61 -40 -64 -177 -301 -215 -370 -26 -47
-56 -98 -67 -115 -10 -16 -22 -37 -26 -45 -4 -8 -32 -58 -64 -110 -48 -81 -97
-168 -143 -254 -6 -12 -18 -32 -27 -46 -25 -39 -154 -260 -179 -305 -12 -22
-32 -58 -44 -80 -13 -22 -51 -89 -86 -150 -34 -60 -83 -140 -107 -177 -25 -37
-42 -72 -38 -78 5 -8 25 -10 64 -5 72 9 8732 9 8787 0 27 -5 44 -3 49 4 3 7
-13 44 -37 84 -24 40 -50 84 -58 99 -8 15 -49 85 -90 155 -92 156 -85 143
-144 250 -27 48 -63 111 -81 138 -41 64 -75 123 -155 270 -58 106 -160 273
-175 285 -8 7 -15 18 -15 25 0 12 -37 85 -78 155 -12 19 -34 58 -50 85 -16 28
-65 112 -110 189 -45 76 -82 141 -82 144 0 3 -33 59 -73 126 -72 119 -188 321
-196 341 -2 5 -45 80 -96 165 -50 85 -120 205 -155 265 -68 119 -324 564 -423
735 -33 58 -74 130 -91 160 -17 30 -64 111 -105 180 -135 230 -361 623 -361
628 0 3 -40 71 -88 151 -49 80 -92 153 -96 161 -4 8 -12 24 -19 35 -7 11 -32
56 -56 100 -24 44 -77 135 -118 202 -40 67 -73 124 -73 126 0 6 -183 319 -208
355 -10 15 -30 50 -44 78 -38 73 -46 87 -314 549 -29 50 -81 139 -116 199 -34
61 -78 135 -96 165 -17 31 -46 83 -63 116 -18 33 -63 112 -102 175 -38 63 -73
124 -78 135 -5 11 -19 36 -30 55 -11 19 -48 82 -81 140 -34 58 -76 129 -94
157 -19 29 -34 55 -34 57 0 2 -21 40 -46 83 -26 43 -58 102 -70 131 -24 53
-49 67 -72 39z m52 -233 c9 -8 16 -23 16 -32 1 -9 12 -35 25 -57 13 -22 35
-62 49 -90 14 -27 30 -57 35 -65 29 -47 111 -186 196 -335 132 -231 203 -351
242 -407 62 -91 116 -83 -589 -81 -717 2 -651 -11 -570 113 27 41 103 170 169
285 67 116 160 278 208 360 97 167 155 276 155 291 0 14 22 34 36 34 7 0 20
-7 28 -16z m574 -1142 c2 -6 -19 -43 -47 -84 -49 -74 -153 -248 -216 -363 -18
-33 -67 -118 -108 -190 l-75 -130 -146 0 c-168 -1 -151 -10 -216 110 -36 67
-137 242 -170 295 -5 8 -29 51 -53 95 -24 45 -70 120 -101 168 -32 48 -56 93
-53 100 6 15 1180 14 1185 -1z m-1233 -48 c18 -45 109 -210 177 -324 15 -25
32 -54 37 -65 16 -36 132 -229 158 -263 51 -67 66 -65 -416 -65 -292 0 -436 3
-438 10 -2 6 7 23 20 39 29 36 124 194 231 389 16 27 50 86 77 131 27 44 49
86 49 92 0 21 62 113 73 109 6 -2 20 -26 32 -53z m1322 28 c7 -4 20 -25 29
-47 9 -22 51 -100 94 -175 43 -74 88 -153 100 -175 46 -82 154 -261 177 -291
46 -62 65 -59 -408 -57 -237 1 -433 4 -436 7 -3 3 17 40 45 83 27 43 66 107
85 143 19 36 67 119 106 185 68 113 154 279 165 318 6 18 23 22 43 9z m412
-816 c9 -10 -1 -31 -42 -92 -56 -82 -176 -288 -283 -482 l-62 -114 -708 1
-708 0 -18 23 c-10 13 -18 26 -18 31 0 4 -47 89 -105 188 -58 99 -105 182
-105 185 0 9 -102 168 -126 197 -13 15 -24 36 -24 45 0 16 36 17 457 16 l458
-1 33 -59 c48 -85 92 -163 116 -209 16 -30 27 -40 46 -40 17 0 26 6 28 20 5
26 141 273 156 283 6 4 180 6 386 4 206 -1 400 2 430 7 78 12 76 12 89 -3z
m-999 -20 c0 -14 -5 -28 -10 -31 -6 -4 -24 -33 -40 -66 -17 -32 -36 -59 -44
-59 -15 0 -106 142 -106 165 0 12 19 15 100 15 99 0 100 0 100 -24z m-1244
-36 c7 -14 20 -43 31 -65 25 -55 247 -438 290 -503 20 -29 33 -55 29 -59 -3
-4 -160 -8 -349 -9 -188 -1 -358 -4 -377 -6 -28 -2 -35 1 -38 16 -2 11 2 24 9
30 21 16 59 77 142 221 40 72 97 170 126 219 28 48 61 111 73 138 23 54 44 60
64 18z m2362 -51 c18 -35 57 -104 86 -154 29 -49 70 -121 91 -160 21 -38 64
-110 97 -159 65 -97 70 -123 23 -117 -17 1 -184 4 -372 5 -188 1 -345 5 -349
9 -4 4 0 15 8 24 15 18 238 390 238 398 0 2 16 30 35 62 19 32 40 74 46 93 13
41 38 72 53 67 6 -2 26 -32 44 -68z m-2268 -662 l315 -2 21 -40 c67 -126 136
-248 264 -467 52 -89 97 -167 99 -173 2 -5 26 -44 52 -86 27 -42 49 -80 49
-85 0 -7 -731 -11 -792 -5 -5 1 -18 22 -30 49 -23 49 -167 305 -256 453 -27
46 -76 129 -107 184 -32 55 -69 112 -83 127 -20 22 -23 30 -13 42 9 11 30 13
89 9 42 -2 219 -5 392 -6z m1054 2 c325 1 600 4 611 7 13 3 27 -1 34 -10 10
-12 6 -24 -24 -67 -20 -29 -61 -97 -93 -151 -31 -55 -61 -107 -67 -116 -5 -10
-37 -65 -69 -122 -33 -58 -93 -161 -133 -229 -40 -69 -73 -130 -73 -136 0 -7
-8 -19 -18 -28 -15 -14 -42 -16 -177 -14 l-159 2 -71 126 c-144 261 -299 526
-404 693 -21 34 -8 60 27 51 15 -4 292 -6 616 -6z m1123 -1 c166 0 327 4 356
7 72 9 77 -7 26 -75 -21 -28 -68 -102 -103 -163 -35 -62 -100 -175 -146 -252
-45 -77 -105 -183 -133 -235 -27 -52 -58 -106 -67 -119 l-17 -24 -393 -1
c-215 -1 -394 3 -397 7 -3 5 15 38 40 75 24 37 52 82 62 101 9 19 59 105 110
192 52 87 133 229 181 316 48 87 94 164 103 171 10 8 27 10 45 6 16 -3 166 -6
333 -6z m-2680 -106 c38 -74 108 -198 304 -537 35 -60 76 -128 91 -149 55 -76
78 -72 -379 -72 -225 1 -441 -2 -481 -7 -94 -9 -99 1 -40 91 45 67 148 239
148 247 0 2 36 64 80 138 137 232 173 298 194 360 12 36 40 12 83 -71z m3224
-19 c29 -54 85 -153 126 -221 40 -67 73 -125 73 -127 0 -8 129 -225 176 -296
24 -36 44 -76 44 -88 0 -21 -2 -21 -82 -14 -46 5 -262 8 -480 8 -455 0 -419
-10 -348 95 20 30 67 109 105 175 37 66 110 193 162 282 52 90 103 184 115
210 23 53 36 73 48 73 5 0 32 -44 61 -97z m-3222 -809 l474 -2 17 -28 c9 -16
70 -123 135 -239 140 -248 302 -524 321 -546 8 -8 14 -24 14 -35 0 -19 -13
-19 -501 -17 l-501 1 -38 70 c-57 105 -75 136 -225 397 -156 271 -196 335
-219 354 -17 14 -21 42 -9 55 4 4 19 4 33 0 14 -4 238 -9 499 -10z m3629 -10
c2 -11 -11 -38 -28 -59 -17 -22 -53 -76 -79 -120 -65 -109 -322 -557 -357
-624 l-29 -53 -495 0 c-275 0 -496 4 -497 9 -2 5 10 29 26 54 38 58 141 229
141 234 0 2 27 49 60 105 33 56 60 103 60 105 0 1 30 54 67 116 37 63 79 138
94 168 15 29 32 58 38 64 7 7 154 10 433 9 233 -1 450 2 483 7 74 10 79 9 83
-15z m-2273 4 c1 -2 15 -28 30 -58 15 -30 39 -72 52 -94 14 -21 40 -70 60
-108 46 -92 62 -90 117 17 23 44 53 98 67 120 14 22 31 54 38 72 7 18 19 37
27 44 10 8 128 12 404 13 448 1 419 9 350 -95 -22 -33 -40 -62 -40 -65 0 -2
-42 -75 -94 -162 -83 -140 -137 -235 -273 -476 l-38 -68 -497 0 c-273 0 -501
3 -507 6 -5 3 -27 39 -49 79 -73 134 -184 332 -212 377 -113 184 -231 391
-227 397 5 7 786 8 792 1z m308 0 c2 -7 -6 -29 -18 -48 -12 -19 -34 -59 -49
-88 -17 -33 -33 -52 -44 -52 -18 1 -112 156 -112 185 0 12 20 15 109 15 79 0
111 -4 114 -12z m2110 -135 c35 -65 92 -167 127 -228 34 -60 78 -139 98 -174
46 -85 135 -229 161 -263 12 -14 21 -34 21 -45 0 -17 -20 -18 -477 -16 -524 1
-509 0 -460 59 27 34 54 78 213 354 65 113 142 252 171 309 44 87 65 120 80
121 1 0 31 -53 66 -117z m-4356 95 c5 -7 16 -29 23 -48 18 -45 318 -572 382
-669 26 -41 48 -81 48 -90 0 -15 -38 -16 -402 -13 -222 2 -433 0 -469 -5 -36
-5 -71 -7 -77 -5 -23 7 -12 36 46 121 33 47 75 115 94 151 20 36 68 121 108
190 122 211 167 293 186 337 19 43 43 54 61 31z m4759 -893 c3 -8 -9 -36 -29
-62 -47 -64 -266 -437 -319 -543 -15 -30 -32 -61 -38 -68 -9 -10 -116 -12
-506 -11 -464 2 -494 3 -494 20 0 10 11 30 24 46 13 15 42 62 65 103 23 41 46
82 51 90 97 164 153 262 192 335 l47 90 480 0 c263 0 483 3 487 8 12 12 34 8
40 -8z m-4222 -55 c16 -30 59 -107 95 -170 37 -63 92 -158 121 -210 30 -52 74
-125 98 -162 24 -37 42 -72 40 -78 -3 -9 -128 -11 -473 -11 -259 1 -480 1
-492 1 -18 0 -30 14 -53 61 -17 33 -60 109 -96 169 -35 60 -64 111 -64 113 0
9 -122 212 -161 267 -22 31 -39 60 -39 65 0 6 188 10 498 10 l497 0 29 -55z
m1063 47 c5 -3 26 -38 47 -78 40 -75 200 -356 271 -474 23 -38 57 -97 75 -130
46 -83 77 -132 90 -140 16 -10 12 -50 -8 -76 -10 -13 -52 -80 -92 -149 -40
-69 -95 -161 -120 -205 -47 -80 -212 -375 -240 -430 -27 -51 -46 -44 -82 32
-17 37 -38 75 -45 83 -7 9 -29 47 -49 85 -19 39 -77 139 -127 222 -51 84 -100
168 -111 186 l-19 33 71 119 c39 66 85 139 102 162 37 52 39 80 6 89 -14 3
-28 4 -33 1 -4 -3 -86 -6 -182 -8 l-174 -3 -44 84 c-25 47 -80 145 -124 218
-43 72 -79 134 -79 137 0 8 -111 189 -127 207 -38 42 -31 43 490 42 272 -1
499 -4 504 -7z m985 -8 c-2 -8 -14 -30 -27 -49 -51 -75 -318 -540 -358 -622
-33 -69 -47 -87 -63 -88 -15 0 -25 10 -34 33 -8 17 -30 61 -50 97 -127 223
-172 301 -254 438 -113 191 -116 195 -111 201 2 3 205 6 452 5 377 -1 448 -3
445 -15z m1084 9 c3 -4 -12 -33 -33 -65 -22 -32 -75 -119 -118 -193 -43 -74
-96 -166 -119 -205 -22 -38 -57 -101 -77 -140 l-37 -70 -198 0 c-234 0 -230 2
-160 -103 25 -38 49 -77 53 -88 4 -10 26 -49 50 -87 24 -37 43 -72 43 -77 0
-9 -126 -227 -185 -320 -43 -68 -158 -275 -176 -317 -10 -24 -25 -43 -34 -43
-8 0 -30 29 -50 70 -20 39 -54 101 -77 138 -22 37 -54 92 -71 122 -56 105
-251 435 -274 466 -13 17 -23 40 -23 50 0 11 39 85 86 164 108 180 346 595
378 658 l24 47 496 0 c272 -1 498 -4 502 -7z m-4200 -35 c18 -52 69 -152 137
-265 43 -71 77 -130 77 -133 0 -5 85 -146 117 -194 13 -19 20 -38 15 -43 -4
-4 -178 -9 -385 -11 -332 -2 -377 0 -377 13 0 9 19 40 41 70 23 30 45 64 50
75 5 11 18 34 29 50 11 17 26 44 34 60 18 36 42 76 119 208 32 53 67 118 77
142 21 48 55 62 66 28z m5400 -50 c14 -31 54 -105 90 -165 35 -59 64 -110 64
-113 0 -8 74 -131 128 -212 64 -98 64 -119 -1 -109 -54 8 -657 10 -664 2 -4
-3 -12 -1 -19 5 -15 12 -9 33 21 74 12 17 35 55 52 85 16 30 64 112 105 181
82 138 148 264 148 285 0 13 15 22 38 23 7 1 24 -24 38 -56z m-5000 -667 c5
-2 29 -41 52 -87 24 -46 47 -91 52 -99 27 -44 143 -243 270 -465 78 -137 152
-265 165 -285 12 -19 37 -62 55 -95 18 -33 50 -87 72 -119 44 -70 46 -84 15
-123 -25 -30 -87 -130 -87 -139 0 -3 -36 -66 -80 -140 -44 -73 -107 -183 -138
-244 -32 -62 -63 -113 -68 -113 -5 -1 -18 16 -29 38 -11 22 -46 87 -79 144
-32 58 -62 112 -67 120 -4 9 -37 67 -73 129 -37 62 -66 114 -66 117 0 3 -31
53 -70 112 -38 60 -70 117 -70 129 0 12 10 36 23 55 28 42 128 202 144 231 26
47 13 50 -176 47 -97 -2 -182 0 -189 4 -6 5 -21 25 -31 45 -43 86 -57 112
-109 202 -31 52 -98 169 -150 260 -52 91 -112 188 -134 217 -22 29 -38 56 -35
60 5 8 780 6 803 -1z m1071 0 c7 -3 24 -29 39 -58 30 -61 90 -162 116 -197 22
-29 23 -54 3 -71 -8 -6 -25 -31 -38 -53 -13 -23 -80 -139 -150 -258 -145 -248
-182 -314 -237 -421 -27 -53 -46 -78 -58 -78 -12 0 -31 26 -60 83 -52 101 -89
169 -205 367 -95 164 -146 252 -164 285 -7 11 -62 104 -123 207 -61 103 -109
191 -107 195 5 8 962 7 984 -1z m331 -5 c2 -6 -13 -37 -32 -70 -20 -32 -43
-75 -51 -95 -21 -49 -47 -48 -70 5 -11 23 -34 62 -52 87 -30 43 -40 72 -29 83
10 10 230 1 234 -10z m1954 -9 c-1 -13 -15 -42 -30 -65 -15 -23 -35 -59 -45
-80 -21 -46 -45 -46 -67 -2 -9 17 -30 56 -49 88 -18 32 -31 63 -28 70 4 10 34
13 113 12 107 -1 109 -1 106 -23z m1094 15 c4 -4 -4 -19 -117 -208 -48 -79
-94 -157 -103 -174 -9 -16 -20 -37 -25 -45 -39 -63 -131 -222 -131 -226 0 -2
-35 -61 -77 -132 -42 -70 -102 -176 -133 -237 -32 -60 -64 -111 -72 -113 -10
-2 -31 29 -63 90 -27 51 -65 121 -86 155 -21 34 -50 83 -64 110 -14 26 -41 73
-60 103 -19 30 -38 62 -42 70 -3 8 -33 59 -65 113 -32 53 -58 100 -58 102 0 3
-16 30 -36 60 l-36 54 34 53 c45 68 83 134 103 177 8 19 19 39 24 45 7 8 161
10 506 9 274 -1 499 -4 501 -6z m884 -6 c0 -7 -13 -30 -29 -50 -27 -35 -151
-237 -151 -246 0 -3 -36 -65 -80 -139 -76 -128 -100 -171 -167 -296 l-30 -55
-181 4 c-166 3 -182 2 -188 -14 -4 -10 -2 -25 4 -34 25 -35 122 -192 148 -238
l27 -49 -29 -47 c-16 -26 -36 -61 -45 -77 -9 -16 -21 -35 -26 -42 -21 -26
-229 -389 -295 -515 -33 -62 -55 -93 -66 -93 -11 0 -28 23 -49 68 -18 37 -42
85 -55 107 -13 22 -41 72 -62 110 -63 113 -198 339 -212 356 -23 26 -16 49 46
146 33 51 60 95 60 98 0 3 34 61 75 130 41 69 75 127 75 129 0 4 142 252 224
389 25 43 46 80 46 83 0 2 22 41 48 86 26 46 58 103 71 128 43 82 5 75 445 75
327 0 396 -2 396 -14z m-6150 -93 c18 -40 58 -113 88 -162 30 -50 57 -98 61
-106 8 -20 140 -245 196 -335 25 -38 43 -74 42 -78 -3 -11 -880 -12 -884 0 -2
5 11 29 30 54 33 45 88 135 148 244 18 33 57 101 87 150 30 50 77 133 104 185
55 107 63 120 81 120 7 0 28 -32 47 -72z m6245 27 c8 -20 40 -81 72 -136 32
-55 72 -124 88 -154 84 -151 158 -277 199 -340 25 -38 46 -74 46 -80 0 -7
-138 -9 -436 -8 -240 1 -438 4 -441 6 -2 2 9 21 24 43 27 40 173 283 173 289
0 1 40 72 90 156 49 84 99 176 112 206 26 64 51 70 73 18z m-3149 -123 c6 -4
21 -29 35 -57 44 -92 380 -674 420 -729 36 -50 36 -67 1 -119 -56 -83 -343
-578 -414 -717 -25 -47 -52 -86 -60 -88 -11 -2 -26 18 -49 65 -19 37 -48 93
-65 123 -225 393 -351 608 -371 631 -19 23 -16 54 10 86 13 15 61 93 107 173
46 80 103 178 127 218 23 40 43 75 43 77 0 3 29 53 64 112 35 60 78 136 95
171 32 62 37 68 57 54z m1078 -347 c121 -218 334 -585 362 -622 13 -17 24 -41
24 -52 0 -11 -20 -51 -44 -88 -24 -37 -63 -103 -87 -145 -24 -43 -80 -142
-125 -220 -45 -79 -89 -162 -99 -185 -18 -42 -42 -61 -55 -46 -4 4 -13 24 -19
43 -6 19 -29 64 -50 100 -21 36 -70 120 -109 187 -40 67 -72 124 -72 127 0 5
-189 320 -230 382 -12 19 -9 28 32 90 40 61 151 251 277 473 23 41 44 85 47
98 4 13 14 28 23 33 21 12 24 9 125 -175z m-2027 103 c43 -92 299 -534 330
-569 8 -9 15 -25 15 -35 1 -11 -53 -110 -120 -222 -67 -112 -122 -205 -122
-207 0 -3 -29 -53 -64 -112 -35 -60 -89 -156 -121 -215 -31 -60 -60 -108 -65
-108 -5 0 -38 56 -74 125 -73 137 -264 461 -302 511 -13 17 -24 35 -24 40 0 6
18 38 40 72 22 33 40 63 40 66 0 2 21 40 47 83 106 178 298 511 321 558 47 96
60 97 99 13z m-2115 -420 l408 2 33 -67 c18 -38 53 -96 76 -131 l43 -62 -19
-29 c-25 -40 -143 -239 -239 -401 -43 -74 -102 -181 -132 -237 -29 -56 -57
-105 -62 -108 -5 -3 -30 36 -55 86 -26 51 -82 152 -126 226 -43 73 -79 135
-79 137 0 2 -22 41 -49 87 -26 46 -74 129 -106 184 -32 55 -84 142 -116 194
-74 117 -76 139 -14 125 16 -4 213 -7 437 -6z m681 2 c16 -1 5 -42 -24 -92
-17 -29 -34 -60 -38 -68 -17 -32 -40 -22 -67 31 -14 29 -36 66 -48 82 -19 26
-19 30 -5 40 13 10 93 13 182 7z m5577 -6 c146 3 277 9 292 12 32 7 49 -18 30
-45 -27 -39 -164 -264 -208 -341 -26 -47 -74 -129 -106 -183 -32 -54 -58 -100
-58 -103 0 -4 -29 -54 -64 -113 -35 -58 -79 -137 -98 -176 -20 -43 -40 -70
-49 -70 -10 0 -40 45 -81 125 -36 69 -99 182 -141 252 -43 71 -77 130 -77 132
0 4 -54 93 -139 231 -14 21 -12 28 30 92 26 37 58 94 73 125 14 31 33 61 40
65 8 5 77 4 153 0 76 -4 257 -6 403 -3z m-650 -10 c0 -9 -13 -39 -30 -66 -16
-26 -30 -51 -30 -55 0 -11 -33 -43 -44 -43 -11 0 -96 150 -96 169 0 7 35 11
100 11 86 0 100 -2 100 -16z m-6137 -50 c24 -55 143 -269 272 -489 45 -77 120
-205 165 -284 46 -78 100 -166 122 -195 21 -28 37 -57 36 -64 -2 -10 -126 -13
-633 -13 -546 0 -630 2 -633 15 -2 8 15 41 36 73 38 56 76 120 223 378 38 66
73 127 79 135 5 8 22 37 36 65 22 41 111 192 145 245 19 30 77 150 82 170 10
39 46 21 70 -36z m7252 -37 c22 -45 76 -143 120 -217 44 -74 87 -149 96 -165
57 -104 90 -164 154 -270 39 -66 75 -127 78 -135 4 -8 16 -28 27 -45 11 -16
23 -37 26 -45 4 -8 22 -34 41 -57 34 -43 43 -73 21 -73 -10 0 -1211 0 -1240 0
-15 0 -8 28 17 61 34 48 275 451 328 549 13 25 65 117 116 205 120 210 121
211 121 226 0 16 30 49 44 48 6 0 29 -37 51 -82z m-3082 -232 c27 -57 71 -135
202 -360 32 -55 70 -120 83 -145 36 -64 111 -181 133 -205 10 -12 20 -31 21
-43 l3 -23 -484 0 c-313 1 -488 4 -495 11 -7 7 -3 19 12 37 21 28 196 314 249
409 194 348 217 385 232 382 8 -2 28 -30 44 -63z m-1075 -30 c104 -193 160
-292 322 -570 13 -22 36 -56 51 -76 32 -41 55 -87 47 -94 -8 -8 -959 -7 -967
0 -6 6 1 18 53 96 35 52 326 550 326 557 0 3 13 26 29 51 15 26 32 58 36 72
22 72 50 63 103 -36z m2986 -40 c19 -45 279 -494 334 -576 71 -107 73 -112 59
-124 -8 -6 -168 -9 -449 -7 -350 2 -438 5 -438 16 0 7 15 30 34 52 18 21 47
64 63 94 33 61 146 253 185 315 14 22 55 98 93 168 66 125 68 128 87 110 11
-10 25 -31 32 -48z m-4907 -13 c33 -70 55 -108 159 -284 35 -60 64 -110 64
-113 0 -10 114 -192 141 -225 27 -32 38 -70 22 -70 -5 0 -204 0 -443 -1 -394
0 -435 1 -438 16 -2 9 3 24 11 33 32 37 87 123 157 247 40 72 102 177 136 235
34 58 76 133 94 168 41 81 56 81 97 -6z m961 -147 c85 -163 172 -311 266 -452
51 -76 56 -111 13 -99 -12 3 -183 6 -379 6 -347 0 -358 1 -358 19 0 11 11 32
24 48 26 31 206 328 206 341 0 4 11 23 24 42 13 19 42 71 65 114 23 44 44 83
47 88 15 23 40 -6 92 -107z m3022 43 c110 -209 240 -432 297 -508 64 -84 80
-80 -352 -81 -368 -1 -380 -1 -383 18 -2 10 11 37 29 59 29 37 189 299 189
311 0 3 22 42 49 87 27 44 61 105 75 134 19 37 32 52 44 50 9 -2 33 -33 52
-70z"/>
</g>
</svg>
