<?xml version="1.0" encoding="UTF-8"?>
<svg xmlns="http://www.w3.org/2000/svg" xmlns:xlink="http://www.w3.org/1999/xlink" width="300pt" height="300pt" viewBox="0 0 300 300" version="1.1">
<g id="surface1">
<path style=" stroke:none;fill-rule:nonzero;fill:rgb(0%,0%,0%);fill-opacity:1;" d="M 10.054688 208 C 15.789062 208 22.164062 202.320312 27.964844 197.144531 C 31.148438 193.910156 34.789062 191.167969 38.773438 189 C 39.28125 188.867188 39.796875 188.773438 40.316406 188.71875 C 39.351562 201.671875 41.167969 214.683594 45.648438 226.875 C 39.039062 235.460938 30.5 249.691406 33.875 262.566406 C 34.335938 264.304688 35.695312 265.664062 37.433594 266.125 C 39.429688 266.644531 41.484375 266.902344 43.546875 266.894531 C 54.648438 266.894531 65.90625 259.894531 73.140625 254.335938 C 83.339844 258.1875 94.183594 260.0625 105.085938 259.859375 C 107.113281 259.859375 109.183594 259.773438 111.261719 259.675781 C 111.207031 260.203125 111.109375 260.726562 110.976562 261.238281 C 108.808594 265.222656 106.0625 268.863281 102.828125 272.039062 C 95.730469 280.011719 87.671875 289.039062 94.679688 296.039062 C 98.457031 299 103.21875 300.414062 108 300 C 112.386719 299.933594 116.757812 299.417969 121.039062 298.464844 C 131.613281 296.542969 141.472656 291.8125 149.585938 284.765625 C 155.800781 278.550781 158.585938 266.886719 158.023438 250.183594 C 182.089844 242.273438 204.125 229.164062 222.558594 211.789062 C 225.445312 208.90625 228.003906 205.984375 230.40625 203.054688 C 231.289062 203.703125 231.929688 204.625 232.230469 205.679688 C 233.121094 211.929688 230.820312 218.210938 226.09375 222.398438 C 212.53125 235.964844 204.824219 255.476562 208.554688 266.84375 C 209.363281 269.898438 211.761719 272.277344 214.820312 273.066406 C 215.464844 273.21875 216.125 273.296875 216.789062 273.296875 C 224.691406 273.296875 235.234375 262.753906 260.140625 237.851562 C 290.515625 207.476562 273.019531 170.351562 259.785156 157.101562 C 256.542969 153.589844 252.324219 151.132812 247.675781 150.039062 C 245.59375 136.296875 240.253906 123.253906 232.101562 112 C 240.421875 107.796875 249.601562 102.953125 252.523438 93.945312 C 254.980469 86.296875 262.128906 60.445312 250.839844 49.175781 C 239.550781 37.90625 213.71875 45 206.070312 47.476562 C 197.070312 50.378906 192.21875 59.574219 188.015625 67.898438 C 176.742188 59.730469 163.675781 54.386719 149.910156 52.320312 C 148.835938 47.675781 146.398438 43.460938 142.910156 40.214844 C 129.664062 27 92.5 9.5 62.148438 39.859375 C 35.125 66.886719 25 77 26.941406 85.183594 C 27.734375 88.257812 30.125 90.65625 33.195312 91.460938 C 35.269531 92.109375 37.433594 92.421875 39.605469 92.394531 C 50.984375 92.394531 66.34375 85.164062 77.605469 73.894531 C 81.796875 69.175781 88.074219 66.871094 94.324219 67.761719 C 95.378906 68.058594 96.304688 68.703125 96.949219 69.589844 C 93.90625 72.054688 90.992188 74.671875 88.214844 77.433594 C 70.839844 95.859375 57.726562 117.878906 49.808594 141.933594 C 33.085938 141.371094 21.449219 144.171875 15.238281 150.378906 C 1.933594 163.714844 -4.808594 196.554688 3.953125 205.320312 C 5.53125 207.019531 7.738281 207.988281 10.054688 208 Z M 60.398438 141.800781 L 69.589844 144.859375 C 66.25 153.789062 63.679688 162.992188 61.914062 172.359375 L 51.664062 174.410156 C 53.53125 163.285156 56.457031 152.367188 60.398438 141.800781 Z M 142.21875 61.910156 C 147.519531 61.945312 152.785156 62.71875 157.871094 64.203125 L 155.914062 74 C 145.007812 70.4375 133.144531 71.265625 122.835938 76.300781 L 119.203125 67.195312 C 126.394531 63.765625 134.253906 61.960938 142.21875 61.910156 Z M 232.320312 132.628906 L 222.234375 134.628906 C 216.753906 124.003906 209.671875 114.285156 201.234375 105.808594 L 208.308594 98.730469 C 218.171875 108.59375 226.289062 120.054688 232.320312 132.628906 Z M 232.796875 180.785156 L 223.710938 177.160156 C 226.433594 171.554688 227.945312 165.433594 228.144531 159.203125 C 228.222656 154.085938 227.488281 148.984375 225.960938 144.09375 L 235.734375 142.144531 C 239.566406 154.945312 238.515625 168.710938 232.796875 180.785156 Z M 155.109375 230.328125 L 158.199219 239.601562 C 147.640625 243.542969 136.726562 246.46875 125.609375 248.335938 L 127.648438 238.113281 C 130.191406 237.613281 132.769531 237.074219 135.410156 236.433594 C 142.089844 234.789062 148.667969 232.753906 155.109375 230.328125 Z M 164.390625 226.550781 C 172.867188 222.839844 181.015625 218.421875 188.75 213.34375 L 195.933594 220.523438 C 186.941406 226.488281 177.421875 231.625 167.5 235.863281 Z M 133.046875 226.714844 C 131.945312 226.984375 130.863281 227.214844 129.78125 227.453125 L 134.929688 201.660156 L 168.039062 192.660156 L 181.539062 206.160156 C 166.589844 215.585938 150.214844 222.527344 133.046875 226.714844 Z M 60.195312 232.714844 C 51.484375 221.214844 48.695312 203.976562 50.351562 184.835938 L 60.351562 182.835938 C 58.496094 200.28125 60.546875 215.71875 67.351562 225.558594 Z M 70.660156 180.78125 L 100.703125 174.78125 L 125.203125 199.28125 L 119.203125 229.359375 C 100.125 231.988281 84.773438 229.554688 77.605469 222.359375 C 70.261719 215.066406 68.171875 199.324219 70.660156 180.796875 Z M 117.023438 134.535156 L 150.359375 125.445312 L 174.546875 149.625 L 165.449219 183 L 132.121094 192.089844 L 107.933594 167.910156 Z M 212.023438 136.664062 L 181.75 142.714844 L 157.25 118.214844 L 163.320312 87.855469 C 173.453125 93.601562 182.683594 100.8125 190.714844 109.253906 C 199.128906 117.304688 206.320312 126.542969 212.050781 136.679688 Z M 175.085938 185.550781 L 184.121094 152.433594 L 216.039062 146.058594 C 217.457031 150.195312 218.160156 154.542969 218.121094 158.914062 C 217.824219 169.476562 212.644531 179.238281 201.320312 190.566406 C 197.746094 194.085938 193.929688 197.355469 189.898438 200.351562 Z M 194.195312 98.695312 C 185.707031 90.261719 175.976562 83.179688 165.339844 77.695312 L 167.339844 67.726562 C 179.910156 73.730469 191.367188 81.828125 201.226562 91.671875 Z M 153.914062 83.859375 L 147.523438 115.859375 L 114.410156 124.890625 L 99.570312 110 C 102.589844 105.992188 105.878906 102.195312 109.421875 98.636719 C 121.285156 86.796875 134.90625 77.855469 153.941406 83.875 Z M 107.339844 131.945312 L 98.308594 165.054688 L 72.5 170.210938 C 76.492188 151.8125 83.679688 134.253906 93.734375 118.339844 Z M 73.339844 135.554688 L 64.140625 132.5 C 68.390625 122.578125 73.53125 113.058594 79.5 104.066406 L 86.589844 111.160156 C 81.492188 118.90625 77.058594 127.074219 73.34375 135.570312 Z M 43.125 256.875 C 43.679688 249.578125 46.355469 242.601562 50.824219 236.804688 C 54.058594 241.746094 58.300781 245.945312 63.273438 249.128906 C 57.464844 253.636719 50.457031 256.332031 43.125 256.875 Z M 67.265625 239.800781 L 74.414062 232.65625 C 83.582031 238.296875 94.25 241.015625 105 240.460938 C 109.066406 240.429688 113.125 240.171875 117.160156 239.691406 L 115.160156 249.648438 C 96 251.316406 78.773438 248.5 67.265625 239.800781 Z M 142.5 277.695312 C 131.878906 288.316406 107.191406 291.824219 102.191406 289.269531 C 104.421875 285.410156 107.140625 281.855469 110.285156 278.695312 C 114.578125 274.578125 118.046875 269.679688 120.5 264.261719 C 121.0625 262.492188 121.386719 260.660156 121.453125 258.804688 C 130.46875 257.667969 139.378906 255.832031 148.105469 253.304688 C 148.214844 265.210938 146.25 273.953125 142.5 277.695312 Z M 215.5 204.71875 C 211.9375 208.253906 208.152344 211.5625 204.175781 214.621094 L 197.023438 207.46875 C 201.03125 204.445312 204.839844 201.164062 208.425781 197.648438 C 212.132812 194.015625 215.53125 190.078125 218.585938 185.878906 L 227.875 189.585938 C 224.285156 195.042969 220.136719 200.117188 215.5 204.71875 Z M 253.054688 230.804688 C 237.113281 246.746094 223.191406 260.671875 217.855469 262.964844 C 216.214844 255.828125 221.855469 240.765625 233.175781 229.464844 C 240.609375 222.722656 243.890625 212.53125 241.789062 202.714844 C 240.839844 199.636719 238.90625 196.953125 236.289062 195.070312 C 243.320312 184.929688 247.441406 173.054688 248.203125 160.738281 C 249.886719 161.636719 251.417969 162.792969 252.738281 164.164062 C 261.398438 172.855469 280.105469 203.738281 253.046875 230.804688 Z M 196.59375 73.085938 C 200.164062 66.011719 203.859375 58.695312 209.128906 56.996094 C 222.039062 52.839844 238.378906 50.835938 243.769531 56.230469 C 249.160156 61.625 247.15625 77.964844 243.003906 90.863281 C 241.304688 96.136719 234.003906 99.824219 226.929688 103.398438 L 226.078125 103.835938 C 217.242188 92.789062 207.210938 82.757812 196.164062 73.921875 C 196.308594 73.636719 196.453125 73.371094 196.59375 73.085938 Z M 97.28125 58.21875 C 87.464844 56.121094 77.269531 59.402344 70.523438 66.835938 C 59.386719 77.980469 44.59375 83.644531 37.054688 82.105469 C 39.425781 76.730469 53.320312 62.828125 69.21875 46.929688 C 96.253906 19.894531 127.140625 38.59375 135.828125 47.285156 C 137.199219 48.609375 138.355469 50.136719 139.25 51.820312 C 126.9375 52.589844 115.066406 56.707031 104.925781 63.734375 C 103.046875 61.113281 100.359375 59.175781 97.28125 58.21875 Z M 95.28125 84.515625 C 99.878906 79.867188 104.949219 75.710938 110.410156 72.113281 L 114.128906 81.445312 C 109.925781 84.492188 105.988281 87.882812 102.351562 91.585938 C 98.808594 95.140625 95.503906 98.921875 92.449219 102.90625 L 85.378906 95.835938 C 88.4375 91.851562 91.742188 88.066406 95.28125 84.5 Z M 22.304688 157.5 C 26.09375 153.699219 34.675781 151.769531 46.660156 151.886719 C 44.144531 160.613281 42.320312 169.523438 41.199219 178.535156 C 39.351562 178.609375 37.519531 178.929688 35.753906 179.488281 C 30.335938 181.941406 25.429688 185.410156 21.308594 189.699219 C 18.152344 192.84375 14.597656 195.5625 10.734375 197.789062 C 8.191406 192.726562 11.699219 168.089844 22.304688 157.5 Z M 22.304688 157.5 "/>
<path style=" stroke:none;fill-rule:nonzero;fill:rgb(0%,0%,0%);fill-opacity:1;" d="M 270 140 C 278.285156 140 285 133.285156 285 125 C 285 116.714844 278.285156 110 270 110 C 261.714844 110 255 116.714844 255 125 C 255 133.285156 261.714844 140 270 140 Z M 270 120 C 272.761719 120 275 122.238281 275 125 C 275 127.761719 272.761719 130 270 130 C 267.238281 130 265 127.761719 265 125 C 265 122.238281 267.238281 120 270 120 Z M 270 120 "/>
<path style=" stroke:none;fill-rule:nonzero;fill:rgb(0%,0%,0%);fill-opacity:1;" d="M 280 40 C 291.046875 40 300 31.046875 300 20 C 300 8.953125 291.046875 0 280 0 C 268.953125 0 260 8.953125 260 20 C 260 31.046875 268.953125 40 280 40 Z M 280 10 C 285.523438 10 290 14.476562 290 20 C 290 25.523438 285.523438 30 280 30 C 274.476562 30 270 25.523438 270 20 C 270 14.476562 274.476562 10 280 10 Z M 280 10 "/>
<path style=" stroke:none;fill-rule:nonzero;fill:rgb(0%,0%,0%);fill-opacity:1;" d="M 235 30 C 243.285156 30 250 23.285156 250 15 C 250 6.714844 243.285156 0 235 0 C 226.714844 0 220 6.714844 220 15 C 220 23.285156 226.714844 30 235 30 Z M 235 10 C 237.761719 10 240 12.238281 240 15 C 240 17.761719 237.761719 20 235 20 C 232.238281 20 230 17.761719 230 15 C 230 12.238281 232.238281 10 235 10 Z M 235 10 "/>
<path style=" stroke:none;fill-rule:nonzero;fill:rgb(0%,0%,0%);fill-opacity:1;" d="M 295 100 C 295 102.761719 292.761719 105 290 105 C 287.238281 105 285 102.761719 285 100 C 285 97.238281 287.238281 95 290 95 C 292.761719 95 295 97.238281 295 100 Z M 295 100 "/>
<path style=" stroke:none;fill-rule:nonzero;fill:rgb(0%,0%,0%);fill-opacity:1;" d="M 295 55 C 295 57.761719 292.761719 60 290 60 C 287.238281 60 285 57.761719 285 55 C 285 52.238281 287.238281 50 290 50 C 292.761719 50 295 52.238281 295 55 Z M 295 55 "/>
</g>
</svg>
