<svg id="Layer_1" enable-background="new 0 0 512 512" height="512" viewBox="0 0 512 512" width="512" xmlns="http://www.w3.org/2000/svg"><path d="m492 472c-43.001 0-69.512-18.125-85.96-58.771-4.334-10.709-7.983-22.986-10.989-37.135 26.551-30.261 47.668-62.593 63.739-97.475 27.057-58.725 40.21-126.311 40.21-206.619 0-.128-.001-.256-.004-.384-.035-1.841-.617-18.47-9.999-35.337-13.013-23.395-36.752-36.279-66.845-36.279-23.612 0-43.611 8.568-57.621 24.395-13.844-15.829-33.754-24.395-57.379-24.395-23.584 0-43.568 8.541-57.576 24.333-14.008-15.792-33.992-24.333-57.576-24.333s-43.568 8.541-57.576 24.333c-14.008-15.792-33.992-24.333-57.576-24.333-28.848 0-52.163 12.764-65.65 35.94-9.625 16.539-11.198 30.214-11.198 36.06 0 11.046 8.954 20 20 20 10.57 0 19.203-8.206 19.929-18.592.008-.095.928-9.457 6.398-18.275 6.403-10.324 16.102-15.133 30.521-15.133 14.51 0 24.353 4.864 30.975 15.307 3.717 5.862 5.435 12.024 6.177 15.568v305.125c0 11.046 8.954 20 20 20s20-8.954 20-20c0 0 0-295.278 0-299.754s1.68-12.51 7.025-20.939c6.622-10.443 16.465-15.307 30.975-15.307s24.353 4.864 30.975 15.307c5.345 8.429 7.025 16.8 7.025 20.939s0 299.754 0 299.754c0 11.046 8.954 20 20 20s20-8.954 20-20v-305.125c.743-3.544 2.46-9.707 6.177-15.568 6.623-10.443 16.466-15.307 30.975-15.307 14.418 0 24.117 4.809 30.521 15.133 4.721 7.611 6.047 15.763 6.327 17.913v155.454c0 56.344 2.537 100.116 8.105 135.402-19.16 19.847-41.084 38.736-65.937 56.974-8.905 6.535-10.827 19.051-4.292 27.957 3.919 5.34 9.988 8.169 16.141 8.169 4.107 0 8.251-1.261 11.816-3.877 19.082-14.002 36.581-28.454 52.575-43.413 2.007 6.507 4.185 12.672 6.552 18.524 11.086 27.395 26.103 47.54 45.906 61.587 20.748 14.715 46.699 22.177 77.134 22.177 11.046 0 20-8.954 20-20s-8.954-20-20-20zm-108-243.5v-154.855l.505.043-.016.179c.01-.096 1.059-9.682 6.688-18.56 6.623-10.443 16.466-15.307 30.975-15.307 15.13 0 25.383 4.833 31.342 14.776 4.709 7.856 5.423 16.38 5.505 17.651-.062 101.791-22.27 181.624-71.595 249.552-2.303-26.409-3.404-57.263-3.404-93.479z"/></svg>