<?xml version="1.0" encoding="UTF-8"?>
<svg xmlns="http://www.w3.org/2000/svg" xmlns:xlink="http://www.w3.org/1999/xlink" width="674pt" height="587pt" viewBox="0 0 674 587" version="1.1">
<g id="surface1">
<path style=" stroke:none;fill-rule:nonzero;fill:rgb(0%,0%,0%);fill-opacity:1;" d="M 536.355469 28.253906 C 536.578125 29.828125 537.101562 32.601562 537.550781 34.476562 C 538 36.351562 538.902344 40.398438 539.648438 43.46875 C 540.324219 46.542969 541.371094 50.066406 541.972656 51.339844 C 542.570312 52.539062 548.335938 61.457031 554.777344 71.050781 C 561.292969 80.644531 567.058594 89.265625 567.65625 90.3125 C 568.257812 91.289062 571.027344 95.410156 573.722656 99.457031 C 579.863281 108.527344 580.390625 110.101562 579.566406 115.871094 C 579.191406 118.269531 578.367188 123.515625 577.769531 127.414062 C 575.222656 144.425781 574.472656 149.746094 573.949219 153.644531 C 573.5 157.992188 571.402344 162.714844 566.234375 171.109375 C 564.585938 173.882812 563.164062 176.28125 563.164062 176.429688 C 563.164062 176.65625 560.617188 181.078125 557.546875 186.25 C 554.476562 191.496094 551.929688 195.992188 551.929688 196.292969 C 551.855469 196.515625 551.03125 197.714844 550.058594 198.914062 C 548.335938 201.089844 548.113281 201.164062 542.421875 201.011719 C 539.199219 200.863281 533.359375 200.488281 529.464844 200.039062 C 514.636719 198.464844 506.773438 198.015625 504.675781 198.613281 C 503.105469 199.0625 487.078125 212.179688 484.53125 215.179688 C 484.304688 215.402344 481.3125 218.101562 477.792969 221.175781 C 474.269531 224.171875 471.050781 227.019531 470.601562 227.46875 C 465.359375 232.339844 457.796875 238.9375 456.222656 239.910156 C 454.050781 241.261719 451.503906 241.710938 419.976562 246.957031 C 416.15625 247.632812 410.316406 248.605469 407.019531 249.207031 C 403.726562 249.804688 399.832031 250.40625 398.410156 250.628906 C 396.984375 250.777344 391.742188 251.679688 386.800781 252.578125 C 381.859375 253.476562 374.820312 254.675781 371.074219 255.277344 C 359.167969 257.148438 356.320312 257.675781 344.863281 259.625 C 338.722656 260.671875 330.410156 262.019531 326.515625 262.695312 C 322.621094 263.371094 316.480469 264.34375 312.886719 264.945312 C 309.214844 265.542969 303.300781 266.59375 299.554688 267.191406 C 295.886719 267.792969 289.894531 268.84375 286.300781 269.441406 C 282.628906 270.039062 276.488281 271.089844 272.59375 271.691406 C 254.996094 274.6875 251.703125 275.210938 246.460938 276.261719 C 242.191406 277.085938 232.90625 277.3125 203.996094 277.3125 L 167.003906 277.3125 L 160.113281 280.609375 C 156.292969 282.40625 148.804688 286.003906 143.414062 288.554688 C 138.09375 291.101562 130.308594 294.847656 126.1875 296.796875 C 122.070312 298.746094 113.007812 303.167969 105.96875 306.542969 C 90.464844 314.035156 73.988281 321.980469 64.40625 326.550781 C 32.351562 341.917969 19.546875 348.511719 19.171875 349.863281 C 18.871094 350.609375 18.945312 351.960938 19.246094 352.710938 C 19.695312 354.058594 25.3125 364.027344 26.960938 366.5 C 27.410156 367.101562 28.007812 368.300781 28.457031 369.125 C 30.03125 372.570312 31.902344 374.070312 50.699219 387.410156 C 59.238281 393.480469 63.207031 395.582031 70.394531 397.828125 C 73.089844 398.726562 76.3125 399.777344 77.511719 400.226562 C 78.78125 400.675781 88.894531 403.976562 99.976562 407.648438 C 111.136719 411.320312 134.199219 418.890625 151.277344 424.4375 C 168.351562 430.058594 186.546875 436.054688 191.714844 437.703125 C 201.226562 440.773438 205.34375 441.449219 235.152344 444.746094 C 241.140625 445.421875 250.429688 446.472656 255.746094 447.070312 C 261.136719 447.671875 270.574219 448.71875 276.714844 449.320312 C 282.929688 449.992188 292.066406 451.042969 297.085938 451.640625 C 309.589844 453.066406 311.089844 452.992188 318.726562 450.519531 C 325.46875 448.269531 339.097656 443.996094 358.71875 438 C 364.707031 436.128906 370.925781 434.179688 372.570312 433.578125 C 374.21875 433.054688 380.660156 431.03125 386.800781 429.082031 C 393.015625 427.132812 401.03125 424.585938 404.699219 423.386719 C 412.789062 420.761719 412.039062 420.386719 419.226562 431.332031 C 428.589844 445.496094 430.761719 447.894531 455.699219 471.355469 C 470.75 485.59375 472.023438 487.09375 481.234375 502.609375 C 486.027344 510.703125 490.449219 517.449219 491.046875 517.671875 C 492.84375 518.347656 493.519531 516.921875 494.714844 509.953125 C 496.664062 498.109375 496.4375 490.390625 493.667969 478.550781 C 488.574219 456.664062 490.898438 461.460938 472.175781 434.703125 C 456 411.621094 456.449219 412.367188 457.273438 410.421875 C 458.171875 408.023438 481.011719 387.636719 483.40625 387.035156 C 486.105469 386.363281 532.910156 388.011719 536.578125 388.910156 C 539.5 389.585938 544.59375 390.484375 560.917969 393.105469 C 571.101562 394.757812 583.160156 397.078125 586.003906 397.980469 C 587.277344 398.429688 591.621094 399.777344 595.742188 401.050781 C 608.847656 405.175781 623.972656 410.046875 630.191406 412.21875 C 643.820312 417.015625 646.890625 417.539062 647.5625 415.515625 C 647.863281 414.542969 640 402.699219 636.480469 398.953125 C 632.886719 395.128906 614.164062 377.441406 611.84375 375.644531 C 609.96875 374.296875 603.082031 370.472656 587.277344 362.226562 C 582.859375 359.980469 577.617188 357.132812 575.519531 356.007812 C 573.5 354.882812 568.40625 352.183594 564.289062 350.011719 C 556.949219 346.1875 547.738281 341.242188 540.324219 337.195312 C 538.300781 336.070312 536.28125 334.648438 535.828125 333.972656 C 534.929688 332.546875 535.679688 331.574219 558.894531 303.242188 C 565.335938 295.375 571.777344 286.90625 572.75 285.105469 C 573.199219 284.207031 575.296875 278.136719 577.46875 271.613281 C 583.011719 254.453125 589.976562 233.089844 590.875 230.46875 C 591.324219 229.195312 592.371094 226.046875 593.269531 223.347656 C 594.167969 220.648438 596.9375 212.03125 599.558594 204.160156 C 602.105469 196.214844 604.503906 188.570312 604.726562 187.148438 C 605.027344 185.722656 604.878906 181.375 604.429688 177.480469 C 603.980469 173.65625 603.082031 166.3125 602.480469 161.140625 C 600.910156 147.5 599.261719 131.609375 598.738281 125.089844 C 598.363281 120.519531 598.511719 119.167969 599.410156 118.195312 C 600.011719 117.59375 604.503906 114.746094 609.296875 111.972656 C 614.089844 109.125 618.507812 106.128906 619.105469 105.226562 C 620.15625 103.578125 622.476562 92.410156 623.824219 82.21875 C 624.199219 79.371094 624.722656 76.824219 624.949219 76.449219 C 625.398438 75.699219 624.199219 68.578125 622.625 62.433594 C 622.027344 60.332031 621.578125 57.636719 621.578125 56.4375 C 621.578125 54.039062 619.78125 50.964844 618.359375 50.964844 C 617.832031 50.964844 615.289062 52.164062 612.589844 53.589844 C 593.792969 63.632812 586.753906 66.855469 584.207031 66.40625 C 582.859375 66.179688 581.363281 65.582031 580.839844 64.980469 C 580.390625 64.457031 578.367188 62.65625 576.269531 61.082031 C 574.246094 59.433594 572.152344 57.785156 571.703125 57.335938 C 571.175781 56.960938 568.707031 54.636719 566.085938 52.3125 C 563.464844 49.992188 556.125 43.019531 549.835938 36.800781 C 543.46875 30.578125 537.851562 25.484375 537.179688 25.484375 C 536.28125 25.484375 536.128906 26.15625 536.355469 28.253906 Z M 550.207031 40.621094 C 554.402344 44.894531 557.921875 48.792969 557.921875 49.390625 C 557.921875 50.214844 556.800781 50.367188 552.007812 49.992188 C 545.265625 49.542969 542.945312 48.640625 542.945312 46.242188 C 542.945312 45.34375 542.421875 42.945312 541.820312 40.921875 C 540.472656 36.5 540.398438 32.976562 541.597656 32.976562 C 542.046875 32.976562 545.941406 36.425781 550.207031 40.621094 Z M 557.023438 54.039062 C 559.945312 54.5625 561.964844 55.386719 562.265625 56.0625 C 562.789062 57.484375 560.992188 70.601562 560.09375 71.5 C 559.421875 72.25 556.425781 70.078125 556.425781 68.878906 C 556.425781 68.578125 554.402344 65.355469 551.929688 61.683594 C 547.289062 54.863281 546.765625 53.589844 548.410156 52.988281 C 549.386719 52.613281 550.058594 52.6875 557.023438 54.039062 Z M 619.179688 59.433594 C 619.480469 62.808594 618.28125 63.03125 616.710938 59.960938 C 615.4375 57.410156 615.8125 55.988281 617.683594 56.363281 C 618.582031 56.511719 619.03125 57.484375 619.179688 59.433594 Z M 575.070312 63.332031 C 580.238281 67.605469 580.761719 69.328125 577.242188 70.378906 C 575.894531 70.75 572.898438 71.800781 570.652344 72.625 C 565.636719 74.5 563.914062 74.574219 563.914062 72.925781 C 563.914062 71.351562 565.484375 59.210938 565.859375 57.859375 C 566.234375 56.585938 568.632812 58.011719 575.070312 63.332031 Z M 615.363281 63.332031 C 618.28125 67.828125 618.507812 69.253906 616.1875 68.578125 C 612.664062 67.527344 605.101562 63.480469 605.101562 62.65625 C 605.101562 61.457031 609.519531 59.210938 611.46875 59.433594 C 612.292969 59.507812 613.9375 61.160156 615.363281 63.332031 Z M 600.609375 67.453125 C 602.257812 70.75 605.851562 78.695312 605.851562 79.070312 C 605.851562 79.296875 606.824219 81.542969 608.023438 84.09375 C 614.015625 97.207031 613.265625 97.359375 601.28125 85.066406 C 587.804688 71.203125 587.355469 70.378906 592.597656 67.679688 C 596.117188 65.878906 599.785156 65.730469 600.609375 67.453125 Z M 613.339844 70.675781 C 622.402344 75.171875 622.476562 75.398438 620.53125 83.867188 C 619.929688 86.566406 619.257812 90.011719 618.957031 91.511719 C 618.582031 93.910156 616.710938 96.683594 616.035156 95.859375 C 615.960938 95.710938 615.0625 93.835938 614.164062 91.8125 C 613.265625 89.714844 612.066406 87.015625 611.46875 85.816406 C 610.945312 84.542969 609.820312 82.070312 608.996094 80.195312 C 608.171875 78.320312 606.601562 74.949219 605.550781 72.625 C 602.179688 65.355469 602.554688 65.28125 613.339844 70.675781 Z M 582.035156 79.144531 C 581.660156 91.8125 580.761719 102.230469 580.015625 102.457031 C 579.640625 102.53125 578.21875 101.105469 576.945312 99.082031 C 575.671875 97.132812 572.527344 92.410156 569.980469 88.589844 C 565.035156 81.019531 564.511719 79.070312 567.132812 77.945312 C 573.722656 75.324219 580.914062 72.851562 581.511719 73 C 581.960938 73.148438 582.1875 75.699219 582.035156 79.144531 Z M 594.917969 81.917969 C 614.835938 102.378906 615.136719 102.753906 614.386719 103.953125 C 613.9375 104.628906 613.117188 105.453125 612.515625 105.828125 C 611.917969 106.128906 608.847656 107.925781 605.625 109.800781 C 602.40625 111.675781 599.261719 113.171875 598.511719 113.171875 C 597.089844 113.171875 595.515625 110.101562 594.617188 105.304688 C 594.316406 103.65625 593.195312 98.933594 592.144531 94.808594 C 589.976562 86.191406 588.625 79.820312 588.625 78.246094 C 588.625 76.222656 590.347656 77.199219 594.917969 81.917969 Z M 587.878906 87.617188 C 587.878906 88.589844 588.328125 91.136719 588.925781 93.238281 C 589.523438 95.335938 590.574219 99.230469 591.246094 101.929688 C 591.921875 104.628906 592.746094 107.925781 593.121094 109.351562 C 594.242188 113.699219 592.671875 114.296875 588.027344 111.375 C 583.160156 108.300781 583.160156 108.375 584.132812 97.433594 C 585.03125 86.867188 586.003906 82.820312 587.128906 84.691406 C 587.578125 85.292969 587.878906 86.640625 587.878906 87.617188 Z M 590.5 115.644531 C 594.394531 117.820312 595.367188 120.066406 596.265625 129.136719 C 596.640625 133.335938 597.464844 140.304688 598.0625 144.652344 C 599.261719 153.796875 599.410156 159.339844 598.363281 160.015625 C 597.988281 160.242188 597.464844 159.492188 597.238281 158.367188 C 597.015625 157.242188 596.488281 155.21875 596.039062 154.019531 C 595.589844 152.746094 594.917969 150.421875 594.617188 148.699219 C 594.242188 147.050781 593.644531 144.875 593.269531 143.828125 C 592.894531 142.851562 591.996094 140.078125 591.324219 137.679688 C 588.328125 127.113281 587.578125 124.640625 586.753906 122.167969 C 585.855469 119.84375 585.332031 116.097656 585.554688 114.445312 C 585.707031 113.546875 587.355469 113.921875 590.5 115.644531 Z M 584.058594 122.917969 C 584.957031 124.566406 585.632812 126.589844 585.632812 127.414062 C 585.632812 128.238281 586.082031 130.1875 586.679688 131.683594 C 587.578125 134.382812 588.625 137.605469 591.246094 146.898438 C 591.921875 149.148438 592.894531 152.519531 593.417969 154.394531 C 593.945312 156.269531 594.917969 159.640625 595.589844 161.890625 C 596.265625 164.136719 597.3125 167.660156 597.914062 169.757812 C 599.933594 176.730469 600.085938 178.378906 598.738281 178.378906 C 596.9375 178.378906 577.46875 161.289062 576.945312 159.191406 C 576.71875 158.21875 577.019531 154.09375 577.691406 150.121094 C 580.390625 133.257812 581.136719 127.9375 581.136719 125.164062 C 581.136719 122.542969 581.738281 119.917969 582.261719 119.917969 C 582.410156 119.917969 583.160156 121.265625 584.058594 122.917969 Z M 578.589844 165.785156 C 580.613281 167.359375 590.949219 176.203125 592.820312 178.003906 C 593.269531 178.378906 594.917969 179.726562 596.414062 181 C 601.132812 184.898438 602.40625 184.148438 575.671875 192.992188 C 558.070312 198.765625 556.425781 199.214844 556.425781 197.789062 C 556.425781 196.964844 562.414062 185.421875 565.410156 180.476562 C 566.234375 179.128906 567.207031 177.328125 567.582031 176.429688 C 568.554688 174.179688 572.976562 166.984375 574.246094 165.414062 C 575.671875 163.761719 575.96875 163.761719 578.589844 165.785156 Z M 599.859375 190.820312 C 599.859375 191.871094 584.65625 238.5625 582.261719 245.082031 C 580.761719 249.054688 575.148438 266.144531 574.472656 268.691406 C 573.347656 272.890625 571.402344 276.863281 570.726562 276.113281 C 570.355469 275.738281 569.378906 272.738281 568.554688 269.441406 C 567.734375 266.144531 566.308594 260.746094 565.410156 257.449219 C 564.4375 254.152344 563.464844 250.253906 563.164062 248.832031 C 562.863281 247.40625 561.816406 243.507812 560.917969 240.210938 C 560.019531 236.914062 558.96875 233.015625 558.597656 231.59375 C 558.296875 230.167969 557.324219 226.269531 556.425781 222.972656 C 555.527344 219.675781 554.476562 215.628906 554.179688 213.980469 C 553.804688 212.332031 553.203125 210.082031 552.753906 208.957031 C 551.855469 206.558594 552.304688 204.835938 554.027344 204.234375 C 585.855469 193.367188 596.789062 189.769531 598.210938 189.695312 C 599.261719 189.621094 599.859375 190.070312 599.859375 190.820312 Z M 523.097656 203.113281 C 528.492188 203.488281 533.957031 203.859375 535.304688 203.859375 C 537.101562 203.859375 537.703125 204.160156 537.703125 205.210938 C 537.703125 206.183594 536.503906 207.082031 533.734375 208.207031 C 531.5625 209.109375 529.613281 209.855469 529.316406 209.855469 C 529.015625 209.855469 526.617188 210.832031 523.996094 212.105469 C 521.300781 213.304688 518.90625 214.355469 518.679688 214.355469 C 518.457031 214.355469 516.507812 215.179688 514.335938 216.152344 C 499.734375 222.898438 471.351562 234.441406 470.828125 233.914062 C 470.527344 233.617188 473.296875 230.46875 477.191406 227.019531 C 505.125 201.988281 506.023438 201.3125 510.367188 201.914062 C 512.015625 202.210938 517.78125 202.738281 523.097656 203.113281 Z M 549.386719 209.632812 C 549.609375 210.832031 550.285156 213.078125 550.808594 214.730469 C 551.332031 216.378906 552.304688 219.898438 553.054688 222.597656 C 553.726562 225.296875 554.703125 228.96875 555.300781 230.84375 C 556.199219 234.140625 557.25 238.039062 559.792969 248.082031 C 560.46875 250.777344 561.292969 253.925781 561.667969 255.199219 C 562.042969 256.398438 563.015625 260.449219 563.914062 264.195312 C 564.738281 267.867188 565.933594 272.664062 566.535156 274.761719 C 567.957031 279.558594 567.957031 281.058594 566.535156 281.058594 C 565.5625 281.058594 553.878906 277.011719 545.789062 273.863281 C 544.21875 273.339844 541.597656 272.289062 539.949219 271.691406 C 538.300781 271.089844 535.679688 270.117188 534.183594 269.515625 C 532.609375 268.917969 526.992188 266.894531 521.601562 264.945312 C 516.285156 263.070312 510.59375 260.972656 509.09375 260.371094 C 501.980469 257.675781 500.03125 257 490.898438 253.703125 C 485.578125 251.828125 479.886719 249.730469 478.390625 249.128906 C 476.816406 248.53125 474.121094 247.554688 472.398438 246.882812 C 467.757812 245.15625 464.085938 243.285156 464.011719 242.609375 C 463.9375 242.234375 467.980469 240.285156 472.921875 238.1875 C 477.867188 236.164062 483.632812 233.617188 485.804688 232.640625 C 487.902344 231.667969 489.921875 230.84375 490.148438 230.84375 C 490.820312 230.84375 539.949219 209.933594 542.195312 208.65625 C 543.242188 208.132812 545.191406 207.609375 546.464844 207.609375 C 548.484375 207.609375 549.011719 207.910156 549.386719 209.632812 Z M 439.148438 248.753906 C 439.375 249.128906 435.480469 251.453125 430.386719 254.078125 C 401.480469 268.765625 394.738281 272.066406 393.691406 272.066406 C 392.269531 272.066406 391.742188 271.316406 388.300781 264.871094 C 386.726562 261.945312 385.601562 259.023438 385.902344 258.347656 C 386.203125 257.597656 388.597656 256.851562 393.691406 255.949219 C 397.734375 255.277344 403.425781 254.226562 406.273438 253.703125 C 409.191406 253.101562 414.882812 252.128906 419.003906 251.378906 C 423.121094 250.703125 428.515625 249.730469 430.984375 249.207031 C 436.453125 248.007812 438.625 247.855469 439.148438 248.753906 Z M 472.550781 251.078125 C 477.265625 252.726562 483.558594 254.902344 486.402344 255.949219 C 489.324219 256.925781 493.519531 258.425781 495.765625 259.324219 C 498.011719 260.222656 502.578125 261.871094 505.875 262.996094 C 513.136719 265.617188 520.925781 268.46875 526.46875 270.566406 C 528.714844 271.464844 531.410156 272.4375 532.460938 272.8125 C 533.507812 273.1875 536.203125 274.164062 538.449219 275.0625 C 540.699219 275.960938 543.394531 276.9375 544.441406 277.3125 C 545.492188 277.6875 548.035156 278.585938 550.058594 279.410156 C 552.15625 280.234375 556.273438 281.808594 559.269531 282.933594 C 565.785156 285.40625 566.011719 286.453125 561.066406 289.828125 C 559.121094 291.101562 554.628906 294.324219 551.105469 296.949219 C 547.511719 299.570312 541.070312 304.144531 536.878906 307.214844 C 532.609375 310.289062 524.296875 316.285156 518.382812 320.554688 C 512.539062 324.902344 507.222656 328.277344 506.546875 328.125 C 505.875 327.976562 504.375 326.027344 503.105469 323.78125 C 501.90625 321.53125 499.734375 317.707031 498.3125 315.308594 C 496.886719 312.910156 495.765625 310.8125 495.765625 310.664062 C 495.765625 310.511719 493.21875 306.015625 490.148438 300.621094 C 487.078125 295.222656 484.53125 290.652344 484.53125 290.503906 C 484.53125 290.351562 481.984375 285.78125 478.914062 280.308594 C 475.84375 274.835938 473.296875 270.339844 473.296875 270.265625 C 473.296875 270.191406 470.75 265.542969 467.679688 259.996094 C 464.609375 254.453125 462.0625 249.503906 462.0625 248.980469 C 462.0625 247.632812 463.261719 247.855469 472.550781 251.078125 Z M 451.128906 250.855469 C 450.832031 252.054688 449.78125 255.125 448.808594 257.824219 C 447.761719 260.523438 446.710938 263.519531 446.335938 264.570312 C 445.664062 266.742188 438.550781 286.679688 436.902344 291.175781 C 436.300781 292.824219 435.328125 295.597656 434.65625 297.324219 C 434.054688 299.046875 432.558594 303.242188 431.285156 306.691406 C 430.085938 310.136719 428.214844 315.234375 427.242188 318.15625 C 423.046875 330.300781 422.671875 330.898438 421.101562 328.875 C 420.652344 328.351562 414.660156 316.808594 407.769531 303.167969 C 398.558594 284.957031 395.414062 278.210938 395.9375 277.386719 C 396.386719 276.710938 398.859375 275.0625 401.480469 273.714844 C 404.101562 272.363281 413.6875 267.34375 422.746094 262.695312 C 431.808594 257.972656 441.394531 253.027344 444.089844 251.527344 C 450.308594 248.230469 451.804688 248.082031 451.128906 250.855469 Z M 458.46875 250.855469 C 459.21875 251.527344 459.816406 252.351562 459.816406 252.726562 C 459.816406 253.101562 460.566406 254.601562 461.539062 256.175781 C 462.515625 257.675781 464.535156 261.195312 466.035156 263.96875 C 467.53125 266.816406 470.078125 271.316406 471.574219 274.089844 C 473.074219 276.9375 475.09375 280.457031 476.070312 281.957031 C 477.042969 283.53125 477.792969 284.957031 477.792969 285.105469 C 477.792969 285.332031 478.765625 287.203125 480.039062 289.226562 C 481.234375 291.328125 483.484375 295.296875 484.90625 298.070312 C 486.402344 300.921875 488.199219 304.144531 488.949219 305.417969 C 489.699219 306.617188 491.71875 310.363281 493.519531 313.660156 C 495.316406 316.960938 497.410156 320.632812 498.160156 321.90625 C 502.203125 328.652344 501.679688 329.625 494.417969 327.976562 C 487.902344 326.476562 478.390625 326.402344 470.601562 327.828125 C 467.308594 328.425781 460.492188 329.402344 455.324219 330.148438 C 450.15625 330.824219 442.742188 331.875 438.847656 332.472656 C 430.910156 333.671875 426.867188 333.824219 426.867188 332.921875 C 426.867188 332.097656 428.738281 326.402344 431.285156 319.433594 C 432.558594 315.984375 434.054688 311.789062 434.65625 310.0625 C 435.328125 308.339844 436.976562 303.542969 438.472656 299.421875 C 439.898438 295.296875 442.070312 289.078125 443.34375 285.554688 C 444.539062 282.03125 446.5625 276.335938 447.835938 272.8125 C 449.109375 269.292969 451.207031 263.445312 452.480469 259.699219 C 456.371094 248.230469 456.074219 248.679688 458.46875 250.855469 Z M 381.109375 259.546875 C 382.980469 261.871094 387.925781 272.214844 387.925781 273.9375 C 387.925781 275.511719 386.578125 276.410156 377.441406 280.984375 C 371.75 283.90625 366.65625 286.304688 366.28125 286.304688 C 365.90625 286.304688 362.835938 282.855469 359.464844 278.585938 C 356.097656 274.386719 352.351562 269.742188 351.152344 268.316406 C 349.957031 266.894531 348.980469 265.320312 348.980469 264.792969 C 348.980469 263.671875 352.503906 262.695312 362.460938 261.195312 C 366.804688 260.523438 371.671875 259.699219 373.320312 259.398438 C 377.890625 258.425781 380.136719 258.5 381.109375 259.546875 Z M 342.992188 265.695312 C 344.1875 266.292969 347.183594 269.441406 349.65625 272.664062 C 352.203125 275.8125 355.722656 280.382812 357.667969 282.78125 C 359.542969 285.105469 360.964844 287.652344 360.816406 288.328125 C 360.664062 289.078125 358.492188 290.726562 355.945312 292 C 353.402344 293.351562 344.9375 297.695312 337 301.746094 L 322.695312 309.089844 L 318.800781 307.742188 C 315.507812 306.542969 310.265625 304.59375 294.914062 298.671875 C 293.339844 298.070312 290.71875 297.023438 289.070312 296.421875 C 287.421875 295.824219 284.652344 294.773438 282.929688 294.097656 C 277.988281 292.226562 274.992188 291.101562 268.101562 288.476562 C 251.925781 282.40625 250.429688 281.65625 251.175781 280.382812 C 251.476562 279.933594 252.824219 279.558594 254.097656 279.558594 C 255.445312 279.558594 257.917969 279.183594 259.640625 278.808594 C 261.4375 278.359375 264.957031 277.761719 267.503906 277.3125 C 273.644531 276.410156 295.960938 272.589844 307.417969 270.566406 C 312.363281 269.667969 318.425781 268.617188 320.898438 268.242188 C 325.765625 267.417969 340.21875 264.871094 340.59375 264.644531 C 340.746094 264.644531 341.792969 265.09375 342.992188 265.695312 Z M 394.066406 284.804688 C 397.285156 290.652344 414.882812 325.578125 416.980469 330.300781 C 417.953125 332.472656 418.628906 334.871094 418.480469 335.546875 C 418.179688 337.195312 412.863281 340.269531 410.316406 340.269531 C 408.21875 340.269531 409.792969 342.140625 383.058594 308.414062 C 376.542969 300.171875 370.851562 293.199219 370.476562 292.976562 C 370.101562 292.675781 370.027344 291.851562 370.25 291.101562 C 370.851562 289.304688 387.699219 280.308594 390.019531 280.535156 C 391.292969 280.609375 392.417969 281.808594 394.066406 284.804688 Z M 236.648438 282.558594 C 237.398438 282.933594 239.121094 286.078125 240.394531 289.453125 C 241.742188 292.902344 243.613281 297.847656 244.660156 300.546875 C 249.53125 313.4375 250.355469 315.460938 253.796875 324.453125 C 257.242188 333.222656 257.394531 333.824219 255.519531 333.371094 C 254.023438 332.921875 233.804688 320.183594 208.941406 303.917969 C 205.046875 301.371094 197.257812 296.273438 191.714844 292.675781 C 179.882812 284.957031 177.785156 283.308594 179.132812 282.40625 C 180.558594 281.507812 235 281.65625 236.648438 282.558594 Z M 182.203125 308.789062 C 190.292969 322.429688 196.957031 334.046875 196.957031 334.648438 C 196.957031 335.996094 195.085938 336.296875 180.109375 337.269531 C 173.144531 337.71875 162.808594 338.394531 157.265625 338.84375 C 151.726562 339.292969 141.914062 339.894531 135.550781 340.269531 C 129.183594 340.644531 119.597656 341.242188 114.207031 341.691406 C 108.886719 342.066406 96.382812 342.964844 86.496094 343.640625 C 76.613281 344.316406 62.308594 345.363281 54.667969 345.890625 C 46.957031 346.488281 40.589844 346.714844 40.214844 346.339844 C 39.390625 345.515625 42.460938 343.640625 53.921875 338.167969 C 59.085938 335.695312 72.71875 329.101562 84.25 323.40625 C 95.78125 317.785156 112.257812 309.765625 120.871094 305.566406 C 129.484375 301.371094 142.738281 294.847656 150.453125 291.027344 C 158.089844 287.277344 165.054688 284.132812 165.878906 284.132812 C 167.152344 284.054688 170.371094 289.003906 182.203125 308.789062 Z M 267.726562 293.050781 C 278.886719 297.324219 289.671875 301.371094 291.691406 302.195312 C 293.789062 303.019531 296.261719 303.917969 297.308594 304.292969 C 298.355469 304.667969 301.054688 305.640625 303.300781 306.542969 C 305.546875 307.441406 308.316406 308.414062 309.367188 308.789062 C 312.8125 309.839844 316.179688 311.9375 315.582031 312.535156 C 315.207031 312.910156 308.167969 316.585938 299.929688 320.78125 C 291.691406 325.054688 280.757812 330.601562 275.664062 333.296875 C 270.574219 335.921875 266.003906 337.945312 265.480469 337.71875 C 264.507812 337.421875 262.035156 332.546875 259.863281 326.777344 C 259.117188 324.902344 256.792969 318.984375 254.695312 313.660156 C 250.503906 303.316406 249.082031 299.496094 247.507812 295.296875 C 246.984375 293.875 246.011719 291.25 245.335938 289.453125 C 243.988281 285.929688 244.363281 284.507812 246.308594 285.03125 C 246.984375 285.179688 256.644531 288.851562 267.726562 293.050781 Z M 188.195312 295.972656 C 210.363281 310.664062 241.515625 331.050781 247.28125 334.722656 C 253.273438 338.46875 252.300781 338.992188 240.992188 338.46875 C 230.65625 337.945312 215.90625 336.820312 209.089844 336.070312 C 206.394531 335.769531 204.671875 335.171875 203.621094 334.046875 C 201.824219 332.097656 177.488281 291.777344 177.488281 290.652344 C 177.488281 289.378906 180.40625 290.800781 188.195312 295.972656 Z M 366.28125 293.949219 C 366.957031 294.472656 371.972656 300.621094 377.515625 307.664062 C 383.058594 314.636719 390.546875 324.078125 394.140625 328.574219 C 397.734375 333.074219 400.65625 337.046875 400.65625 337.421875 C 400.65625 338.695312 397.0625 337.871094 389.121094 334.722656 C 384.554688 332.921875 378.113281 330.375 374.820312 329.101562 C 334.003906 313.585938 330.933594 312.3125 331.160156 311.113281 C 331.308594 310.511719 337.300781 306.914062 344.5625 303.167969 C 351.753906 299.496094 359.015625 295.671875 360.664062 294.773438 C 364.109375 292.824219 364.785156 292.75 366.28125 293.949219 Z M 555.675781 300.394531 C 555.675781 300.695312 551.855469 305.492188 547.289062 311.039062 C 542.644531 316.660156 537.027344 323.40625 534.855469 326.101562 C 532.757812 328.875 530.4375 331.273438 529.839844 331.574219 C 528.265625 332.171875 514.488281 331.199219 514.039062 330.449219 C 513.511719 329.550781 516.210938 327.078125 523.921875 321.679688 C 527.59375 319.058594 535.90625 313.136719 542.496094 308.414062 C 553.878906 300.171875 555.675781 299.046875 555.675781 300.394531 Z M 332.132812 317.410156 C 336.550781 319.207031 344.039062 322.054688 356.472656 326.703125 C 359.992188 328.050781 364.183594 329.625 365.832031 330.300781 C 369.425781 331.648438 373.921875 333.371094 377.441406 334.648438 C 383.957031 337.046875 387.027344 338.246094 390.019531 339.742188 L 393.242188 341.390625 L 384.03125 341.617188 C 378.9375 341.765625 355.796875 341.46875 332.507812 341.09375 C 309.214844 340.644531 287.050781 340.269531 283.304688 340.269531 C 278.210938 340.269531 276.339844 340.042969 276.339844 339.292969 C 276.339844 338.84375 277.089844 338.019531 278.0625 337.644531 C 282.257812 335.621094 317.230469 317.484375 318.054688 316.882812 C 321.046875 314.484375 325.167969 314.636719 332.132812 317.410156 Z M 482.132812 332.25 C 482.734375 332.921875 482.734375 337.269531 482.285156 346.640625 C 480.9375 373.246094 480.488281 376.320312 478.691406 375.195312 C 477.792969 374.667969 462.140625 351.433594 456.597656 342.441406 C 454.425781 338.992188 453.226562 336.222656 453.527344 335.546875 C 453.75 334.796875 455.175781 334.199219 457.046875 333.898438 C 458.769531 333.671875 463.414062 333.074219 467.308594 332.472656 C 476.667969 331.125 481.160156 331.050781 482.132812 332.25 Z M 502.730469 333.523438 C 507.222656 333.972656 512.613281 334.648438 514.636719 335.023438 C 516.734375 335.472656 519.878906 335.769531 521.675781 335.769531 C 523.398438 335.769531 525.792969 336.144531 526.917969 336.519531 L 528.941406 337.34375 L 528.414062 344.242188 C 528.117188 348.0625 527.59375 357.132812 527.292969 364.476562 C 526.992188 371.746094 526.542969 377.890625 526.320312 378.117188 C 525.570312 378.867188 523.773438 377.667969 522.5 375.492188 C 521.75 374.296875 520.777344 372.871094 520.253906 372.347656 C 519.730469 371.820312 518.15625 369.722656 516.734375 367.773438 C 512.164062 361.402344 510.890625 359.753906 501.382812 347.011719 C 492.394531 334.945312 490.449219 331.425781 493.367188 332.324219 C 494.042969 332.546875 498.3125 333.074219 502.730469 333.523438 Z M 443.640625 338.394531 C 443.492188 342.140625 439.148438 354.882812 438.023438 354.882812 C 435.851562 354.882812 427.316406 341.242188 428.140625 339.070312 C 428.363281 338.46875 429.414062 338.019531 430.535156 338.019531 C 431.585938 337.945312 434.503906 337.496094 436.976562 336.894531 C 443.042969 335.546875 443.714844 335.695312 443.640625 338.394531 Z M 503.253906 355.40625 C 520.253906 378.191406 521.976562 380.589844 521.976562 382.015625 C 521.976562 382.765625 519.730469 382.988281 510.96875 382.914062 C 504.824219 382.839844 496.511719 382.613281 492.394531 382.316406 L 484.90625 381.863281 L 484.679688 378.117188 C 484.382812 374.371094 485.65625 349.410156 486.554688 340.417969 C 486.777344 337.792969 487.300781 335.769531 487.828125 335.769531 C 488.277344 335.847656 495.238281 344.613281 503.253906 355.40625 Z M 543.84375 343.042969 C 548.484375 345.363281 555.078125 348.886719 558.445312 350.910156 C 565.335938 355.03125 565.484375 355.558594 560.242188 359.082031 C 558.820312 360.054688 552.980469 364.328125 547.363281 368.523438 C 534.707031 377.890625 531.039062 380.367188 530.4375 379.765625 C 530.214844 379.464844 530.363281 373.769531 530.886719 367.101562 C 531.335938 360.355469 531.710938 352.261719 531.710938 349.1875 C 531.710938 341.46875 532.308594 338.769531 534.03125 338.769531 C 534.78125 338.769531 539.199219 340.644531 543.84375 343.042969 Z M 428.214844 348.886719 C 432.632812 356.382812 433.53125 358.480469 432.332031 359.230469 C 431.960938 359.453125 429.863281 359.304688 427.617188 359.003906 C 425.367188 358.628906 418.480469 357.804688 412.261719 357.132812 C 406.121094 356.457031 397.136719 355.484375 392.417969 354.882812 C 387.699219 354.285156 378.9375 353.308594 372.945312 352.632812 C 366.957031 351.960938 358.195312 350.910156 353.402344 350.3125 C 348.683594 349.710938 343.589844 349.261719 342.09375 349.261719 C 339.023438 349.261719 324.195312 346.488281 323.59375 345.8125 C 323.371094 345.515625 337.449219 345.664062 354.972656 345.964844 C 372.496094 346.339844 392.042969 346.640625 398.410156 346.640625 C 410.988281 346.640625 409.492188 347.011719 419.675781 341.542969 C 420.875 340.941406 422.222656 340.566406 422.671875 340.71875 C 423.121094 340.941406 425.59375 344.613281 428.214844 348.886719 Z M 451.65625 341.992188 C 454.351562 345.8125 468.65625 367.175781 470.902344 370.847656 C 473.222656 374.59375 473.898438 376.992188 472.773438 376.992188 C 472.398438 376.992188 471.199219 376.46875 469.929688 375.792969 C 468.730469 375.121094 461.988281 371.746094 455.101562 368.222656 C 448.136719 364.703125 442.292969 361.328125 442.070312 360.804688 C 441.84375 360.28125 442.21875 358.332031 442.894531 356.605469 C 443.492188 354.808594 444.914062 350.460938 445.964844 346.789062 C 448.058594 339.820312 449.332031 338.695312 451.65625 341.992188 Z M 231.78125 342.890625 C 239.644531 343.492188 251.101562 344.316406 257.242188 344.765625 C 263.460938 345.140625 271.546875 345.8125 275.214844 346.1875 C 278.960938 346.640625 286.675781 347.464844 292.441406 348.136719 C 316.253906 350.6875 334.378906 352.710938 353.476562 354.882812 C 358.644531 355.484375 367.554688 356.457031 373.320312 357.132812 C 379.085938 357.804688 387.847656 358.78125 392.792969 359.378906 C 397.734375 359.980469 404.101562 360.652344 407.019531 360.953125 C 415.859375 361.777344 418.628906 363.800781 412.113281 364.625 C 408.21875 365.078125 396.910156 366.726562 386.050781 368.375 C 382.382812 368.972656 375.792969 369.949219 371.449219 370.621094 C 353.925781 373.320312 349.058594 374.070312 342.617188 375.121094 C 338.945312 375.71875 332.207031 376.691406 327.640625 377.367188 C 323.144531 378.042969 316.40625 379.089844 312.660156 379.617188 C 292.890625 382.765625 294.613281 382.765625 270.722656 379.617188 C 266.230469 379.089844 258.140625 378.042969 252.75 377.367188 C 247.433594 376.691406 239.34375 375.71875 234.777344 375.121094 C 230.285156 374.519531 222.34375 373.546875 217.179688 372.871094 C 208.042969 371.746094 200.101562 370.699219 181.605469 368.300781 C 168.199219 366.574219 157.265625 365.226562 146.40625 363.878906 C 141.089844 363.203125 133.003906 362.226562 128.433594 361.628906 C 123.941406 361.027344 118.550781 360.355469 116.453125 360.128906 C 114.429688 359.90625 110.535156 359.378906 107.839844 359.003906 C 105.144531 358.628906 98.628906 357.804688 93.238281 357.132812 C 87.917969 356.457031 79.980469 355.484375 75.636719 354.882812 C 71.292969 354.285156 65.527344 353.609375 62.757812 353.382812 C 59.910156 353.085938 57.664062 352.632812 57.664062 352.261719 C 57.664062 350.984375 59.460938 350.761719 99.226562 348.136719 C 109.113281 347.539062 121.246094 346.640625 126.1875 346.265625 C 131.128906 345.890625 138.246094 345.363281 141.914062 345.140625 C 150.152344 344.613281 176.363281 342.742188 187.597656 341.765625 C 197.78125 340.941406 213.058594 341.316406 231.78125 342.890625 Z M 36.695312 355.632812 C 42.238281 356.230469 70.695312 359.679688 85.746094 361.628906 C 90.316406 362.226562 95.859375 362.902344 98.105469 363.128906 C 100.351562 363.351562 104.394531 363.800781 107.089844 364.25 C 109.789062 364.625 116.527344 365.449219 122.070312 366.125 C 134.875 367.625 146.933594 369.125 158.390625 370.546875 C 163.332031 371.222656 171.945312 372.269531 177.488281 372.871094 C 183.027344 373.546875 190.667969 374.59375 194.335938 375.195312 C 198.082031 375.71875 203.25 376.542969 205.945312 376.917969 L 210.8125 377.519531 L 204.070312 377.667969 C 200.402344 377.742188 191.640625 377.441406 184.601562 376.992188 C 166.402344 375.945312 135.550781 374.144531 111.210938 372.871094 C 99.675781 372.269531 84.175781 371.371094 76.761719 370.921875 C 69.347656 370.546875 57.515625 369.871094 50.476562 369.574219 C 40.738281 369.199219 37.144531 368.75 35.871094 367.847656 C 33.925781 366.574219 29.207031 357.957031 29.207031 355.707031 C 29.207031 354.660156 29.582031 354.433594 30.929688 354.734375 C 31.828125 354.957031 34.449219 355.40625 36.695312 355.632812 Z M 574.097656 371.445312 C 576.417969 377.96875 578.515625 384.339844 578.890625 385.613281 C 579.265625 386.8125 579.789062 388.609375 580.015625 389.507812 C 580.839844 392.058594 578.964844 392.359375 571.550781 390.933594 C 567.957031 390.335938 561.816406 389.210938 557.921875 388.609375 C 548.1875 386.960938 537.550781 385.085938 536.429688 384.789062 C 535.082031 384.414062 535.230469 383.140625 536.804688 381.863281 C 543.769531 376.09375 568.78125 358.332031 569.304688 358.855469 C 569.679688 359.230469 571.851562 364.851562 574.097656 371.445312 Z M 582.035156 367.773438 C 585.03125 370.621094 589.152344 374.445312 591.246094 376.320312 C 593.269531 378.191406 599.1875 383.589844 604.351562 388.386719 C 609.519531 393.105469 614.988281 398.054688 616.558594 399.476562 C 622.027344 404.347656 619.78125 404.425781 605.101562 399.777344 C 587.652344 394.304688 586.378906 393.78125 585.183594 392.132812 C 584.582031 391.308594 582.785156 386.585938 581.136719 381.714844 C 579.566406 376.84375 577.542969 370.996094 576.644531 368.75 C 573.796875 361.105469 574.699219 360.953125 582.035156 367.773438 Z M 453.828125 372.195312 C 461.613281 376.167969 468.054688 379.691406 468.054688 380.066406 C 468.054688 381.039062 463.113281 380.890625 447.085938 379.691406 C 439.449219 379.089844 423.945312 378.042969 412.636719 377.367188 C 401.328125 376.691406 389.496094 375.945312 386.425781 375.71875 L 380.808594 375.269531 L 383.355469 374.21875 C 386.050781 373.097656 388.597656 372.570312 401.40625 370.621094 C 413.3125 368.824219 422.898438 367.25 428.738281 366.125 C 438.25 364.402344 438.25 364.328125 453.828125 372.195312 Z M 591.996094 368.597656 C 595.816406 370.546875 599.710938 372.644531 606 376.320312 C 610.71875 379.089844 611.167969 379.617188 615.886719 387.710938 C 618.582031 392.433594 620.828125 396.628906 620.828125 397.15625 C 620.828125 398.429688 617.984375 396.328125 609.59375 388.609375 C 587.953125 368.671875 583.757812 364.402344 587.726562 366.425781 C 588.402344 366.800781 590.347656 367.773438 591.996094 368.597656 Z M 56.316406 377.816406 C 59.3125 378.265625 64.855469 379.089844 68.523438 379.691406 C 72.269531 380.214844 79.007812 381.265625 83.5 381.863281 C 88.070312 382.539062 95.109375 383.589844 99.226562 384.1875 C 106.117188 385.238281 109.863281 385.761719 128.433594 388.609375 C 132.179688 389.210938 139.21875 390.183594 144.160156 390.859375 C 149.105469 391.53125 155.542969 392.507812 158.390625 393.105469 C 161.3125 393.707031 165.878906 394.382812 168.726562 394.605469 C 171.496094 394.90625 173.742188 395.429688 173.742188 395.878906 C 173.742188 396.703125 167.152344 396.554688 146.40625 395.054688 C 140.640625 394.605469 127.984375 393.78125 118.324219 393.183594 C 108.664062 392.507812 92.636719 391.457031 82.753906 390.785156 L 64.777344 389.585938 L 59.535156 386.136719 C 49.5 379.464844 46.878906 376.992188 49.800781 376.992188 C 50.398438 376.992188 53.320312 377.367188 56.316406 377.816406 Z M 135.175781 379.242188 C 140.566406 379.691406 152.324219 380.289062 161.386719 380.742188 C 170.445312 381.117188 183.777344 381.789062 190.964844 382.238281 C 198.15625 382.613281 214.707031 383.511719 227.664062 384.113281 C 240.617188 384.710938 257.316406 385.613281 264.730469 385.988281 C 272.144531 386.4375 281.730469 386.960938 286.074219 387.109375 C 290.417969 387.335938 296.636719 388.011719 299.929688 388.609375 C 303.226562 389.210938 309.140625 390.183594 313.035156 390.859375 C 321.574219 392.28125 329.363281 393.632812 343.367188 396.179688 C 349.132812 397.230469 355.722656 398.355469 357.96875 398.726562 C 360.214844 399.101562 364.785156 399.925781 368.078125 400.527344 C 376.464844 402.101562 391.292969 404.722656 396.011719 405.472656 C 401.03125 406.296875 404.324219 408.246094 406.121094 411.320312 C 408.742188 415.816406 408.820312 415.816406 381.933594 413.34375 C 359.242188 411.167969 346.210938 410.046875 332.507812 408.847656 C 258.890625 402.699219 241.441406 400.75 208.941406 395.355469 C 205.421875 394.832031 198.90625 393.78125 194.335938 393.105469 C 189.84375 392.433594 183.101562 391.382812 179.359375 390.859375 C 175.6875 390.257812 168.949219 389.285156 164.382812 388.609375 C 159.886719 387.9375 153.296875 386.886719 149.777344 386.363281 C 146.257812 385.835938 139.367188 384.789062 134.425781 384.113281 C 129.484375 383.4375 122.96875 382.390625 119.898438 381.789062 C 116.902344 381.191406 113.308594 380.742188 111.957031 380.742188 C 108.515625 380.742188 104.84375 379.917969 104.84375 379.167969 C 104.84375 378.265625 122.96875 378.34375 135.175781 379.242188 Z M 378.5625 379.617188 C 392.34375 380.664062 405.449219 381.488281 432.859375 382.988281 C 450.007812 383.964844 462.0625 385.011719 462.589844 385.539062 C 463.414062 386.363281 462.214844 386.886719 452.554688 389.433594 C 447.3125 390.785156 441.09375 392.507812 438.847656 393.105469 C 436.601562 393.707031 430.835938 395.207031 426.117188 396.480469 C 421.398438 397.679688 415.484375 399.328125 413.011719 400.003906 C 407.394531 401.652344 398.484375 401.652344 390.921875 400.078125 C 387.847656 399.402344 382.082031 398.277344 378.1875 397.605469 C 374.292969 396.929688 368.527344 395.878906 365.457031 395.355469 C 362.386719 394.757812 356.921875 393.78125 353.324219 393.183594 C 347.183594 392.058594 343.738281 391.457031 328.386719 388.683594 C 325.09375 388.085938 320.597656 387.335938 318.503906 387.109375 C 311.386719 386.210938 312.8125 384.1875 321.273438 383.0625 C 332.507812 381.488281 342.691406 379.917969 345.613281 379.316406 C 350.40625 378.265625 363.210938 378.417969 378.5625 379.617188 Z M 470.601562 390.410156 C 471.277344 391.457031 452.777344 407.199219 449.632812 408.246094 C 448.058594 408.769531 445.066406 409.519531 442.96875 409.894531 C 440.945312 410.269531 434.054688 411.621094 427.765625 412.894531 C 421.398438 414.242188 415.632812 415.066406 414.882812 414.84375 C 413.085938 414.242188 408.445312 407.121094 409.34375 406.222656 C 409.71875 405.921875 412.710938 404.949219 416.007812 404.125 C 419.304688 403.300781 424.695312 401.875 427.988281 400.976562 C 431.285156 400.078125 435.03125 399.027344 436.226562 398.726562 C 437.5 398.429688 441.171875 397.378906 444.464844 396.480469 C 447.761719 395.582031 452.328125 394.304688 454.574219 393.707031 C 456.820312 393.105469 459.894531 392.28125 461.316406 391.984375 C 462.738281 391.609375 464.984375 391.007812 466.183594 390.632812 C 469.105469 389.660156 470.152344 389.585938 470.601562 390.410156 Z M 628.765625 396.03125 C 633.933594 401.050781 634.382812 401.726562 633.558594 403.226562 C 631.6875 406.746094 629.664062 406 626.894531 400.828125 C 625.996094 399.027344 624.421875 396.253906 623.449219 394.605469 C 619.78125 388.535156 621.503906 389.058594 628.765625 396.03125 Z M 143.785156 400.601562 C 173.742188 402.101562 209.613281 404.347656 240.019531 406.597656 C 248.257812 407.273438 257.691406 407.945312 260.988281 408.097656 C 266.902344 408.546875 271.472656 408.847656 298.058594 411.09375 C 311.164062 412.21875 318.351562 412.820312 347.109375 415.515625 C 353.699219 416.191406 361.636719 416.867188 364.785156 417.164062 C 375.566406 418.066406 373.996094 419.9375 361.714844 420.761719 C 357.820312 421.0625 349.882812 421.738281 344.113281 422.335938 C 338.347656 422.9375 327.9375 423.910156 320.898438 424.585938 C 313.933594 425.261719 303.375 426.234375 297.457031 426.835938 C 278.585938 428.78125 277.914062 428.78125 243.761719 422.335938 C 240.46875 421.738281 234.777344 420.6875 231.03125 420.015625 C 227.363281 419.414062 221.96875 418.441406 219.050781 417.839844 C 216.203125 417.316406 210.8125 416.339844 207.066406 415.667969 C 203.398438 414.992188 194.785156 413.492188 187.972656 412.21875 C 181.15625 410.945312 172.617188 409.445312 168.875 408.769531 C 160.113281 407.273438 150.828125 405.625 143.785156 404.347656 C 140.714844 403.75 136.523438 403.074219 134.425781 402.851562 C 132.402344 402.550781 129.484375 401.726562 128.058594 400.902344 L 125.4375 399.402344 L 130.679688 399.777344 C 133.601562 400.003906 139.441406 400.378906 143.785156 400.601562 Z M 120.945312 405.472656 C 130.605469 407.273438 131.65625 407.421875 139.292969 408.847656 C 148.207031 410.421875 174.714844 415.21875 188.71875 417.839844 C 191.789062 418.363281 197.40625 419.414062 201.078125 420.015625 C 204.820312 420.6875 212.535156 422.113281 218.300781 423.160156 C 227.886719 424.886719 234.476562 426.085938 245.636719 428.035156 C 247.882812 428.484375 252.601562 429.234375 256.046875 429.832031 C 259.488281 430.433594 262.859375 431.105469 263.535156 431.257812 C 264.207031 431.480469 267.953125 432.15625 271.921875 432.753906 C 279.335938 433.878906 279.109375 433.878906 304.421875 431.332031 C 310.640625 430.730469 321.046875 429.683594 327.640625 429.082031 C 349.28125 426.984375 361.9375 425.636719 371.972656 424.511719 C 381.183594 423.460938 384.480469 423.535156 382.90625 424.960938 C 382.382812 425.484375 378.488281 426.683594 359.09375 432.53125 C 348.007812 435.902344 330.710938 441.300781 323.894531 443.472656 C 311.835938 447.445312 307.195312 447.59375 283.828125 444.820312 C 267.726562 442.949219 255.371094 441.597656 244.136719 440.324219 C 233.953125 439.277344 222.71875 437.925781 208.414062 436.203125 C 204.148438 435.753906 195.535156 433.28125 180.332031 428.257812 C 168.273438 424.285156 150.675781 418.515625 141.164062 415.441406 C 131.730469 412.292969 121.621094 408.921875 118.699219 407.945312 C 115.851562 406.898438 112.183594 405.773438 110.609375 405.324219 C 108.589844 404.722656 107.988281 404.347656 108.738281 403.824219 C 109.261719 403.523438 110.535156 403.449219 111.585938 403.675781 C 112.632812 403.898438 116.828125 404.722656 120.945312 405.472656 Z M 639.402344 409.070312 C 639.625 410.796875 639.027344 411.09375 637.003906 410.269531 C 635.582031 409.746094 635.433594 408.023438 636.78125 407.496094 C 638.277344 406.824219 639.175781 407.347656 639.402344 409.070312 Z M 445.964844 415.21875 C 446.1875 415.59375 444.539062 418.816406 442.21875 422.335938 C 439.898438 425.933594 436.527344 431.105469 434.730469 434.027344 C 432.859375 436.878906 431.058594 439.199219 430.6875 439.199219 C 429.414062 439.199219 418.703125 423.011719 418.628906 421.0625 C 418.628906 420.3125 419.304688 419.5625 420.351562 419.414062 C 426.417969 418.140625 433.90625 416.492188 437.726562 415.59375 C 443.265625 414.394531 445.363281 414.242188 445.964844 415.21875 Z M 453.976562 422.785156 C 454.726562 425.410156 455.625 428.558594 456 429.832031 C 456.371094 431.03125 457.945312 436.652344 459.441406 442.199219 C 461.015625 447.746094 463.710938 457.488281 465.585938 463.859375 C 467.605469 471.054688 468.578125 475.699219 468.207031 476.074219 C 466.855469 477.425781 435.179688 446.546875 435.105469 443.847656 C 435.105469 442.273438 438.101562 437.101562 447.609375 422.488281 C 449.484375 419.640625 451.355469 417.539062 451.804688 417.691406 C 452.253906 417.839844 453.226562 420.089844 453.976562 422.785156 Z M 471.949219 441.222656 C 477.941406 449.84375 483.183594 457.5625 483.707031 458.539062 C 484.457031 459.960938 484.082031 461.234375 480.414062 468.28125 C 478.089844 472.703125 475.769531 476.75 475.171875 477.351562 C 474.269531 478.324219 473.972656 478.175781 473.296875 476.300781 C 472.550781 474.425781 470.453125 467.007812 468.804688 460.5625 C 467.605469 455.914062 463.039062 439.800781 460.941406 432.753906 C 459.667969 428.484375 459.519531 425.710938 460.492188 425.710938 C 460.867188 425.710938 466.035156 432.679688 471.949219 441.222656 Z M 487.976562 472.628906 C 488.425781 474.203125 489.472656 478.175781 490.148438 481.398438 C 491.945312 489.042969 491.570312 489.492188 484.53125 487.242188 C 478.316406 485.144531 477.492188 484.171875 479.140625 480.496094 C 481.761719 474.875 485.429688 469.105469 486.253906 469.40625 C 486.777344 469.554688 487.527344 470.980469 487.976562 472.628906 Z M 485.65625 492.488281 C 491.496094 494.511719 492.09375 495.261719 491.496094 500.957031 C 490.898438 507.179688 490.449219 507.855469 488.5 505.753906 C 486.253906 503.355469 480.039062 492.265625 480.488281 491.515625 C 481.011719 490.765625 480.488281 490.691406 485.65625 492.488281 Z M 485.65625 492.488281 "/>
</g>
</svg>
